%TF.GenerationSoftware,KiCad,Pcbnew,(6.0.1)*%
%TF.CreationDate,2022-12-05T15:25:31+08:00*%
%TF.ProjectId,IMU_base_V7.1,494d555f-6261-4736-955f-56372e312e6b,rev?*%
%TF.SameCoordinates,Original*%
%TF.FileFunction,Copper,L1,Top*%
%TF.FilePolarity,Positive*%
%FSLAX46Y46*%
G04 Gerber Fmt 4.6, Leading zero omitted, Abs format (unit mm)*
G04 Created by KiCad (PCBNEW (6.0.1)) date 2022-12-05 15:25:31*
%MOMM*%
%LPD*%
G01*
G04 APERTURE LIST*
G04 Aperture macros list*
%AMRoundRect*
0 Rectangle with rounded corners*
0 $1 Rounding radius*
0 $2 $3 $4 $5 $6 $7 $8 $9 X,Y pos of 4 corners*
0 Add a 4 corners polygon primitive as box body*
4,1,4,$2,$3,$4,$5,$6,$7,$8,$9,$2,$3,0*
0 Add four circle primitives for the rounded corners*
1,1,$1+$1,$2,$3*
1,1,$1+$1,$4,$5*
1,1,$1+$1,$6,$7*
1,1,$1+$1,$8,$9*
0 Add four rect primitives between the rounded corners*
20,1,$1+$1,$2,$3,$4,$5,0*
20,1,$1+$1,$4,$5,$6,$7,0*
20,1,$1+$1,$6,$7,$8,$9,0*
20,1,$1+$1,$8,$9,$2,$3,0*%
%AMFreePoly0*
4,1,18,-0.650000,0.472500,-0.646004,0.492591,-0.634623,0.509623,-0.617591,0.521004,-0.597500,0.525000,0.440000,0.525000,0.650000,0.315000,0.650000,-0.472500,0.646004,-0.492591,0.634623,-0.509623,0.617591,-0.521004,0.597500,-0.525000,-0.597500,-0.525000,-0.617591,-0.521004,-0.634623,-0.509623,-0.646004,-0.492591,-0.650000,-0.472500,-0.650000,0.472500,-0.650000,0.472500,$1*%
G04 Aperture macros list end*
%TA.AperFunction,SMDPad,CuDef*%
%ADD10RoundRect,0.040000X-0.460000X-0.360000X0.460000X-0.360000X0.460000X0.360000X-0.460000X0.360000X0*%
%TD*%
%TA.AperFunction,SMDPad,CuDef*%
%ADD11RoundRect,0.050000X1.350000X0.450000X-1.350000X0.450000X-1.350000X-0.450000X1.350000X-0.450000X0*%
%TD*%
%TA.AperFunction,SMDPad,CuDef*%
%ADD12RoundRect,0.030000X0.820000X0.270000X-0.820000X0.270000X-0.820000X-0.270000X0.820000X-0.270000X0*%
%TD*%
%TA.AperFunction,SMDPad,CuDef*%
%ADD13RoundRect,0.040000X0.360000X-0.460000X0.360000X0.460000X-0.360000X0.460000X-0.360000X-0.460000X0*%
%TD*%
%TA.AperFunction,SMDPad,CuDef*%
%ADD14RoundRect,0.040000X0.460000X0.360000X-0.460000X0.360000X-0.460000X-0.360000X0.460000X-0.360000X0*%
%TD*%
%TA.AperFunction,SMDPad,CuDef*%
%ADD15RoundRect,0.030000X0.470000X0.270000X-0.470000X0.270000X-0.470000X-0.270000X0.470000X-0.270000X0*%
%TD*%
%TA.AperFunction,SMDPad,CuDef*%
%ADD16RoundRect,0.040000X-0.360000X0.460000X-0.360000X-0.460000X0.360000X-0.460000X0.360000X0.460000X0*%
%TD*%
%TA.AperFunction,ComponentPad*%
%ADD17R,3.800000X3.800000*%
%TD*%
%TA.AperFunction,ComponentPad*%
%ADD18C,3.800000*%
%TD*%
%TA.AperFunction,SMDPad,CuDef*%
%ADD19FreePoly0,90.000000*%
%TD*%
%TA.AperFunction,SMDPad,CuDef*%
%ADD20RoundRect,0.052500X0.472500X-0.597500X0.472500X0.597500X-0.472500X0.597500X-0.472500X-0.597500X0*%
%TD*%
%TA.AperFunction,SMDPad,CuDef*%
%ADD21R,2.440000X1.120000*%
%TD*%
%TA.AperFunction,SMDPad,CuDef*%
%ADD22RoundRect,0.015000X0.410000X0.135000X-0.410000X0.135000X-0.410000X-0.135000X0.410000X-0.135000X0*%
%TD*%
%TA.AperFunction,SMDPad,CuDef*%
%ADD23RoundRect,0.015000X-0.135000X0.410000X-0.135000X-0.410000X0.135000X-0.410000X0.135000X0.410000X0*%
%TD*%
%TA.AperFunction,SMDPad,CuDef*%
%ADD24RoundRect,0.030000X-0.820000X-0.270000X0.820000X-0.270000X0.820000X0.270000X-0.820000X0.270000X0*%
%TD*%
%TA.AperFunction,SMDPad,CuDef*%
%ADD25RoundRect,0.050000X-1.350000X-0.450000X1.350000X-0.450000X1.350000X0.450000X-1.350000X0.450000X0*%
%TD*%
%TA.AperFunction,ViaPad*%
%ADD26C,0.800000*%
%TD*%
%TA.AperFunction,ViaPad*%
%ADD27C,0.400000*%
%TD*%
%TA.AperFunction,ViaPad*%
%ADD28C,0.600000*%
%TD*%
%TA.AperFunction,ViaPad*%
%ADD29C,4.000000*%
%TD*%
%TA.AperFunction,Conductor*%
%ADD30C,0.250000*%
%TD*%
%TA.AperFunction,Conductor*%
%ADD31C,0.350000*%
%TD*%
%TA.AperFunction,Conductor*%
%ADD32C,0.500000*%
%TD*%
G04 APERTURE END LIST*
D10*
%TO.P,C16,1*%
%TO.N,GND*%
X179050000Y-88900000D03*
%TO.P,C16,2*%
%TO.N,/XTAL1*%
X179050000Y-90500000D03*
%TD*%
%TO.P,120,1*%
%TO.N,/CAN_L*%
X157900000Y-89400000D03*
%TO.P,120,2*%
%TO.N,/CAN_H*%
X157900000Y-91000000D03*
%TD*%
D11*
%TO.P,J1,MP*%
%TO.N,N/C*%
X152178000Y-85650000D03*
X152178000Y-78200000D03*
D12*
%TO.P,J1,4*%
%TO.N,GND*%
X155528000Y-80050000D03*
%TO.P,J1,3*%
%TO.N,/SWCLK*%
X155528000Y-81300000D03*
%TO.P,J1,2*%
%TO.N,/SWDIO*%
X155528000Y-82550000D03*
%TO.P,J1,1*%
%TO.N,+3V3*%
X155528000Y-83800000D03*
%TD*%
D13*
%TO.P,C2,1*%
%TO.N,+3V3*%
X175950000Y-94000000D03*
%TO.P,C2,2*%
%TO.N,GND*%
X177550000Y-94000000D03*
%TD*%
D10*
%TO.P,LED1,1,Cathode*%
%TO.N,GND*%
X178000000Y-78500000D03*
%TO.P,LED1,2,Anode*%
%TO.N,Net-(D3-Pad2)*%
X178000000Y-80100000D03*
%TD*%
D14*
%TO.P,C4,1*%
%TO.N,+3V3*%
X177350000Y-88700000D03*
%TO.P,C4,2*%
%TO.N,GND*%
X177350000Y-87100000D03*
%TD*%
D13*
%TO.P,C14,1*%
%TO.N,GND*%
X161700000Y-94400000D03*
%TO.P,C14,2*%
%TO.N,+3V3*%
X163300000Y-94400000D03*
%TD*%
D15*
%TO.P,U4,1,Tx_D*%
%TO.N,/CAN0_TX*%
X165300000Y-92205000D03*
%TO.P,U4,2,GND*%
%TO.N,GND*%
X165300000Y-90935000D03*
%TO.P,U4,3,Vin*%
%TO.N,+3V3*%
X165300000Y-89665000D03*
%TO.P,U4,4,Rx_D*%
%TO.N,/CAN0_RX*%
X165300000Y-88395000D03*
%TO.P,U4,5,V_IO*%
%TO.N,unconnected-(U4-Pad5)*%
X159900000Y-88395000D03*
%TO.P,U4,6,CAN_L*%
%TO.N,/CAN_L*%
X159900000Y-89665000D03*
%TO.P,U4,7,CAN_H*%
%TO.N,/CAN_H*%
X159900000Y-90935000D03*
%TO.P,U4,8,STB*%
%TO.N,GND*%
X159900000Y-92205000D03*
%TD*%
D16*
%TO.P,C5,1*%
%TO.N,+3V3*%
X167750000Y-85500000D03*
%TO.P,C5,2*%
%TO.N,GND*%
X166150000Y-85500000D03*
%TD*%
D10*
%TO.P,R7,1*%
%TO.N,Net-(D4-Pad2)*%
X176400000Y-81400000D03*
%TO.P,R7,2*%
%TO.N,/LED1*%
X176400000Y-83000000D03*
%TD*%
D17*
%TO.P,VCC,1*%
%TO.N,GND*%
X165250000Y-100200000D03*
D18*
%TO.P,VCC,2*%
%TO.N,+24V*%
X160250000Y-100200000D03*
%TD*%
D10*
%TO.P,LED2,1,Cathode*%
%TO.N,GND*%
X176400000Y-78500000D03*
%TO.P,LED2,2,Anode*%
%TO.N,Net-(D4-Pad2)*%
X176400000Y-80100000D03*
%TD*%
D12*
%TO.P,J6,1*%
%TO.N,/CAN_H*%
X155450000Y-90700000D03*
%TO.P,J6,2*%
%TO.N,/CAN_L*%
X155450000Y-89450000D03*
D11*
%TO.P,J6,MP*%
%TO.N,N/C*%
X152100000Y-87600000D03*
X152100000Y-92550000D03*
%TD*%
D19*
%TO.P,X1,1*%
%TO.N,/XTAL0*%
X182400000Y-92300000D03*
D20*
%TO.P,X1,2*%
%TO.N,GND*%
X182400000Y-90100000D03*
%TO.P,X1,3*%
%TO.N,/XTAL1*%
X180850000Y-90100000D03*
%TO.P,X1,4*%
%TO.N,GND*%
X180850000Y-92300000D03*
%TD*%
D21*
%TO.P,SW1,1*%
%TO.N,/RESET*%
X178555000Y-100300000D03*
%TO.P,SW1,2*%
%TO.N,GND*%
X169945000Y-100300000D03*
%TD*%
D22*
%TO.P,U2,1,Vbat*%
%TO.N,+3V3*%
X175800000Y-92750000D03*
%TO.P,U2,2,PC13*%
%TO.N,unconnected-(U2-Pad2)*%
X175800000Y-92250000D03*
%TO.P,U2,3,PC14*%
%TO.N,unconnected-(U2-Pad3)*%
X175800000Y-91750000D03*
%TO.P,U2,4,PC15*%
%TO.N,unconnected-(U2-Pad4)*%
X175800000Y-91250000D03*
%TO.P,U2,5,PD0*%
%TO.N,/XTAL0*%
X175800000Y-90750000D03*
%TO.P,U2,6,PD1*%
%TO.N,/XTAL1*%
X175800000Y-90250000D03*
%TO.P,U2,7,nRST*%
%TO.N,/RESET*%
X175800000Y-89750000D03*
%TO.P,U2,8,GND_A*%
%TO.N,GND*%
X175800000Y-89250000D03*
%TO.P,U2,9,Vin_A*%
%TO.N,+3V3*%
X175800000Y-88750000D03*
%TO.P,U2,10,PA0*%
%TO.N,unconnected-(U2-Pad10)*%
X175800000Y-88250000D03*
%TO.P,U2,11,PA1*%
%TO.N,/TIM10_CH1*%
X175800000Y-87750000D03*
%TO.P,U2,12,PA2*%
%TO.N,unconnected-(U2-Pad12)*%
X175800000Y-87250000D03*
D23*
%TO.P,U2,13,PA3*%
%TO.N,/INT1_Acce1*%
X174300000Y-85750000D03*
%TO.P,U2,14,PA4*%
%TO.N,/INT1_Gyro*%
X173800000Y-85750000D03*
%TO.P,U2,15,PA5*%
%TO.N,/SPI1_CLK*%
X173300000Y-85750000D03*
%TO.P,U2,16,PA6*%
%TO.N,/SPI1_MISO*%
X172800000Y-85750000D03*
%TO.P,U2,17,PA7*%
%TO.N,/SPI1_MOSI*%
X172300000Y-85750000D03*
%TO.P,U2,18,PB0*%
%TO.N,N/C*%
X171800000Y-85750000D03*
%TO.P,U2,19,PB1*%
%TO.N,/LED1*%
X171300000Y-85750000D03*
%TO.P,U2,20,PB2*%
%TO.N,unconnected-(U2-Pad20)*%
X170800000Y-85750000D03*
%TO.P,U2,21,PB10*%
%TO.N,unconnected-(U2-Pad21)*%
X170300000Y-85750000D03*
%TO.P,U2,22,PB11*%
%TO.N,unconnected-(U2-Pad22)*%
X169800000Y-85750000D03*
%TO.P,U2,23,GND*%
%TO.N,GND*%
X169300000Y-85750000D03*
%TO.P,U2,24,Vin*%
%TO.N,+3V3*%
X168800000Y-85750000D03*
D22*
%TO.P,U2,25,PB12*%
%TO.N,unconnected-(U2-Pad25)*%
X167300000Y-87250000D03*
%TO.P,U2,26,PB13*%
%TO.N,Net-(J3-Pad1)*%
X167300000Y-87750000D03*
%TO.P,U2,27,PB14*%
%TO.N,Net-(J4-Pad1)*%
X167300000Y-88250000D03*
%TO.P,U2,28,PB15*%
%TO.N,unconnected-(U2-Pad28)*%
X167300000Y-88750000D03*
%TO.P,U2,29,PA8*%
%TO.N,/CS1_Acce1*%
X167300000Y-89250000D03*
%TO.P,U2,30,PA9*%
%TO.N,/CS1_Gyro*%
X167300000Y-89750000D03*
%TO.P,U2,31,PA10*%
%TO.N,unconnected-(U2-Pad31)*%
X167300000Y-90250000D03*
%TO.P,U2,32,PA11*%
%TO.N,/CAN0_RX*%
X167300000Y-90750000D03*
%TO.P,U2,33,PA12*%
%TO.N,/CAN0_TX*%
X167300000Y-91250000D03*
%TO.P,U2,34,PA13*%
%TO.N,/SWDIO*%
X167300000Y-91750000D03*
%TO.P,U2,35,GND*%
%TO.N,GND*%
X167300000Y-92250000D03*
%TO.P,U2,36,Vin*%
%TO.N,+3V3*%
X167300000Y-92750000D03*
D23*
%TO.P,U2,37,PA14*%
%TO.N,/SWCLK*%
X168800000Y-94250000D03*
%TO.P,U2,38,PA15*%
%TO.N,unconnected-(U2-Pad38)*%
X169300000Y-94250000D03*
%TO.P,U2,39,PB3*%
%TO.N,unconnected-(U2-Pad39)*%
X169800000Y-94250000D03*
%TO.P,U2,40,PB4*%
%TO.N,unconnected-(U2-Pad40)*%
X170300000Y-94250000D03*
%TO.P,U2,41,PB5*%
%TO.N,unconnected-(U2-Pad41)*%
X170800000Y-94250000D03*
%TO.P,U2,42,PB6*%
%TO.N,unconnected-(U2-Pad42)*%
X171300000Y-94250000D03*
%TO.P,U2,43,PB7*%
%TO.N,unconnected-(U2-Pad43)*%
X171800000Y-94250000D03*
%TO.P,U2,44,BOOT0*%
%TO.N,/BOOT0*%
X172300000Y-94250000D03*
%TO.P,U2,45,PB8*%
%TO.N,unconnected-(U2-Pad45)*%
X172800000Y-94250000D03*
%TO.P,U2,46,PB9*%
%TO.N,unconnected-(U2-Pad46)*%
X173300000Y-94250000D03*
%TO.P,U2,47,GND*%
%TO.N,GND*%
X173800000Y-94250000D03*
%TO.P,U2,48,Vin*%
%TO.N,+3V3*%
X174300000Y-94250000D03*
%TD*%
D16*
%TO.P,C6,1*%
%TO.N,+3V3*%
X167150000Y-94000000D03*
%TO.P,C6,2*%
%TO.N,GND*%
X165550000Y-94000000D03*
%TD*%
D13*
%TO.P,R2,1*%
%TO.N,Net-(D2-Pad2)*%
X156550000Y-94200000D03*
%TO.P,R2,2*%
%TO.N,+3V3*%
X158150000Y-94200000D03*
%TD*%
D10*
%TO.P,R6,1*%
%TO.N,Net-(D3-Pad2)*%
X178000000Y-81400000D03*
%TO.P,R6,2*%
%TO.N,N/C*%
X178000000Y-83000000D03*
%TD*%
D24*
%TO.P,J4,1*%
%TO.N,Net-(J4-Pad1)*%
X179800000Y-84175000D03*
%TO.P,J4,2*%
%TO.N,GND*%
X179800000Y-85425000D03*
D25*
%TO.P,J4,MP*%
%TO.N,N/C*%
X183150000Y-82325000D03*
X183150000Y-87275000D03*
%TD*%
D14*
%TO.P,C15,1*%
%TO.N,GND*%
X179050000Y-93400000D03*
%TO.P,C15,2*%
%TO.N,/XTAL0*%
X179050000Y-91800000D03*
%TD*%
D13*
%TO.P,C1,1*%
%TO.N,+3V3*%
X174450000Y-95900000D03*
%TO.P,C1,2*%
%TO.N,GND*%
X176050000Y-95900000D03*
%TD*%
D16*
%TO.P,3V3,1,Cathode*%
%TO.N,GND*%
X158150000Y-96000000D03*
%TO.P,3V3,2,Anode*%
%TO.N,Net-(D2-Pad2)*%
X156550000Y-96000000D03*
%TD*%
D24*
%TO.P,J3,1*%
%TO.N,Net-(J3-Pad1)*%
X179850000Y-77650000D03*
%TO.P,J3,2*%
%TO.N,GND*%
X179850000Y-78900000D03*
D25*
%TO.P,J3,MP*%
%TO.N,N/C*%
X183200000Y-80750000D03*
X183200000Y-75800000D03*
%TD*%
D26*
%TO.N,GND*%
X159500000Y-97000000D03*
X159850000Y-93250000D03*
X155950000Y-92400000D03*
X172600000Y-98600000D03*
X171700000Y-98600000D03*
X171400000Y-93000000D03*
X170400000Y-93000000D03*
X171400000Y-92200000D03*
X170400000Y-92200000D03*
X172000000Y-76600000D03*
X173400000Y-80300000D03*
X173400000Y-81400000D03*
X174400000Y-81400000D03*
X183000000Y-78200000D03*
X183000000Y-77200000D03*
X174800000Y-71200000D03*
X173200000Y-71100000D03*
X171800000Y-71200000D03*
X170200000Y-71200000D03*
X168900000Y-71200000D03*
X160400000Y-81400000D03*
X158000000Y-84100000D03*
X156400000Y-86600000D03*
X156500000Y-88100000D03*
X156300000Y-97500000D03*
X173100000Y-76600000D03*
X174400000Y-80200000D03*
X175800000Y-96000000D03*
%TO.N,+3V3*%
X160100000Y-86500000D03*
X163400000Y-83700000D03*
%TO.N,/SWCLK*%
X162413189Y-89386811D03*
D27*
%TO.N,/SPI1_MISO*%
X172824500Y-84800000D03*
%TO.N,/SWDIO*%
X166500000Y-91900000D03*
D26*
%TO.N,+3V3*%
X174700000Y-88800000D03*
D27*
%TO.N,GND*%
X177100000Y-92300000D03*
%TO.N,/RESET*%
X173500000Y-92300000D03*
%TO.N,GND*%
X177300000Y-89700000D03*
%TO.N,/INT1_Gyro*%
X169666451Y-89088234D03*
%TO.N,/BOOT0*%
X172300000Y-95000000D03*
%TO.N,/INT1_Acce1*%
X169650498Y-89700000D03*
%TO.N,/SPI1_CLK*%
X173500000Y-84400000D03*
%TO.N,/SWCLK*%
X168600000Y-93000000D03*
%TO.N,GND*%
X178000000Y-92500000D03*
D26*
X177500000Y-86100000D03*
X177800000Y-85200000D03*
X175200000Y-84300000D03*
D28*
%TO.N,/SWDIO*%
X161300000Y-87200000D03*
D27*
%TO.N,/SPI1_MOSI*%
X172100000Y-84600000D03*
%TO.N,/CS1_Gyro*%
X168108883Y-90502292D03*
%TO.N,/TIM10_CH1*%
X173900000Y-88300000D03*
%TO.N,/CS1_Acce1*%
X168368546Y-91042643D03*
D26*
%TO.N,+3V3*%
X168900000Y-83300000D03*
%TO.N,GND*%
X176400000Y-96900000D03*
%TO.N,+3V3*%
X174614068Y-91708441D03*
%TO.N,GND*%
X164700000Y-93800000D03*
%TO.N,+3V3*%
X176500000Y-94700000D03*
%TO.N,GND*%
X153500000Y-80100000D03*
X153400000Y-83600000D03*
X157000000Y-80300000D03*
X153400000Y-81900000D03*
X157000000Y-79400000D03*
X168000000Y-98900000D03*
X167900000Y-101900000D03*
X184100000Y-91100000D03*
X168000000Y-100000000D03*
X184100000Y-89300000D03*
D27*
X179100000Y-89600000D03*
D26*
X182800000Y-88600000D03*
X180600000Y-93800000D03*
D28*
%TO.N,/RESET*%
X179600000Y-99200000D03*
D26*
%TO.N,+3V3*%
X179300000Y-87200000D03*
%TO.N,GND*%
X184100000Y-92900000D03*
X182300000Y-93800000D03*
D29*
%TO.N,*%
X182381600Y-99402603D03*
D27*
%TO.N,GND*%
X181800000Y-88800000D03*
D29*
%TO.N,*%
X153091600Y-99402603D03*
D26*
%TO.N,GND*%
X168000000Y-100900000D03*
D27*
X180500000Y-88800000D03*
D29*
%TO.N,*%
X153091600Y-72502603D03*
D27*
%TO.N,GND*%
X179500000Y-92600000D03*
D29*
%TO.N,*%
X182391600Y-72502603D03*
%TD*%
D30*
%TO.N,Net-(D3-Pad2)*%
X178700000Y-80100000D02*
X178000000Y-80100000D01*
%TO.N,Net-(D4-Pad2)*%
X175600000Y-80100000D02*
X176400000Y-80100000D01*
X175500000Y-80200000D02*
X175600000Y-80100000D01*
X175500000Y-81200000D02*
X175500000Y-80200000D01*
%TO.N,+3V3*%
X169050000Y-95900000D02*
X174450000Y-95900000D01*
X167150000Y-94000000D02*
X169050000Y-95900000D01*
%TO.N,GND*%
X176775153Y-89700000D02*
X177300000Y-89700000D01*
X175825480Y-89275480D02*
X176350633Y-89275480D01*
X175800000Y-89250000D02*
X175825480Y-89275480D01*
X176350633Y-89275480D02*
X176775153Y-89700000D01*
%TO.N,/SWDIO*%
X158850000Y-82550000D02*
X155528000Y-82550000D01*
X161300000Y-87200000D02*
X161300000Y-85000000D01*
X161300000Y-85000000D02*
X158850000Y-82550000D01*
D31*
%TO.N,+3V3*%
X163300000Y-87707077D02*
X163300000Y-83800000D01*
X164662443Y-89069520D02*
X163300000Y-87707077D01*
X164704520Y-89069520D02*
X164662443Y-89069520D01*
X165300000Y-89665000D02*
X164704520Y-89069520D01*
X164435000Y-89665000D02*
X165300000Y-89665000D01*
X163300000Y-90800000D02*
X164435000Y-89665000D01*
X163300000Y-91300000D02*
X163300000Y-90800000D01*
D30*
%TO.N,/SWCLK*%
X162100000Y-89073622D02*
X162413189Y-89386811D01*
X158483193Y-81300000D02*
X162100000Y-84916807D01*
X155528000Y-81300000D02*
X158483193Y-81300000D01*
X162100000Y-84916807D02*
X162100000Y-89073622D01*
%TO.N,/SWDIO*%
X166650000Y-91750000D02*
X167300000Y-91750000D01*
X166500000Y-91900000D02*
X166650000Y-91750000D01*
%TO.N,/CS1_Acce1*%
X167975608Y-89250000D02*
X167300000Y-89250000D01*
X168676467Y-90734722D02*
X168676467Y-89950859D01*
X168676467Y-89950859D02*
X167975608Y-89250000D01*
X168368546Y-91042643D02*
X168676467Y-90734722D01*
%TO.N,Net-(J4-Pad1)*%
X169125987Y-89917261D02*
X169125987Y-88425987D01*
X171046588Y-90300000D02*
X169508726Y-90300000D01*
X177171588Y-84175000D02*
X171046588Y-90300000D01*
X169508726Y-90300000D02*
X169125987Y-89917261D01*
X169125987Y-88425987D02*
X168950000Y-88250000D01*
X179800000Y-84175000D02*
X177171588Y-84175000D01*
X168950000Y-88250000D02*
X167300000Y-88250000D01*
%TO.N,/INT1_Gyro*%
X169666451Y-89088234D02*
X170986919Y-89088234D01*
X170986919Y-89088234D02*
X173800000Y-86275153D01*
X173800000Y-86275153D02*
X173800000Y-85750000D01*
%TO.N,/CS1_Gyro*%
X167839891Y-89764738D02*
X167839891Y-89750000D01*
X168108883Y-90033730D02*
X167839891Y-89764738D01*
X168108883Y-90502292D02*
X168108883Y-90033730D01*
X167839891Y-89750000D02*
X167300000Y-89750000D01*
%TO.N,/CAN0_RX*%
X165300000Y-88410871D02*
X165300000Y-88395000D01*
X166300000Y-89410871D02*
X165300000Y-88410871D01*
X166300000Y-90275153D02*
X166300000Y-89410871D01*
X167300000Y-90750000D02*
X166774847Y-90750000D01*
X166774847Y-90750000D02*
X166300000Y-90275153D01*
%TO.N,/INT1_Acce1*%
X174300000Y-86410871D02*
X174300000Y-85750000D01*
X169650498Y-89700000D02*
X171010871Y-89700000D01*
X171010871Y-89700000D02*
X174300000Y-86410871D01*
%TO.N,/TIM10_CH1*%
X174450000Y-87750000D02*
X175800000Y-87750000D01*
X173900000Y-88300000D02*
X174450000Y-87750000D01*
%TO.N,*%
X175789011Y-83724520D02*
X177275480Y-83724520D01*
X171800000Y-85041772D02*
X171575489Y-84817261D01*
X171800000Y-85750000D02*
X171800000Y-85041772D01*
X172458228Y-83500000D02*
X175564491Y-83500000D01*
%TO.N,/CAN_L*%
X157900000Y-89400000D02*
X157000000Y-89400000D01*
%TO.N,*%
X171575489Y-84382739D02*
X172458228Y-83500000D01*
%TO.N,/LED1*%
X171125969Y-84174031D02*
X171125969Y-85050816D01*
%TO.N,*%
X175564491Y-83500000D02*
X175789011Y-83724520D01*
%TO.N,/LED1*%
X172300000Y-83000000D02*
X171125969Y-84174031D01*
X171300000Y-85224847D02*
X171300000Y-85750000D01*
%TO.N,*%
X171575489Y-84817261D02*
X171575489Y-84382739D01*
X177275480Y-83724520D02*
X178000000Y-83000000D01*
%TO.N,/CAN_L*%
X155500000Y-89500000D02*
X155450000Y-89450000D01*
%TO.N,/LED1*%
X176400000Y-83000000D02*
X172300000Y-83000000D01*
X171125969Y-85050816D02*
X171300000Y-85224847D01*
%TO.N,/SPI1_MOSI*%
X172300000Y-84800000D02*
X172300000Y-85750000D01*
%TO.N,/SPI1_CLK*%
X173500000Y-85024847D02*
X173300000Y-85224847D01*
X173300000Y-85224847D02*
X173300000Y-85750000D01*
%TO.N,/CAN_L*%
X156900000Y-89500000D02*
X155500000Y-89500000D01*
X159165000Y-89665000D02*
X158900000Y-89400000D01*
X159900000Y-89665000D02*
X159165000Y-89665000D01*
%TO.N,/SPI1_MISO*%
X172800000Y-84824500D02*
X172824500Y-84800000D01*
%TO.N,/CAN_L*%
X158900000Y-89400000D02*
X157900000Y-89400000D01*
X157000000Y-89400000D02*
X156900000Y-89500000D01*
%TO.N,/CAN_H*%
X158000000Y-91100000D02*
X157900000Y-91000000D01*
%TO.N,/CAN0_TX*%
X166255000Y-91250000D02*
X165300000Y-92205000D01*
X167300000Y-91250000D02*
X166255000Y-91250000D01*
%TO.N,/CAN_H*%
X157900000Y-91000000D02*
X157100000Y-91000000D01*
X157100000Y-91000000D02*
X156800000Y-90700000D01*
X159065000Y-90935000D02*
X158900000Y-91100000D01*
X159900000Y-90935000D02*
X159065000Y-90935000D01*
X156800000Y-90700000D02*
X155450000Y-90700000D01*
X158900000Y-91100000D02*
X158000000Y-91100000D01*
%TO.N,/SPI1_MOSI*%
X172100000Y-84600000D02*
X172300000Y-84800000D01*
%TO.N,/SPI1_MISO*%
X172800000Y-85750000D02*
X172800000Y-84824500D01*
%TO.N,/SPI1_CLK*%
X173500000Y-84400000D02*
X173500000Y-85024847D01*
%TO.N,Net-(D2-Pad2)*%
X156100000Y-94200000D02*
X155600000Y-94700000D01*
%TO.N,Net-(J3-Pad1)*%
X164600000Y-85575153D02*
X166774847Y-87750000D01*
%TO.N,Net-(D2-Pad2)*%
X156550000Y-94200000D02*
X156100000Y-94200000D01*
%TO.N,/XTAL1*%
X180450000Y-90500000D02*
X180850000Y-90100000D01*
X178800000Y-90250000D02*
X179050000Y-90500000D01*
%TO.N,Net-(D3-Pad2)*%
X178700000Y-80100000D02*
X179000000Y-80400000D01*
%TO.N,/XTAL0*%
X176325153Y-90750000D02*
X177375153Y-91800000D01*
%TO.N,Net-(J3-Pad1)*%
X166774847Y-87750000D02*
X167300000Y-87750000D01*
%TO.N,/XTAL1*%
X179050000Y-90500000D02*
X180450000Y-90500000D01*
%TO.N,Net-(D3-Pad2)*%
X179000000Y-81100000D02*
X178700000Y-81400000D01*
%TO.N,Net-(D2-Pad2)*%
X156300000Y-96000000D02*
X156550000Y-96000000D01*
%TO.N,Net-(J3-Pad1)*%
X164600000Y-82100000D02*
X164600000Y-85575153D01*
X179850000Y-77650000D02*
X169050000Y-77650000D01*
%TO.N,Net-(D3-Pad2)*%
X178700000Y-81400000D02*
X178000000Y-81400000D01*
%TO.N,/SWCLK*%
X168800000Y-93200000D02*
X168600000Y-93000000D01*
%TO.N,/XTAL1*%
X175800000Y-90250000D02*
X178800000Y-90250000D01*
%TO.N,/SWCLK*%
X168800000Y-94250000D02*
X168800000Y-93200000D01*
%TO.N,Net-(D2-Pad2)*%
X155600000Y-94700000D02*
X155600000Y-95300000D01*
%TO.N,Net-(D4-Pad2)*%
X176400000Y-81400000D02*
X175700000Y-81400000D01*
X175700000Y-81400000D02*
X175500000Y-81200000D01*
%TO.N,/BOOT0*%
X172300000Y-94250000D02*
X172300000Y-95000000D01*
%TO.N,Net-(J3-Pad1)*%
X169050000Y-77650000D02*
X164600000Y-82100000D01*
%TO.N,Net-(D3-Pad2)*%
X179000000Y-80400000D02*
X179000000Y-81100000D01*
%TO.N,Net-(D2-Pad2)*%
X155600000Y-95300000D02*
X156300000Y-96000000D01*
%TO.N,/XTAL0*%
X179050000Y-91800000D02*
X179524520Y-91325480D01*
%TO.N,/RESET*%
X173500000Y-92300000D02*
X173500000Y-90700000D01*
%TO.N,/XTAL0*%
X179524520Y-91325480D02*
X181925480Y-91325480D01*
%TO.N,/RESET*%
X173500000Y-90700000D02*
X174450000Y-89750000D01*
X178555000Y-100300000D02*
X178555000Y-100245000D01*
%TO.N,/XTAL0*%
X175800000Y-90750000D02*
X176325153Y-90750000D01*
X182400000Y-91800000D02*
X182400000Y-92300000D01*
X181925480Y-91325480D02*
X182400000Y-91800000D01*
%TO.N,/RESET*%
X174450000Y-89750000D02*
X175800000Y-89750000D01*
X178555000Y-100245000D02*
X179600000Y-99200000D01*
%TO.N,/XTAL0*%
X177375153Y-91800000D02*
X179050000Y-91800000D01*
D31*
%TO.N,+3V3*%
X178050000Y-88000000D02*
X177350000Y-88700000D01*
D30*
X174614068Y-91708441D02*
X174614068Y-92089221D01*
X163724520Y-94824520D02*
X166325480Y-94824520D01*
D31*
X179300000Y-87450000D02*
X178750000Y-88000000D01*
X174324520Y-95774520D02*
X174450000Y-95900000D01*
D30*
X177150000Y-88900000D02*
X177350000Y-88700000D01*
D31*
X174700000Y-88800000D02*
X174759511Y-88740489D01*
X167750000Y-85500000D02*
X167750000Y-84450000D01*
X174324520Y-94225480D02*
X174324520Y-95774520D01*
D32*
%TO.N,GND*%
X180850000Y-93550000D02*
X180600000Y-93800000D01*
D31*
%TO.N,+3V3*%
X167900000Y-93350000D02*
X167324520Y-92774520D01*
X158228000Y-86500000D02*
X160200000Y-86500000D01*
D32*
%TO.N,GND*%
X182400000Y-89000000D02*
X182800000Y-88600000D01*
X182400000Y-90100000D02*
X182400000Y-89000000D01*
X180850000Y-92300000D02*
X180850000Y-93550000D01*
D30*
%TO.N,+3V3*%
X175800000Y-88750000D02*
X176450000Y-88750000D01*
X175800000Y-88750000D02*
X175223158Y-88750000D01*
D31*
X167150000Y-94000000D02*
X167700000Y-94000000D01*
X178750000Y-88000000D02*
X178050000Y-88000000D01*
X167750000Y-85500000D02*
X168550000Y-85500000D01*
X175950000Y-94400000D02*
X174450000Y-95900000D01*
X167900000Y-93800000D02*
X167900000Y-93350000D01*
X158150000Y-94200000D02*
X160493781Y-94200000D01*
X176600000Y-93200000D02*
X176174520Y-92774520D01*
X168550000Y-85500000D02*
X168775480Y-85725480D01*
X175950000Y-94000000D02*
X175950000Y-94400000D01*
D30*
X175223158Y-88750000D02*
X175213647Y-88740489D01*
X176450000Y-88750000D02*
X176600000Y-88900000D01*
D31*
X167700000Y-94000000D02*
X167900000Y-93800000D01*
X163300000Y-91393781D02*
X163300000Y-91300000D01*
D30*
X166325480Y-94824520D02*
X167150000Y-94000000D01*
D31*
X155528000Y-83800000D02*
X158228000Y-86500000D01*
D30*
X163300000Y-94400000D02*
X163724520Y-94824520D01*
D31*
X175950000Y-94000000D02*
X176100000Y-94000000D01*
X176174520Y-92774520D02*
X175800000Y-92774520D01*
X176500000Y-94700000D02*
X175950000Y-94150000D01*
X163300000Y-91300000D02*
X163300000Y-94400000D01*
X175950000Y-94150000D02*
X175950000Y-94000000D01*
X176100000Y-94000000D02*
X176600000Y-93500000D01*
X176600000Y-93500000D02*
X176600000Y-93200000D01*
D30*
X175274847Y-92750000D02*
X175800000Y-92750000D01*
X174614068Y-92089221D02*
X175274847Y-92750000D01*
X176600000Y-88900000D02*
X177150000Y-88900000D01*
D31*
X179300000Y-87200000D02*
X179300000Y-87450000D01*
X174759511Y-88740489D02*
X175213647Y-88740489D01*
X168775480Y-85725480D02*
X168775480Y-85750000D01*
X167750000Y-84450000D02*
X168900000Y-83300000D01*
X160493781Y-94200000D02*
X163300000Y-91393781D01*
X167324520Y-92774520D02*
X167300000Y-92774520D01*
%TD*%
%TA.AperFunction,Conductor*%
%TO.N,GND*%
G36*
X182572240Y-69955530D02*
G01*
X182573050Y-69955747D01*
X182573051Y-69955747D01*
X182581000Y-69957877D01*
X182588949Y-69955747D01*
X182595757Y-69955747D01*
X182604777Y-69954835D01*
X182788817Y-69965967D01*
X182852776Y-69969836D01*
X182860268Y-69970746D01*
X182927512Y-69983069D01*
X183124360Y-70019143D01*
X183131679Y-70020947D01*
X183388022Y-70100827D01*
X183395065Y-70103498D01*
X183624613Y-70206808D01*
X183639913Y-70213694D01*
X183646596Y-70217202D01*
X183876360Y-70356100D01*
X183882571Y-70360387D01*
X184093925Y-70525971D01*
X184099574Y-70530976D01*
X184289421Y-70720823D01*
X184294426Y-70726472D01*
X184460010Y-70937826D01*
X184464297Y-70944037D01*
X184595969Y-71161847D01*
X184603195Y-71173801D01*
X184606703Y-71180484D01*
X184705496Y-71399992D01*
X184716897Y-71425325D01*
X184719570Y-71432375D01*
X184773590Y-71605730D01*
X184799449Y-71688713D01*
X184801254Y-71696037D01*
X184830537Y-71855826D01*
X184849651Y-71960129D01*
X184850561Y-71967621D01*
X184865562Y-72215618D01*
X184864650Y-72224640D01*
X184864650Y-72231448D01*
X184862520Y-72239397D01*
X184864872Y-72248173D01*
X184867000Y-72264344D01*
X184867000Y-75167500D01*
X184848694Y-75211694D01*
X184804500Y-75230000D01*
X184760306Y-75211694D01*
X184752533Y-75202223D01*
X184734020Y-75174516D01*
X184730601Y-75169399D01*
X184647740Y-75114034D01*
X184599916Y-75104521D01*
X184577686Y-75100099D01*
X184577685Y-75100099D01*
X184574674Y-75099500D01*
X181825326Y-75099500D01*
X181822315Y-75100099D01*
X181822314Y-75100099D01*
X181800084Y-75104521D01*
X181752260Y-75114034D01*
X181669399Y-75169399D01*
X181614034Y-75252260D01*
X181599500Y-75325326D01*
X181599500Y-76274674D01*
X181614034Y-76347740D01*
X181669399Y-76430601D01*
X181752260Y-76485966D01*
X181800084Y-76495479D01*
X181822314Y-76499901D01*
X181822315Y-76499901D01*
X181825326Y-76500500D01*
X184574674Y-76500500D01*
X184577685Y-76499901D01*
X184577686Y-76499901D01*
X184599916Y-76495479D01*
X184647740Y-76485966D01*
X184730601Y-76430601D01*
X184752533Y-76397777D01*
X184792306Y-76371201D01*
X184839223Y-76380533D01*
X184865799Y-76420306D01*
X184867000Y-76432500D01*
X184867000Y-80117500D01*
X184848694Y-80161694D01*
X184804500Y-80180000D01*
X184760306Y-80161694D01*
X184752533Y-80152223D01*
X184734020Y-80124516D01*
X184730601Y-80119399D01*
X184647740Y-80064034D01*
X184599916Y-80054521D01*
X184577686Y-80050099D01*
X184577685Y-80050099D01*
X184574674Y-80049500D01*
X181825326Y-80049500D01*
X181822315Y-80050099D01*
X181822314Y-80050099D01*
X181800084Y-80054521D01*
X181752260Y-80064034D01*
X181669399Y-80119399D01*
X181614034Y-80202260D01*
X181599500Y-80275326D01*
X181599500Y-81224674D01*
X181614034Y-81297740D01*
X181669399Y-81380601D01*
X181752260Y-81435966D01*
X181800084Y-81445479D01*
X181822314Y-81449901D01*
X181822315Y-81449901D01*
X181825326Y-81450500D01*
X184574674Y-81450500D01*
X184577685Y-81449901D01*
X184577686Y-81449901D01*
X184599916Y-81445479D01*
X184647740Y-81435966D01*
X184730601Y-81380601D01*
X184752533Y-81347777D01*
X184792306Y-81321201D01*
X184839223Y-81330533D01*
X184865799Y-81370306D01*
X184867000Y-81382500D01*
X184867000Y-81801439D01*
X184848694Y-81845633D01*
X184804500Y-81863939D01*
X184760306Y-81845633D01*
X184743201Y-81813632D01*
X184738167Y-81788327D01*
X184735966Y-81777260D01*
X184680601Y-81694399D01*
X184597740Y-81639034D01*
X184549916Y-81629521D01*
X184527686Y-81625099D01*
X184527685Y-81625099D01*
X184524674Y-81624500D01*
X181775326Y-81624500D01*
X181772315Y-81625099D01*
X181772314Y-81625099D01*
X181750084Y-81629521D01*
X181702260Y-81639034D01*
X181619399Y-81694399D01*
X181564034Y-81777260D01*
X181556799Y-81813632D01*
X181550434Y-81845633D01*
X181549500Y-81850326D01*
X181549500Y-82799674D01*
X181564034Y-82872740D01*
X181619399Y-82955601D01*
X181702260Y-83010966D01*
X181750084Y-83020479D01*
X181772314Y-83024901D01*
X181772315Y-83024901D01*
X181775326Y-83025500D01*
X184524674Y-83025500D01*
X184527685Y-83024901D01*
X184527686Y-83024901D01*
X184549916Y-83020479D01*
X184597740Y-83010966D01*
X184680601Y-82955601D01*
X184735966Y-82872740D01*
X184743201Y-82836368D01*
X184769777Y-82796594D01*
X184816693Y-82787262D01*
X184856467Y-82813838D01*
X184867000Y-82848561D01*
X184867000Y-86751439D01*
X184848694Y-86795633D01*
X184804500Y-86813939D01*
X184760306Y-86795633D01*
X184743201Y-86763632D01*
X184737167Y-86733299D01*
X184735966Y-86727260D01*
X184680601Y-86644399D01*
X184597740Y-86589034D01*
X184549916Y-86579521D01*
X184527686Y-86575099D01*
X184527685Y-86575099D01*
X184524674Y-86574500D01*
X181775326Y-86574500D01*
X181772315Y-86575099D01*
X181772314Y-86575099D01*
X181750084Y-86579521D01*
X181702260Y-86589034D01*
X181619399Y-86644399D01*
X181564034Y-86727260D01*
X181559138Y-86751872D01*
X181550434Y-86795633D01*
X181549500Y-86800326D01*
X181549500Y-87749674D01*
X181550099Y-87752685D01*
X181550099Y-87752686D01*
X181551266Y-87758551D01*
X181564034Y-87822740D01*
X181619399Y-87905601D01*
X181702260Y-87960966D01*
X181738527Y-87968180D01*
X181772314Y-87974901D01*
X181772315Y-87974901D01*
X181775326Y-87975500D01*
X184524674Y-87975500D01*
X184527685Y-87974901D01*
X184527686Y-87974901D01*
X184561473Y-87968180D01*
X184597740Y-87960966D01*
X184680601Y-87905601D01*
X184735966Y-87822740D01*
X184743201Y-87786368D01*
X184769777Y-87746594D01*
X184816693Y-87737262D01*
X184856467Y-87763838D01*
X184867000Y-87798561D01*
X184867000Y-99925853D01*
X184864872Y-99942024D01*
X184862520Y-99950800D01*
X184864650Y-99958748D01*
X184864650Y-99964819D01*
X184865662Y-99974625D01*
X184851066Y-100234532D01*
X184850282Y-100241490D01*
X184849430Y-100246505D01*
X184803267Y-100518198D01*
X184801707Y-100525031D01*
X184799867Y-100531419D01*
X184729454Y-100775830D01*
X184724010Y-100794725D01*
X184721697Y-100801336D01*
X184620003Y-101046846D01*
X184614290Y-101060638D01*
X184611249Y-101066952D01*
X184475480Y-101312608D01*
X184471759Y-101318531D01*
X184309335Y-101547446D01*
X184304980Y-101552908D01*
X184157420Y-101718027D01*
X184117950Y-101762194D01*
X184112997Y-101767147D01*
X183911118Y-101947558D01*
X183903711Y-101954177D01*
X183898246Y-101958535D01*
X183669331Y-102120959D01*
X183663408Y-102124680D01*
X183417752Y-102260449D01*
X183411439Y-102263490D01*
X183152136Y-102370897D01*
X183145529Y-102373209D01*
X183039135Y-102403860D01*
X182875831Y-102450907D01*
X182868998Y-102452467D01*
X182734225Y-102475366D01*
X182592290Y-102499482D01*
X182585338Y-102500265D01*
X182445264Y-102508132D01*
X182325425Y-102514862D01*
X182315619Y-102513850D01*
X182309548Y-102513850D01*
X182301600Y-102511720D01*
X182292824Y-102514072D01*
X182276653Y-102516200D01*
X167273997Y-102516198D01*
X153318011Y-102516197D01*
X153302935Y-102514352D01*
X153302910Y-102514346D01*
X153292410Y-102511736D01*
X153284502Y-102514010D01*
X153278427Y-102514120D01*
X153268649Y-102515309D01*
X152997082Y-102505007D01*
X152990104Y-102504349D01*
X152701281Y-102460662D01*
X152694420Y-102459227D01*
X152412300Y-102383476D01*
X152405644Y-102381282D01*
X152133779Y-102274420D01*
X152127410Y-102271494D01*
X151869223Y-102134867D01*
X151863222Y-102131247D01*
X151753531Y-102056377D01*
X151621949Y-101966566D01*
X151616400Y-101962304D01*
X151395077Y-101771640D01*
X151390039Y-101766782D01*
X151338739Y-101711436D01*
X151191458Y-101552540D01*
X151186999Y-101547153D01*
X151013649Y-101312018D01*
X151009815Y-101306154D01*
X150921647Y-101153258D01*
X150863892Y-101053103D01*
X150860737Y-101046846D01*
X150744063Y-100779048D01*
X150741628Y-100772475D01*
X150655671Y-100493293D01*
X150653988Y-100486490D01*
X150599831Y-100199452D01*
X150598919Y-100192502D01*
X150582705Y-99974625D01*
X150578750Y-99921481D01*
X150579583Y-99911671D01*
X150579473Y-99905597D01*
X150581458Y-99897610D01*
X150579185Y-99889704D01*
X150579166Y-99888669D01*
X150577000Y-99873297D01*
X150577000Y-99402603D01*
X150886378Y-99402603D01*
X150886512Y-99404647D01*
X150903365Y-99661769D01*
X150905244Y-99690442D01*
X150961519Y-99973356D01*
X150962174Y-99975287D01*
X150962175Y-99975289D01*
X151053422Y-100244092D01*
X151054241Y-100246505D01*
X151181822Y-100505214D01*
X151182950Y-100506903D01*
X151182954Y-100506909D01*
X151340598Y-100742839D01*
X151342080Y-100745057D01*
X151532273Y-100961930D01*
X151749146Y-101152123D01*
X151750840Y-101153255D01*
X151750844Y-101153258D01*
X151987294Y-101311249D01*
X151987300Y-101311253D01*
X151988989Y-101312381D01*
X152247698Y-101439962D01*
X152249629Y-101440617D01*
X152249635Y-101440620D01*
X152518914Y-101532028D01*
X152520847Y-101532684D01*
X152803761Y-101588959D01*
X152805795Y-101589092D01*
X152805800Y-101589093D01*
X153089556Y-101607691D01*
X153091600Y-101607825D01*
X153093644Y-101607691D01*
X153377400Y-101589093D01*
X153377405Y-101589092D01*
X153379439Y-101588959D01*
X153662353Y-101532684D01*
X153664286Y-101532028D01*
X153933565Y-101440620D01*
X153933571Y-101440617D01*
X153935502Y-101439962D01*
X154194211Y-101312381D01*
X154195900Y-101311253D01*
X154195906Y-101311249D01*
X154432356Y-101153258D01*
X154432360Y-101153255D01*
X154434054Y-101152123D01*
X154650927Y-100961930D01*
X154841120Y-100745057D01*
X154842602Y-100742839D01*
X155000246Y-100506909D01*
X155000250Y-100506903D01*
X155001378Y-100505214D01*
X155128959Y-100246505D01*
X155129779Y-100244092D01*
X155152230Y-100177953D01*
X158144707Y-100177953D01*
X158161194Y-100463878D01*
X158161604Y-100465966D01*
X158161604Y-100465969D01*
X158174445Y-100531419D01*
X158216332Y-100744920D01*
X158309102Y-101015878D01*
X158310051Y-101017765D01*
X158310054Y-101017772D01*
X158377626Y-101152123D01*
X158437787Y-101271740D01*
X158600006Y-101507770D01*
X158601437Y-101509342D01*
X158601442Y-101509349D01*
X158791324Y-101718027D01*
X158791329Y-101718032D01*
X158792756Y-101719600D01*
X159012472Y-101903311D01*
X159255088Y-102055503D01*
X159516114Y-102173361D01*
X159669228Y-102218716D01*
X159788679Y-102254099D01*
X159788683Y-102254100D01*
X159790719Y-102254703D01*
X160073824Y-102298024D01*
X160222132Y-102300354D01*
X160358062Y-102302490D01*
X160358068Y-102302490D01*
X160360189Y-102302523D01*
X160644514Y-102268115D01*
X160921539Y-102195439D01*
X161186138Y-102085839D01*
X161433415Y-101941342D01*
X161658793Y-101764623D01*
X161701104Y-101720962D01*
X161856629Y-101560472D01*
X161858102Y-101558952D01*
X162027655Y-101328134D01*
X162028670Y-101326265D01*
X162028673Y-101326260D01*
X162163299Y-101078308D01*
X162164313Y-101076441D01*
X162237236Y-100883456D01*
X162238637Y-100879748D01*
X177134500Y-100879748D01*
X177135099Y-100882758D01*
X177135099Y-100882761D01*
X177135238Y-100883456D01*
X177146133Y-100938231D01*
X177190448Y-101004552D01*
X177195562Y-101007969D01*
X177251653Y-101045449D01*
X177251655Y-101045450D01*
X177256769Y-101048867D01*
X177262803Y-101050067D01*
X177262805Y-101050068D01*
X177312239Y-101059901D01*
X177312242Y-101059901D01*
X177315252Y-101060500D01*
X179794748Y-101060500D01*
X179797758Y-101059901D01*
X179797761Y-101059901D01*
X179847195Y-101050068D01*
X179847197Y-101050067D01*
X179853231Y-101048867D01*
X179858345Y-101045450D01*
X179858347Y-101045449D01*
X179914438Y-101007969D01*
X179919552Y-101004552D01*
X179963867Y-100938231D01*
X179974763Y-100883456D01*
X179974901Y-100882761D01*
X179974901Y-100882758D01*
X179975500Y-100879748D01*
X179975500Y-99720252D01*
X179969969Y-99692446D01*
X179965068Y-99667805D01*
X179965067Y-99667803D01*
X179963867Y-99661769D01*
X179960449Y-99656653D01*
X179960447Y-99656649D01*
X179945632Y-99634478D01*
X179936299Y-99587562D01*
X179951261Y-99557812D01*
X179967837Y-99539500D01*
X180019200Y-99482754D01*
X180059135Y-99400328D01*
X180094878Y-99368538D01*
X180142632Y-99371333D01*
X180174422Y-99407076D01*
X180177747Y-99423491D01*
X180193365Y-99661769D01*
X180195244Y-99690442D01*
X180251519Y-99973356D01*
X180252174Y-99975287D01*
X180252175Y-99975289D01*
X180343422Y-100244092D01*
X180344241Y-100246505D01*
X180471822Y-100505214D01*
X180472950Y-100506903D01*
X180472954Y-100506909D01*
X180630598Y-100742839D01*
X180632080Y-100745057D01*
X180822273Y-100961930D01*
X181039146Y-101152123D01*
X181040840Y-101153255D01*
X181040844Y-101153258D01*
X181277294Y-101311249D01*
X181277300Y-101311253D01*
X181278989Y-101312381D01*
X181537698Y-101439962D01*
X181539629Y-101440617D01*
X181539635Y-101440620D01*
X181808914Y-101532028D01*
X181810847Y-101532684D01*
X182093761Y-101588959D01*
X182095795Y-101589092D01*
X182095800Y-101589093D01*
X182379556Y-101607691D01*
X182381600Y-101607825D01*
X182383644Y-101607691D01*
X182667400Y-101589093D01*
X182667405Y-101589092D01*
X182669439Y-101588959D01*
X182952353Y-101532684D01*
X182954286Y-101532028D01*
X183223565Y-101440620D01*
X183223571Y-101440617D01*
X183225502Y-101439962D01*
X183484211Y-101312381D01*
X183485900Y-101311253D01*
X183485906Y-101311249D01*
X183722356Y-101153258D01*
X183722360Y-101153255D01*
X183724054Y-101152123D01*
X183940927Y-100961930D01*
X184131120Y-100745057D01*
X184132602Y-100742839D01*
X184290246Y-100506909D01*
X184290250Y-100506903D01*
X184291378Y-100505214D01*
X184418959Y-100246505D01*
X184419779Y-100244092D01*
X184511025Y-99975289D01*
X184511026Y-99975287D01*
X184511681Y-99973356D01*
X184567956Y-99690442D01*
X184569836Y-99661769D01*
X184586688Y-99404647D01*
X184586822Y-99402603D01*
X184582835Y-99341771D01*
X184568090Y-99116803D01*
X184568089Y-99116798D01*
X184567956Y-99114764D01*
X184511681Y-98831850D01*
X184508450Y-98822332D01*
X184419617Y-98560638D01*
X184419614Y-98560632D01*
X184418959Y-98558701D01*
X184291378Y-98299992D01*
X184290250Y-98298303D01*
X184290246Y-98298297D01*
X184132255Y-98061847D01*
X184132252Y-98061843D01*
X184131120Y-98060149D01*
X183940927Y-97843276D01*
X183724054Y-97653083D01*
X183722360Y-97651951D01*
X183722356Y-97651948D01*
X183485906Y-97493957D01*
X183485900Y-97493953D01*
X183484211Y-97492825D01*
X183225502Y-97365244D01*
X183223571Y-97364589D01*
X183223565Y-97364586D01*
X182954286Y-97273178D01*
X182954284Y-97273177D01*
X182952353Y-97272522D01*
X182669439Y-97216247D01*
X182667405Y-97216114D01*
X182667400Y-97216113D01*
X182383644Y-97197515D01*
X182381600Y-97197381D01*
X182379556Y-97197515D01*
X182095800Y-97216113D01*
X182095795Y-97216114D01*
X182093761Y-97216247D01*
X181810847Y-97272522D01*
X181808916Y-97273177D01*
X181808914Y-97273178D01*
X181539635Y-97364586D01*
X181539629Y-97364589D01*
X181537698Y-97365244D01*
X181278989Y-97492825D01*
X181277300Y-97493953D01*
X181277294Y-97493957D01*
X181040844Y-97651948D01*
X181040840Y-97651951D01*
X181039146Y-97653083D01*
X180822273Y-97843276D01*
X180632080Y-98060149D01*
X180630948Y-98061843D01*
X180630945Y-98061847D01*
X180472954Y-98298297D01*
X180472950Y-98298303D01*
X180471822Y-98299992D01*
X180344241Y-98558701D01*
X180343586Y-98560632D01*
X180343583Y-98560638D01*
X180254750Y-98822332D01*
X180251519Y-98831850D01*
X180207697Y-99052163D01*
X180206923Y-99056052D01*
X180180347Y-99095826D01*
X180133431Y-99105158D01*
X180093657Y-99078582D01*
X180085870Y-99061902D01*
X180085323Y-99058082D01*
X180025984Y-98927572D01*
X179932400Y-98818963D01*
X179812095Y-98740985D01*
X179799456Y-98737205D01*
X179765663Y-98727099D01*
X179674739Y-98699907D01*
X179603057Y-98699469D01*
X179535829Y-98699058D01*
X179535828Y-98699058D01*
X179531376Y-98699031D01*
X179393529Y-98738428D01*
X179272280Y-98814930D01*
X179269337Y-98818262D01*
X179269335Y-98818264D01*
X179180324Y-98919051D01*
X179177377Y-98922388D01*
X179116447Y-99052163D01*
X179094391Y-99193823D01*
X179094968Y-99198236D01*
X179094968Y-99198237D01*
X179096350Y-99208803D01*
X179083930Y-99254997D01*
X179078572Y-99261101D01*
X178818480Y-99521194D01*
X178774286Y-99539500D01*
X177315252Y-99539500D01*
X177312242Y-99540099D01*
X177312239Y-99540099D01*
X177262805Y-99549932D01*
X177262803Y-99549933D01*
X177256769Y-99551133D01*
X177251655Y-99554550D01*
X177251653Y-99554551D01*
X177246773Y-99557812D01*
X177190448Y-99595448D01*
X177187031Y-99600562D01*
X177163420Y-99635898D01*
X177146133Y-99661769D01*
X177144933Y-99667803D01*
X177144932Y-99667805D01*
X177140031Y-99692446D01*
X177134500Y-99720252D01*
X177134500Y-100879748D01*
X162238637Y-100879748D01*
X162264796Y-100810521D01*
X162264797Y-100810517D01*
X162265548Y-100808530D01*
X162329487Y-100529358D01*
X162330175Y-100521655D01*
X162354837Y-100245312D01*
X162354946Y-100244092D01*
X162355010Y-100238034D01*
X162355395Y-100201225D01*
X162355408Y-100200000D01*
X162352494Y-100157255D01*
X162336074Y-99916398D01*
X162336073Y-99916392D01*
X162335928Y-99914263D01*
X162333470Y-99902393D01*
X162278282Y-99635898D01*
X162278280Y-99635892D01*
X162277850Y-99633814D01*
X162277143Y-99631819D01*
X162277141Y-99631810D01*
X162182957Y-99365843D01*
X162182955Y-99365838D01*
X162182248Y-99363842D01*
X162054742Y-99116803D01*
X162051864Y-99111227D01*
X162051863Y-99111226D01*
X162050891Y-99109342D01*
X162049672Y-99107607D01*
X162049668Y-99107601D01*
X161887428Y-98876758D01*
X161887426Y-98876755D01*
X161886209Y-98875024D01*
X161871966Y-98859696D01*
X161761484Y-98740804D01*
X161691251Y-98665224D01*
X161689606Y-98663877D01*
X161689600Y-98663872D01*
X161558869Y-98556870D01*
X161469623Y-98483823D01*
X161225427Y-98334180D01*
X160963182Y-98219062D01*
X160687739Y-98140600D01*
X160404196Y-98100246D01*
X160271732Y-98099553D01*
X160119937Y-98098758D01*
X160119934Y-98098758D01*
X160117800Y-98098747D01*
X160115681Y-98099026D01*
X160115680Y-98099026D01*
X160104127Y-98100547D01*
X159833851Y-98136129D01*
X159831796Y-98136691D01*
X159831792Y-98136692D01*
X159559658Y-98211139D01*
X159559651Y-98211142D01*
X159557602Y-98211702D01*
X159555647Y-98212536D01*
X159555641Y-98212538D01*
X159402953Y-98277666D01*
X159294165Y-98324068D01*
X159048415Y-98471146D01*
X159046755Y-98472476D01*
X159046752Y-98472478D01*
X158826558Y-98648886D01*
X158826552Y-98648891D01*
X158824900Y-98650215D01*
X158627755Y-98857962D01*
X158460629Y-99090543D01*
X158326614Y-99343653D01*
X158228190Y-99612610D01*
X158227735Y-99614696D01*
X158227734Y-99614700D01*
X158168918Y-99884455D01*
X158167178Y-99892436D01*
X158167011Y-99894554D01*
X158167011Y-99894556D01*
X158166394Y-99902393D01*
X158144707Y-100177953D01*
X155152230Y-100177953D01*
X155221025Y-99975289D01*
X155221026Y-99975287D01*
X155221681Y-99973356D01*
X155277956Y-99690442D01*
X155279836Y-99661769D01*
X155296688Y-99404647D01*
X155296822Y-99402603D01*
X155292835Y-99341771D01*
X155278090Y-99116803D01*
X155278089Y-99116798D01*
X155277956Y-99114764D01*
X155221681Y-98831850D01*
X155218450Y-98822332D01*
X155129617Y-98560638D01*
X155129614Y-98560632D01*
X155128959Y-98558701D01*
X155001378Y-98299992D01*
X155000250Y-98298303D01*
X155000246Y-98298297D01*
X154842255Y-98061847D01*
X154842252Y-98061843D01*
X154841120Y-98060149D01*
X154688965Y-97886650D01*
X160707558Y-97886650D01*
X160711275Y-97894824D01*
X160711275Y-97894827D01*
X160717426Y-97908354D01*
X160720505Y-97916631D01*
X160724393Y-97929883D01*
X160727216Y-97939507D01*
X160733561Y-97945013D01*
X160734112Y-97946024D01*
X160734926Y-97946840D01*
X160738403Y-97954488D01*
X160745945Y-97959358D01*
X160745947Y-97959360D01*
X160758430Y-97967420D01*
X160765489Y-97972720D01*
X160776717Y-97982463D01*
X160776720Y-97982464D01*
X160783500Y-97988348D01*
X160791816Y-97989554D01*
X160794006Y-97990754D01*
X160795348Y-97991257D01*
X160801007Y-97994911D01*
X160801621Y-97995000D01*
X160824868Y-97995000D01*
X160833837Y-97995647D01*
X160857250Y-97999042D01*
X160865035Y-97995502D01*
X160872136Y-97995000D01*
X170514968Y-97995000D01*
X170523937Y-97995647D01*
X170547350Y-97999042D01*
X170555524Y-97995325D01*
X170555527Y-97995325D01*
X170569054Y-97989174D01*
X170577331Y-97986095D01*
X170591594Y-97981911D01*
X170591595Y-97981911D01*
X170600207Y-97979384D01*
X170605713Y-97973039D01*
X170606724Y-97972488D01*
X170607540Y-97971674D01*
X170615188Y-97968197D01*
X170620058Y-97960655D01*
X170620060Y-97960653D01*
X170628120Y-97948170D01*
X170633420Y-97941111D01*
X170643163Y-97929883D01*
X170643164Y-97929880D01*
X170649048Y-97923100D01*
X170650254Y-97914784D01*
X170651454Y-97912594D01*
X170651957Y-97911252D01*
X170655611Y-97905593D01*
X170655700Y-97904979D01*
X170655700Y-97881732D01*
X170656347Y-97872763D01*
X170658453Y-97858238D01*
X170659742Y-97849350D01*
X170656202Y-97841565D01*
X170655700Y-97834464D01*
X170655700Y-96586332D01*
X170656347Y-96577363D01*
X170658453Y-96562838D01*
X170659742Y-96553950D01*
X170656025Y-96545776D01*
X170656025Y-96545773D01*
X170649874Y-96532246D01*
X170646795Y-96523969D01*
X170642611Y-96509706D01*
X170642611Y-96509705D01*
X170640084Y-96501093D01*
X170633739Y-96495587D01*
X170633188Y-96494576D01*
X170632374Y-96493760D01*
X170628897Y-96486112D01*
X170621355Y-96481242D01*
X170621353Y-96481240D01*
X170608870Y-96473180D01*
X170601811Y-96467880D01*
X170590583Y-96458137D01*
X170590580Y-96458136D01*
X170583800Y-96452252D01*
X170575484Y-96451046D01*
X170573294Y-96449846D01*
X170571952Y-96449343D01*
X170566293Y-96445689D01*
X170565679Y-96445600D01*
X170542432Y-96445600D01*
X170533463Y-96444953D01*
X170510050Y-96441558D01*
X170502265Y-96445098D01*
X170495164Y-96445600D01*
X160852332Y-96445600D01*
X160843363Y-96444953D01*
X160819950Y-96441558D01*
X160811776Y-96445275D01*
X160811773Y-96445275D01*
X160798246Y-96451426D01*
X160789969Y-96454505D01*
X160775706Y-96458689D01*
X160775705Y-96458689D01*
X160767093Y-96461216D01*
X160761587Y-96467561D01*
X160760576Y-96468112D01*
X160759760Y-96468926D01*
X160752112Y-96472403D01*
X160747242Y-96479945D01*
X160747240Y-96479947D01*
X160739180Y-96492430D01*
X160733880Y-96499489D01*
X160724137Y-96510717D01*
X160724136Y-96510720D01*
X160718252Y-96517500D01*
X160717046Y-96525816D01*
X160715846Y-96528006D01*
X160715343Y-96529348D01*
X160711689Y-96535007D01*
X160711600Y-96535621D01*
X160711600Y-96558868D01*
X160710953Y-96567837D01*
X160707558Y-96591250D01*
X160711098Y-96599035D01*
X160711600Y-96606136D01*
X160711600Y-97854268D01*
X160710953Y-97863237D01*
X160707558Y-97886650D01*
X154688965Y-97886650D01*
X154650927Y-97843276D01*
X154434054Y-97653083D01*
X154432360Y-97651951D01*
X154432356Y-97651948D01*
X154195906Y-97493957D01*
X154195900Y-97493953D01*
X154194211Y-97492825D01*
X153935502Y-97365244D01*
X153933571Y-97364589D01*
X153933565Y-97364586D01*
X153664286Y-97273178D01*
X153664284Y-97273177D01*
X153662353Y-97272522D01*
X153379439Y-97216247D01*
X153377405Y-97216114D01*
X153377400Y-97216113D01*
X153093644Y-97197515D01*
X153091600Y-97197381D01*
X153089556Y-97197515D01*
X152805800Y-97216113D01*
X152805795Y-97216114D01*
X152803761Y-97216247D01*
X152520847Y-97272522D01*
X152518916Y-97273177D01*
X152518914Y-97273178D01*
X152249635Y-97364586D01*
X152249629Y-97364589D01*
X152247698Y-97365244D01*
X151988989Y-97492825D01*
X151987300Y-97493953D01*
X151987294Y-97493957D01*
X151750844Y-97651948D01*
X151750840Y-97651951D01*
X151749146Y-97653083D01*
X151532273Y-97843276D01*
X151342080Y-98060149D01*
X151340948Y-98061843D01*
X151340945Y-98061847D01*
X151182954Y-98298297D01*
X151182950Y-98298303D01*
X151181822Y-98299992D01*
X151054241Y-98558701D01*
X151053586Y-98560632D01*
X151053583Y-98560638D01*
X150964750Y-98822332D01*
X150961519Y-98831850D01*
X150905244Y-99114764D01*
X150905111Y-99116798D01*
X150905110Y-99116803D01*
X150890365Y-99341771D01*
X150886378Y-99402603D01*
X150577000Y-99402603D01*
X150577000Y-95328807D01*
X155270736Y-95328807D01*
X155272151Y-95334087D01*
X155272151Y-95334089D01*
X155281207Y-95367883D01*
X155282387Y-95373204D01*
X155289412Y-95413045D01*
X155292145Y-95417779D01*
X155292147Y-95417784D01*
X155292568Y-95418513D01*
X155298812Y-95433586D01*
X155300446Y-95439684D01*
X155303580Y-95444159D01*
X155303580Y-95444160D01*
X155323650Y-95472822D01*
X155326575Y-95477414D01*
X155346806Y-95512455D01*
X155350995Y-95515970D01*
X155377801Y-95538463D01*
X155381821Y-95542147D01*
X155931194Y-96091521D01*
X155949500Y-96135715D01*
X155949500Y-96483688D01*
X155950099Y-96486698D01*
X155950099Y-96486701D01*
X155951979Y-96496150D01*
X155963454Y-96553839D01*
X155966873Y-96558956D01*
X155966874Y-96558958D01*
X155988451Y-96591250D01*
X156016609Y-96633391D01*
X156021726Y-96636810D01*
X156091042Y-96683126D01*
X156091044Y-96683127D01*
X156096161Y-96686546D01*
X156128070Y-96692893D01*
X156163299Y-96699901D01*
X156163302Y-96699901D01*
X156166312Y-96700500D01*
X156933688Y-96700500D01*
X156936698Y-96699901D01*
X156936701Y-96699901D01*
X156971930Y-96692893D01*
X157003839Y-96686546D01*
X157008956Y-96683127D01*
X157008958Y-96683126D01*
X157078274Y-96636810D01*
X157083391Y-96633391D01*
X157111549Y-96591250D01*
X157133126Y-96558958D01*
X157133127Y-96558956D01*
X157136546Y-96553839D01*
X157148021Y-96496150D01*
X157149901Y-96486701D01*
X157149901Y-96486698D01*
X157150500Y-96483688D01*
X157150500Y-95516312D01*
X157149643Y-95512000D01*
X157137747Y-95452200D01*
X157136546Y-95446161D01*
X157132219Y-95439684D01*
X157086810Y-95371726D01*
X157083391Y-95366609D01*
X157061826Y-95352200D01*
X157008958Y-95316874D01*
X157008956Y-95316873D01*
X157003839Y-95313454D01*
X156964767Y-95305682D01*
X156936701Y-95300099D01*
X156936698Y-95300099D01*
X156933688Y-95299500D01*
X156166312Y-95299500D01*
X156110259Y-95310650D01*
X156063343Y-95301318D01*
X156053872Y-95293545D01*
X155943806Y-95183480D01*
X155925500Y-95139286D01*
X155925500Y-94889443D01*
X155943806Y-94845249D01*
X155988000Y-94826943D01*
X156022723Y-94837476D01*
X156091042Y-94883126D01*
X156091044Y-94883127D01*
X156096161Y-94886546D01*
X156128070Y-94892893D01*
X156163299Y-94899901D01*
X156163302Y-94899901D01*
X156166312Y-94900500D01*
X156933688Y-94900500D01*
X156936698Y-94899901D01*
X156936701Y-94899901D01*
X156971930Y-94892893D01*
X157003839Y-94886546D01*
X157008956Y-94883127D01*
X157008958Y-94883126D01*
X157078274Y-94836810D01*
X157083391Y-94833391D01*
X157136546Y-94753839D01*
X157147156Y-94700500D01*
X157149901Y-94686701D01*
X157149901Y-94686698D01*
X157150500Y-94683688D01*
X157549500Y-94683688D01*
X157550099Y-94686698D01*
X157550099Y-94686701D01*
X157552844Y-94700500D01*
X157563454Y-94753839D01*
X157616609Y-94833391D01*
X157621726Y-94836810D01*
X157691042Y-94883126D01*
X157691044Y-94883127D01*
X157696161Y-94886546D01*
X157728070Y-94892893D01*
X157763299Y-94899901D01*
X157763302Y-94899901D01*
X157766312Y-94900500D01*
X158533688Y-94900500D01*
X158536698Y-94899901D01*
X158536701Y-94899901D01*
X158571930Y-94892893D01*
X158603839Y-94886546D01*
X158608956Y-94883127D01*
X158608958Y-94883126D01*
X158678274Y-94836810D01*
X158683391Y-94833391D01*
X158736546Y-94753839D01*
X158747156Y-94700500D01*
X158749901Y-94686701D01*
X158749901Y-94686698D01*
X158750500Y-94683688D01*
X158750500Y-94638000D01*
X158768806Y-94593806D01*
X158813000Y-94575500D01*
X160447044Y-94575500D01*
X160460198Y-94576900D01*
X160475847Y-94580269D01*
X160480977Y-94579662D01*
X160480979Y-94579662D01*
X160512483Y-94575933D01*
X160519829Y-94575500D01*
X160524974Y-94575500D01*
X160545276Y-94572121D01*
X160548158Y-94571711D01*
X160599991Y-94565576D01*
X160604650Y-94563339D01*
X160608356Y-94562262D01*
X160612000Y-94561015D01*
X160617094Y-94560167D01*
X160621637Y-94557716D01*
X160621639Y-94557715D01*
X160663028Y-94535382D01*
X160665653Y-94534045D01*
X160709134Y-94513166D01*
X160712681Y-94511463D01*
X160715693Y-94508931D01*
X160715878Y-94508776D01*
X160715887Y-94508768D01*
X160716912Y-94507906D01*
X160717138Y-94507680D01*
X160720250Y-94505053D01*
X160722561Y-94503260D01*
X160727110Y-94500806D01*
X160764153Y-94460733D01*
X160765854Y-94458964D01*
X162817806Y-92407012D01*
X162862000Y-92388706D01*
X162906194Y-92407012D01*
X162924500Y-92451206D01*
X162924500Y-93646579D01*
X162906194Y-93690773D01*
X162874193Y-93707878D01*
X162846161Y-93713454D01*
X162841044Y-93716873D01*
X162841042Y-93716874D01*
X162795806Y-93747100D01*
X162766609Y-93766609D01*
X162763190Y-93771726D01*
X162733767Y-93815761D01*
X162713454Y-93846161D01*
X162699500Y-93916312D01*
X162699500Y-94883688D01*
X162700099Y-94886698D01*
X162700099Y-94886701D01*
X162702725Y-94899901D01*
X162713454Y-94953839D01*
X162716873Y-94958956D01*
X162716874Y-94958958D01*
X162730862Y-94979892D01*
X162766609Y-95033391D01*
X162771726Y-95036810D01*
X162841042Y-95083126D01*
X162841044Y-95083127D01*
X162846161Y-95086546D01*
X162878070Y-95092893D01*
X162913299Y-95099901D01*
X162913302Y-95099901D01*
X162916312Y-95100500D01*
X163531462Y-95100500D01*
X163567310Y-95111803D01*
X163577508Y-95118943D01*
X163584836Y-95124074D01*
X163590113Y-95125488D01*
X163590115Y-95125489D01*
X163590934Y-95125708D01*
X163606007Y-95131952D01*
X163606736Y-95132373D01*
X163606741Y-95132375D01*
X163611475Y-95135108D01*
X163651316Y-95142133D01*
X163656637Y-95143313D01*
X163690431Y-95152369D01*
X163690433Y-95152369D01*
X163695713Y-95153784D01*
X163736014Y-95150258D01*
X163741461Y-95150020D01*
X166308539Y-95150020D01*
X166313986Y-95150258D01*
X166354287Y-95153784D01*
X166359567Y-95152369D01*
X166359569Y-95152369D01*
X166393363Y-95143313D01*
X166398684Y-95142133D01*
X166438525Y-95135108D01*
X166443259Y-95132375D01*
X166443264Y-95132373D01*
X166443993Y-95131952D01*
X166459066Y-95125708D01*
X166459885Y-95125489D01*
X166459887Y-95125488D01*
X166465164Y-95124074D01*
X166482689Y-95111803D01*
X166498302Y-95100870D01*
X166502894Y-95097945D01*
X166537935Y-95077714D01*
X166563943Y-95046719D01*
X166567627Y-95042699D01*
X166891520Y-94718806D01*
X166935714Y-94700500D01*
X167364286Y-94700500D01*
X167408480Y-94718806D01*
X168807854Y-96118180D01*
X168811538Y-96122200D01*
X168837545Y-96153194D01*
X168872586Y-96173425D01*
X168877178Y-96176350D01*
X168910316Y-96199554D01*
X168915593Y-96200968D01*
X168915595Y-96200969D01*
X168916414Y-96201188D01*
X168931487Y-96207432D01*
X168932216Y-96207853D01*
X168932221Y-96207855D01*
X168936955Y-96210588D01*
X168976796Y-96217613D01*
X168982117Y-96218793D01*
X169015911Y-96227849D01*
X169015913Y-96227849D01*
X169021193Y-96229264D01*
X169061497Y-96225738D01*
X169066945Y-96225500D01*
X173787000Y-96225500D01*
X173831194Y-96243806D01*
X173849500Y-96288000D01*
X173849500Y-96383688D01*
X173863454Y-96453839D01*
X173866873Y-96458956D01*
X173866874Y-96458958D01*
X173890838Y-96494822D01*
X173916609Y-96533391D01*
X173921726Y-96536810D01*
X173991042Y-96583126D01*
X173991044Y-96583127D01*
X173996161Y-96586546D01*
X174028070Y-96592893D01*
X174063299Y-96599901D01*
X174063302Y-96599901D01*
X174066312Y-96600500D01*
X174833688Y-96600500D01*
X174836698Y-96599901D01*
X174836701Y-96599901D01*
X174871930Y-96592893D01*
X174903839Y-96586546D01*
X174908956Y-96583127D01*
X174908958Y-96583126D01*
X174978274Y-96536810D01*
X174983391Y-96533391D01*
X175009162Y-96494822D01*
X175033126Y-96458958D01*
X175033127Y-96458956D01*
X175036546Y-96453839D01*
X175050500Y-96383688D01*
X175050500Y-95856425D01*
X175068806Y-95812231D01*
X175882839Y-94998198D01*
X175927033Y-94979892D01*
X175971227Y-94998198D01*
X175976618Y-95004345D01*
X176069225Y-95125034D01*
X176069228Y-95125037D01*
X176071718Y-95128282D01*
X176074963Y-95130772D01*
X176080614Y-95135108D01*
X176197159Y-95224536D01*
X176200942Y-95226103D01*
X176339452Y-95283476D01*
X176339453Y-95283476D01*
X176343238Y-95285044D01*
X176347300Y-95285579D01*
X176347301Y-95285579D01*
X176495936Y-95305147D01*
X176500000Y-95305682D01*
X176504064Y-95305147D01*
X176652699Y-95285579D01*
X176652700Y-95285579D01*
X176656762Y-95285044D01*
X176660547Y-95283476D01*
X176660548Y-95283476D01*
X176799058Y-95226103D01*
X176802841Y-95224536D01*
X176919386Y-95135108D01*
X176925037Y-95130772D01*
X176928282Y-95128282D01*
X177024536Y-95002841D01*
X177051394Y-94938000D01*
X177083476Y-94860548D01*
X177083476Y-94860547D01*
X177085044Y-94856762D01*
X177088795Y-94828274D01*
X177105147Y-94704064D01*
X177105682Y-94700000D01*
X177103607Y-94684239D01*
X177085579Y-94547301D01*
X177085579Y-94547300D01*
X177085044Y-94543238D01*
X177071883Y-94511463D01*
X177026103Y-94400942D01*
X177024536Y-94397159D01*
X176928282Y-94271718D01*
X176802841Y-94175464D01*
X176656762Y-94114956D01*
X176652700Y-94114421D01*
X176649938Y-94113681D01*
X176611987Y-94084561D01*
X176605744Y-94037135D01*
X176621920Y-94009117D01*
X176832470Y-93798567D01*
X176842763Y-93790254D01*
X176851871Y-93784374D01*
X176851873Y-93784372D01*
X176856210Y-93781572D01*
X176870702Y-93763190D01*
X176879050Y-93752600D01*
X176883938Y-93747100D01*
X176887576Y-93743462D01*
X176892042Y-93737213D01*
X176899534Y-93726728D01*
X176901303Y-93724372D01*
X176930405Y-93687457D01*
X176930406Y-93687456D01*
X176933603Y-93683400D01*
X176935314Y-93678527D01*
X176937178Y-93675137D01*
X176938871Y-93671681D01*
X176941872Y-93667481D01*
X176951346Y-93635802D01*
X176956820Y-93617500D01*
X176957729Y-93614700D01*
X176973722Y-93569159D01*
X176973723Y-93569153D01*
X176975023Y-93565452D01*
X176975500Y-93559945D01*
X176975500Y-93559630D01*
X176975844Y-93555564D01*
X176976210Y-93552664D01*
X176977691Y-93547713D01*
X176975548Y-93493172D01*
X176975500Y-93490719D01*
X176975500Y-93246741D01*
X176976900Y-93233586D01*
X176979182Y-93222986D01*
X176980270Y-93217934D01*
X176975933Y-93181290D01*
X176975500Y-93173944D01*
X176975500Y-93168807D01*
X176972373Y-93150020D01*
X176972127Y-93148542D01*
X176971712Y-93145626D01*
X176966184Y-93098922D01*
X176965577Y-93093791D01*
X176963340Y-93089133D01*
X176962269Y-93085446D01*
X176961015Y-93081785D01*
X176960167Y-93076687D01*
X176946409Y-93051188D01*
X176935391Y-93030768D01*
X176934054Y-93028145D01*
X176920538Y-93000000D01*
X176911463Y-92981101D01*
X176907906Y-92976869D01*
X176907684Y-92976647D01*
X176905053Y-92973530D01*
X176903259Y-92971217D01*
X176900806Y-92966671D01*
X176860733Y-92929628D01*
X176858964Y-92927927D01*
X176473089Y-92542052D01*
X176464777Y-92531760D01*
X176458895Y-92522650D01*
X176458893Y-92522647D01*
X176456092Y-92518310D01*
X176440451Y-92505979D01*
X176417078Y-92464243D01*
X176417846Y-92444705D01*
X176424901Y-92409239D01*
X176424901Y-92409236D01*
X176425500Y-92406226D01*
X176425500Y-92093774D01*
X176423671Y-92084577D01*
X176414199Y-92036957D01*
X176414198Y-92036955D01*
X176412997Y-92030916D01*
X176409574Y-92025794D01*
X176408798Y-92023920D01*
X176408798Y-91976080D01*
X176409576Y-91974203D01*
X176412997Y-91969084D01*
X176424293Y-91912297D01*
X176424901Y-91909239D01*
X176424901Y-91909236D01*
X176425500Y-91906226D01*
X176425500Y-91593774D01*
X176424301Y-91587747D01*
X176414199Y-91536957D01*
X176414198Y-91536955D01*
X176412997Y-91530916D01*
X176409574Y-91525794D01*
X176408798Y-91523920D01*
X176408798Y-91476080D01*
X176409574Y-91474207D01*
X176412997Y-91469084D01*
X176418542Y-91441208D01*
X176445118Y-91401435D01*
X176492035Y-91392103D01*
X176524035Y-91409208D01*
X176831499Y-91716673D01*
X177133012Y-92018186D01*
X177136696Y-92022206D01*
X177149074Y-92036957D01*
X177162698Y-92053194D01*
X177197732Y-92073421D01*
X177202321Y-92076344D01*
X177235469Y-92099554D01*
X177240744Y-92100967D01*
X177240749Y-92100970D01*
X177241572Y-92101190D01*
X177256637Y-92107430D01*
X177257370Y-92107853D01*
X177262108Y-92110588D01*
X177301944Y-92117613D01*
X177307262Y-92118791D01*
X177341068Y-92127849D01*
X177341069Y-92127849D01*
X177346346Y-92129263D01*
X177351789Y-92128787D01*
X177351791Y-92128787D01*
X177386639Y-92125738D01*
X177392086Y-92125500D01*
X178287425Y-92125500D01*
X178331619Y-92143806D01*
X178349500Y-92181614D01*
X178349500Y-92183688D01*
X178363454Y-92253839D01*
X178366873Y-92258956D01*
X178366874Y-92258958D01*
X178394298Y-92300000D01*
X178416609Y-92333391D01*
X178421726Y-92336810D01*
X178491042Y-92383126D01*
X178491044Y-92383127D01*
X178496161Y-92386546D01*
X178528070Y-92392893D01*
X178563299Y-92399901D01*
X178563302Y-92399901D01*
X178566312Y-92400500D01*
X179533688Y-92400500D01*
X179535362Y-92400167D01*
X179538764Y-92400000D01*
X179837500Y-92400000D01*
X179881694Y-92418306D01*
X179900000Y-92462500D01*
X179900000Y-93300000D01*
X183600000Y-93400000D01*
X183600000Y-89000000D01*
X180200000Y-89000000D01*
X179218383Y-89883456D01*
X179176573Y-89899500D01*
X178566312Y-89899500D01*
X178563302Y-89900099D01*
X178563299Y-89900099D01*
X178502198Y-89912253D01*
X178502197Y-89912253D01*
X178496161Y-89913454D01*
X178491043Y-89916874D01*
X178485355Y-89919230D01*
X178484538Y-89917258D01*
X178460671Y-89924500D01*
X176488000Y-89924500D01*
X176443806Y-89906194D01*
X176425500Y-89862000D01*
X176425500Y-89593774D01*
X176412997Y-89530916D01*
X176393005Y-89500995D01*
X176368786Y-89464750D01*
X176365367Y-89459633D01*
X176339828Y-89442568D01*
X176299203Y-89415423D01*
X176299201Y-89415422D01*
X176294084Y-89412003D01*
X176262306Y-89405682D01*
X176234239Y-89400099D01*
X176234236Y-89400099D01*
X176231226Y-89399500D01*
X175368774Y-89399500D01*
X175365764Y-89400099D01*
X175365761Y-89400099D01*
X175337694Y-89405682D01*
X175305916Y-89412003D01*
X175300798Y-89415423D01*
X175295110Y-89417779D01*
X175294585Y-89416512D01*
X175268254Y-89424500D01*
X175056685Y-89424500D01*
X175012491Y-89406194D01*
X174994185Y-89362000D01*
X175012491Y-89317806D01*
X175018638Y-89312415D01*
X175125033Y-89230776D01*
X175125037Y-89230772D01*
X175128282Y-89228282D01*
X175195714Y-89140402D01*
X175240152Y-89116163D01*
X175242257Y-89115989D01*
X175244840Y-89115989D01*
X175336960Y-89100656D01*
X175337067Y-89101296D01*
X175363790Y-89099509D01*
X175365761Y-89099901D01*
X175365765Y-89099901D01*
X175368774Y-89100500D01*
X176231226Y-89100500D01*
X176234236Y-89099901D01*
X176234239Y-89099901D01*
X176289334Y-89088942D01*
X176336250Y-89098274D01*
X176345721Y-89106047D01*
X176357854Y-89118180D01*
X176361538Y-89122200D01*
X176364066Y-89125213D01*
X176387545Y-89153194D01*
X176422586Y-89173425D01*
X176427178Y-89176350D01*
X176448680Y-89191406D01*
X176460316Y-89199554D01*
X176465593Y-89200968D01*
X176465595Y-89200969D01*
X176466414Y-89201188D01*
X176481487Y-89207432D01*
X176482216Y-89207853D01*
X176482221Y-89207855D01*
X176486955Y-89210588D01*
X176526796Y-89217613D01*
X176532117Y-89218793D01*
X176565911Y-89227849D01*
X176565913Y-89227849D01*
X176571193Y-89229264D01*
X176611494Y-89225738D01*
X176616941Y-89225500D01*
X176685840Y-89225500D01*
X176720563Y-89236033D01*
X176791042Y-89283126D01*
X176791044Y-89283127D01*
X176796161Y-89286546D01*
X176828070Y-89292893D01*
X176863299Y-89299901D01*
X176863302Y-89299901D01*
X176866312Y-89300500D01*
X177833688Y-89300500D01*
X177836698Y-89299901D01*
X177836701Y-89299901D01*
X177871930Y-89292893D01*
X177903839Y-89286546D01*
X177908956Y-89283127D01*
X177908958Y-89283126D01*
X177978274Y-89236810D01*
X177983391Y-89233391D01*
X177997993Y-89211537D01*
X178033126Y-89158958D01*
X178033127Y-89158956D01*
X178036546Y-89153839D01*
X178044159Y-89115565D01*
X178049901Y-89086701D01*
X178049901Y-89086698D01*
X178050500Y-89083688D01*
X178050500Y-88556425D01*
X178068806Y-88512231D01*
X178187231Y-88393806D01*
X178231425Y-88375500D01*
X178703263Y-88375500D01*
X178716417Y-88376900D01*
X178732066Y-88380269D01*
X178737196Y-88379662D01*
X178737198Y-88379662D01*
X178768702Y-88375933D01*
X178776048Y-88375500D01*
X178781193Y-88375500D01*
X178801495Y-88372121D01*
X178804377Y-88371711D01*
X178856210Y-88365576D01*
X178860869Y-88363339D01*
X178864575Y-88362262D01*
X178868219Y-88361015D01*
X178873313Y-88360167D01*
X178877856Y-88357716D01*
X178877858Y-88357715D01*
X178919247Y-88335382D01*
X178921872Y-88334045D01*
X178954601Y-88318329D01*
X178968900Y-88311463D01*
X178971912Y-88308931D01*
X178972097Y-88308776D01*
X178972106Y-88308768D01*
X178973131Y-88307906D01*
X178973357Y-88307680D01*
X178976469Y-88305053D01*
X178978780Y-88303260D01*
X178983329Y-88300806D01*
X179020372Y-88260733D01*
X179022073Y-88258964D01*
X179514942Y-87766095D01*
X179535219Y-87752546D01*
X179599056Y-87726104D01*
X179599057Y-87726103D01*
X179602841Y-87724536D01*
X179728282Y-87628282D01*
X179824536Y-87502841D01*
X179853518Y-87432873D01*
X179883476Y-87360548D01*
X179883476Y-87360547D01*
X179885044Y-87356762D01*
X179888362Y-87331563D01*
X179905147Y-87204064D01*
X179905682Y-87200000D01*
X179895851Y-87125326D01*
X179885579Y-87047301D01*
X179885579Y-87047300D01*
X179885044Y-87043238D01*
X179882442Y-87036955D01*
X179826103Y-86900942D01*
X179824536Y-86897159D01*
X179728282Y-86771718D01*
X179602841Y-86675464D01*
X179566831Y-86660548D01*
X179460548Y-86616524D01*
X179460547Y-86616524D01*
X179456762Y-86614956D01*
X179452700Y-86614421D01*
X179452699Y-86614421D01*
X179304064Y-86594853D01*
X179300000Y-86594318D01*
X179295936Y-86594853D01*
X179147301Y-86614421D01*
X179147300Y-86614421D01*
X179143238Y-86614956D01*
X179139453Y-86616524D01*
X179139452Y-86616524D01*
X179033169Y-86660548D01*
X178997159Y-86675464D01*
X178871718Y-86771718D01*
X178775464Y-86897159D01*
X178773897Y-86900942D01*
X178717559Y-87036955D01*
X178714956Y-87043238D01*
X178714421Y-87047300D01*
X178714421Y-87047301D01*
X178704149Y-87125326D01*
X178694318Y-87200000D01*
X178694853Y-87204064D01*
X178711639Y-87331563D01*
X178714956Y-87356762D01*
X178716524Y-87360547D01*
X178716524Y-87360548D01*
X178719865Y-87368614D01*
X178742102Y-87422298D01*
X178742103Y-87470132D01*
X178728554Y-87490409D01*
X178612769Y-87606194D01*
X178568575Y-87624500D01*
X178096736Y-87624500D01*
X178083581Y-87623100D01*
X178067933Y-87619731D01*
X178062803Y-87620338D01*
X178062801Y-87620338D01*
X178031297Y-87624067D01*
X178023951Y-87624500D01*
X178018807Y-87624500D01*
X178016260Y-87624924D01*
X178016259Y-87624924D01*
X177998522Y-87627876D01*
X177995607Y-87628291D01*
X177979146Y-87630239D01*
X177943790Y-87634424D01*
X177939131Y-87636661D01*
X177935425Y-87637738D01*
X177931781Y-87638985D01*
X177926687Y-87639833D01*
X177922144Y-87642284D01*
X177922142Y-87642285D01*
X177880753Y-87664618D01*
X177878128Y-87665955D01*
X177831100Y-87688537D01*
X177828089Y-87691068D01*
X177828088Y-87691069D01*
X177827903Y-87691224D01*
X177827894Y-87691232D01*
X177826869Y-87692094D01*
X177826643Y-87692320D01*
X177823531Y-87694947D01*
X177821220Y-87696740D01*
X177816671Y-87699194D01*
X177813162Y-87702990D01*
X177779628Y-87739267D01*
X177777927Y-87741036D01*
X177437769Y-88081194D01*
X177393575Y-88099500D01*
X176866312Y-88099500D01*
X176863302Y-88100099D01*
X176863299Y-88100099D01*
X176834891Y-88105750D01*
X176796161Y-88113454D01*
X176791044Y-88116873D01*
X176791042Y-88116874D01*
X176759425Y-88138000D01*
X176716609Y-88166609D01*
X176713190Y-88171726D01*
X176682092Y-88218268D01*
X176663454Y-88246161D01*
X176657937Y-88273896D01*
X176650126Y-88313166D01*
X176649500Y-88316312D01*
X176649500Y-88382630D01*
X176631194Y-88426824D01*
X176587000Y-88445130D01*
X176566771Y-88441563D01*
X176563045Y-88439412D01*
X176523204Y-88432387D01*
X176517883Y-88431207D01*
X176484089Y-88422151D01*
X176484087Y-88422151D01*
X176478807Y-88420736D01*
X176478964Y-88420149D01*
X176440122Y-88399929D01*
X176425500Y-88359755D01*
X176425500Y-88093774D01*
X176416798Y-88050023D01*
X176414199Y-88036957D01*
X176414198Y-88036955D01*
X176412997Y-88030916D01*
X176409574Y-88025794D01*
X176408798Y-88023920D01*
X176408798Y-87976080D01*
X176409574Y-87974206D01*
X176412997Y-87969084D01*
X176415293Y-87957545D01*
X176424901Y-87909239D01*
X176424901Y-87909236D01*
X176425500Y-87906226D01*
X176425500Y-87593774D01*
X176424901Y-87590761D01*
X176414199Y-87536957D01*
X176414198Y-87536955D01*
X176412997Y-87530916D01*
X176409574Y-87525794D01*
X176408798Y-87523920D01*
X176408798Y-87476080D01*
X176409574Y-87474206D01*
X176412997Y-87469084D01*
X176422304Y-87422297D01*
X176424901Y-87409239D01*
X176424901Y-87409236D01*
X176425500Y-87406226D01*
X176425500Y-87093774D01*
X176412997Y-87030916D01*
X176365367Y-86959633D01*
X176322174Y-86930772D01*
X176299203Y-86915423D01*
X176299201Y-86915422D01*
X176294084Y-86912003D01*
X176266430Y-86906502D01*
X176234239Y-86900099D01*
X176234236Y-86900099D01*
X176231226Y-86899500D01*
X175368774Y-86899500D01*
X175365764Y-86900099D01*
X175365761Y-86900099D01*
X175333570Y-86906502D01*
X175305916Y-86912003D01*
X175300799Y-86915422D01*
X175300797Y-86915423D01*
X175277826Y-86930772D01*
X175234633Y-86959633D01*
X175187003Y-87030916D01*
X175174500Y-87093774D01*
X175174500Y-87362000D01*
X175156194Y-87406194D01*
X175112000Y-87424500D01*
X174533302Y-87424500D01*
X174489108Y-87406194D01*
X174470802Y-87362000D01*
X174489108Y-87317806D01*
X177288108Y-84518806D01*
X177332302Y-84500500D01*
X178708149Y-84500500D01*
X178752343Y-84518806D01*
X178762769Y-84534410D01*
X178762874Y-84534937D01*
X178813819Y-84611181D01*
X178818936Y-84614600D01*
X178884944Y-84658706D01*
X178884946Y-84658707D01*
X178890063Y-84662126D01*
X178934103Y-84670886D01*
X178954285Y-84674901D01*
X178954286Y-84674901D01*
X178957297Y-84675500D01*
X179800000Y-84675500D01*
X180642702Y-84675499D01*
X180645711Y-84674900D01*
X180645716Y-84674900D01*
X180703899Y-84663327D01*
X180709937Y-84662126D01*
X180786181Y-84611181D01*
X180802184Y-84587231D01*
X180833706Y-84540056D01*
X180833707Y-84540054D01*
X180837126Y-84534937D01*
X180850500Y-84467703D01*
X180850499Y-83882298D01*
X180843976Y-83849500D01*
X180838327Y-83821101D01*
X180837126Y-83815063D01*
X180786181Y-83738819D01*
X180722003Y-83695936D01*
X180715056Y-83691294D01*
X180715054Y-83691293D01*
X180709937Y-83687874D01*
X180665897Y-83679114D01*
X180645715Y-83675099D01*
X180645714Y-83675099D01*
X180642703Y-83674500D01*
X180639632Y-83674500D01*
X179800001Y-83674501D01*
X178957298Y-83674501D01*
X178954289Y-83675100D01*
X178954284Y-83675100D01*
X178896101Y-83686673D01*
X178890063Y-83687874D01*
X178813819Y-83738819D01*
X178762874Y-83815063D01*
X178762198Y-83814611D01*
X178732063Y-83844744D01*
X178708148Y-83849500D01*
X177761714Y-83849500D01*
X177717520Y-83831194D01*
X177699214Y-83787000D01*
X177717520Y-83742806D01*
X177841520Y-83618806D01*
X177885714Y-83600500D01*
X178483688Y-83600500D01*
X178486698Y-83599901D01*
X178486701Y-83599901D01*
X178521930Y-83592893D01*
X178553839Y-83586546D01*
X178558956Y-83583127D01*
X178558958Y-83583126D01*
X178628274Y-83536810D01*
X178633391Y-83533391D01*
X178648774Y-83510369D01*
X178683126Y-83458958D01*
X178683127Y-83458956D01*
X178686546Y-83453839D01*
X178697450Y-83399020D01*
X178699901Y-83386701D01*
X178699901Y-83386698D01*
X178700500Y-83383688D01*
X178700500Y-82616312D01*
X178686546Y-82546161D01*
X178633391Y-82466609D01*
X178617734Y-82456147D01*
X178558958Y-82416874D01*
X178558956Y-82416873D01*
X178553839Y-82413454D01*
X178521930Y-82407107D01*
X178486701Y-82400099D01*
X178486698Y-82400099D01*
X178483688Y-82399500D01*
X177516312Y-82399500D01*
X177513302Y-82400099D01*
X177513299Y-82400099D01*
X177478070Y-82407107D01*
X177446161Y-82413454D01*
X177441044Y-82416873D01*
X177441042Y-82416874D01*
X177382266Y-82456147D01*
X177366609Y-82466609D01*
X177313454Y-82546161D01*
X177299500Y-82616312D01*
X177299500Y-83214286D01*
X177281194Y-83258480D01*
X177207194Y-83332480D01*
X177163000Y-83350786D01*
X177118806Y-83332480D01*
X177100500Y-83288286D01*
X177100500Y-82616312D01*
X177086546Y-82546161D01*
X177033391Y-82466609D01*
X177017734Y-82456147D01*
X176958958Y-82416874D01*
X176958956Y-82416873D01*
X176953839Y-82413454D01*
X176921930Y-82407107D01*
X176886701Y-82400099D01*
X176886698Y-82400099D01*
X176883688Y-82399500D01*
X175916312Y-82399500D01*
X175913302Y-82400099D01*
X175913299Y-82400099D01*
X175878070Y-82407107D01*
X175846161Y-82413454D01*
X175841044Y-82416873D01*
X175841042Y-82416874D01*
X175782266Y-82456147D01*
X175766609Y-82466609D01*
X175713454Y-82546161D01*
X175699500Y-82616312D01*
X175699500Y-82618356D01*
X175677076Y-82660312D01*
X175637425Y-82674500D01*
X172316941Y-82674500D01*
X172311494Y-82674262D01*
X172309451Y-82674083D01*
X172271193Y-82670736D01*
X172265913Y-82672151D01*
X172265911Y-82672151D01*
X172232117Y-82681207D01*
X172226796Y-82682387D01*
X172186955Y-82689412D01*
X172182221Y-82692145D01*
X172182216Y-82692147D01*
X172181487Y-82692568D01*
X172166414Y-82698812D01*
X172165595Y-82699031D01*
X172165593Y-82699032D01*
X172160316Y-82700446D01*
X172155841Y-82703580D01*
X172155840Y-82703580D01*
X172127178Y-82723650D01*
X172122586Y-82726575D01*
X172087545Y-82746806D01*
X172084030Y-82750995D01*
X172061536Y-82777802D01*
X172057852Y-82781822D01*
X170907789Y-83931885D01*
X170903769Y-83935569D01*
X170872775Y-83961576D01*
X170853319Y-83995277D01*
X170852549Y-83996610D01*
X170849619Y-84001209D01*
X170840415Y-84014354D01*
X170826415Y-84034347D01*
X170825001Y-84039624D01*
X170825000Y-84039626D01*
X170824781Y-84040445D01*
X170818537Y-84055518D01*
X170818116Y-84056247D01*
X170818114Y-84056252D01*
X170815381Y-84060986D01*
X170810331Y-84089631D01*
X170808357Y-84100824D01*
X170807176Y-84106148D01*
X170800578Y-84130772D01*
X170796705Y-84145224D01*
X170798440Y-84165055D01*
X170800231Y-84185525D01*
X170800469Y-84190972D01*
X170800469Y-85033875D01*
X170800231Y-85039323D01*
X170797770Y-85067448D01*
X170775682Y-85109878D01*
X170735508Y-85124500D01*
X170643774Y-85124500D01*
X170640764Y-85125099D01*
X170640761Y-85125099D01*
X170586957Y-85135801D01*
X170586955Y-85135802D01*
X170580916Y-85137003D01*
X170575794Y-85140426D01*
X170573920Y-85141202D01*
X170526080Y-85141202D01*
X170524206Y-85140426D01*
X170519084Y-85137003D01*
X170513045Y-85135802D01*
X170513043Y-85135801D01*
X170459239Y-85125099D01*
X170459236Y-85125099D01*
X170456226Y-85124500D01*
X170143774Y-85124500D01*
X170140764Y-85125099D01*
X170140761Y-85125099D01*
X170086957Y-85135801D01*
X170086955Y-85135802D01*
X170080916Y-85137003D01*
X170075794Y-85140426D01*
X170073920Y-85141202D01*
X170026080Y-85141202D01*
X170024206Y-85140426D01*
X170019084Y-85137003D01*
X170013045Y-85135802D01*
X170013043Y-85135801D01*
X169959239Y-85125099D01*
X169959236Y-85125099D01*
X169956226Y-85124500D01*
X169643774Y-85124500D01*
X169640764Y-85125099D01*
X169640761Y-85125099D01*
X169608570Y-85131502D01*
X169580916Y-85137003D01*
X169575799Y-85140422D01*
X169575797Y-85140423D01*
X169528070Y-85172314D01*
X169509633Y-85184633D01*
X169462003Y-85255916D01*
X169449500Y-85318774D01*
X169449500Y-86181226D01*
X169450099Y-86184236D01*
X169450099Y-86184239D01*
X169453334Y-86200500D01*
X169462003Y-86244084D01*
X169465422Y-86249201D01*
X169465423Y-86249203D01*
X169491341Y-86287991D01*
X169509633Y-86315367D01*
X169514750Y-86318786D01*
X169575797Y-86359577D01*
X169575799Y-86359578D01*
X169580916Y-86362997D01*
X169608570Y-86368498D01*
X169640761Y-86374901D01*
X169640764Y-86374901D01*
X169643774Y-86375500D01*
X169956226Y-86375500D01*
X169959236Y-86374901D01*
X169959239Y-86374901D01*
X170013043Y-86364199D01*
X170013045Y-86364198D01*
X170019084Y-86362997D01*
X170024206Y-86359574D01*
X170026080Y-86358798D01*
X170073920Y-86358798D01*
X170075794Y-86359574D01*
X170080916Y-86362997D01*
X170086955Y-86364198D01*
X170086957Y-86364199D01*
X170140761Y-86374901D01*
X170140764Y-86374901D01*
X170143774Y-86375500D01*
X170456226Y-86375500D01*
X170459236Y-86374901D01*
X170459239Y-86374901D01*
X170513043Y-86364199D01*
X170513045Y-86364198D01*
X170519084Y-86362997D01*
X170524206Y-86359574D01*
X170526080Y-86358798D01*
X170573920Y-86358798D01*
X170575794Y-86359574D01*
X170580916Y-86362997D01*
X170586955Y-86364198D01*
X170586957Y-86364199D01*
X170640761Y-86374901D01*
X170640764Y-86374901D01*
X170643774Y-86375500D01*
X170956226Y-86375500D01*
X170959236Y-86374901D01*
X170959239Y-86374901D01*
X171013043Y-86364199D01*
X171013045Y-86364198D01*
X171019084Y-86362997D01*
X171024206Y-86359574D01*
X171026080Y-86358798D01*
X171073920Y-86358798D01*
X171075794Y-86359574D01*
X171080916Y-86362997D01*
X171086955Y-86364198D01*
X171086957Y-86364199D01*
X171140761Y-86374901D01*
X171140764Y-86374901D01*
X171143774Y-86375500D01*
X171456226Y-86375500D01*
X171459236Y-86374901D01*
X171459239Y-86374901D01*
X171513043Y-86364199D01*
X171513045Y-86364198D01*
X171519084Y-86362997D01*
X171524206Y-86359574D01*
X171526080Y-86358798D01*
X171573920Y-86358798D01*
X171575794Y-86359574D01*
X171580916Y-86362997D01*
X171586955Y-86364198D01*
X171586957Y-86364199D01*
X171640761Y-86374901D01*
X171640764Y-86374901D01*
X171643774Y-86375500D01*
X171956226Y-86375500D01*
X171959236Y-86374901D01*
X171959239Y-86374901D01*
X172013043Y-86364199D01*
X172013045Y-86364198D01*
X172019084Y-86362997D01*
X172024206Y-86359574D01*
X172026080Y-86358798D01*
X172073920Y-86358798D01*
X172075794Y-86359574D01*
X172080916Y-86362997D01*
X172086955Y-86364198D01*
X172086957Y-86364199D01*
X172140761Y-86374901D01*
X172140764Y-86374901D01*
X172143774Y-86375500D01*
X172456226Y-86375500D01*
X172459236Y-86374901D01*
X172459239Y-86374901D01*
X172513043Y-86364199D01*
X172513045Y-86364198D01*
X172519084Y-86362997D01*
X172524206Y-86359574D01*
X172526080Y-86358798D01*
X172573920Y-86358798D01*
X172575794Y-86359574D01*
X172580916Y-86362997D01*
X172586955Y-86364198D01*
X172586957Y-86364199D01*
X172640761Y-86374901D01*
X172640764Y-86374901D01*
X172643774Y-86375500D01*
X172956226Y-86375500D01*
X172959236Y-86374901D01*
X172959239Y-86374901D01*
X173013043Y-86364199D01*
X173013045Y-86364198D01*
X173019084Y-86362997D01*
X173024206Y-86359574D01*
X173026080Y-86358798D01*
X173073920Y-86358798D01*
X173075794Y-86359574D01*
X173080916Y-86362997D01*
X173086955Y-86364198D01*
X173086957Y-86364199D01*
X173098059Y-86366407D01*
X173108791Y-86368542D01*
X173148564Y-86395116D01*
X173157897Y-86442032D01*
X173140792Y-86474034D01*
X170870399Y-88744428D01*
X170826205Y-88762734D01*
X169924803Y-88762734D01*
X169896428Y-88755922D01*
X169893587Y-88754474D01*
X169839678Y-88727006D01*
X169796136Y-88704820D01*
X169796135Y-88704820D01*
X169791755Y-88702588D01*
X169666451Y-88682742D01*
X169541147Y-88702588D01*
X169536764Y-88704821D01*
X169533303Y-88705946D01*
X169485615Y-88702195D01*
X169454547Y-88665822D01*
X169451487Y-88646506D01*
X169451487Y-88442920D01*
X169451725Y-88437473D01*
X169454774Y-88402625D01*
X169454774Y-88402623D01*
X169455250Y-88397180D01*
X169452564Y-88387153D01*
X169444778Y-88358096D01*
X169443599Y-88352775D01*
X169437525Y-88318329D01*
X169436575Y-88312942D01*
X169433417Y-88307471D01*
X169427177Y-88292406D01*
X169426957Y-88291583D01*
X169426954Y-88291578D01*
X169425541Y-88286303D01*
X169402331Y-88253155D01*
X169399408Y-88248566D01*
X169379181Y-88213532D01*
X169348191Y-88187528D01*
X169344171Y-88183844D01*
X169192145Y-88031819D01*
X169188461Y-88027799D01*
X169165970Y-88000995D01*
X169162455Y-87996806D01*
X169127414Y-87976575D01*
X169122822Y-87973650D01*
X169094160Y-87953580D01*
X169094159Y-87953580D01*
X169089684Y-87950446D01*
X169084407Y-87949032D01*
X169084405Y-87949031D01*
X169083586Y-87948812D01*
X169068513Y-87942568D01*
X169067784Y-87942147D01*
X169067779Y-87942145D01*
X169063045Y-87939412D01*
X169023204Y-87932387D01*
X169017883Y-87931207D01*
X168984089Y-87922151D01*
X168984087Y-87922151D01*
X168978807Y-87920736D01*
X168940549Y-87924083D01*
X168938506Y-87924262D01*
X168933059Y-87924500D01*
X167988000Y-87924500D01*
X167943806Y-87906194D01*
X167925500Y-87862000D01*
X167925500Y-87593774D01*
X167924901Y-87590761D01*
X167914199Y-87536957D01*
X167914198Y-87536955D01*
X167912997Y-87530916D01*
X167909574Y-87525794D01*
X167908798Y-87523920D01*
X167908798Y-87476080D01*
X167909574Y-87474206D01*
X167912997Y-87469084D01*
X167922304Y-87422297D01*
X167924901Y-87409239D01*
X167924901Y-87409236D01*
X167925500Y-87406226D01*
X167925500Y-87093774D01*
X167912997Y-87030916D01*
X167865367Y-86959633D01*
X167822174Y-86930772D01*
X167799203Y-86915423D01*
X167799201Y-86915422D01*
X167794084Y-86912003D01*
X167766430Y-86906502D01*
X167734239Y-86900099D01*
X167734236Y-86900099D01*
X167731226Y-86899500D01*
X166868774Y-86899500D01*
X166865764Y-86900099D01*
X166865761Y-86900099D01*
X166833570Y-86906502D01*
X166805916Y-86912003D01*
X166800799Y-86915422D01*
X166800797Y-86915423D01*
X166777826Y-86930772D01*
X166734633Y-86959633D01*
X166687003Y-87030916D01*
X166685802Y-87036954D01*
X166681458Y-87058792D01*
X166654882Y-87098565D01*
X166607965Y-87107897D01*
X166575965Y-87090792D01*
X165468861Y-85983688D01*
X167149500Y-85983688D01*
X167163454Y-86053839D01*
X167166873Y-86058956D01*
X167166874Y-86058958D01*
X167206147Y-86117734D01*
X167216609Y-86133391D01*
X167221726Y-86136810D01*
X167291042Y-86183126D01*
X167291044Y-86183127D01*
X167296161Y-86186546D01*
X167322077Y-86191701D01*
X167363299Y-86199901D01*
X167363302Y-86199901D01*
X167366312Y-86200500D01*
X168133688Y-86200500D01*
X168136698Y-86199901D01*
X168136701Y-86199901D01*
X168177923Y-86191701D01*
X168203839Y-86186546D01*
X168208956Y-86183127D01*
X168208958Y-86183126D01*
X168278274Y-86136810D01*
X168283391Y-86133391D01*
X168335033Y-86056103D01*
X168374807Y-86029527D01*
X168421723Y-86038859D01*
X168448299Y-86078633D01*
X168449500Y-86090826D01*
X168449500Y-86181226D01*
X168450099Y-86184236D01*
X168450099Y-86184239D01*
X168453334Y-86200500D01*
X168462003Y-86244084D01*
X168465422Y-86249201D01*
X168465423Y-86249203D01*
X168491341Y-86287991D01*
X168509633Y-86315367D01*
X168514750Y-86318786D01*
X168575797Y-86359577D01*
X168575799Y-86359578D01*
X168580916Y-86362997D01*
X168608570Y-86368498D01*
X168640761Y-86374901D01*
X168640764Y-86374901D01*
X168643774Y-86375500D01*
X168956226Y-86375500D01*
X168959236Y-86374901D01*
X168959239Y-86374901D01*
X168991430Y-86368498D01*
X169019084Y-86362997D01*
X169024201Y-86359578D01*
X169024203Y-86359577D01*
X169085250Y-86318786D01*
X169090367Y-86315367D01*
X169108659Y-86287991D01*
X169134577Y-86249203D01*
X169134578Y-86249201D01*
X169137997Y-86244084D01*
X169146666Y-86200500D01*
X169149901Y-86184239D01*
X169149901Y-86184236D01*
X169150500Y-86181226D01*
X169150500Y-85818190D01*
X169150733Y-85812797D01*
X169150863Y-85811294D01*
X169150980Y-85809945D01*
X169150980Y-85772217D01*
X169152380Y-85759063D01*
X169153777Y-85752574D01*
X169155749Y-85743414D01*
X169151413Y-85706778D01*
X169150980Y-85699432D01*
X169150980Y-85694287D01*
X169150660Y-85692364D01*
X169150500Y-85688479D01*
X169150500Y-85318774D01*
X169137997Y-85255916D01*
X169090367Y-85184633D01*
X169071930Y-85172314D01*
X169024203Y-85140423D01*
X169024201Y-85140422D01*
X169019084Y-85137003D01*
X168991430Y-85131502D01*
X168959239Y-85125099D01*
X168959236Y-85125099D01*
X168956226Y-85124500D01*
X168643774Y-85124500D01*
X168639375Y-85125375D01*
X168638067Y-85125365D01*
X168637708Y-85125400D01*
X168637704Y-85125362D01*
X168616061Y-85125191D01*
X168615452Y-85124977D01*
X168611540Y-85124638D01*
X168611539Y-85124638D01*
X168611417Y-85124627D01*
X168609945Y-85124500D01*
X168609621Y-85124500D01*
X168605563Y-85124156D01*
X168602660Y-85123789D01*
X168597713Y-85122310D01*
X168543198Y-85124452D01*
X168540744Y-85124500D01*
X168413000Y-85124500D01*
X168368806Y-85106194D01*
X168350500Y-85062000D01*
X168350500Y-85016312D01*
X168336546Y-84946161D01*
X168326431Y-84931022D01*
X168286810Y-84871726D01*
X168283391Y-84866609D01*
X168248951Y-84843597D01*
X168208958Y-84816874D01*
X168208956Y-84816873D01*
X168203839Y-84813454D01*
X168175807Y-84807878D01*
X168136033Y-84781302D01*
X168125500Y-84746579D01*
X168125500Y-84631425D01*
X168143806Y-84587231D01*
X168812246Y-83918792D01*
X168856440Y-83900486D01*
X168864596Y-83901021D01*
X168900000Y-83905682D01*
X168904064Y-83905147D01*
X169052699Y-83885579D01*
X169052700Y-83885579D01*
X169056762Y-83885044D01*
X169060547Y-83883476D01*
X169060548Y-83883476D01*
X169199058Y-83826103D01*
X169202841Y-83824536D01*
X169328282Y-83728282D01*
X169424536Y-83602841D01*
X169432702Y-83583126D01*
X169483476Y-83460548D01*
X169483476Y-83460547D01*
X169485044Y-83456762D01*
X169486448Y-83446102D01*
X169505147Y-83304064D01*
X169505682Y-83300000D01*
X169485044Y-83143238D01*
X169446383Y-83049901D01*
X169426103Y-83000942D01*
X169424536Y-82997159D01*
X169328282Y-82871718D01*
X169202841Y-82775464D01*
X169081525Y-82725213D01*
X169060548Y-82716524D01*
X169060547Y-82716524D01*
X169056762Y-82714956D01*
X169052700Y-82714421D01*
X169052699Y-82714421D01*
X168904064Y-82694853D01*
X168900000Y-82694318D01*
X168895936Y-82694853D01*
X168747301Y-82714421D01*
X168747300Y-82714421D01*
X168743238Y-82714956D01*
X168739453Y-82716524D01*
X168739452Y-82716524D01*
X168718475Y-82725213D01*
X168597159Y-82775464D01*
X168471718Y-82871718D01*
X168375464Y-82997159D01*
X168373897Y-83000942D01*
X168353618Y-83049901D01*
X168314956Y-83143238D01*
X168294318Y-83300000D01*
X168294853Y-83304064D01*
X168298979Y-83335403D01*
X168286599Y-83381608D01*
X168281208Y-83387755D01*
X167517532Y-84151431D01*
X167507240Y-84159743D01*
X167498130Y-84165625D01*
X167498127Y-84165627D01*
X167493790Y-84168428D01*
X167476018Y-84190972D01*
X167470951Y-84197399D01*
X167466063Y-84202900D01*
X167462425Y-84206538D01*
X167460928Y-84208632D01*
X167460927Y-84208634D01*
X167450474Y-84223262D01*
X167448705Y-84225618D01*
X167416397Y-84266600D01*
X167414685Y-84271476D01*
X167412825Y-84274859D01*
X167411131Y-84278318D01*
X167408128Y-84282519D01*
X167406649Y-84287466D01*
X167406648Y-84287467D01*
X167393176Y-84332516D01*
X167392265Y-84335318D01*
X167376280Y-84380836D01*
X167376279Y-84380840D01*
X167374977Y-84384548D01*
X167374500Y-84390055D01*
X167374500Y-84390379D01*
X167374156Y-84394437D01*
X167373789Y-84397340D01*
X167372310Y-84402287D01*
X167372513Y-84407446D01*
X167374452Y-84456802D01*
X167374500Y-84459256D01*
X167374500Y-84746579D01*
X167356194Y-84790773D01*
X167324193Y-84807878D01*
X167296161Y-84813454D01*
X167291044Y-84816873D01*
X167291042Y-84816874D01*
X167251049Y-84843597D01*
X167216609Y-84866609D01*
X167213190Y-84871726D01*
X167173570Y-84931022D01*
X167163454Y-84946161D01*
X167149500Y-85016312D01*
X167149500Y-85983688D01*
X165468861Y-85983688D01*
X164943806Y-85458633D01*
X164925500Y-85414439D01*
X164925500Y-82260714D01*
X164943806Y-82216520D01*
X165931519Y-81228807D01*
X175170736Y-81228807D01*
X175172151Y-81234087D01*
X175172151Y-81234089D01*
X175181207Y-81267883D01*
X175182387Y-81273204D01*
X175189412Y-81313045D01*
X175192145Y-81317779D01*
X175192147Y-81317784D01*
X175192568Y-81318513D01*
X175198812Y-81333586D01*
X175200446Y-81339684D01*
X175203580Y-81344159D01*
X175203580Y-81344160D01*
X175223650Y-81372822D01*
X175226575Y-81377414D01*
X175246806Y-81412455D01*
X175250995Y-81415970D01*
X175277802Y-81438464D01*
X175281822Y-81442148D01*
X175457854Y-81618180D01*
X175461536Y-81622198D01*
X175487545Y-81653194D01*
X175522586Y-81673425D01*
X175527178Y-81676350D01*
X175560316Y-81699554D01*
X175565593Y-81700968D01*
X175565595Y-81700969D01*
X175566414Y-81701188D01*
X175581487Y-81707432D01*
X175582216Y-81707853D01*
X175582221Y-81707855D01*
X175586955Y-81710588D01*
X175626796Y-81717613D01*
X175632113Y-81718792D01*
X175645917Y-81722491D01*
X175653291Y-81724467D01*
X175691241Y-81753589D01*
X175699312Y-81778709D01*
X175699500Y-81780617D01*
X175699500Y-81783688D01*
X175700099Y-81786698D01*
X175700099Y-81786701D01*
X175702725Y-81799900D01*
X175713454Y-81853839D01*
X175716873Y-81858956D01*
X175716874Y-81858958D01*
X175739139Y-81892279D01*
X175766609Y-81933391D01*
X175771726Y-81936810D01*
X175841042Y-81983126D01*
X175841044Y-81983127D01*
X175846161Y-81986546D01*
X175875279Y-81992338D01*
X175913299Y-81999901D01*
X175913302Y-81999901D01*
X175916312Y-82000500D01*
X176883688Y-82000500D01*
X176886698Y-81999901D01*
X176886701Y-81999901D01*
X176924721Y-81992338D01*
X176953839Y-81986546D01*
X176958956Y-81983127D01*
X176958958Y-81983126D01*
X177028274Y-81936810D01*
X177033391Y-81933391D01*
X177060861Y-81892279D01*
X177083126Y-81858958D01*
X177083127Y-81858956D01*
X177086546Y-81853839D01*
X177097275Y-81799900D01*
X177099901Y-81786701D01*
X177099901Y-81786698D01*
X177100500Y-81783688D01*
X177299500Y-81783688D01*
X177300099Y-81786698D01*
X177300099Y-81786701D01*
X177302725Y-81799900D01*
X177313454Y-81853839D01*
X177316873Y-81858956D01*
X177316874Y-81858958D01*
X177339139Y-81892279D01*
X177366609Y-81933391D01*
X177371726Y-81936810D01*
X177441042Y-81983126D01*
X177441044Y-81983127D01*
X177446161Y-81986546D01*
X177475279Y-81992338D01*
X177513299Y-81999901D01*
X177513302Y-81999901D01*
X177516312Y-82000500D01*
X178483688Y-82000500D01*
X178486698Y-81999901D01*
X178486701Y-81999901D01*
X178524721Y-81992338D01*
X178553839Y-81986546D01*
X178558956Y-81983127D01*
X178558958Y-81983126D01*
X178628274Y-81936810D01*
X178633391Y-81933391D01*
X178660861Y-81892279D01*
X178683126Y-81858958D01*
X178683127Y-81858956D01*
X178686546Y-81853839D01*
X178697275Y-81799900D01*
X178699901Y-81786701D01*
X178699901Y-81786698D01*
X178700500Y-81783688D01*
X178700500Y-81780617D01*
X178700688Y-81778709D01*
X178723239Y-81736523D01*
X178746709Y-81724467D01*
X178754083Y-81722491D01*
X178767887Y-81718792D01*
X178773204Y-81717613D01*
X178813045Y-81710588D01*
X178817779Y-81707855D01*
X178817784Y-81707853D01*
X178818513Y-81707432D01*
X178833586Y-81701188D01*
X178834405Y-81700969D01*
X178834407Y-81700968D01*
X178839684Y-81699554D01*
X178872822Y-81676350D01*
X178877414Y-81673425D01*
X178912455Y-81653194D01*
X178938464Y-81622198D01*
X178942148Y-81618178D01*
X179218180Y-81342146D01*
X179222200Y-81338462D01*
X179249005Y-81315970D01*
X179253194Y-81312455D01*
X179273425Y-81277414D01*
X179276350Y-81272822D01*
X179296420Y-81244160D01*
X179296420Y-81244159D01*
X179299554Y-81239684D01*
X179301188Y-81233586D01*
X179307432Y-81218513D01*
X179307853Y-81217784D01*
X179307855Y-81217779D01*
X179310588Y-81213045D01*
X179317613Y-81173204D01*
X179318793Y-81167883D01*
X179327849Y-81134089D01*
X179327849Y-81134087D01*
X179329264Y-81128807D01*
X179325738Y-81088506D01*
X179325500Y-81083059D01*
X179325500Y-80416941D01*
X179325738Y-80411494D01*
X179328787Y-80376640D01*
X179329264Y-80371193D01*
X179318793Y-80332117D01*
X179317612Y-80326793D01*
X179311537Y-80292338D01*
X179310588Y-80286955D01*
X179307855Y-80282221D01*
X179307853Y-80282216D01*
X179307432Y-80281487D01*
X179301188Y-80266414D01*
X179300969Y-80265595D01*
X179300968Y-80265593D01*
X179299554Y-80260316D01*
X179276350Y-80227178D01*
X179273420Y-80222579D01*
X179267021Y-80211494D01*
X179253194Y-80187545D01*
X179222198Y-80161536D01*
X179218178Y-80157852D01*
X178942146Y-79881820D01*
X178938462Y-79877800D01*
X178915970Y-79850995D01*
X178912455Y-79846806D01*
X178877414Y-79826575D01*
X178872822Y-79823650D01*
X178844160Y-79803580D01*
X178844158Y-79803579D01*
X178839684Y-79800446D01*
X178834407Y-79799032D01*
X178834405Y-79799031D01*
X178833586Y-79798812D01*
X178818513Y-79792568D01*
X178817784Y-79792147D01*
X178817779Y-79792145D01*
X178813045Y-79789412D01*
X178773204Y-79782387D01*
X178767887Y-79781208D01*
X178746709Y-79775533D01*
X178708759Y-79746411D01*
X178700688Y-79721291D01*
X178700500Y-79719382D01*
X178700500Y-79716312D01*
X178686546Y-79646161D01*
X178633391Y-79566609D01*
X178617734Y-79556147D01*
X178558958Y-79516874D01*
X178558956Y-79516873D01*
X178553839Y-79513454D01*
X178521930Y-79507107D01*
X178486701Y-79500099D01*
X178486698Y-79500099D01*
X178483688Y-79499500D01*
X177516312Y-79499500D01*
X177513302Y-79500099D01*
X177513299Y-79500099D01*
X177478070Y-79507107D01*
X177446161Y-79513454D01*
X177441044Y-79516873D01*
X177441042Y-79516874D01*
X177382266Y-79556147D01*
X177366609Y-79566609D01*
X177313454Y-79646161D01*
X177299500Y-79716312D01*
X177299500Y-80483688D01*
X177313454Y-80553839D01*
X177366609Y-80633391D01*
X177371726Y-80636810D01*
X177441042Y-80683126D01*
X177441044Y-80683127D01*
X177446161Y-80686546D01*
X177456995Y-80688701D01*
X177496769Y-80715277D01*
X177506101Y-80762193D01*
X177479525Y-80801967D01*
X177456995Y-80811299D01*
X177446161Y-80813454D01*
X177441044Y-80816873D01*
X177441042Y-80816874D01*
X177406959Y-80839648D01*
X177366609Y-80866609D01*
X177363190Y-80871726D01*
X177317529Y-80940063D01*
X177313454Y-80946161D01*
X177308566Y-80970736D01*
X177302033Y-81003580D01*
X177299500Y-81016312D01*
X177299500Y-81783688D01*
X177100500Y-81783688D01*
X177100500Y-81016312D01*
X177097968Y-81003580D01*
X177091434Y-80970736D01*
X177086546Y-80946161D01*
X177082472Y-80940063D01*
X177036810Y-80871726D01*
X177033391Y-80866609D01*
X176993041Y-80839648D01*
X176958958Y-80816874D01*
X176958956Y-80816873D01*
X176953839Y-80813454D01*
X176943005Y-80811299D01*
X176903231Y-80784723D01*
X176893899Y-80737807D01*
X176920475Y-80698033D01*
X176943005Y-80688701D01*
X176953839Y-80686546D01*
X176958956Y-80683127D01*
X176958958Y-80683126D01*
X177028274Y-80636810D01*
X177033391Y-80633391D01*
X177086546Y-80553839D01*
X177100500Y-80483688D01*
X177100500Y-79716312D01*
X177086546Y-79646161D01*
X177033391Y-79566609D01*
X177017734Y-79556147D01*
X176958958Y-79516874D01*
X176958956Y-79516873D01*
X176953839Y-79513454D01*
X176921930Y-79507107D01*
X176886701Y-79500099D01*
X176886698Y-79500099D01*
X176883688Y-79499500D01*
X175916312Y-79499500D01*
X175913302Y-79500099D01*
X175913299Y-79500099D01*
X175878070Y-79507107D01*
X175846161Y-79513454D01*
X175841044Y-79516873D01*
X175841042Y-79516874D01*
X175782266Y-79556147D01*
X175766609Y-79566609D01*
X175713454Y-79646161D01*
X175699500Y-79716312D01*
X175699500Y-79718356D01*
X175677076Y-79760312D01*
X175637425Y-79774500D01*
X175616930Y-79774500D01*
X175611483Y-79774262D01*
X175576638Y-79771213D01*
X175576636Y-79771213D01*
X175571193Y-79770737D01*
X175565916Y-79772151D01*
X175565915Y-79772151D01*
X175532109Y-79781209D01*
X175526791Y-79782387D01*
X175486955Y-79789412D01*
X175482218Y-79792147D01*
X175482217Y-79792147D01*
X175481484Y-79792570D01*
X175466419Y-79798810D01*
X175465596Y-79799030D01*
X175465591Y-79799033D01*
X175460316Y-79800446D01*
X175427168Y-79823656D01*
X175422581Y-79826578D01*
X175387545Y-79846806D01*
X175384030Y-79850995D01*
X175384029Y-79850996D01*
X175361540Y-79877797D01*
X175357857Y-79881816D01*
X175281817Y-79957856D01*
X175277798Y-79961539D01*
X175246806Y-79987545D01*
X175226580Y-80022579D01*
X175223650Y-80027178D01*
X175208020Y-80049500D01*
X175200446Y-80060316D01*
X175199032Y-80065593D01*
X175199031Y-80065595D01*
X175198812Y-80066414D01*
X175192568Y-80081487D01*
X175192147Y-80082216D01*
X175192145Y-80082221D01*
X175189412Y-80086955D01*
X175184027Y-80117500D01*
X175182388Y-80126793D01*
X175181207Y-80132117D01*
X175173324Y-80161536D01*
X175170736Y-80171193D01*
X175174118Y-80209847D01*
X175174262Y-80211494D01*
X175174500Y-80216941D01*
X175174500Y-81183059D01*
X175174262Y-81188506D01*
X175170736Y-81228807D01*
X165931519Y-81228807D01*
X169166521Y-77993806D01*
X169210715Y-77975500D01*
X178758149Y-77975500D01*
X178802343Y-77993806D01*
X178812769Y-78009410D01*
X178812874Y-78009937D01*
X178863819Y-78086181D01*
X178868936Y-78089600D01*
X178934944Y-78133706D01*
X178934946Y-78133707D01*
X178940063Y-78137126D01*
X178984103Y-78145886D01*
X179004285Y-78149901D01*
X179004286Y-78149901D01*
X179007297Y-78150500D01*
X179850000Y-78150500D01*
X180692702Y-78150499D01*
X180695711Y-78149900D01*
X180695716Y-78149900D01*
X180753899Y-78138327D01*
X180759937Y-78137126D01*
X180836181Y-78086181D01*
X180887126Y-78009937D01*
X180900500Y-77942703D01*
X180900499Y-77357298D01*
X180899760Y-77353579D01*
X180888327Y-77296101D01*
X180887126Y-77290063D01*
X180836181Y-77213819D01*
X180819061Y-77202380D01*
X180765056Y-77166294D01*
X180765054Y-77166293D01*
X180759937Y-77162874D01*
X180715897Y-77154114D01*
X180695715Y-77150099D01*
X180695714Y-77150099D01*
X180692703Y-77149500D01*
X180689632Y-77149500D01*
X179850001Y-77149501D01*
X179007298Y-77149501D01*
X179004289Y-77150100D01*
X179004284Y-77150100D01*
X178946101Y-77161673D01*
X178940063Y-77162874D01*
X178863819Y-77213819D01*
X178812874Y-77290063D01*
X178812198Y-77289611D01*
X178782063Y-77319744D01*
X178758148Y-77324500D01*
X169066930Y-77324500D01*
X169061483Y-77324262D01*
X169026638Y-77321213D01*
X169026636Y-77321213D01*
X169021193Y-77320737D01*
X169015916Y-77322151D01*
X169015915Y-77322151D01*
X168982109Y-77331209D01*
X168976791Y-77332387D01*
X168936955Y-77339412D01*
X168932218Y-77342147D01*
X168932217Y-77342147D01*
X168931484Y-77342570D01*
X168916419Y-77348810D01*
X168915596Y-77349030D01*
X168915591Y-77349033D01*
X168910316Y-77350446D01*
X168877168Y-77373656D01*
X168872581Y-77376578D01*
X168837545Y-77396806D01*
X168834030Y-77400996D01*
X168834029Y-77400996D01*
X168811542Y-77427795D01*
X168807858Y-77431815D01*
X164381820Y-81857854D01*
X164377800Y-81861538D01*
X164346806Y-81887545D01*
X164344073Y-81892279D01*
X164326580Y-81922579D01*
X164323650Y-81927178D01*
X164316906Y-81936810D01*
X164300446Y-81960316D01*
X164299032Y-81965593D01*
X164299031Y-81965595D01*
X164298812Y-81966414D01*
X164292568Y-81981487D01*
X164292147Y-81982216D01*
X164292145Y-81982221D01*
X164289412Y-81986955D01*
X164287130Y-81999901D01*
X164282388Y-82026793D01*
X164281207Y-82032117D01*
X164276549Y-82049501D01*
X164270736Y-82071193D01*
X164271213Y-82076640D01*
X164274262Y-82111494D01*
X164274500Y-82116941D01*
X164274500Y-85558212D01*
X164274262Y-85563659D01*
X164270736Y-85603960D01*
X164272151Y-85609240D01*
X164272151Y-85609242D01*
X164281207Y-85643036D01*
X164282387Y-85648357D01*
X164289412Y-85688198D01*
X164292145Y-85692932D01*
X164292147Y-85692937D01*
X164292568Y-85693666D01*
X164298812Y-85708739D01*
X164300446Y-85714837D01*
X164303580Y-85719312D01*
X164303580Y-85719313D01*
X164323650Y-85747975D01*
X164326575Y-85752567D01*
X164346806Y-85787608D01*
X164350995Y-85791123D01*
X164377802Y-85813617D01*
X164381822Y-85817301D01*
X166532701Y-87968180D01*
X166536385Y-87972200D01*
X166562392Y-88003194D01*
X166597433Y-88023425D01*
X166602025Y-88026350D01*
X166623093Y-88041102D01*
X166635163Y-88049554D01*
X166638904Y-88050556D01*
X166670731Y-88085292D01*
X166674500Y-88106667D01*
X166674500Y-88406226D01*
X166675099Y-88409236D01*
X166675099Y-88409239D01*
X166683296Y-88450446D01*
X166687003Y-88469084D01*
X166690426Y-88474206D01*
X166691202Y-88476080D01*
X166691202Y-88523920D01*
X166690426Y-88525794D01*
X166687003Y-88530916D01*
X166674500Y-88593774D01*
X166674500Y-88906226D01*
X166675099Y-88909236D01*
X166675099Y-88909239D01*
X166685768Y-88962874D01*
X166687003Y-88969084D01*
X166690426Y-88974206D01*
X166691202Y-88976080D01*
X166691202Y-89023920D01*
X166690426Y-89025794D01*
X166687003Y-89030916D01*
X166685802Y-89036955D01*
X166685801Y-89036957D01*
X166675238Y-89090063D01*
X166674500Y-89093774D01*
X166674500Y-89175271D01*
X166656194Y-89219465D01*
X166612000Y-89237771D01*
X166567806Y-89219465D01*
X166557874Y-89206522D01*
X166555929Y-89203153D01*
X166555929Y-89203152D01*
X166553194Y-89198416D01*
X166522198Y-89172407D01*
X166518178Y-89168723D01*
X166018806Y-88669351D01*
X166000500Y-88625157D01*
X166000499Y-88105369D01*
X166000499Y-88102298D01*
X165999415Y-88096845D01*
X165988327Y-88041101D01*
X165987126Y-88035063D01*
X165936181Y-87958819D01*
X165892461Y-87929606D01*
X165865056Y-87911294D01*
X165865054Y-87911293D01*
X165859937Y-87907874D01*
X165815897Y-87899114D01*
X165795715Y-87895099D01*
X165795714Y-87895099D01*
X165792703Y-87894500D01*
X165789632Y-87894500D01*
X165300001Y-87894501D01*
X164807298Y-87894501D01*
X164804289Y-87895100D01*
X164804284Y-87895100D01*
X164746101Y-87906673D01*
X164740063Y-87907874D01*
X164663819Y-87958819D01*
X164660400Y-87963936D01*
X164616333Y-88029887D01*
X164612874Y-88035063D01*
X164599500Y-88102297D01*
X164599501Y-88287167D01*
X164599501Y-88324653D01*
X164581195Y-88368847D01*
X164537001Y-88387153D01*
X164492807Y-88368847D01*
X163693806Y-87569846D01*
X163675500Y-87525652D01*
X163675500Y-84275789D01*
X163693806Y-84231595D01*
X163702902Y-84224616D01*
X163702841Y-84224536D01*
X163825037Y-84130772D01*
X163828282Y-84128282D01*
X163924536Y-84002841D01*
X163927988Y-83994508D01*
X163983476Y-83860548D01*
X163983476Y-83860547D01*
X163985044Y-83856762D01*
X164005682Y-83700000D01*
X164004086Y-83687874D01*
X163985579Y-83547301D01*
X163985579Y-83547300D01*
X163985044Y-83543238D01*
X163982382Y-83536810D01*
X163926103Y-83400942D01*
X163924536Y-83397159D01*
X163828282Y-83271718D01*
X163702841Y-83175464D01*
X163625041Y-83143238D01*
X163560548Y-83116524D01*
X163560547Y-83116524D01*
X163556762Y-83114956D01*
X163552700Y-83114421D01*
X163552699Y-83114421D01*
X163404064Y-83094853D01*
X163400000Y-83094318D01*
X163395936Y-83094853D01*
X163247301Y-83114421D01*
X163247300Y-83114421D01*
X163243238Y-83114956D01*
X163239453Y-83116524D01*
X163239452Y-83116524D01*
X163174959Y-83143238D01*
X163097159Y-83175464D01*
X162971718Y-83271718D01*
X162875464Y-83397159D01*
X162873897Y-83400942D01*
X162817619Y-83536810D01*
X162814956Y-83543238D01*
X162814421Y-83547300D01*
X162814421Y-83547301D01*
X162795914Y-83687874D01*
X162794318Y-83700000D01*
X162814956Y-83856762D01*
X162816524Y-83860547D01*
X162816524Y-83860548D01*
X162872012Y-83994508D01*
X162875464Y-84002841D01*
X162877955Y-84006087D01*
X162877957Y-84006091D01*
X162911585Y-84049916D01*
X162924500Y-84087963D01*
X162924500Y-87660340D01*
X162923100Y-87673494D01*
X162919731Y-87689143D01*
X162920338Y-87694273D01*
X162920338Y-87694275D01*
X162924067Y-87725779D01*
X162924500Y-87733125D01*
X162924500Y-87738270D01*
X162926900Y-87752686D01*
X162927876Y-87758551D01*
X162928289Y-87761454D01*
X162934424Y-87813287D01*
X162936661Y-87817946D01*
X162937738Y-87821652D01*
X162938985Y-87825296D01*
X162939833Y-87830390D01*
X162942284Y-87834933D01*
X162942285Y-87834935D01*
X162964618Y-87876324D01*
X162965955Y-87878949D01*
X162988537Y-87925977D01*
X162991068Y-87928988D01*
X162991069Y-87928989D01*
X162991224Y-87929174D01*
X162991232Y-87929183D01*
X162992094Y-87930208D01*
X162992320Y-87930434D01*
X162994947Y-87933546D01*
X162996740Y-87935857D01*
X162999194Y-87940406D01*
X163002990Y-87943915D01*
X163039267Y-87977449D01*
X163041036Y-87979150D01*
X164288087Y-89226201D01*
X164306393Y-89270395D01*
X164288087Y-89314589D01*
X164273572Y-89325399D01*
X164265753Y-89329618D01*
X164263128Y-89330955D01*
X164216100Y-89353537D01*
X164213089Y-89356068D01*
X164213088Y-89356069D01*
X164212903Y-89356224D01*
X164212894Y-89356232D01*
X164211869Y-89357094D01*
X164211643Y-89357320D01*
X164208531Y-89359947D01*
X164206220Y-89361740D01*
X164201671Y-89364194D01*
X164198162Y-89367990D01*
X164164628Y-89404267D01*
X164162927Y-89406036D01*
X163067532Y-90501431D01*
X163057240Y-90509743D01*
X163048130Y-90515625D01*
X163048127Y-90515627D01*
X163043790Y-90518428D01*
X163025963Y-90541042D01*
X163020951Y-90547399D01*
X163016063Y-90552900D01*
X163012425Y-90556538D01*
X163010928Y-90558632D01*
X163010927Y-90558634D01*
X163000474Y-90573262D01*
X162998705Y-90575618D01*
X162966397Y-90616600D01*
X162964685Y-90621476D01*
X162962825Y-90624859D01*
X162961131Y-90628318D01*
X162958128Y-90632519D01*
X162956649Y-90637466D01*
X162956648Y-90637467D01*
X162943176Y-90682516D01*
X162942265Y-90685318D01*
X162926280Y-90730836D01*
X162926279Y-90730840D01*
X162924977Y-90734548D01*
X162924500Y-90740055D01*
X162924500Y-90740379D01*
X162924156Y-90744437D01*
X162923789Y-90747340D01*
X162922310Y-90752287D01*
X162922513Y-90757446D01*
X162924452Y-90806802D01*
X162924500Y-90809256D01*
X162924500Y-91212356D01*
X162906194Y-91256550D01*
X160356550Y-93806194D01*
X160312356Y-93824500D01*
X158813000Y-93824500D01*
X158768806Y-93806194D01*
X158750500Y-93762000D01*
X158750500Y-93716312D01*
X158748823Y-93707878D01*
X158739802Y-93662532D01*
X158736546Y-93646161D01*
X158729625Y-93635802D01*
X158686810Y-93571726D01*
X158683391Y-93566609D01*
X158647386Y-93542551D01*
X158608958Y-93516874D01*
X158608956Y-93516873D01*
X158603839Y-93513454D01*
X158571930Y-93507107D01*
X158536701Y-93500099D01*
X158536698Y-93500099D01*
X158533688Y-93499500D01*
X157766312Y-93499500D01*
X157763302Y-93500099D01*
X157763299Y-93500099D01*
X157728070Y-93507107D01*
X157696161Y-93513454D01*
X157691044Y-93516873D01*
X157691042Y-93516874D01*
X157652614Y-93542551D01*
X157616609Y-93566609D01*
X157613190Y-93571726D01*
X157570376Y-93635802D01*
X157563454Y-93646161D01*
X157560198Y-93662532D01*
X157551178Y-93707878D01*
X157549500Y-93716312D01*
X157549500Y-94683688D01*
X157150500Y-94683688D01*
X157150500Y-93716312D01*
X157148823Y-93707878D01*
X157139802Y-93662532D01*
X157136546Y-93646161D01*
X157129625Y-93635802D01*
X157086810Y-93571726D01*
X157083391Y-93566609D01*
X157047386Y-93542551D01*
X157008958Y-93516874D01*
X157008956Y-93516873D01*
X157003839Y-93513454D01*
X156971930Y-93507107D01*
X156936701Y-93500099D01*
X156936698Y-93500099D01*
X156933688Y-93499500D01*
X156166312Y-93499500D01*
X156163302Y-93500099D01*
X156163299Y-93500099D01*
X156128070Y-93507107D01*
X156096161Y-93513454D01*
X156091044Y-93516873D01*
X156091042Y-93516874D01*
X156052614Y-93542551D01*
X156016609Y-93566609D01*
X156013190Y-93571726D01*
X155970376Y-93635802D01*
X155963454Y-93646161D01*
X155960198Y-93662532D01*
X155951178Y-93707878D01*
X155949500Y-93716312D01*
X155949500Y-93874952D01*
X155931194Y-93919146D01*
X155918251Y-93929078D01*
X155887545Y-93946806D01*
X155884030Y-93950995D01*
X155861536Y-93977802D01*
X155857852Y-93981822D01*
X155381820Y-94457854D01*
X155377800Y-94461538D01*
X155346806Y-94487545D01*
X155332998Y-94511463D01*
X155326580Y-94522579D01*
X155323650Y-94527178D01*
X155315056Y-94539452D01*
X155300446Y-94560316D01*
X155299032Y-94565593D01*
X155299031Y-94565595D01*
X155298812Y-94566414D01*
X155292568Y-94581487D01*
X155292147Y-94582216D01*
X155292145Y-94582221D01*
X155289412Y-94586955D01*
X155288463Y-94592338D01*
X155282388Y-94626793D01*
X155281207Y-94632117D01*
X155279631Y-94638000D01*
X155270736Y-94671193D01*
X155273300Y-94700500D01*
X155274262Y-94711494D01*
X155274500Y-94716941D01*
X155274500Y-95283059D01*
X155274262Y-95288506D01*
X155270736Y-95328807D01*
X150577000Y-95328807D01*
X150577000Y-93297030D01*
X150595306Y-93252836D01*
X150639500Y-93234530D01*
X150652049Y-93237028D01*
X150652260Y-93235966D01*
X150722314Y-93249901D01*
X150722315Y-93249901D01*
X150725326Y-93250500D01*
X153474674Y-93250500D01*
X153477685Y-93249901D01*
X153477686Y-93249901D01*
X153508402Y-93243791D01*
X153547740Y-93235966D01*
X153630601Y-93180601D01*
X153685966Y-93097740D01*
X153700500Y-93024674D01*
X153700500Y-92075326D01*
X153685966Y-92002260D01*
X153630601Y-91919399D01*
X153547740Y-91864034D01*
X153482728Y-91851102D01*
X153477686Y-91850099D01*
X153477685Y-91850099D01*
X153474674Y-91849500D01*
X150725326Y-91849500D01*
X150722315Y-91850099D01*
X150722314Y-91850099D01*
X150652260Y-91864034D01*
X150651599Y-91860710D01*
X150615595Y-91860718D01*
X150581763Y-91826900D01*
X150577000Y-91802970D01*
X150577000Y-90407297D01*
X154399500Y-90407297D01*
X154399501Y-90992702D01*
X154400100Y-90995711D01*
X154400100Y-90995716D01*
X154411673Y-91053899D01*
X154412874Y-91059937D01*
X154463819Y-91136181D01*
X154468936Y-91139600D01*
X154534944Y-91183706D01*
X154534946Y-91183707D01*
X154540063Y-91187126D01*
X154584103Y-91195886D01*
X154604285Y-91199901D01*
X154604286Y-91199901D01*
X154607297Y-91200500D01*
X155450000Y-91200500D01*
X156292702Y-91200499D01*
X156295711Y-91199900D01*
X156295716Y-91199900D01*
X156353899Y-91188327D01*
X156359937Y-91187126D01*
X156436181Y-91136181D01*
X156487126Y-91059937D01*
X156487802Y-91060389D01*
X156517937Y-91030256D01*
X156541852Y-91025500D01*
X156639286Y-91025500D01*
X156683480Y-91043806D01*
X156857854Y-91218180D01*
X156861538Y-91222200D01*
X156884030Y-91249005D01*
X156887545Y-91253194D01*
X156922586Y-91273425D01*
X156927178Y-91276350D01*
X156960316Y-91299554D01*
X156965593Y-91300968D01*
X156965595Y-91300969D01*
X156966414Y-91301188D01*
X156981487Y-91307432D01*
X156982216Y-91307853D01*
X156982221Y-91307855D01*
X156986955Y-91310588D01*
X157026796Y-91317613D01*
X157032117Y-91318793D01*
X157065911Y-91327849D01*
X157065913Y-91327849D01*
X157071193Y-91329264D01*
X157111494Y-91325738D01*
X157116941Y-91325500D01*
X157137425Y-91325500D01*
X157181619Y-91343806D01*
X157199500Y-91381614D01*
X157199500Y-91383688D01*
X157213454Y-91453839D01*
X157266609Y-91533391D01*
X157271726Y-91536810D01*
X157341042Y-91583126D01*
X157341044Y-91583127D01*
X157346161Y-91586546D01*
X157378070Y-91592893D01*
X157413299Y-91599901D01*
X157413302Y-91599901D01*
X157416312Y-91600500D01*
X158383688Y-91600500D01*
X158386698Y-91599901D01*
X158386701Y-91599901D01*
X158421930Y-91592893D01*
X158453839Y-91586546D01*
X158458956Y-91583127D01*
X158458958Y-91583126D01*
X158528274Y-91536810D01*
X158533391Y-91533391D01*
X158586546Y-91453839D01*
X158589361Y-91455720D01*
X158614847Y-91430250D01*
X158638746Y-91425500D01*
X158883059Y-91425500D01*
X158888506Y-91425738D01*
X158928807Y-91429264D01*
X158934087Y-91427849D01*
X158934089Y-91427849D01*
X158967883Y-91418793D01*
X158973204Y-91417613D01*
X159013045Y-91410588D01*
X159017779Y-91407855D01*
X159017784Y-91407853D01*
X159018513Y-91407432D01*
X159033586Y-91401188D01*
X159034405Y-91400969D01*
X159034407Y-91400968D01*
X159039684Y-91399554D01*
X159058043Y-91386699D01*
X159072822Y-91376350D01*
X159077414Y-91373425D01*
X159112455Y-91353194D01*
X159136473Y-91324570D01*
X159178902Y-91302483D01*
X159224524Y-91316867D01*
X159236315Y-91330019D01*
X159263819Y-91371181D01*
X159268936Y-91374600D01*
X159334944Y-91418706D01*
X159334946Y-91418707D01*
X159340063Y-91422126D01*
X159380904Y-91430250D01*
X159404285Y-91434901D01*
X159404286Y-91434901D01*
X159407297Y-91435500D01*
X159900000Y-91435500D01*
X160392702Y-91435499D01*
X160395711Y-91434900D01*
X160395716Y-91434900D01*
X160453899Y-91423327D01*
X160459937Y-91422126D01*
X160536181Y-91371181D01*
X160563190Y-91330760D01*
X160583706Y-91300056D01*
X160583707Y-91300054D01*
X160587126Y-91294937D01*
X160600500Y-91227703D01*
X160600499Y-90642298D01*
X160599760Y-90638579D01*
X160588327Y-90581101D01*
X160587126Y-90575063D01*
X160536181Y-90498819D01*
X160504724Y-90477800D01*
X160465056Y-90451294D01*
X160465054Y-90451293D01*
X160459937Y-90447874D01*
X160415897Y-90439114D01*
X160395715Y-90435099D01*
X160395714Y-90435099D01*
X160392703Y-90434500D01*
X160389632Y-90434500D01*
X159900001Y-90434501D01*
X159407298Y-90434501D01*
X159404289Y-90435100D01*
X159404284Y-90435100D01*
X159346101Y-90446673D01*
X159340063Y-90447874D01*
X159263819Y-90498819D01*
X159212874Y-90575063D01*
X159212198Y-90574611D01*
X159182063Y-90604744D01*
X159158148Y-90609500D01*
X159081933Y-90609500D01*
X159076486Y-90609262D01*
X159041638Y-90606213D01*
X159041636Y-90606213D01*
X159036193Y-90605737D01*
X159030916Y-90607151D01*
X159030915Y-90607151D01*
X159022148Y-90609500D01*
X159007970Y-90613299D01*
X158997109Y-90616209D01*
X158991791Y-90617387D01*
X158951955Y-90624412D01*
X158947218Y-90627147D01*
X158947217Y-90627147D01*
X158946484Y-90627570D01*
X158931419Y-90633810D01*
X158930596Y-90634030D01*
X158930591Y-90634033D01*
X158925316Y-90635446D01*
X158892168Y-90658656D01*
X158887581Y-90661578D01*
X158852545Y-90681806D01*
X158849029Y-90685996D01*
X158826541Y-90712796D01*
X158822857Y-90716816D01*
X158783479Y-90756194D01*
X158739285Y-90774500D01*
X158663000Y-90774500D01*
X158618806Y-90756194D01*
X158600500Y-90712000D01*
X158600500Y-90616312D01*
X158599362Y-90610588D01*
X158591313Y-90570125D01*
X158586546Y-90546161D01*
X158570535Y-90522198D01*
X158536810Y-90471726D01*
X158533391Y-90466609D01*
X158499664Y-90444073D01*
X158458958Y-90416874D01*
X158458956Y-90416873D01*
X158453839Y-90413454D01*
X158417502Y-90406226D01*
X158386701Y-90400099D01*
X158386698Y-90400099D01*
X158383688Y-90399500D01*
X157416312Y-90399500D01*
X157413302Y-90400099D01*
X157413299Y-90400099D01*
X157382498Y-90406226D01*
X157346161Y-90413454D01*
X157341044Y-90416873D01*
X157341042Y-90416874D01*
X157300336Y-90444073D01*
X157266609Y-90466609D01*
X157213454Y-90546161D01*
X157210770Y-90544368D01*
X157185015Y-90570124D01*
X157137179Y-90570125D01*
X157116902Y-90556576D01*
X157042146Y-90481820D01*
X157038462Y-90477800D01*
X157015970Y-90450995D01*
X157012455Y-90446806D01*
X156977414Y-90426575D01*
X156972822Y-90423650D01*
X156944160Y-90403580D01*
X156944159Y-90403580D01*
X156939684Y-90400446D01*
X156934407Y-90399032D01*
X156934405Y-90399031D01*
X156933586Y-90398812D01*
X156918513Y-90392568D01*
X156917784Y-90392147D01*
X156917779Y-90392145D01*
X156913045Y-90389412D01*
X156873204Y-90382387D01*
X156867883Y-90381207D01*
X156834089Y-90372151D01*
X156834087Y-90372151D01*
X156828807Y-90370736D01*
X156790549Y-90374083D01*
X156788506Y-90374262D01*
X156783059Y-90374500D01*
X156541851Y-90374500D01*
X156497657Y-90356194D01*
X156487231Y-90340590D01*
X156487126Y-90340063D01*
X156436181Y-90263819D01*
X156419061Y-90252380D01*
X156365056Y-90216294D01*
X156365054Y-90216293D01*
X156359937Y-90212874D01*
X156315897Y-90204114D01*
X156295715Y-90200099D01*
X156295714Y-90200099D01*
X156292703Y-90199500D01*
X156289632Y-90199500D01*
X155450001Y-90199501D01*
X154607298Y-90199501D01*
X154604289Y-90200100D01*
X154604284Y-90200100D01*
X154546101Y-90211673D01*
X154540063Y-90212874D01*
X154463819Y-90263819D01*
X154412874Y-90340063D01*
X154411673Y-90346102D01*
X154401612Y-90396682D01*
X154399500Y-90407297D01*
X150577000Y-90407297D01*
X150577000Y-89157297D01*
X154399500Y-89157297D01*
X154399501Y-89742702D01*
X154400100Y-89745711D01*
X154400100Y-89745716D01*
X154407653Y-89783688D01*
X154412874Y-89809937D01*
X154463819Y-89886181D01*
X154468936Y-89889600D01*
X154534944Y-89933706D01*
X154534946Y-89933707D01*
X154540063Y-89937126D01*
X154584103Y-89945886D01*
X154604285Y-89949901D01*
X154604286Y-89949901D01*
X154607297Y-89950500D01*
X155450000Y-89950500D01*
X156292702Y-89950499D01*
X156295711Y-89949900D01*
X156295716Y-89949900D01*
X156353899Y-89938327D01*
X156359937Y-89937126D01*
X156436181Y-89886181D01*
X156458167Y-89853277D01*
X156497941Y-89826701D01*
X156510134Y-89825500D01*
X156883059Y-89825500D01*
X156888506Y-89825738D01*
X156928807Y-89829264D01*
X156934087Y-89827849D01*
X156934089Y-89827849D01*
X156967883Y-89818793D01*
X156973204Y-89817613D01*
X157013045Y-89810588D01*
X157017779Y-89807855D01*
X157017784Y-89807853D01*
X157018513Y-89807432D01*
X157033586Y-89801188D01*
X157034405Y-89800969D01*
X157034407Y-89800968D01*
X157039684Y-89799554D01*
X157058043Y-89786699D01*
X157072822Y-89776350D01*
X157077414Y-89773425D01*
X157109561Y-89754865D01*
X157156985Y-89748622D01*
X157194936Y-89777742D01*
X157202108Y-89796799D01*
X157213454Y-89853839D01*
X157216873Y-89858956D01*
X157216874Y-89858958D01*
X157253656Y-89914005D01*
X157266609Y-89933391D01*
X157282266Y-89943853D01*
X157341042Y-89983126D01*
X157341044Y-89983127D01*
X157346161Y-89986546D01*
X157373369Y-89991958D01*
X157413299Y-89999901D01*
X157413302Y-89999901D01*
X157416312Y-90000500D01*
X158383688Y-90000500D01*
X158386698Y-89999901D01*
X158386701Y-89999901D01*
X158426631Y-89991958D01*
X158453839Y-89986546D01*
X158458956Y-89983127D01*
X158458958Y-89983126D01*
X158517734Y-89943853D01*
X158533391Y-89933391D01*
X158546344Y-89914005D01*
X158583126Y-89858958D01*
X158583127Y-89858956D01*
X158586546Y-89853839D01*
X158600500Y-89783688D01*
X158600500Y-89781644D01*
X158622924Y-89739688D01*
X158662575Y-89725500D01*
X158739286Y-89725500D01*
X158783480Y-89743806D01*
X158922854Y-89883180D01*
X158926538Y-89887200D01*
X158946800Y-89911347D01*
X158952545Y-89918194D01*
X158987586Y-89938425D01*
X158992178Y-89941350D01*
X159025316Y-89964554D01*
X159030593Y-89965968D01*
X159030595Y-89965969D01*
X159031414Y-89966188D01*
X159046487Y-89972432D01*
X159047216Y-89972853D01*
X159047221Y-89972855D01*
X159051955Y-89975588D01*
X159091796Y-89982613D01*
X159097117Y-89983793D01*
X159130911Y-89992849D01*
X159130913Y-89992849D01*
X159136193Y-89994264D01*
X159151928Y-89992887D01*
X159153534Y-89992747D01*
X159199156Y-90007132D01*
X159212428Y-90025235D01*
X159212874Y-90024937D01*
X159263819Y-90101181D01*
X159268936Y-90104600D01*
X159334944Y-90148706D01*
X159334946Y-90148707D01*
X159340063Y-90152126D01*
X159384103Y-90160886D01*
X159404285Y-90164901D01*
X159404286Y-90164901D01*
X159407297Y-90165500D01*
X159900000Y-90165500D01*
X160392702Y-90165499D01*
X160395711Y-90164900D01*
X160395716Y-90164900D01*
X160453899Y-90153327D01*
X160459937Y-90152126D01*
X160536181Y-90101181D01*
X160587126Y-90024937D01*
X160598236Y-89969084D01*
X160599901Y-89960715D01*
X160599901Y-89960714D01*
X160600500Y-89957703D01*
X160600499Y-89372298D01*
X160599643Y-89367990D01*
X160588327Y-89311101D01*
X160587126Y-89305063D01*
X160536181Y-89228819D01*
X160505064Y-89208027D01*
X160465056Y-89181294D01*
X160465054Y-89181293D01*
X160459937Y-89177874D01*
X160413933Y-89168723D01*
X160395715Y-89165099D01*
X160395714Y-89165099D01*
X160392703Y-89164500D01*
X160389632Y-89164500D01*
X159900001Y-89164501D01*
X159407298Y-89164501D01*
X159404289Y-89165100D01*
X159404284Y-89165100D01*
X159357026Y-89174500D01*
X159340063Y-89177874D01*
X159263819Y-89228819D01*
X159262345Y-89226613D01*
X159227331Y-89241117D01*
X159183137Y-89222811D01*
X159142146Y-89181820D01*
X159138462Y-89177800D01*
X159115970Y-89150995D01*
X159112455Y-89146806D01*
X159077414Y-89126575D01*
X159072822Y-89123650D01*
X159044160Y-89103580D01*
X159044158Y-89103579D01*
X159039684Y-89100446D01*
X159034407Y-89099032D01*
X159034405Y-89099031D01*
X159033586Y-89098812D01*
X159018513Y-89092568D01*
X159017784Y-89092147D01*
X159017779Y-89092145D01*
X159013045Y-89089412D01*
X158973204Y-89082387D01*
X158967883Y-89081207D01*
X158934089Y-89072151D01*
X158934087Y-89072151D01*
X158928807Y-89070736D01*
X158890549Y-89074083D01*
X158888506Y-89074262D01*
X158883059Y-89074500D01*
X158662575Y-89074500D01*
X158618381Y-89056194D01*
X158600500Y-89018386D01*
X158600500Y-89016312D01*
X158586546Y-88946161D01*
X158582037Y-88939412D01*
X158536810Y-88871726D01*
X158533391Y-88866609D01*
X158517734Y-88856147D01*
X158458958Y-88816874D01*
X158458956Y-88816873D01*
X158453839Y-88813454D01*
X158406633Y-88804064D01*
X158386701Y-88800099D01*
X158386698Y-88800099D01*
X158383688Y-88799500D01*
X157416312Y-88799500D01*
X157413302Y-88800099D01*
X157413299Y-88800099D01*
X157393367Y-88804064D01*
X157346161Y-88813454D01*
X157341044Y-88816873D01*
X157341042Y-88816874D01*
X157282266Y-88856147D01*
X157266609Y-88866609D01*
X157263190Y-88871726D01*
X157217964Y-88939412D01*
X157213454Y-88946161D01*
X157199500Y-89016312D01*
X157199500Y-89018356D01*
X157177076Y-89060312D01*
X157137425Y-89074500D01*
X157016930Y-89074500D01*
X157011483Y-89074262D01*
X156976638Y-89071213D01*
X156976636Y-89071213D01*
X156971193Y-89070737D01*
X156965916Y-89072151D01*
X156965915Y-89072151D01*
X156932109Y-89081209D01*
X156926791Y-89082387D01*
X156886955Y-89089412D01*
X156882218Y-89092147D01*
X156882217Y-89092147D01*
X156881484Y-89092570D01*
X156866419Y-89098810D01*
X156865596Y-89099030D01*
X156865591Y-89099033D01*
X156860316Y-89100446D01*
X156827168Y-89123656D01*
X156822581Y-89126578D01*
X156787545Y-89146806D01*
X156784030Y-89150995D01*
X156783042Y-89152173D01*
X156781947Y-89152743D01*
X156779840Y-89154511D01*
X156779448Y-89154044D01*
X156740612Y-89174262D01*
X156735163Y-89174500D01*
X156555213Y-89174500D01*
X156511019Y-89156194D01*
X156493914Y-89124192D01*
X156493807Y-89123651D01*
X156487126Y-89090063D01*
X156436181Y-89013819D01*
X156415500Y-89000000D01*
X156365056Y-88966294D01*
X156365054Y-88966293D01*
X156359937Y-88962874D01*
X156308785Y-88952699D01*
X156295715Y-88950099D01*
X156295714Y-88950099D01*
X156292703Y-88949500D01*
X156289632Y-88949500D01*
X155450001Y-88949501D01*
X154607298Y-88949501D01*
X154604289Y-88950100D01*
X154604284Y-88950100D01*
X154551757Y-88960548D01*
X154540063Y-88962874D01*
X154463819Y-89013819D01*
X154460400Y-89018936D01*
X154417134Y-89083688D01*
X154412874Y-89090063D01*
X154410185Y-89103580D01*
X154400754Y-89150995D01*
X154399500Y-89157297D01*
X150577000Y-89157297D01*
X150577000Y-88347030D01*
X150595306Y-88302836D01*
X150639500Y-88284530D01*
X150652049Y-88287028D01*
X150652260Y-88285966D01*
X150722314Y-88299901D01*
X150722315Y-88299901D01*
X150725326Y-88300500D01*
X153474674Y-88300500D01*
X153477685Y-88299901D01*
X153477686Y-88299901D01*
X153499916Y-88295479D01*
X153547740Y-88285966D01*
X153630601Y-88230601D01*
X153685966Y-88147740D01*
X153695005Y-88102297D01*
X159199500Y-88102297D01*
X159199501Y-88687702D01*
X159200100Y-88690711D01*
X159200100Y-88690716D01*
X159207504Y-88727939D01*
X159212874Y-88754937D01*
X159263819Y-88831181D01*
X159268936Y-88834600D01*
X159334944Y-88878706D01*
X159334946Y-88878707D01*
X159340063Y-88882126D01*
X159384103Y-88890886D01*
X159404285Y-88894901D01*
X159404286Y-88894901D01*
X159407297Y-88895500D01*
X159900000Y-88895500D01*
X160392702Y-88895499D01*
X160395711Y-88894900D01*
X160395716Y-88894900D01*
X160453899Y-88883327D01*
X160459937Y-88882126D01*
X160536181Y-88831181D01*
X160555835Y-88801767D01*
X160583706Y-88760056D01*
X160583707Y-88760054D01*
X160587126Y-88754937D01*
X160600500Y-88687703D01*
X160600499Y-88102298D01*
X160599415Y-88096845D01*
X160588327Y-88041101D01*
X160587126Y-88035063D01*
X160536181Y-87958819D01*
X160492461Y-87929606D01*
X160465056Y-87911294D01*
X160465054Y-87911293D01*
X160459937Y-87907874D01*
X160415897Y-87899114D01*
X160395715Y-87895099D01*
X160395714Y-87895099D01*
X160392703Y-87894500D01*
X160389632Y-87894500D01*
X159900001Y-87894501D01*
X159407298Y-87894501D01*
X159404289Y-87895100D01*
X159404284Y-87895100D01*
X159346101Y-87906673D01*
X159340063Y-87907874D01*
X159263819Y-87958819D01*
X159260400Y-87963936D01*
X159216333Y-88029887D01*
X159212874Y-88035063D01*
X159199500Y-88102297D01*
X153695005Y-88102297D01*
X153700500Y-88074674D01*
X153700500Y-87125326D01*
X153696593Y-87105682D01*
X153687167Y-87058299D01*
X153685966Y-87052260D01*
X153630601Y-86969399D01*
X153547740Y-86914034D01*
X153499916Y-86904521D01*
X153477686Y-86900099D01*
X153477685Y-86900099D01*
X153474674Y-86899500D01*
X150725326Y-86899500D01*
X150722315Y-86900099D01*
X150722314Y-86900099D01*
X150652260Y-86914034D01*
X150651599Y-86910710D01*
X150615595Y-86910718D01*
X150581763Y-86876900D01*
X150577000Y-86852970D01*
X150577000Y-86350491D01*
X150595306Y-86306297D01*
X150639500Y-86287991D01*
X150674223Y-86298524D01*
X150730260Y-86335966D01*
X150762299Y-86342339D01*
X150800314Y-86349901D01*
X150800315Y-86349901D01*
X150803326Y-86350500D01*
X153552674Y-86350500D01*
X153555685Y-86349901D01*
X153555686Y-86349901D01*
X153593701Y-86342339D01*
X153625740Y-86335966D01*
X153708601Y-86280601D01*
X153763966Y-86197740D01*
X153778500Y-86124674D01*
X153778500Y-85175326D01*
X153763966Y-85102260D01*
X153708601Y-85019399D01*
X153625740Y-84964034D01*
X153566248Y-84952200D01*
X153555686Y-84950099D01*
X153555685Y-84950099D01*
X153552674Y-84949500D01*
X150803326Y-84949500D01*
X150800315Y-84950099D01*
X150800314Y-84950099D01*
X150789752Y-84952200D01*
X150730260Y-84964034D01*
X150680020Y-84997603D01*
X150674223Y-85001476D01*
X150627306Y-85010808D01*
X150587533Y-84984232D01*
X150577000Y-84949509D01*
X150577000Y-83507297D01*
X154477500Y-83507297D01*
X154477501Y-84092702D01*
X154478100Y-84095711D01*
X154478100Y-84095716D01*
X154488182Y-84146403D01*
X154490874Y-84159937D01*
X154541819Y-84236181D01*
X154546936Y-84239600D01*
X154612944Y-84283706D01*
X154612946Y-84283707D01*
X154618063Y-84287126D01*
X154662103Y-84295886D01*
X154682285Y-84299901D01*
X154682286Y-84299901D01*
X154685297Y-84300500D01*
X155471574Y-84300500D01*
X155515768Y-84318806D01*
X157929434Y-86732472D01*
X157937743Y-86742760D01*
X157946428Y-86756210D01*
X157950482Y-86759406D01*
X157950484Y-86759408D01*
X157975400Y-86779050D01*
X157980900Y-86783938D01*
X157984538Y-86787576D01*
X157986632Y-86789073D01*
X157986634Y-86789074D01*
X158001272Y-86799534D01*
X158003628Y-86801303D01*
X158040209Y-86830141D01*
X158044600Y-86833603D01*
X158049473Y-86835314D01*
X158052863Y-86837178D01*
X158056319Y-86838871D01*
X158060519Y-86841872D01*
X158065468Y-86843352D01*
X158110500Y-86856820D01*
X158113300Y-86857729D01*
X158158841Y-86873722D01*
X158158847Y-86873723D01*
X158162548Y-86875023D01*
X158166460Y-86875362D01*
X158166461Y-86875362D01*
X158166726Y-86875385D01*
X158166729Y-86875385D01*
X158168055Y-86875500D01*
X158168370Y-86875500D01*
X158172436Y-86875844D01*
X158175336Y-86876210D01*
X158180287Y-86877691D01*
X158234828Y-86875548D01*
X158237281Y-86875500D01*
X159600395Y-86875500D01*
X159644589Y-86893806D01*
X159649980Y-86899953D01*
X159669225Y-86925034D01*
X159669228Y-86925037D01*
X159671718Y-86928282D01*
X159797159Y-87024536D01*
X159800942Y-87026103D01*
X159939452Y-87083476D01*
X159939453Y-87083476D01*
X159943238Y-87085044D01*
X159947300Y-87085579D01*
X159947301Y-87085579D01*
X160095936Y-87105147D01*
X160100000Y-87105682D01*
X160104064Y-87105147D01*
X160252699Y-87085579D01*
X160252700Y-87085579D01*
X160256762Y-87085044D01*
X160260547Y-87083476D01*
X160260548Y-87083476D01*
X160399058Y-87026103D01*
X160402841Y-87024536D01*
X160528282Y-86928282D01*
X160624536Y-86802841D01*
X160627522Y-86795633D01*
X160683476Y-86660548D01*
X160683476Y-86660547D01*
X160685044Y-86656762D01*
X160693195Y-86594853D01*
X160705147Y-86504064D01*
X160705682Y-86500000D01*
X160689291Y-86375500D01*
X160685579Y-86347301D01*
X160685579Y-86347300D01*
X160685044Y-86343238D01*
X160682530Y-86337167D01*
X160626103Y-86200942D01*
X160624536Y-86197159D01*
X160528282Y-86071718D01*
X160402841Y-85975464D01*
X160399058Y-85973897D01*
X160260548Y-85916524D01*
X160260547Y-85916524D01*
X160256762Y-85914956D01*
X160252700Y-85914421D01*
X160252699Y-85914421D01*
X160104064Y-85894853D01*
X160100000Y-85894318D01*
X160095936Y-85894853D01*
X159947301Y-85914421D01*
X159947300Y-85914421D01*
X159943238Y-85914956D01*
X159939453Y-85916524D01*
X159939452Y-85916524D01*
X159800942Y-85973897D01*
X159797159Y-85975464D01*
X159671718Y-86071718D01*
X159669228Y-86074963D01*
X159669225Y-86074966D01*
X159649980Y-86100047D01*
X159608553Y-86123965D01*
X159600395Y-86124500D01*
X158409425Y-86124500D01*
X158365231Y-86106194D01*
X156542855Y-84283818D01*
X156524549Y-84239624D01*
X156535082Y-84204901D01*
X156561706Y-84165056D01*
X156561707Y-84165054D01*
X156565126Y-84159937D01*
X156578500Y-84092703D01*
X156578499Y-83507298D01*
X156569201Y-83460548D01*
X156566327Y-83446101D01*
X156565126Y-83440063D01*
X156514181Y-83363819D01*
X156471654Y-83335403D01*
X156443056Y-83316294D01*
X156443054Y-83316293D01*
X156437937Y-83312874D01*
X156393647Y-83304064D01*
X156373715Y-83300099D01*
X156373714Y-83300099D01*
X156370703Y-83299500D01*
X156367632Y-83299500D01*
X155528001Y-83299501D01*
X154685298Y-83299501D01*
X154682289Y-83300100D01*
X154682284Y-83300100D01*
X154624101Y-83311673D01*
X154618063Y-83312874D01*
X154541819Y-83363819D01*
X154490874Y-83440063D01*
X154477500Y-83507297D01*
X150577000Y-83507297D01*
X150577000Y-82257297D01*
X154477500Y-82257297D01*
X154477501Y-82842702D01*
X154478100Y-82845711D01*
X154478100Y-82845716D01*
X154489673Y-82903899D01*
X154490874Y-82909937D01*
X154541819Y-82986181D01*
X154546936Y-82989600D01*
X154612944Y-83033706D01*
X154612946Y-83033707D01*
X154618063Y-83037126D01*
X154662103Y-83045886D01*
X154682285Y-83049901D01*
X154682286Y-83049901D01*
X154685297Y-83050500D01*
X155528000Y-83050500D01*
X156370702Y-83050499D01*
X156373711Y-83049900D01*
X156373716Y-83049900D01*
X156431899Y-83038327D01*
X156437937Y-83037126D01*
X156514181Y-82986181D01*
X156565126Y-82909937D01*
X156565802Y-82910389D01*
X156595937Y-82880256D01*
X156619852Y-82875500D01*
X158689286Y-82875500D01*
X158733480Y-82893806D01*
X160956194Y-85116521D01*
X160974500Y-85160715D01*
X160974500Y-86788768D01*
X160958846Y-86830141D01*
X160887609Y-86910802D01*
X160877377Y-86922388D01*
X160816447Y-87052163D01*
X160794391Y-87193823D01*
X160794968Y-87198236D01*
X160794968Y-87198238D01*
X160795730Y-87204064D01*
X160812980Y-87335979D01*
X160814773Y-87340054D01*
X160868890Y-87463043D01*
X160870720Y-87467203D01*
X160873584Y-87470610D01*
X160960107Y-87573543D01*
X160960110Y-87573546D01*
X160962970Y-87576948D01*
X161082313Y-87656390D01*
X161099415Y-87661733D01*
X161214905Y-87697814D01*
X161214908Y-87697814D01*
X161219157Y-87699142D01*
X161223609Y-87699224D01*
X161223611Y-87699224D01*
X161294642Y-87700526D01*
X161362499Y-87701770D01*
X161500817Y-87664060D01*
X161602610Y-87601559D01*
X161619198Y-87591374D01*
X161622991Y-87589045D01*
X161665663Y-87541901D01*
X161708892Y-87521420D01*
X161753942Y-87537506D01*
X161774500Y-87583843D01*
X161774500Y-89056681D01*
X161774262Y-89062128D01*
X161770736Y-89102429D01*
X161772151Y-89107709D01*
X161772151Y-89107711D01*
X161781207Y-89141505D01*
X161782387Y-89146826D01*
X161789412Y-89186667D01*
X161792145Y-89191401D01*
X161792147Y-89191406D01*
X161792568Y-89192135D01*
X161798812Y-89207208D01*
X161798985Y-89207853D01*
X161800446Y-89213306D01*
X161803580Y-89217781D01*
X161803580Y-89217782D01*
X161811676Y-89229344D01*
X161822444Y-89273351D01*
X161809418Y-89372298D01*
X161807507Y-89386811D01*
X161808042Y-89390875D01*
X161822540Y-89500995D01*
X161828145Y-89543573D01*
X161829713Y-89547358D01*
X161829713Y-89547359D01*
X161887086Y-89685869D01*
X161888653Y-89689652D01*
X161984907Y-89815093D01*
X162110348Y-89911347D01*
X162114131Y-89912914D01*
X162252641Y-89970287D01*
X162252642Y-89970287D01*
X162256427Y-89971855D01*
X162260489Y-89972390D01*
X162260490Y-89972390D01*
X162409125Y-89991958D01*
X162413189Y-89992493D01*
X162417253Y-89991958D01*
X162565888Y-89972390D01*
X162565889Y-89972390D01*
X162569951Y-89971855D01*
X162573736Y-89970287D01*
X162573737Y-89970287D01*
X162712247Y-89912914D01*
X162716030Y-89911347D01*
X162841471Y-89815093D01*
X162937725Y-89689652D01*
X162939292Y-89685869D01*
X162996665Y-89547359D01*
X162996665Y-89547358D01*
X162998233Y-89543573D01*
X163003839Y-89500995D01*
X163018336Y-89390875D01*
X163018871Y-89386811D01*
X163012754Y-89340346D01*
X162998768Y-89234112D01*
X162998768Y-89234111D01*
X162998233Y-89230049D01*
X162996448Y-89225738D01*
X162939292Y-89087753D01*
X162937725Y-89083970D01*
X162841471Y-88958529D01*
X162716030Y-88862275D01*
X162628609Y-88826064D01*
X162573737Y-88803335D01*
X162573736Y-88803335D01*
X162569951Y-88801767D01*
X162565889Y-88801232D01*
X162565888Y-88801232D01*
X162479842Y-88789904D01*
X162438415Y-88765987D01*
X162425500Y-88727939D01*
X162425500Y-84933749D01*
X162425738Y-84928302D01*
X162428787Y-84893448D01*
X162429264Y-84888001D01*
X162418788Y-84848903D01*
X162417618Y-84843627D01*
X162410588Y-84803762D01*
X162407856Y-84799029D01*
X162407854Y-84799025D01*
X162407432Y-84798294D01*
X162401188Y-84783221D01*
X162400969Y-84782402D01*
X162400968Y-84782400D01*
X162399554Y-84777123D01*
X162376350Y-84743985D01*
X162373420Y-84739386D01*
X162355927Y-84709086D01*
X162353194Y-84704352D01*
X162322198Y-84678343D01*
X162318178Y-84674659D01*
X158725339Y-81081820D01*
X158721655Y-81077800D01*
X158699163Y-81050995D01*
X158695648Y-81046806D01*
X158660607Y-81026575D01*
X158656015Y-81023650D01*
X158627353Y-81003580D01*
X158627352Y-81003580D01*
X158622877Y-81000446D01*
X158617600Y-80999032D01*
X158617598Y-80999031D01*
X158616779Y-80998812D01*
X158601706Y-80992568D01*
X158600977Y-80992147D01*
X158600972Y-80992145D01*
X158596238Y-80989412D01*
X158556397Y-80982387D01*
X158551076Y-80981207D01*
X158517282Y-80972151D01*
X158517280Y-80972151D01*
X158512000Y-80970736D01*
X158473742Y-80974083D01*
X158471699Y-80974262D01*
X158466252Y-80974500D01*
X156619851Y-80974500D01*
X156575657Y-80956194D01*
X156565231Y-80940590D01*
X156565126Y-80940063D01*
X156514181Y-80863819D01*
X156478007Y-80839648D01*
X156443056Y-80816294D01*
X156443054Y-80816293D01*
X156437937Y-80812874D01*
X156393897Y-80804114D01*
X156373715Y-80800099D01*
X156373714Y-80800099D01*
X156370703Y-80799500D01*
X156367632Y-80799500D01*
X155528001Y-80799501D01*
X154685298Y-80799501D01*
X154682289Y-80800100D01*
X154682284Y-80800100D01*
X154624101Y-80811673D01*
X154618063Y-80812874D01*
X154541819Y-80863819D01*
X154490874Y-80940063D01*
X154489673Y-80946102D01*
X154479612Y-80996682D01*
X154477500Y-81007297D01*
X154477501Y-81592702D01*
X154478100Y-81595711D01*
X154478100Y-81595716D01*
X154488700Y-81649005D01*
X154490874Y-81659937D01*
X154541819Y-81736181D01*
X154546936Y-81739600D01*
X154612944Y-81783706D01*
X154612946Y-81783707D01*
X154618063Y-81787126D01*
X154662103Y-81795886D01*
X154682285Y-81799901D01*
X154682286Y-81799901D01*
X154685297Y-81800500D01*
X155528000Y-81800500D01*
X156370702Y-81800499D01*
X156373711Y-81799900D01*
X156373716Y-81799900D01*
X156431899Y-81788327D01*
X156437937Y-81787126D01*
X156514181Y-81736181D01*
X156565126Y-81659937D01*
X156565802Y-81660389D01*
X156595937Y-81630256D01*
X156619852Y-81625500D01*
X158322479Y-81625500D01*
X158366673Y-81643806D01*
X158840673Y-82117806D01*
X158858979Y-82162000D01*
X158840673Y-82206194D01*
X158796479Y-82224500D01*
X156619851Y-82224500D01*
X156575657Y-82206194D01*
X156565231Y-82190590D01*
X156565126Y-82190063D01*
X156514181Y-82113819D01*
X156497061Y-82102380D01*
X156443056Y-82066294D01*
X156443054Y-82066293D01*
X156437937Y-82062874D01*
X156393897Y-82054114D01*
X156373715Y-82050099D01*
X156373714Y-82050099D01*
X156370703Y-82049500D01*
X156367632Y-82049500D01*
X155528001Y-82049501D01*
X154685298Y-82049501D01*
X154682289Y-82050100D01*
X154682284Y-82050100D01*
X154624101Y-82061673D01*
X154618063Y-82062874D01*
X154541819Y-82113819D01*
X154490874Y-82190063D01*
X154477500Y-82257297D01*
X150577000Y-82257297D01*
X150577000Y-78900491D01*
X150595306Y-78856297D01*
X150639500Y-78837991D01*
X150674223Y-78848524D01*
X150730260Y-78885966D01*
X150778084Y-78895479D01*
X150800314Y-78899901D01*
X150800315Y-78899901D01*
X150803326Y-78900500D01*
X153552674Y-78900500D01*
X153555685Y-78899901D01*
X153555686Y-78899901D01*
X153577916Y-78895479D01*
X153625740Y-78885966D01*
X153708601Y-78830601D01*
X153763966Y-78747740D01*
X153778500Y-78674674D01*
X153778500Y-77725326D01*
X153763966Y-77652260D01*
X153708601Y-77569399D01*
X153625740Y-77514034D01*
X153577916Y-77504521D01*
X153555686Y-77500099D01*
X153555685Y-77500099D01*
X153552674Y-77499500D01*
X150803326Y-77499500D01*
X150800315Y-77500099D01*
X150800314Y-77500099D01*
X150778084Y-77504521D01*
X150730260Y-77514034D01*
X150700031Y-77534232D01*
X150674223Y-77551476D01*
X150627306Y-77560808D01*
X150587533Y-77534232D01*
X150577000Y-77499509D01*
X150577000Y-72502603D01*
X150886378Y-72502603D01*
X150905244Y-72790442D01*
X150961519Y-73073356D01*
X151054241Y-73346505D01*
X151181822Y-73605214D01*
X151182950Y-73606903D01*
X151182954Y-73606909D01*
X151340945Y-73843359D01*
X151342080Y-73845057D01*
X151532273Y-74061930D01*
X151749146Y-74252123D01*
X151750840Y-74253255D01*
X151750844Y-74253258D01*
X151987294Y-74411249D01*
X151987300Y-74411253D01*
X151988989Y-74412381D01*
X152247698Y-74539962D01*
X152249629Y-74540617D01*
X152249635Y-74540620D01*
X152518914Y-74632028D01*
X152520847Y-74632684D01*
X152803761Y-74688959D01*
X152805795Y-74689092D01*
X152805800Y-74689093D01*
X153089556Y-74707691D01*
X153091600Y-74707825D01*
X153093644Y-74707691D01*
X153377400Y-74689093D01*
X153377405Y-74689092D01*
X153379439Y-74688959D01*
X153662353Y-74632684D01*
X153664286Y-74632028D01*
X153933565Y-74540620D01*
X153933571Y-74540617D01*
X153935502Y-74539962D01*
X154194211Y-74412381D01*
X154195900Y-74411253D01*
X154195906Y-74411249D01*
X154432356Y-74253258D01*
X154432360Y-74253255D01*
X154434054Y-74252123D01*
X154650927Y-74061930D01*
X154841120Y-73845057D01*
X154842255Y-73843359D01*
X155000246Y-73606909D01*
X155000250Y-73606903D01*
X155001378Y-73605214D01*
X155128959Y-73346505D01*
X155221681Y-73073356D01*
X155277956Y-72790442D01*
X155296822Y-72502603D01*
X180186378Y-72502603D01*
X180205244Y-72790442D01*
X180261519Y-73073356D01*
X180354241Y-73346505D01*
X180481822Y-73605214D01*
X180482950Y-73606903D01*
X180482954Y-73606909D01*
X180640945Y-73843359D01*
X180642080Y-73845057D01*
X180832273Y-74061930D01*
X181049146Y-74252123D01*
X181050840Y-74253255D01*
X181050844Y-74253258D01*
X181287294Y-74411249D01*
X181287300Y-74411253D01*
X181288989Y-74412381D01*
X181547698Y-74539962D01*
X181549629Y-74540617D01*
X181549635Y-74540620D01*
X181818914Y-74632028D01*
X181820847Y-74632684D01*
X182103761Y-74688959D01*
X182105795Y-74689092D01*
X182105800Y-74689093D01*
X182389556Y-74707691D01*
X182391600Y-74707825D01*
X182393644Y-74707691D01*
X182677400Y-74689093D01*
X182677405Y-74689092D01*
X182679439Y-74688959D01*
X182962353Y-74632684D01*
X182964286Y-74632028D01*
X183233565Y-74540620D01*
X183233571Y-74540617D01*
X183235502Y-74539962D01*
X183494211Y-74412381D01*
X183495900Y-74411253D01*
X183495906Y-74411249D01*
X183732356Y-74253258D01*
X183732360Y-74253255D01*
X183734054Y-74252123D01*
X183950927Y-74061930D01*
X184141120Y-73845057D01*
X184142255Y-73843359D01*
X184300246Y-73606909D01*
X184300250Y-73606903D01*
X184301378Y-73605214D01*
X184428959Y-73346505D01*
X184521681Y-73073356D01*
X184577956Y-72790442D01*
X184596822Y-72502603D01*
X184581206Y-72264344D01*
X184578090Y-72216803D01*
X184578089Y-72216798D01*
X184577956Y-72214764D01*
X184521681Y-71931850D01*
X184521025Y-71929917D01*
X184429617Y-71660638D01*
X184429614Y-71660632D01*
X184428959Y-71658701D01*
X184301378Y-71399992D01*
X184300250Y-71398303D01*
X184300246Y-71398297D01*
X184142255Y-71161847D01*
X184142252Y-71161843D01*
X184141120Y-71160149D01*
X183950927Y-70943276D01*
X183734054Y-70753083D01*
X183732360Y-70751951D01*
X183732356Y-70751948D01*
X183495906Y-70593957D01*
X183495900Y-70593953D01*
X183494211Y-70592825D01*
X183235502Y-70465244D01*
X183233571Y-70464589D01*
X183233565Y-70464586D01*
X182964286Y-70373178D01*
X182964284Y-70373177D01*
X182962353Y-70372522D01*
X182679439Y-70316247D01*
X182677405Y-70316114D01*
X182677400Y-70316113D01*
X182393644Y-70297515D01*
X182391600Y-70297381D01*
X182389556Y-70297515D01*
X182105800Y-70316113D01*
X182105795Y-70316114D01*
X182103761Y-70316247D01*
X181820847Y-70372522D01*
X181818916Y-70373177D01*
X181818914Y-70373178D01*
X181549635Y-70464586D01*
X181549629Y-70464589D01*
X181547698Y-70465244D01*
X181288989Y-70592825D01*
X181287300Y-70593953D01*
X181287294Y-70593957D01*
X181050844Y-70751948D01*
X181050840Y-70751951D01*
X181049146Y-70753083D01*
X180832273Y-70943276D01*
X180642080Y-71160149D01*
X180640948Y-71161843D01*
X180640945Y-71161847D01*
X180482954Y-71398297D01*
X180482950Y-71398303D01*
X180481822Y-71399992D01*
X180354241Y-71658701D01*
X180353586Y-71660632D01*
X180353583Y-71660638D01*
X180262175Y-71929917D01*
X180261519Y-71931850D01*
X180205244Y-72214764D01*
X180205111Y-72216798D01*
X180205110Y-72216803D01*
X180201994Y-72264344D01*
X180186378Y-72502603D01*
X155296822Y-72502603D01*
X155281206Y-72264344D01*
X155278090Y-72216803D01*
X155278089Y-72216798D01*
X155277956Y-72214764D01*
X155221681Y-71931850D01*
X155221025Y-71929917D01*
X155129617Y-71660638D01*
X155129614Y-71660632D01*
X155128959Y-71658701D01*
X155001378Y-71399992D01*
X155000250Y-71398303D01*
X155000246Y-71398297D01*
X154842255Y-71161847D01*
X154842252Y-71161843D01*
X154841120Y-71160149D01*
X154650927Y-70943276D01*
X154434054Y-70753083D01*
X154432360Y-70751951D01*
X154432356Y-70751948D01*
X154195906Y-70593957D01*
X154195900Y-70593953D01*
X154194211Y-70592825D01*
X153935502Y-70465244D01*
X153933571Y-70464589D01*
X153933565Y-70464586D01*
X153664286Y-70373178D01*
X153664284Y-70373177D01*
X153662353Y-70372522D01*
X153379439Y-70316247D01*
X153377405Y-70316114D01*
X153377400Y-70316113D01*
X153093644Y-70297515D01*
X153091600Y-70297381D01*
X153089556Y-70297515D01*
X152805800Y-70316113D01*
X152805795Y-70316114D01*
X152803761Y-70316247D01*
X152520847Y-70372522D01*
X152518916Y-70373177D01*
X152518914Y-70373178D01*
X152249635Y-70464586D01*
X152249629Y-70464589D01*
X152247698Y-70465244D01*
X151988989Y-70592825D01*
X151987300Y-70593953D01*
X151987294Y-70593957D01*
X151750844Y-70751948D01*
X151750840Y-70751951D01*
X151749146Y-70753083D01*
X151532273Y-70943276D01*
X151342080Y-71160149D01*
X151340948Y-71161843D01*
X151340945Y-71161847D01*
X151182954Y-71398297D01*
X151182950Y-71398303D01*
X151181822Y-71399992D01*
X151054241Y-71658701D01*
X151053586Y-71660632D01*
X151053583Y-71660638D01*
X150962175Y-71929917D01*
X150961519Y-71931850D01*
X150905244Y-72214764D01*
X150905111Y-72216798D01*
X150905110Y-72216803D01*
X150901994Y-72264344D01*
X150886378Y-72502603D01*
X150577000Y-72502603D01*
X150577000Y-71883347D01*
X150579128Y-71867176D01*
X150581480Y-71858400D01*
X150579350Y-71850452D01*
X150579350Y-71842738D01*
X150578555Y-71834667D01*
X150593029Y-71613835D01*
X150594096Y-71605730D01*
X150641112Y-71369367D01*
X150643228Y-71361470D01*
X150720691Y-71133270D01*
X150723819Y-71125717D01*
X150830410Y-70909571D01*
X150834498Y-70902491D01*
X150968386Y-70702114D01*
X150973363Y-70695628D01*
X151132260Y-70514440D01*
X151138041Y-70508659D01*
X151319229Y-70349761D01*
X151325715Y-70344784D01*
X151367826Y-70316646D01*
X151526093Y-70210895D01*
X151533171Y-70206808D01*
X151749317Y-70100217D01*
X151756870Y-70097089D01*
X151985070Y-70019625D01*
X151992967Y-70017509D01*
X152229330Y-69970494D01*
X152237434Y-69969427D01*
X152371488Y-69960641D01*
X152458269Y-69954953D01*
X152466342Y-69955748D01*
X152474052Y-69955748D01*
X152482000Y-69957877D01*
X152490006Y-69955732D01*
X152490760Y-69955530D01*
X152506936Y-69953400D01*
X182556064Y-69953400D01*
X182572240Y-69955530D01*
G37*
%TD.AperFunction*%
%TA.AperFunction,Conductor*%
G36*
X173498680Y-88396622D02*
G01*
X173513691Y-88421116D01*
X173514354Y-88425304D01*
X173516585Y-88429682D01*
X173516585Y-88429683D01*
X173533583Y-88463043D01*
X173571950Y-88538342D01*
X173661658Y-88628050D01*
X173774696Y-88685646D01*
X173900000Y-88705492D01*
X173904855Y-88704723D01*
X173920817Y-88702195D01*
X174025304Y-88685646D01*
X174025580Y-88687389D01*
X174066724Y-88690630D01*
X174097789Y-88727006D01*
X174100312Y-88754472D01*
X174094318Y-88800000D01*
X174094853Y-88804064D01*
X174108700Y-88909239D01*
X174114956Y-88956762D01*
X174116524Y-88960547D01*
X174116524Y-88960548D01*
X174170171Y-89090063D01*
X174175464Y-89102841D01*
X174271718Y-89228282D01*
X174274963Y-89230772D01*
X174394955Y-89322845D01*
X174418872Y-89364272D01*
X174406492Y-89410478D01*
X174367760Y-89433981D01*
X174336955Y-89439412D01*
X174332221Y-89442145D01*
X174332216Y-89442147D01*
X174331487Y-89442568D01*
X174316414Y-89448812D01*
X174315595Y-89449031D01*
X174315593Y-89449032D01*
X174310316Y-89450446D01*
X174305841Y-89453580D01*
X174305840Y-89453580D01*
X174277178Y-89473650D01*
X174272586Y-89476575D01*
X174237545Y-89496806D01*
X174234030Y-89500995D01*
X174211536Y-89527802D01*
X174207852Y-89531822D01*
X173281820Y-90457854D01*
X173277800Y-90461538D01*
X173246806Y-90487545D01*
X173226799Y-90522200D01*
X173226580Y-90522579D01*
X173223650Y-90527178D01*
X173200446Y-90560316D01*
X173199032Y-90565593D01*
X173199031Y-90565595D01*
X173198812Y-90566414D01*
X173192568Y-90581487D01*
X173192147Y-90582216D01*
X173192145Y-90582221D01*
X173189412Y-90586955D01*
X173183695Y-90619383D01*
X173182388Y-90626793D01*
X173181207Y-90632117D01*
X173179287Y-90639284D01*
X173170736Y-90671193D01*
X173171665Y-90681806D01*
X173174262Y-90711494D01*
X173174500Y-90716941D01*
X173174500Y-92041648D01*
X173167688Y-92070022D01*
X173151807Y-92101190D01*
X173130723Y-92142571D01*
X173114354Y-92174696D01*
X173094508Y-92300000D01*
X173114354Y-92425304D01*
X173171950Y-92538342D01*
X173261658Y-92628050D01*
X173374696Y-92685646D01*
X173500000Y-92705492D01*
X173625304Y-92685646D01*
X173738342Y-92628050D01*
X173828050Y-92538342D01*
X173885646Y-92425304D01*
X173905492Y-92300000D01*
X173885646Y-92174696D01*
X173869278Y-92142571D01*
X173848193Y-92101190D01*
X173832312Y-92070022D01*
X173825500Y-92041648D01*
X173825500Y-90860714D01*
X173843806Y-90816520D01*
X174566520Y-90093806D01*
X174610714Y-90075500D01*
X175112000Y-90075500D01*
X175156194Y-90093806D01*
X175174500Y-90138000D01*
X175174500Y-90406226D01*
X175175099Y-90409236D01*
X175175099Y-90409239D01*
X175180124Y-90434500D01*
X175187003Y-90469084D01*
X175190423Y-90474203D01*
X175191202Y-90476083D01*
X175191202Y-90523917D01*
X175190423Y-90525797D01*
X175187003Y-90530916D01*
X175185802Y-90536955D01*
X175178549Y-90573420D01*
X175174500Y-90593774D01*
X175174500Y-90906226D01*
X175175099Y-90909236D01*
X175175099Y-90909239D01*
X175178135Y-90924500D01*
X175187003Y-90969084D01*
X175190423Y-90974203D01*
X175191202Y-90976083D01*
X175191202Y-91023917D01*
X175190423Y-91025797D01*
X175187003Y-91030916D01*
X175174500Y-91093774D01*
X175174500Y-91268260D01*
X175156194Y-91312454D01*
X175112000Y-91330760D01*
X175067806Y-91312454D01*
X175062416Y-91306308D01*
X175044844Y-91283408D01*
X175044840Y-91283404D01*
X175042350Y-91280159D01*
X174916909Y-91183905D01*
X174866660Y-91163091D01*
X174774616Y-91124965D01*
X174774615Y-91124965D01*
X174770830Y-91123397D01*
X174766768Y-91122862D01*
X174766767Y-91122862D01*
X174618132Y-91103294D01*
X174614068Y-91102759D01*
X174610004Y-91103294D01*
X174461369Y-91122862D01*
X174461368Y-91122862D01*
X174457306Y-91123397D01*
X174453521Y-91124965D01*
X174453520Y-91124965D01*
X174361476Y-91163091D01*
X174311227Y-91183905D01*
X174185786Y-91280159D01*
X174089532Y-91405600D01*
X174087965Y-91409383D01*
X174038719Y-91528274D01*
X174029024Y-91551679D01*
X174028489Y-91555741D01*
X174028489Y-91555742D01*
X174023879Y-91590761D01*
X174008386Y-91708441D01*
X174008921Y-91712505D01*
X174028434Y-91860718D01*
X174029024Y-91865203D01*
X174030592Y-91868988D01*
X174030592Y-91868989D01*
X174084859Y-92000000D01*
X174089532Y-92011282D01*
X174152830Y-92093774D01*
X174179697Y-92128787D01*
X174185786Y-92136723D01*
X174309856Y-92231925D01*
X174311227Y-92232977D01*
X174311135Y-92233097D01*
X174328753Y-92249240D01*
X174337718Y-92262043D01*
X174340643Y-92266635D01*
X174360874Y-92301676D01*
X174365063Y-92305191D01*
X174391870Y-92327685D01*
X174395890Y-92331369D01*
X175032701Y-92968180D01*
X175036385Y-92972200D01*
X175062392Y-93003194D01*
X175097433Y-93023425D01*
X175102025Y-93026350D01*
X175126926Y-93043786D01*
X175135163Y-93049554D01*
X175140440Y-93050968D01*
X175140442Y-93050969D01*
X175141261Y-93051188D01*
X175156334Y-93057432D01*
X175157063Y-93057853D01*
X175157068Y-93057855D01*
X175161802Y-93060588D01*
X175201643Y-93067613D01*
X175206964Y-93068793D01*
X175240758Y-93077849D01*
X175240760Y-93077849D01*
X175246040Y-93079264D01*
X175257203Y-93078287D01*
X175265532Y-93077559D01*
X175294029Y-93084831D01*
X175295110Y-93082221D01*
X175300797Y-93084576D01*
X175305916Y-93087997D01*
X175324538Y-93091701D01*
X175365761Y-93099901D01*
X175365764Y-93099901D01*
X175368774Y-93100500D01*
X175588447Y-93100500D01*
X175615858Y-93107538D01*
X175616600Y-93108123D01*
X175621472Y-93109834D01*
X175621474Y-93109835D01*
X175692924Y-93134926D01*
X175734548Y-93149543D01*
X175740055Y-93150020D01*
X175993095Y-93150020D01*
X176037289Y-93168326D01*
X176061769Y-93192806D01*
X176080075Y-93237000D01*
X176061769Y-93281194D01*
X176017575Y-93299500D01*
X175566312Y-93299500D01*
X175563302Y-93300099D01*
X175563299Y-93300099D01*
X175528070Y-93307107D01*
X175496161Y-93313454D01*
X175491044Y-93316873D01*
X175491042Y-93316874D01*
X175432266Y-93356147D01*
X175416609Y-93366609D01*
X175363454Y-93446161D01*
X175349500Y-93516312D01*
X175349500Y-94443575D01*
X175331194Y-94487769D01*
X174806714Y-95012249D01*
X174762520Y-95030555D01*
X174718326Y-95012249D01*
X174700020Y-94968055D01*
X174700020Y-94194287D01*
X174684687Y-94102167D01*
X174657995Y-94052698D01*
X174650500Y-94023022D01*
X174650500Y-93818774D01*
X174637997Y-93755916D01*
X174632107Y-93747100D01*
X174593786Y-93689750D01*
X174590367Y-93684633D01*
X174541828Y-93652200D01*
X174524203Y-93640423D01*
X174524201Y-93640422D01*
X174519084Y-93637003D01*
X174491430Y-93631502D01*
X174459239Y-93625099D01*
X174459236Y-93625099D01*
X174456226Y-93624500D01*
X174143774Y-93624500D01*
X174140764Y-93625099D01*
X174140761Y-93625099D01*
X174108570Y-93631502D01*
X174080916Y-93637003D01*
X174075799Y-93640422D01*
X174075797Y-93640423D01*
X174058172Y-93652200D01*
X174009633Y-93684633D01*
X174006214Y-93689750D01*
X173967894Y-93747100D01*
X173962003Y-93755916D01*
X173949500Y-93818774D01*
X173949500Y-94157290D01*
X173949267Y-94162683D01*
X173949020Y-94165535D01*
X173949020Y-95211546D01*
X173930714Y-95255740D01*
X173922134Y-95262782D01*
X173921726Y-95263190D01*
X173916609Y-95266609D01*
X173913190Y-95271726D01*
X173874065Y-95330281D01*
X173863454Y-95346161D01*
X173862253Y-95352200D01*
X173851221Y-95407662D01*
X173849500Y-95416312D01*
X173849500Y-95512000D01*
X173831194Y-95556194D01*
X173787000Y-95574500D01*
X169210714Y-95574500D01*
X169166520Y-95556194D01*
X168591749Y-94981423D01*
X168573443Y-94937229D01*
X168591749Y-94893035D01*
X168635943Y-94874729D01*
X168641196Y-94874987D01*
X168643774Y-94875500D01*
X168956226Y-94875500D01*
X168959236Y-94874901D01*
X168959239Y-94874901D01*
X169013043Y-94864199D01*
X169013045Y-94864198D01*
X169019084Y-94862997D01*
X169024206Y-94859574D01*
X169026080Y-94858798D01*
X169073920Y-94858798D01*
X169075794Y-94859574D01*
X169080916Y-94862997D01*
X169086955Y-94864198D01*
X169086957Y-94864199D01*
X169140761Y-94874901D01*
X169140764Y-94874901D01*
X169143774Y-94875500D01*
X169456226Y-94875500D01*
X169459236Y-94874901D01*
X169459239Y-94874901D01*
X169513043Y-94864199D01*
X169513045Y-94864198D01*
X169519084Y-94862997D01*
X169524206Y-94859574D01*
X169526080Y-94858798D01*
X169573920Y-94858798D01*
X169575794Y-94859574D01*
X169580916Y-94862997D01*
X169586955Y-94864198D01*
X169586957Y-94864199D01*
X169640761Y-94874901D01*
X169640764Y-94874901D01*
X169643774Y-94875500D01*
X169956226Y-94875500D01*
X169959236Y-94874901D01*
X169959239Y-94874901D01*
X170013043Y-94864199D01*
X170013045Y-94864198D01*
X170019084Y-94862997D01*
X170024206Y-94859574D01*
X170026080Y-94858798D01*
X170073920Y-94858798D01*
X170075794Y-94859574D01*
X170080916Y-94862997D01*
X170086955Y-94864198D01*
X170086957Y-94864199D01*
X170140761Y-94874901D01*
X170140764Y-94874901D01*
X170143774Y-94875500D01*
X170456226Y-94875500D01*
X170459236Y-94874901D01*
X170459239Y-94874901D01*
X170513043Y-94864199D01*
X170513045Y-94864198D01*
X170519084Y-94862997D01*
X170524206Y-94859574D01*
X170526080Y-94858798D01*
X170573920Y-94858798D01*
X170575794Y-94859574D01*
X170580916Y-94862997D01*
X170586955Y-94864198D01*
X170586957Y-94864199D01*
X170640761Y-94874901D01*
X170640764Y-94874901D01*
X170643774Y-94875500D01*
X170956226Y-94875500D01*
X170959236Y-94874901D01*
X170959239Y-94874901D01*
X171013043Y-94864199D01*
X171013045Y-94864198D01*
X171019084Y-94862997D01*
X171024206Y-94859574D01*
X171026080Y-94858798D01*
X171073920Y-94858798D01*
X171075794Y-94859574D01*
X171080916Y-94862997D01*
X171086955Y-94864198D01*
X171086957Y-94864199D01*
X171140761Y-94874901D01*
X171140764Y-94874901D01*
X171143774Y-94875500D01*
X171456226Y-94875500D01*
X171459236Y-94874901D01*
X171459239Y-94874901D01*
X171513043Y-94864199D01*
X171513045Y-94864198D01*
X171519084Y-94862997D01*
X171524206Y-94859574D01*
X171526080Y-94858798D01*
X171573920Y-94858798D01*
X171575794Y-94859574D01*
X171580916Y-94862997D01*
X171586955Y-94864198D01*
X171586957Y-94864199D01*
X171640761Y-94874901D01*
X171640764Y-94874901D01*
X171643774Y-94875500D01*
X171841048Y-94875500D01*
X171885242Y-94893806D01*
X171903548Y-94938000D01*
X171902779Y-94947777D01*
X171897693Y-94979892D01*
X171894508Y-95000000D01*
X171914354Y-95125304D01*
X171971950Y-95238342D01*
X172061658Y-95328050D01*
X172174696Y-95385646D01*
X172300000Y-95405492D01*
X172425304Y-95385646D01*
X172538342Y-95328050D01*
X172628050Y-95238342D01*
X172685646Y-95125304D01*
X172705492Y-95000000D01*
X172702307Y-94979892D01*
X172697221Y-94947777D01*
X172708389Y-94901263D01*
X172749175Y-94876269D01*
X172758952Y-94875500D01*
X172956226Y-94875500D01*
X172959236Y-94874901D01*
X172959239Y-94874901D01*
X173013043Y-94864199D01*
X173013045Y-94864198D01*
X173019084Y-94862997D01*
X173024206Y-94859574D01*
X173026080Y-94858798D01*
X173073920Y-94858798D01*
X173075794Y-94859574D01*
X173080916Y-94862997D01*
X173086955Y-94864198D01*
X173086957Y-94864199D01*
X173140761Y-94874901D01*
X173140764Y-94874901D01*
X173143774Y-94875500D01*
X173456226Y-94875500D01*
X173459236Y-94874901D01*
X173459239Y-94874901D01*
X173491430Y-94868498D01*
X173519084Y-94862997D01*
X173524201Y-94859578D01*
X173524203Y-94859577D01*
X173585250Y-94818786D01*
X173590367Y-94815367D01*
X173600689Y-94799920D01*
X173634577Y-94749203D01*
X173634578Y-94749201D01*
X173637997Y-94744084D01*
X173650500Y-94681226D01*
X173650500Y-93818774D01*
X173637997Y-93755916D01*
X173632107Y-93747100D01*
X173593786Y-93689750D01*
X173590367Y-93684633D01*
X173541828Y-93652200D01*
X173524203Y-93640423D01*
X173524201Y-93640422D01*
X173519084Y-93637003D01*
X173491430Y-93631502D01*
X173459239Y-93625099D01*
X173459236Y-93625099D01*
X173456226Y-93624500D01*
X173143774Y-93624500D01*
X173140764Y-93625099D01*
X173140761Y-93625099D01*
X173086957Y-93635801D01*
X173086955Y-93635802D01*
X173080916Y-93637003D01*
X173075794Y-93640426D01*
X173073920Y-93641202D01*
X173026080Y-93641202D01*
X173024206Y-93640426D01*
X173019084Y-93637003D01*
X173013045Y-93635802D01*
X173013043Y-93635801D01*
X172959239Y-93625099D01*
X172959236Y-93625099D01*
X172956226Y-93624500D01*
X172643774Y-93624500D01*
X172640764Y-93625099D01*
X172640761Y-93625099D01*
X172586957Y-93635801D01*
X172586955Y-93635802D01*
X172580916Y-93637003D01*
X172575794Y-93640426D01*
X172573920Y-93641202D01*
X172526080Y-93641202D01*
X172524206Y-93640426D01*
X172519084Y-93637003D01*
X172513045Y-93635802D01*
X172513043Y-93635801D01*
X172459239Y-93625099D01*
X172459236Y-93625099D01*
X172456226Y-93624500D01*
X172143774Y-93624500D01*
X172140764Y-93625099D01*
X172140761Y-93625099D01*
X172086957Y-93635801D01*
X172086955Y-93635802D01*
X172080916Y-93637003D01*
X172075794Y-93640426D01*
X172073920Y-93641202D01*
X172026080Y-93641202D01*
X172024206Y-93640426D01*
X172019084Y-93637003D01*
X172013045Y-93635802D01*
X172013043Y-93635801D01*
X171959239Y-93625099D01*
X171959236Y-93625099D01*
X171956226Y-93624500D01*
X171643774Y-93624500D01*
X171640764Y-93625099D01*
X171640761Y-93625099D01*
X171586957Y-93635801D01*
X171586955Y-93635802D01*
X171580916Y-93637003D01*
X171575794Y-93640426D01*
X171573920Y-93641202D01*
X171526080Y-93641202D01*
X171524206Y-93640426D01*
X171519084Y-93637003D01*
X171513045Y-93635802D01*
X171513043Y-93635801D01*
X171459239Y-93625099D01*
X171459236Y-93625099D01*
X171456226Y-93624500D01*
X171143774Y-93624500D01*
X171140764Y-93625099D01*
X171140761Y-93625099D01*
X171086957Y-93635801D01*
X171086955Y-93635802D01*
X171080916Y-93637003D01*
X171075794Y-93640426D01*
X171073920Y-93641202D01*
X171026080Y-93641202D01*
X171024206Y-93640426D01*
X171019084Y-93637003D01*
X171013045Y-93635802D01*
X171013043Y-93635801D01*
X170959239Y-93625099D01*
X170959236Y-93625099D01*
X170956226Y-93624500D01*
X170643774Y-93624500D01*
X170640764Y-93625099D01*
X170640761Y-93625099D01*
X170586957Y-93635801D01*
X170586955Y-93635802D01*
X170580916Y-93637003D01*
X170575794Y-93640426D01*
X170573920Y-93641202D01*
X170526080Y-93641202D01*
X170524206Y-93640426D01*
X170519084Y-93637003D01*
X170513045Y-93635802D01*
X170513043Y-93635801D01*
X170459239Y-93625099D01*
X170459236Y-93625099D01*
X170456226Y-93624500D01*
X170143774Y-93624500D01*
X170140764Y-93625099D01*
X170140761Y-93625099D01*
X170086957Y-93635801D01*
X170086955Y-93635802D01*
X170080916Y-93637003D01*
X170075794Y-93640426D01*
X170073920Y-93641202D01*
X170026080Y-93641202D01*
X170024206Y-93640426D01*
X170019084Y-93637003D01*
X170013045Y-93635802D01*
X170013043Y-93635801D01*
X169959239Y-93625099D01*
X169959236Y-93625099D01*
X169956226Y-93624500D01*
X169643774Y-93624500D01*
X169640764Y-93625099D01*
X169640761Y-93625099D01*
X169586957Y-93635801D01*
X169586955Y-93635802D01*
X169580916Y-93637003D01*
X169575794Y-93640426D01*
X169573920Y-93641202D01*
X169526080Y-93641202D01*
X169524206Y-93640426D01*
X169519084Y-93637003D01*
X169513045Y-93635802D01*
X169513043Y-93635801D01*
X169459239Y-93625099D01*
X169459236Y-93625099D01*
X169456226Y-93624500D01*
X169188000Y-93624500D01*
X169143806Y-93606194D01*
X169125500Y-93562000D01*
X169125500Y-93216941D01*
X169125738Y-93211494D01*
X169127373Y-93192806D01*
X169129264Y-93171193D01*
X169123591Y-93150020D01*
X169118793Y-93132117D01*
X169117612Y-93126793D01*
X169117350Y-93125304D01*
X169110588Y-93086955D01*
X169107855Y-93082221D01*
X169107853Y-93082216D01*
X169107432Y-93081487D01*
X169101188Y-93066414D01*
X169100969Y-93065595D01*
X169100968Y-93065593D01*
X169099554Y-93060316D01*
X169093163Y-93051188D01*
X169076350Y-93027178D01*
X169073420Y-93022579D01*
X169063807Y-93005927D01*
X169053194Y-92987545D01*
X169022198Y-92961536D01*
X169018178Y-92957852D01*
X169009533Y-92949207D01*
X168991996Y-92914790D01*
X168986415Y-92879552D01*
X168985646Y-92874696D01*
X168928050Y-92761658D01*
X168838342Y-92671950D01*
X168725304Y-92614354D01*
X168600000Y-92594508D01*
X168474696Y-92614354D01*
X168361658Y-92671950D01*
X168271950Y-92761658D01*
X168214354Y-92874696D01*
X168213585Y-92879552D01*
X168213585Y-92879553D01*
X168198182Y-92976803D01*
X168173188Y-93017590D01*
X168126674Y-93028757D01*
X168092257Y-93011220D01*
X167943806Y-92862769D01*
X167925500Y-92818575D01*
X167925500Y-92593774D01*
X167912997Y-92530916D01*
X167902439Y-92515114D01*
X167868786Y-92464750D01*
X167865367Y-92459633D01*
X167843026Y-92444705D01*
X167799203Y-92415423D01*
X167799201Y-92415422D01*
X167794084Y-92412003D01*
X167765041Y-92406226D01*
X167734239Y-92400099D01*
X167734236Y-92400099D01*
X167731226Y-92399500D01*
X167392710Y-92399500D01*
X167387317Y-92399267D01*
X167385816Y-92399137D01*
X167384465Y-92399020D01*
X167384141Y-92399020D01*
X167380083Y-92398676D01*
X167377180Y-92398309D01*
X167372233Y-92396830D01*
X167317718Y-92398972D01*
X167315264Y-92399020D01*
X167268807Y-92399020D01*
X167266884Y-92399340D01*
X167262999Y-92399500D01*
X166868774Y-92399500D01*
X166865764Y-92400099D01*
X166865761Y-92400099D01*
X166834959Y-92406226D01*
X166805916Y-92412003D01*
X166800799Y-92415422D01*
X166800797Y-92415423D01*
X166756974Y-92444705D01*
X166734633Y-92459633D01*
X166731214Y-92464750D01*
X166697562Y-92515114D01*
X166687003Y-92530916D01*
X166674500Y-92593774D01*
X166674500Y-92906226D01*
X166675099Y-92909236D01*
X166675099Y-92909239D01*
X166679155Y-92929628D01*
X166687003Y-92969084D01*
X166690422Y-92974201D01*
X166690423Y-92974203D01*
X166719414Y-93017590D01*
X166734633Y-93040367D01*
X166739750Y-93043786D01*
X166800797Y-93084577D01*
X166800799Y-93084578D01*
X166805916Y-93087997D01*
X166824538Y-93091701D01*
X166865761Y-93099901D01*
X166865764Y-93099901D01*
X166868774Y-93100500D01*
X167088447Y-93100500D01*
X167115858Y-93107538D01*
X167116600Y-93108123D01*
X167121473Y-93109834D01*
X167126002Y-93112324D01*
X167125612Y-93113033D01*
X167142823Y-93123860D01*
X167211769Y-93192806D01*
X167230075Y-93237000D01*
X167211769Y-93281194D01*
X167167575Y-93299500D01*
X166766312Y-93299500D01*
X166763302Y-93300099D01*
X166763299Y-93300099D01*
X166728070Y-93307107D01*
X166696161Y-93313454D01*
X166691044Y-93316873D01*
X166691042Y-93316874D01*
X166632266Y-93356147D01*
X166616609Y-93366609D01*
X166563454Y-93446161D01*
X166549500Y-93516312D01*
X166549500Y-94114285D01*
X166531194Y-94158479D01*
X166208960Y-94480714D01*
X166164766Y-94499020D01*
X163963000Y-94499020D01*
X163918806Y-94480714D01*
X163900500Y-94436520D01*
X163900500Y-93916312D01*
X163886546Y-93846161D01*
X163866234Y-93815761D01*
X163836810Y-93771726D01*
X163833391Y-93766609D01*
X163804194Y-93747100D01*
X163758958Y-93716874D01*
X163758956Y-93716873D01*
X163753839Y-93713454D01*
X163725807Y-93707878D01*
X163686033Y-93681302D01*
X163675500Y-93646579D01*
X163675500Y-91455999D01*
X163675993Y-91448164D01*
X163676210Y-91446446D01*
X163677691Y-91441494D01*
X163675548Y-91386964D01*
X163675500Y-91384510D01*
X163675500Y-90981425D01*
X163693806Y-90937231D01*
X164556310Y-90074727D01*
X164600504Y-90056421D01*
X164644698Y-90074727D01*
X164652470Y-90084197D01*
X164660398Y-90096062D01*
X164660400Y-90096064D01*
X164663819Y-90101181D01*
X164668936Y-90104600D01*
X164734944Y-90148706D01*
X164734946Y-90148707D01*
X164740063Y-90152126D01*
X164784103Y-90160886D01*
X164804285Y-90164901D01*
X164804286Y-90164901D01*
X164807297Y-90165500D01*
X165300000Y-90165500D01*
X165792702Y-90165499D01*
X165795711Y-90164900D01*
X165795716Y-90164900D01*
X165853899Y-90153327D01*
X165859937Y-90152126D01*
X165877276Y-90140540D01*
X165924194Y-90131208D01*
X165963967Y-90157784D01*
X165974500Y-90192507D01*
X165974500Y-90258212D01*
X165974262Y-90263659D01*
X165970736Y-90303960D01*
X165972151Y-90309240D01*
X165972151Y-90309242D01*
X165981207Y-90343036D01*
X165982387Y-90348357D01*
X165989412Y-90388198D01*
X165992145Y-90392932D01*
X165992147Y-90392937D01*
X165992568Y-90393666D01*
X165998812Y-90408739D01*
X166000446Y-90414837D01*
X166003580Y-90419312D01*
X166003580Y-90419313D01*
X166023650Y-90447975D01*
X166026575Y-90452567D01*
X166046806Y-90487608D01*
X166050995Y-90491123D01*
X166077802Y-90513617D01*
X166081822Y-90517301D01*
X166382327Y-90817806D01*
X166400633Y-90862000D01*
X166382327Y-90906194D01*
X166338133Y-90924500D01*
X166271941Y-90924500D01*
X166266494Y-90924262D01*
X166264451Y-90924083D01*
X166226193Y-90920736D01*
X166220913Y-90922151D01*
X166220911Y-90922151D01*
X166187117Y-90931207D01*
X166181796Y-90932387D01*
X166141955Y-90939412D01*
X166137221Y-90942145D01*
X166137216Y-90942147D01*
X166136487Y-90942568D01*
X166121414Y-90948812D01*
X166120595Y-90949031D01*
X166120593Y-90949032D01*
X166115316Y-90950446D01*
X166110841Y-90953580D01*
X166110840Y-90953580D01*
X166082178Y-90973650D01*
X166077586Y-90976575D01*
X166042545Y-90996806D01*
X166039030Y-91000995D01*
X166016536Y-91027802D01*
X166012852Y-91031822D01*
X165358480Y-91686194D01*
X165314286Y-91704500D01*
X164863808Y-91704501D01*
X164807298Y-91704501D01*
X164804289Y-91705100D01*
X164804284Y-91705100D01*
X164746101Y-91716673D01*
X164740063Y-91717874D01*
X164663819Y-91768819D01*
X164612874Y-91845063D01*
X164608420Y-91867455D01*
X164601319Y-91903155D01*
X164599500Y-91912297D01*
X164599501Y-92497702D01*
X164612874Y-92564937D01*
X164663819Y-92641181D01*
X164668936Y-92644600D01*
X164734944Y-92688706D01*
X164734946Y-92688707D01*
X164740063Y-92692126D01*
X164784103Y-92700886D01*
X164804285Y-92704901D01*
X164804286Y-92704901D01*
X164807297Y-92705500D01*
X165300000Y-92705500D01*
X165792702Y-92705499D01*
X165795711Y-92704900D01*
X165795716Y-92704900D01*
X165853899Y-92693327D01*
X165859937Y-92692126D01*
X165936181Y-92641181D01*
X165965806Y-92596845D01*
X165983706Y-92570056D01*
X165983707Y-92570054D01*
X165987126Y-92564937D01*
X166000500Y-92497703D01*
X166000499Y-92062183D01*
X166018805Y-92017989D01*
X166062999Y-91999683D01*
X166107193Y-92017989D01*
X166118687Y-92033808D01*
X166171950Y-92138342D01*
X166261658Y-92228050D01*
X166374696Y-92285646D01*
X166500000Y-92305492D01*
X166625304Y-92285646D01*
X166738342Y-92228050D01*
X166828050Y-92138342D01*
X166830281Y-92133963D01*
X166833176Y-92129979D01*
X166834369Y-92130846D01*
X166866320Y-92103559D01*
X166885632Y-92100500D01*
X167731226Y-92100500D01*
X167734236Y-92099901D01*
X167734239Y-92099901D01*
X167780188Y-92090761D01*
X167794084Y-92087997D01*
X167799201Y-92084578D01*
X167799203Y-92084577D01*
X167860250Y-92043786D01*
X167865367Y-92040367D01*
X167887329Y-92007499D01*
X167909577Y-91974203D01*
X167909578Y-91974201D01*
X167912997Y-91969084D01*
X167923890Y-91914320D01*
X167924901Y-91909239D01*
X167924901Y-91909236D01*
X167925500Y-91906226D01*
X167925500Y-91593774D01*
X167924301Y-91587747D01*
X167914199Y-91536957D01*
X167914198Y-91536955D01*
X167912997Y-91530916D01*
X167909574Y-91525794D01*
X167908798Y-91523920D01*
X167908798Y-91476080D01*
X167909574Y-91474206D01*
X167912997Y-91469084D01*
X167915012Y-91458958D01*
X167924901Y-91409239D01*
X167924901Y-91409236D01*
X167925500Y-91406226D01*
X167925500Y-91313753D01*
X167943806Y-91269559D01*
X167988000Y-91251253D01*
X168032194Y-91269559D01*
X168038342Y-91276757D01*
X168040496Y-91280985D01*
X168130204Y-91370693D01*
X168243242Y-91428289D01*
X168368546Y-91448135D01*
X168493850Y-91428289D01*
X168606888Y-91370693D01*
X168696596Y-91280985D01*
X168754192Y-91167947D01*
X168760542Y-91127852D01*
X168778079Y-91093436D01*
X168894647Y-90976868D01*
X168898667Y-90973184D01*
X168925472Y-90950692D01*
X168929661Y-90947177D01*
X168949892Y-90912136D01*
X168952817Y-90907544D01*
X168972887Y-90878882D01*
X168972887Y-90878881D01*
X168976021Y-90874406D01*
X168977655Y-90868308D01*
X168983899Y-90853235D01*
X168984320Y-90852506D01*
X168984322Y-90852501D01*
X168987055Y-90847767D01*
X168994080Y-90807926D01*
X168995260Y-90802605D01*
X169004316Y-90768811D01*
X169004316Y-90768809D01*
X169005731Y-90763529D01*
X169002205Y-90723228D01*
X169001967Y-90717781D01*
X169001967Y-90404455D01*
X169020273Y-90360261D01*
X169064467Y-90341955D01*
X169108661Y-90360261D01*
X169266580Y-90518180D01*
X169270262Y-90522198D01*
X169296271Y-90553194D01*
X169331312Y-90573425D01*
X169335904Y-90576350D01*
X169360788Y-90593774D01*
X169369042Y-90599554D01*
X169374319Y-90600968D01*
X169374321Y-90600969D01*
X169375140Y-90601188D01*
X169390213Y-90607432D01*
X169390942Y-90607853D01*
X169390947Y-90607855D01*
X169395681Y-90610588D01*
X169435522Y-90617613D01*
X169440843Y-90618793D01*
X169474637Y-90627849D01*
X169474639Y-90627849D01*
X169479919Y-90629264D01*
X169520223Y-90625738D01*
X169525671Y-90625500D01*
X171029647Y-90625500D01*
X171035094Y-90625738D01*
X171075395Y-90629264D01*
X171080675Y-90627849D01*
X171080677Y-90627849D01*
X171114471Y-90618793D01*
X171119792Y-90617613D01*
X171159633Y-90610588D01*
X171164367Y-90607855D01*
X171164372Y-90607853D01*
X171165101Y-90607432D01*
X171180174Y-90601188D01*
X171180993Y-90600969D01*
X171180995Y-90600968D01*
X171186272Y-90599554D01*
X171194527Y-90593774D01*
X171219410Y-90576350D01*
X171224002Y-90573425D01*
X171259043Y-90553194D01*
X171285052Y-90522198D01*
X171288736Y-90518178D01*
X173410292Y-88396622D01*
X173454486Y-88378316D01*
X173498680Y-88396622D01*
G37*
%TD.AperFunction*%
%TA.AperFunction,Conductor*%
G36*
X175447971Y-83843806D02*
G01*
X175501162Y-83896998D01*
X175546870Y-83942706D01*
X175550554Y-83946726D01*
X175576556Y-83977714D01*
X175611590Y-83997941D01*
X175616179Y-84000864D01*
X175649327Y-84024074D01*
X175654602Y-84025487D01*
X175654607Y-84025490D01*
X175655430Y-84025710D01*
X175670495Y-84031950D01*
X175671228Y-84032373D01*
X175675966Y-84035108D01*
X175715802Y-84042133D01*
X175721120Y-84043311D01*
X175754926Y-84052369D01*
X175754927Y-84052369D01*
X175760204Y-84053783D01*
X175765647Y-84053307D01*
X175765649Y-84053307D01*
X175800497Y-84050258D01*
X175805944Y-84050020D01*
X176685354Y-84050020D01*
X176729548Y-84068326D01*
X176747854Y-84112520D01*
X176729548Y-84156714D01*
X174757194Y-86129068D01*
X174713000Y-86147374D01*
X174668806Y-86129068D01*
X174650500Y-86084874D01*
X174650500Y-85318774D01*
X174637997Y-85255916D01*
X174590367Y-85184633D01*
X174571930Y-85172314D01*
X174524203Y-85140423D01*
X174524201Y-85140422D01*
X174519084Y-85137003D01*
X174491430Y-85131502D01*
X174459239Y-85125099D01*
X174459236Y-85125099D01*
X174456226Y-85124500D01*
X174143774Y-85124500D01*
X174140764Y-85125099D01*
X174140761Y-85125099D01*
X174086957Y-85135801D01*
X174086955Y-85135802D01*
X174080916Y-85137003D01*
X174075794Y-85140426D01*
X174073920Y-85141202D01*
X174026080Y-85141202D01*
X174024206Y-85140426D01*
X174019084Y-85137003D01*
X174013045Y-85135802D01*
X174013043Y-85135801D01*
X173959239Y-85125099D01*
X173959236Y-85125099D01*
X173956226Y-85124500D01*
X173890319Y-85124500D01*
X173846125Y-85106194D01*
X173827819Y-85062000D01*
X173827973Y-85058471D01*
X173829264Y-85053654D01*
X173825738Y-85013349D01*
X173825500Y-85007902D01*
X173825500Y-84658352D01*
X173832312Y-84629977D01*
X173844497Y-84606064D01*
X173878128Y-84540059D01*
X173883414Y-84529685D01*
X173883414Y-84529684D01*
X173885646Y-84525304D01*
X173905492Y-84400000D01*
X173885646Y-84274696D01*
X173828050Y-84161658D01*
X173738342Y-84071950D01*
X173625304Y-84014354D01*
X173500000Y-83994508D01*
X173374696Y-84014354D01*
X173261658Y-84071950D01*
X173171950Y-84161658D01*
X173114354Y-84274696D01*
X173100581Y-84361658D01*
X173095056Y-84396541D01*
X173070062Y-84437327D01*
X173023548Y-84448495D01*
X173004951Y-84442452D01*
X172954188Y-84416587D01*
X172954184Y-84416586D01*
X172949804Y-84414354D01*
X172824500Y-84394508D01*
X172699196Y-84414354D01*
X172586158Y-84471950D01*
X172579474Y-84478634D01*
X172535280Y-84496940D01*
X172491086Y-84478634D01*
X172479592Y-84462814D01*
X172430283Y-84366039D01*
X172430280Y-84366036D01*
X172428050Y-84361658D01*
X172338342Y-84271950D01*
X172333964Y-84269720D01*
X172333961Y-84269717D01*
X172287972Y-84246285D01*
X172256905Y-84209911D01*
X172260658Y-84162223D01*
X172272152Y-84146403D01*
X172574749Y-83843806D01*
X172618943Y-83825500D01*
X175403777Y-83825500D01*
X175447971Y-83843806D01*
G37*
%TD.AperFunction*%
%TD*%
M02*
