%TF.GenerationSoftware,KiCad,Pcbnew,(6.0.1)*%
%TF.CreationDate,2022-12-05T15:25:32+08:00*%
%TF.ProjectId,IMU_base_V7.1,494d555f-6261-4736-955f-56372e312e6b,rev?*%
%TF.SameCoordinates,Original*%
%TF.FileFunction,Soldermask,Bot*%
%TF.FilePolarity,Negative*%
%FSLAX46Y46*%
G04 Gerber Fmt 4.6, Leading zero omitted, Abs format (unit mm)*
G04 Created by KiCad (PCBNEW (6.0.1)) date 2022-12-05 15:25:32*
%MOMM*%
%LPD*%
G01*
G04 APERTURE LIST*
G04 Aperture macros list*
%AMRoundRect*
0 Rectangle with rounded corners*
0 $1 Rounding radius*
0 $2 $3 $4 $5 $6 $7 $8 $9 X,Y pos of 4 corners*
0 Add a 4 corners polygon primitive as box body*
4,1,4,$2,$3,$4,$5,$6,$7,$8,$9,$2,$3,0*
0 Add four circle primitives for the rounded corners*
1,1,$1+$1,$2,$3*
1,1,$1+$1,$4,$5*
1,1,$1+$1,$6,$7*
1,1,$1+$1,$8,$9*
0 Add four rect primitives between the rounded corners*
20,1,$1+$1,$2,$3,$4,$5,0*
20,1,$1+$1,$4,$5,$6,$7,0*
20,1,$1+$1,$6,$7,$8,$9,0*
20,1,$1+$1,$8,$9,$2,$3,0*%
G04 Aperture macros list end*
%ADD10RoundRect,0.090000X0.460000X0.360000X-0.460000X0.360000X-0.460000X-0.360000X0.460000X-0.360000X0*%
%ADD11R,1.500000X2.400000*%
%ADD12RoundRect,0.090000X0.360000X-0.460000X0.360000X0.460000X-0.360000X0.460000X-0.360000X-0.460000X0*%
%ADD13RoundRect,0.090000X-0.460000X-0.360000X0.460000X-0.360000X0.460000X0.360000X-0.460000X0.360000X0*%
%ADD14RoundRect,0.090000X0.070711X0.579828X-0.579828X-0.070711X-0.070711X-0.579828X0.579828X0.070711X0*%
%ADD15RoundRect,0.070000X-0.330000X-0.180000X0.330000X-0.180000X0.330000X0.180000X-0.330000X0.180000X0*%
%ADD16RoundRect,0.090000X0.578372X0.081769X-0.218372X0.541769X-0.578372X-0.081769X0.218372X-0.541769X0*%
%ADD17RoundRect,0.081000X0.569000X-0.279000X0.569000X0.279000X-0.569000X0.279000X-0.569000X-0.279000X0*%
%ADD18RoundRect,0.081000X0.619000X-0.279000X0.619000X0.279000X-0.619000X0.279000X-0.619000X-0.279000X0*%
%ADD19RoundRect,0.145000X1.530000X-0.855000X1.530000X0.855000X-1.530000X0.855000X-1.530000X-0.855000X0*%
%ADD20RoundRect,0.105000X0.495000X-0.820000X0.495000X0.820000X-0.495000X0.820000X-0.495000X-0.820000X0*%
%ADD21RoundRect,0.175000X0.900000X0.900000X-0.900000X0.900000X-0.900000X-0.900000X0.900000X-0.900000X0*%
%ADD22RoundRect,0.105000X-0.495000X0.820000X-0.495000X-0.820000X0.495000X-0.820000X0.495000X0.820000X0*%
%ADD23R,0.300000X1.300000*%
%ADD24R,1.800000X2.200000*%
%ADD25R,3.800000X3.800000*%
%ADD26C,3.800000*%
G04 APERTURE END LIST*
D10*
%TO.C,R8*%
X168800000Y-74200000D03*
X168800000Y-75800000D03*
%TD*%
D11*
%TO.C,22uH*%
X166850000Y-73700000D03*
X161350000Y-73700000D03*
%TD*%
D12*
%TO.C,C3*%
X178750000Y-98000000D03*
X177150000Y-98000000D03*
%TD*%
D13*
%TO.C,C13*%
X172200000Y-74200000D03*
X172200000Y-75800000D03*
%TD*%
D14*
%TO.C,R1*%
X177068630Y-95068630D03*
X178200000Y-96200000D03*
%TD*%
D13*
%TO.C,R5*%
X159800000Y-79600000D03*
X159800000Y-78000000D03*
%TD*%
D10*
%TO.C,R3*%
X172250000Y-95800000D03*
X172250000Y-97400000D03*
%TD*%
D13*
%TO.C,C8*%
X174000000Y-75800000D03*
X174000000Y-74200000D03*
%TD*%
D15*
%TO.C,U3*%
X165500000Y-77950000D03*
X165500000Y-78600000D03*
X165500000Y-79250000D03*
X165500000Y-79900000D03*
X163000000Y-79900000D03*
X163000000Y-79250000D03*
X163000000Y-78600000D03*
X163000000Y-77950000D03*
%TD*%
D16*
%TO.C,R11*%
X175000000Y-85600000D03*
X174200000Y-86985640D03*
%TD*%
D13*
%TO.C,R4*%
X167000000Y-80400000D03*
X167000000Y-78800000D03*
%TD*%
D17*
%TO.C,U1*%
X176358700Y-76100000D03*
D18*
X176408700Y-77600000D03*
D19*
X178733700Y-77600000D03*
D17*
X176358700Y-79100000D03*
%TD*%
D20*
%TO.C,C7*%
X157850000Y-87500000D03*
X154650000Y-87500000D03*
%TD*%
D13*
%TO.C,C9*%
X174700000Y-77600000D03*
X174700000Y-79200000D03*
%TD*%
%TO.C,R9*%
X168800000Y-79400000D03*
X168800000Y-77800000D03*
%TD*%
D10*
%TO.C,C11*%
X161500000Y-78000000D03*
X161500000Y-79600000D03*
%TD*%
D13*
%TO.C,C12*%
X170500000Y-74200000D03*
X170500000Y-75800000D03*
%TD*%
D21*
%TO.C,D1*%
X157800000Y-92150000D03*
X152550000Y-92150000D03*
%TD*%
D22*
%TO.C,C10*%
X159600000Y-81700000D03*
X162800000Y-81700000D03*
%TD*%
D23*
%TO.C,J5*%
X169050000Y-87050000D03*
X168550000Y-87050000D03*
X168050000Y-87050000D03*
X167550000Y-87050000D03*
X167050000Y-87050000D03*
X166550000Y-87050000D03*
X166050000Y-87050000D03*
X165550000Y-87050000D03*
X165050000Y-87050000D03*
X164550000Y-87050000D03*
X164050000Y-87050000D03*
X163550000Y-87050000D03*
X163050000Y-87050000D03*
X162550000Y-87050000D03*
D24*
X170950000Y-90300000D03*
X160650000Y-90300000D03*
%TD*%
D25*
%TO.C,VCC*%
X165250000Y-100200000D03*
D26*
X160250000Y-100200000D03*
%TD*%
M02*
