M48
; DRILL file {KiCad (6.0.1)} date Mon Dec  5 15:25:33 2022
; FORMAT={-:-/ absolute / metric / decimal}
; #@! TF.CreationDate,2022-12-05T15:25:33+08:00
; #@! TF.GenerationSoftware,Kicad,Pcbnew,(6.0.1)
; #@! TF.FileFunction,MixedPlating,1,2
FMAT,2
METRIC
; #@! TA.AperFunction,Plated,PTH,ViaDrill
T1C0.200
; #@! TA.AperFunction,Plated,PTH,ViaDrill
T2C0.300
; #@! TA.AperFunction,Plated,PTH,ViaDrill
T3C0.400
; #@! TA.AperFunction,Plated,PTH,ComponentDrill
T4C2.000
; #@! TA.AperFunction,Plated,PTH,ViaDrill
T5C3.000
%
G90
G05
T1
X166.5Y-91.9
X168.109Y-90.502
X168.369Y-91.043
X168.6Y-93.0
X169.65Y-89.7
X169.666Y-89.088
X172.1Y-84.6
X172.3Y-95.0
X172.825Y-84.8
X173.5Y-84.4
X173.5Y-92.3
X173.9Y-88.3
X177.1Y-92.3
X177.3Y-89.7
X178.0Y-92.5
X179.1Y-89.6
X179.5Y-92.6
X180.5Y-88.8
X181.8Y-88.8
T2
X161.3Y-87.2
X179.6Y-99.2
T3
X153.4Y-81.9
X153.4Y-83.6
X153.5Y-80.1
X155.95Y-92.4
X156.3Y-97.5
X156.4Y-86.6
X156.5Y-88.1
X157.0Y-79.4
X157.0Y-80.3
X158.0Y-84.1
X159.5Y-97.0
X159.85Y-93.25
X160.1Y-86.5
X160.4Y-81.4
X162.413Y-89.387
X163.4Y-83.7
X164.7Y-93.8
X167.9Y-101.9
X168.0Y-98.9
X168.0Y-100.0
X168.0Y-100.9
X168.9Y-71.2
X168.9Y-83.3
X170.2Y-71.2
X170.4Y-92.2
X170.4Y-93.0
X171.4Y-92.2
X171.4Y-93.0
X171.7Y-98.6
X171.8Y-71.2
X172.0Y-76.6
X172.6Y-98.6
X173.1Y-76.6
X173.2Y-71.1
X173.4Y-80.3
X173.4Y-81.4
X174.4Y-80.2
X174.4Y-81.4
X174.614Y-91.708
X174.7Y-88.8
X174.8Y-71.2
X175.2Y-84.3
X175.8Y-96.0
X176.4Y-96.9
X176.5Y-94.7
X177.5Y-86.1
X177.8Y-85.2
X179.3Y-87.2
X180.6Y-93.8
X182.3Y-93.8
X182.8Y-88.6
X183.0Y-77.2
X183.0Y-78.2
X184.1Y-89.3
X184.1Y-91.1
X184.1Y-92.9
T4
X160.25Y-100.2
X165.25Y-100.2
T5
X153.092Y-72.503
X153.092Y-99.403
X182.382Y-99.403
X182.392Y-72.503
T0
M30
