%TF.GenerationSoftware,KiCad,Pcbnew,(6.0.1)*%
%TF.CreationDate,2022-12-05T15:25:32+08:00*%
%TF.ProjectId,IMU_base_V7.1,494d555f-6261-4736-955f-56372e312e6b,rev?*%
%TF.SameCoordinates,Original*%
%TF.FileFunction,Copper,L2,Bot*%
%TF.FilePolarity,Positive*%
%FSLAX46Y46*%
G04 Gerber Fmt 4.6, Leading zero omitted, Abs format (unit mm)*
G04 Created by KiCad (PCBNEW (6.0.1)) date 2022-12-05 15:25:32*
%MOMM*%
%LPD*%
G01*
G04 APERTURE LIST*
G04 Aperture macros list*
%AMRoundRect*
0 Rectangle with rounded corners*
0 $1 Rounding radius*
0 $2 $3 $4 $5 $6 $7 $8 $9 X,Y pos of 4 corners*
0 Add a 4 corners polygon primitive as box body*
4,1,4,$2,$3,$4,$5,$6,$7,$8,$9,$2,$3,0*
0 Add four circle primitives for the rounded corners*
1,1,$1+$1,$2,$3*
1,1,$1+$1,$4,$5*
1,1,$1+$1,$6,$7*
1,1,$1+$1,$8,$9*
0 Add four rect primitives between the rounded corners*
20,1,$1+$1,$2,$3,$4,$5,0*
20,1,$1+$1,$4,$5,$6,$7,0*
20,1,$1+$1,$6,$7,$8,$9,0*
20,1,$1+$1,$8,$9,$2,$3,0*%
G04 Aperture macros list end*
%TA.AperFunction,SMDPad,CuDef*%
%ADD10RoundRect,0.040000X0.460000X0.360000X-0.460000X0.360000X-0.460000X-0.360000X0.460000X-0.360000X0*%
%TD*%
%TA.AperFunction,SMDPad,CuDef*%
%ADD11R,1.500000X2.400000*%
%TD*%
%TA.AperFunction,SMDPad,CuDef*%
%ADD12RoundRect,0.040000X0.360000X-0.460000X0.360000X0.460000X-0.360000X0.460000X-0.360000X-0.460000X0*%
%TD*%
%TA.AperFunction,SMDPad,CuDef*%
%ADD13RoundRect,0.040000X-0.460000X-0.360000X0.460000X-0.360000X0.460000X0.360000X-0.460000X0.360000X0*%
%TD*%
%TA.AperFunction,SMDPad,CuDef*%
%ADD14RoundRect,0.040000X0.070711X0.579828X-0.579828X-0.070711X-0.070711X-0.579828X0.579828X0.070711X0*%
%TD*%
%TA.AperFunction,SMDPad,CuDef*%
%ADD15RoundRect,0.020000X-0.330000X-0.180000X0.330000X-0.180000X0.330000X0.180000X-0.330000X0.180000X0*%
%TD*%
%TA.AperFunction,SMDPad,CuDef*%
%ADD16RoundRect,0.040000X0.578372X0.081769X-0.218372X0.541769X-0.578372X-0.081769X0.218372X-0.541769X0*%
%TD*%
%TA.AperFunction,SMDPad,CuDef*%
%ADD17RoundRect,0.031000X0.569000X-0.279000X0.569000X0.279000X-0.569000X0.279000X-0.569000X-0.279000X0*%
%TD*%
%TA.AperFunction,SMDPad,CuDef*%
%ADD18RoundRect,0.031000X0.619000X-0.279000X0.619000X0.279000X-0.619000X0.279000X-0.619000X-0.279000X0*%
%TD*%
%TA.AperFunction,SMDPad,CuDef*%
%ADD19RoundRect,0.095000X1.530000X-0.855000X1.530000X0.855000X-1.530000X0.855000X-1.530000X-0.855000X0*%
%TD*%
%TA.AperFunction,SMDPad,CuDef*%
%ADD20RoundRect,0.055000X0.495000X-0.820000X0.495000X0.820000X-0.495000X0.820000X-0.495000X-0.820000X0*%
%TD*%
%TA.AperFunction,SMDPad,CuDef*%
%ADD21RoundRect,0.100000X0.900000X0.900000X-0.900000X0.900000X-0.900000X-0.900000X0.900000X-0.900000X0*%
%TD*%
%TA.AperFunction,SMDPad,CuDef*%
%ADD22RoundRect,0.055000X-0.495000X0.820000X-0.495000X-0.820000X0.495000X-0.820000X0.495000X0.820000X0*%
%TD*%
%TA.AperFunction,SMDPad,CuDef*%
%ADD23R,0.300000X1.300000*%
%TD*%
%TA.AperFunction,SMDPad,CuDef*%
%ADD24R,1.800000X2.200000*%
%TD*%
%TA.AperFunction,ComponentPad*%
%ADD25R,3.800000X3.800000*%
%TD*%
%TA.AperFunction,ComponentPad*%
%ADD26C,3.800000*%
%TD*%
%TA.AperFunction,ViaPad*%
%ADD27C,0.800000*%
%TD*%
%TA.AperFunction,ViaPad*%
%ADD28C,0.400000*%
%TD*%
%TA.AperFunction,ViaPad*%
%ADD29C,0.600000*%
%TD*%
%TA.AperFunction,ViaPad*%
%ADD30C,4.000000*%
%TD*%
%TA.AperFunction,Conductor*%
%ADD31C,0.350000*%
%TD*%
%TA.AperFunction,Conductor*%
%ADD32C,0.250000*%
%TD*%
%TA.AperFunction,Conductor*%
%ADD33C,0.500000*%
%TD*%
%TA.AperFunction,Conductor*%
%ADD34C,1.500000*%
%TD*%
G04 APERTURE END LIST*
D10*
%TO.P,R8,1*%
%TO.N,+5V*%
X168800000Y-74200000D03*
%TO.P,R8,2*%
%TO.N,Net-(C12-Pad1)*%
X168800000Y-75800000D03*
%TD*%
D11*
%TO.P,22uH,2,2*%
%TO.N,+5V*%
X166850000Y-73700000D03*
%TO.P,22uH,1,1*%
%TO.N,Net-(C11-Pad2)*%
X161350000Y-73700000D03*
%TD*%
D12*
%TO.P,C3,1*%
%TO.N,/RESET*%
X178750000Y-98000000D03*
%TO.P,C3,2*%
%TO.N,GND*%
X177150000Y-98000000D03*
%TD*%
D13*
%TO.P,C13,2*%
%TO.N,+5V*%
X172200000Y-74200000D03*
%TO.P,C13,1*%
%TO.N,GND*%
X172200000Y-75800000D03*
%TD*%
D14*
%TO.P,R1,1*%
%TO.N,+3V3*%
X177068630Y-95068630D03*
%TO.P,R1,2*%
%TO.N,/RESET*%
X178200000Y-96200000D03*
%TD*%
D13*
%TO.P,R5,1*%
%TO.N,+24V*%
X159800000Y-79600000D03*
%TO.P,R5,2*%
%TO.N,Net-(R5-Pad2)*%
X159800000Y-78000000D03*
%TD*%
D10*
%TO.P,R3,1*%
%TO.N,/BOOT0*%
X172250000Y-95800000D03*
%TO.P,R3,2*%
%TO.N,GND*%
X172250000Y-97400000D03*
%TD*%
D13*
%TO.P,C8,1*%
%TO.N,GND*%
X174000000Y-75800000D03*
%TO.P,C8,2*%
%TO.N,+5V*%
X174000000Y-74200000D03*
%TD*%
D15*
%TO.P,U3,1,FB*%
%TO.N,Net-(C12-Pad1)*%
X165500000Y-77950000D03*
%TO.P,U3,2,FS*%
%TO.N,Net-(R4-Pad2)*%
X165500000Y-78600000D03*
%TO.P,U3,3,GND*%
%TO.N,GND*%
X165500000Y-79250000D03*
%TO.P,U3,4,GND*%
X165500000Y-79900000D03*
%TO.P,U3,5,VIN*%
%TO.N,+24V*%
X163000000Y-79900000D03*
%TO.P,U3,6,SW*%
%TO.N,Net-(C11-Pad2)*%
X163000000Y-79250000D03*
%TO.P,U3,7,BST*%
%TO.N,Net-(C11-Pad1)*%
X163000000Y-78600000D03*
%TO.P,U3,8,EN*%
%TO.N,Net-(R5-Pad2)*%
X163000000Y-77950000D03*
%TD*%
D16*
%TO.P,R11,1*%
%TO.N,GND*%
X175000000Y-85600000D03*
%TO.P,R11,2*%
%TO.N,GNDPWR*%
X174200000Y-86985640D03*
%TD*%
D13*
%TO.P,R4,1*%
%TO.N,GND*%
X167000000Y-80400000D03*
%TO.P,R4,2*%
%TO.N,Net-(R4-Pad2)*%
X167000000Y-78800000D03*
%TD*%
D17*
%TO.P,U1,3,VIN*%
%TO.N,+5V*%
X176358700Y-76100000D03*
D18*
%TO.P,U1,2,VOUT*%
%TO.N,+3V3*%
X176408700Y-77600000D03*
D19*
X178733700Y-77600000D03*
D17*
%TO.P,U1,1,GND*%
%TO.N,GND*%
X176358700Y-79100000D03*
%TD*%
D20*
%TO.P,C7,1*%
%TO.N,+24V*%
X157850000Y-87500000D03*
%TO.P,C7,2*%
%TO.N,GND*%
X154650000Y-87500000D03*
%TD*%
D13*
%TO.P,C9,2*%
%TO.N,+3V3*%
X174700000Y-77600000D03*
%TO.P,C9,1*%
%TO.N,GND*%
X174700000Y-79200000D03*
%TD*%
%TO.P,R9,1*%
%TO.N,GND*%
X168800000Y-79400000D03*
%TO.P,R9,2*%
%TO.N,Net-(C12-Pad1)*%
X168800000Y-77800000D03*
%TD*%
D10*
%TO.P,C11,1*%
%TO.N,Net-(C11-Pad1)*%
X161500000Y-78000000D03*
%TO.P,C11,2*%
%TO.N,Net-(C11-Pad2)*%
X161500000Y-79600000D03*
%TD*%
D13*
%TO.P,C12,2*%
%TO.N,+5V*%
X170500000Y-74200000D03*
%TO.P,C12,1*%
%TO.N,Net-(C12-Pad1)*%
X170500000Y-75800000D03*
%TD*%
D21*
%TO.P,D1,1,Cathode*%
%TO.N,+24V*%
X157800000Y-92150000D03*
%TO.P,D1,2,Anode*%
%TO.N,GND*%
X152550000Y-92150000D03*
%TD*%
D22*
%TO.P,C10,1*%
%TO.N,GND*%
X159600000Y-81700000D03*
%TO.P,C10,2*%
%TO.N,+24V*%
X162800000Y-81700000D03*
%TD*%
D23*
%TO.P,J5,1*%
%TO.N,GNDPWR*%
X169050000Y-87050000D03*
%TO.P,J5,2*%
X168550000Y-87050000D03*
%TO.P,J5,3*%
%TO.N,+5V*%
X168050000Y-87050000D03*
%TO.P,J5,4*%
X167550000Y-87050000D03*
%TO.P,J5,5*%
%TO.N,/TIM10_CH1*%
X167050000Y-87050000D03*
%TO.P,J5,6*%
%TO.N,/SPI1_MISO*%
X166550000Y-87050000D03*
%TO.P,J5,7*%
%TO.N,/SPI1_MOSI*%
X166050000Y-87050000D03*
%TO.P,J5,8*%
%TO.N,/INT1_Gyro*%
X165550000Y-87050000D03*
%TO.P,J5,9*%
%TO.N,/INT1_Acce1*%
X165050000Y-87050000D03*
%TO.P,J5,10*%
%TO.N,/CS1_Gyro*%
X164550000Y-87050000D03*
%TO.P,J5,11*%
%TO.N,/CS1_Acce1*%
X164050000Y-87050000D03*
%TO.P,J5,12*%
%TO.N,/SPI1_CLK*%
X163550000Y-87050000D03*
%TO.P,J5,13*%
%TO.N,GND*%
X163050000Y-87050000D03*
%TO.P,J5,14*%
%TO.N,+3V3*%
X162550000Y-87050000D03*
D24*
%TO.P,J5,MP*%
%TO.N,N/C*%
X170950000Y-90300000D03*
X160650000Y-90300000D03*
%TD*%
D25*
%TO.P,VCC,1*%
%TO.N,GND*%
X165250000Y-100200000D03*
D26*
%TO.P,VCC,2*%
%TO.N,+24V*%
X160250000Y-100200000D03*
%TD*%
D27*
%TO.N,GND*%
X159500000Y-97000000D03*
X159850000Y-93250000D03*
X155950000Y-92400000D03*
X172600000Y-98600000D03*
X171700000Y-98600000D03*
X171400000Y-93000000D03*
X170400000Y-93000000D03*
X171400000Y-92200000D03*
X170400000Y-92200000D03*
X172000000Y-76600000D03*
X173400000Y-80300000D03*
X173400000Y-81400000D03*
X174400000Y-81400000D03*
X183000000Y-78200000D03*
X183000000Y-77200000D03*
X174800000Y-71200000D03*
X173200000Y-71100000D03*
X171800000Y-71200000D03*
X170200000Y-71200000D03*
X168900000Y-71200000D03*
X160400000Y-81400000D03*
X158000000Y-84100000D03*
X156400000Y-86600000D03*
X156500000Y-88100000D03*
X156300000Y-97500000D03*
X173100000Y-76600000D03*
X174400000Y-80200000D03*
X175800000Y-96000000D03*
%TO.N,+3V3*%
X160100000Y-86500000D03*
X163400000Y-83700000D03*
%TO.N,/SWCLK*%
X162413189Y-89386811D03*
D28*
%TO.N,/SPI1_MISO*%
X172824500Y-84800000D03*
%TO.N,/SWDIO*%
X166500000Y-91900000D03*
D27*
%TO.N,+3V3*%
X174700000Y-88800000D03*
D28*
%TO.N,GND*%
X177100000Y-92300000D03*
%TO.N,/RESET*%
X173500000Y-92300000D03*
%TO.N,GND*%
X177300000Y-89700000D03*
%TO.N,/INT1_Gyro*%
X169666451Y-89088234D03*
%TO.N,/BOOT0*%
X172300000Y-95000000D03*
%TO.N,/INT1_Acce1*%
X169650498Y-89700000D03*
%TO.N,/SPI1_CLK*%
X173500000Y-84400000D03*
%TO.N,/SWCLK*%
X168600000Y-93000000D03*
%TO.N,GND*%
X178000000Y-92500000D03*
D27*
X177500000Y-86100000D03*
X177800000Y-85200000D03*
X175200000Y-84300000D03*
D29*
%TO.N,/SWDIO*%
X161300000Y-87200000D03*
D28*
%TO.N,/SPI1_MOSI*%
X172100000Y-84600000D03*
%TO.N,/CS1_Gyro*%
X168108883Y-90502292D03*
%TO.N,/TIM10_CH1*%
X173900000Y-88300000D03*
%TO.N,/CS1_Acce1*%
X168368546Y-91042643D03*
D27*
%TO.N,+3V3*%
X168900000Y-83300000D03*
%TO.N,GND*%
X176400000Y-96900000D03*
%TO.N,+3V3*%
X174614068Y-91708441D03*
%TO.N,GND*%
X164700000Y-93800000D03*
%TO.N,+3V3*%
X176500000Y-94700000D03*
%TO.N,GND*%
X153500000Y-80100000D03*
X153400000Y-83600000D03*
X157000000Y-80300000D03*
X153400000Y-81900000D03*
X157000000Y-79400000D03*
X168000000Y-98900000D03*
X167900000Y-101900000D03*
X184100000Y-91100000D03*
X168000000Y-100000000D03*
X184100000Y-89300000D03*
D28*
X179100000Y-89600000D03*
D27*
X182800000Y-88600000D03*
X180600000Y-93800000D03*
D29*
%TO.N,/RESET*%
X179600000Y-99200000D03*
D27*
%TO.N,+3V3*%
X179300000Y-87200000D03*
%TO.N,GND*%
X184100000Y-92900000D03*
X182300000Y-93800000D03*
D30*
%TO.N,*%
X182381600Y-99402603D03*
D28*
%TO.N,GND*%
X181800000Y-88800000D03*
D30*
%TO.N,*%
X153091600Y-99402603D03*
D27*
%TO.N,GND*%
X168000000Y-100900000D03*
D28*
X180500000Y-88800000D03*
D30*
%TO.N,*%
X153091600Y-72502603D03*
D28*
%TO.N,GND*%
X179500000Y-92600000D03*
D30*
%TO.N,*%
X182391600Y-72502603D03*
%TD*%
D31*
%TO.N,+5V*%
X176358700Y-76100000D02*
X181100000Y-76100000D01*
X181100000Y-76100000D02*
X182100000Y-77100000D01*
X174100000Y-83500000D02*
X174100000Y-84700000D01*
X182100000Y-77100000D02*
X182100000Y-78600000D01*
X175000000Y-82600000D02*
X174100000Y-83500000D01*
X182100000Y-78600000D02*
X178100000Y-82600000D01*
X178100000Y-82600000D02*
X175000000Y-82600000D01*
X174100000Y-84700000D02*
X172900000Y-85900000D01*
X172900000Y-85900000D02*
X168300000Y-85900000D01*
X168300000Y-85900000D02*
X167800000Y-86400000D01*
D32*
%TO.N,/BOOT0*%
X172300000Y-95750000D02*
X172250000Y-95800000D01*
X172300000Y-95000000D02*
X172300000Y-95750000D01*
%TO.N,/RESET*%
X178750000Y-98350000D02*
X179600000Y-99200000D01*
X178750000Y-98000000D02*
X178750000Y-98350000D01*
X178200000Y-96200000D02*
X178200000Y-97450000D01*
X178200000Y-97450000D02*
X178750000Y-98000000D01*
X179000000Y-95400000D02*
X178200000Y-96200000D01*
X179000000Y-94700000D02*
X179000000Y-95400000D01*
X177700000Y-93400000D02*
X179000000Y-94700000D01*
X174600000Y-93400000D02*
X177700000Y-93400000D01*
X173500000Y-92300000D02*
X174600000Y-93400000D01*
D31*
%TO.N,+3V3*%
X174000000Y-91094373D02*
X174614068Y-91708441D01*
X174000000Y-89500000D02*
X174000000Y-91094373D01*
X174700000Y-88800000D02*
X174000000Y-89500000D01*
X160600000Y-86500000D02*
X160100000Y-86500000D01*
X163400000Y-83700000D02*
X160600000Y-86500000D01*
X165100000Y-82000000D02*
X163400000Y-83700000D01*
X167769022Y-82000000D02*
X165100000Y-82000000D01*
X174700000Y-77600000D02*
X172169022Y-77600000D01*
X172169022Y-77600000D02*
X167769022Y-82000000D01*
D32*
X162550000Y-86100978D02*
X165350978Y-83300000D01*
X165350978Y-83300000D02*
X168900000Y-83300000D01*
X162550000Y-87050000D02*
X162550000Y-86100978D01*
D31*
X169000000Y-83300000D02*
X168900000Y-83300000D01*
X174700000Y-77600000D02*
X169000000Y-83300000D01*
D33*
%TO.N,GNDPWR*%
X171221280Y-87050000D02*
X169050000Y-87050000D01*
X171285640Y-86985640D02*
X171221280Y-87050000D01*
X174200000Y-86985640D02*
X171285640Y-86985640D01*
D32*
X168900000Y-87800000D02*
X169050000Y-87650000D01*
X169050000Y-87650000D02*
X169050000Y-87050000D01*
X168700000Y-87800000D02*
X168900000Y-87800000D01*
X168600000Y-87700000D02*
X168700000Y-87800000D01*
X168600000Y-87100000D02*
X168600000Y-87700000D01*
X168550000Y-87050000D02*
X168600000Y-87100000D01*
%TO.N,+5V*%
X167800000Y-86400000D02*
X167800000Y-87700000D01*
X168050000Y-87700480D02*
X168050000Y-87050000D01*
X167900000Y-87850480D02*
X168050000Y-87700480D01*
X167524511Y-87075489D02*
X167524511Y-87724511D01*
X167650480Y-87850480D02*
X167900000Y-87850480D01*
X167550000Y-87050000D02*
X167524511Y-87075489D01*
X167524511Y-87724511D02*
X167650480Y-87850480D01*
%TO.N,/SWCLK*%
X162413189Y-90013189D02*
X165400000Y-93000000D01*
X162413189Y-89386811D02*
X162413189Y-90013189D01*
X165400000Y-93000000D02*
X168600000Y-93000000D01*
%TO.N,/SWDIO*%
X165950978Y-91900000D02*
X161300000Y-87249022D01*
X166500000Y-91900000D02*
X165950978Y-91900000D01*
%TO.N,/SPI1_CLK*%
X173124511Y-84024511D02*
X173500000Y-84400000D01*
X165626467Y-84024511D02*
X173124511Y-84024511D01*
X163550000Y-86100978D02*
X165626467Y-84024511D01*
X163550000Y-87050000D02*
X163550000Y-86100978D01*
%TO.N,/CS1_Acce1*%
X164050000Y-88406176D02*
X164050000Y-87050000D01*
X166686467Y-91042643D02*
X164050000Y-88406176D01*
X168368546Y-91042643D02*
X166686467Y-91042643D01*
%TO.N,/CS1_Gyro*%
X166781834Y-90502292D02*
X164550000Y-88270458D01*
X168108883Y-90502292D02*
X166781834Y-90502292D01*
X164550000Y-88270458D02*
X164550000Y-87050000D01*
%TO.N,/INT1_Acce1*%
X168523361Y-89248206D02*
X166163466Y-89248206D01*
X166163466Y-89248206D02*
X165050000Y-88134740D01*
X165050000Y-88134740D02*
X165050000Y-87050000D01*
X168975155Y-89700000D02*
X168523361Y-89248206D01*
X169650498Y-89700000D02*
X168975155Y-89700000D01*
%TO.N,/INT1_Gyro*%
X165550000Y-87999022D02*
X165550000Y-87050000D01*
X169376903Y-88798686D02*
X166349664Y-88798686D01*
X169666451Y-89088234D02*
X169376903Y-88798686D01*
X166349664Y-88798686D02*
X165550000Y-87999022D01*
%TO.N,/SPI1_MOSI*%
X167415260Y-84600000D02*
X166050000Y-85965260D01*
X172100000Y-84600000D02*
X167415260Y-84600000D01*
X166050000Y-85965260D02*
X166050000Y-87050000D01*
%TO.N,/SPI1_MISO*%
X172499989Y-85124511D02*
X172824500Y-84800000D01*
X167526467Y-85124511D02*
X172499989Y-85124511D01*
X166550000Y-86100978D02*
X167526467Y-85124511D01*
X166550000Y-87050000D02*
X166550000Y-86100978D01*
%TO.N,/TIM10_CH1*%
X167050000Y-87999022D02*
X167050000Y-87050000D01*
X167350978Y-88300000D02*
X167050000Y-87999022D01*
X173900000Y-88300000D02*
X167350978Y-88300000D01*
D34*
%TO.N,+24V*%
X157850000Y-97800000D02*
X160250000Y-100200000D01*
X157850000Y-91300000D02*
X157850000Y-97800000D01*
X157850000Y-87500000D02*
X157850000Y-91300000D01*
X157850000Y-86650000D02*
X157850000Y-87500000D01*
X162800000Y-81700000D02*
X157850000Y-86650000D01*
D32*
%TO.N,Net-(R4-Pad2)*%
X166000000Y-78600000D02*
X166200000Y-78800000D01*
X166200000Y-78800000D02*
X167000000Y-78800000D01*
X165500000Y-78600000D02*
X166000000Y-78600000D01*
D33*
%TO.N,Net-(C11-Pad2)*%
X163524001Y-79250000D02*
X163000000Y-79250000D01*
X164100000Y-78674001D02*
X163524001Y-79250000D01*
X162400000Y-73700000D02*
X164100000Y-75400000D01*
X164100000Y-75400000D02*
X164100000Y-78674001D01*
X161350000Y-73700000D02*
X162400000Y-73700000D01*
D31*
X161850000Y-79250000D02*
X163000000Y-79250000D01*
%TO.N,+24V*%
X163000000Y-79900000D02*
X162525480Y-80374520D01*
%TO.N,Net-(C11-Pad2)*%
X161500000Y-79600000D02*
X161850000Y-79250000D01*
%TO.N,+24V*%
X160574520Y-80374520D02*
X159800000Y-79600000D01*
%TO.N,Net-(C11-Pad1)*%
X162100000Y-78600000D02*
X161500000Y-78000000D01*
X163000000Y-78600000D02*
X162100000Y-78600000D01*
%TO.N,+24V*%
X162525480Y-80374520D02*
X160574520Y-80374520D01*
D32*
%TO.N,Net-(R5-Pad2)*%
X160700000Y-77100000D02*
X159800000Y-78000000D01*
X163000000Y-77950000D02*
X162150000Y-77100000D01*
X162150000Y-77100000D02*
X160700000Y-77100000D01*
%TD*%
%TA.AperFunction,Conductor*%
%TO.N,+24V*%
G36*
X162733472Y-79965597D02*
G01*
X162733808Y-79965769D01*
X162740916Y-79967508D01*
X162740918Y-79967509D01*
X162794662Y-79980660D01*
X162905610Y-80007808D01*
X162911212Y-80008156D01*
X162911215Y-80008156D01*
X162914825Y-80008380D01*
X162914835Y-80008380D01*
X162916764Y-80008500D01*
X163456931Y-80008500D01*
X163475881Y-80009933D01*
X163490116Y-80012099D01*
X163490120Y-80012099D01*
X163497350Y-80013199D01*
X163504642Y-80012606D01*
X163504645Y-80012606D01*
X163550019Y-80008915D01*
X163560234Y-80008500D01*
X163568294Y-80008500D01*
X163583617Y-80006714D01*
X163653594Y-80018690D01*
X163705988Y-80066599D01*
X163724116Y-80127022D01*
X163795292Y-81977585D01*
X163777923Y-82046425D01*
X163726094Y-82094945D01*
X163677766Y-82108149D01*
X163429089Y-82124727D01*
X162434381Y-82191041D01*
X162365081Y-82175614D01*
X162315122Y-82125170D01*
X162300000Y-82065320D01*
X162300000Y-80453129D01*
X162320002Y-80385008D01*
X162339616Y-80363802D01*
X162338578Y-80362764D01*
X162344656Y-80356686D01*
X162351495Y-80351495D01*
X162356686Y-80344656D01*
X162356689Y-80344653D01*
X162437162Y-80238632D01*
X162442354Y-80231792D01*
X162497675Y-80092066D01*
X162500448Y-80069155D01*
X162528487Y-80003934D01*
X162587339Y-79964224D01*
X162628939Y-79959042D01*
X162628939Y-79958500D01*
X162694023Y-79958500D01*
X162733472Y-79965597D01*
G37*
%TD.AperFunction*%
%TD*%
%TA.AperFunction,Conductor*%
%TO.N,+5V*%
G36*
X168777476Y-72102754D02*
G01*
X168798047Y-72107127D01*
X168798060Y-72107128D01*
X168804513Y-72108500D01*
X168995487Y-72108500D01*
X169001940Y-72107128D01*
X169001953Y-72107127D01*
X169022524Y-72102754D01*
X169048721Y-72100000D01*
X170051279Y-72100000D01*
X170077476Y-72102754D01*
X170098047Y-72107127D01*
X170098060Y-72107128D01*
X170104513Y-72108500D01*
X170295487Y-72108500D01*
X170301940Y-72107128D01*
X170301953Y-72107127D01*
X170322524Y-72102754D01*
X170348721Y-72100000D01*
X171651279Y-72100000D01*
X171677476Y-72102754D01*
X171698047Y-72107127D01*
X171698060Y-72107128D01*
X171704513Y-72108500D01*
X171895487Y-72108500D01*
X171901940Y-72107128D01*
X171901953Y-72107127D01*
X171922524Y-72102754D01*
X171948721Y-72100000D01*
X174651279Y-72100000D01*
X174677476Y-72102754D01*
X174698047Y-72107127D01*
X174698060Y-72107128D01*
X174704513Y-72108500D01*
X174895487Y-72108500D01*
X174901940Y-72107128D01*
X174901953Y-72107127D01*
X174922524Y-72102754D01*
X174948721Y-72100000D01*
X177077035Y-72100000D01*
X177145156Y-72120002D01*
X177191649Y-72173658D01*
X177202998Y-72222928D01*
X177295425Y-76012429D01*
X177277089Y-76081017D01*
X177224583Y-76128804D01*
X177172358Y-76140834D01*
X177172384Y-76141231D01*
X177169938Y-76141391D01*
X177169462Y-76141501D01*
X177164142Y-76141501D01*
X177160058Y-76142039D01*
X177160052Y-76142039D01*
X177054342Y-76155955D01*
X177054340Y-76155955D01*
X177046155Y-76157033D01*
X176899346Y-76217843D01*
X176773278Y-76314578D01*
X176745558Y-76350704D01*
X176688222Y-76392571D01*
X176645596Y-76400000D01*
X175495042Y-76400000D01*
X175426921Y-76379998D01*
X175380428Y-76326342D01*
X175373890Y-76308615D01*
X175000000Y-75000000D01*
X174988179Y-75000127D01*
X174833715Y-75001788D01*
X174765383Y-74982519D01*
X174756181Y-74976158D01*
X174738633Y-74962838D01*
X174738630Y-74962836D01*
X174731792Y-74957646D01*
X174650009Y-74925266D01*
X174599596Y-74905306D01*
X174599594Y-74905305D01*
X174592066Y-74902325D01*
X174502614Y-74891500D01*
X173497386Y-74891500D01*
X173407934Y-74902325D01*
X173400406Y-74905305D01*
X173400404Y-74905306D01*
X173349991Y-74925266D01*
X173268208Y-74957646D01*
X173219897Y-74994316D01*
X173153544Y-75019569D01*
X173145089Y-75019945D01*
X173058856Y-75020873D01*
X172990526Y-75001604D01*
X172981340Y-74995255D01*
X172931792Y-74957646D01*
X172850009Y-74925266D01*
X172799596Y-74905306D01*
X172799594Y-74905305D01*
X172792066Y-74902325D01*
X172702614Y-74891500D01*
X171697386Y-74891500D01*
X171607934Y-74902325D01*
X171600406Y-74905305D01*
X171600404Y-74905306D01*
X171549991Y-74925266D01*
X171468208Y-74957646D01*
X171437299Y-74981107D01*
X171426180Y-74989547D01*
X171359827Y-75014801D01*
X171290353Y-75000173D01*
X171273820Y-74989547D01*
X171262701Y-74981107D01*
X171231792Y-74957646D01*
X171150009Y-74925266D01*
X171099596Y-74905306D01*
X171099594Y-74905305D01*
X171092066Y-74902325D01*
X171002614Y-74891500D01*
X169997386Y-74891500D01*
X169907934Y-74902325D01*
X169900406Y-74905305D01*
X169900404Y-74905306D01*
X169849991Y-74925266D01*
X169768208Y-74957646D01*
X169745241Y-74975079D01*
X169726178Y-74989548D01*
X169659825Y-75014800D01*
X169590352Y-75000171D01*
X169573822Y-74989548D01*
X169554759Y-74975079D01*
X169531792Y-74957646D01*
X169450009Y-74925266D01*
X169399596Y-74905306D01*
X169399594Y-74905305D01*
X169392066Y-74902325D01*
X169302614Y-74891500D01*
X168297386Y-74891500D01*
X168207934Y-74902325D01*
X168200406Y-74905305D01*
X168200404Y-74905306D01*
X168149991Y-74925266D01*
X168068208Y-74957646D01*
X167948505Y-75048505D01*
X167946857Y-75046333D01*
X167896590Y-75073782D01*
X167871162Y-75076654D01*
X166876247Y-75087352D01*
X165819149Y-75098719D01*
X165750818Y-75079450D01*
X165703751Y-75026298D01*
X165692074Y-74981107D01*
X165508959Y-72234381D01*
X165524386Y-72165081D01*
X165574830Y-72115122D01*
X165634680Y-72100000D01*
X168751279Y-72100000D01*
X168777476Y-72102754D01*
G37*
%TD.AperFunction*%
%TD*%
%TA.AperFunction,Conductor*%
%TO.N,+3V3*%
G36*
X180661624Y-76803502D02*
G01*
X180708117Y-76857158D01*
X180719410Y-76904656D01*
X180793374Y-78827704D01*
X180794968Y-78869157D01*
X180777599Y-78937997D01*
X180725770Y-78986517D01*
X180669061Y-79000000D01*
X177738149Y-79000000D01*
X177668257Y-78978838D01*
X177523200Y-78882133D01*
X177477615Y-78827704D01*
X177467321Y-78784881D01*
X177467200Y-78782876D01*
X177467200Y-78779086D01*
X177456553Y-78691101D01*
X177402139Y-78553668D01*
X177312771Y-78435929D01*
X177195032Y-78346561D01*
X177057599Y-78292147D01*
X177049562Y-78291174D01*
X177049560Y-78291174D01*
X177017163Y-78287254D01*
X176969614Y-78281500D01*
X175747786Y-78281500D01*
X175700237Y-78287254D01*
X175667840Y-78291174D01*
X175667838Y-78291174D01*
X175659801Y-78292147D01*
X175624560Y-78306100D01*
X175525015Y-78345513D01*
X175474289Y-78354286D01*
X175445087Y-78353279D01*
X175440220Y-78353111D01*
X175398180Y-78344338D01*
X175299596Y-78305306D01*
X175299594Y-78305305D01*
X175292066Y-78302325D01*
X175202614Y-78291500D01*
X174197386Y-78291500D01*
X174139329Y-78298526D01*
X174115973Y-78301352D01*
X174115972Y-78301352D01*
X174107934Y-78302325D01*
X174106419Y-78302925D01*
X174076892Y-78306100D01*
X174030863Y-78304513D01*
X174021657Y-78304195D01*
X173954266Y-78281857D01*
X173909650Y-78226630D01*
X173900000Y-78178270D01*
X173900000Y-77065120D01*
X173916881Y-77002120D01*
X173931223Y-76977279D01*
X173931224Y-76977278D01*
X173934527Y-76971556D01*
X173961981Y-76887063D01*
X174002053Y-76828458D01*
X174067450Y-76800821D01*
X174081813Y-76800000D01*
X174979553Y-76800000D01*
X175019398Y-76806466D01*
X175300000Y-76900000D01*
X175617334Y-76900000D01*
X175648345Y-76903876D01*
X175652280Y-76904875D01*
X175659801Y-76907853D01*
X175747786Y-76918500D01*
X176969614Y-76918500D01*
X177017163Y-76912746D01*
X177049560Y-76908826D01*
X177049562Y-76908826D01*
X177057599Y-76907853D01*
X177195032Y-76853439D01*
X177253398Y-76809137D01*
X177319751Y-76783884D01*
X177329577Y-76783500D01*
X180593503Y-76783500D01*
X180661624Y-76803502D01*
G37*
%TD.AperFunction*%
%TD*%
%TA.AperFunction,Conductor*%
%TO.N,Net-(C12-Pad1)*%
G36*
X168234691Y-75100913D02*
G01*
X168297386Y-75108500D01*
X169302614Y-75108500D01*
X169365309Y-75100913D01*
X169380446Y-75100000D01*
X169919554Y-75100000D01*
X169934691Y-75100913D01*
X169997386Y-75108500D01*
X171002614Y-75108500D01*
X171058863Y-75101693D01*
X171128893Y-75113366D01*
X171181495Y-75161047D01*
X171200000Y-75226780D01*
X171200000Y-75319554D01*
X171199087Y-75334691D01*
X171191500Y-75397386D01*
X171191500Y-76149603D01*
X171174620Y-76212602D01*
X171165473Y-76228444D01*
X171165473Y-76228445D01*
X171165112Y-76228236D01*
X171121676Y-76279342D01*
X171052545Y-76300000D01*
X169600000Y-76300000D01*
X169599403Y-76311940D01*
X169505985Y-78180292D01*
X169482606Y-78247329D01*
X169426695Y-78291084D01*
X169380142Y-78300000D01*
X168501868Y-78300000D01*
X168498164Y-78299946D01*
X168071490Y-78287397D01*
X168003988Y-78265400D01*
X167958043Y-78207835D01*
X167947138Y-78180292D01*
X167942354Y-78168208D01*
X167851495Y-78048505D01*
X167731792Y-77957646D01*
X167650009Y-77925266D01*
X167599596Y-77905306D01*
X167599594Y-77905305D01*
X167592066Y-77902325D01*
X167502614Y-77891500D01*
X166497386Y-77891500D01*
X166407934Y-77902325D01*
X166400406Y-77905305D01*
X166400404Y-77905306D01*
X166349991Y-77925266D01*
X166268208Y-77957646D01*
X166261368Y-77962838D01*
X166253882Y-77967056D01*
X166252843Y-77965212D01*
X166197311Y-77986345D01*
X166167774Y-77985176D01*
X166152972Y-77982831D01*
X166107007Y-77963225D01*
X166106207Y-77964645D01*
X166098730Y-77960432D01*
X166091882Y-77955234D01*
X166033730Y-77932210D01*
X165964780Y-77904911D01*
X165964778Y-77904910D01*
X165957250Y-77901930D01*
X165871061Y-77891500D01*
X165825612Y-77891500D01*
X165187020Y-77891501D01*
X165118899Y-77871499D01*
X165072406Y-77817843D01*
X165061537Y-77776908D01*
X165012081Y-77232891D01*
X165025834Y-77163240D01*
X165075060Y-77112080D01*
X165133364Y-77095555D01*
X168000000Y-77000000D01*
X168093717Y-75219378D01*
X168117272Y-75152402D01*
X168173297Y-75108794D01*
X168219543Y-75100000D01*
X168219554Y-75100000D01*
X168234691Y-75100913D01*
G37*
%TD.AperFunction*%
%TD*%
%TA.AperFunction,Conductor*%
%TO.N,GND*%
G36*
X182572240Y-69955530D02*
G01*
X182573050Y-69955747D01*
X182573051Y-69955747D01*
X182581000Y-69957877D01*
X182588949Y-69955747D01*
X182595757Y-69955747D01*
X182604777Y-69954835D01*
X182788817Y-69965967D01*
X182852776Y-69969836D01*
X182860268Y-69970746D01*
X182927512Y-69983069D01*
X183124360Y-70019143D01*
X183131679Y-70020947D01*
X183388022Y-70100827D01*
X183395065Y-70103498D01*
X183624613Y-70206808D01*
X183639913Y-70213694D01*
X183646596Y-70217202D01*
X183876360Y-70356100D01*
X183882571Y-70360387D01*
X184093925Y-70525971D01*
X184099574Y-70530976D01*
X184289421Y-70720823D01*
X184294426Y-70726472D01*
X184460010Y-70937826D01*
X184464297Y-70944037D01*
X184595969Y-71161847D01*
X184603195Y-71173801D01*
X184606703Y-71180484D01*
X184705496Y-71399992D01*
X184716897Y-71425325D01*
X184719570Y-71432375D01*
X184781957Y-71632579D01*
X184799449Y-71688713D01*
X184801254Y-71696037D01*
X184830537Y-71855826D01*
X184849651Y-71960129D01*
X184850561Y-71967621D01*
X184865160Y-72208966D01*
X184865562Y-72215618D01*
X184864650Y-72224640D01*
X184864650Y-72231448D01*
X184862520Y-72239397D01*
X184864872Y-72248173D01*
X184867000Y-72264344D01*
X184867000Y-99925853D01*
X184864872Y-99942024D01*
X184862520Y-99950800D01*
X184864650Y-99958748D01*
X184864650Y-99964819D01*
X184865662Y-99974625D01*
X184851066Y-100234532D01*
X184850282Y-100241490D01*
X184849430Y-100246505D01*
X184803267Y-100518198D01*
X184801707Y-100525031D01*
X184799867Y-100531419D01*
X184729454Y-100775830D01*
X184724010Y-100794725D01*
X184721697Y-100801336D01*
X184655813Y-100960394D01*
X184614290Y-101060638D01*
X184611249Y-101066952D01*
X184475480Y-101312608D01*
X184471759Y-101318531D01*
X184309335Y-101547446D01*
X184304980Y-101552908D01*
X184157420Y-101718027D01*
X184117950Y-101762194D01*
X184112997Y-101767147D01*
X183911118Y-101947558D01*
X183903711Y-101954177D01*
X183898246Y-101958535D01*
X183669331Y-102120959D01*
X183663408Y-102124680D01*
X183417752Y-102260449D01*
X183411439Y-102263490D01*
X183152136Y-102370897D01*
X183145529Y-102373209D01*
X183039135Y-102403860D01*
X182875831Y-102450907D01*
X182868998Y-102452467D01*
X182734225Y-102475366D01*
X182592290Y-102499482D01*
X182585338Y-102500265D01*
X182445264Y-102508132D01*
X182325425Y-102514862D01*
X182315619Y-102513850D01*
X182309548Y-102513850D01*
X182301600Y-102511720D01*
X182292824Y-102514072D01*
X182276653Y-102516200D01*
X167273997Y-102516198D01*
X153318011Y-102516197D01*
X153302935Y-102514352D01*
X153302910Y-102514346D01*
X153292410Y-102511736D01*
X153284502Y-102514010D01*
X153278427Y-102514120D01*
X153268649Y-102515309D01*
X152997082Y-102505007D01*
X152990104Y-102504349D01*
X152701281Y-102460662D01*
X152694420Y-102459227D01*
X152412300Y-102383476D01*
X152405644Y-102381282D01*
X152133779Y-102274420D01*
X152127410Y-102271494D01*
X151869223Y-102134867D01*
X151863222Y-102131247D01*
X151753531Y-102056377D01*
X151621949Y-101966566D01*
X151616400Y-101962304D01*
X151395077Y-101771640D01*
X151390039Y-101766782D01*
X151338739Y-101711436D01*
X151191458Y-101552540D01*
X151186999Y-101547153D01*
X151013649Y-101312018D01*
X151009815Y-101306154D01*
X150921647Y-101153258D01*
X150863892Y-101053103D01*
X150860737Y-101046846D01*
X150744063Y-100779048D01*
X150741628Y-100772475D01*
X150655671Y-100493293D01*
X150653988Y-100486490D01*
X150599831Y-100199452D01*
X150598919Y-100192502D01*
X150582705Y-99974625D01*
X150578750Y-99921481D01*
X150579583Y-99911671D01*
X150579473Y-99905597D01*
X150581458Y-99897610D01*
X150579185Y-99889704D01*
X150579166Y-99888669D01*
X150577000Y-99873297D01*
X150577000Y-99402603D01*
X150886378Y-99402603D01*
X150886512Y-99404647D01*
X150903592Y-99665230D01*
X150905244Y-99690442D01*
X150961519Y-99973356D01*
X150962174Y-99975287D01*
X150962175Y-99975289D01*
X151053422Y-100244092D01*
X151054241Y-100246505D01*
X151181822Y-100505214D01*
X151182950Y-100506903D01*
X151182954Y-100506909D01*
X151340598Y-100742839D01*
X151342080Y-100745057D01*
X151532273Y-100961930D01*
X151749146Y-101152123D01*
X151750840Y-101153255D01*
X151750844Y-101153258D01*
X151987294Y-101311249D01*
X151987300Y-101311253D01*
X151988989Y-101312381D01*
X152247698Y-101439962D01*
X152249629Y-101440617D01*
X152249635Y-101440620D01*
X152518914Y-101532028D01*
X152520847Y-101532684D01*
X152803761Y-101588959D01*
X152805795Y-101589092D01*
X152805800Y-101589093D01*
X153089556Y-101607691D01*
X153091600Y-101607825D01*
X153093644Y-101607691D01*
X153377400Y-101589093D01*
X153377405Y-101589092D01*
X153379439Y-101588959D01*
X153662353Y-101532684D01*
X153664286Y-101532028D01*
X153933565Y-101440620D01*
X153933571Y-101440617D01*
X153935502Y-101439962D01*
X154194211Y-101312381D01*
X154195900Y-101311253D01*
X154195906Y-101311249D01*
X154432356Y-101153258D01*
X154432360Y-101153255D01*
X154434054Y-101152123D01*
X154650927Y-100961930D01*
X154841120Y-100745057D01*
X154842602Y-100742839D01*
X155000246Y-100506909D01*
X155000250Y-100506903D01*
X155001378Y-100505214D01*
X155128959Y-100246505D01*
X155129779Y-100244092D01*
X155221025Y-99975289D01*
X155221026Y-99975287D01*
X155221681Y-99973356D01*
X155277956Y-99690442D01*
X155279609Y-99665230D01*
X155296688Y-99404647D01*
X155296822Y-99402603D01*
X155292166Y-99331563D01*
X155278090Y-99116803D01*
X155278089Y-99116798D01*
X155277956Y-99114764D01*
X155221681Y-98831850D01*
X155218450Y-98822332D01*
X155129617Y-98560638D01*
X155129614Y-98560632D01*
X155128959Y-98558701D01*
X155001378Y-98299992D01*
X155000250Y-98298303D01*
X155000246Y-98298297D01*
X154842255Y-98061847D01*
X154842252Y-98061843D01*
X154841120Y-98060149D01*
X154650927Y-97843276D01*
X154434054Y-97653083D01*
X154432360Y-97651951D01*
X154432356Y-97651948D01*
X154195906Y-97493957D01*
X154195900Y-97493953D01*
X154194211Y-97492825D01*
X153935502Y-97365244D01*
X153933571Y-97364589D01*
X153933565Y-97364586D01*
X153664286Y-97273178D01*
X153664284Y-97273177D01*
X153662353Y-97272522D01*
X153379439Y-97216247D01*
X153377405Y-97216114D01*
X153377400Y-97216113D01*
X153093644Y-97197515D01*
X153091600Y-97197381D01*
X153089556Y-97197515D01*
X152805800Y-97216113D01*
X152805795Y-97216114D01*
X152803761Y-97216247D01*
X152520847Y-97272522D01*
X152518916Y-97273177D01*
X152518914Y-97273178D01*
X152249635Y-97364586D01*
X152249629Y-97364589D01*
X152247698Y-97365244D01*
X151988989Y-97492825D01*
X151987300Y-97493953D01*
X151987294Y-97493957D01*
X151750844Y-97651948D01*
X151750840Y-97651951D01*
X151749146Y-97653083D01*
X151532273Y-97843276D01*
X151342080Y-98060149D01*
X151340948Y-98061843D01*
X151340945Y-98061847D01*
X151182954Y-98298297D01*
X151182950Y-98298303D01*
X151181822Y-98299992D01*
X151054241Y-98558701D01*
X151053586Y-98560632D01*
X151053583Y-98560638D01*
X150964750Y-98822332D01*
X150961519Y-98831850D01*
X150905244Y-99114764D01*
X150905111Y-99116798D01*
X150905110Y-99116803D01*
X150891034Y-99331563D01*
X150886378Y-99402603D01*
X150577000Y-99402603D01*
X150577000Y-93094646D01*
X156599500Y-93094646D01*
X156602618Y-93120846D01*
X156648061Y-93223153D01*
X156652144Y-93227229D01*
X156723204Y-93298166D01*
X156723207Y-93298168D01*
X156727287Y-93302241D01*
X156732561Y-93304573D01*
X156732563Y-93304574D01*
X156825377Y-93345607D01*
X156825379Y-93345607D01*
X156829673Y-93347506D01*
X156834337Y-93348050D01*
X156834338Y-93348050D01*
X156844238Y-93349204D01*
X156886015Y-93372505D01*
X156899500Y-93411284D01*
X156899500Y-97785446D01*
X156899476Y-97787191D01*
X156897603Y-97854268D01*
X156897164Y-97869972D01*
X156897713Y-97873085D01*
X156897713Y-97873086D01*
X156907480Y-97928482D01*
X156908109Y-97933017D01*
X156909675Y-97948433D01*
X156914112Y-97992110D01*
X156915056Y-97995123D01*
X156915057Y-97995127D01*
X156923393Y-98021726D01*
X156925303Y-98029563D01*
X156930143Y-98057013D01*
X156930146Y-98057024D01*
X156930695Y-98060137D01*
X156931859Y-98063078D01*
X156931860Y-98063080D01*
X156952563Y-98115369D01*
X156954089Y-98119679D01*
X156971856Y-98176373D01*
X156973388Y-98179138D01*
X156973389Y-98179139D01*
X156986906Y-98203525D01*
X156990351Y-98210815D01*
X157000612Y-98236729D01*
X157000614Y-98236734D01*
X157001779Y-98239675D01*
X157003510Y-98242320D01*
X157034307Y-98289383D01*
X157036673Y-98293306D01*
X157065472Y-98345261D01*
X157067531Y-98347663D01*
X157067535Y-98347669D01*
X157085674Y-98368832D01*
X157090516Y-98375279D01*
X157107513Y-98401254D01*
X157111758Y-98405968D01*
X157150273Y-98444483D01*
X157153533Y-98448004D01*
X157189072Y-98489468D01*
X157189077Y-98489473D01*
X157191136Y-98491875D01*
X157212543Y-98508480D01*
X157217139Y-98512045D01*
X157223026Y-98517236D01*
X158224149Y-99518359D01*
X158242455Y-99562553D01*
X158238648Y-99584032D01*
X158228190Y-99612610D01*
X158227735Y-99614696D01*
X158227734Y-99614700D01*
X158168918Y-99884455D01*
X158167178Y-99892436D01*
X158167011Y-99894554D01*
X158167011Y-99894556D01*
X158166394Y-99902393D01*
X158144707Y-100177953D01*
X158161194Y-100463878D01*
X158161604Y-100465966D01*
X158161604Y-100465969D01*
X158174445Y-100531419D01*
X158216332Y-100744920D01*
X158309102Y-101015878D01*
X158310051Y-101017765D01*
X158310054Y-101017772D01*
X158377626Y-101152123D01*
X158437787Y-101271740D01*
X158600006Y-101507770D01*
X158601437Y-101509342D01*
X158601442Y-101509349D01*
X158791324Y-101718027D01*
X158791329Y-101718032D01*
X158792756Y-101719600D01*
X159012472Y-101903311D01*
X159255088Y-102055503D01*
X159516114Y-102173361D01*
X159669228Y-102218716D01*
X159788679Y-102254099D01*
X159788683Y-102254100D01*
X159790719Y-102254703D01*
X160073824Y-102298024D01*
X160222132Y-102300354D01*
X160358062Y-102302490D01*
X160358068Y-102302490D01*
X160360189Y-102302523D01*
X160644514Y-102268115D01*
X160921539Y-102195439D01*
X161186138Y-102085839D01*
X161433415Y-101941342D01*
X161658793Y-101764623D01*
X161701104Y-101720962D01*
X161856629Y-101560472D01*
X161858102Y-101558952D01*
X162027655Y-101328134D01*
X162028670Y-101326265D01*
X162028673Y-101326260D01*
X162163299Y-101078308D01*
X162164313Y-101076441D01*
X162265548Y-100808530D01*
X162329487Y-100529358D01*
X162330175Y-100521655D01*
X162354837Y-100245312D01*
X162354946Y-100244092D01*
X162355010Y-100238034D01*
X162355395Y-100201225D01*
X162355408Y-100200000D01*
X162352494Y-100157255D01*
X162336074Y-99916398D01*
X162336073Y-99916392D01*
X162335928Y-99914263D01*
X162333470Y-99902393D01*
X162278282Y-99635898D01*
X162278280Y-99635892D01*
X162277850Y-99633814D01*
X162277143Y-99631819D01*
X162277141Y-99631810D01*
X162182957Y-99365843D01*
X162182955Y-99365838D01*
X162182248Y-99363842D01*
X162054742Y-99116803D01*
X162051864Y-99111227D01*
X162051863Y-99111226D01*
X162050891Y-99109342D01*
X162049672Y-99107607D01*
X162049668Y-99107601D01*
X161887428Y-98876758D01*
X161887426Y-98876755D01*
X161886209Y-98875024D01*
X161691251Y-98665224D01*
X161689606Y-98663877D01*
X161689600Y-98663872D01*
X161547787Y-98547800D01*
X161469623Y-98483823D01*
X161225427Y-98334180D01*
X160963182Y-98219062D01*
X160687739Y-98140600D01*
X160404196Y-98100246D01*
X160271732Y-98099553D01*
X160119937Y-98098758D01*
X160119934Y-98098758D01*
X160117800Y-98098747D01*
X160115681Y-98099026D01*
X160115680Y-98099026D01*
X160104127Y-98100547D01*
X159833851Y-98136129D01*
X159831796Y-98136691D01*
X159831792Y-98136692D01*
X159736542Y-98162750D01*
X159630550Y-98191746D01*
X159583093Y-98185751D01*
X159569865Y-98175655D01*
X159280860Y-97886650D01*
X160707558Y-97886650D01*
X160711275Y-97894824D01*
X160711275Y-97894827D01*
X160717426Y-97908354D01*
X160720505Y-97916631D01*
X160724393Y-97929883D01*
X160727216Y-97939507D01*
X160733561Y-97945013D01*
X160734112Y-97946024D01*
X160734926Y-97946840D01*
X160738403Y-97954488D01*
X160745945Y-97959358D01*
X160745947Y-97959360D01*
X160758430Y-97967420D01*
X160765489Y-97972720D01*
X160776717Y-97982463D01*
X160776720Y-97982464D01*
X160783500Y-97988348D01*
X160791816Y-97989554D01*
X160794006Y-97990754D01*
X160795348Y-97991257D01*
X160801007Y-97994911D01*
X160801621Y-97995000D01*
X160824868Y-97995000D01*
X160833837Y-97995647D01*
X160857250Y-97999042D01*
X160865035Y-97995502D01*
X160872136Y-97995000D01*
X170514968Y-97995000D01*
X170523937Y-97995647D01*
X170547350Y-97999042D01*
X170555524Y-97995325D01*
X170555527Y-97995325D01*
X170569054Y-97989174D01*
X170577331Y-97986095D01*
X170591594Y-97981911D01*
X170591595Y-97981911D01*
X170600207Y-97979384D01*
X170605713Y-97973039D01*
X170606724Y-97972488D01*
X170607540Y-97971674D01*
X170615188Y-97968197D01*
X170620058Y-97960655D01*
X170620060Y-97960653D01*
X170628120Y-97948170D01*
X170633420Y-97941111D01*
X170643163Y-97929883D01*
X170643164Y-97929880D01*
X170649048Y-97923100D01*
X170650254Y-97914784D01*
X170651454Y-97912594D01*
X170651957Y-97911252D01*
X170655611Y-97905593D01*
X170655700Y-97904979D01*
X170655700Y-97881732D01*
X170656347Y-97872763D01*
X170658453Y-97858238D01*
X170659742Y-97849350D01*
X170656202Y-97841565D01*
X170655700Y-97834464D01*
X170655700Y-96586332D01*
X170656347Y-96577363D01*
X170658453Y-96562838D01*
X170659742Y-96553950D01*
X170656025Y-96545776D01*
X170656025Y-96545773D01*
X170649874Y-96532246D01*
X170646795Y-96523969D01*
X170642611Y-96509706D01*
X170642611Y-96509705D01*
X170640084Y-96501093D01*
X170633739Y-96495587D01*
X170633188Y-96494576D01*
X170632374Y-96493760D01*
X170628897Y-96486112D01*
X170621355Y-96481242D01*
X170621353Y-96481240D01*
X170608870Y-96473180D01*
X170601811Y-96467880D01*
X170590583Y-96458137D01*
X170590580Y-96458136D01*
X170583800Y-96452252D01*
X170575484Y-96451046D01*
X170573294Y-96449846D01*
X170571952Y-96449343D01*
X170566293Y-96445689D01*
X170565679Y-96445600D01*
X170542432Y-96445600D01*
X170533463Y-96444953D01*
X170510050Y-96441558D01*
X170502265Y-96445098D01*
X170495164Y-96445600D01*
X160852332Y-96445600D01*
X160843363Y-96444953D01*
X160819950Y-96441558D01*
X160811776Y-96445275D01*
X160811773Y-96445275D01*
X160798246Y-96451426D01*
X160789969Y-96454505D01*
X160775706Y-96458689D01*
X160775705Y-96458689D01*
X160767093Y-96461216D01*
X160761587Y-96467561D01*
X160760576Y-96468112D01*
X160759760Y-96468926D01*
X160752112Y-96472403D01*
X160747242Y-96479945D01*
X160747240Y-96479947D01*
X160739180Y-96492430D01*
X160733880Y-96499489D01*
X160724137Y-96510717D01*
X160724136Y-96510720D01*
X160718252Y-96517500D01*
X160717046Y-96525816D01*
X160715846Y-96528006D01*
X160715343Y-96529348D01*
X160711689Y-96535007D01*
X160711600Y-96535621D01*
X160711600Y-96558868D01*
X160710953Y-96567837D01*
X160707558Y-96591250D01*
X160711098Y-96599035D01*
X160711600Y-96606136D01*
X160711600Y-97854268D01*
X160710953Y-97863237D01*
X160707558Y-97886650D01*
X159280860Y-97886650D01*
X158818806Y-97424596D01*
X158800500Y-97380402D01*
X158800500Y-96183688D01*
X171549500Y-96183688D01*
X171563454Y-96253839D01*
X171566873Y-96258956D01*
X171566874Y-96258958D01*
X171578762Y-96276749D01*
X171616609Y-96333391D01*
X171621726Y-96336810D01*
X171691042Y-96383126D01*
X171691044Y-96383127D01*
X171696161Y-96386546D01*
X171728070Y-96392893D01*
X171763299Y-96399901D01*
X171763302Y-96399901D01*
X171766312Y-96400500D01*
X172733688Y-96400500D01*
X172736698Y-96399901D01*
X172736701Y-96399901D01*
X172771930Y-96392893D01*
X172803839Y-96386546D01*
X172808956Y-96383127D01*
X172808958Y-96383126D01*
X172878274Y-96336810D01*
X172883391Y-96333391D01*
X172921238Y-96276749D01*
X172933126Y-96258958D01*
X172933127Y-96258956D01*
X172936546Y-96253839D01*
X172950500Y-96183688D01*
X172950500Y-95416312D01*
X172945988Y-95393626D01*
X172937747Y-95352200D01*
X172936546Y-95346161D01*
X172883391Y-95266609D01*
X172860414Y-95251256D01*
X172808958Y-95216874D01*
X172808956Y-95216873D01*
X172803839Y-95213454D01*
X172753874Y-95203515D01*
X172734141Y-95199590D01*
X172694367Y-95173014D01*
X172685093Y-95126389D01*
X172685646Y-95125304D01*
X172705492Y-95000000D01*
X172685646Y-94874696D01*
X172628050Y-94761658D01*
X172566392Y-94700000D01*
X175894318Y-94700000D01*
X175914956Y-94856762D01*
X175916524Y-94860547D01*
X175916524Y-94860548D01*
X175970924Y-94991881D01*
X175975464Y-95002841D01*
X176071718Y-95128282D01*
X176197159Y-95224536D01*
X176200942Y-95226103D01*
X176261666Y-95251256D01*
X176289714Y-95274273D01*
X176301993Y-95292650D01*
X176844610Y-95835267D01*
X176847162Y-95836972D01*
X176847163Y-95836973D01*
X176898962Y-95871584D01*
X176898964Y-95871585D01*
X176904081Y-95875004D01*
X176997919Y-95893669D01*
X177091757Y-95875004D01*
X177151229Y-95835267D01*
X177835267Y-95151229D01*
X177875004Y-95091757D01*
X177893669Y-94997919D01*
X177875004Y-94904081D01*
X177845917Y-94860548D01*
X177836973Y-94847163D01*
X177836972Y-94847162D01*
X177835267Y-94844610D01*
X177292650Y-94301993D01*
X177280891Y-94294136D01*
X177238298Y-94265676D01*
X177238296Y-94265675D01*
X177233179Y-94262256D01*
X177139341Y-94243591D01*
X177045503Y-94262256D01*
X177031342Y-94271718D01*
X177011755Y-94284805D01*
X176964839Y-94294136D01*
X176932837Y-94277029D01*
X176930774Y-94274966D01*
X176928282Y-94271718D01*
X176802841Y-94175464D01*
X176799058Y-94173897D01*
X176660548Y-94116524D01*
X176660547Y-94116524D01*
X176656762Y-94114956D01*
X176652700Y-94114421D01*
X176652699Y-94114421D01*
X176504064Y-94094853D01*
X176500000Y-94094318D01*
X176495936Y-94094853D01*
X176347301Y-94114421D01*
X176347300Y-94114421D01*
X176343238Y-94114956D01*
X176339453Y-94116524D01*
X176339452Y-94116524D01*
X176200942Y-94173897D01*
X176197159Y-94175464D01*
X176071718Y-94271718D01*
X175975464Y-94397159D01*
X175914956Y-94543238D01*
X175914421Y-94547300D01*
X175914421Y-94547301D01*
X175908492Y-94592338D01*
X175894318Y-94700000D01*
X172566392Y-94700000D01*
X172538342Y-94671950D01*
X172425304Y-94614354D01*
X172300000Y-94594508D01*
X172174696Y-94614354D01*
X172061658Y-94671950D01*
X171971950Y-94761658D01*
X171914354Y-94874696D01*
X171894508Y-95000000D01*
X171913730Y-95121366D01*
X171914354Y-95125304D01*
X171912057Y-95125668D01*
X171908941Y-95165362D01*
X171872574Y-95196437D01*
X171853247Y-95199500D01*
X171766312Y-95199500D01*
X171763302Y-95200099D01*
X171763299Y-95200099D01*
X171728070Y-95207107D01*
X171696161Y-95213454D01*
X171691044Y-95216873D01*
X171691042Y-95216874D01*
X171639586Y-95251256D01*
X171616609Y-95266609D01*
X171563454Y-95346161D01*
X171562253Y-95352200D01*
X171554013Y-95393626D01*
X171549500Y-95416312D01*
X171549500Y-96183688D01*
X158800500Y-96183688D01*
X158800500Y-93374837D01*
X158818806Y-93330643D01*
X158837629Y-93317718D01*
X158837868Y-93317612D01*
X158873153Y-93301939D01*
X158878269Y-93296814D01*
X158948166Y-93226796D01*
X158948168Y-93226793D01*
X158952241Y-93222713D01*
X158993369Y-93129686D01*
X158995607Y-93124623D01*
X158995607Y-93124621D01*
X158997506Y-93120327D01*
X158998050Y-93115661D01*
X159000291Y-93096442D01*
X159000291Y-93096435D01*
X159000500Y-93094646D01*
X159000500Y-91205354D01*
X158997948Y-91183905D01*
X158997936Y-91183808D01*
X158997936Y-91183807D01*
X158997382Y-91179154D01*
X158951939Y-91076847D01*
X158946469Y-91071386D01*
X158876797Y-91001836D01*
X158872713Y-90997759D01*
X158837729Y-90982293D01*
X158804710Y-90947681D01*
X158800500Y-90925130D01*
X158800500Y-87069598D01*
X158818806Y-87025404D01*
X159388159Y-86456051D01*
X159432353Y-86437745D01*
X159476547Y-86456051D01*
X159494423Y-86499206D01*
X159494318Y-86500000D01*
X159494853Y-86504064D01*
X159506806Y-86594853D01*
X159514956Y-86656762D01*
X159516524Y-86660547D01*
X159516524Y-86660548D01*
X159567424Y-86783431D01*
X159575464Y-86802841D01*
X159671718Y-86928282D01*
X159797159Y-87024536D01*
X159800942Y-87026103D01*
X159939452Y-87083476D01*
X159939453Y-87083476D01*
X159943238Y-87085044D01*
X159947300Y-87085579D01*
X159947301Y-87085579D01*
X160095936Y-87105147D01*
X160100000Y-87105682D01*
X160104064Y-87105147D01*
X160252699Y-87085579D01*
X160252700Y-87085579D01*
X160256762Y-87085044D01*
X160260547Y-87083476D01*
X160260548Y-87083476D01*
X160399058Y-87026103D01*
X160402841Y-87024536D01*
X160528282Y-86928282D01*
X160547379Y-86903394D01*
X160589618Y-86879375D01*
X160608512Y-86877139D01*
X160618703Y-86875933D01*
X160626048Y-86875500D01*
X160631193Y-86875500D01*
X160651495Y-86872121D01*
X160654377Y-86871711D01*
X160706210Y-86865576D01*
X160710869Y-86863339D01*
X160714575Y-86862262D01*
X160718219Y-86861015D01*
X160723313Y-86860167D01*
X160727856Y-86857716D01*
X160727858Y-86857715D01*
X160769247Y-86835382D01*
X160771872Y-86834045D01*
X160772363Y-86833809D01*
X160812380Y-86814594D01*
X160860142Y-86811966D01*
X160895774Y-86843881D01*
X160898402Y-86891644D01*
X160886280Y-86912307D01*
X160877377Y-86922388D01*
X160816447Y-87052163D01*
X160794391Y-87193823D01*
X160794968Y-87198236D01*
X160794968Y-87198238D01*
X160801819Y-87250628D01*
X160812980Y-87335979D01*
X160870720Y-87467203D01*
X160873584Y-87470610D01*
X160960107Y-87573543D01*
X160960110Y-87573546D01*
X160962970Y-87576948D01*
X161082313Y-87656390D01*
X161219157Y-87699142D01*
X161223608Y-87699224D01*
X161223617Y-87699225D01*
X161265899Y-87700000D01*
X161308947Y-87718295D01*
X162287571Y-88696919D01*
X162305877Y-88741113D01*
X162287571Y-88785307D01*
X162259839Y-88801318D01*
X162256427Y-88801767D01*
X162110348Y-88862275D01*
X161984907Y-88958529D01*
X161888653Y-89083970D01*
X161887086Y-89087753D01*
X161861227Y-89150181D01*
X161827402Y-89184006D01*
X161779567Y-89184005D01*
X161745742Y-89150180D01*
X161742186Y-89138455D01*
X161740068Y-89127806D01*
X161740068Y-89127805D01*
X161738867Y-89121769D01*
X161728389Y-89106087D01*
X161697969Y-89060562D01*
X161694552Y-89055448D01*
X161677680Y-89044174D01*
X161633347Y-89014551D01*
X161633345Y-89014550D01*
X161628231Y-89011133D01*
X161622197Y-89009933D01*
X161622195Y-89009932D01*
X161572761Y-89000099D01*
X161572758Y-89000099D01*
X161569748Y-88999500D01*
X159730252Y-88999500D01*
X159727242Y-89000099D01*
X159727239Y-89000099D01*
X159677805Y-89009932D01*
X159677803Y-89009933D01*
X159671769Y-89011133D01*
X159666655Y-89014550D01*
X159666653Y-89014551D01*
X159622320Y-89044174D01*
X159605448Y-89055448D01*
X159602031Y-89060562D01*
X159571612Y-89106087D01*
X159561133Y-89121769D01*
X159559933Y-89127803D01*
X159559932Y-89127805D01*
X159550099Y-89177239D01*
X159549500Y-89180252D01*
X159549500Y-91419748D01*
X159550099Y-91422758D01*
X159550099Y-91422761D01*
X159555147Y-91448135D01*
X159561133Y-91478231D01*
X159605448Y-91544552D01*
X159610562Y-91547969D01*
X159666653Y-91585449D01*
X159666655Y-91585450D01*
X159671769Y-91588867D01*
X159677803Y-91590067D01*
X159677805Y-91590068D01*
X159727239Y-91599901D01*
X159727242Y-91599901D01*
X159730252Y-91600500D01*
X161569748Y-91600500D01*
X161572758Y-91599901D01*
X161572761Y-91599901D01*
X161622195Y-91590068D01*
X161622197Y-91590067D01*
X161628231Y-91588867D01*
X161633345Y-91585450D01*
X161633347Y-91585449D01*
X161689438Y-91547969D01*
X161694552Y-91544552D01*
X161738867Y-91478231D01*
X161744854Y-91448135D01*
X161749901Y-91422761D01*
X161749901Y-91422758D01*
X161750500Y-91419748D01*
X161750500Y-89670329D01*
X161768806Y-89626135D01*
X161813000Y-89607829D01*
X161857194Y-89626135D01*
X161870742Y-89646411D01*
X161888653Y-89689652D01*
X161984907Y-89815093D01*
X162063237Y-89875198D01*
X162087154Y-89916624D01*
X162087689Y-89924782D01*
X162087689Y-89996248D01*
X162087451Y-90001695D01*
X162083925Y-90041996D01*
X162085340Y-90047276D01*
X162085340Y-90047278D01*
X162094396Y-90081072D01*
X162095576Y-90086393D01*
X162102601Y-90126234D01*
X162105334Y-90130968D01*
X162105336Y-90130973D01*
X162105757Y-90131702D01*
X162112001Y-90146775D01*
X162112039Y-90146915D01*
X162113635Y-90152873D01*
X162116769Y-90157348D01*
X162116769Y-90157349D01*
X162136839Y-90186011D01*
X162139764Y-90190603D01*
X162159995Y-90225644D01*
X162164184Y-90229159D01*
X162190991Y-90251653D01*
X162195011Y-90255337D01*
X165157854Y-93218180D01*
X165161538Y-93222200D01*
X165165758Y-93227229D01*
X165187545Y-93253194D01*
X165222586Y-93273425D01*
X165227178Y-93276350D01*
X165260316Y-93299554D01*
X165265593Y-93300968D01*
X165265595Y-93300969D01*
X165266414Y-93301188D01*
X165281487Y-93307432D01*
X165282216Y-93307853D01*
X165282221Y-93307855D01*
X165286955Y-93310588D01*
X165326796Y-93317613D01*
X165332117Y-93318793D01*
X165365911Y-93327849D01*
X165365913Y-93327849D01*
X165371193Y-93329264D01*
X165411497Y-93325738D01*
X165416945Y-93325500D01*
X168341648Y-93325500D01*
X168370022Y-93332312D01*
X168400910Y-93348050D01*
X168470314Y-93383413D01*
X168474696Y-93385646D01*
X168600000Y-93405492D01*
X168725304Y-93385646D01*
X168838342Y-93328050D01*
X168928050Y-93238342D01*
X168985646Y-93125304D01*
X169005492Y-93000000D01*
X168985646Y-92874696D01*
X168928050Y-92761658D01*
X168838342Y-92671950D01*
X168725304Y-92614354D01*
X168600000Y-92594508D01*
X168474696Y-92614354D01*
X168470316Y-92616586D01*
X168470315Y-92616586D01*
X168370023Y-92667688D01*
X168341648Y-92674500D01*
X165560714Y-92674500D01*
X165516520Y-92656194D01*
X162797908Y-89937582D01*
X162779602Y-89893388D01*
X162797908Y-89849194D01*
X162804055Y-89843803D01*
X162838223Y-89817585D01*
X162841471Y-89815093D01*
X162937725Y-89689652D01*
X162998233Y-89543573D01*
X162998671Y-89540246D01*
X163027637Y-89502497D01*
X163075063Y-89496253D01*
X163103081Y-89512429D01*
X165708837Y-92118185D01*
X165712522Y-92122206D01*
X165738523Y-92153194D01*
X165773557Y-92173421D01*
X165778146Y-92176344D01*
X165811294Y-92199554D01*
X165816569Y-92200967D01*
X165816574Y-92200970D01*
X165817397Y-92201190D01*
X165832462Y-92207430D01*
X165833195Y-92207853D01*
X165837933Y-92210588D01*
X165877769Y-92217613D01*
X165883087Y-92218791D01*
X165916893Y-92227849D01*
X165916894Y-92227849D01*
X165922171Y-92229263D01*
X165927614Y-92228787D01*
X165927616Y-92228787D01*
X165962464Y-92225738D01*
X165967911Y-92225500D01*
X166241648Y-92225500D01*
X166270023Y-92232312D01*
X166370314Y-92283413D01*
X166374696Y-92285646D01*
X166500000Y-92305492D01*
X166534675Y-92300000D01*
X173094508Y-92300000D01*
X173114354Y-92425304D01*
X173171950Y-92538342D01*
X173261658Y-92628050D01*
X173374696Y-92685646D01*
X173414791Y-92691996D01*
X173449207Y-92709533D01*
X174357854Y-93618180D01*
X174361538Y-93622200D01*
X174387545Y-93653194D01*
X174422586Y-93673425D01*
X174427178Y-93676350D01*
X174460316Y-93699554D01*
X174465593Y-93700968D01*
X174465595Y-93700969D01*
X174466414Y-93701188D01*
X174481487Y-93707432D01*
X174482216Y-93707853D01*
X174482221Y-93707855D01*
X174486955Y-93710588D01*
X174526796Y-93717613D01*
X174532117Y-93718793D01*
X174565911Y-93727849D01*
X174565913Y-93727849D01*
X174571193Y-93729264D01*
X174611494Y-93725738D01*
X174616941Y-93725500D01*
X177539286Y-93725500D01*
X177583480Y-93743806D01*
X178656194Y-94816520D01*
X178674500Y-94860714D01*
X178674500Y-95239286D01*
X178656194Y-95283480D01*
X178509060Y-95430615D01*
X178464866Y-95448921D01*
X178425489Y-95434832D01*
X178424020Y-95433363D01*
X178369669Y-95397047D01*
X178369668Y-95397046D01*
X178369666Y-95397045D01*
X178364549Y-95393626D01*
X178270711Y-95374961D01*
X178176873Y-95393626D01*
X178117401Y-95433363D01*
X177433363Y-96117401D01*
X177393626Y-96176873D01*
X177374961Y-96270711D01*
X177393626Y-96364549D01*
X177397045Y-96369666D01*
X177397046Y-96369668D01*
X177431657Y-96421467D01*
X177433363Y-96424020D01*
X177856194Y-96846851D01*
X177874500Y-96891045D01*
X177874500Y-97433059D01*
X177874262Y-97438506D01*
X177870736Y-97478807D01*
X177872151Y-97484087D01*
X177872151Y-97484089D01*
X177881207Y-97517883D01*
X177882387Y-97523204D01*
X177889412Y-97563045D01*
X177892145Y-97567779D01*
X177892147Y-97567784D01*
X177892568Y-97568513D01*
X177898812Y-97583586D01*
X177900446Y-97589684D01*
X177903580Y-97594159D01*
X177903580Y-97594160D01*
X177923650Y-97622822D01*
X177926575Y-97627414D01*
X177946806Y-97662455D01*
X177950995Y-97665970D01*
X177977801Y-97688463D01*
X177981821Y-97692147D01*
X178131194Y-97841520D01*
X178149500Y-97885714D01*
X178149500Y-98483688D01*
X178150099Y-98486698D01*
X178150099Y-98486701D01*
X178151514Y-98493813D01*
X178163454Y-98553839D01*
X178216609Y-98633391D01*
X178221726Y-98636810D01*
X178291042Y-98683126D01*
X178291044Y-98683127D01*
X178296161Y-98686546D01*
X178328070Y-98692893D01*
X178363299Y-98699901D01*
X178363302Y-98699901D01*
X178366312Y-98700500D01*
X178614286Y-98700500D01*
X178658480Y-98718806D01*
X179077214Y-99137540D01*
X179095520Y-99181734D01*
X179095104Y-99187115D01*
X179095076Y-99189425D01*
X179094391Y-99193823D01*
X179094968Y-99198236D01*
X179094968Y-99198238D01*
X179096814Y-99212354D01*
X179112980Y-99335979D01*
X179114773Y-99340054D01*
X179143195Y-99404647D01*
X179170720Y-99467203D01*
X179173584Y-99470610D01*
X179260107Y-99573543D01*
X179260110Y-99573546D01*
X179262970Y-99576948D01*
X179382313Y-99656390D01*
X179386564Y-99657718D01*
X179514905Y-99697814D01*
X179514908Y-99697814D01*
X179519157Y-99699142D01*
X179523609Y-99699224D01*
X179523611Y-99699224D01*
X179594642Y-99700526D01*
X179662499Y-99701770D01*
X179800817Y-99664060D01*
X179922991Y-99589045D01*
X180019200Y-99482754D01*
X180059135Y-99400328D01*
X180094878Y-99368538D01*
X180142632Y-99371333D01*
X180174422Y-99407076D01*
X180177747Y-99423491D01*
X180193592Y-99665230D01*
X180195244Y-99690442D01*
X180251519Y-99973356D01*
X180252174Y-99975287D01*
X180252175Y-99975289D01*
X180343422Y-100244092D01*
X180344241Y-100246505D01*
X180471822Y-100505214D01*
X180472950Y-100506903D01*
X180472954Y-100506909D01*
X180630598Y-100742839D01*
X180632080Y-100745057D01*
X180822273Y-100961930D01*
X181039146Y-101152123D01*
X181040840Y-101153255D01*
X181040844Y-101153258D01*
X181277294Y-101311249D01*
X181277300Y-101311253D01*
X181278989Y-101312381D01*
X181537698Y-101439962D01*
X181539629Y-101440617D01*
X181539635Y-101440620D01*
X181808914Y-101532028D01*
X181810847Y-101532684D01*
X182093761Y-101588959D01*
X182095795Y-101589092D01*
X182095800Y-101589093D01*
X182379556Y-101607691D01*
X182381600Y-101607825D01*
X182383644Y-101607691D01*
X182667400Y-101589093D01*
X182667405Y-101589092D01*
X182669439Y-101588959D01*
X182952353Y-101532684D01*
X182954286Y-101532028D01*
X183223565Y-101440620D01*
X183223571Y-101440617D01*
X183225502Y-101439962D01*
X183484211Y-101312381D01*
X183485900Y-101311253D01*
X183485906Y-101311249D01*
X183722356Y-101153258D01*
X183722360Y-101153255D01*
X183724054Y-101152123D01*
X183940927Y-100961930D01*
X184131120Y-100745057D01*
X184132602Y-100742839D01*
X184290246Y-100506909D01*
X184290250Y-100506903D01*
X184291378Y-100505214D01*
X184418959Y-100246505D01*
X184419779Y-100244092D01*
X184511025Y-99975289D01*
X184511026Y-99975287D01*
X184511681Y-99973356D01*
X184567956Y-99690442D01*
X184569609Y-99665230D01*
X184586688Y-99404647D01*
X184586822Y-99402603D01*
X184582166Y-99331563D01*
X184568090Y-99116803D01*
X184568089Y-99116798D01*
X184567956Y-99114764D01*
X184511681Y-98831850D01*
X184508450Y-98822332D01*
X184419617Y-98560638D01*
X184419614Y-98560632D01*
X184418959Y-98558701D01*
X184291378Y-98299992D01*
X184290250Y-98298303D01*
X184290246Y-98298297D01*
X184132255Y-98061847D01*
X184132252Y-98061843D01*
X184131120Y-98060149D01*
X183940927Y-97843276D01*
X183724054Y-97653083D01*
X183722360Y-97651951D01*
X183722356Y-97651948D01*
X183485906Y-97493957D01*
X183485900Y-97493953D01*
X183484211Y-97492825D01*
X183225502Y-97365244D01*
X183223571Y-97364589D01*
X183223565Y-97364586D01*
X182954286Y-97273178D01*
X182954284Y-97273177D01*
X182952353Y-97272522D01*
X182669439Y-97216247D01*
X182667405Y-97216114D01*
X182667400Y-97216113D01*
X182383644Y-97197515D01*
X182381600Y-97197381D01*
X182379556Y-97197515D01*
X182095800Y-97216113D01*
X182095795Y-97216114D01*
X182093761Y-97216247D01*
X181810847Y-97272522D01*
X181808916Y-97273177D01*
X181808914Y-97273178D01*
X181539635Y-97364586D01*
X181539629Y-97364589D01*
X181537698Y-97365244D01*
X181278989Y-97492825D01*
X181277300Y-97493953D01*
X181277294Y-97493957D01*
X181040844Y-97651948D01*
X181040840Y-97651951D01*
X181039146Y-97653083D01*
X180822273Y-97843276D01*
X180632080Y-98060149D01*
X180630948Y-98061843D01*
X180630945Y-98061847D01*
X180472954Y-98298297D01*
X180472950Y-98298303D01*
X180471822Y-98299992D01*
X180344241Y-98558701D01*
X180343586Y-98560632D01*
X180343583Y-98560638D01*
X180254750Y-98822332D01*
X180251519Y-98831850D01*
X180233150Y-98924201D01*
X180206923Y-99056052D01*
X180180347Y-99095826D01*
X180133431Y-99105158D01*
X180093657Y-99078582D01*
X180085870Y-99061902D01*
X180085323Y-99058082D01*
X180025984Y-98927572D01*
X179932400Y-98818963D01*
X179812095Y-98740985D01*
X179674739Y-98699907D01*
X179585193Y-98699360D01*
X179541381Y-98681055D01*
X179368806Y-98508480D01*
X179350500Y-98464286D01*
X179350500Y-97516312D01*
X179336546Y-97446161D01*
X179283391Y-97366609D01*
X179267734Y-97356147D01*
X179208958Y-97316874D01*
X179208956Y-97316873D01*
X179203839Y-97313454D01*
X179171930Y-97307107D01*
X179136701Y-97300099D01*
X179136698Y-97300099D01*
X179133688Y-97299500D01*
X178588000Y-97299500D01*
X178543806Y-97281194D01*
X178525500Y-97237000D01*
X178525500Y-96749624D01*
X178543806Y-96705430D01*
X178966637Y-96282599D01*
X179006374Y-96223127D01*
X179025039Y-96129289D01*
X179006374Y-96035451D01*
X178966637Y-95975980D01*
X178965190Y-95974533D01*
X178951381Y-95929008D01*
X178969386Y-95890941D01*
X179218180Y-95642146D01*
X179222200Y-95638462D01*
X179249005Y-95615970D01*
X179253194Y-95612455D01*
X179273425Y-95577414D01*
X179276350Y-95572822D01*
X179296420Y-95544160D01*
X179296420Y-95544159D01*
X179299554Y-95539684D01*
X179301188Y-95533586D01*
X179307432Y-95518513D01*
X179307853Y-95517784D01*
X179307855Y-95517779D01*
X179310588Y-95513045D01*
X179317613Y-95473204D01*
X179318793Y-95467883D01*
X179327849Y-95434089D01*
X179327849Y-95434087D01*
X179329264Y-95428807D01*
X179325738Y-95388502D01*
X179325500Y-95383055D01*
X179325500Y-94716941D01*
X179325738Y-94711494D01*
X179326388Y-94704064D01*
X179329264Y-94671193D01*
X179318793Y-94632117D01*
X179317612Y-94626793D01*
X179311537Y-94592338D01*
X179310588Y-94586955D01*
X179307855Y-94582221D01*
X179307853Y-94582216D01*
X179307432Y-94581487D01*
X179301188Y-94566414D01*
X179300969Y-94565595D01*
X179300968Y-94565593D01*
X179299554Y-94560316D01*
X179284945Y-94539452D01*
X179276350Y-94527178D01*
X179273420Y-94522579D01*
X179255927Y-94492279D01*
X179253194Y-94487545D01*
X179222198Y-94461536D01*
X179218178Y-94457852D01*
X177942146Y-93181820D01*
X177938462Y-93177800D01*
X177915970Y-93150995D01*
X177912455Y-93146806D01*
X177877414Y-93126575D01*
X177872822Y-93123650D01*
X177844160Y-93103580D01*
X177844159Y-93103580D01*
X177839684Y-93100446D01*
X177834407Y-93099032D01*
X177834405Y-93099031D01*
X177833586Y-93098812D01*
X177818513Y-93092568D01*
X177817784Y-93092147D01*
X177817779Y-93092145D01*
X177813045Y-93089412D01*
X177773204Y-93082387D01*
X177767883Y-93081207D01*
X177734089Y-93072151D01*
X177734087Y-93072151D01*
X177728807Y-93070736D01*
X177690549Y-93074083D01*
X177688506Y-93074262D01*
X177683059Y-93074500D01*
X174760714Y-93074500D01*
X174716520Y-93056194D01*
X173909533Y-92249207D01*
X173891996Y-92214790D01*
X173891331Y-92210588D01*
X173885646Y-92174696D01*
X173828050Y-92061658D01*
X173738342Y-91971950D01*
X173625304Y-91914354D01*
X173500000Y-91894508D01*
X173374696Y-91914354D01*
X173261658Y-91971950D01*
X173171950Y-92061658D01*
X173114354Y-92174696D01*
X173094508Y-92300000D01*
X166534675Y-92300000D01*
X166625304Y-92285646D01*
X166738342Y-92228050D01*
X166828050Y-92138342D01*
X166885646Y-92025304D01*
X166905492Y-91900000D01*
X166885646Y-91774696D01*
X166828050Y-91661658D01*
X166738342Y-91571950D01*
X166625304Y-91514354D01*
X166500000Y-91494508D01*
X166374696Y-91514354D01*
X166370316Y-91516586D01*
X166370315Y-91516586D01*
X166270023Y-91567688D01*
X166241648Y-91574500D01*
X166111693Y-91574500D01*
X166067499Y-91556194D01*
X162518498Y-88007194D01*
X162500192Y-87963000D01*
X162518498Y-87918806D01*
X162562692Y-87900500D01*
X162719748Y-87900500D01*
X162722758Y-87899901D01*
X162722761Y-87899901D01*
X162772195Y-87890068D01*
X162772197Y-87890067D01*
X162778231Y-87888867D01*
X162783345Y-87885450D01*
X162783347Y-87885449D01*
X162839438Y-87847969D01*
X162844552Y-87844552D01*
X162870882Y-87805147D01*
X162885449Y-87783347D01*
X162885450Y-87783345D01*
X162888867Y-87778231D01*
X162900500Y-87719748D01*
X162900500Y-86380252D01*
X162896694Y-86361115D01*
X162890068Y-86327808D01*
X162888867Y-86321769D01*
X162885446Y-86316650D01*
X162883091Y-86310963D01*
X162883936Y-86310613D01*
X162875500Y-86282805D01*
X162875500Y-86261692D01*
X162893806Y-86217498D01*
X163122273Y-85989031D01*
X163166467Y-85970725D01*
X163210661Y-85989031D01*
X163228967Y-86033225D01*
X163226837Y-86049401D01*
X163224468Y-86058243D01*
X163220736Y-86072171D01*
X163222793Y-86095681D01*
X163224262Y-86112472D01*
X163224500Y-86117919D01*
X163224500Y-86282805D01*
X163216064Y-86310613D01*
X163216909Y-86310963D01*
X163214554Y-86316650D01*
X163211133Y-86321769D01*
X163209932Y-86327808D01*
X163203307Y-86361115D01*
X163199500Y-86380252D01*
X163199500Y-87719748D01*
X163211133Y-87778231D01*
X163214550Y-87783345D01*
X163214551Y-87783347D01*
X163229118Y-87805147D01*
X163255448Y-87844552D01*
X163260562Y-87847969D01*
X163316653Y-87885449D01*
X163316655Y-87885450D01*
X163321769Y-87888867D01*
X163327803Y-87890067D01*
X163327805Y-87890068D01*
X163377239Y-87899901D01*
X163377242Y-87899901D01*
X163380252Y-87900500D01*
X163662000Y-87900500D01*
X163706194Y-87918806D01*
X163724500Y-87963000D01*
X163724500Y-88389235D01*
X163724262Y-88394682D01*
X163720736Y-88434983D01*
X163722151Y-88440263D01*
X163722151Y-88440265D01*
X163731207Y-88474059D01*
X163732387Y-88479380D01*
X163739412Y-88519221D01*
X163742145Y-88523955D01*
X163742147Y-88523960D01*
X163742568Y-88524689D01*
X163748812Y-88539762D01*
X163750446Y-88545860D01*
X163753580Y-88550335D01*
X163753580Y-88550336D01*
X163773650Y-88578998D01*
X163776575Y-88583590D01*
X163796806Y-88618631D01*
X163800995Y-88622146D01*
X163827802Y-88644640D01*
X163831822Y-88648324D01*
X166444326Y-91260829D01*
X166448010Y-91264849D01*
X166474012Y-91295837D01*
X166478745Y-91298570D01*
X166478748Y-91298572D01*
X166509057Y-91316070D01*
X166513633Y-91318985D01*
X166546783Y-91342196D01*
X166552062Y-91343611D01*
X166552065Y-91343612D01*
X166552884Y-91343831D01*
X166567946Y-91350070D01*
X166573422Y-91353231D01*
X166578800Y-91354179D01*
X166578802Y-91354180D01*
X166598918Y-91357726D01*
X166613278Y-91360258D01*
X166618581Y-91361434D01*
X166657660Y-91371906D01*
X166697952Y-91368381D01*
X166703400Y-91368143D01*
X168110194Y-91368143D01*
X168138569Y-91374955D01*
X168238860Y-91426056D01*
X168243242Y-91428289D01*
X168368546Y-91448135D01*
X168493850Y-91428289D01*
X168606888Y-91370693D01*
X168696596Y-91280985D01*
X168754192Y-91167947D01*
X168774038Y-91042643D01*
X168754192Y-90917339D01*
X168696596Y-90804301D01*
X168606888Y-90714593D01*
X168602510Y-90712363D01*
X168602507Y-90712360D01*
X168530630Y-90675737D01*
X168499563Y-90639363D01*
X168497273Y-90610272D01*
X168513606Y-90507147D01*
X168514375Y-90502292D01*
X168494529Y-90376988D01*
X168436933Y-90263950D01*
X168347225Y-90174242D01*
X168234187Y-90116646D01*
X168108883Y-90096800D01*
X167983579Y-90116646D01*
X167979199Y-90118878D01*
X167979198Y-90118878D01*
X167878906Y-90169980D01*
X167850531Y-90176792D01*
X166942548Y-90176792D01*
X166898354Y-90158486D01*
X166420268Y-89680400D01*
X166401962Y-89636206D01*
X166420268Y-89592012D01*
X166464462Y-89573706D01*
X168362647Y-89573706D01*
X168406841Y-89592012D01*
X168733014Y-89918186D01*
X168736698Y-89922206D01*
X168762700Y-89953194D01*
X168797734Y-89973421D01*
X168802323Y-89976344D01*
X168835471Y-89999554D01*
X168840746Y-90000967D01*
X168840751Y-90000970D01*
X168841574Y-90001190D01*
X168856639Y-90007430D01*
X168857372Y-90007853D01*
X168862110Y-90010588D01*
X168901946Y-90017613D01*
X168907264Y-90018791D01*
X168941070Y-90027849D01*
X168941071Y-90027849D01*
X168946348Y-90029263D01*
X168951791Y-90028787D01*
X168951793Y-90028787D01*
X168986641Y-90025738D01*
X168992088Y-90025500D01*
X169392146Y-90025500D01*
X169420520Y-90032312D01*
X169525194Y-90085646D01*
X169650498Y-90105492D01*
X169655353Y-90104723D01*
X169775802Y-90085646D01*
X169776198Y-90088147D01*
X169815364Y-90091222D01*
X169846437Y-90127591D01*
X169849500Y-90146915D01*
X169849500Y-91419748D01*
X169850099Y-91422758D01*
X169850099Y-91422761D01*
X169855147Y-91448135D01*
X169861133Y-91478231D01*
X169905448Y-91544552D01*
X169910562Y-91547969D01*
X169966653Y-91585449D01*
X169966655Y-91585450D01*
X169971769Y-91588867D01*
X169977803Y-91590067D01*
X169977805Y-91590068D01*
X170027239Y-91599901D01*
X170027242Y-91599901D01*
X170030252Y-91600500D01*
X171869748Y-91600500D01*
X171872758Y-91599901D01*
X171872761Y-91599901D01*
X171922195Y-91590068D01*
X171922197Y-91590067D01*
X171928231Y-91588867D01*
X171933345Y-91585450D01*
X171933347Y-91585449D01*
X171989438Y-91547969D01*
X171994552Y-91544552D01*
X172038867Y-91478231D01*
X172044854Y-91448135D01*
X172049901Y-91422761D01*
X172049901Y-91422758D01*
X172050500Y-91419748D01*
X172050500Y-89180252D01*
X172049901Y-89177239D01*
X172040068Y-89127805D01*
X172040067Y-89127803D01*
X172038867Y-89121769D01*
X172028389Y-89106087D01*
X171997969Y-89060562D01*
X171994552Y-89055448D01*
X171977680Y-89044174D01*
X171933347Y-89014551D01*
X171933345Y-89014550D01*
X171928231Y-89011133D01*
X171922197Y-89009933D01*
X171922195Y-89009932D01*
X171872761Y-89000099D01*
X171872758Y-89000099D01*
X171869748Y-88999500D01*
X170108579Y-88999500D01*
X170064385Y-88981194D01*
X170052934Y-88962504D01*
X170052097Y-88962930D01*
X170010661Y-88881608D01*
X169994501Y-88849892D01*
X169904793Y-88760184D01*
X169872418Y-88743688D01*
X169841352Y-88707313D01*
X169845105Y-88659625D01*
X169881480Y-88628559D01*
X169900793Y-88625500D01*
X173641648Y-88625500D01*
X173670022Y-88632312D01*
X173774696Y-88685646D01*
X173900000Y-88705492D01*
X173904855Y-88704723D01*
X174025304Y-88685646D01*
X174025580Y-88687389D01*
X174066724Y-88690630D01*
X174097789Y-88727006D01*
X174100312Y-88754472D01*
X174094318Y-88800000D01*
X174094853Y-88804064D01*
X174098979Y-88835403D01*
X174086599Y-88881608D01*
X174081208Y-88887755D01*
X173767532Y-89201431D01*
X173757240Y-89209743D01*
X173748130Y-89215625D01*
X173748127Y-89215627D01*
X173743790Y-89218428D01*
X173740592Y-89222485D01*
X173720951Y-89247399D01*
X173716063Y-89252900D01*
X173712425Y-89256538D01*
X173710928Y-89258632D01*
X173710927Y-89258634D01*
X173700474Y-89273262D01*
X173698705Y-89275618D01*
X173666397Y-89316600D01*
X173664685Y-89321476D01*
X173662825Y-89324859D01*
X173661131Y-89328318D01*
X173658128Y-89332519D01*
X173656649Y-89337466D01*
X173656648Y-89337467D01*
X173643176Y-89382516D01*
X173642265Y-89385318D01*
X173626280Y-89430836D01*
X173626279Y-89430840D01*
X173624977Y-89434548D01*
X173624500Y-89440055D01*
X173624500Y-89440379D01*
X173624156Y-89444437D01*
X173623789Y-89447340D01*
X173622310Y-89452287D01*
X173624283Y-89502497D01*
X173624452Y-89506802D01*
X173624500Y-89509256D01*
X173624500Y-91047636D01*
X173623100Y-91060790D01*
X173619731Y-91076439D01*
X173620338Y-91081569D01*
X173620338Y-91081571D01*
X173624067Y-91113075D01*
X173624500Y-91120421D01*
X173624500Y-91125566D01*
X173624924Y-91128111D01*
X173627876Y-91145847D01*
X173628289Y-91148750D01*
X173634424Y-91200583D01*
X173636661Y-91205242D01*
X173637738Y-91208948D01*
X173638985Y-91212592D01*
X173639833Y-91217686D01*
X173642284Y-91222229D01*
X173642285Y-91222231D01*
X173664618Y-91263620D01*
X173665955Y-91266245D01*
X173688537Y-91313273D01*
X173691068Y-91316284D01*
X173691069Y-91316285D01*
X173691224Y-91316470D01*
X173691232Y-91316479D01*
X173692094Y-91317504D01*
X173692320Y-91317730D01*
X173694947Y-91320842D01*
X173696740Y-91323153D01*
X173699194Y-91327702D01*
X173702990Y-91331211D01*
X173739267Y-91364745D01*
X173741036Y-91366446D01*
X173995276Y-91620686D01*
X174013582Y-91664880D01*
X174013047Y-91673037D01*
X174008386Y-91708441D01*
X174029024Y-91865203D01*
X174030592Y-91868988D01*
X174030592Y-91868989D01*
X174049383Y-91914354D01*
X174089532Y-92011282D01*
X174185786Y-92136723D01*
X174311227Y-92232977D01*
X174315010Y-92234544D01*
X174453520Y-92291917D01*
X174453521Y-92291917D01*
X174457306Y-92293485D01*
X174461368Y-92294020D01*
X174461369Y-92294020D01*
X174610004Y-92313588D01*
X174614068Y-92314123D01*
X174618132Y-92313588D01*
X174766767Y-92294020D01*
X174766768Y-92294020D01*
X174770830Y-92293485D01*
X174774615Y-92291917D01*
X174774616Y-92291917D01*
X174913126Y-92234544D01*
X174916909Y-92232977D01*
X175042350Y-92136723D01*
X175138604Y-92011282D01*
X175178753Y-91914354D01*
X175197544Y-91868989D01*
X175197544Y-91868988D01*
X175199112Y-91865203D01*
X175219750Y-91708441D01*
X175203558Y-91585449D01*
X175199647Y-91555742D01*
X175199647Y-91555741D01*
X175199112Y-91551679D01*
X175184577Y-91516587D01*
X175140171Y-91409383D01*
X175138604Y-91405600D01*
X175042350Y-91280159D01*
X174916909Y-91183905D01*
X174896321Y-91175377D01*
X174774616Y-91124965D01*
X174774615Y-91124965D01*
X174770830Y-91123397D01*
X174766768Y-91122862D01*
X174766767Y-91122862D01*
X174618132Y-91103294D01*
X174614068Y-91102759D01*
X174578665Y-91107420D01*
X174550972Y-91100000D01*
X175200000Y-91100000D01*
X176374112Y-91100000D01*
X176418306Y-91118306D01*
X177300000Y-92000000D01*
X178083402Y-92000000D01*
X178114411Y-92008235D01*
X178800000Y-92400000D01*
X179837500Y-92400000D01*
X179881694Y-92418306D01*
X179900000Y-92462500D01*
X179900000Y-93300000D01*
X183600000Y-93400000D01*
X183600000Y-89000000D01*
X180200000Y-89000000D01*
X180191394Y-89007746D01*
X180191393Y-89007746D01*
X179216769Y-89884908D01*
X179177458Y-89900902D01*
X176793800Y-89996248D01*
X176701250Y-89999950D01*
X176698752Y-90000000D01*
X175200000Y-90000000D01*
X175200000Y-91100000D01*
X174550972Y-91100000D01*
X174532460Y-91095040D01*
X174526313Y-91089649D01*
X174393806Y-90957142D01*
X174375500Y-90912948D01*
X174375500Y-89681425D01*
X174393806Y-89637231D01*
X174612245Y-89418792D01*
X174656439Y-89400486D01*
X174664596Y-89401021D01*
X174700000Y-89405682D01*
X174704064Y-89405147D01*
X174852699Y-89385579D01*
X174852700Y-89385579D01*
X174856762Y-89385044D01*
X174860547Y-89383476D01*
X174860548Y-89383476D01*
X174999058Y-89326103D01*
X175002841Y-89324536D01*
X175128282Y-89228282D01*
X175224536Y-89102841D01*
X175285044Y-88956762D01*
X175305682Y-88800000D01*
X175285044Y-88643238D01*
X175280519Y-88632312D01*
X175226103Y-88500942D01*
X175224536Y-88497159D01*
X175128282Y-88371718D01*
X175002841Y-88275464D01*
X174920046Y-88241169D01*
X174860548Y-88216524D01*
X174860547Y-88216524D01*
X174856762Y-88214956D01*
X174852700Y-88214421D01*
X174852699Y-88214421D01*
X174704064Y-88194853D01*
X174700000Y-88194318D01*
X174695936Y-88194853D01*
X174547301Y-88214421D01*
X174547300Y-88214421D01*
X174543238Y-88214956D01*
X174539453Y-88216524D01*
X174539452Y-88216524D01*
X174479954Y-88241169D01*
X174397159Y-88275464D01*
X174393913Y-88277955D01*
X174390358Y-88280007D01*
X174389462Y-88278455D01*
X174349086Y-88289265D01*
X174307664Y-88265338D01*
X174295526Y-88237078D01*
X174288839Y-88194853D01*
X174285646Y-88174696D01*
X174283414Y-88170316D01*
X174283413Y-88170312D01*
X174242937Y-88090874D01*
X174239184Y-88043186D01*
X174270251Y-88006812D01*
X174298625Y-88000000D01*
X174400000Y-88000000D01*
X175000000Y-87200000D01*
X178694318Y-87200000D01*
X178694853Y-87204064D01*
X178711639Y-87331563D01*
X178714956Y-87356762D01*
X178775464Y-87502841D01*
X178871718Y-87628282D01*
X178997159Y-87724536D01*
X179000942Y-87726103D01*
X179139452Y-87783476D01*
X179139453Y-87783476D01*
X179143238Y-87785044D01*
X179147300Y-87785579D01*
X179147301Y-87785579D01*
X179295936Y-87805147D01*
X179300000Y-87805682D01*
X179304064Y-87805147D01*
X179452699Y-87785579D01*
X179452700Y-87785579D01*
X179456762Y-87785044D01*
X179460547Y-87783476D01*
X179460548Y-87783476D01*
X179599058Y-87726103D01*
X179602841Y-87724536D01*
X179728282Y-87628282D01*
X179824536Y-87502841D01*
X179885044Y-87356762D01*
X179888362Y-87331563D01*
X179905147Y-87204064D01*
X179905682Y-87200000D01*
X179893265Y-87105682D01*
X179885579Y-87047301D01*
X179885579Y-87047300D01*
X179885044Y-87043238D01*
X179877947Y-87026103D01*
X179826103Y-86900942D01*
X179824536Y-86897159D01*
X179728282Y-86771718D01*
X179602841Y-86675464D01*
X179566831Y-86660548D01*
X179460548Y-86616524D01*
X179460547Y-86616524D01*
X179456762Y-86614956D01*
X179452700Y-86614421D01*
X179452699Y-86614421D01*
X179304064Y-86594853D01*
X179300000Y-86594318D01*
X179295936Y-86594853D01*
X179147301Y-86614421D01*
X179147300Y-86614421D01*
X179143238Y-86614956D01*
X179139453Y-86616524D01*
X179139452Y-86616524D01*
X179033169Y-86660548D01*
X178997159Y-86675464D01*
X178871718Y-86771718D01*
X178775464Y-86897159D01*
X178773897Y-86900942D01*
X178722054Y-87026103D01*
X178714956Y-87043238D01*
X178714421Y-87047300D01*
X178714421Y-87047301D01*
X178706735Y-87105682D01*
X178694318Y-87200000D01*
X175000000Y-87200000D01*
X175300000Y-86800000D01*
X174594432Y-86423697D01*
X173811881Y-86006336D01*
X173811880Y-86006336D01*
X173800000Y-86000000D01*
X173552517Y-86092806D01*
X173319826Y-86180065D01*
X173272018Y-86178442D01*
X173239360Y-86143489D01*
X173240983Y-86095681D01*
X173253687Y-86077350D01*
X174332468Y-84998569D01*
X174342760Y-84990257D01*
X174351870Y-84984375D01*
X174351873Y-84984373D01*
X174356210Y-84981572D01*
X174379049Y-84952601D01*
X174383937Y-84947100D01*
X174387575Y-84943462D01*
X174399526Y-84926738D01*
X174401295Y-84924382D01*
X174430403Y-84887459D01*
X174433603Y-84883400D01*
X174435315Y-84878524D01*
X174437175Y-84875141D01*
X174438869Y-84871682D01*
X174441872Y-84867481D01*
X174456828Y-84817473D01*
X174457736Y-84814679D01*
X174473720Y-84769164D01*
X174473721Y-84769160D01*
X174475023Y-84765452D01*
X174475500Y-84759945D01*
X174475500Y-84759631D01*
X174475844Y-84755566D01*
X174476211Y-84752659D01*
X174477690Y-84747714D01*
X174475548Y-84693198D01*
X174475500Y-84690745D01*
X174475500Y-83681425D01*
X174493806Y-83637231D01*
X175137231Y-82993806D01*
X175181425Y-82975500D01*
X178053263Y-82975500D01*
X178066417Y-82976900D01*
X178082066Y-82980269D01*
X178087196Y-82979662D01*
X178087198Y-82979662D01*
X178118702Y-82975933D01*
X178126048Y-82975500D01*
X178131193Y-82975500D01*
X178151495Y-82972121D01*
X178154377Y-82971711D01*
X178206210Y-82965576D01*
X178210869Y-82963339D01*
X178214575Y-82962262D01*
X178218219Y-82961015D01*
X178223313Y-82960167D01*
X178227856Y-82957716D01*
X178227858Y-82957715D01*
X178269247Y-82935382D01*
X178271872Y-82934045D01*
X178315353Y-82913166D01*
X178318900Y-82911463D01*
X178321912Y-82908931D01*
X178322097Y-82908776D01*
X178322106Y-82908768D01*
X178323131Y-82907906D01*
X178323357Y-82907680D01*
X178326469Y-82905053D01*
X178328780Y-82903260D01*
X178333329Y-82900806D01*
X178370372Y-82860733D01*
X178372073Y-82858964D01*
X182332468Y-78898569D01*
X182342760Y-78890257D01*
X182351870Y-78884375D01*
X182351873Y-78884373D01*
X182356210Y-78881572D01*
X182379049Y-78852601D01*
X182383937Y-78847100D01*
X182387575Y-78843462D01*
X182389968Y-78840114D01*
X182399526Y-78826738D01*
X182401295Y-78824382D01*
X182430403Y-78787459D01*
X182433603Y-78783400D01*
X182435315Y-78778524D01*
X182437175Y-78775141D01*
X182438869Y-78771682D01*
X182441872Y-78767481D01*
X182456828Y-78717473D01*
X182457736Y-78714679D01*
X182473720Y-78669164D01*
X182473721Y-78669160D01*
X182475023Y-78665452D01*
X182475500Y-78659945D01*
X182475500Y-78659631D01*
X182475844Y-78655566D01*
X182476211Y-78652659D01*
X182477690Y-78647714D01*
X182475548Y-78593198D01*
X182475500Y-78590745D01*
X182475500Y-77146741D01*
X182476900Y-77133587D01*
X182479182Y-77122986D01*
X182480270Y-77117934D01*
X182475933Y-77081290D01*
X182475500Y-77073944D01*
X182475500Y-77068807D01*
X182472127Y-77048542D01*
X182471712Y-77045626D01*
X182469735Y-77028925D01*
X182465577Y-76993791D01*
X182463340Y-76989133D01*
X182462269Y-76985446D01*
X182461015Y-76981785D01*
X182460167Y-76976687D01*
X182449369Y-76956674D01*
X182435391Y-76930768D01*
X182434054Y-76928145D01*
X182419630Y-76898108D01*
X182411463Y-76881101D01*
X182407906Y-76876869D01*
X182407684Y-76876647D01*
X182405053Y-76873530D01*
X182403259Y-76871217D01*
X182400806Y-76866671D01*
X182360733Y-76829628D01*
X182358964Y-76827927D01*
X181398569Y-75867532D01*
X181390257Y-75857240D01*
X181384375Y-75848130D01*
X181384373Y-75848127D01*
X181381572Y-75843790D01*
X181352601Y-75820951D01*
X181347100Y-75816063D01*
X181343462Y-75812425D01*
X181326738Y-75800474D01*
X181324382Y-75798705D01*
X181287459Y-75769597D01*
X181283400Y-75766397D01*
X181278524Y-75764685D01*
X181275141Y-75762825D01*
X181271682Y-75761131D01*
X181267481Y-75758128D01*
X181262534Y-75756649D01*
X181262533Y-75756648D01*
X181239013Y-75749614D01*
X181217476Y-75743173D01*
X181214682Y-75742265D01*
X181169164Y-75726280D01*
X181169160Y-75726279D01*
X181165452Y-75724977D01*
X181159945Y-75724500D01*
X181159621Y-75724500D01*
X181155563Y-75724156D01*
X181152660Y-75723789D01*
X181147713Y-75722310D01*
X181093198Y-75724452D01*
X181090744Y-75724500D01*
X177857547Y-75724500D01*
X177813353Y-75706194D01*
X177795066Y-75663524D01*
X177717971Y-72502603D01*
X180186378Y-72502603D01*
X180205244Y-72790442D01*
X180261519Y-73073356D01*
X180354241Y-73346505D01*
X180481822Y-73605214D01*
X180482950Y-73606903D01*
X180482954Y-73606909D01*
X180640945Y-73843359D01*
X180642080Y-73845057D01*
X180832273Y-74061930D01*
X181049146Y-74252123D01*
X181050840Y-74253255D01*
X181050844Y-74253258D01*
X181287294Y-74411249D01*
X181287300Y-74411253D01*
X181288989Y-74412381D01*
X181547698Y-74539962D01*
X181549629Y-74540617D01*
X181549635Y-74540620D01*
X181818914Y-74632028D01*
X181820847Y-74632684D01*
X182103761Y-74688959D01*
X182105795Y-74689092D01*
X182105800Y-74689093D01*
X182389556Y-74707691D01*
X182391600Y-74707825D01*
X182393644Y-74707691D01*
X182677400Y-74689093D01*
X182677405Y-74689092D01*
X182679439Y-74688959D01*
X182962353Y-74632684D01*
X182964286Y-74632028D01*
X183233565Y-74540620D01*
X183233571Y-74540617D01*
X183235502Y-74539962D01*
X183494211Y-74412381D01*
X183495900Y-74411253D01*
X183495906Y-74411249D01*
X183732356Y-74253258D01*
X183732360Y-74253255D01*
X183734054Y-74252123D01*
X183950927Y-74061930D01*
X184141120Y-73845057D01*
X184142255Y-73843359D01*
X184300246Y-73606909D01*
X184300250Y-73606903D01*
X184301378Y-73605214D01*
X184428959Y-73346505D01*
X184521681Y-73073356D01*
X184577956Y-72790442D01*
X184596822Y-72502603D01*
X184595160Y-72477239D01*
X184578090Y-72216803D01*
X184578089Y-72216798D01*
X184577956Y-72214764D01*
X184521681Y-71931850D01*
X184521025Y-71929917D01*
X184429617Y-71660638D01*
X184429614Y-71660632D01*
X184428959Y-71658701D01*
X184301378Y-71399992D01*
X184300250Y-71398303D01*
X184300246Y-71398297D01*
X184142255Y-71161847D01*
X184142252Y-71161843D01*
X184141120Y-71160149D01*
X183950927Y-70943276D01*
X183734054Y-70753083D01*
X183732360Y-70751951D01*
X183732356Y-70751948D01*
X183495906Y-70593957D01*
X183495900Y-70593953D01*
X183494211Y-70592825D01*
X183235502Y-70465244D01*
X183233571Y-70464589D01*
X183233565Y-70464586D01*
X182964286Y-70373178D01*
X182964284Y-70373177D01*
X182962353Y-70372522D01*
X182679439Y-70316247D01*
X182677405Y-70316114D01*
X182677400Y-70316113D01*
X182393644Y-70297515D01*
X182391600Y-70297381D01*
X182389556Y-70297515D01*
X182105800Y-70316113D01*
X182105795Y-70316114D01*
X182103761Y-70316247D01*
X181820847Y-70372522D01*
X181818916Y-70373177D01*
X181818914Y-70373178D01*
X181549635Y-70464586D01*
X181549629Y-70464589D01*
X181547698Y-70465244D01*
X181288989Y-70592825D01*
X181287300Y-70593953D01*
X181287294Y-70593957D01*
X181050844Y-70751948D01*
X181050840Y-70751951D01*
X181049146Y-70753083D01*
X180832273Y-70943276D01*
X180642080Y-71160149D01*
X180640948Y-71161843D01*
X180640945Y-71161847D01*
X180482954Y-71398297D01*
X180482950Y-71398303D01*
X180481822Y-71399992D01*
X180354241Y-71658701D01*
X180353586Y-71660632D01*
X180353583Y-71660638D01*
X180262175Y-71929917D01*
X180261519Y-71931850D01*
X180205244Y-72214764D01*
X180205111Y-72216798D01*
X180205110Y-72216803D01*
X180188040Y-72477239D01*
X180186378Y-72502603D01*
X177717971Y-72502603D01*
X177710886Y-72212129D01*
X177710886Y-72212124D01*
X177710847Y-72210541D01*
X177698035Y-72108900D01*
X177686686Y-72059630D01*
X177653742Y-71962628D01*
X177651683Y-71959424D01*
X177651681Y-71959420D01*
X177586759Y-71858400D01*
X177575570Y-71840990D01*
X177529077Y-71787334D01*
X177419801Y-71692645D01*
X177288275Y-71632579D01*
X177236544Y-71617390D01*
X177222300Y-71613207D01*
X177222298Y-71613207D01*
X177220154Y-71612577D01*
X177217947Y-71612260D01*
X177217944Y-71612259D01*
X177163788Y-71604473D01*
X177077035Y-71592000D01*
X174948721Y-71592000D01*
X174947928Y-71592042D01*
X174947911Y-71592042D01*
X174896442Y-71594740D01*
X174896429Y-71594741D01*
X174895609Y-71594784D01*
X174869412Y-71597538D01*
X174868579Y-71597670D01*
X174868571Y-71597671D01*
X174855573Y-71599730D01*
X174845795Y-71600500D01*
X174754205Y-71600500D01*
X174744427Y-71599730D01*
X174731429Y-71597671D01*
X174731421Y-71597670D01*
X174730588Y-71597538D01*
X174704391Y-71594784D01*
X174703571Y-71594741D01*
X174703558Y-71594740D01*
X174652089Y-71592042D01*
X174652072Y-71592042D01*
X174651279Y-71592000D01*
X171948721Y-71592000D01*
X171947928Y-71592042D01*
X171947911Y-71592042D01*
X171896442Y-71594740D01*
X171896429Y-71594741D01*
X171895609Y-71594784D01*
X171869412Y-71597538D01*
X171868579Y-71597670D01*
X171868571Y-71597671D01*
X171855573Y-71599730D01*
X171845795Y-71600500D01*
X171754205Y-71600500D01*
X171744427Y-71599730D01*
X171731429Y-71597671D01*
X171731421Y-71597670D01*
X171730588Y-71597538D01*
X171704391Y-71594784D01*
X171703571Y-71594741D01*
X171703558Y-71594740D01*
X171652089Y-71592042D01*
X171652072Y-71592042D01*
X171651279Y-71592000D01*
X170348721Y-71592000D01*
X170347928Y-71592042D01*
X170347911Y-71592042D01*
X170296442Y-71594740D01*
X170296429Y-71594741D01*
X170295609Y-71594784D01*
X170269412Y-71597538D01*
X170268579Y-71597670D01*
X170268571Y-71597671D01*
X170255573Y-71599730D01*
X170245795Y-71600500D01*
X170154205Y-71600500D01*
X170144427Y-71599730D01*
X170131429Y-71597671D01*
X170131421Y-71597670D01*
X170130588Y-71597538D01*
X170104391Y-71594784D01*
X170103571Y-71594741D01*
X170103558Y-71594740D01*
X170052089Y-71592042D01*
X170052072Y-71592042D01*
X170051279Y-71592000D01*
X169048721Y-71592000D01*
X169047928Y-71592042D01*
X169047911Y-71592042D01*
X168996442Y-71594740D01*
X168996429Y-71594741D01*
X168995609Y-71594784D01*
X168969412Y-71597538D01*
X168968579Y-71597670D01*
X168968571Y-71597671D01*
X168955573Y-71599730D01*
X168945795Y-71600500D01*
X168854205Y-71600500D01*
X168844427Y-71599730D01*
X168831429Y-71597671D01*
X168831421Y-71597670D01*
X168830588Y-71597538D01*
X168804391Y-71594784D01*
X168803571Y-71594741D01*
X168803558Y-71594740D01*
X168752089Y-71592042D01*
X168752072Y-71592042D01*
X168751279Y-71592000D01*
X167862500Y-71592000D01*
X167818306Y-71573694D01*
X167800000Y-71529500D01*
X167800000Y-70400000D01*
X160700000Y-70400000D01*
X160692095Y-70905899D01*
X160671281Y-72237976D01*
X160652287Y-72281879D01*
X160608789Y-72299500D01*
X160580252Y-72299500D01*
X160577242Y-72300099D01*
X160577239Y-72300099D01*
X160527805Y-72309932D01*
X160527803Y-72309933D01*
X160521769Y-72311133D01*
X160516655Y-72314550D01*
X160516653Y-72314551D01*
X160472320Y-72344174D01*
X160455448Y-72355448D01*
X160411133Y-72421769D01*
X160399500Y-72480252D01*
X160399500Y-74919748D01*
X160411133Y-74978231D01*
X160455448Y-75044552D01*
X160460562Y-75047969D01*
X160516653Y-75085449D01*
X160516655Y-75085450D01*
X160521769Y-75088867D01*
X160563355Y-75097139D01*
X160575299Y-75099515D01*
X160615072Y-75126091D01*
X160625597Y-75161790D01*
X160600879Y-76743734D01*
X160581885Y-76787637D01*
X160565178Y-76799143D01*
X160560316Y-76800446D01*
X160527168Y-76823656D01*
X160522581Y-76826578D01*
X160487545Y-76846806D01*
X160484029Y-76850996D01*
X160461541Y-76877796D01*
X160457857Y-76881816D01*
X160206087Y-77133587D01*
X159958480Y-77381194D01*
X159914286Y-77399500D01*
X159316312Y-77399500D01*
X159313302Y-77400099D01*
X159313299Y-77400099D01*
X159278070Y-77407107D01*
X159246161Y-77413454D01*
X159241044Y-77416873D01*
X159241042Y-77416874D01*
X159182266Y-77456147D01*
X159166609Y-77466609D01*
X159163190Y-77471726D01*
X159123455Y-77531194D01*
X159113454Y-77546161D01*
X159099500Y-77616312D01*
X159099500Y-78383688D01*
X159100099Y-78386698D01*
X159100099Y-78386701D01*
X159107107Y-78421930D01*
X159113454Y-78453839D01*
X159116873Y-78458956D01*
X159116874Y-78458958D01*
X159135877Y-78487397D01*
X159166609Y-78533391D01*
X159171726Y-78536810D01*
X159241042Y-78583126D01*
X159241044Y-78583127D01*
X159246161Y-78586546D01*
X159278070Y-78592893D01*
X159313299Y-78599901D01*
X159313302Y-78599901D01*
X159316312Y-78600500D01*
X160283688Y-78600500D01*
X160286698Y-78599901D01*
X160286701Y-78599901D01*
X160321930Y-78592893D01*
X160353839Y-78586546D01*
X160358956Y-78583127D01*
X160358958Y-78583126D01*
X160428274Y-78536810D01*
X160433391Y-78533391D01*
X160464123Y-78487397D01*
X160483126Y-78458958D01*
X160483127Y-78458956D01*
X160486546Y-78453839D01*
X160492893Y-78421930D01*
X160499901Y-78386701D01*
X160499901Y-78386698D01*
X160500500Y-78383688D01*
X160500500Y-77785715D01*
X160518806Y-77741521D01*
X160693308Y-77567019D01*
X160737502Y-77548713D01*
X160781696Y-77567019D01*
X160800002Y-77611213D01*
X160799834Y-77614633D01*
X160799500Y-77616312D01*
X160799500Y-78383688D01*
X160800099Y-78386698D01*
X160800099Y-78386701D01*
X160807107Y-78421930D01*
X160813454Y-78453839D01*
X160816873Y-78458956D01*
X160816874Y-78458958D01*
X160835877Y-78487397D01*
X160866609Y-78533391D01*
X160871726Y-78536810D01*
X160941042Y-78583126D01*
X160941044Y-78583127D01*
X160946161Y-78586546D01*
X160978070Y-78592893D01*
X161013299Y-78599901D01*
X161013302Y-78599901D01*
X161016312Y-78600500D01*
X161543575Y-78600500D01*
X161587769Y-78618806D01*
X161754906Y-78785943D01*
X161773212Y-78830137D01*
X161754906Y-78874331D01*
X161731273Y-78889070D01*
X161726687Y-78889833D01*
X161681824Y-78914041D01*
X161680757Y-78914616D01*
X161678132Y-78915953D01*
X161631100Y-78938537D01*
X161628089Y-78941068D01*
X161628088Y-78941069D01*
X161627903Y-78941224D01*
X161627894Y-78941232D01*
X161626869Y-78942094D01*
X161626643Y-78942320D01*
X161623531Y-78944947D01*
X161621220Y-78946740D01*
X161616671Y-78949194D01*
X161613162Y-78952990D01*
X161588726Y-78979425D01*
X161542831Y-78999500D01*
X161016312Y-78999500D01*
X161013302Y-79000099D01*
X161013299Y-79000099D01*
X160978070Y-79007107D01*
X160946161Y-79013454D01*
X160941044Y-79016873D01*
X160941042Y-79016874D01*
X160892955Y-79049005D01*
X160866609Y-79066609D01*
X160863190Y-79071726D01*
X160825690Y-79127849D01*
X160813454Y-79146161D01*
X160812253Y-79152200D01*
X160801093Y-79208306D01*
X160799500Y-79216312D01*
X160799500Y-79917575D01*
X160781194Y-79961769D01*
X160737000Y-79980075D01*
X160692806Y-79961769D01*
X160518806Y-79787769D01*
X160500500Y-79743575D01*
X160500500Y-79216312D01*
X160498908Y-79208306D01*
X160487747Y-79152200D01*
X160486546Y-79146161D01*
X160474311Y-79127849D01*
X160436810Y-79071726D01*
X160433391Y-79066609D01*
X160407045Y-79049005D01*
X160358958Y-79016874D01*
X160358956Y-79016873D01*
X160353839Y-79013454D01*
X160321930Y-79007107D01*
X160286701Y-79000099D01*
X160286698Y-79000099D01*
X160283688Y-78999500D01*
X159316312Y-78999500D01*
X159313302Y-79000099D01*
X159313299Y-79000099D01*
X159278070Y-79007107D01*
X159246161Y-79013454D01*
X159241044Y-79016873D01*
X159241042Y-79016874D01*
X159192955Y-79049005D01*
X159166609Y-79066609D01*
X159163190Y-79071726D01*
X159125690Y-79127849D01*
X159113454Y-79146161D01*
X159112253Y-79152200D01*
X159101093Y-79208306D01*
X159099500Y-79216312D01*
X159099500Y-79983688D01*
X159113454Y-80053839D01*
X159166609Y-80133391D01*
X159171726Y-80136810D01*
X159241042Y-80183126D01*
X159241044Y-80183127D01*
X159246161Y-80186546D01*
X159278070Y-80192893D01*
X159313299Y-80199901D01*
X159313302Y-80199901D01*
X159316312Y-80200500D01*
X159843575Y-80200500D01*
X159887769Y-80218806D01*
X160275954Y-80606992D01*
X160284263Y-80617280D01*
X160292948Y-80630730D01*
X160297002Y-80633926D01*
X160297004Y-80633928D01*
X160321920Y-80653570D01*
X160327420Y-80658458D01*
X160331058Y-80662096D01*
X160333152Y-80663593D01*
X160333154Y-80663594D01*
X160347792Y-80674054D01*
X160350148Y-80675823D01*
X160391120Y-80708123D01*
X160395993Y-80709834D01*
X160399383Y-80711698D01*
X160402839Y-80713391D01*
X160407039Y-80716392D01*
X160411988Y-80717872D01*
X160457020Y-80731340D01*
X160459820Y-80732249D01*
X160505361Y-80748242D01*
X160505367Y-80748243D01*
X160509068Y-80749543D01*
X160512980Y-80749882D01*
X160512981Y-80749882D01*
X160513246Y-80749905D01*
X160513249Y-80749905D01*
X160514575Y-80750020D01*
X160514890Y-80750020D01*
X160518956Y-80750364D01*
X160521856Y-80750730D01*
X160526807Y-80752211D01*
X160581348Y-80750068D01*
X160583801Y-80750020D01*
X161729500Y-80750020D01*
X161773694Y-80768326D01*
X161792000Y-80812520D01*
X161792000Y-81337902D01*
X161773694Y-81382096D01*
X157188184Y-85967606D01*
X157186934Y-85968822D01*
X157126765Y-86025721D01*
X157097939Y-86066889D01*
X157092694Y-86074380D01*
X157089934Y-86078031D01*
X157052385Y-86124070D01*
X157037998Y-86151589D01*
X157033815Y-86158468D01*
X157016009Y-86183898D01*
X157006823Y-86205126D01*
X156992412Y-86238427D01*
X156990446Y-86242548D01*
X156962923Y-86295194D01*
X156962052Y-86298232D01*
X156954366Y-86325035D01*
X156951647Y-86332629D01*
X156939320Y-86361115D01*
X156938674Y-86364209D01*
X156938673Y-86364211D01*
X156927175Y-86419250D01*
X156926075Y-86423697D01*
X156916798Y-86456051D01*
X156909697Y-86480813D01*
X156909455Y-86483962D01*
X156909454Y-86483966D01*
X156907315Y-86511770D01*
X156906178Y-86519755D01*
X156899832Y-86550133D01*
X156899500Y-86556468D01*
X156899500Y-86610934D01*
X156899316Y-86615729D01*
X156894883Y-86673342D01*
X156895280Y-86676481D01*
X156899007Y-86705987D01*
X156899500Y-86713820D01*
X156899500Y-90888743D01*
X156881194Y-90932937D01*
X156844387Y-90950805D01*
X156833808Y-90952064D01*
X156833807Y-90952064D01*
X156829154Y-90952618D01*
X156726847Y-90998061D01*
X156722771Y-91002144D01*
X156651834Y-91073204D01*
X156651832Y-91073207D01*
X156647759Y-91077287D01*
X156645427Y-91082561D01*
X156645426Y-91082563D01*
X156604393Y-91175377D01*
X156602494Y-91179673D01*
X156601950Y-91184339D01*
X156599714Y-91203521D01*
X156599500Y-91205354D01*
X156599500Y-93094646D01*
X150577000Y-93094646D01*
X150577000Y-72502603D01*
X150886378Y-72502603D01*
X150905244Y-72790442D01*
X150961519Y-73073356D01*
X151054241Y-73346505D01*
X151181822Y-73605214D01*
X151182950Y-73606903D01*
X151182954Y-73606909D01*
X151340945Y-73843359D01*
X151342080Y-73845057D01*
X151532273Y-74061930D01*
X151749146Y-74252123D01*
X151750840Y-74253255D01*
X151750844Y-74253258D01*
X151987294Y-74411249D01*
X151987300Y-74411253D01*
X151988989Y-74412381D01*
X152247698Y-74539962D01*
X152249629Y-74540617D01*
X152249635Y-74540620D01*
X152518914Y-74632028D01*
X152520847Y-74632684D01*
X152803761Y-74688959D01*
X152805795Y-74689092D01*
X152805800Y-74689093D01*
X153089556Y-74707691D01*
X153091600Y-74707825D01*
X153093644Y-74707691D01*
X153377400Y-74689093D01*
X153377405Y-74689092D01*
X153379439Y-74688959D01*
X153662353Y-74632684D01*
X153664286Y-74632028D01*
X153933565Y-74540620D01*
X153933571Y-74540617D01*
X153935502Y-74539962D01*
X154194211Y-74412381D01*
X154195900Y-74411253D01*
X154195906Y-74411249D01*
X154432356Y-74253258D01*
X154432360Y-74253255D01*
X154434054Y-74252123D01*
X154650927Y-74061930D01*
X154841120Y-73845057D01*
X154842255Y-73843359D01*
X155000246Y-73606909D01*
X155000250Y-73606903D01*
X155001378Y-73605214D01*
X155128959Y-73346505D01*
X155221681Y-73073356D01*
X155277956Y-72790442D01*
X155296822Y-72502603D01*
X155295160Y-72477239D01*
X155278090Y-72216803D01*
X155278089Y-72216798D01*
X155277956Y-72214764D01*
X155221681Y-71931850D01*
X155221025Y-71929917D01*
X155129617Y-71660638D01*
X155129614Y-71660632D01*
X155128959Y-71658701D01*
X155001378Y-71399992D01*
X155000250Y-71398303D01*
X155000246Y-71398297D01*
X154842255Y-71161847D01*
X154842252Y-71161843D01*
X154841120Y-71160149D01*
X154650927Y-70943276D01*
X154434054Y-70753083D01*
X154432360Y-70751951D01*
X154432356Y-70751948D01*
X154195906Y-70593957D01*
X154195900Y-70593953D01*
X154194211Y-70592825D01*
X153935502Y-70465244D01*
X153933571Y-70464589D01*
X153933565Y-70464586D01*
X153664286Y-70373178D01*
X153664284Y-70373177D01*
X153662353Y-70372522D01*
X153379439Y-70316247D01*
X153377405Y-70316114D01*
X153377400Y-70316113D01*
X153093644Y-70297515D01*
X153091600Y-70297381D01*
X153089556Y-70297515D01*
X152805800Y-70316113D01*
X152805795Y-70316114D01*
X152803761Y-70316247D01*
X152520847Y-70372522D01*
X152518916Y-70373177D01*
X152518914Y-70373178D01*
X152249635Y-70464586D01*
X152249629Y-70464589D01*
X152247698Y-70465244D01*
X151988989Y-70592825D01*
X151987300Y-70593953D01*
X151987294Y-70593957D01*
X151750844Y-70751948D01*
X151750840Y-70751951D01*
X151749146Y-70753083D01*
X151532273Y-70943276D01*
X151342080Y-71160149D01*
X151340948Y-71161843D01*
X151340945Y-71161847D01*
X151182954Y-71398297D01*
X151182950Y-71398303D01*
X151181822Y-71399992D01*
X151054241Y-71658701D01*
X151053586Y-71660632D01*
X151053583Y-71660638D01*
X150962175Y-71929917D01*
X150961519Y-71931850D01*
X150905244Y-72214764D01*
X150905111Y-72216798D01*
X150905110Y-72216803D01*
X150888040Y-72477239D01*
X150886378Y-72502603D01*
X150577000Y-72502603D01*
X150577000Y-71883347D01*
X150579128Y-71867176D01*
X150581480Y-71858400D01*
X150579350Y-71850452D01*
X150579350Y-71842738D01*
X150578555Y-71834667D01*
X150591740Y-71633508D01*
X150593029Y-71613834D01*
X150594096Y-71605730D01*
X150595290Y-71599730D01*
X150635020Y-71399992D01*
X150641112Y-71369367D01*
X150643228Y-71361470D01*
X150720691Y-71133270D01*
X150723819Y-71125717D01*
X150830410Y-70909571D01*
X150834498Y-70902491D01*
X150968386Y-70702114D01*
X150973363Y-70695628D01*
X151132260Y-70514440D01*
X151138041Y-70508659D01*
X151248056Y-70412178D01*
X151319230Y-70349760D01*
X151325715Y-70344784D01*
X151367826Y-70316646D01*
X151526093Y-70210895D01*
X151533171Y-70206808D01*
X151749317Y-70100217D01*
X151756870Y-70097089D01*
X151985070Y-70019625D01*
X151992967Y-70017509D01*
X152229330Y-69970494D01*
X152237434Y-69969427D01*
X152371488Y-69960641D01*
X152458269Y-69954953D01*
X152466342Y-69955748D01*
X152474052Y-69955748D01*
X152482000Y-69957877D01*
X152490006Y-69955732D01*
X152490760Y-69955530D01*
X152506936Y-69953400D01*
X182556064Y-69953400D01*
X182572240Y-69955530D01*
G37*
%TD.AperFunction*%
%TA.AperFunction,Conductor*%
G36*
X176946694Y-78807806D02*
G01*
X176962849Y-78839868D01*
X176962879Y-78840114D01*
X176962968Y-78840103D01*
X176964316Y-78842779D01*
X176971937Y-78893864D01*
X176973391Y-78903614D01*
X176973709Y-78904938D01*
X176973711Y-78904947D01*
X176976203Y-78915311D01*
X176983685Y-78946437D01*
X176984123Y-78947741D01*
X176984124Y-78947746D01*
X177009108Y-79022200D01*
X177012042Y-79030943D01*
X177013945Y-79034016D01*
X177086983Y-79151977D01*
X177086987Y-79151982D01*
X177088160Y-79153877D01*
X177089591Y-79155586D01*
X177089592Y-79155587D01*
X177132312Y-79206596D01*
X177132318Y-79206603D01*
X177133745Y-79208306D01*
X177135405Y-79209794D01*
X177135406Y-79209795D01*
X177177806Y-79247800D01*
X177241412Y-79304814D01*
X177386469Y-79401519D01*
X177388544Y-79402498D01*
X177388545Y-79402499D01*
X177518969Y-79464061D01*
X177518974Y-79464063D01*
X177521044Y-79465040D01*
X177523234Y-79465703D01*
X177523239Y-79465705D01*
X177576363Y-79481790D01*
X177590936Y-79486202D01*
X177593202Y-79486537D01*
X177593204Y-79486538D01*
X177664543Y-79497101D01*
X177738149Y-79508000D01*
X180510075Y-79508000D01*
X180554269Y-79526306D01*
X180572575Y-79570500D01*
X180554269Y-79614694D01*
X177962769Y-82206194D01*
X177918575Y-82224500D01*
X175046736Y-82224500D01*
X175033581Y-82223100D01*
X175017933Y-82219731D01*
X175012803Y-82220338D01*
X175012801Y-82220338D01*
X174981297Y-82224067D01*
X174973951Y-82224500D01*
X174968807Y-82224500D01*
X174966260Y-82224924D01*
X174966259Y-82224924D01*
X174948522Y-82227876D01*
X174945607Y-82228291D01*
X174929146Y-82230239D01*
X174893790Y-82234424D01*
X174889131Y-82236661D01*
X174885425Y-82237738D01*
X174881781Y-82238985D01*
X174876687Y-82239833D01*
X174872144Y-82242284D01*
X174872142Y-82242285D01*
X174830753Y-82264618D01*
X174828128Y-82265955D01*
X174781100Y-82288537D01*
X174778089Y-82291068D01*
X174778088Y-82291069D01*
X174777903Y-82291224D01*
X174777894Y-82291232D01*
X174776869Y-82292094D01*
X174776643Y-82292320D01*
X174773531Y-82294947D01*
X174771220Y-82296740D01*
X174766671Y-82299194D01*
X174763162Y-82302990D01*
X174729628Y-82339267D01*
X174727927Y-82341036D01*
X173867532Y-83201431D01*
X173857240Y-83209743D01*
X173848130Y-83215625D01*
X173848127Y-83215627D01*
X173843790Y-83218428D01*
X173840592Y-83222485D01*
X173820951Y-83247399D01*
X173816063Y-83252900D01*
X173812425Y-83256538D01*
X173810928Y-83258632D01*
X173810927Y-83258634D01*
X173800474Y-83273262D01*
X173798705Y-83275618D01*
X173766397Y-83316600D01*
X173764685Y-83321476D01*
X173762825Y-83324859D01*
X173761131Y-83328318D01*
X173758128Y-83332519D01*
X173756649Y-83337466D01*
X173756648Y-83337467D01*
X173743176Y-83382516D01*
X173742265Y-83385318D01*
X173726280Y-83430836D01*
X173726279Y-83430840D01*
X173724977Y-83434548D01*
X173724500Y-83440055D01*
X173724500Y-83440379D01*
X173724156Y-83444437D01*
X173723789Y-83447340D01*
X173722310Y-83452287D01*
X173722513Y-83457446D01*
X173724452Y-83506802D01*
X173724500Y-83509256D01*
X173724500Y-83962906D01*
X173706194Y-84007100D01*
X173662000Y-84025406D01*
X173633627Y-84018595D01*
X173629687Y-84016587D01*
X173629686Y-84016587D01*
X173625304Y-84014354D01*
X173620447Y-84013585D01*
X173620445Y-84013584D01*
X173599459Y-84010261D01*
X173585209Y-84008004D01*
X173550793Y-83990467D01*
X173366657Y-83806331D01*
X173362973Y-83802311D01*
X173340481Y-83775506D01*
X173336966Y-83771317D01*
X173301925Y-83751086D01*
X173297333Y-83748161D01*
X173268671Y-83728091D01*
X173268670Y-83728091D01*
X173264195Y-83724957D01*
X173258918Y-83723543D01*
X173258916Y-83723542D01*
X173258097Y-83723323D01*
X173243024Y-83717079D01*
X173242295Y-83716658D01*
X173242290Y-83716656D01*
X173237556Y-83713923D01*
X173197715Y-83706898D01*
X173192394Y-83705718D01*
X173158600Y-83696662D01*
X173158598Y-83696662D01*
X173153318Y-83695247D01*
X173115060Y-83698594D01*
X173113017Y-83698773D01*
X173107570Y-83699011D01*
X169476648Y-83699011D01*
X169432454Y-83680705D01*
X169414148Y-83636511D01*
X169422437Y-83605577D01*
X169424536Y-83602841D01*
X169426104Y-83599056D01*
X169483476Y-83460548D01*
X169483476Y-83460547D01*
X169485044Y-83456762D01*
X169494450Y-83385318D01*
X169499069Y-83350233D01*
X169516840Y-83314197D01*
X173999439Y-78831598D01*
X174045787Y-78813329D01*
X174059387Y-78813798D01*
X174064374Y-78813617D01*
X174130113Y-78811228D01*
X174130124Y-78811227D01*
X174131203Y-78811188D01*
X174144694Y-78809737D01*
X174158641Y-78808238D01*
X174158646Y-78808237D01*
X174160730Y-78808013D01*
X174162771Y-78807509D01*
X174164851Y-78807142D01*
X174165000Y-78807986D01*
X174169152Y-78808048D01*
X174168982Y-78806644D01*
X174177020Y-78805671D01*
X174177022Y-78805671D01*
X174184780Y-78804732D01*
X174200350Y-78802848D01*
X174200361Y-78802846D01*
X174212265Y-78801405D01*
X174224268Y-78799953D01*
X174231776Y-78799500D01*
X175155896Y-78799500D01*
X175178903Y-78803889D01*
X175209915Y-78816167D01*
X175211173Y-78816665D01*
X175294405Y-78841625D01*
X175295701Y-78841895D01*
X175295711Y-78841898D01*
X175335130Y-78850124D01*
X175335139Y-78850126D01*
X175336445Y-78850398D01*
X175422695Y-78860809D01*
X175424005Y-78860854D01*
X175424015Y-78860855D01*
X175427551Y-78860977D01*
X175427599Y-78860978D01*
X175455177Y-78861929D01*
X175455184Y-78861929D01*
X175456782Y-78861984D01*
X175508822Y-78858420D01*
X175559261Y-78854965D01*
X175559268Y-78854964D01*
X175560862Y-78854855D01*
X175562437Y-78854583D01*
X175562442Y-78854582D01*
X175581304Y-78851320D01*
X175611588Y-78846082D01*
X175613125Y-78845650D01*
X175613133Y-78845648D01*
X175710476Y-78818274D01*
X175712023Y-78817839D01*
X175737555Y-78807730D01*
X175772514Y-78793889D01*
X175795522Y-78789500D01*
X176902500Y-78789500D01*
X176946694Y-78807806D01*
G37*
%TD.AperFunction*%
%TA.AperFunction,Conductor*%
G36*
X172690067Y-75411386D02*
G01*
X172692223Y-75412948D01*
X172692506Y-75413153D01*
X172692754Y-75413325D01*
X172692776Y-75413340D01*
X172699238Y-75417806D01*
X172701692Y-75419502D01*
X172710914Y-75425579D01*
X172718326Y-75430463D01*
X172718331Y-75430466D01*
X172720485Y-75431885D01*
X172722843Y-75432932D01*
X172722846Y-75432933D01*
X172850615Y-75489633D01*
X172852648Y-75490535D01*
X172920978Y-75509804D01*
X172982724Y-75518005D01*
X173062115Y-75528551D01*
X173062119Y-75528551D01*
X173064323Y-75528844D01*
X173066554Y-75528820D01*
X173150226Y-75527920D01*
X173150273Y-75527919D01*
X173150556Y-75527916D01*
X173160139Y-75527651D01*
X173167380Y-75527451D01*
X173167413Y-75527450D01*
X173167658Y-75527443D01*
X173176113Y-75527067D01*
X173176339Y-75527053D01*
X173176361Y-75527052D01*
X173182282Y-75526689D01*
X173193158Y-75526022D01*
X173195584Y-75525477D01*
X173195586Y-75525477D01*
X173332065Y-75494835D01*
X173332067Y-75494835D01*
X173334238Y-75494347D01*
X173362702Y-75483514D01*
X173398516Y-75469884D01*
X173398519Y-75469882D01*
X173400591Y-75469094D01*
X173503771Y-75411857D01*
X173507211Y-75409949D01*
X173514516Y-75406494D01*
X173521096Y-75403889D01*
X173544103Y-75399500D01*
X174455896Y-75399500D01*
X174478901Y-75403888D01*
X174480207Y-75404405D01*
X174491594Y-75410331D01*
X174493189Y-75411382D01*
X174493195Y-75411385D01*
X174495345Y-75412802D01*
X174538348Y-75431885D01*
X174576589Y-75448855D01*
X174609559Y-75483514D01*
X174611333Y-75488813D01*
X174818052Y-76212330D01*
X174812592Y-76259853D01*
X174775127Y-76289595D01*
X174757957Y-76292000D01*
X174081813Y-76292000D01*
X174081403Y-76292012D01*
X174081382Y-76292012D01*
X174053263Y-76292815D01*
X174053234Y-76292816D01*
X174052823Y-76292828D01*
X174052384Y-76292853D01*
X174052363Y-76292854D01*
X174038943Y-76293621D01*
X174038917Y-76293623D01*
X174038460Y-76293649D01*
X174009542Y-76296132D01*
X173933012Y-76316248D01*
X173871849Y-76332325D01*
X173871844Y-76332327D01*
X173869701Y-76332890D01*
X173804304Y-76360527D01*
X173802392Y-76361680D01*
X173802390Y-76361681D01*
X173684308Y-76432888D01*
X173684306Y-76432889D01*
X173680478Y-76435198D01*
X173582710Y-76541726D01*
X173572114Y-76557223D01*
X173543901Y-76598483D01*
X173543898Y-76598489D01*
X173542638Y-76600331D01*
X173541652Y-76602337D01*
X173541650Y-76602340D01*
X173537976Y-76609813D01*
X173478845Y-76730079D01*
X173478158Y-76732195D01*
X173478155Y-76732201D01*
X173459342Y-76790103D01*
X173457643Y-76794707D01*
X173426975Y-76868744D01*
X173426973Y-76868751D01*
X173426191Y-76870638D01*
X173425661Y-76872616D01*
X173425660Y-76872619D01*
X173423714Y-76879884D01*
X173409310Y-76933638D01*
X173409042Y-76935672D01*
X173409042Y-76935673D01*
X173394183Y-77048542D01*
X173392000Y-77065120D01*
X173392000Y-77162000D01*
X173373694Y-77206194D01*
X173329500Y-77224500D01*
X172215763Y-77224500D01*
X172202608Y-77223100D01*
X172186956Y-77219730D01*
X172181826Y-77220337D01*
X172181824Y-77220337D01*
X172150312Y-77224067D01*
X172142966Y-77224500D01*
X172137829Y-77224500D01*
X172122470Y-77227057D01*
X172117564Y-77227873D01*
X172114648Y-77228288D01*
X172097947Y-77230265D01*
X172062813Y-77234423D01*
X172058155Y-77236660D01*
X172054461Y-77237733D01*
X172050804Y-77238985D01*
X172045709Y-77239833D01*
X172041163Y-77242286D01*
X171999779Y-77264616D01*
X171997154Y-77265953D01*
X171950122Y-77288537D01*
X171947111Y-77291068D01*
X171947110Y-77291069D01*
X171946925Y-77291224D01*
X171946916Y-77291232D01*
X171945891Y-77292094D01*
X171945665Y-77292320D01*
X171942553Y-77294947D01*
X171940242Y-77296740D01*
X171935693Y-77299194D01*
X171932184Y-77302990D01*
X171898650Y-77339267D01*
X171896949Y-77341036D01*
X167631791Y-81606194D01*
X167587597Y-81624500D01*
X165146737Y-81624500D01*
X165133583Y-81623100D01*
X165117934Y-81619731D01*
X165112804Y-81620338D01*
X165112802Y-81620338D01*
X165081298Y-81624067D01*
X165073952Y-81624500D01*
X165068807Y-81624500D01*
X165048505Y-81627879D01*
X165045623Y-81628289D01*
X164993790Y-81634424D01*
X164989131Y-81636661D01*
X164985425Y-81637738D01*
X164981781Y-81638985D01*
X164976687Y-81639833D01*
X164972144Y-81642284D01*
X164972142Y-81642285D01*
X164930753Y-81664618D01*
X164928128Y-81665955D01*
X164881100Y-81688537D01*
X164878089Y-81691068D01*
X164878088Y-81691069D01*
X164877903Y-81691224D01*
X164877894Y-81691232D01*
X164876869Y-81692094D01*
X164876643Y-81692320D01*
X164873531Y-81694947D01*
X164871220Y-81696740D01*
X164866671Y-81699194D01*
X164863162Y-81702990D01*
X164829628Y-81739267D01*
X164827927Y-81741036D01*
X164387601Y-82181362D01*
X164343407Y-82199668D01*
X164299213Y-82181362D01*
X164280907Y-82137168D01*
X164282805Y-82121881D01*
X164287856Y-82101864D01*
X164302917Y-81958061D01*
X164269700Y-81094429D01*
X164231817Y-80109466D01*
X164231817Y-80109461D01*
X164231741Y-80107498D01*
X164210689Y-79981041D01*
X164192561Y-79920618D01*
X164140529Y-79803467D01*
X164048794Y-79691701D01*
X163996400Y-79643792D01*
X163922502Y-79593463D01*
X163896280Y-79553457D01*
X163906027Y-79506625D01*
X163913491Y-79497613D01*
X164397000Y-79014104D01*
X164402500Y-79009216D01*
X164428444Y-78988763D01*
X164432110Y-78985873D01*
X164466037Y-78936785D01*
X164467171Y-78935198D01*
X164499859Y-78890943D01*
X164499860Y-78890941D01*
X164502635Y-78887184D01*
X164504184Y-78882774D01*
X164505136Y-78880975D01*
X164505296Y-78880713D01*
X164505461Y-78880388D01*
X164505582Y-78880099D01*
X164506477Y-78878272D01*
X164509131Y-78874432D01*
X164515288Y-78854965D01*
X164527110Y-78817584D01*
X164527731Y-78815721D01*
X164545973Y-78763776D01*
X164545973Y-78763774D01*
X164547520Y-78759370D01*
X164547704Y-78754703D01*
X164548088Y-78752688D01*
X164548239Y-78752091D01*
X164548906Y-78748668D01*
X164549980Y-78745271D01*
X164550260Y-78741718D01*
X164550403Y-78739903D01*
X164550404Y-78739890D01*
X164550500Y-78738664D01*
X164550500Y-78684764D01*
X164550548Y-78682310D01*
X164552656Y-78628673D01*
X164552656Y-78628671D01*
X164552839Y-78624007D01*
X164551642Y-78619493D01*
X164551129Y-78614848D01*
X164551512Y-78614806D01*
X164550500Y-78607041D01*
X164550500Y-78148657D01*
X164568806Y-78104463D01*
X164613000Y-78086157D01*
X164657194Y-78104463D01*
X164665578Y-78114867D01*
X164688485Y-78150511D01*
X164734978Y-78204167D01*
X164844254Y-78298856D01*
X164848316Y-78300711D01*
X164848319Y-78300713D01*
X164914018Y-78330716D01*
X164946614Y-78365726D01*
X164950254Y-78393693D01*
X164950098Y-78395272D01*
X164949500Y-78398281D01*
X164949501Y-78801718D01*
X164950100Y-78804727D01*
X164950100Y-78804732D01*
X164959045Y-78849705D01*
X164962293Y-78866035D01*
X165011028Y-78938972D01*
X165016145Y-78942391D01*
X165078846Y-78984287D01*
X165078848Y-78984288D01*
X165083965Y-78987707D01*
X165107262Y-78992341D01*
X165145268Y-78999901D01*
X165145271Y-78999901D01*
X165148281Y-79000500D01*
X165500000Y-79000500D01*
X165851718Y-79000499D01*
X165854727Y-78999900D01*
X165854732Y-78999900D01*
X165876658Y-78995539D01*
X165892735Y-78992341D01*
X165939650Y-79001674D01*
X165949120Y-79009446D01*
X165957854Y-79018180D01*
X165961538Y-79022200D01*
X165987545Y-79053194D01*
X166022586Y-79073425D01*
X166027178Y-79076350D01*
X166060316Y-79099554D01*
X166065593Y-79100968D01*
X166065595Y-79100969D01*
X166066414Y-79101188D01*
X166081487Y-79107432D01*
X166082216Y-79107853D01*
X166082221Y-79107855D01*
X166086955Y-79110588D01*
X166126796Y-79117613D01*
X166132117Y-79118793D01*
X166165911Y-79127849D01*
X166165913Y-79127849D01*
X166171193Y-79129264D01*
X166211497Y-79125738D01*
X166216945Y-79125500D01*
X166237425Y-79125500D01*
X166281619Y-79143806D01*
X166299500Y-79181614D01*
X166299500Y-79183688D01*
X166313454Y-79253839D01*
X166366609Y-79333391D01*
X166371726Y-79336810D01*
X166441042Y-79383126D01*
X166441044Y-79383127D01*
X166446161Y-79386546D01*
X166478070Y-79392893D01*
X166513299Y-79399901D01*
X166513302Y-79399901D01*
X166516312Y-79400500D01*
X167483688Y-79400500D01*
X167486698Y-79399901D01*
X167486701Y-79399901D01*
X167521930Y-79392893D01*
X167553839Y-79386546D01*
X167558956Y-79383127D01*
X167558958Y-79383126D01*
X167628274Y-79336810D01*
X167633391Y-79333391D01*
X167686546Y-79253839D01*
X167700500Y-79183688D01*
X167700500Y-78776888D01*
X167718806Y-78732694D01*
X167763000Y-78714388D01*
X167790622Y-78720823D01*
X167846591Y-78748401D01*
X167848706Y-78749090D01*
X167848708Y-78749091D01*
X167911972Y-78769707D01*
X167911974Y-78769708D01*
X167914093Y-78770398D01*
X167985324Y-78782787D01*
X168054363Y-78794796D01*
X168054369Y-78794797D01*
X168056556Y-78795177D01*
X168058779Y-78795242D01*
X168058785Y-78795243D01*
X168482918Y-78807717D01*
X168483230Y-78807726D01*
X168483315Y-78807728D01*
X168483393Y-78807730D01*
X168490608Y-78807889D01*
X168490663Y-78807890D01*
X168490759Y-78807892D01*
X168493092Y-78807926D01*
X168494313Y-78807944D01*
X168494355Y-78807944D01*
X168494463Y-78807946D01*
X168501868Y-78808000D01*
X169380142Y-78808000D01*
X169475699Y-78798932D01*
X169522252Y-78790016D01*
X169576584Y-78774167D01*
X169610811Y-78764183D01*
X169610813Y-78764182D01*
X169614382Y-78763141D01*
X169739773Y-78691142D01*
X169747923Y-78684764D01*
X169793925Y-78648764D01*
X169793929Y-78648761D01*
X169795684Y-78647387D01*
X169797224Y-78645780D01*
X169797229Y-78645775D01*
X169892620Y-78546203D01*
X169892621Y-78546201D01*
X169895714Y-78542973D01*
X169962273Y-78414612D01*
X169985652Y-78347575D01*
X170013351Y-78205660D01*
X170013495Y-78202793D01*
X170079791Y-76876869D01*
X170080265Y-76867379D01*
X170100755Y-76824154D01*
X170142687Y-76808000D01*
X171052545Y-76808000D01*
X171197992Y-76786733D01*
X171267123Y-76766075D01*
X171400391Y-76704056D01*
X171508756Y-76608329D01*
X171552192Y-76557223D01*
X171550407Y-76555706D01*
X171556287Y-76545263D01*
X171592830Y-76503091D01*
X171598305Y-76491102D01*
X171605256Y-76482371D01*
X171605406Y-76482457D01*
X171614553Y-76466615D01*
X171628601Y-76432701D01*
X171664527Y-76345972D01*
X171664529Y-76345965D01*
X171665311Y-76344078D01*
X171668077Y-76333757D01*
X171681660Y-76283062D01*
X171681661Y-76283057D01*
X171682191Y-76281079D01*
X171682459Y-76279045D01*
X171699233Y-76151634D01*
X171699233Y-76151628D01*
X171699500Y-76149603D01*
X171699500Y-75462000D01*
X171717806Y-75417806D01*
X171762000Y-75399500D01*
X172653400Y-75399500D01*
X172690067Y-75411386D01*
G37*
%TD.AperFunction*%
%TD*%
M02*
