%TF.GenerationSoftware,KiCad,Pcbnew,(6.0.1)*%
%TF.CreationDate,2022-12-05T15:25:32+08:00*%
%TF.ProjectId,IMU_base_V7.1,494d555f-6261-4736-955f-56372e312e6b,rev?*%
%TF.SameCoordinates,Original*%
%TF.FileFunction,Legend,Top*%
%TF.FilePolarity,Positive*%
%FSLAX46Y46*%
G04 Gerber Fmt 4.6, Leading zero omitted, Abs format (unit mm)*
G04 Created by KiCad (PCBNEW (6.0.1)) date 2022-12-05 15:25:32*
%MOMM*%
%LPD*%
G01*
G04 APERTURE LIST*
%ADD10C,0.200000*%
%ADD11C,0.150000*%
%ADD12C,0.187499*%
%ADD13C,0.100000*%
%ADD14C,0.125000*%
%ADD15C,0.050000*%
%ADD16C,0.120000*%
G04 APERTURE END LIST*
D10*
X161081800Y-84367733D02*
X175534400Y-84367733D01*
D11*
X159555585Y-74089054D02*
X160275585Y-75289054D01*
X160275585Y-74089054D02*
X159555585Y-75289054D01*
D10*
X156626198Y-72078240D02*
X157159596Y-72586240D01*
X175534400Y-84367733D02*
X175534400Y-70266197D01*
X156143598Y-72611640D02*
X156626198Y-72078240D01*
X156992522Y-76029921D02*
X160421522Y-76029921D01*
X159862600Y-72450594D02*
G75*
G03*
X159608600Y-72450594I-127000J0D01*
G01*
D11*
X157244185Y-74444654D02*
X157964185Y-74444654D01*
X157244185Y-75644654D01*
X157964185Y-75644654D01*
D10*
X161081800Y-84367733D02*
X161081800Y-70266197D01*
D11*
X157856447Y-72406225D02*
X157856447Y-72977654D01*
X157496447Y-71777654D02*
X157856447Y-72406225D01*
X158216447Y-71777654D01*
D12*
X159092950Y-82373223D02*
X160592949Y-82373223D01*
X159092950Y-83016080D02*
X160592949Y-83016080D01*
X159521521Y-83466080D01*
X160592949Y-83916079D01*
X159092950Y-83916079D01*
X160592949Y-84558936D02*
X159378664Y-84558936D01*
X159235807Y-84623222D01*
X159164379Y-84687507D01*
X159092950Y-84816079D01*
X159092950Y-85073221D01*
X159164379Y-85201793D01*
X159235807Y-85266078D01*
X159378664Y-85330364D01*
X160592949Y-85330364D01*
D10*
X156836447Y-76074321D02*
G75*
G03*
X156103799Y-76074321I-366324J0D01*
G01*
X159608600Y-72450594D02*
G75*
G03*
X159862600Y-72450594I127000J0D01*
G01*
D12*
X163639588Y-82844112D02*
X163639588Y-83986968D01*
X163896730Y-83701254D02*
X163639588Y-83986968D01*
X163382445Y-83701254D01*
X165311015Y-82844112D02*
X165311015Y-83986968D01*
X165568158Y-83701254D02*
X165311015Y-83986968D01*
X165053872Y-83701254D01*
X166982442Y-82844112D02*
X166982442Y-83986968D01*
X167239585Y-83701254D02*
X166982442Y-83986968D01*
X166725300Y-83701254D01*
X168653870Y-82844112D02*
X168653870Y-83986968D01*
X168911012Y-83701254D02*
X168653870Y-83986968D01*
X168396727Y-83701254D01*
X170325297Y-82844112D02*
X170325297Y-83986968D01*
X170582440Y-83701254D02*
X170325297Y-83986968D01*
X170068154Y-83701254D01*
X171996724Y-82844112D02*
X171996724Y-83986968D01*
X172253867Y-83701254D02*
X171996724Y-83986968D01*
X171739582Y-83701254D01*
D10*
X159888122Y-75547321D02*
X160421522Y-76029921D01*
X156103799Y-76074321D02*
G75*
G03*
X156836447Y-76074321I366324J0D01*
G01*
X161081800Y-70266197D02*
X175534400Y-70266197D01*
D12*
X163563388Y-84545912D02*
X163563388Y-85688768D01*
X163820530Y-85403054D02*
X163563388Y-85688768D01*
X163306245Y-85403054D01*
D10*
X159913522Y-76563319D02*
X160421522Y-76029921D01*
X156626198Y-75663597D02*
X156626198Y-72078240D01*
D11*
X155200000Y-76800000D02*
G75*
G03*
X155200000Y-76800000I-200000J0D01*
G01*
X178700000Y-78125000D02*
X178700000Y-70300000D01*
X156800000Y-87200000D02*
X156800000Y-92900000D01*
X179300000Y-76000000D02*
G75*
G03*
X179300000Y-76000000I-100000J0D01*
G01*
X174700000Y-93100000D02*
G75*
G03*
X174700000Y-93100000I-100000J0D01*
G01*
X154600000Y-93700000D02*
G75*
G03*
X154600000Y-93700000I-200000J0D01*
G01*
X164141421Y-92200000D02*
G75*
G03*
X164141421Y-92200000I-141421J0D01*
G01*
X156800000Y-92900000D02*
X153300000Y-96000000D01*
D10*
X183747619Y-88685714D02*
X183700000Y-88638095D01*
X183652380Y-88542857D01*
X183652380Y-88304761D01*
X183700000Y-88209523D01*
X183747619Y-88161904D01*
X183842857Y-88114285D01*
X183938095Y-88114285D01*
X184080952Y-88161904D01*
X184652380Y-88733333D01*
X184652380Y-88114285D01*
X184652380Y-74214285D02*
X184652380Y-74785714D01*
X184652380Y-74500000D02*
X183652380Y-74500000D01*
X183795238Y-74595238D01*
X183890476Y-74690476D01*
X183938095Y-74785714D01*
D11*
X151442857Y-94057142D02*
X151395238Y-94009523D01*
X151347619Y-93866666D01*
X151347619Y-93771428D01*
X151395238Y-93628571D01*
X151490476Y-93533333D01*
X151585714Y-93485714D01*
X151776190Y-93438095D01*
X151919047Y-93438095D01*
X152109523Y-93485714D01*
X152204761Y-93533333D01*
X152300000Y-93628571D01*
X152347619Y-93771428D01*
X152347619Y-93866666D01*
X152300000Y-94009523D01*
X152252380Y-94057142D01*
X151633333Y-94438095D02*
X151633333Y-94914285D01*
X151347619Y-94342857D02*
X152347619Y-94676190D01*
X151347619Y-95009523D01*
X151347619Y-95342857D02*
X152347619Y-95342857D01*
X151347619Y-95914285D01*
X152347619Y-95914285D01*
X179704761Y-75071428D02*
X179752380Y-75166666D01*
X179752380Y-75357142D01*
X179704761Y-75452380D01*
X179657142Y-75500000D01*
X179561904Y-75547619D01*
X179276190Y-75547619D01*
X179180952Y-75500000D01*
X179133333Y-75452380D01*
X179085714Y-75357142D01*
X179085714Y-75166666D01*
X179133333Y-75071428D01*
X179752380Y-74214285D02*
X179228571Y-74214285D01*
X179133333Y-74261904D01*
X179085714Y-74357142D01*
X179085714Y-74547619D01*
X179133333Y-74642857D01*
X179704761Y-74214285D02*
X179752380Y-74309523D01*
X179752380Y-74547619D01*
X179704761Y-74642857D01*
X179609523Y-74690476D01*
X179514285Y-74690476D01*
X179419047Y-74642857D01*
X179371428Y-74547619D01*
X179371428Y-74309523D01*
X179323809Y-74214285D01*
X179752380Y-73738095D02*
X179085714Y-73738095D01*
X179180952Y-73738095D02*
X179133333Y-73690476D01*
X179085714Y-73595238D01*
X179085714Y-73452380D01*
X179133333Y-73357142D01*
X179228571Y-73309523D01*
X179752380Y-73309523D01*
X179228571Y-73309523D02*
X179133333Y-73261904D01*
X179085714Y-73166666D01*
X179085714Y-73023809D01*
X179133333Y-72928571D01*
X179228571Y-72880952D01*
X179752380Y-72880952D01*
X179704761Y-72023809D02*
X179752380Y-72119047D01*
X179752380Y-72309523D01*
X179704761Y-72404761D01*
X179609523Y-72452380D01*
X179228571Y-72452380D01*
X179133333Y-72404761D01*
X179085714Y-72309523D01*
X179085714Y-72119047D01*
X179133333Y-72023809D01*
X179228571Y-71976190D01*
X179323809Y-71976190D01*
X179419047Y-72452380D01*
X179752380Y-71547619D02*
X179085714Y-71547619D01*
X179276190Y-71547619D02*
X179180952Y-71500000D01*
X179133333Y-71452380D01*
X179085714Y-71357142D01*
X179085714Y-71261904D01*
X179752380Y-70500000D02*
X179228571Y-70500000D01*
X179133333Y-70547619D01*
X179085714Y-70642857D01*
X179085714Y-70833333D01*
X179133333Y-70928571D01*
X179704761Y-70500000D02*
X179752380Y-70595238D01*
X179752380Y-70833333D01*
X179704761Y-70928571D01*
X179609523Y-70976190D01*
X179514285Y-70976190D01*
X179419047Y-70928571D01*
X179371428Y-70833333D01*
X179371428Y-70595238D01*
X179323809Y-70500000D01*
D10*
X151395238Y-74742857D02*
X151347619Y-74885714D01*
X151347619Y-75123809D01*
X151395238Y-75219047D01*
X151442857Y-75266666D01*
X151538095Y-75314285D01*
X151633333Y-75314285D01*
X151728571Y-75266666D01*
X151776190Y-75219047D01*
X151823809Y-75123809D01*
X151871428Y-74933333D01*
X151919047Y-74838095D01*
X151966666Y-74790476D01*
X152061904Y-74742857D01*
X152157142Y-74742857D01*
X152252380Y-74790476D01*
X152300000Y-74838095D01*
X152347619Y-74933333D01*
X152347619Y-75171428D01*
X152300000Y-75314285D01*
X152347619Y-75647619D02*
X151347619Y-75885714D01*
X152061904Y-76076190D01*
X151347619Y-76266666D01*
X152347619Y-76504761D01*
X151347619Y-76885714D02*
X152347619Y-76885714D01*
X152347619Y-77123809D01*
X152300000Y-77266666D01*
X152204761Y-77361904D01*
X152109523Y-77409523D01*
X151919047Y-77457142D01*
X151776190Y-77457142D01*
X151585714Y-77409523D01*
X151490476Y-77361904D01*
X151395238Y-77266666D01*
X151347619Y-77123809D01*
X151347619Y-76885714D01*
D11*
X157100000Y-77200000D02*
X157100000Y-86000000D01*
X178700000Y-86500000D02*
X178700000Y-78125000D01*
X151400000Y-73700000D02*
X157100000Y-77200000D01*
D13*
%TO.C,C16*%
X178078571Y-90421428D02*
X178102380Y-90445238D01*
X178126190Y-90516666D01*
X178126190Y-90564285D01*
X178102380Y-90635714D01*
X178054761Y-90683333D01*
X178007142Y-90707142D01*
X177911904Y-90730952D01*
X177840476Y-90730952D01*
X177745238Y-90707142D01*
X177697619Y-90683333D01*
X177650000Y-90635714D01*
X177626190Y-90564285D01*
X177626190Y-90516666D01*
X177650000Y-90445238D01*
X177673809Y-90421428D01*
X178126190Y-89945238D02*
X178126190Y-90230952D01*
X178126190Y-90088095D02*
X177626190Y-90088095D01*
X177697619Y-90135714D01*
X177745238Y-90183333D01*
X177769047Y-90230952D01*
X177626190Y-89516666D02*
X177626190Y-89611904D01*
X177650000Y-89659523D01*
X177673809Y-89683333D01*
X177745238Y-89730952D01*
X177840476Y-89754761D01*
X178030952Y-89754761D01*
X178078571Y-89730952D01*
X178102380Y-89707142D01*
X178126190Y-89659523D01*
X178126190Y-89564285D01*
X178102380Y-89516666D01*
X178078571Y-89492857D01*
X178030952Y-89469047D01*
X177911904Y-89469047D01*
X177864285Y-89492857D01*
X177840476Y-89516666D01*
X177816666Y-89564285D01*
X177816666Y-89659523D01*
X177840476Y-89707142D01*
X177864285Y-89730952D01*
X177911904Y-89754761D01*
D14*
%TO.C,120*%
X157666666Y-92226190D02*
X157380952Y-92226190D01*
X157523809Y-92226190D02*
X157523809Y-91726190D01*
X157476190Y-91797619D01*
X157428571Y-91845238D01*
X157380952Y-91869047D01*
X157857142Y-91773809D02*
X157880952Y-91750000D01*
X157928571Y-91726190D01*
X158047619Y-91726190D01*
X158095238Y-91750000D01*
X158119047Y-91773809D01*
X158142857Y-91821428D01*
X158142857Y-91869047D01*
X158119047Y-91940476D01*
X157833333Y-92226190D01*
X158142857Y-92226190D01*
X158452380Y-91726190D02*
X158500000Y-91726190D01*
X158547619Y-91750000D01*
X158571428Y-91773809D01*
X158595238Y-91821428D01*
X158619047Y-91916666D01*
X158619047Y-92035714D01*
X158595238Y-92130952D01*
X158571428Y-92178571D01*
X158547619Y-92202380D01*
X158500000Y-92226190D01*
X158452380Y-92226190D01*
X158404761Y-92202380D01*
X158380952Y-92178571D01*
X158357142Y-92130952D01*
X158333333Y-92035714D01*
X158333333Y-91916666D01*
X158357142Y-91821428D01*
X158380952Y-91773809D01*
X158404761Y-91750000D01*
X158452380Y-91726190D01*
D11*
%TO.C,C2*%
X177533333Y-95857142D02*
X177485714Y-95904761D01*
X177342857Y-95952380D01*
X177247619Y-95952380D01*
X177104761Y-95904761D01*
X177009523Y-95809523D01*
X176961904Y-95714285D01*
X176914285Y-95523809D01*
X176914285Y-95380952D01*
X176961904Y-95190476D01*
X177009523Y-95095238D01*
X177104761Y-95000000D01*
X177247619Y-94952380D01*
X177342857Y-94952380D01*
X177485714Y-95000000D01*
X177533333Y-95047619D01*
X177914285Y-95047619D02*
X177961904Y-95000000D01*
X178057142Y-94952380D01*
X178295238Y-94952380D01*
X178390476Y-95000000D01*
X178438095Y-95047619D01*
X178485714Y-95142857D01*
X178485714Y-95238095D01*
X178438095Y-95380952D01*
X177866666Y-95952380D01*
X178485714Y-95952380D01*
%TO.C,LED1*%
X176852380Y-76719047D02*
X176852380Y-77195238D01*
X175852380Y-77195238D01*
X176328571Y-76385714D02*
X176328571Y-76052380D01*
X176852380Y-75909523D02*
X176852380Y-76385714D01*
X175852380Y-76385714D01*
X175852380Y-75909523D01*
X176852380Y-75480952D02*
X175852380Y-75480952D01*
X175852380Y-75242857D01*
X175900000Y-75100000D01*
X175995238Y-75004761D01*
X176090476Y-74957142D01*
X176280952Y-74909523D01*
X176423809Y-74909523D01*
X176614285Y-74957142D01*
X176709523Y-75004761D01*
X176804761Y-75100000D01*
X176852380Y-75242857D01*
X176852380Y-75480952D01*
X176852380Y-73957142D02*
X176852380Y-74528571D01*
X176852380Y-74242857D02*
X175852380Y-74242857D01*
X175995238Y-74338095D01*
X176090476Y-74433333D01*
X176138095Y-74528571D01*
D13*
%TO.C,C4*%
X178678571Y-87283333D02*
X178702380Y-87307142D01*
X178726190Y-87378571D01*
X178726190Y-87426190D01*
X178702380Y-87497619D01*
X178654761Y-87545238D01*
X178607142Y-87569047D01*
X178511904Y-87592857D01*
X178440476Y-87592857D01*
X178345238Y-87569047D01*
X178297619Y-87545238D01*
X178250000Y-87497619D01*
X178226190Y-87426190D01*
X178226190Y-87378571D01*
X178250000Y-87307142D01*
X178273809Y-87283333D01*
X178392857Y-86854761D02*
X178726190Y-86854761D01*
X178202380Y-86973809D02*
X178559523Y-87092857D01*
X178559523Y-86783333D01*
D11*
%TO.C,C14*%
X161757142Y-96257142D02*
X161709523Y-96304761D01*
X161566666Y-96352380D01*
X161471428Y-96352380D01*
X161328571Y-96304761D01*
X161233333Y-96209523D01*
X161185714Y-96114285D01*
X161138095Y-95923809D01*
X161138095Y-95780952D01*
X161185714Y-95590476D01*
X161233333Y-95495238D01*
X161328571Y-95400000D01*
X161471428Y-95352380D01*
X161566666Y-95352380D01*
X161709523Y-95400000D01*
X161757142Y-95447619D01*
X162709523Y-96352380D02*
X162138095Y-96352380D01*
X162423809Y-96352380D02*
X162423809Y-95352380D01*
X162328571Y-95495238D01*
X162233333Y-95590476D01*
X162138095Y-95638095D01*
X163566666Y-95685714D02*
X163566666Y-96352380D01*
X163328571Y-95304761D02*
X163090476Y-96019047D01*
X163709523Y-96019047D01*
%TO.C,U4*%
X160138095Y-86552380D02*
X160138095Y-87361904D01*
X160185714Y-87457142D01*
X160233333Y-87504761D01*
X160328571Y-87552380D01*
X160519047Y-87552380D01*
X160614285Y-87504761D01*
X160661904Y-87457142D01*
X160709523Y-87361904D01*
X160709523Y-86552380D01*
X161614285Y-86885714D02*
X161614285Y-87552380D01*
X161376190Y-86504761D02*
X161138095Y-87219047D01*
X161757142Y-87219047D01*
%TO.C,C5*%
X164633333Y-85757142D02*
X164585714Y-85804761D01*
X164442857Y-85852380D01*
X164347619Y-85852380D01*
X164204761Y-85804761D01*
X164109523Y-85709523D01*
X164061904Y-85614285D01*
X164014285Y-85423809D01*
X164014285Y-85280952D01*
X164061904Y-85090476D01*
X164109523Y-84995238D01*
X164204761Y-84900000D01*
X164347619Y-84852380D01*
X164442857Y-84852380D01*
X164585714Y-84900000D01*
X164633333Y-84947619D01*
X165538095Y-84852380D02*
X165061904Y-84852380D01*
X165014285Y-85328571D01*
X165061904Y-85280952D01*
X165157142Y-85233333D01*
X165395238Y-85233333D01*
X165490476Y-85280952D01*
X165538095Y-85328571D01*
X165585714Y-85423809D01*
X165585714Y-85661904D01*
X165538095Y-85757142D01*
X165490476Y-85804761D01*
X165395238Y-85852380D01*
X165157142Y-85852380D01*
X165061904Y-85804761D01*
X165014285Y-85757142D01*
%TO.C,VCC*%
X154466666Y-101252380D02*
X154800000Y-102252380D01*
X155133333Y-101252380D01*
X156038095Y-102157142D02*
X155990476Y-102204761D01*
X155847619Y-102252380D01*
X155752380Y-102252380D01*
X155609523Y-102204761D01*
X155514285Y-102109523D01*
X155466666Y-102014285D01*
X155419047Y-101823809D01*
X155419047Y-101680952D01*
X155466666Y-101490476D01*
X155514285Y-101395238D01*
X155609523Y-101300000D01*
X155752380Y-101252380D01*
X155847619Y-101252380D01*
X155990476Y-101300000D01*
X156038095Y-101347619D01*
X157038095Y-102157142D02*
X156990476Y-102204761D01*
X156847619Y-102252380D01*
X156752380Y-102252380D01*
X156609523Y-102204761D01*
X156514285Y-102109523D01*
X156466666Y-102014285D01*
X156419047Y-101823809D01*
X156419047Y-101680952D01*
X156466666Y-101490476D01*
X156514285Y-101395238D01*
X156609523Y-101300000D01*
X156752380Y-101252380D01*
X156847619Y-101252380D01*
X156990476Y-101300000D01*
X157038095Y-101347619D01*
X156128571Y-100007142D02*
X157271428Y-100007142D01*
X156700000Y-100578571D02*
X156700000Y-99435714D01*
X168928571Y-99107142D02*
X170071428Y-99107142D01*
%TO.C,LED2*%
X178452380Y-76719047D02*
X178452380Y-77195238D01*
X177452380Y-77195238D01*
X177928571Y-76385714D02*
X177928571Y-76052380D01*
X178452380Y-75909523D02*
X178452380Y-76385714D01*
X177452380Y-76385714D01*
X177452380Y-75909523D01*
X178452380Y-75480952D02*
X177452380Y-75480952D01*
X177452380Y-75242857D01*
X177500000Y-75100000D01*
X177595238Y-75004761D01*
X177690476Y-74957142D01*
X177880952Y-74909523D01*
X178023809Y-74909523D01*
X178214285Y-74957142D01*
X178309523Y-75004761D01*
X178404761Y-75100000D01*
X178452380Y-75242857D01*
X178452380Y-75480952D01*
X177547619Y-74528571D02*
X177500000Y-74480952D01*
X177452380Y-74385714D01*
X177452380Y-74147619D01*
X177500000Y-74052380D01*
X177547619Y-74004761D01*
X177642857Y-73957142D01*
X177738095Y-73957142D01*
X177880952Y-74004761D01*
X178452380Y-74576190D01*
X178452380Y-73957142D01*
%TO.C,X1*%
X182890476Y-93652380D02*
X183557142Y-94652380D01*
X183557142Y-93652380D02*
X182890476Y-94652380D01*
X184461904Y-94652380D02*
X183890476Y-94652380D01*
X184176190Y-94652380D02*
X184176190Y-93652380D01*
X184080952Y-93795238D01*
X183985714Y-93890476D01*
X183890476Y-93938095D01*
D14*
%TO.C,SW1*%
X178233333Y-102302380D02*
X178304761Y-102326190D01*
X178423809Y-102326190D01*
X178471428Y-102302380D01*
X178495238Y-102278571D01*
X178519047Y-102230952D01*
X178519047Y-102183333D01*
X178495238Y-102135714D01*
X178471428Y-102111904D01*
X178423809Y-102088095D01*
X178328571Y-102064285D01*
X178280952Y-102040476D01*
X178257142Y-102016666D01*
X178233333Y-101969047D01*
X178233333Y-101921428D01*
X178257142Y-101873809D01*
X178280952Y-101850000D01*
X178328571Y-101826190D01*
X178447619Y-101826190D01*
X178519047Y-101850000D01*
X178685714Y-101826190D02*
X178804761Y-102326190D01*
X178900000Y-101969047D01*
X178995238Y-102326190D01*
X179114285Y-101826190D01*
X179566666Y-102326190D02*
X179280952Y-102326190D01*
X179423809Y-102326190D02*
X179423809Y-101826190D01*
X179376190Y-101897619D01*
X179328571Y-101945238D01*
X179280952Y-101969047D01*
D11*
%TO.C,U2*%
X169538095Y-94952380D02*
X169538095Y-95761904D01*
X169585714Y-95857142D01*
X169633333Y-95904761D01*
X169728571Y-95952380D01*
X169919047Y-95952380D01*
X170014285Y-95904761D01*
X170061904Y-95857142D01*
X170109523Y-95761904D01*
X170109523Y-94952380D01*
X170538095Y-95047619D02*
X170585714Y-95000000D01*
X170680952Y-94952380D01*
X170919047Y-94952380D01*
X171014285Y-95000000D01*
X171061904Y-95047619D01*
X171109523Y-95142857D01*
X171109523Y-95238095D01*
X171061904Y-95380952D01*
X170490476Y-95952380D01*
X171109523Y-95952380D01*
%TO.C,C6*%
X166083333Y-95957142D02*
X166035714Y-96004761D01*
X165892857Y-96052380D01*
X165797619Y-96052380D01*
X165654761Y-96004761D01*
X165559523Y-95909523D01*
X165511904Y-95814285D01*
X165464285Y-95623809D01*
X165464285Y-95480952D01*
X165511904Y-95290476D01*
X165559523Y-95195238D01*
X165654761Y-95100000D01*
X165797619Y-95052380D01*
X165892857Y-95052380D01*
X166035714Y-95100000D01*
X166083333Y-95147619D01*
X166940476Y-95052380D02*
X166750000Y-95052380D01*
X166654761Y-95100000D01*
X166607142Y-95147619D01*
X166511904Y-95290476D01*
X166464285Y-95480952D01*
X166464285Y-95861904D01*
X166511904Y-95957142D01*
X166559523Y-96004761D01*
X166654761Y-96052380D01*
X166845238Y-96052380D01*
X166940476Y-96004761D01*
X166988095Y-95957142D01*
X167035714Y-95861904D01*
X167035714Y-95623809D01*
X166988095Y-95528571D01*
X166940476Y-95480952D01*
X166845238Y-95433333D01*
X166654761Y-95433333D01*
X166559523Y-95480952D01*
X166511904Y-95528571D01*
X166464285Y-95623809D01*
%TO.C,R2*%
X159533333Y-96552380D02*
X159200000Y-96076190D01*
X158961904Y-96552380D02*
X158961904Y-95552380D01*
X159342857Y-95552380D01*
X159438095Y-95600000D01*
X159485714Y-95647619D01*
X159533333Y-95742857D01*
X159533333Y-95885714D01*
X159485714Y-95980952D01*
X159438095Y-96028571D01*
X159342857Y-96076190D01*
X158961904Y-96076190D01*
X159914285Y-95647619D02*
X159961904Y-95600000D01*
X160057142Y-95552380D01*
X160295238Y-95552380D01*
X160390476Y-95600000D01*
X160438095Y-95647619D01*
X160485714Y-95742857D01*
X160485714Y-95838095D01*
X160438095Y-95980952D01*
X159866666Y-96552380D01*
X160485714Y-96552380D01*
D13*
%TO.C,C15*%
X178078571Y-92721428D02*
X178102380Y-92745238D01*
X178126190Y-92816666D01*
X178126190Y-92864285D01*
X178102380Y-92935714D01*
X178054761Y-92983333D01*
X178007142Y-93007142D01*
X177911904Y-93030952D01*
X177840476Y-93030952D01*
X177745238Y-93007142D01*
X177697619Y-92983333D01*
X177650000Y-92935714D01*
X177626190Y-92864285D01*
X177626190Y-92816666D01*
X177650000Y-92745238D01*
X177673809Y-92721428D01*
X178126190Y-92245238D02*
X178126190Y-92530952D01*
X178126190Y-92388095D02*
X177626190Y-92388095D01*
X177697619Y-92435714D01*
X177745238Y-92483333D01*
X177769047Y-92530952D01*
X177626190Y-91792857D02*
X177626190Y-92030952D01*
X177864285Y-92054761D01*
X177840476Y-92030952D01*
X177816666Y-91983333D01*
X177816666Y-91864285D01*
X177840476Y-91816666D01*
X177864285Y-91792857D01*
X177911904Y-91769047D01*
X178030952Y-91769047D01*
X178078571Y-91792857D01*
X178102380Y-91816666D01*
X178126190Y-91864285D01*
X178126190Y-91983333D01*
X178102380Y-92030952D01*
X178078571Y-92054761D01*
D11*
%TO.C,C1*%
X175083333Y-97857142D02*
X175035714Y-97904761D01*
X174892857Y-97952380D01*
X174797619Y-97952380D01*
X174654761Y-97904761D01*
X174559523Y-97809523D01*
X174511904Y-97714285D01*
X174464285Y-97523809D01*
X174464285Y-97380952D01*
X174511904Y-97190476D01*
X174559523Y-97095238D01*
X174654761Y-97000000D01*
X174797619Y-96952380D01*
X174892857Y-96952380D01*
X175035714Y-97000000D01*
X175083333Y-97047619D01*
X176035714Y-97952380D02*
X175464285Y-97952380D01*
X175750000Y-97952380D02*
X175750000Y-96952380D01*
X175654761Y-97095238D01*
X175559523Y-97190476D01*
X175464285Y-97238095D01*
%TO.C,3V3*%
X158761904Y-93852380D02*
X159380952Y-93852380D01*
X159047619Y-94233333D01*
X159190476Y-94233333D01*
X159285714Y-94280952D01*
X159333333Y-94328571D01*
X159380952Y-94423809D01*
X159380952Y-94661904D01*
X159333333Y-94757142D01*
X159285714Y-94804761D01*
X159190476Y-94852380D01*
X158904761Y-94852380D01*
X158809523Y-94804761D01*
X158761904Y-94757142D01*
X159666666Y-93852380D02*
X160000000Y-94852380D01*
X160333333Y-93852380D01*
X160571428Y-93852380D02*
X161190476Y-93852380D01*
X160857142Y-94233333D01*
X161000000Y-94233333D01*
X161095238Y-94280952D01*
X161142857Y-94328571D01*
X161190476Y-94423809D01*
X161190476Y-94661904D01*
X161142857Y-94757142D01*
X161095238Y-94804761D01*
X161000000Y-94852380D01*
X160714285Y-94852380D01*
X160619047Y-94804761D01*
X160571428Y-94757142D01*
%TO.C,C16*%
X178350000Y-88525000D02*
X178350000Y-90875000D01*
X179750000Y-88525000D02*
X179750000Y-90875000D01*
%TO.C,120*%
X157200000Y-89025000D02*
X157200000Y-91375000D01*
X158600000Y-89025000D02*
X158600000Y-91375000D01*
D15*
%TO.C,J1*%
X156118000Y-84745000D02*
X156118000Y-84445000D01*
X156118000Y-84445000D02*
X156418000Y-84445000D01*
X156418000Y-84445000D02*
X156118000Y-84745000D01*
G36*
X156118000Y-84745000D02*
G01*
X156118000Y-84445000D01*
X156418000Y-84445000D01*
X156118000Y-84745000D01*
G37*
X156118000Y-84745000D02*
X156118000Y-84445000D01*
X156418000Y-84445000D01*
X156118000Y-84745000D01*
D16*
X155438000Y-86160000D02*
X155438000Y-84360000D01*
X153838000Y-77690000D02*
X155438000Y-77690000D01*
X150968000Y-84890000D02*
X150968000Y-78960000D01*
X153838000Y-86160000D02*
X155438000Y-86160000D01*
X155438000Y-77690000D02*
X155438000Y-79490000D01*
D11*
%TO.C,C2*%
X175575000Y-93300000D02*
X177925000Y-93300000D01*
X175575000Y-94700000D02*
X177925000Y-94700000D01*
%TO.C,LED1*%
X177300000Y-78792000D02*
X177300000Y-80475000D01*
X178700000Y-78792000D02*
X178700000Y-80475000D01*
X177300000Y-78125000D02*
X177300000Y-78284000D01*
X178700000Y-78125000D02*
X178700000Y-78284000D01*
%TO.C,C4*%
X178050000Y-89075000D02*
X178050000Y-86725000D01*
X176650000Y-89075000D02*
X176650000Y-86725000D01*
%TO.C,C14*%
X161325000Y-95100000D02*
X163675000Y-95100000D01*
X161325000Y-93700000D02*
X163675000Y-93700000D01*
D10*
%TO.C,U4*%
X165700000Y-92800000D02*
X164900000Y-92800000D01*
X160650000Y-87850000D02*
X164550000Y-87850000D01*
X164550000Y-87850000D02*
X164550000Y-92250000D01*
X164550000Y-92250000D02*
X164050000Y-92750000D01*
X164050000Y-92750000D02*
X160650000Y-92750000D01*
X160650000Y-92750000D02*
X160650000Y-87850000D01*
D11*
%TO.C,C5*%
X168125000Y-84800000D02*
X165775000Y-84800000D01*
X168125000Y-86200000D02*
X165775000Y-86200000D01*
%TO.C,R7*%
X177100000Y-81025000D02*
X177100000Y-83375000D01*
X175700000Y-81025000D02*
X175700000Y-83375000D01*
D16*
%TO.C,VCC*%
X166260000Y-102910000D02*
X157540000Y-102910000D01*
X166260000Y-97490000D02*
X157540000Y-97490000D01*
X167960000Y-101610000D02*
X166260000Y-102910000D01*
X167960000Y-98790000D02*
X166260000Y-97490000D01*
X157540000Y-102910000D02*
X157540000Y-97490000D01*
X167960000Y-101610000D02*
X167960000Y-98790000D01*
D11*
%TO.C,LED2*%
X175700000Y-78125000D02*
X175700000Y-78284000D01*
X177100000Y-78792000D02*
X177100000Y-80475000D01*
X175700000Y-78792000D02*
X175700000Y-80475000D01*
X177100000Y-78125000D02*
X177100000Y-78284000D01*
D16*
%TO.C,J6*%
X150890000Y-91790000D02*
X150890000Y-88360000D01*
X153760000Y-87090000D02*
X155360000Y-87090000D01*
X155360000Y-93060000D02*
X155360000Y-91260000D01*
X153760000Y-93060000D02*
X155360000Y-93060000D01*
X155360000Y-87090000D02*
X155360000Y-88890000D01*
D15*
X156040000Y-91645000D02*
X156040000Y-91345000D01*
X156040000Y-91345000D02*
X156340000Y-91345000D01*
X156340000Y-91345000D02*
X156040000Y-91645000D01*
G36*
X156040000Y-91645000D02*
G01*
X156040000Y-91345000D01*
X156340000Y-91345000D01*
X156040000Y-91645000D01*
G37*
X156040000Y-91645000D02*
X156040000Y-91345000D01*
X156340000Y-91345000D01*
X156040000Y-91645000D01*
D10*
%TO.C,X1*%
X182625000Y-93150000D02*
X183125000Y-93150000D01*
X180125000Y-93150000D02*
X180125000Y-91700000D01*
X181325000Y-93150000D02*
X180125000Y-93150000D01*
X181925000Y-89250000D02*
X183125000Y-89250000D01*
X183125000Y-93150000D02*
X183125000Y-92650000D01*
X181325000Y-89250000D02*
X180125000Y-89250000D01*
X183125000Y-89250000D02*
X183125000Y-90700000D01*
X180125000Y-89250000D02*
X180125000Y-90700000D01*
D16*
%TO.C,SW1*%
X176060000Y-100575000D02*
X174853333Y-100575000D01*
X176060000Y-100455000D02*
X174853333Y-100455000D01*
X176060000Y-100095000D02*
X174853333Y-100095000D01*
X172440000Y-100935000D02*
X176060000Y-100935000D01*
X176060000Y-100335000D02*
X174853333Y-100335000D01*
X176060000Y-99665000D02*
X172440000Y-99665000D01*
X177900000Y-102650000D02*
X176517000Y-102650000D01*
X177900000Y-102650000D02*
X177900000Y-101267000D01*
X170840000Y-102410000D02*
X170840000Y-101100000D01*
X177660000Y-102410000D02*
X170840000Y-102410000D01*
X170840000Y-99500000D02*
X170840000Y-98190000D01*
X176060000Y-99735000D02*
X174853333Y-99735000D01*
X177660000Y-99500000D02*
X177660000Y-98190000D01*
X177660000Y-98190000D02*
X170840000Y-98190000D01*
X174853333Y-100935000D02*
X174853333Y-99665000D01*
X176060000Y-100215000D02*
X174853333Y-100215000D01*
X176060000Y-100695000D02*
X174853333Y-100695000D01*
X176060000Y-100815000D02*
X174853333Y-100815000D01*
X177660000Y-102410000D02*
X177660000Y-101100000D01*
X172440000Y-99665000D02*
X172440000Y-100935000D01*
X176060000Y-99975000D02*
X174853333Y-99975000D01*
X176060000Y-100935000D02*
X176060000Y-99665000D01*
X176060000Y-99855000D02*
X174853333Y-99855000D01*
D10*
%TO.C,U2*%
X175150000Y-86950000D02*
X175150000Y-86400000D01*
X167950000Y-86400000D02*
X167950000Y-86950000D01*
X167950000Y-93600000D02*
X168500000Y-93600000D01*
X167950000Y-93050000D02*
X167950000Y-93600000D01*
X168500000Y-86400000D02*
X167950000Y-86400000D01*
X175150000Y-86400000D02*
X174600000Y-86400000D01*
X174600000Y-93600000D02*
X175150000Y-93600000D01*
X175150000Y-93600000D02*
X175150000Y-93050000D01*
X175150000Y-93050000D02*
X175350000Y-93250000D01*
X175350000Y-93250000D02*
X175350000Y-93800000D01*
X175350000Y-93800000D02*
X174800000Y-93800000D01*
X174800000Y-93800000D02*
X174600000Y-93600000D01*
G36*
X175350000Y-93250000D02*
G01*
X175350000Y-93800000D01*
X174800000Y-93800000D01*
X174600000Y-93600000D01*
X175150000Y-93600000D01*
X175150000Y-93050000D01*
X175350000Y-93250000D01*
G37*
X175350000Y-93250000D02*
X175350000Y-93800000D01*
X174800000Y-93800000D01*
X174600000Y-93600000D01*
X175150000Y-93600000D01*
X175150000Y-93050000D01*
X175350000Y-93250000D01*
D11*
%TO.C,C6*%
X167525000Y-93300000D02*
X165175000Y-93300000D01*
X167525000Y-94700000D02*
X165175000Y-94700000D01*
%TO.C,R2*%
X156175000Y-93500000D02*
X158525000Y-93500000D01*
X156175000Y-94900000D02*
X158525000Y-94900000D01*
%TO.C,R6*%
X177300000Y-81025000D02*
X177300000Y-83375000D01*
X178700000Y-81025000D02*
X178700000Y-83375000D01*
D16*
%TO.C,J4*%
X184360000Y-83085000D02*
X184360000Y-86515000D01*
X179890000Y-81815000D02*
X179890000Y-83615000D01*
X179890000Y-87785000D02*
X179890000Y-85985000D01*
X181490000Y-81815000D02*
X179890000Y-81815000D01*
X181490000Y-87785000D02*
X179890000Y-87785000D01*
D15*
X179210000Y-83230000D02*
X179210000Y-83530000D01*
X179210000Y-83530000D02*
X178910000Y-83530000D01*
X178910000Y-83530000D02*
X179210000Y-83230000D01*
G36*
X179210000Y-83530000D02*
G01*
X178910000Y-83530000D01*
X179210000Y-83230000D01*
X179210000Y-83530000D01*
G37*
X179210000Y-83530000D02*
X178910000Y-83530000D01*
X179210000Y-83230000D01*
X179210000Y-83530000D01*
D11*
%TO.C,C15*%
X178350000Y-93775000D02*
X178350000Y-91425000D01*
X179750000Y-93775000D02*
X179750000Y-91425000D01*
%TO.C,C1*%
X174075000Y-96600000D02*
X176425000Y-96600000D01*
X174075000Y-95200000D02*
X176425000Y-95200000D01*
%TO.C,3V3*%
X157858000Y-95300000D02*
X156175000Y-95300000D01*
X158525000Y-95300000D02*
X158366000Y-95300000D01*
X157858000Y-96700000D02*
X156175000Y-96700000D01*
X158525000Y-96700000D02*
X158366000Y-96700000D01*
D16*
%TO.C,J3*%
X179940000Y-75290000D02*
X179940000Y-77090000D01*
X181540000Y-75290000D02*
X179940000Y-75290000D01*
X179940000Y-81260000D02*
X179940000Y-79460000D01*
X181540000Y-81260000D02*
X179940000Y-81260000D01*
X184410000Y-76560000D02*
X184410000Y-79990000D01*
D15*
X179260000Y-76705000D02*
X179260000Y-77005000D01*
X179260000Y-77005000D02*
X178960000Y-77005000D01*
X178960000Y-77005000D02*
X179260000Y-76705000D01*
G36*
X179260000Y-77005000D02*
G01*
X178960000Y-77005000D01*
X179260000Y-76705000D01*
X179260000Y-77005000D01*
G37*
X179260000Y-77005000D02*
X178960000Y-77005000D01*
X179260000Y-76705000D01*
X179260000Y-77005000D01*
%TD*%
M02*
