%TF.GenerationSoftware,KiCad,Pcbnew,(6.0.1)*%
%TF.CreationDate,2022-12-05T15:25:32+08:00*%
%TF.ProjectId,IMU_base_V7.1,494d555f-6261-4736-955f-56372e312e6b,rev?*%
%TF.SameCoordinates,Original*%
%TF.FileFunction,Soldermask,Top*%
%TF.FilePolarity,Negative*%
%FSLAX46Y46*%
G04 Gerber Fmt 4.6, Leading zero omitted, Abs format (unit mm)*
G04 Created by KiCad (PCBNEW (6.0.1)) date 2022-12-05 15:25:32*
%MOMM*%
%LPD*%
G01*
G04 APERTURE LIST*
G04 Aperture macros list*
%AMRoundRect*
0 Rectangle with rounded corners*
0 $1 Rounding radius*
0 $2 $3 $4 $5 $6 $7 $8 $9 X,Y pos of 4 corners*
0 Add a 4 corners polygon primitive as box body*
4,1,4,$2,$3,$4,$5,$6,$7,$8,$9,$2,$3,0*
0 Add four circle primitives for the rounded corners*
1,1,$1+$1,$2,$3*
1,1,$1+$1,$4,$5*
1,1,$1+$1,$6,$7*
1,1,$1+$1,$8,$9*
0 Add four rect primitives between the rounded corners*
20,1,$1+$1,$2,$3,$4,$5,0*
20,1,$1+$1,$4,$5,$6,$7,0*
20,1,$1+$1,$6,$7,$8,$9,0*
20,1,$1+$1,$8,$9,$2,$3,0*%
%AMFreePoly0*
4,1,35,0.475355,0.560355,0.685355,0.350355,0.700000,0.315000,0.700000,-0.472500,0.699039,-0.482254,0.695043,-0.502345,0.687577,-0.520370,0.676196,-0.537402,0.662402,-0.551196,0.645370,-0.562577,0.627345,-0.570043,0.607254,-0.574039,0.597500,-0.575000,-0.597500,-0.575000,-0.607254,-0.574039,-0.627345,-0.570043,-0.645370,-0.562577,-0.662402,-0.551196,-0.676196,-0.537402,-0.687577,-0.520370,
-0.695043,-0.502345,-0.699039,-0.482254,-0.700000,-0.472500,-0.700000,0.472500,-0.699039,0.482254,-0.695043,0.502345,-0.687577,0.520370,-0.676196,0.537402,-0.662402,0.551196,-0.645370,0.562577,-0.627345,0.570043,-0.607254,0.574039,-0.597500,0.575000,0.440000,0.575000,0.475355,0.560355,0.475355,0.560355,$1*%
G04 Aperture macros list end*
%ADD10RoundRect,0.090000X-0.460000X-0.360000X0.460000X-0.360000X0.460000X0.360000X-0.460000X0.360000X0*%
%ADD11RoundRect,0.100000X1.350000X0.450000X-1.350000X0.450000X-1.350000X-0.450000X1.350000X-0.450000X0*%
%ADD12RoundRect,0.080000X0.820000X0.270000X-0.820000X0.270000X-0.820000X-0.270000X0.820000X-0.270000X0*%
%ADD13RoundRect,0.090000X0.360000X-0.460000X0.360000X0.460000X-0.360000X0.460000X-0.360000X-0.460000X0*%
%ADD14RoundRect,0.090000X0.460000X0.360000X-0.460000X0.360000X-0.460000X-0.360000X0.460000X-0.360000X0*%
%ADD15RoundRect,0.080000X0.470000X0.270000X-0.470000X0.270000X-0.470000X-0.270000X0.470000X-0.270000X0*%
%ADD16RoundRect,0.090000X-0.360000X0.460000X-0.360000X-0.460000X0.360000X-0.460000X0.360000X0.460000X0*%
%ADD17R,3.800000X3.800000*%
%ADD18C,3.800000*%
%ADD19FreePoly0,90.000000*%
%ADD20RoundRect,0.102500X0.472500X-0.597500X0.472500X0.597500X-0.472500X0.597500X-0.472500X-0.597500X0*%
%ADD21R,2.440000X1.120000*%
%ADD22RoundRect,0.065000X0.410000X0.135000X-0.410000X0.135000X-0.410000X-0.135000X0.410000X-0.135000X0*%
%ADD23RoundRect,0.065000X-0.135000X0.410000X-0.135000X-0.410000X0.135000X-0.410000X0.135000X0.410000X0*%
%ADD24RoundRect,0.080000X-0.820000X-0.270000X0.820000X-0.270000X0.820000X0.270000X-0.820000X0.270000X0*%
%ADD25RoundRect,0.100000X-1.350000X-0.450000X1.350000X-0.450000X1.350000X0.450000X-1.350000X0.450000X0*%
G04 APERTURE END LIST*
D10*
%TO.C,C16*%
X179050000Y-88900000D03*
X179050000Y-90500000D03*
%TD*%
%TO.C,120*%
X157900000Y-89400000D03*
X157900000Y-91000000D03*
%TD*%
D11*
%TO.C,J1*%
X152178000Y-85650000D03*
X152178000Y-78200000D03*
D12*
X155528000Y-80050000D03*
X155528000Y-81300000D03*
X155528000Y-82550000D03*
X155528000Y-83800000D03*
%TD*%
D13*
%TO.C,C2*%
X175950000Y-94000000D03*
X177550000Y-94000000D03*
%TD*%
D10*
%TO.C,LED1*%
X178000000Y-78500000D03*
X178000000Y-80100000D03*
%TD*%
D14*
%TO.C,C4*%
X177350000Y-88700000D03*
X177350000Y-87100000D03*
%TD*%
D13*
%TO.C,C14*%
X161700000Y-94400000D03*
X163300000Y-94400000D03*
%TD*%
D15*
%TO.C,U4*%
X165300000Y-92205000D03*
X165300000Y-90935000D03*
X165300000Y-89665000D03*
X165300000Y-88395000D03*
X159900000Y-88395000D03*
X159900000Y-89665000D03*
X159900000Y-90935000D03*
X159900000Y-92205000D03*
%TD*%
D16*
%TO.C,C5*%
X167750000Y-85500000D03*
X166150000Y-85500000D03*
%TD*%
D10*
%TO.C,R7*%
X176400000Y-81400000D03*
X176400000Y-83000000D03*
%TD*%
D17*
%TO.C,VCC*%
X165250000Y-100200000D03*
D18*
X160250000Y-100200000D03*
%TD*%
D10*
%TO.C,LED2*%
X176400000Y-78500000D03*
X176400000Y-80100000D03*
%TD*%
D12*
%TO.C,J6*%
X155450000Y-90700000D03*
X155450000Y-89450000D03*
D11*
X152100000Y-87600000D03*
X152100000Y-92550000D03*
%TD*%
D19*
%TO.C,X1*%
X182400000Y-92300000D03*
D20*
X182400000Y-90100000D03*
X180850000Y-90100000D03*
X180850000Y-92300000D03*
%TD*%
D21*
%TO.C,SW1*%
X178555000Y-100300000D03*
X169945000Y-100300000D03*
%TD*%
D22*
%TO.C,U2*%
X175800000Y-92750000D03*
X175800000Y-92250000D03*
X175800000Y-91750000D03*
X175800000Y-91250000D03*
X175800000Y-90750000D03*
X175800000Y-90250000D03*
X175800000Y-89750000D03*
X175800000Y-89250000D03*
X175800000Y-88750000D03*
X175800000Y-88250000D03*
X175800000Y-87750000D03*
X175800000Y-87250000D03*
D23*
X174300000Y-85750000D03*
X173800000Y-85750000D03*
X173300000Y-85750000D03*
X172800000Y-85750000D03*
X172300000Y-85750000D03*
X171800000Y-85750000D03*
X171300000Y-85750000D03*
X170800000Y-85750000D03*
X170300000Y-85750000D03*
X169800000Y-85750000D03*
X169300000Y-85750000D03*
X168800000Y-85750000D03*
D22*
X167300000Y-87250000D03*
X167300000Y-87750000D03*
X167300000Y-88250000D03*
X167300000Y-88750000D03*
X167300000Y-89250000D03*
X167300000Y-89750000D03*
X167300000Y-90250000D03*
X167300000Y-90750000D03*
X167300000Y-91250000D03*
X167300000Y-91750000D03*
X167300000Y-92250000D03*
X167300000Y-92750000D03*
D23*
X168800000Y-94250000D03*
X169300000Y-94250000D03*
X169800000Y-94250000D03*
X170300000Y-94250000D03*
X170800000Y-94250000D03*
X171300000Y-94250000D03*
X171800000Y-94250000D03*
X172300000Y-94250000D03*
X172800000Y-94250000D03*
X173300000Y-94250000D03*
X173800000Y-94250000D03*
X174300000Y-94250000D03*
%TD*%
D16*
%TO.C,C6*%
X167150000Y-94000000D03*
X165550000Y-94000000D03*
%TD*%
D13*
%TO.C,R2*%
X156550000Y-94200000D03*
X158150000Y-94200000D03*
%TD*%
D10*
%TO.C,R6*%
X178000000Y-81400000D03*
X178000000Y-83000000D03*
%TD*%
D24*
%TO.C,J4*%
X179800000Y-84175000D03*
X179800000Y-85425000D03*
D25*
X183150000Y-82325000D03*
X183150000Y-87275000D03*
%TD*%
D14*
%TO.C,C15*%
X179050000Y-93400000D03*
X179050000Y-91800000D03*
%TD*%
D13*
%TO.C,C1*%
X174450000Y-95900000D03*
X176050000Y-95900000D03*
%TD*%
D16*
%TO.C,3V3*%
X158150000Y-96000000D03*
X156550000Y-96000000D03*
%TD*%
D24*
%TO.C,J3*%
X179850000Y-77650000D03*
X179850000Y-78900000D03*
D25*
X183200000Y-80750000D03*
X183200000Y-75800000D03*
%TD*%
M02*
