M48
; DRILL file {KiCad (6.0.1)} date Sat Nov 26 20:31:11 2022
; FORMAT={-:-/ absolute / metric / decimal}
; #@! TF.CreationDate,2022-11-26T20:31:11+08:00
; #@! TF.GenerationSoftware,Kicad,Pcbnew,(6.0.1)
; #@! TF.FileFunction,MixedPlating,1,2
FMAT,2
METRIC
; #@! TA.AperFunction,Plated,PTH,ViaDrill
T1C0.200
; #@! TA.AperFunction,Plated,PTH,ViaDrill
T2C0.300
; #@! TA.AperFunction,Plated,PTH,ViaDrill
T3C0.400
; #@! TA.AperFunction,Plated,PTH,ComponentDrill
T4C2.700
; #@! TA.AperFunction,Plated,PTH,ViaDrill
T5C3.000
%
G90
G05
T1
X189.3Y-69.3
X189.675Y-73.0
X189.7Y-69.3
X191.475Y-74.089
X191.8Y-75.6
X192.0Y-77.5
X192.6Y-73.0
X193.0Y-73.6
X195.5Y-69.1
X195.7Y-79.5
X196.224Y-69.3
X196.9Y-68.9
X196.9Y-76.8
X197.7Y-72.6
X200.5Y-76.8
X200.7Y-74.2
X201.4Y-77.0
X202.5Y-74.1
X202.9Y-77.1
X203.9Y-73.3
X205.2Y-73.3
T2
X184.7Y-69.5
X186.0Y-72.4
X189.38Y-68.78
X190.0Y-68.8
X203.0Y-83.7
T3
X176.8Y-66.4
X176.8Y-68.1
X176.9Y-64.6
X180.4Y-63.9
X180.4Y-64.8
X182.9Y-77.6
X184.0Y-57.7
X184.0Y-58.7
X184.0Y-59.6
X185.0Y-57.2
X186.1Y-57.1
X186.5Y-66.7
X187.2Y-57.1
X187.2Y-64.8
X187.211Y-71.237
X188.1Y-64.8
X188.1Y-78.3
X190.7Y-65.3
X190.7Y-66.3
X191.3Y-86.4
X191.4Y-83.4
X191.4Y-84.5
X191.4Y-85.4
X191.6Y-65.3
X191.6Y-66.3
X192.3Y-67.8
X193.2Y-75.4
X193.2Y-76.3
X194.175Y-63.775
X194.3Y-75.4
X194.3Y-76.3
X196.3Y-66.6
X198.014Y-76.208
X198.1Y-73.3
X198.6Y-68.8
X199.1Y-80.8
X199.5Y-59.6
X199.5Y-60.6
X199.8Y-81.4
X199.9Y-79.2
X200.55Y-59.6
X200.55Y-60.6
X200.7Y-63.2
X200.9Y-70.6
X201.2Y-69.7
X201.6Y-59.6
X201.6Y-60.6
X202.7Y-71.7
X204.0Y-78.3
X205.7Y-78.3
X206.2Y-73.1
X207.5Y-73.8
X207.5Y-75.6
X207.5Y-77.4
T4
X183.65Y-84.7
X188.65Y-84.7
T5
X176.492Y-57.003
X176.492Y-83.903
X205.782Y-83.903
X205.792Y-57.003
T0
M30
