%TF.GenerationSoftware,KiCad,Pcbnew,(6.0.1)*%
%TF.CreationDate,2022-11-26T20:31:09+08:00*%
%TF.ProjectId,IMU_base_V7,494d555f-6261-4736-955f-56372e6b6963,rev?*%
%TF.SameCoordinates,Original*%
%TF.FileFunction,Soldermask,Top*%
%TF.FilePolarity,Negative*%
%FSLAX46Y46*%
G04 Gerber Fmt 4.6, Leading zero omitted, Abs format (unit mm)*
G04 Created by KiCad (PCBNEW (6.0.1)) date 2022-11-26 20:31:09*
%MOMM*%
%LPD*%
G01*
G04 APERTURE LIST*
G04 Aperture macros list*
%AMRoundRect*
0 Rectangle with rounded corners*
0 $1 Rounding radius*
0 $2 $3 $4 $5 $6 $7 $8 $9 X,Y pos of 4 corners*
0 Add a 4 corners polygon primitive as box body*
4,1,4,$2,$3,$4,$5,$6,$7,$8,$9,$2,$3,0*
0 Add four circle primitives for the rounded corners*
1,1,$1+$1,$2,$3*
1,1,$1+$1,$4,$5*
1,1,$1+$1,$6,$7*
1,1,$1+$1,$8,$9*
0 Add four rect primitives between the rounded corners*
20,1,$1+$1,$2,$3,$4,$5,0*
20,1,$1+$1,$4,$5,$6,$7,0*
20,1,$1+$1,$6,$7,$8,$9,0*
20,1,$1+$1,$8,$9,$2,$3,0*%
%AMFreePoly0*
4,1,35,0.475355,0.560355,0.685355,0.350355,0.700000,0.315000,0.700000,-0.472500,0.699039,-0.482254,0.695043,-0.502345,0.687577,-0.520370,0.676196,-0.537402,0.662402,-0.551196,0.645370,-0.562577,0.627345,-0.570043,0.607254,-0.574039,0.597500,-0.575000,-0.597500,-0.575000,-0.607254,-0.574039,-0.627345,-0.570043,-0.645370,-0.562577,-0.662402,-0.551196,-0.676196,-0.537402,-0.687577,-0.520370,
-0.695043,-0.502345,-0.699039,-0.482254,-0.700000,-0.472500,-0.700000,0.472500,-0.699039,0.482254,-0.695043,0.502345,-0.687577,0.520370,-0.676196,0.537402,-0.662402,0.551196,-0.645370,0.562577,-0.627345,0.570043,-0.607254,0.574039,-0.597500,0.575000,0.440000,0.575000,0.475355,0.560355,0.475355,0.560355,$1*%
G04 Aperture macros list end*
%ADD10RoundRect,0.090000X-0.460000X-0.360000X0.460000X-0.360000X0.460000X0.360000X-0.460000X0.360000X0*%
%ADD11RoundRect,0.080000X0.470000X0.270000X-0.470000X0.270000X-0.470000X-0.270000X0.470000X-0.270000X0*%
%ADD12RoundRect,0.090000X0.360000X-0.460000X0.360000X0.460000X-0.360000X0.460000X-0.360000X-0.460000X0*%
%ADD13RoundRect,0.090000X0.460000X0.360000X-0.460000X0.360000X-0.460000X-0.360000X0.460000X-0.360000X0*%
%ADD14RoundRect,0.080000X0.820000X0.270000X-0.820000X0.270000X-0.820000X-0.270000X0.820000X-0.270000X0*%
%ADD15RoundRect,0.100000X1.350000X0.450000X-1.350000X0.450000X-1.350000X-0.450000X1.350000X-0.450000X0*%
%ADD16R,3.800000X3.800000*%
%ADD17C,3.800000*%
%ADD18RoundRect,0.090000X-0.360000X0.460000X-0.360000X-0.460000X0.360000X-0.460000X0.360000X0.460000X0*%
%ADD19RoundRect,0.065000X0.410000X0.135000X-0.410000X0.135000X-0.410000X-0.135000X0.410000X-0.135000X0*%
%ADD20RoundRect,0.065000X-0.135000X0.410000X-0.135000X-0.410000X0.135000X-0.410000X0.135000X0.410000X0*%
%ADD21FreePoly0,90.000000*%
%ADD22RoundRect,0.102500X0.472500X-0.597500X0.472500X0.597500X-0.472500X0.597500X-0.472500X-0.597500X0*%
%ADD23R,2.440000X1.120000*%
%ADD24RoundRect,0.080000X-0.820000X-0.270000X0.820000X-0.270000X0.820000X0.270000X-0.820000X0.270000X0*%
%ADD25RoundRect,0.100000X-1.350000X-0.450000X1.350000X-0.450000X1.350000X0.450000X-1.350000X0.450000X0*%
G04 APERTURE END LIST*
D10*
%TO.C,LED1*%
X201400000Y-63000000D03*
X201400000Y-64600000D03*
%TD*%
D11*
%TO.C,U4*%
X183300000Y-76705000D03*
X183300000Y-75435000D03*
X183300000Y-74165000D03*
X183300000Y-72895000D03*
X188700000Y-72895000D03*
X188700000Y-74165000D03*
X188700000Y-75435000D03*
X188700000Y-76705000D03*
%TD*%
D12*
%TO.C,C14*%
X186700000Y-78900000D03*
X185100000Y-78900000D03*
%TD*%
D13*
%TO.C,C4*%
X200750000Y-73200000D03*
X200750000Y-71600000D03*
%TD*%
D12*
%TO.C,C2*%
X199350000Y-78500000D03*
X200950000Y-78500000D03*
%TD*%
D14*
%TO.C,J1*%
X178928000Y-68300000D03*
X178928000Y-67050000D03*
X178928000Y-65800000D03*
X178928000Y-64550000D03*
D15*
X175578000Y-62700000D03*
X175578000Y-70150000D03*
%TD*%
%TO.C,J6*%
X175500000Y-77050000D03*
X175500000Y-72100000D03*
D14*
X178850000Y-73950000D03*
X178850000Y-75200000D03*
%TD*%
D10*
%TO.C,LED2*%
X199800000Y-63000000D03*
X199800000Y-64600000D03*
%TD*%
D16*
%TO.C,VCC*%
X188650000Y-84700000D03*
D17*
X183650000Y-84700000D03*
%TD*%
D10*
%TO.C,R7*%
X199800000Y-65900000D03*
X199800000Y-67500000D03*
%TD*%
D18*
%TO.C,C5*%
X191150000Y-70000000D03*
X189550000Y-70000000D03*
%TD*%
%TO.C,C6*%
X190550000Y-78500000D03*
X188950000Y-78500000D03*
%TD*%
D19*
%TO.C,U2*%
X199200000Y-77250000D03*
X199200000Y-76750000D03*
X199200000Y-76250000D03*
X199200000Y-75750000D03*
X199200000Y-75250000D03*
X199200000Y-74750000D03*
X199200000Y-74250000D03*
X199200000Y-73750000D03*
X199200000Y-73250000D03*
X199200000Y-72750000D03*
X199200000Y-72250000D03*
X199200000Y-71750000D03*
D20*
X197700000Y-70250000D03*
X197200000Y-70250000D03*
X196700000Y-70250000D03*
X196200000Y-70250000D03*
X195700000Y-70250000D03*
X195200000Y-70250000D03*
X194700000Y-70250000D03*
X194200000Y-70250000D03*
X193700000Y-70250000D03*
X193200000Y-70250000D03*
X192700000Y-70250000D03*
X192200000Y-70250000D03*
D19*
X190700000Y-71750000D03*
X190700000Y-72250000D03*
X190700000Y-72750000D03*
X190700000Y-73250000D03*
X190700000Y-73750000D03*
X190700000Y-74250000D03*
X190700000Y-74750000D03*
X190700000Y-75250000D03*
X190700000Y-75750000D03*
X190700000Y-76250000D03*
X190700000Y-76750000D03*
X190700000Y-77250000D03*
D20*
X192200000Y-78750000D03*
X192700000Y-78750000D03*
X193200000Y-78750000D03*
X193700000Y-78750000D03*
X194200000Y-78750000D03*
X194700000Y-78750000D03*
X195200000Y-78750000D03*
X195700000Y-78750000D03*
X196200000Y-78750000D03*
X196700000Y-78750000D03*
X197200000Y-78750000D03*
X197700000Y-78750000D03*
%TD*%
D21*
%TO.C,X1*%
X205800000Y-76800000D03*
D22*
X205800000Y-74600000D03*
X204250000Y-74600000D03*
X204250000Y-76800000D03*
%TD*%
D23*
%TO.C,SW1*%
X201955000Y-84800000D03*
X193345000Y-84800000D03*
%TD*%
D18*
%TO.C,3V3*%
X181550000Y-80500000D03*
X179950000Y-80500000D03*
%TD*%
D24*
%TO.C,J3*%
X203250000Y-62150000D03*
X203250000Y-63400000D03*
D25*
X206600000Y-65250000D03*
X206600000Y-60300000D03*
%TD*%
D12*
%TO.C,R2*%
X179950000Y-78700000D03*
X181550000Y-78700000D03*
%TD*%
D10*
%TO.C,R6*%
X201400000Y-65900000D03*
X201400000Y-67500000D03*
%TD*%
D12*
%TO.C,C1*%
X197850000Y-80400000D03*
X199450000Y-80400000D03*
%TD*%
D13*
%TO.C,C15*%
X202450000Y-77900000D03*
X202450000Y-76300000D03*
%TD*%
D24*
%TO.C,J4*%
X203200000Y-68675000D03*
X203200000Y-69925000D03*
D25*
X206550000Y-66825000D03*
X206550000Y-71775000D03*
%TD*%
D10*
%TO.C,120*%
X181300000Y-73900000D03*
X181300000Y-75500000D03*
%TD*%
%TO.C,C16*%
X202450000Y-73400000D03*
X202450000Y-75000000D03*
%TD*%
M02*
