%TF.GenerationSoftware,KiCad,Pcbnew,(6.0.1)*%
%TF.CreationDate,2022-11-26T20:31:09+08:00*%
%TF.ProjectId,IMU_base_V7,494d555f-6261-4736-955f-56372e6b6963,rev?*%
%TF.SameCoordinates,Original*%
%TF.FileFunction,Copper,L2,Bot*%
%TF.FilePolarity,Positive*%
%FSLAX46Y46*%
G04 Gerber Fmt 4.6, Leading zero omitted, Abs format (unit mm)*
G04 Created by KiCad (PCBNEW (6.0.1)) date 2022-11-26 20:31:09*
%MOMM*%
%LPD*%
G01*
G04 APERTURE LIST*
G04 Aperture macros list*
%AMRoundRect*
0 Rectangle with rounded corners*
0 $1 Rounding radius*
0 $2 $3 $4 $5 $6 $7 $8 $9 X,Y pos of 4 corners*
0 Add a 4 corners polygon primitive as box body*
4,1,4,$2,$3,$4,$5,$6,$7,$8,$9,$2,$3,0*
0 Add four circle primitives for the rounded corners*
1,1,$1+$1,$2,$3*
1,1,$1+$1,$4,$5*
1,1,$1+$1,$6,$7*
1,1,$1+$1,$8,$9*
0 Add four rect primitives between the rounded corners*
20,1,$1+$1,$2,$3,$4,$5,0*
20,1,$1+$1,$4,$5,$6,$7,0*
20,1,$1+$1,$6,$7,$8,$9,0*
20,1,$1+$1,$8,$9,$2,$3,0*%
G04 Aperture macros list end*
%TA.AperFunction,SMDPad,CuDef*%
%ADD10RoundRect,0.175000X-0.175000X-0.475000X0.175000X-0.475000X0.175000X0.475000X-0.175000X0.475000X0*%
%TD*%
%TA.AperFunction,SMDPad,CuDef*%
%ADD11RoundRect,0.040000X-0.460000X-0.360000X0.460000X-0.360000X0.460000X0.360000X-0.460000X0.360000X0*%
%TD*%
%TA.AperFunction,SMDPad,CuDef*%
%ADD12RoundRect,0.040000X0.578372X0.081769X-0.218372X0.541769X-0.578372X-0.081769X0.218372X-0.541769X0*%
%TD*%
%TA.AperFunction,SMDPad,CuDef*%
%ADD13R,0.300000X1.300000*%
%TD*%
%TA.AperFunction,SMDPad,CuDef*%
%ADD14R,1.800000X2.200000*%
%TD*%
%TA.AperFunction,SMDPad,CuDef*%
%ADD15RoundRect,0.040000X0.360000X-0.460000X0.360000X0.460000X-0.360000X0.460000X-0.360000X-0.460000X0*%
%TD*%
%TA.AperFunction,SMDPad,CuDef*%
%ADD16RoundRect,0.040000X-0.360000X0.460000X-0.360000X-0.460000X0.360000X-0.460000X0.360000X0.460000X0*%
%TD*%
%TA.AperFunction,SMDPad,CuDef*%
%ADD17RoundRect,0.055000X0.495000X-0.820000X0.495000X0.820000X-0.495000X0.820000X-0.495000X-0.820000X0*%
%TD*%
%TA.AperFunction,SMDPad,CuDef*%
%ADD18RoundRect,0.040000X0.460000X0.360000X-0.460000X0.360000X-0.460000X-0.360000X0.460000X-0.360000X0*%
%TD*%
%TA.AperFunction,ComponentPad*%
%ADD19R,3.800000X3.800000*%
%TD*%
%TA.AperFunction,ComponentPad*%
%ADD20C,3.800000*%
%TD*%
%TA.AperFunction,SMDPad,CuDef*%
%ADD21RoundRect,0.040000X0.070711X0.579828X-0.579828X-0.070711X-0.070711X-0.579828X0.579828X0.070711X0*%
%TD*%
%TA.AperFunction,SMDPad,CuDef*%
%ADD22RoundRect,0.020000X-0.330000X-0.180000X0.330000X-0.180000X0.330000X0.180000X-0.330000X0.180000X0*%
%TD*%
%TA.AperFunction,SMDPad,CuDef*%
%ADD23RoundRect,0.031000X0.279000X0.569000X-0.279000X0.569000X-0.279000X-0.569000X0.279000X-0.569000X0*%
%TD*%
%TA.AperFunction,SMDPad,CuDef*%
%ADD24RoundRect,0.031000X0.279000X0.619000X-0.279000X0.619000X-0.279000X-0.619000X0.279000X-0.619000X0*%
%TD*%
%TA.AperFunction,SMDPad,CuDef*%
%ADD25RoundRect,0.095000X0.855000X1.530000X-0.855000X1.530000X-0.855000X-1.530000X0.855000X-1.530000X0*%
%TD*%
%TA.AperFunction,SMDPad,CuDef*%
%ADD26RoundRect,0.100000X0.900000X0.900000X-0.900000X0.900000X-0.900000X-0.900000X0.900000X-0.900000X0*%
%TD*%
%TA.AperFunction,SMDPad,CuDef*%
%ADD27RoundRect,0.055000X-0.495000X0.820000X-0.495000X-0.820000X0.495000X-0.820000X0.495000X0.820000X0*%
%TD*%
%TA.AperFunction,ViaPad*%
%ADD28C,0.800000*%
%TD*%
%TA.AperFunction,ViaPad*%
%ADD29C,0.400000*%
%TD*%
%TA.AperFunction,ViaPad*%
%ADD30C,0.600000*%
%TD*%
%TA.AperFunction,ViaPad*%
%ADD31C,4.000000*%
%TD*%
%TA.AperFunction,Conductor*%
%ADD32C,0.350000*%
%TD*%
%TA.AperFunction,Conductor*%
%ADD33C,0.500000*%
%TD*%
%TA.AperFunction,Conductor*%
%ADD34C,1.000000*%
%TD*%
%TA.AperFunction,Conductor*%
%ADD35C,0.250000*%
%TD*%
%TA.AperFunction,Conductor*%
%ADD36C,2.000000*%
%TD*%
G04 APERTURE END LIST*
D10*
%TO.P,L1,1,1*%
%TO.N,Net-(C11-Pad2)*%
X185550000Y-59500000D03*
%TO.P,L1,2,2*%
%TO.N,+5V*%
X187050000Y-59500000D03*
%TD*%
D11*
%TO.P,C13,1*%
%TO.N,GND*%
X192350000Y-61100000D03*
%TO.P,C13,2*%
%TO.N,+5V*%
X192350000Y-59500000D03*
%TD*%
D12*
%TO.P,R11,1*%
%TO.N,GND*%
X200250000Y-68614360D03*
%TO.P,R11,2*%
%TO.N,GNDPWR*%
X199450000Y-70000000D03*
%TD*%
D13*
%TO.P,J5,1*%
%TO.N,GNDPWR*%
X194700000Y-71550000D03*
%TO.P,J5,2*%
X194200000Y-71550000D03*
%TO.P,J5,3*%
%TO.N,+5V*%
X193700000Y-71550000D03*
%TO.P,J5,4*%
X193200000Y-71550000D03*
%TO.P,J5,5*%
%TO.N,/TIM10_CH1*%
X192700000Y-71550000D03*
%TO.P,J5,6*%
%TO.N,/SPI1_MISO*%
X192200000Y-71550000D03*
%TO.P,J5,7*%
%TO.N,/SPI1_MOSI*%
X191700000Y-71550000D03*
%TO.P,J5,8*%
%TO.N,/INT1_Gyro*%
X191200000Y-71550000D03*
%TO.P,J5,9*%
%TO.N,/INT1_Acce1*%
X190700000Y-71550000D03*
%TO.P,J5,10*%
%TO.N,/CS1_Gyro*%
X190200000Y-71550000D03*
%TO.P,J5,11*%
%TO.N,/CS1_Acce1*%
X189700000Y-71550000D03*
%TO.P,J5,12*%
%TO.N,/SPI1_CLK*%
X189200000Y-71550000D03*
%TO.P,J5,13*%
%TO.N,GND*%
X188700000Y-71550000D03*
%TO.P,J5,14*%
%TO.N,+3V3*%
X188200000Y-71550000D03*
D14*
%TO.P,J5,MP*%
%TO.N,N/C*%
X196600000Y-74800000D03*
X186300000Y-74800000D03*
%TD*%
D15*
%TO.P,C3,1*%
%TO.N,/RESET*%
X202150000Y-82500000D03*
%TO.P,C3,2*%
%TO.N,GND*%
X200550000Y-82500000D03*
%TD*%
D16*
%TO.P,C8,1*%
%TO.N,GND*%
X192550000Y-63800000D03*
%TO.P,C8,2*%
%TO.N,+5V*%
X194150000Y-63800000D03*
%TD*%
D17*
%TO.P,C7,2*%
%TO.N,GND*%
X178050000Y-72000000D03*
%TO.P,C7,1*%
%TO.N,+24V*%
X181250000Y-72000000D03*
%TD*%
D18*
%TO.P,R3,1*%
%TO.N,/BOOT0*%
X195650000Y-80300000D03*
%TO.P,R3,2*%
%TO.N,GND*%
X195650000Y-81900000D03*
%TD*%
D19*
%TO.P,VCC,1*%
%TO.N,GND*%
X188650000Y-84700000D03*
D20*
%TO.P,VCC,2*%
%TO.N,+24V*%
X183650000Y-84700000D03*
%TD*%
D11*
%TO.P,R5,1*%
%TO.N,+24V*%
X181800000Y-63300000D03*
%TO.P,R5,2*%
%TO.N,Net-(R5-Pad2)*%
X181800000Y-61700000D03*
%TD*%
D21*
%TO.P,R1,1*%
%TO.N,+3V3*%
X200468630Y-79568630D03*
%TO.P,R1,2*%
%TO.N,/RESET*%
X201600000Y-80700000D03*
%TD*%
D22*
%TO.P,U3,1,FB*%
%TO.N,Net-(C12-Pad1)*%
X187500000Y-61650000D03*
%TO.P,U3,2,FS*%
%TO.N,Net-(R4-Pad2)*%
X187500000Y-62300000D03*
%TO.P,U3,3,GND*%
%TO.N,GND*%
X187500000Y-62950000D03*
%TO.P,U3,4,GND*%
X187500000Y-63600000D03*
%TO.P,U3,5,VIN*%
%TO.N,+24V*%
X185000000Y-63600000D03*
%TO.P,U3,6,SW*%
%TO.N,Net-(C11-Pad2)*%
X185000000Y-62950000D03*
%TO.P,U3,7,BST*%
%TO.N,Net-(C11-Pad1)*%
X185000000Y-62300000D03*
%TO.P,U3,8,EN*%
%TO.N,Net-(R5-Pad2)*%
X185000000Y-61650000D03*
%TD*%
D23*
%TO.P,U1,3,VIN*%
%TO.N,+5V*%
X195850000Y-63900000D03*
D24*
%TO.P,U1,2,VOUT*%
%TO.N,+3V3*%
X197350000Y-63850000D03*
D25*
X197350000Y-61525000D03*
D23*
%TO.P,U1,1,GND*%
%TO.N,GND*%
X198850000Y-63900000D03*
%TD*%
D18*
%TO.P,R8,2*%
%TO.N,Net-(C12-Pad1)*%
X188900000Y-61000000D03*
%TO.P,R8,1*%
%TO.N,+5V*%
X188900000Y-59400000D03*
%TD*%
D26*
%TO.P,D1,2,Anode*%
%TO.N,GND*%
X176000000Y-75800000D03*
%TO.P,D1,1,Cathode*%
%TO.N,+24V*%
X181250000Y-75800000D03*
%TD*%
D11*
%TO.P,R4,1*%
%TO.N,GND*%
X188900000Y-64000000D03*
%TO.P,R4,2*%
%TO.N,Net-(R4-Pad2)*%
X188900000Y-62400000D03*
%TD*%
D18*
%TO.P,C11,2*%
%TO.N,Net-(C11-Pad2)*%
X183500000Y-63300000D03*
%TO.P,C11,1*%
%TO.N,Net-(C11-Pad1)*%
X183500000Y-61700000D03*
%TD*%
D27*
%TO.P,C10,1*%
%TO.N,GND*%
X181600000Y-65400000D03*
%TO.P,C10,2*%
%TO.N,+24V*%
X184800000Y-65400000D03*
%TD*%
D11*
%TO.P,C12,1*%
%TO.N,Net-(C12-Pad1)*%
X190600000Y-61000000D03*
%TO.P,C12,2*%
%TO.N,+5V*%
X190600000Y-59400000D03*
%TD*%
%TO.P,R9,2*%
%TO.N,Net-(C12-Pad1)*%
X190600000Y-62300000D03*
%TO.P,R9,1*%
%TO.N,GND*%
X190600000Y-63900000D03*
%TD*%
D15*
%TO.P,C9,1*%
%TO.N,GND*%
X199050000Y-65600000D03*
%TO.P,C9,2*%
%TO.N,+3V3*%
X197450000Y-65600000D03*
%TD*%
D28*
%TO.N,GND*%
X188100000Y-78300000D03*
X199100000Y-80800000D03*
X199800000Y-81400000D03*
X182900000Y-77600000D03*
X188100000Y-64800000D03*
X187200000Y-64800000D03*
X200700000Y-63200000D03*
X194300000Y-76300000D03*
X193200000Y-76300000D03*
X194300000Y-75400000D03*
X193200000Y-75400000D03*
X191600000Y-66300000D03*
X191600000Y-65300000D03*
X199500000Y-60600000D03*
X200550000Y-60600000D03*
X201600000Y-60600000D03*
X200900000Y-70600000D03*
X201200000Y-69700000D03*
X198600000Y-68800000D03*
X190700000Y-65300000D03*
X201600000Y-59600000D03*
X200550000Y-59600000D03*
X199500000Y-59600000D03*
X187200000Y-57100000D03*
X186100000Y-57100000D03*
X185000000Y-57200000D03*
X184000000Y-57700000D03*
X184000000Y-58700000D03*
X184000000Y-59600000D03*
X180400000Y-63900000D03*
X180400000Y-64800000D03*
X191400000Y-83400000D03*
X191400000Y-84500000D03*
X191400000Y-85400000D03*
X191300000Y-86400000D03*
%TO.N,+5V*%
X196300000Y-66600000D03*
X194175000Y-63775000D03*
D29*
%TO.N,GND*%
X189700000Y-69300000D03*
X189300000Y-69300000D03*
D30*
X190000000Y-68800000D03*
X189379977Y-68779977D03*
D28*
X176800000Y-68100000D03*
X176800000Y-66400000D03*
X176900000Y-64600000D03*
X186500000Y-66700000D03*
X190700000Y-66300000D03*
X204000000Y-78300000D03*
X205700000Y-78300000D03*
X207500000Y-77400000D03*
X207500000Y-75600000D03*
X207500000Y-73800000D03*
X206200000Y-73100000D03*
D29*
X200700000Y-74200000D03*
X202500000Y-74100000D03*
X203900000Y-73300000D03*
X205200000Y-73300000D03*
X202900000Y-77100000D03*
X201400000Y-77000000D03*
X200500000Y-76800000D03*
D28*
%TO.N,+3V3*%
X202700000Y-71700000D03*
X198100000Y-73300000D03*
X198014068Y-76208441D03*
X187211054Y-71236819D03*
X199900000Y-79200000D03*
X192300000Y-67800000D03*
D30*
%TO.N,/SWCLK*%
X186000000Y-72400000D03*
%TO.N,/SWDIO*%
X184700000Y-69500000D03*
%TO.N,/RESET*%
X203000000Y-83700000D03*
D29*
%TO.N,/SPI1_MISO*%
X196224500Y-69300000D03*
%TO.N,/RESET*%
X196900000Y-76800000D03*
%TO.N,/TIM10_CH1*%
X197700000Y-72600000D03*
%TO.N,/BOOT0*%
X195700000Y-79500000D03*
%TO.N,/SWCLK*%
X192000000Y-77500000D03*
%TO.N,/SWDIO*%
X191800000Y-75600000D03*
%TO.N,/CS1_Acce1*%
X189675500Y-73000000D03*
%TO.N,/CS1_Gyro*%
X191475453Y-74088952D03*
%TO.N,/INT1_Acce1*%
X193000000Y-73600000D03*
%TO.N,/INT1_Gyro*%
X192600000Y-73000000D03*
%TO.N,/SPI1_CLK*%
X196900000Y-68900000D03*
%TO.N,/SPI1_MOSI*%
X195500000Y-69100000D03*
D31*
%TO.N,*%
X176491600Y-83902603D03*
X205791600Y-57002603D03*
X205781600Y-83902603D03*
X176491600Y-57002603D03*
%TD*%
D32*
%TO.N,+3V3*%
X198014068Y-73385932D02*
X198014068Y-76208441D01*
X198100000Y-73300000D02*
X198014068Y-73385932D01*
D33*
%TO.N,+5V*%
X193850000Y-70450489D02*
X193500000Y-70800489D01*
X196268059Y-70450489D02*
X193850000Y-70450489D01*
X193500000Y-70800489D02*
X193500000Y-71700000D01*
X197549511Y-69169037D02*
X196268059Y-70450489D01*
X197549511Y-67849511D02*
X197549511Y-69169037D01*
X196300000Y-66600000D02*
X197549511Y-67849511D01*
D34*
X194175000Y-63775000D02*
X194150000Y-63800000D01*
D33*
%TO.N,+3V3*%
X188175489Y-68924511D02*
X189300000Y-67800000D01*
X188175489Y-70525489D02*
X188175489Y-68924511D01*
X189300000Y-67800000D02*
X192300000Y-67800000D01*
X202700000Y-69661305D02*
X202700000Y-71700000D01*
X199588215Y-66549520D02*
X202700000Y-69661305D01*
X198399520Y-66549520D02*
X199588215Y-66549520D01*
X197450000Y-65600000D02*
X198399520Y-66549520D01*
D35*
%TO.N,/RESET*%
X196900000Y-76800000D02*
X196900000Y-77224614D01*
X196900000Y-77224614D02*
X200375386Y-80700000D01*
X200375386Y-80700000D02*
X201600000Y-80700000D01*
D32*
%TO.N,+3V3*%
X200268630Y-79568630D02*
X200468630Y-79568630D01*
X199900000Y-79200000D02*
X200268630Y-79568630D01*
X187463181Y-71236819D02*
X187211054Y-71236819D01*
D33*
X188174511Y-70525489D02*
X187463181Y-71236819D01*
D32*
X188175489Y-70525489D02*
X188174511Y-70525489D01*
X188175489Y-71550000D02*
X188175489Y-70525489D01*
D35*
%TO.N,/SWDIO*%
X186550480Y-71950480D02*
X187086198Y-71950480D01*
X189435718Y-74300000D02*
X190500000Y-74300000D01*
X184700000Y-70100000D02*
X186550480Y-71950480D01*
X190500000Y-74300000D02*
X191800000Y-75600000D01*
X184700000Y-69500000D02*
X184700000Y-70100000D01*
X187086198Y-71950480D02*
X189435718Y-74300000D01*
D33*
%TO.N,+3V3*%
X197450000Y-65600000D02*
X194500000Y-65600000D01*
X194500000Y-65600000D02*
X192300000Y-67800000D01*
D34*
%TO.N,+5V*%
X188800000Y-59500000D02*
X188900000Y-59400000D01*
X187050000Y-59500000D02*
X188800000Y-59500000D01*
D35*
X193600000Y-70600000D02*
X193700000Y-70700000D01*
X193300000Y-70600000D02*
X193600000Y-70600000D01*
X193200000Y-70700000D02*
X193300000Y-70600000D01*
X193200000Y-71550000D02*
X193200000Y-70700000D01*
X193700000Y-70700000D02*
X193700000Y-71550000D01*
D33*
%TO.N,GNDPWR*%
X197900000Y-71550000D02*
X194299511Y-71550000D01*
X199450000Y-70000000D02*
X197900000Y-71550000D01*
D35*
%TO.N,/RESET*%
X202200000Y-82450000D02*
X202150000Y-82500000D01*
X202200000Y-81300000D02*
X202200000Y-82450000D01*
X201600000Y-80700000D02*
X202200000Y-81300000D01*
%TO.N,/SWCLK*%
X186900000Y-72400000D02*
X186000000Y-72400000D01*
X192000000Y-77500000D02*
X186900000Y-72400000D01*
D34*
%TO.N,+5V*%
X194200000Y-63750000D02*
X194175000Y-63775000D01*
X193400000Y-59500000D02*
X194200000Y-60300000D01*
X194200000Y-60300000D02*
X194200000Y-63750000D01*
X192350000Y-59500000D02*
X193400000Y-59500000D01*
D32*
%TO.N,+24V*%
X182574520Y-64074520D02*
X181800000Y-63300000D01*
X184525480Y-64074520D02*
X182574520Y-64074520D01*
X185000000Y-63600000D02*
X184525480Y-64074520D01*
D36*
X181250000Y-68950000D02*
X184800000Y-65400000D01*
X181250000Y-72000000D02*
X181250000Y-68950000D01*
X181250000Y-75800000D02*
X181250000Y-72000000D01*
X181250000Y-82300000D02*
X181250000Y-75800000D01*
X183650000Y-84700000D02*
X181250000Y-82300000D01*
D35*
%TO.N,/BOOT0*%
X195650000Y-79550000D02*
X195700000Y-79500000D01*
X195650000Y-80300000D02*
X195650000Y-79550000D01*
%TO.N,/RESET*%
X203000000Y-82900000D02*
X203000000Y-83700000D01*
X202600000Y-82500000D02*
X203000000Y-82900000D01*
X202150000Y-82500000D02*
X202600000Y-82500000D01*
D32*
%TO.N,Net-(C12-Pad1)*%
X191100000Y-62300000D02*
X190600000Y-62300000D01*
X191400000Y-62000000D02*
X191100000Y-62300000D01*
X191400000Y-61200000D02*
X191400000Y-62000000D01*
X191200000Y-61000000D02*
X191400000Y-61200000D01*
X190600000Y-61000000D02*
X191200000Y-61000000D01*
X190100000Y-60500000D02*
X190600000Y-61000000D01*
X189400000Y-60500000D02*
X190100000Y-60500000D01*
X188900000Y-61000000D02*
X189400000Y-60500000D01*
X187500000Y-61650000D02*
X188250000Y-61650000D01*
X188250000Y-61650000D02*
X188900000Y-61000000D01*
D35*
%TO.N,Net-(R4-Pad2)*%
X188854511Y-62445489D02*
X188900000Y-62400000D01*
X187847224Y-62300000D02*
X187992713Y-62445489D01*
X187500000Y-62300000D02*
X187847224Y-62300000D01*
X187992713Y-62445489D02*
X188854511Y-62445489D01*
D33*
%TO.N,Net-(C11-Pad2)*%
X185750000Y-62950000D02*
X185000000Y-62950000D01*
X186200000Y-62500000D02*
X185750000Y-62950000D01*
X185550000Y-59500000D02*
X186200000Y-60150000D01*
X186200000Y-60150000D02*
X186200000Y-62500000D01*
D35*
%TO.N,Net-(R5-Pad2)*%
X182700000Y-60800000D02*
X181800000Y-61700000D01*
X185000000Y-61650000D02*
X184150000Y-60800000D01*
X184150000Y-60800000D02*
X182700000Y-60800000D01*
D32*
%TO.N,Net-(C11-Pad1)*%
X184100000Y-62300000D02*
X183500000Y-61700000D01*
X185000000Y-62300000D02*
X184100000Y-62300000D01*
%TO.N,Net-(C11-Pad2)*%
X183850000Y-62950000D02*
X185000000Y-62950000D01*
X183500000Y-63300000D02*
X183850000Y-62950000D01*
D35*
%TO.N,/TIM10_CH1*%
X192941772Y-72600000D02*
X197700000Y-72600000D01*
X192700000Y-72358228D02*
X192941772Y-72600000D01*
X192700000Y-71550000D02*
X192700000Y-72358228D01*
%TO.N,/SPI1_CLK*%
X189200000Y-70600978D02*
X189200000Y-71550000D01*
X191225489Y-68575489D02*
X189200000Y-70600978D01*
X196900000Y-68900000D02*
X196575489Y-68575489D01*
X196575489Y-68575489D02*
X191225489Y-68575489D01*
%TO.N,/SPI1_MISO*%
X192200000Y-70600978D02*
X192200000Y-71550000D01*
X195899989Y-69624511D02*
X193176467Y-69624511D01*
X196224500Y-69300000D02*
X195899989Y-69624511D01*
X193176467Y-69624511D02*
X192200000Y-70600978D01*
%TO.N,/SPI1_MOSI*%
X191700000Y-70000000D02*
X191700000Y-71550000D01*
X192600000Y-69100000D02*
X191700000Y-70000000D01*
X195500000Y-69100000D02*
X192600000Y-69100000D01*
%TO.N,/CS1_Acce1*%
X189700000Y-72975500D02*
X189700000Y-71550000D01*
X189675500Y-73000000D02*
X189700000Y-72975500D01*
%TO.N,/CS1_Gyro*%
X190200000Y-73000000D02*
X190200000Y-71550000D01*
X191288952Y-74088952D02*
X190200000Y-73000000D01*
X191475453Y-74088952D02*
X191288952Y-74088952D01*
%TO.N,/INT1_Acce1*%
X190700000Y-72634740D02*
X190700000Y-71550000D01*
X191665260Y-73600000D02*
X190700000Y-72634740D01*
X193000000Y-73600000D02*
X191665260Y-73600000D01*
%TO.N,/INT1_Gyro*%
X191700978Y-73000000D02*
X191200000Y-72499022D01*
X192600000Y-73000000D02*
X191700978Y-73000000D01*
X191200000Y-72499022D02*
X191200000Y-71550000D01*
%TD*%
%TA.AperFunction,Conductor*%
%TO.N,+24V*%
G36*
X184733472Y-63665597D02*
G01*
X184733808Y-63665769D01*
X184740916Y-63667508D01*
X184740918Y-63667509D01*
X184794662Y-63680660D01*
X184905610Y-63707808D01*
X184911212Y-63708156D01*
X184911215Y-63708156D01*
X184914825Y-63708380D01*
X184914835Y-63708380D01*
X184916764Y-63708500D01*
X185598310Y-63708500D01*
X185666431Y-63728502D01*
X185712924Y-63782158D01*
X185724217Y-63829657D01*
X185795292Y-65677585D01*
X185777923Y-65746425D01*
X185726094Y-65794945D01*
X185677766Y-65808149D01*
X185429089Y-65824727D01*
X184434381Y-65891041D01*
X184365081Y-65875614D01*
X184315122Y-65825170D01*
X184300000Y-65765320D01*
X184300000Y-64153129D01*
X184320002Y-64085008D01*
X184339616Y-64063802D01*
X184338578Y-64062764D01*
X184344656Y-64056686D01*
X184351495Y-64051495D01*
X184356686Y-64044656D01*
X184356689Y-64044653D01*
X184437162Y-63938632D01*
X184442354Y-63931792D01*
X184497675Y-63792066D01*
X184500448Y-63769155D01*
X184528487Y-63703934D01*
X184587339Y-63664224D01*
X184628939Y-63659042D01*
X184628939Y-63658500D01*
X184694023Y-63658500D01*
X184733472Y-63665597D01*
G37*
%TD.AperFunction*%
%TD*%
%TA.AperFunction,Conductor*%
%TO.N,+5V*%
G36*
X193242121Y-58420002D02*
G01*
X193288614Y-58473658D01*
X193300000Y-58526000D01*
X193300000Y-60169450D01*
X193279998Y-60237571D01*
X193226342Y-60284064D01*
X193156068Y-60294168D01*
X193097822Y-60269813D01*
X193081792Y-60257646D01*
X193000009Y-60225266D01*
X192949596Y-60205306D01*
X192949594Y-60205305D01*
X192942066Y-60202325D01*
X192852614Y-60191500D01*
X191847386Y-60191500D01*
X191757934Y-60202325D01*
X191750406Y-60205305D01*
X191750404Y-60205306D01*
X191699991Y-60225266D01*
X191618208Y-60257646D01*
X191611367Y-60262839D01*
X191603882Y-60267056D01*
X191602566Y-60264720D01*
X191548896Y-60285149D01*
X191479423Y-60270523D01*
X191453684Y-60251389D01*
X191451495Y-60248505D01*
X191331792Y-60157646D01*
X191250009Y-60125266D01*
X191199596Y-60105306D01*
X191199594Y-60105305D01*
X191192066Y-60102325D01*
X191102614Y-60091500D01*
X190710305Y-60091500D01*
X190642184Y-60071498D01*
X190621210Y-60054595D01*
X190603156Y-60036541D01*
X190597302Y-60030276D01*
X190565704Y-59994055D01*
X190560710Y-59988330D01*
X190510345Y-59952934D01*
X190505077Y-59949020D01*
X190462649Y-59915752D01*
X190456672Y-59911065D01*
X190449748Y-59907939D01*
X190445439Y-59905329D01*
X190436024Y-59899958D01*
X190431576Y-59897573D01*
X190425361Y-59893205D01*
X190368039Y-59870856D01*
X190361971Y-59868306D01*
X190305895Y-59842986D01*
X190298418Y-59841600D01*
X190293598Y-59840090D01*
X190283165Y-59837118D01*
X190278304Y-59835870D01*
X190271228Y-59833111D01*
X190210238Y-59825082D01*
X190203722Y-59824050D01*
X190150700Y-59814223D01*
X190143233Y-59812839D01*
X190135653Y-59813276D01*
X190135652Y-59813276D01*
X190083358Y-59816291D01*
X190076106Y-59816500D01*
X189428056Y-59816500D01*
X189419486Y-59816208D01*
X189418443Y-59816137D01*
X189363966Y-59812423D01*
X189356489Y-59813728D01*
X189356486Y-59813728D01*
X189303342Y-59823003D01*
X189296819Y-59823966D01*
X189243308Y-59830442D01*
X189243307Y-59830442D01*
X189235765Y-59831355D01*
X189228655Y-59834041D01*
X189223752Y-59835246D01*
X189213266Y-59838114D01*
X189208474Y-59839561D01*
X189200996Y-59840866D01*
X189194044Y-59843918D01*
X189194043Y-59843918D01*
X189144659Y-59865595D01*
X189138554Y-59868086D01*
X189088118Y-59887145D01*
X189088115Y-59887147D01*
X189081011Y-59889831D01*
X189074754Y-59894131D01*
X189070286Y-59896467D01*
X189060840Y-59901725D01*
X189056474Y-59904307D01*
X189049515Y-59907362D01*
X189000696Y-59944823D01*
X188995377Y-59948686D01*
X188989166Y-59952955D01*
X188944674Y-59983534D01*
X188939623Y-59989203D01*
X188904768Y-60028323D01*
X188899787Y-60033598D01*
X188878790Y-60054595D01*
X188816478Y-60088621D01*
X188789695Y-60091500D01*
X188397386Y-60091500D01*
X188307934Y-60102325D01*
X188300406Y-60105305D01*
X188300404Y-60105306D01*
X188249991Y-60125266D01*
X188168208Y-60157646D01*
X188161368Y-60162838D01*
X188055347Y-60243311D01*
X188055344Y-60243314D01*
X188048505Y-60248505D01*
X188043314Y-60255344D01*
X188043310Y-60255348D01*
X188032157Y-60270042D01*
X187975040Y-60312209D01*
X187929914Y-60319849D01*
X187824120Y-60318270D01*
X187756305Y-60297254D01*
X187710618Y-60242910D01*
X187700000Y-60192284D01*
X187700000Y-58526000D01*
X187720002Y-58457879D01*
X187773658Y-58411386D01*
X187826000Y-58400000D01*
X193174000Y-58400000D01*
X193242121Y-58420002D01*
G37*
%TD.AperFunction*%
%TD*%
%TA.AperFunction,Conductor*%
%TO.N,+5V*%
G36*
X195814885Y-63170376D02*
G01*
X195881271Y-63195544D01*
X195921630Y-63247786D01*
X195967843Y-63359354D01*
X196064578Y-63485422D01*
X196071124Y-63490445D01*
X196071128Y-63490449D01*
X196150704Y-63551510D01*
X196192571Y-63608848D01*
X196200000Y-63651472D01*
X196200000Y-64574000D01*
X196179998Y-64642121D01*
X196126342Y-64688614D01*
X196074000Y-64700000D01*
X193818806Y-64700000D01*
X193750685Y-64679998D01*
X193704192Y-64626342D01*
X193693023Y-64581399D01*
X193638322Y-63651472D01*
X193608476Y-63144098D01*
X193624444Y-63074921D01*
X193675277Y-63025358D01*
X193743923Y-63011071D01*
X195814885Y-63170376D01*
G37*
%TD.AperFunction*%
%TD*%
%TA.AperFunction,Conductor*%
%TO.N,+3V3*%
G36*
X196970494Y-59333500D02*
G01*
X198376341Y-59394624D01*
X198443529Y-59417566D01*
X198487647Y-59473191D01*
X198496827Y-59523735D01*
X198414610Y-62730220D01*
X198392868Y-62797805D01*
X198335034Y-62844142D01*
X198311654Y-62853399D01*
X198303668Y-62856561D01*
X198185929Y-62945929D01*
X198096561Y-63063668D01*
X198042147Y-63201101D01*
X198031500Y-63289086D01*
X198031500Y-64510914D01*
X198042147Y-64598899D01*
X198096561Y-64736332D01*
X198101751Y-64743170D01*
X198101753Y-64743173D01*
X198160955Y-64821169D01*
X198186208Y-64887523D01*
X198177744Y-64943731D01*
X198156448Y-64997521D01*
X198152325Y-65007934D01*
X198141500Y-65097386D01*
X198141500Y-66102614D01*
X198152325Y-66192066D01*
X198207646Y-66331792D01*
X198212836Y-66338630D01*
X198212838Y-66338633D01*
X198261110Y-66402229D01*
X198286530Y-66471009D01*
X198291728Y-66559371D01*
X198275760Y-66628548D01*
X198224928Y-66678112D01*
X198159323Y-66692596D01*
X197817162Y-66674587D01*
X197475002Y-66656579D01*
X197408026Y-66633024D01*
X197392529Y-66619848D01*
X197220125Y-66447444D01*
X197189387Y-66397285D01*
X197165513Y-66323807D01*
X197134527Y-66228444D01*
X197039040Y-66063056D01*
X196911253Y-65921134D01*
X196756752Y-65808882D01*
X196750724Y-65806198D01*
X196750722Y-65806197D01*
X196588319Y-65733891D01*
X196588318Y-65733891D01*
X196582288Y-65731206D01*
X196519874Y-65717940D01*
X196499803Y-65713673D01*
X196437329Y-65679944D01*
X196403008Y-65617795D01*
X196400000Y-65590426D01*
X196400000Y-65003202D01*
X196420002Y-64935081D01*
X196449821Y-64902839D01*
X196507232Y-64859262D01*
X196514071Y-64854071D01*
X196603439Y-64736332D01*
X196657853Y-64598899D01*
X196668500Y-64510914D01*
X196668500Y-63289086D01*
X196657853Y-63201101D01*
X196603439Y-63063668D01*
X196514071Y-62945929D01*
X196422415Y-62876359D01*
X196380249Y-62819243D01*
X196372769Y-62782619D01*
X196370012Y-62730220D01*
X196200174Y-59503306D01*
X196200000Y-59496684D01*
X196200000Y-59431597D01*
X196220002Y-59363476D01*
X196273658Y-59316983D01*
X196331472Y-59305716D01*
X196970494Y-59333500D01*
G37*
%TD.AperFunction*%
%TD*%
%TA.AperFunction,Conductor*%
%TO.N,GND*%
G36*
X205984856Y-54327130D02*
G01*
X206079701Y-54332867D01*
X206080187Y-54332898D01*
X206211497Y-54341504D01*
X206243100Y-54347700D01*
X207202451Y-54667484D01*
X207227791Y-54679190D01*
X207266051Y-54702319D01*
X207270868Y-54705382D01*
X207364565Y-54767988D01*
X207383658Y-54783658D01*
X207693665Y-55093665D01*
X207705370Y-55107160D01*
X208151516Y-55702021D01*
X208165613Y-55725905D01*
X208195248Y-55791751D01*
X208213013Y-55831221D01*
X208220640Y-55848168D01*
X208225054Y-55859380D01*
X208273661Y-56002573D01*
X208274634Y-56005561D01*
X208310363Y-56120220D01*
X208315240Y-56135870D01*
X208318522Y-56148767D01*
X208321274Y-56162601D01*
X208349348Y-56303736D01*
X208349705Y-56305605D01*
X208373085Y-56433186D01*
X208374879Y-56447657D01*
X208387494Y-56640129D01*
X208387534Y-56640762D01*
X208393270Y-56735590D01*
X208393500Y-56743198D01*
X208393500Y-84447258D01*
X208393302Y-84454323D01*
X208387027Y-84566055D01*
X208386995Y-84566598D01*
X208375734Y-84752765D01*
X208374184Y-84766263D01*
X208350797Y-84903907D01*
X208350513Y-84905514D01*
X208341124Y-84956747D01*
X208335602Y-84977094D01*
X208058212Y-85739917D01*
X208050076Y-85757806D01*
X208032049Y-85790423D01*
X208029600Y-85794658D01*
X207951610Y-85923669D01*
X207946552Y-85931381D01*
X207860520Y-86052630D01*
X207856956Y-86057410D01*
X207772308Y-86165455D01*
X207768825Y-86169704D01*
X207756088Y-86184564D01*
X207742314Y-86200634D01*
X207740658Y-86202527D01*
X207659827Y-86292976D01*
X207654989Y-86298092D01*
X207548901Y-86404180D01*
X207543766Y-86409035D01*
X207432721Y-86508272D01*
X207426478Y-86513499D01*
X207386784Y-86544597D01*
X207308194Y-86606167D01*
X207303401Y-86609741D01*
X207182190Y-86695746D01*
X207174474Y-86700807D01*
X207157520Y-86711056D01*
X207145148Y-86717624D01*
X206496987Y-87016775D01*
X206481690Y-87022660D01*
X206466898Y-87027270D01*
X206464345Y-87028034D01*
X206325092Y-87068153D01*
X206312928Y-87071012D01*
X206217081Y-87088577D01*
X206156289Y-87099717D01*
X206154684Y-87100001D01*
X206017063Y-87123384D01*
X206003565Y-87124934D01*
X205817398Y-87136195D01*
X205816855Y-87136227D01*
X205705124Y-87142502D01*
X205698059Y-87142700D01*
X188511296Y-87142698D01*
X176697268Y-87142697D01*
X176692491Y-87142606D01*
X176688739Y-87142464D01*
X176579372Y-87138314D01*
X176578953Y-87138298D01*
X176380668Y-87129919D01*
X176367147Y-87128614D01*
X176348371Y-87125774D01*
X176229016Y-87107721D01*
X176208020Y-87102673D01*
X175340267Y-86813422D01*
X175321179Y-86805256D01*
X175298111Y-86793049D01*
X175293831Y-86790677D01*
X175278350Y-86781698D01*
X175264210Y-86772163D01*
X174634680Y-86282528D01*
X174619629Y-86268725D01*
X174541619Y-86184564D01*
X174536271Y-86178406D01*
X174437317Y-86056724D01*
X174433655Y-86051996D01*
X174401050Y-86007770D01*
X174342296Y-85928075D01*
X174337091Y-85920444D01*
X174253205Y-85787211D01*
X174250679Y-85783021D01*
X174244174Y-85771740D01*
X174183563Y-85666632D01*
X174180030Y-85660061D01*
X174149187Y-85598374D01*
X174147979Y-85595889D01*
X174101571Y-85497588D01*
X174100018Y-85494167D01*
X174087154Y-85464639D01*
X174039263Y-85354717D01*
X174035188Y-85344070D01*
X173984442Y-85191072D01*
X173983663Y-85188637D01*
X173939613Y-85045569D01*
X173936533Y-85033458D01*
X173934841Y-85025084D01*
X173903410Y-84869574D01*
X173903100Y-84867985D01*
X173876481Y-84726900D01*
X173874685Y-84713432D01*
X173859129Y-84515910D01*
X173859087Y-84515368D01*
X173850847Y-84404645D01*
X173850500Y-84395294D01*
X173850500Y-83902603D01*
X174286378Y-83902603D01*
X174286648Y-83906722D01*
X174303670Y-84166421D01*
X174305244Y-84190442D01*
X174306048Y-84194482D01*
X174306048Y-84194485D01*
X174357050Y-84450887D01*
X174361519Y-84473356D01*
X174362845Y-84477262D01*
X174362846Y-84477266D01*
X174439298Y-84702484D01*
X174454241Y-84746505D01*
X174456062Y-84750198D01*
X174456063Y-84750200D01*
X174567955Y-84977094D01*
X174581822Y-85005214D01*
X174742080Y-85245057D01*
X174744794Y-85248151D01*
X174744798Y-85248157D01*
X174807605Y-85319774D01*
X174932273Y-85461930D01*
X174935362Y-85464639D01*
X175146046Y-85649405D01*
X175146052Y-85649409D01*
X175149146Y-85652123D01*
X175152572Y-85654412D01*
X175152577Y-85654416D01*
X175280539Y-85739917D01*
X175388989Y-85812381D01*
X175392688Y-85814205D01*
X175392693Y-85814208D01*
X175630297Y-85931381D01*
X175647698Y-85939962D01*
X175651596Y-85941285D01*
X175651598Y-85941286D01*
X175916937Y-86031357D01*
X175916941Y-86031358D01*
X175920847Y-86032684D01*
X175924891Y-86033488D01*
X175924897Y-86033490D01*
X176199718Y-86088155D01*
X176199721Y-86088155D01*
X176203761Y-86088959D01*
X176207872Y-86089228D01*
X176207876Y-86089229D01*
X176487481Y-86107555D01*
X176491600Y-86107825D01*
X176495719Y-86107555D01*
X176775324Y-86089229D01*
X176775328Y-86089228D01*
X176779439Y-86088959D01*
X176783479Y-86088155D01*
X176783482Y-86088155D01*
X177058303Y-86033490D01*
X177058309Y-86033488D01*
X177062353Y-86032684D01*
X177066259Y-86031358D01*
X177066263Y-86031357D01*
X177331602Y-85941286D01*
X177331604Y-85941285D01*
X177335502Y-85939962D01*
X177352903Y-85931381D01*
X177590507Y-85814208D01*
X177590512Y-85814205D01*
X177594211Y-85812381D01*
X177702661Y-85739917D01*
X177830623Y-85654416D01*
X177830628Y-85654412D01*
X177834054Y-85652123D01*
X177837148Y-85649409D01*
X177837154Y-85649405D01*
X178047838Y-85464639D01*
X178050927Y-85461930D01*
X178175595Y-85319774D01*
X178238402Y-85248157D01*
X178238406Y-85248151D01*
X178241120Y-85245057D01*
X178401378Y-85005214D01*
X178415246Y-84977094D01*
X178527137Y-84750200D01*
X178527138Y-84750198D01*
X178528959Y-84746505D01*
X178543902Y-84702484D01*
X178620354Y-84477266D01*
X178620355Y-84477262D01*
X178621681Y-84473356D01*
X178626151Y-84450887D01*
X178677152Y-84194485D01*
X178677152Y-84194482D01*
X178677956Y-84190442D01*
X178679531Y-84166421D01*
X178696552Y-83906722D01*
X178696822Y-83902603D01*
X178691872Y-83827074D01*
X178678226Y-83618879D01*
X178678225Y-83618875D01*
X178677956Y-83614764D01*
X178677152Y-83610721D01*
X178622487Y-83335900D01*
X178622485Y-83335894D01*
X178621681Y-83331850D01*
X178617307Y-83318963D01*
X178530283Y-83062601D01*
X178530282Y-83062599D01*
X178528959Y-83058701D01*
X178527137Y-83055006D01*
X178403205Y-82803696D01*
X178403202Y-82803691D01*
X178401378Y-82799992D01*
X178346517Y-82717887D01*
X178243413Y-82563580D01*
X178243409Y-82563575D01*
X178241120Y-82560149D01*
X178238406Y-82557055D01*
X178238402Y-82557049D01*
X178053636Y-82346365D01*
X178050927Y-82343276D01*
X178044107Y-82337295D01*
X178037568Y-82331560D01*
X180044770Y-82331560D01*
X180049129Y-82368383D01*
X180055699Y-82423895D01*
X180056040Y-82427149D01*
X180064546Y-82519711D01*
X180066116Y-82525278D01*
X180066117Y-82525282D01*
X180066152Y-82525406D01*
X180070008Y-82544789D01*
X180070704Y-82550667D01*
X180095433Y-82630307D01*
X180098272Y-82639451D01*
X180099186Y-82642535D01*
X180124435Y-82732064D01*
X180126988Y-82737241D01*
X180126992Y-82737251D01*
X180127054Y-82737376D01*
X180134379Y-82755737D01*
X180136131Y-82761379D01*
X180174434Y-82834180D01*
X180179403Y-82843625D01*
X180180896Y-82846556D01*
X180222020Y-82929947D01*
X180225564Y-82934693D01*
X180236108Y-82951405D01*
X180238863Y-82956641D01*
X180262433Y-82986539D01*
X180296417Y-83029648D01*
X180298413Y-83032250D01*
X180354033Y-83106733D01*
X180414369Y-83162507D01*
X180417517Y-83165417D01*
X180421083Y-83168847D01*
X181532595Y-84280359D01*
X181566621Y-84342671D01*
X181568148Y-84387862D01*
X181568091Y-84388250D01*
X181567178Y-84392436D01*
X181544707Y-84677953D01*
X181561194Y-84963878D01*
X181562019Y-84968083D01*
X181562020Y-84968091D01*
X181578052Y-85049804D01*
X181616332Y-85244920D01*
X181617719Y-85248970D01*
X181617720Y-85248975D01*
X181702840Y-85497588D01*
X181709102Y-85515878D01*
X181837787Y-85771740D01*
X181840213Y-85775269D01*
X181840216Y-85775275D01*
X181953403Y-85939962D01*
X182000006Y-86007770D01*
X182002893Y-86010943D01*
X182002894Y-86010944D01*
X182073882Y-86088959D01*
X182192756Y-86219600D01*
X182412472Y-86403311D01*
X182655088Y-86555503D01*
X182658990Y-86557265D01*
X182658994Y-86557267D01*
X182912202Y-86671595D01*
X182912206Y-86671597D01*
X182916114Y-86673361D01*
X182920233Y-86674581D01*
X183186606Y-86753485D01*
X183186611Y-86753486D01*
X183190719Y-86754703D01*
X183194953Y-86755351D01*
X183194958Y-86755352D01*
X183425811Y-86790677D01*
X183473824Y-86798024D01*
X183619589Y-86800314D01*
X183755898Y-86802456D01*
X183755904Y-86802456D01*
X183760189Y-86802523D01*
X183764441Y-86802008D01*
X183764449Y-86802008D01*
X183984221Y-86775411D01*
X184044514Y-86768115D01*
X184048662Y-86767027D01*
X184048666Y-86767026D01*
X184317388Y-86696528D01*
X184321539Y-86695439D01*
X184325500Y-86693799D01*
X184325504Y-86693797D01*
X184528433Y-86609741D01*
X184586138Y-86585839D01*
X184621956Y-86564909D01*
X184829717Y-86443503D01*
X184829718Y-86443503D01*
X184833415Y-86441342D01*
X184880810Y-86404180D01*
X185055421Y-86267267D01*
X185058793Y-86264623D01*
X185105491Y-86216435D01*
X185211002Y-86107555D01*
X185258102Y-86058952D01*
X185260635Y-86055504D01*
X185260639Y-86055499D01*
X185425117Y-85831589D01*
X185427655Y-85828134D01*
X185445831Y-85794658D01*
X185562263Y-85580217D01*
X185562264Y-85580215D01*
X185564313Y-85576441D01*
X185665548Y-85308530D01*
X185724537Y-85050971D01*
X185728530Y-85033538D01*
X185728531Y-85033533D01*
X185729487Y-85029358D01*
X185754946Y-84744092D01*
X185755408Y-84700000D01*
X185753614Y-84673683D01*
X185736220Y-84418540D01*
X185736219Y-84418534D01*
X185735928Y-84414263D01*
X185677850Y-84133814D01*
X185582248Y-83863842D01*
X185455813Y-83618879D01*
X185452856Y-83613149D01*
X185452856Y-83613148D01*
X185450891Y-83609342D01*
X185448428Y-83605837D01*
X185288673Y-83378529D01*
X185288668Y-83378523D01*
X185286209Y-83375024D01*
X185183187Y-83264159D01*
X185094172Y-83168367D01*
X185094169Y-83168364D01*
X185091251Y-83165224D01*
X185087935Y-83162510D01*
X185087932Y-83162507D01*
X184872941Y-82986539D01*
X184869623Y-82983823D01*
X184625427Y-82834180D01*
X184542579Y-82797812D01*
X184367110Y-82720786D01*
X184367106Y-82720785D01*
X184363182Y-82719062D01*
X184087739Y-82640600D01*
X183877881Y-82610733D01*
X183808448Y-82600851D01*
X183808446Y-82600851D01*
X183804196Y-82600246D01*
X183652333Y-82599451D01*
X183522086Y-82598769D01*
X183522080Y-82598769D01*
X183517800Y-82598747D01*
X183513556Y-82599306D01*
X183513552Y-82599306D01*
X183339674Y-82622197D01*
X183269525Y-82611257D01*
X183234133Y-82586370D01*
X183015763Y-82368000D01*
X184238059Y-82368000D01*
X184238100Y-82368099D01*
X184238217Y-82368383D01*
X184238600Y-82368541D01*
X184238699Y-82368500D01*
X193928601Y-82368500D01*
X193928700Y-82368541D01*
X193928799Y-82368500D01*
X193929083Y-82368383D01*
X193929241Y-82368000D01*
X193929200Y-82367901D01*
X193929200Y-81072699D01*
X193929241Y-81072600D01*
X193929083Y-81072217D01*
X193928799Y-81072100D01*
X193928700Y-81072059D01*
X193928601Y-81072100D01*
X184238699Y-81072100D01*
X184238600Y-81072059D01*
X184238501Y-81072100D01*
X184238217Y-81072217D01*
X184238059Y-81072600D01*
X184238100Y-81072699D01*
X184238100Y-82367901D01*
X184238059Y-82368000D01*
X183015763Y-82368000D01*
X182487405Y-81839642D01*
X182453379Y-81777330D01*
X182450500Y-81750547D01*
X182450500Y-80683688D01*
X194949500Y-80683688D01*
X194963454Y-80753839D01*
X194970346Y-80764154D01*
X194970347Y-80764156D01*
X194997879Y-80805360D01*
X195016609Y-80833391D01*
X195026925Y-80840284D01*
X195085844Y-80879653D01*
X195085846Y-80879654D01*
X195096161Y-80886546D01*
X195166312Y-80900500D01*
X196133688Y-80900500D01*
X196203839Y-80886546D01*
X196214154Y-80879654D01*
X196214156Y-80879653D01*
X196273075Y-80840284D01*
X196283391Y-80833391D01*
X196302121Y-80805360D01*
X196329653Y-80764156D01*
X196329654Y-80764154D01*
X196336546Y-80753839D01*
X196350500Y-80683688D01*
X196350500Y-79916312D01*
X196336546Y-79846161D01*
X196329654Y-79835846D01*
X196329653Y-79835844D01*
X196290284Y-79776925D01*
X196283391Y-79766609D01*
X196273075Y-79759716D01*
X196214156Y-79720347D01*
X196214154Y-79720346D01*
X196203839Y-79713454D01*
X196191671Y-79711034D01*
X196180202Y-79706283D01*
X196180944Y-79704493D01*
X196131629Y-79678695D01*
X196096498Y-79617000D01*
X196094672Y-79568314D01*
X196096973Y-79553790D01*
X196105492Y-79500000D01*
X196085646Y-79374696D01*
X196028050Y-79261658D01*
X195938342Y-79171950D01*
X195825304Y-79114354D01*
X195815515Y-79112804D01*
X195815513Y-79112803D01*
X195709793Y-79096059D01*
X195700000Y-79094508D01*
X195690207Y-79096059D01*
X195584487Y-79112803D01*
X195584485Y-79112804D01*
X195574696Y-79114354D01*
X195461658Y-79171950D01*
X195371950Y-79261658D01*
X195314354Y-79374696D01*
X195294508Y-79500000D01*
X195296059Y-79509793D01*
X195296059Y-79509794D01*
X195303027Y-79553790D01*
X195293927Y-79624201D01*
X195248205Y-79678515D01*
X195178578Y-79699500D01*
X195166312Y-79699500D01*
X195096161Y-79713454D01*
X195085846Y-79720346D01*
X195085844Y-79720347D01*
X195026925Y-79759716D01*
X195016609Y-79766609D01*
X195009716Y-79776925D01*
X194970347Y-79835844D01*
X194970346Y-79835846D01*
X194963454Y-79846161D01*
X194949500Y-79916312D01*
X194949500Y-80683688D01*
X182450500Y-80683688D01*
X182450500Y-69499454D01*
X182470502Y-69431333D01*
X182487405Y-69410359D01*
X185540061Y-66357702D01*
X185602373Y-66323676D01*
X185620775Y-66321076D01*
X185708408Y-66315234D01*
X185708409Y-66315234D01*
X185711557Y-66315024D01*
X185714665Y-66314501D01*
X185714667Y-66314501D01*
X185808546Y-66298711D01*
X185808554Y-66298709D01*
X185811653Y-66298188D01*
X185859981Y-66284984D01*
X185942708Y-66253204D01*
X185947578Y-66251333D01*
X185954726Y-66248587D01*
X185961002Y-66244204D01*
X185961006Y-66244202D01*
X186069580Y-66168377D01*
X186069583Y-66168375D01*
X186073271Y-66165799D01*
X186125100Y-66117279D01*
X186139648Y-66099125D01*
X186198756Y-66025362D01*
X186215521Y-66004441D01*
X186270487Y-65870704D01*
X186287856Y-65801864D01*
X186302917Y-65658061D01*
X186231842Y-63810133D01*
X186218441Y-63712154D01*
X186207148Y-63664655D01*
X186175017Y-63571128D01*
X186096845Y-63449490D01*
X186092137Y-63444056D01*
X186077355Y-63426997D01*
X186047862Y-63362416D01*
X186057967Y-63292142D01*
X186087051Y-63251961D01*
X186098638Y-63241250D01*
X186098641Y-63241246D01*
X186105556Y-63234854D01*
X186109249Y-63228495D01*
X186114766Y-63222337D01*
X186494350Y-62842753D01*
X186505439Y-62832899D01*
X186524709Y-62817707D01*
X186524711Y-62817705D01*
X186532110Y-62811872D01*
X186565462Y-62763615D01*
X186567757Y-62760403D01*
X186568265Y-62759716D01*
X186602634Y-62713184D01*
X186605027Y-62706368D01*
X186609131Y-62700431D01*
X186612378Y-62690166D01*
X186620693Y-62663872D01*
X186626826Y-62644481D01*
X186628071Y-62640750D01*
X186644396Y-62594263D01*
X186644396Y-62594261D01*
X186647519Y-62585369D01*
X186647801Y-62578181D01*
X186647814Y-62578116D01*
X186649980Y-62571270D01*
X186650500Y-62564663D01*
X186650500Y-62511984D01*
X186650597Y-62507037D01*
X186652468Y-62459415D01*
X186652838Y-62450006D01*
X186650954Y-62442900D01*
X186650500Y-62434653D01*
X186650500Y-61026000D01*
X186670502Y-60957879D01*
X186724158Y-60911386D01*
X186776500Y-60900000D01*
X187700000Y-60900000D01*
X187700000Y-60892206D01*
X187719389Y-60869830D01*
X187721033Y-60871255D01*
X187725357Y-60863295D01*
X187787596Y-60829136D01*
X187816527Y-60827034D01*
X187816539Y-60826213D01*
X187922333Y-60827792D01*
X188014714Y-60820721D01*
X188052468Y-60814329D01*
X188122970Y-60822679D01*
X188177768Y-60867820D01*
X188199500Y-60938561D01*
X188199500Y-61117273D01*
X188179498Y-61185394D01*
X188162595Y-61206368D01*
X188131368Y-61237595D01*
X188069056Y-61271621D01*
X188042273Y-61274500D01*
X187964241Y-61274500D01*
X187921613Y-61266020D01*
X187916035Y-61262293D01*
X187903866Y-61259873D01*
X187903865Y-61259872D01*
X187857787Y-61250707D01*
X187851719Y-61249500D01*
X187500057Y-61249500D01*
X187148282Y-61249501D01*
X187083965Y-61262293D01*
X187073646Y-61269188D01*
X187073644Y-61269189D01*
X187065696Y-61274500D01*
X187011028Y-61311028D01*
X186962293Y-61383965D01*
X186949500Y-61448281D01*
X186949501Y-61851718D01*
X186962293Y-61916035D01*
X186969187Y-61926352D01*
X186969366Y-61926785D01*
X186976953Y-61997375D01*
X186969365Y-62023217D01*
X186969186Y-62023648D01*
X186962293Y-62033965D01*
X186959873Y-62046134D01*
X186959872Y-62046135D01*
X186952403Y-62083688D01*
X186949500Y-62098281D01*
X186949501Y-62501718D01*
X186962293Y-62566035D01*
X186969189Y-62576355D01*
X186969189Y-62576356D01*
X186985526Y-62600806D01*
X187011028Y-62638972D01*
X187083965Y-62687707D01*
X187148281Y-62700500D01*
X187246647Y-62700500D01*
X187749643Y-62700499D01*
X187812671Y-62717396D01*
X187812922Y-62717541D01*
X187822166Y-62723432D01*
X187853029Y-62745043D01*
X187863682Y-62747898D01*
X187866844Y-62749372D01*
X187870120Y-62750564D01*
X187879668Y-62756077D01*
X187890523Y-62757991D01*
X187890528Y-62757993D01*
X187916778Y-62762622D01*
X187927505Y-62765000D01*
X187953261Y-62771901D01*
X187953264Y-62771901D01*
X187963907Y-62774753D01*
X187974882Y-62773793D01*
X187974884Y-62773793D01*
X188001457Y-62771468D01*
X188012438Y-62770989D01*
X188097566Y-62770989D01*
X188165687Y-62790991D01*
X188211968Y-62846369D01*
X188213454Y-62853839D01*
X188220348Y-62864156D01*
X188220348Y-62864157D01*
X188235308Y-62886546D01*
X188266609Y-62933391D01*
X188276925Y-62940284D01*
X188335844Y-62979653D01*
X188335846Y-62979654D01*
X188346161Y-62986546D01*
X188416312Y-63000500D01*
X189383688Y-63000500D01*
X189453839Y-62986546D01*
X189464154Y-62979654D01*
X189464156Y-62979653D01*
X189523075Y-62940284D01*
X189533391Y-62933391D01*
X189556175Y-62899293D01*
X189579653Y-62864156D01*
X189579654Y-62864154D01*
X189586546Y-62853839D01*
X189600500Y-62783688D01*
X189600500Y-62016312D01*
X189586546Y-61946161D01*
X189579654Y-61935846D01*
X189579653Y-61935844D01*
X189540284Y-61876925D01*
X189533391Y-61866609D01*
X189520193Y-61857790D01*
X189464158Y-61820349D01*
X189453839Y-61813454D01*
X189450042Y-61812699D01*
X189399365Y-61771860D01*
X189376944Y-61704497D01*
X189394502Y-61635706D01*
X189445528Y-61588199D01*
X189453839Y-61586546D01*
X189533391Y-61533391D01*
X189547673Y-61512017D01*
X189579653Y-61464156D01*
X189579654Y-61464154D01*
X189586546Y-61453839D01*
X189600500Y-61383688D01*
X189600500Y-61001500D01*
X189620502Y-60933379D01*
X189674158Y-60886886D01*
X189726500Y-60875500D01*
X189773500Y-60875500D01*
X189841621Y-60895502D01*
X189888114Y-60949158D01*
X189899500Y-61001500D01*
X189899500Y-61383688D01*
X189913454Y-61453839D01*
X189920346Y-61464154D01*
X189920347Y-61464156D01*
X189952327Y-61512017D01*
X189966609Y-61533391D01*
X189984335Y-61545235D01*
X190029862Y-61599711D01*
X190038711Y-61670154D01*
X190008070Y-61734198D01*
X189984336Y-61754764D01*
X189966609Y-61766609D01*
X189959716Y-61776925D01*
X189920347Y-61835844D01*
X189920346Y-61835846D01*
X189913454Y-61846161D01*
X189899500Y-61916312D01*
X189899500Y-62683688D01*
X189913454Y-62753839D01*
X189920346Y-62764154D01*
X189920347Y-62764156D01*
X189952230Y-62811872D01*
X189966609Y-62833391D01*
X189976925Y-62840284D01*
X190035844Y-62879653D01*
X190035846Y-62879654D01*
X190046161Y-62886546D01*
X190116312Y-62900500D01*
X191083688Y-62900500D01*
X191153839Y-62886546D01*
X191164154Y-62879654D01*
X191164156Y-62879653D01*
X191223075Y-62840284D01*
X191233391Y-62833391D01*
X191247770Y-62811872D01*
X191279653Y-62764156D01*
X191279654Y-62764154D01*
X191286546Y-62753839D01*
X191300500Y-62683688D01*
X191300500Y-62677500D01*
X191300892Y-62673520D01*
X191327473Y-62607687D01*
X191333753Y-62600347D01*
X191369541Y-62561632D01*
X191372970Y-62558067D01*
X191627689Y-62303348D01*
X191645920Y-62288623D01*
X191647460Y-62287222D01*
X191656210Y-62281572D01*
X191676736Y-62255535D01*
X191680617Y-62251168D01*
X191680539Y-62251102D01*
X191683893Y-62247144D01*
X191687575Y-62243462D01*
X191698661Y-62227948D01*
X191702217Y-62223212D01*
X191702325Y-62223075D01*
X191733603Y-62183400D01*
X191736605Y-62174851D01*
X191741872Y-62167481D01*
X191756392Y-62118930D01*
X191758226Y-62113286D01*
X191772396Y-62072935D01*
X191772397Y-62072929D01*
X191775023Y-62065452D01*
X191775500Y-62059945D01*
X191775500Y-62057238D01*
X191775611Y-62054665D01*
X191775659Y-62054506D01*
X191775803Y-62054512D01*
X191775842Y-62053892D01*
X191777690Y-62047713D01*
X191775597Y-61994444D01*
X191775500Y-61989498D01*
X191775500Y-61253497D01*
X191777979Y-61230208D01*
X191778078Y-61228117D01*
X191780270Y-61217934D01*
X191776373Y-61185008D01*
X191776029Y-61179178D01*
X191775928Y-61179186D01*
X191775500Y-61174007D01*
X191775500Y-61168807D01*
X191774647Y-61163681D01*
X191774646Y-61163672D01*
X191772374Y-61150023D01*
X191771537Y-61144147D01*
X191767904Y-61113454D01*
X191765577Y-61093791D01*
X191761654Y-61085622D01*
X191760167Y-61076687D01*
X191736089Y-61032064D01*
X191733408Y-61026801D01*
X191714897Y-60988251D01*
X191714896Y-60988250D01*
X191711463Y-60981100D01*
X191707906Y-60976869D01*
X191705974Y-60974937D01*
X191704255Y-60973063D01*
X191704181Y-60972926D01*
X191704291Y-60972826D01*
X191703868Y-60972346D01*
X191700806Y-60966671D01*
X191693158Y-60959601D01*
X191686774Y-60951371D01*
X191689875Y-60948966D01*
X191663597Y-60905041D01*
X191665873Y-60834081D01*
X191706152Y-60775617D01*
X191740744Y-60755681D01*
X191783283Y-60739489D01*
X191782786Y-60738184D01*
X191789745Y-60734293D01*
X191798490Y-60730898D01*
X191804889Y-60729151D01*
X191805214Y-60729973D01*
X191812622Y-60727040D01*
X191859834Y-60708348D01*
X191906217Y-60699500D01*
X192793783Y-60699500D01*
X192840168Y-60708349D01*
X192861545Y-60716813D01*
X192878056Y-60724785D01*
X192898388Y-60736498D01*
X192898399Y-60736503D01*
X192901849Y-60738491D01*
X192905526Y-60740028D01*
X192905529Y-60740030D01*
X192930972Y-60750668D01*
X192960095Y-60762846D01*
X192963931Y-60763905D01*
X192963939Y-60763908D01*
X193006345Y-60775617D01*
X193083773Y-60796997D01*
X193228365Y-60796997D01*
X193263189Y-60791990D01*
X193294183Y-60787534D01*
X193294187Y-60787533D01*
X193298639Y-60786893D01*
X193302951Y-60785627D01*
X193302955Y-60785626D01*
X193337041Y-60775617D01*
X193338002Y-60775335D01*
X193408998Y-60775335D01*
X193468724Y-60813718D01*
X193498217Y-60878299D01*
X193499500Y-60896231D01*
X193499500Y-62469197D01*
X193479498Y-62537318D01*
X193437272Y-62576171D01*
X193437478Y-62576453D01*
X193320639Y-62661633D01*
X193317423Y-62664769D01*
X193317414Y-62664777D01*
X193298050Y-62683657D01*
X193269806Y-62711196D01*
X193267072Y-62714754D01*
X193267068Y-62714758D01*
X193230773Y-62761986D01*
X193181700Y-62825840D01*
X193178444Y-62834243D01*
X193178443Y-62834245D01*
X193152772Y-62900500D01*
X193129460Y-62960665D01*
X193113492Y-63029842D01*
X193101353Y-63173928D01*
X193101617Y-63178416D01*
X193101617Y-63178419D01*
X193131199Y-63681302D01*
X193180183Y-64514033D01*
X193185900Y-64611229D01*
X193200019Y-64703918D01*
X193211188Y-64748861D01*
X193242099Y-64837372D01*
X193246106Y-64843607D01*
X193246107Y-64843609D01*
X193270295Y-64881246D01*
X193320271Y-64959010D01*
X193323213Y-64962405D01*
X193323215Y-64962408D01*
X193359941Y-65004792D01*
X193366764Y-65012666D01*
X193370158Y-65015607D01*
X193378506Y-65022841D01*
X193476040Y-65107355D01*
X193484237Y-65111099D01*
X193484238Y-65111099D01*
X193517281Y-65126189D01*
X193607566Y-65167421D01*
X193631320Y-65174396D01*
X193671364Y-65186154D01*
X193671368Y-65186155D01*
X193675687Y-65187423D01*
X193680135Y-65188063D01*
X193680142Y-65188064D01*
X193814358Y-65207361D01*
X193814365Y-65207362D01*
X193818806Y-65208000D01*
X193950707Y-65208000D01*
X194018828Y-65228002D01*
X194065321Y-65281658D01*
X194075425Y-65351932D01*
X194045931Y-65416512D01*
X194039802Y-65423095D01*
X192294059Y-67168838D01*
X192231747Y-67202864D01*
X192221415Y-67204664D01*
X192143238Y-67214956D01*
X191997159Y-67275464D01*
X191990608Y-67280491D01*
X191934605Y-67323463D01*
X191868384Y-67349063D01*
X191857901Y-67349500D01*
X189334220Y-67349500D01*
X189319411Y-67348627D01*
X189295043Y-67345743D01*
X189285690Y-67344636D01*
X189276426Y-67346328D01*
X189276422Y-67346328D01*
X189227989Y-67355173D01*
X189224088Y-67355822D01*
X189175355Y-67363149D01*
X189175347Y-67363151D01*
X189166038Y-67364551D01*
X189159528Y-67367677D01*
X189152427Y-67368974D01*
X189144072Y-67373314D01*
X189100363Y-67396018D01*
X189096825Y-67397786D01*
X189052411Y-67419114D01*
X189043921Y-67423191D01*
X189038635Y-67428078D01*
X189038595Y-67428105D01*
X189032212Y-67431420D01*
X189027172Y-67435725D01*
X188989945Y-67472952D01*
X188986380Y-67476381D01*
X188944444Y-67515146D01*
X188940751Y-67521505D01*
X188935234Y-67527663D01*
X187881139Y-68581758D01*
X187870050Y-68591612D01*
X187850780Y-68606804D01*
X187850778Y-68606806D01*
X187843379Y-68612639D01*
X187838024Y-68620386D01*
X187838023Y-68620388D01*
X187810034Y-68660886D01*
X187807739Y-68664098D01*
X187772855Y-68711327D01*
X187770462Y-68718143D01*
X187766358Y-68724080D01*
X187763518Y-68733060D01*
X187763517Y-68733062D01*
X187748671Y-68780006D01*
X187747418Y-68783761D01*
X187727970Y-68839142D01*
X187727688Y-68846330D01*
X187727677Y-68846389D01*
X187725509Y-68853241D01*
X187724989Y-68859848D01*
X187724989Y-68912527D01*
X187724892Y-68917473D01*
X187722651Y-68974505D01*
X187724535Y-68981611D01*
X187724989Y-68989858D01*
X187724989Y-70285716D01*
X187704987Y-70353837D01*
X187688085Y-70374811D01*
X187564110Y-70498787D01*
X187450021Y-70612876D01*
X187387708Y-70646901D01*
X187344481Y-70648703D01*
X187211054Y-70631137D01*
X187054292Y-70651775D01*
X186908213Y-70712283D01*
X186782772Y-70808537D01*
X186686518Y-70933978D01*
X186626010Y-71080057D01*
X186605372Y-71236819D01*
X186606171Y-71242885D01*
X186586448Y-71310055D01*
X186532792Y-71356548D01*
X186462518Y-71366652D01*
X186397938Y-71337158D01*
X186391355Y-71331029D01*
X185072784Y-70012458D01*
X185038758Y-69950146D01*
X185043823Y-69879331D01*
X185068463Y-69838808D01*
X185113178Y-69789407D01*
X185119200Y-69782754D01*
X185181710Y-69653733D01*
X185205496Y-69512354D01*
X185205572Y-69506136D01*
X185205588Y-69504859D01*
X185205588Y-69504854D01*
X185205647Y-69500000D01*
X185192550Y-69408546D01*
X185186596Y-69366968D01*
X185186595Y-69366965D01*
X185185323Y-69358082D01*
X185181408Y-69349470D01*
X185153700Y-69288531D01*
X185125984Y-69227572D01*
X185107598Y-69206234D01*
X185038260Y-69125763D01*
X185038257Y-69125760D01*
X185032400Y-69118963D01*
X184912095Y-69040985D01*
X184774739Y-68999907D01*
X184765763Y-68999852D01*
X184765762Y-68999852D01*
X184705555Y-68999484D01*
X184631376Y-68999031D01*
X184493529Y-69038428D01*
X184372280Y-69114930D01*
X184277377Y-69222388D01*
X184216447Y-69352163D01*
X184211919Y-69381245D01*
X184196402Y-69480909D01*
X184194391Y-69493823D01*
X184195555Y-69502725D01*
X184195555Y-69502728D01*
X184203685Y-69564901D01*
X184212980Y-69635979D01*
X184270720Y-69767203D01*
X184276497Y-69774076D01*
X184276498Y-69774077D01*
X184344951Y-69855512D01*
X184373472Y-69920528D01*
X184374500Y-69936587D01*
X184374500Y-70080290D01*
X184374020Y-70091272D01*
X184370736Y-70128807D01*
X184373590Y-70139456D01*
X184380491Y-70165210D01*
X184382870Y-70175942D01*
X184389412Y-70213045D01*
X184394923Y-70222590D01*
X184396115Y-70225866D01*
X184397592Y-70229034D01*
X184400446Y-70239684D01*
X184406770Y-70248715D01*
X184422055Y-70270544D01*
X184427961Y-70279815D01*
X184439873Y-70300446D01*
X184446806Y-70312455D01*
X184463356Y-70326342D01*
X184475682Y-70336685D01*
X184483785Y-70344111D01*
X185863444Y-71723770D01*
X185897470Y-71786082D01*
X185892405Y-71856897D01*
X185849858Y-71913733D01*
X185808975Y-71934013D01*
X185793529Y-71938428D01*
X185672280Y-72014930D01*
X185666338Y-72021658D01*
X185666337Y-72021659D01*
X185646174Y-72044490D01*
X185577377Y-72122388D01*
X185516447Y-72252163D01*
X185511820Y-72281884D01*
X185496236Y-72381974D01*
X185494391Y-72393823D01*
X185495555Y-72402725D01*
X185495555Y-72402728D01*
X185503686Y-72464901D01*
X185512980Y-72535979D01*
X185570720Y-72667203D01*
X185576497Y-72674076D01*
X185576498Y-72674077D01*
X185657190Y-72770072D01*
X185662970Y-72776948D01*
X185782313Y-72856390D01*
X185919157Y-72899142D01*
X185928129Y-72899306D01*
X185928132Y-72899307D01*
X185993463Y-72900504D01*
X186062499Y-72901770D01*
X186071533Y-72899307D01*
X186192158Y-72866421D01*
X186192160Y-72866420D01*
X186200817Y-72864060D01*
X186322991Y-72789045D01*
X186340165Y-72770072D01*
X186342995Y-72766945D01*
X186403538Y-72729863D01*
X186436410Y-72725500D01*
X186712984Y-72725500D01*
X186781105Y-72745502D01*
X186802075Y-72762401D01*
X187325744Y-73286070D01*
X187359769Y-73348382D01*
X187354704Y-73419198D01*
X187312157Y-73476033D01*
X187245637Y-73500844D01*
X187225123Y-73500569D01*
X187219748Y-73499500D01*
X185380252Y-73499500D01*
X185374184Y-73500707D01*
X185333939Y-73508712D01*
X185333938Y-73508712D01*
X185321769Y-73511133D01*
X185255448Y-73555448D01*
X185211133Y-73621769D01*
X185199500Y-73680252D01*
X185199500Y-75919748D01*
X185211133Y-75978231D01*
X185255448Y-76044552D01*
X185321769Y-76088867D01*
X185333938Y-76091288D01*
X185333939Y-76091288D01*
X185374184Y-76099293D01*
X185380252Y-76100500D01*
X187219748Y-76100500D01*
X187225816Y-76099293D01*
X187266061Y-76091288D01*
X187266062Y-76091288D01*
X187278231Y-76088867D01*
X187344552Y-76044552D01*
X187388867Y-75978231D01*
X187400500Y-75919748D01*
X187400500Y-73680252D01*
X187399517Y-73675310D01*
X187412669Y-73605952D01*
X187461507Y-73554423D01*
X187530452Y-73537477D01*
X187597614Y-73560496D01*
X187613930Y-73574257D01*
X191575877Y-77536204D01*
X191611230Y-77605586D01*
X191612802Y-77615508D01*
X191614354Y-77625304D01*
X191671950Y-77738342D01*
X191761658Y-77828050D01*
X191874696Y-77885646D01*
X191884485Y-77887196D01*
X191884487Y-77887197D01*
X191990207Y-77903941D01*
X192000000Y-77905492D01*
X192009793Y-77903941D01*
X192115513Y-77887197D01*
X192115515Y-77887196D01*
X192125304Y-77885646D01*
X192238342Y-77828050D01*
X192328050Y-77738342D01*
X192385646Y-77625304D01*
X192405492Y-77500000D01*
X192399922Y-77464830D01*
X192387197Y-77384487D01*
X192387196Y-77384485D01*
X192385646Y-77374696D01*
X192328050Y-77261658D01*
X192238342Y-77171950D01*
X192125304Y-77114354D01*
X192115511Y-77112803D01*
X192115508Y-77112802D01*
X192105586Y-77111230D01*
X192036204Y-77075877D01*
X191760327Y-76800000D01*
X196494508Y-76800000D01*
X196514354Y-76925304D01*
X196538992Y-76973658D01*
X196560767Y-77016394D01*
X196574500Y-77073597D01*
X196574500Y-77204904D01*
X196574020Y-77215886D01*
X196570736Y-77253421D01*
X196580491Y-77289824D01*
X196582870Y-77300556D01*
X196589412Y-77337659D01*
X196594923Y-77347204D01*
X196596115Y-77350480D01*
X196597592Y-77353648D01*
X196600446Y-77364298D01*
X196606770Y-77373329D01*
X196622055Y-77395158D01*
X196627961Y-77404429D01*
X196641293Y-77427520D01*
X196646806Y-77437069D01*
X196655251Y-77444155D01*
X196675682Y-77461299D01*
X196683785Y-77468725D01*
X200131275Y-80916215D01*
X200138702Y-80924319D01*
X200162931Y-80953194D01*
X200172480Y-80958707D01*
X200195571Y-80972039D01*
X200204842Y-80977945D01*
X200235702Y-80999554D01*
X200246352Y-81002408D01*
X200249520Y-81003885D01*
X200252796Y-81005077D01*
X200262341Y-81010588D01*
X200296085Y-81016538D01*
X200299444Y-81017130D01*
X200310171Y-81019508D01*
X200346579Y-81029264D01*
X200357564Y-81028303D01*
X200357566Y-81028303D01*
X200384114Y-81025980D01*
X200395096Y-81025500D01*
X200882653Y-81025500D01*
X200950774Y-81045502D01*
X200971748Y-81062405D01*
X201375980Y-81466637D01*
X201381122Y-81470073D01*
X201381126Y-81470076D01*
X201425131Y-81499479D01*
X201425133Y-81499480D01*
X201435451Y-81506374D01*
X201529289Y-81525039D01*
X201541461Y-81522618D01*
X201610957Y-81508795D01*
X201610958Y-81508794D01*
X201623127Y-81506374D01*
X201678500Y-81469376D01*
X201746252Y-81448162D01*
X201814718Y-81466945D01*
X201862161Y-81519763D01*
X201874500Y-81574142D01*
X201874500Y-81675254D01*
X201854498Y-81743375D01*
X201800842Y-81789868D01*
X201766251Y-81799192D01*
X201766312Y-81799500D01*
X201760245Y-81800707D01*
X201760243Y-81800707D01*
X201741983Y-81804339D01*
X201696161Y-81813454D01*
X201685846Y-81820346D01*
X201685844Y-81820347D01*
X201626925Y-81859716D01*
X201616609Y-81866609D01*
X201609716Y-81876925D01*
X201570347Y-81935844D01*
X201570346Y-81935846D01*
X201563454Y-81946161D01*
X201549500Y-82016312D01*
X201549500Y-82983688D01*
X201563454Y-83053839D01*
X201570346Y-83064154D01*
X201570347Y-83064156D01*
X201601413Y-83110649D01*
X201616609Y-83133391D01*
X201626925Y-83140284D01*
X201685844Y-83179653D01*
X201685846Y-83179654D01*
X201696161Y-83186546D01*
X201766312Y-83200500D01*
X202493958Y-83200500D01*
X202562079Y-83220502D01*
X202608572Y-83274158D01*
X202618676Y-83344432D01*
X202588399Y-83409908D01*
X202577377Y-83422388D01*
X202516447Y-83552163D01*
X202515066Y-83561035D01*
X202506060Y-83618879D01*
X202494391Y-83693823D01*
X202512980Y-83835979D01*
X202570720Y-83967203D01*
X202576497Y-83974076D01*
X202576498Y-83974077D01*
X202628573Y-84036028D01*
X202662970Y-84076948D01*
X202782313Y-84156390D01*
X202919157Y-84199142D01*
X202928129Y-84199306D01*
X202928132Y-84199307D01*
X202993463Y-84200504D01*
X203062499Y-84201770D01*
X203071533Y-84199307D01*
X203192158Y-84166421D01*
X203192160Y-84166420D01*
X203200817Y-84164060D01*
X203322991Y-84089045D01*
X203370979Y-84036028D01*
X203431522Y-83998947D01*
X203502502Y-84000484D01*
X203561383Y-84040151D01*
X203590125Y-84112342D01*
X203593670Y-84166421D01*
X203595244Y-84190442D01*
X203596048Y-84194482D01*
X203596048Y-84194485D01*
X203647050Y-84450887D01*
X203651519Y-84473356D01*
X203652845Y-84477262D01*
X203652846Y-84477266D01*
X203729298Y-84702484D01*
X203744241Y-84746505D01*
X203746062Y-84750198D01*
X203746063Y-84750200D01*
X203857955Y-84977094D01*
X203871822Y-85005214D01*
X204032080Y-85245057D01*
X204034794Y-85248151D01*
X204034798Y-85248157D01*
X204097605Y-85319774D01*
X204222273Y-85461930D01*
X204225362Y-85464639D01*
X204436046Y-85649405D01*
X204436052Y-85649409D01*
X204439146Y-85652123D01*
X204442572Y-85654412D01*
X204442577Y-85654416D01*
X204570539Y-85739917D01*
X204678989Y-85812381D01*
X204682688Y-85814205D01*
X204682693Y-85814208D01*
X204920297Y-85931381D01*
X204937698Y-85939962D01*
X204941596Y-85941285D01*
X204941598Y-85941286D01*
X205206937Y-86031357D01*
X205206941Y-86031358D01*
X205210847Y-86032684D01*
X205214891Y-86033488D01*
X205214897Y-86033490D01*
X205489718Y-86088155D01*
X205489721Y-86088155D01*
X205493761Y-86088959D01*
X205497872Y-86089228D01*
X205497876Y-86089229D01*
X205777481Y-86107555D01*
X205781600Y-86107825D01*
X205785719Y-86107555D01*
X206065324Y-86089229D01*
X206065328Y-86089228D01*
X206069439Y-86088959D01*
X206073479Y-86088155D01*
X206073482Y-86088155D01*
X206348303Y-86033490D01*
X206348309Y-86033488D01*
X206352353Y-86032684D01*
X206356259Y-86031358D01*
X206356263Y-86031357D01*
X206621602Y-85941286D01*
X206621604Y-85941285D01*
X206625502Y-85939962D01*
X206642903Y-85931381D01*
X206880507Y-85814208D01*
X206880512Y-85814205D01*
X206884211Y-85812381D01*
X206992661Y-85739917D01*
X207120623Y-85654416D01*
X207120628Y-85654412D01*
X207124054Y-85652123D01*
X207127148Y-85649409D01*
X207127154Y-85649405D01*
X207337838Y-85464639D01*
X207340927Y-85461930D01*
X207465595Y-85319774D01*
X207528402Y-85248157D01*
X207528406Y-85248151D01*
X207531120Y-85245057D01*
X207691378Y-85005214D01*
X207705246Y-84977094D01*
X207817137Y-84750200D01*
X207817138Y-84750198D01*
X207818959Y-84746505D01*
X207833902Y-84702484D01*
X207910354Y-84477266D01*
X207910355Y-84477262D01*
X207911681Y-84473356D01*
X207916151Y-84450887D01*
X207967152Y-84194485D01*
X207967152Y-84194482D01*
X207967956Y-84190442D01*
X207969531Y-84166421D01*
X207986552Y-83906722D01*
X207986822Y-83902603D01*
X207981872Y-83827074D01*
X207968226Y-83618879D01*
X207968225Y-83618875D01*
X207967956Y-83614764D01*
X207967152Y-83610721D01*
X207912487Y-83335900D01*
X207912485Y-83335894D01*
X207911681Y-83331850D01*
X207907307Y-83318963D01*
X207820283Y-83062601D01*
X207820282Y-83062599D01*
X207818959Y-83058701D01*
X207817137Y-83055006D01*
X207693205Y-82803696D01*
X207693202Y-82803691D01*
X207691378Y-82799992D01*
X207636517Y-82717887D01*
X207533413Y-82563580D01*
X207533409Y-82563575D01*
X207531120Y-82560149D01*
X207528406Y-82557055D01*
X207528402Y-82557049D01*
X207343636Y-82346365D01*
X207340927Y-82343276D01*
X207334107Y-82337295D01*
X207127154Y-82155801D01*
X207127148Y-82155797D01*
X207124054Y-82153083D01*
X207120628Y-82150794D01*
X207120623Y-82150790D01*
X206887644Y-81995119D01*
X206884211Y-81992825D01*
X206880512Y-81991001D01*
X206880507Y-81990998D01*
X206629197Y-81867066D01*
X206629195Y-81867065D01*
X206625502Y-81865244D01*
X206609217Y-81859716D01*
X206356263Y-81773849D01*
X206356259Y-81773848D01*
X206352353Y-81772522D01*
X206348309Y-81771718D01*
X206348303Y-81771716D01*
X206073482Y-81717051D01*
X206073479Y-81717051D01*
X206069439Y-81716247D01*
X206065328Y-81715978D01*
X206065324Y-81715977D01*
X205785719Y-81697651D01*
X205781600Y-81697381D01*
X205777481Y-81697651D01*
X205497876Y-81715977D01*
X205497872Y-81715978D01*
X205493761Y-81716247D01*
X205489721Y-81717051D01*
X205489718Y-81717051D01*
X205214897Y-81771716D01*
X205214891Y-81771718D01*
X205210847Y-81772522D01*
X205206941Y-81773848D01*
X205206937Y-81773849D01*
X204953983Y-81859716D01*
X204937698Y-81865244D01*
X204934005Y-81867065D01*
X204934003Y-81867066D01*
X204682693Y-81990998D01*
X204682688Y-81991001D01*
X204678989Y-81992825D01*
X204675556Y-81995119D01*
X204442577Y-82150790D01*
X204442572Y-82150794D01*
X204439146Y-82153083D01*
X204436052Y-82155797D01*
X204436046Y-82155801D01*
X204229093Y-82337295D01*
X204222273Y-82343276D01*
X204219564Y-82346365D01*
X204034798Y-82557049D01*
X204034794Y-82557055D01*
X204032080Y-82560149D01*
X204029791Y-82563575D01*
X204029787Y-82563580D01*
X203926683Y-82717887D01*
X203871822Y-82799992D01*
X203869998Y-82803691D01*
X203869995Y-82803696D01*
X203746063Y-83055006D01*
X203744241Y-83058701D01*
X203742918Y-83062599D01*
X203742917Y-83062601D01*
X203655894Y-83318963D01*
X203651519Y-83331850D01*
X203645168Y-83363777D01*
X203644149Y-83368901D01*
X203611240Y-83431810D01*
X203549545Y-83466941D01*
X203478650Y-83463140D01*
X203425117Y-83426566D01*
X203415719Y-83415659D01*
X203356047Y-83346406D01*
X203326733Y-83281745D01*
X203325500Y-83264159D01*
X203325500Y-82919698D01*
X203325980Y-82908716D01*
X203328302Y-82882180D01*
X203328302Y-82882178D01*
X203329263Y-82871193D01*
X203319512Y-82834803D01*
X203317132Y-82824069D01*
X203313540Y-82803696D01*
X203310588Y-82786955D01*
X203305076Y-82777407D01*
X203303883Y-82774130D01*
X203302406Y-82770962D01*
X203299553Y-82760316D01*
X203277942Y-82729452D01*
X203272038Y-82720184D01*
X203258704Y-82697089D01*
X203253194Y-82687545D01*
X203224330Y-82663325D01*
X203216227Y-82655900D01*
X202844104Y-82283778D01*
X202836677Y-82275673D01*
X202819539Y-82255248D01*
X202819538Y-82255247D01*
X202812455Y-82246806D01*
X202802911Y-82241296D01*
X202795510Y-82235086D01*
X202756183Y-82175977D01*
X202750500Y-82138564D01*
X202750500Y-82016312D01*
X202736546Y-81946161D01*
X202729654Y-81935846D01*
X202729653Y-81935844D01*
X202690284Y-81876925D01*
X202683391Y-81866609D01*
X202603839Y-81813454D01*
X202599162Y-81812524D01*
X202548001Y-81771295D01*
X202525500Y-81699435D01*
X202525500Y-81319713D01*
X202525979Y-81308732D01*
X202528303Y-81282170D01*
X202528303Y-81282168D01*
X202529263Y-81271193D01*
X202519508Y-81234783D01*
X202517133Y-81224072D01*
X202512501Y-81197806D01*
X202510588Y-81186955D01*
X202505079Y-81177412D01*
X202503888Y-81174140D01*
X202502408Y-81170967D01*
X202499554Y-81160316D01*
X202477945Y-81129456D01*
X202472039Y-81120185D01*
X202458707Y-81097094D01*
X202453194Y-81087545D01*
X202424317Y-81063315D01*
X202416215Y-81055889D01*
X202343876Y-80983550D01*
X202309850Y-80921238D01*
X202314915Y-80850423D01*
X202343876Y-80805360D01*
X202366637Y-80782599D01*
X202378960Y-80764156D01*
X202399481Y-80733444D01*
X202399482Y-80733442D01*
X202406374Y-80723127D01*
X202415450Y-80677501D01*
X202422618Y-80641461D01*
X202425039Y-80629289D01*
X202406374Y-80535451D01*
X202399480Y-80525133D01*
X202399479Y-80525131D01*
X202370076Y-80481126D01*
X202370073Y-80481122D01*
X202366637Y-80475980D01*
X201824020Y-79933363D01*
X201818875Y-79929925D01*
X201818874Y-79929924D01*
X201774869Y-79900521D01*
X201774867Y-79900520D01*
X201764549Y-79893626D01*
X201670711Y-79874961D01*
X201658539Y-79877382D01*
X201589043Y-79891205D01*
X201589042Y-79891206D01*
X201576873Y-79893626D01*
X201566558Y-79900518D01*
X201566556Y-79900519D01*
X201522546Y-79929925D01*
X201517401Y-79933363D01*
X201113169Y-80337595D01*
X201050857Y-80371621D01*
X201024074Y-80374500D01*
X200816186Y-80374500D01*
X200748065Y-80354498D01*
X200701572Y-80300842D01*
X200691468Y-80230568D01*
X200720962Y-80165988D01*
X200727091Y-80159405D01*
X201235267Y-79651229D01*
X201275004Y-79591757D01*
X201293669Y-79497919D01*
X201275004Y-79404081D01*
X201268110Y-79393763D01*
X201268109Y-79393761D01*
X201238706Y-79349756D01*
X201238703Y-79349752D01*
X201235267Y-79344610D01*
X200692650Y-78801993D01*
X200687508Y-78798557D01*
X200687504Y-78798554D01*
X200643499Y-78769151D01*
X200643497Y-78769150D01*
X200633179Y-78762256D01*
X200539341Y-78743591D01*
X200445503Y-78762256D01*
X200435183Y-78769151D01*
X200430795Y-78770969D01*
X200360205Y-78778558D01*
X200305873Y-78754523D01*
X200209392Y-78680491D01*
X200202841Y-78675464D01*
X200056762Y-78614956D01*
X199900000Y-78594318D01*
X199743238Y-78614956D01*
X199597159Y-78675464D01*
X199471718Y-78771718D01*
X199375464Y-78897159D01*
X199372304Y-78904789D01*
X199347284Y-78965191D01*
X199302735Y-79020472D01*
X199235372Y-79042893D01*
X199166581Y-79025335D01*
X199141780Y-79006068D01*
X197274556Y-77138844D01*
X197240530Y-77076532D01*
X197245595Y-77005717D01*
X197251385Y-76992546D01*
X197281144Y-76934142D01*
X197281146Y-76934135D01*
X197285646Y-76925304D01*
X197305492Y-76800000D01*
X197285646Y-76674696D01*
X197228050Y-76561658D01*
X197138342Y-76471950D01*
X197025304Y-76414354D01*
X197015515Y-76412804D01*
X197015513Y-76412803D01*
X196909793Y-76396059D01*
X196900000Y-76394508D01*
X196890207Y-76396059D01*
X196784487Y-76412803D01*
X196784485Y-76412804D01*
X196774696Y-76414354D01*
X196661658Y-76471950D01*
X196571950Y-76561658D01*
X196514354Y-76674696D01*
X196494508Y-76800000D01*
X191760327Y-76800000D01*
X190926388Y-75966061D01*
X189800921Y-74840595D01*
X189766896Y-74778283D01*
X189771960Y-74707468D01*
X189814507Y-74650632D01*
X189881027Y-74625821D01*
X189890016Y-74625500D01*
X190312984Y-74625500D01*
X190381105Y-74645502D01*
X190402079Y-74662405D01*
X191375877Y-75636203D01*
X191411231Y-75705586D01*
X191414354Y-75725304D01*
X191471950Y-75838342D01*
X191561658Y-75928050D01*
X191674696Y-75985646D01*
X191684485Y-75987196D01*
X191684487Y-75987197D01*
X191790207Y-76003941D01*
X191800000Y-76005492D01*
X191809793Y-76003941D01*
X191915513Y-75987197D01*
X191915515Y-75987196D01*
X191925304Y-75985646D01*
X192038342Y-75928050D01*
X192128050Y-75838342D01*
X192185646Y-75725304D01*
X192205492Y-75600000D01*
X192185646Y-75474696D01*
X192128050Y-75361658D01*
X192038342Y-75271950D01*
X191925304Y-75214354D01*
X191915515Y-75212803D01*
X191915513Y-75212803D01*
X191905586Y-75211231D01*
X191836203Y-75175877D01*
X191368314Y-74707988D01*
X191334288Y-74645676D01*
X191339353Y-74574861D01*
X191381900Y-74518025D01*
X191448420Y-74493214D01*
X191457409Y-74492893D01*
X191465660Y-74492893D01*
X191475453Y-74494444D01*
X191485246Y-74492893D01*
X191590966Y-74476149D01*
X191590968Y-74476148D01*
X191600757Y-74474598D01*
X191713795Y-74417002D01*
X191803503Y-74327294D01*
X191861099Y-74214256D01*
X191880945Y-74088952D01*
X191878135Y-74071211D01*
X191887234Y-74000800D01*
X191932956Y-73946486D01*
X192002584Y-73925500D01*
X192726403Y-73925500D01*
X192783606Y-73939233D01*
X192874696Y-73985646D01*
X192884485Y-73987196D01*
X192884487Y-73987197D01*
X192990207Y-74003941D01*
X193000000Y-74005492D01*
X193009793Y-74003941D01*
X193115513Y-73987197D01*
X193115515Y-73987196D01*
X193125304Y-73985646D01*
X193238342Y-73928050D01*
X193328050Y-73838342D01*
X193385646Y-73725304D01*
X193392782Y-73680252D01*
X193403941Y-73609793D01*
X193405492Y-73600000D01*
X193398436Y-73555448D01*
X193387197Y-73484487D01*
X193387196Y-73484485D01*
X193385646Y-73474696D01*
X193328050Y-73361658D01*
X193238342Y-73271950D01*
X193125304Y-73214354D01*
X193115513Y-73212803D01*
X193115512Y-73212803D01*
X193099753Y-73210307D01*
X193035600Y-73179894D01*
X192998073Y-73119626D01*
X192995015Y-73066149D01*
X193000457Y-73031787D01*
X193030870Y-72967636D01*
X193091138Y-72930109D01*
X193124906Y-72925500D01*
X197416574Y-72925500D01*
X197484695Y-72945502D01*
X197531188Y-72999158D01*
X197541292Y-73069432D01*
X197532982Y-73099719D01*
X197518117Y-73135605D01*
X197518116Y-73135609D01*
X197514956Y-73143238D01*
X197494318Y-73300000D01*
X197495396Y-73308188D01*
X197495396Y-73308189D01*
X197501829Y-73357054D01*
X197490889Y-73427203D01*
X197443761Y-73480301D01*
X197376907Y-73499500D01*
X195680252Y-73499500D01*
X195674184Y-73500707D01*
X195633939Y-73508712D01*
X195633938Y-73508712D01*
X195621769Y-73511133D01*
X195555448Y-73555448D01*
X195511133Y-73621769D01*
X195499500Y-73680252D01*
X195499500Y-75919748D01*
X195511133Y-75978231D01*
X195555448Y-76044552D01*
X195621769Y-76088867D01*
X195633938Y-76091288D01*
X195633939Y-76091288D01*
X195674184Y-76099293D01*
X195680252Y-76100500D01*
X197283676Y-76100500D01*
X197351797Y-76120502D01*
X197398290Y-76174158D01*
X197408598Y-76210054D01*
X197429024Y-76365203D01*
X197489532Y-76511282D01*
X197585786Y-76636723D01*
X197711227Y-76732977D01*
X197857306Y-76793485D01*
X197865494Y-76794563D01*
X197935687Y-76803804D01*
X198014068Y-76814123D01*
X198022256Y-76813045D01*
X198162642Y-76794563D01*
X198170830Y-76793485D01*
X198316909Y-76732977D01*
X198442350Y-76636723D01*
X198538604Y-76511282D01*
X198599112Y-76365203D01*
X198619750Y-76208441D01*
X198599112Y-76051679D01*
X198538604Y-75905600D01*
X198451557Y-75792158D01*
X198425957Y-75725938D01*
X198440222Y-75656389D01*
X198489823Y-75605593D01*
X198559013Y-75589677D01*
X198578303Y-75592333D01*
X198600000Y-75597053D01*
X198600000Y-75600000D01*
X199747810Y-75600000D01*
X199815931Y-75620002D01*
X199836905Y-75636905D01*
X200700000Y-76500000D01*
X201466538Y-76500000D01*
X201529052Y-76516601D01*
X201623359Y-76570491D01*
X202047829Y-76813045D01*
X202200000Y-76900000D01*
X203174000Y-76900000D01*
X203242121Y-76920002D01*
X203288614Y-76973658D01*
X203300000Y-77026000D01*
X203300000Y-77800000D01*
X203312682Y-77800343D01*
X203312683Y-77800343D01*
X206981891Y-77899511D01*
X206981892Y-77899511D01*
X207000000Y-77900000D01*
X207000000Y-73500000D01*
X203600000Y-73500000D01*
X202664283Y-74342146D01*
X202633807Y-74369574D01*
X202569792Y-74400277D01*
X202554555Y-74401818D01*
X200277675Y-74492893D01*
X200102525Y-74499899D01*
X200097489Y-74500000D01*
X198600000Y-74500000D01*
X198600000Y-74505319D01*
X198591277Y-74507880D01*
X198551067Y-74533722D01*
X198480070Y-74533722D01*
X198420344Y-74495339D01*
X198390851Y-74430758D01*
X198389568Y-74412826D01*
X198389568Y-73896858D01*
X198409570Y-73828737D01*
X198438864Y-73796896D01*
X198521732Y-73733309D01*
X198521736Y-73733305D01*
X198528282Y-73728282D01*
X198624536Y-73602841D01*
X198685044Y-73456762D01*
X198688936Y-73427203D01*
X198699312Y-73348382D01*
X198705682Y-73300000D01*
X198685044Y-73143238D01*
X198624536Y-72997159D01*
X198528282Y-72871718D01*
X198511798Y-72859069D01*
X198409392Y-72780491D01*
X198402841Y-72775464D01*
X198256762Y-72714956D01*
X198213494Y-72709260D01*
X198148568Y-72680538D01*
X198109476Y-72621273D01*
X198106270Y-72599877D01*
X198105492Y-72600000D01*
X198095945Y-72539723D01*
X198105045Y-72469312D01*
X198150767Y-72414998D01*
X198182995Y-72400000D01*
X198200000Y-72400000D01*
X199900000Y-70700000D01*
X199928498Y-70648703D01*
X200391202Y-69815837D01*
X200391202Y-69815836D01*
X200400000Y-69800000D01*
X200363712Y-69780460D01*
X199115951Y-69108589D01*
X199100000Y-69100000D01*
X197836905Y-70363095D01*
X197774593Y-70397121D01*
X197747810Y-70400000D01*
X197259841Y-70400000D01*
X197191720Y-70379998D01*
X197145227Y-70326342D01*
X197135123Y-70256068D01*
X197164617Y-70191488D01*
X197170746Y-70184905D01*
X197843861Y-69511790D01*
X197854950Y-69501936D01*
X197874222Y-69486743D01*
X197874226Y-69486739D01*
X197881621Y-69480909D01*
X197886975Y-69473162D01*
X197886979Y-69473158D01*
X197914988Y-69432633D01*
X197917269Y-69429439D01*
X197952146Y-69382220D01*
X197954540Y-69375403D01*
X197958642Y-69369468D01*
X197976323Y-69313562D01*
X197977571Y-69309822D01*
X197993911Y-69263292D01*
X197993912Y-69263289D01*
X197997031Y-69254406D01*
X197997314Y-69247221D01*
X197997328Y-69247148D01*
X197999491Y-69240307D01*
X198000011Y-69233700D01*
X198000011Y-69181031D01*
X198000108Y-69176085D01*
X198001979Y-69128452D01*
X198002349Y-69119043D01*
X198000465Y-69111937D01*
X198000011Y-69103690D01*
X198000011Y-67883730D01*
X198000884Y-67868921D01*
X198003768Y-67844552D01*
X198004875Y-67835200D01*
X198003183Y-67825937D01*
X198003183Y-67825930D01*
X197994336Y-67777493D01*
X197993685Y-67773586D01*
X197986361Y-67724867D01*
X197986361Y-67724866D01*
X197984960Y-67715549D01*
X197981832Y-67709036D01*
X197980536Y-67701938D01*
X197953483Y-67649858D01*
X197951734Y-67646356D01*
X197930398Y-67601924D01*
X197930397Y-67601923D01*
X197926320Y-67593432D01*
X197921434Y-67588147D01*
X197921403Y-67588100D01*
X197918090Y-67581722D01*
X197913786Y-67576683D01*
X197876559Y-67539456D01*
X197873129Y-67535890D01*
X197840757Y-67500870D01*
X197834365Y-67493955D01*
X197828006Y-67490262D01*
X197821848Y-67484745D01*
X197736085Y-67398982D01*
X197702059Y-67336670D01*
X197707124Y-67265855D01*
X197749671Y-67209019D01*
X197816191Y-67184208D01*
X197831803Y-67184061D01*
X198128379Y-67199671D01*
X198128384Y-67199671D01*
X198132622Y-67199894D01*
X198268840Y-67188650D01*
X198334445Y-67174166D01*
X198370790Y-67160807D01*
X198454512Y-67130035D01*
X198454513Y-67130034D01*
X198462736Y-67127012D01*
X198579573Y-67041830D01*
X198585750Y-67035807D01*
X198648487Y-67002571D01*
X198673714Y-67000020D01*
X199349422Y-67000020D01*
X199417543Y-67020022D01*
X199438517Y-67036925D01*
X202212595Y-69811003D01*
X202246621Y-69873315D01*
X202249500Y-69900098D01*
X202249500Y-71257901D01*
X202229498Y-71326022D01*
X202223463Y-71334605D01*
X202175464Y-71397159D01*
X202114956Y-71543238D01*
X202094318Y-71700000D01*
X202114956Y-71856762D01*
X202175464Y-72002841D01*
X202271718Y-72128282D01*
X202397159Y-72224536D01*
X202543238Y-72285044D01*
X202700000Y-72305682D01*
X202708188Y-72304604D01*
X202848574Y-72286122D01*
X202856762Y-72285044D01*
X203002841Y-72224536D01*
X203128282Y-72128282D01*
X203224536Y-72002841D01*
X203285044Y-71856762D01*
X203305682Y-71700000D01*
X203285044Y-71543238D01*
X203224536Y-71397159D01*
X203176537Y-71334605D01*
X203150937Y-71268384D01*
X203150500Y-71257901D01*
X203150500Y-69695525D01*
X203151373Y-69680716D01*
X203154257Y-69656348D01*
X203155364Y-69646995D01*
X203153672Y-69637731D01*
X203153672Y-69637727D01*
X203144827Y-69589294D01*
X203144178Y-69585393D01*
X203136851Y-69536660D01*
X203136849Y-69536652D01*
X203135449Y-69527343D01*
X203132323Y-69520833D01*
X203131026Y-69513732D01*
X203103982Y-69461668D01*
X203102214Y-69458130D01*
X203080886Y-69413716D01*
X203076809Y-69405226D01*
X203071926Y-69399945D01*
X203071891Y-69399893D01*
X203068580Y-69393517D01*
X203064276Y-69388477D01*
X203027036Y-69351237D01*
X203023606Y-69347671D01*
X202991248Y-69312666D01*
X202984854Y-69305749D01*
X202978495Y-69302056D01*
X202972353Y-69296554D01*
X199930968Y-66255170D01*
X199921114Y-66244081D01*
X199905922Y-66224811D01*
X199905920Y-66224809D01*
X199900087Y-66217410D01*
X199892340Y-66212055D01*
X199892338Y-66212054D01*
X199851840Y-66184065D01*
X199848618Y-66181763D01*
X199808973Y-66152480D01*
X199808972Y-66152479D01*
X199801399Y-66146886D01*
X199794583Y-66144493D01*
X199788646Y-66140389D01*
X199779666Y-66137549D01*
X199779664Y-66137548D01*
X199759498Y-66131170D01*
X199732696Y-66122694D01*
X199728965Y-66121449D01*
X199682478Y-66105124D01*
X199682476Y-66105124D01*
X199673584Y-66102001D01*
X199666396Y-66101719D01*
X199666337Y-66101708D01*
X199659485Y-66099540D01*
X199652878Y-66099020D01*
X199600199Y-66099020D01*
X199595252Y-66098923D01*
X199538221Y-66096682D01*
X199531115Y-66098566D01*
X199522868Y-66099020D01*
X198775500Y-66099020D01*
X198707379Y-66079018D01*
X198660886Y-66025362D01*
X198649500Y-65973020D01*
X198649500Y-65149537D01*
X198653840Y-65116752D01*
X198679147Y-65022841D01*
X198680081Y-65019375D01*
X198680649Y-65015607D01*
X198688011Y-64966714D01*
X198688011Y-64966712D01*
X198688545Y-64963167D01*
X198688694Y-64959010D01*
X198692372Y-64855994D01*
X198692661Y-64847912D01*
X198690295Y-64837372D01*
X198661974Y-64711226D01*
X198661972Y-64711219D01*
X198660987Y-64706832D01*
X198635734Y-64640478D01*
X198565593Y-64514033D01*
X198562871Y-64510447D01*
X198560411Y-64506674D01*
X198562132Y-64505552D01*
X198539882Y-64447054D01*
X198539500Y-64437252D01*
X198539500Y-63378853D01*
X198559502Y-63310732D01*
X198602213Y-63269900D01*
X198648601Y-63242955D01*
X198648609Y-63242949D01*
X198652671Y-63240590D01*
X198710505Y-63194253D01*
X198713697Y-63190800D01*
X198806789Y-63090084D01*
X198806791Y-63090081D01*
X198813042Y-63083318D01*
X198853461Y-63000500D01*
X198874489Y-62957416D01*
X198874492Y-62957408D01*
X198876460Y-62953376D01*
X198898202Y-62885791D01*
X198922443Y-62743241D01*
X198955759Y-61443896D01*
X199004578Y-59539973D01*
X199004578Y-59539964D01*
X199004660Y-59536756D01*
X199004168Y-59530372D01*
X198996898Y-59436167D01*
X198996898Y-59436164D01*
X198996650Y-59432955D01*
X198995596Y-59427149D01*
X198988049Y-59385599D01*
X198987470Y-59382411D01*
X198958472Y-59282435D01*
X198919903Y-59216265D01*
X198887927Y-59161408D01*
X198885658Y-59157515D01*
X198882861Y-59153989D01*
X198882858Y-59153984D01*
X198844337Y-59105417D01*
X198841540Y-59101890D01*
X198736477Y-59002541D01*
X198607685Y-58936820D01*
X198603430Y-58935367D01*
X198603425Y-58935365D01*
X198544761Y-58915334D01*
X198540497Y-58913878D01*
X198398407Y-58887103D01*
X196992560Y-58825979D01*
X196353538Y-58798195D01*
X196349829Y-58798472D01*
X196349822Y-58798472D01*
X196259729Y-58805198D01*
X196234299Y-58807096D01*
X196230647Y-58807808D01*
X196230645Y-58807808D01*
X196217569Y-58810356D01*
X196176485Y-58818363D01*
X196172945Y-58819499D01*
X196172940Y-58819500D01*
X196152745Y-58825979D01*
X196062628Y-58854890D01*
X195940990Y-58933062D01*
X195937595Y-58936004D01*
X195937592Y-58936006D01*
X195900505Y-58968142D01*
X195887334Y-58979555D01*
X195884393Y-58982949D01*
X195876865Y-58991637D01*
X195792645Y-59088831D01*
X195732579Y-59220357D01*
X195712577Y-59288478D01*
X195711937Y-59292926D01*
X195711936Y-59292933D01*
X195692639Y-59427149D01*
X195692638Y-59427156D01*
X195692000Y-59431597D01*
X195692000Y-59496684D01*
X195692175Y-59510028D01*
X195692349Y-59516650D01*
X195692876Y-59530006D01*
X195692893Y-59530334D01*
X195692895Y-59530372D01*
X195850293Y-62520925D01*
X195833899Y-62590002D01*
X195782761Y-62639251D01*
X195714803Y-62653176D01*
X195123438Y-62607687D01*
X195016836Y-62599487D01*
X194950450Y-62574319D01*
X194908210Y-62517256D01*
X194900500Y-62473858D01*
X194900500Y-60328641D01*
X194900792Y-60320071D01*
X194904162Y-60270646D01*
X194904162Y-60270642D01*
X194904678Y-60263070D01*
X194903373Y-60255591D01*
X194893822Y-60200868D01*
X194892859Y-60194342D01*
X194886189Y-60139226D01*
X194885276Y-60131680D01*
X194882591Y-60124573D01*
X194881782Y-60121280D01*
X194877823Y-60106809D01*
X194876834Y-60103533D01*
X194875527Y-60096046D01*
X194872472Y-60089086D01*
X194850153Y-60038240D01*
X194847661Y-60032134D01*
X194828030Y-59980182D01*
X194828029Y-59980180D01*
X194825345Y-59973077D01*
X194821046Y-59966822D01*
X194819465Y-59963797D01*
X194812175Y-59950701D01*
X194810434Y-59947757D01*
X194807379Y-59940798D01*
X194768958Y-59890727D01*
X194765081Y-59885391D01*
X194733619Y-59839614D01*
X194733614Y-59839608D01*
X194729312Y-59833349D01*
X194683352Y-59792400D01*
X194678075Y-59787419D01*
X193915576Y-59024919D01*
X193909723Y-59018653D01*
X193877165Y-58981331D01*
X193872169Y-58975604D01*
X193861548Y-58968139D01*
X193817318Y-58912608D01*
X193808000Y-58865054D01*
X193808000Y-58526000D01*
X193796391Y-58418020D01*
X193785005Y-58365678D01*
X193750707Y-58262628D01*
X193672535Y-58140990D01*
X193626042Y-58087334D01*
X193607213Y-58071018D01*
X193599214Y-58064087D01*
X193516766Y-57992645D01*
X193385240Y-57932579D01*
X193361486Y-57925604D01*
X193321442Y-57913846D01*
X193321438Y-57913845D01*
X193317119Y-57912577D01*
X193312671Y-57911937D01*
X193312664Y-57911936D01*
X193178448Y-57892639D01*
X193178441Y-57892638D01*
X193174000Y-57892000D01*
X187826000Y-57892000D01*
X187718020Y-57903609D01*
X187714736Y-57904323D01*
X187714732Y-57904324D01*
X187689661Y-57909778D01*
X187665678Y-57914995D01*
X187562628Y-57949293D01*
X187440990Y-58027465D01*
X187387334Y-58073958D01*
X187384393Y-58077352D01*
X187315799Y-58156513D01*
X187256073Y-58194896D01*
X187220575Y-58200000D01*
X185000000Y-58200000D01*
X185000000Y-58982519D01*
X184999833Y-58987126D01*
X184999500Y-58989410D01*
X184999500Y-60010590D01*
X184999833Y-60012853D01*
X185000000Y-60017421D01*
X185000000Y-60800000D01*
X185623500Y-60800000D01*
X185691621Y-60820002D01*
X185738114Y-60873658D01*
X185749500Y-60926000D01*
X185749500Y-61285569D01*
X185729498Y-61353690D01*
X185675842Y-61400183D01*
X185605568Y-61410287D01*
X185540988Y-61380793D01*
X185518735Y-61355571D01*
X185495865Y-61321344D01*
X185488972Y-61311028D01*
X185416035Y-61262293D01*
X185351719Y-61249500D01*
X185112016Y-61249500D01*
X185043895Y-61229498D01*
X185022921Y-61212595D01*
X184394111Y-60583785D01*
X184386684Y-60575681D01*
X184369541Y-60555251D01*
X184369540Y-60555250D01*
X184362455Y-60546806D01*
X184352906Y-60541293D01*
X184329815Y-60527961D01*
X184320544Y-60522055D01*
X184298715Y-60506770D01*
X184289684Y-60500446D01*
X184279034Y-60497592D01*
X184275866Y-60496115D01*
X184272590Y-60494923D01*
X184263045Y-60489412D01*
X184229301Y-60483462D01*
X184225942Y-60482870D01*
X184215215Y-60480492D01*
X184178807Y-60470736D01*
X184167822Y-60471697D01*
X184167820Y-60471697D01*
X184141272Y-60474020D01*
X184130290Y-60474500D01*
X182719713Y-60474500D01*
X182708732Y-60474021D01*
X182682170Y-60471697D01*
X182682168Y-60471697D01*
X182671193Y-60470737D01*
X182634783Y-60480492D01*
X182624076Y-60482866D01*
X182586955Y-60489412D01*
X182577411Y-60494922D01*
X182574135Y-60496114D01*
X182570964Y-60497593D01*
X182560316Y-60500446D01*
X182551287Y-60506768D01*
X182529449Y-60522059D01*
X182520179Y-60527964D01*
X182497092Y-60541293D01*
X182497088Y-60541296D01*
X182487545Y-60546806D01*
X182480460Y-60555250D01*
X182463325Y-60575670D01*
X182455900Y-60583773D01*
X182205593Y-60834081D01*
X181977079Y-61062595D01*
X181914766Y-61096620D01*
X181887983Y-61099500D01*
X181316312Y-61099500D01*
X181246161Y-61113454D01*
X181235846Y-61120346D01*
X181235844Y-61120347D01*
X181176925Y-61159716D01*
X181166609Y-61166609D01*
X181159716Y-61176925D01*
X181120347Y-61235844D01*
X181120346Y-61235846D01*
X181113454Y-61246161D01*
X181099500Y-61316312D01*
X181099500Y-62083688D01*
X181113454Y-62153839D01*
X181120346Y-62164154D01*
X181120347Y-62164156D01*
X181133206Y-62183400D01*
X181166609Y-62233391D01*
X181176925Y-62240284D01*
X181235844Y-62279653D01*
X181235846Y-62279654D01*
X181246161Y-62286546D01*
X181316312Y-62300500D01*
X182283688Y-62300500D01*
X182353839Y-62286546D01*
X182364154Y-62279654D01*
X182364156Y-62279653D01*
X182423075Y-62240284D01*
X182433391Y-62233391D01*
X182466794Y-62183400D01*
X182479653Y-62164156D01*
X182479654Y-62164154D01*
X182486546Y-62153839D01*
X182500500Y-62083688D01*
X182500500Y-61512017D01*
X182520502Y-61443896D01*
X182537405Y-61422922D01*
X182584405Y-61375922D01*
X182646717Y-61341896D01*
X182717532Y-61346961D01*
X182774368Y-61389508D01*
X182799179Y-61456028D01*
X182799500Y-61465017D01*
X182799500Y-62083688D01*
X182813454Y-62153839D01*
X182820346Y-62164154D01*
X182820347Y-62164156D01*
X182833206Y-62183400D01*
X182866609Y-62233391D01*
X182876925Y-62240284D01*
X182935844Y-62279653D01*
X182935846Y-62279654D01*
X182946161Y-62286546D01*
X183016312Y-62300500D01*
X183517273Y-62300500D01*
X183585394Y-62320502D01*
X183606368Y-62337405D01*
X183692115Y-62423152D01*
X183726141Y-62485464D01*
X183721076Y-62556279D01*
X183678529Y-62613115D01*
X183657562Y-62625830D01*
X183631100Y-62638537D01*
X183626869Y-62642094D01*
X183624937Y-62644026D01*
X183623063Y-62645745D01*
X183622926Y-62645819D01*
X183622826Y-62645709D01*
X183622346Y-62646132D01*
X183616671Y-62649194D01*
X183609601Y-62656843D01*
X183609599Y-62656844D01*
X183607581Y-62659027D01*
X183604100Y-62661110D01*
X183601371Y-62663226D01*
X183601114Y-62662895D01*
X183546654Y-62695473D01*
X183515055Y-62699500D01*
X183016312Y-62699500D01*
X182946161Y-62713454D01*
X182935846Y-62720346D01*
X182935844Y-62720347D01*
X182882371Y-62756077D01*
X182866609Y-62766609D01*
X182859716Y-62776925D01*
X182820347Y-62835844D01*
X182820346Y-62835846D01*
X182813454Y-62846161D01*
X182799500Y-62916312D01*
X182799500Y-63464273D01*
X182779498Y-63532394D01*
X182725842Y-63578887D01*
X182655568Y-63588991D01*
X182590988Y-63559497D01*
X182584405Y-63553368D01*
X182537405Y-63506368D01*
X182503379Y-63444056D01*
X182500500Y-63417273D01*
X182500500Y-62916312D01*
X182486546Y-62846161D01*
X182479654Y-62835846D01*
X182479653Y-62835844D01*
X182440284Y-62776925D01*
X182433391Y-62766609D01*
X182417629Y-62756077D01*
X182364156Y-62720347D01*
X182364154Y-62720346D01*
X182353839Y-62713454D01*
X182283688Y-62699500D01*
X181316312Y-62699500D01*
X181246161Y-62713454D01*
X181235846Y-62720346D01*
X181235844Y-62720347D01*
X181182371Y-62756077D01*
X181166609Y-62766609D01*
X181159716Y-62776925D01*
X181120347Y-62835844D01*
X181120346Y-62835846D01*
X181113454Y-62846161D01*
X181099500Y-62916312D01*
X181099500Y-63683688D01*
X181113454Y-63753839D01*
X181120346Y-63764154D01*
X181120347Y-63764156D01*
X181151068Y-63810133D01*
X181166609Y-63833391D01*
X181176925Y-63840284D01*
X181235844Y-63879653D01*
X181235846Y-63879654D01*
X181246161Y-63886546D01*
X181316312Y-63900500D01*
X181817272Y-63900500D01*
X181885393Y-63920502D01*
X181906368Y-63937405D01*
X182271177Y-64302215D01*
X182285884Y-64320426D01*
X182287299Y-64321981D01*
X182292948Y-64330730D01*
X182301128Y-64337178D01*
X182301130Y-64337181D01*
X182318981Y-64351254D01*
X182323355Y-64355141D01*
X182323421Y-64355063D01*
X182327380Y-64358418D01*
X182331058Y-64362096D01*
X182335282Y-64365115D01*
X182335291Y-64365122D01*
X182346594Y-64373199D01*
X182351340Y-64376763D01*
X182391120Y-64408123D01*
X182399668Y-64411125D01*
X182407039Y-64416392D01*
X182417012Y-64419375D01*
X182417015Y-64419376D01*
X182455603Y-64430916D01*
X182461250Y-64432751D01*
X182501584Y-64446915D01*
X182501585Y-64446915D01*
X182509068Y-64449543D01*
X182514575Y-64450020D01*
X182517282Y-64450020D01*
X182519852Y-64450131D01*
X182520014Y-64450179D01*
X182520008Y-64450324D01*
X182520628Y-64450363D01*
X182526807Y-64452211D01*
X182580101Y-64450117D01*
X182585047Y-64450020D01*
X183666000Y-64450020D01*
X183734121Y-64470022D01*
X183780614Y-64523678D01*
X183792000Y-64576020D01*
X183792000Y-64658046D01*
X183771998Y-64726167D01*
X183755095Y-64747141D01*
X180432757Y-68069480D01*
X180426739Y-68075117D01*
X180375457Y-68120090D01*
X180371885Y-68124621D01*
X180317889Y-68193114D01*
X180315814Y-68195676D01*
X180267824Y-68253379D01*
X180256398Y-68267117D01*
X180253573Y-68272161D01*
X180253502Y-68272287D01*
X180242529Y-68288709D01*
X180242438Y-68288824D01*
X180242435Y-68288829D01*
X180238863Y-68293360D01*
X180236173Y-68298473D01*
X180195585Y-68375617D01*
X180194021Y-68378498D01*
X180148590Y-68459621D01*
X180146690Y-68465220D01*
X180138884Y-68483387D01*
X180136131Y-68488620D01*
X180134418Y-68494137D01*
X180108569Y-68577384D01*
X180107550Y-68580520D01*
X180079714Y-68662525D01*
X180077669Y-68668548D01*
X180076818Y-68674416D01*
X180072461Y-68693670D01*
X180072415Y-68693817D01*
X180072414Y-68693823D01*
X180070703Y-68699333D01*
X180070025Y-68705061D01*
X180070024Y-68705066D01*
X180059777Y-68791650D01*
X180059346Y-68794922D01*
X180049574Y-68862318D01*
X180046009Y-68886902D01*
X180049081Y-68965096D01*
X180049403Y-68973286D01*
X180049500Y-68978233D01*
X180049500Y-82255271D01*
X180049230Y-82263512D01*
X180044770Y-82331560D01*
X178037568Y-82331560D01*
X177837154Y-82155801D01*
X177837148Y-82155797D01*
X177834054Y-82153083D01*
X177830628Y-82150794D01*
X177830623Y-82150790D01*
X177597644Y-81995119D01*
X177594211Y-81992825D01*
X177590512Y-81991001D01*
X177590507Y-81990998D01*
X177339197Y-81867066D01*
X177339195Y-81867065D01*
X177335502Y-81865244D01*
X177319217Y-81859716D01*
X177066263Y-81773849D01*
X177066259Y-81773848D01*
X177062353Y-81772522D01*
X177058309Y-81771718D01*
X177058303Y-81771716D01*
X176783482Y-81717051D01*
X176783479Y-81717051D01*
X176779439Y-81716247D01*
X176775328Y-81715978D01*
X176775324Y-81715977D01*
X176495719Y-81697651D01*
X176491600Y-81697381D01*
X176487481Y-81697651D01*
X176207876Y-81715977D01*
X176207872Y-81715978D01*
X176203761Y-81716247D01*
X176199721Y-81717051D01*
X176199718Y-81717051D01*
X175924897Y-81771716D01*
X175924891Y-81771718D01*
X175920847Y-81772522D01*
X175916941Y-81773848D01*
X175916937Y-81773849D01*
X175663983Y-81859716D01*
X175647698Y-81865244D01*
X175644005Y-81867065D01*
X175644003Y-81867066D01*
X175392693Y-81990998D01*
X175392688Y-81991001D01*
X175388989Y-81992825D01*
X175385556Y-81995119D01*
X175152577Y-82150790D01*
X175152572Y-82150794D01*
X175149146Y-82153083D01*
X175146052Y-82155797D01*
X175146046Y-82155801D01*
X174939093Y-82337295D01*
X174932273Y-82343276D01*
X174929564Y-82346365D01*
X174744798Y-82557049D01*
X174744794Y-82557055D01*
X174742080Y-82560149D01*
X174739791Y-82563575D01*
X174739787Y-82563580D01*
X174636683Y-82717887D01*
X174581822Y-82799992D01*
X174579998Y-82803691D01*
X174579995Y-82803696D01*
X174456063Y-83055006D01*
X174454241Y-83058701D01*
X174452918Y-83062599D01*
X174452917Y-83062601D01*
X174365894Y-83318963D01*
X174361519Y-83331850D01*
X174360715Y-83335894D01*
X174360713Y-83335900D01*
X174306048Y-83610721D01*
X174305244Y-83614764D01*
X174304975Y-83618875D01*
X174304974Y-83618879D01*
X174291328Y-83827074D01*
X174286378Y-83902603D01*
X173850500Y-83902603D01*
X173850500Y-70158160D01*
X173850501Y-70157716D01*
X173896822Y-57002603D01*
X174286378Y-57002603D01*
X174305244Y-57290442D01*
X174361519Y-57573356D01*
X174454241Y-57846505D01*
X174456062Y-57850198D01*
X174456063Y-57850200D01*
X174574678Y-58090727D01*
X174581822Y-58105214D01*
X174584116Y-58108647D01*
X174687003Y-58262628D01*
X174742080Y-58345057D01*
X174744794Y-58348151D01*
X174744798Y-58348157D01*
X174897826Y-58522651D01*
X174932273Y-58561930D01*
X174935362Y-58564639D01*
X175146046Y-58749405D01*
X175146052Y-58749409D01*
X175149146Y-58752123D01*
X175152572Y-58754412D01*
X175152577Y-58754416D01*
X175259679Y-58825979D01*
X175388989Y-58912381D01*
X175392688Y-58914205D01*
X175392693Y-58914208D01*
X175644003Y-59038140D01*
X175647698Y-59039962D01*
X175651596Y-59041285D01*
X175651598Y-59041286D01*
X175916937Y-59131357D01*
X175916941Y-59131358D01*
X175920847Y-59132684D01*
X175924891Y-59133488D01*
X175924897Y-59133490D01*
X176199718Y-59188155D01*
X176199721Y-59188155D01*
X176203761Y-59188959D01*
X176207872Y-59189228D01*
X176207876Y-59189229D01*
X176487481Y-59207555D01*
X176491600Y-59207825D01*
X176495719Y-59207555D01*
X176775324Y-59189229D01*
X176775328Y-59189228D01*
X176779439Y-59188959D01*
X176783479Y-59188155D01*
X176783482Y-59188155D01*
X177058303Y-59133490D01*
X177058309Y-59133488D01*
X177062353Y-59132684D01*
X177066259Y-59131358D01*
X177066263Y-59131357D01*
X177331602Y-59041286D01*
X177331604Y-59041285D01*
X177335502Y-59039962D01*
X177339197Y-59038140D01*
X177590507Y-58914208D01*
X177590512Y-58914205D01*
X177594211Y-58912381D01*
X177723521Y-58825979D01*
X177830623Y-58754416D01*
X177830628Y-58754412D01*
X177834054Y-58752123D01*
X177837148Y-58749409D01*
X177837154Y-58749405D01*
X178047838Y-58564639D01*
X178050927Y-58561930D01*
X178085374Y-58522651D01*
X178238402Y-58348157D01*
X178238406Y-58348151D01*
X178241120Y-58345057D01*
X178296198Y-58262628D01*
X178399084Y-58108647D01*
X178401378Y-58105214D01*
X178408523Y-58090727D01*
X178527137Y-57850200D01*
X178527138Y-57850198D01*
X178528959Y-57846505D01*
X178621681Y-57573356D01*
X178677956Y-57290442D01*
X178696822Y-57002603D01*
X203586378Y-57002603D01*
X203605244Y-57290442D01*
X203661519Y-57573356D01*
X203754241Y-57846505D01*
X203756062Y-57850198D01*
X203756063Y-57850200D01*
X203874678Y-58090727D01*
X203881822Y-58105214D01*
X203884116Y-58108647D01*
X203987003Y-58262628D01*
X204042080Y-58345057D01*
X204044794Y-58348151D01*
X204044798Y-58348157D01*
X204197826Y-58522651D01*
X204232273Y-58561930D01*
X204235362Y-58564639D01*
X204446046Y-58749405D01*
X204446052Y-58749409D01*
X204449146Y-58752123D01*
X204452572Y-58754412D01*
X204452577Y-58754416D01*
X204559679Y-58825979D01*
X204688989Y-58912381D01*
X204692688Y-58914205D01*
X204692693Y-58914208D01*
X204944003Y-59038140D01*
X204947698Y-59039962D01*
X204951596Y-59041285D01*
X204951598Y-59041286D01*
X205216937Y-59131357D01*
X205216941Y-59131358D01*
X205220847Y-59132684D01*
X205224891Y-59133488D01*
X205224897Y-59133490D01*
X205499718Y-59188155D01*
X205499721Y-59188155D01*
X205503761Y-59188959D01*
X205507872Y-59189228D01*
X205507876Y-59189229D01*
X205787481Y-59207555D01*
X205791600Y-59207825D01*
X205795719Y-59207555D01*
X206075324Y-59189229D01*
X206075328Y-59189228D01*
X206079439Y-59188959D01*
X206083479Y-59188155D01*
X206083482Y-59188155D01*
X206358303Y-59133490D01*
X206358309Y-59133488D01*
X206362353Y-59132684D01*
X206366259Y-59131358D01*
X206366263Y-59131357D01*
X206631602Y-59041286D01*
X206631604Y-59041285D01*
X206635502Y-59039962D01*
X206639197Y-59038140D01*
X206890507Y-58914208D01*
X206890512Y-58914205D01*
X206894211Y-58912381D01*
X207023521Y-58825979D01*
X207130623Y-58754416D01*
X207130628Y-58754412D01*
X207134054Y-58752123D01*
X207137148Y-58749409D01*
X207137154Y-58749405D01*
X207347838Y-58564639D01*
X207350927Y-58561930D01*
X207385374Y-58522651D01*
X207538402Y-58348157D01*
X207538406Y-58348151D01*
X207541120Y-58345057D01*
X207596198Y-58262628D01*
X207699084Y-58108647D01*
X207701378Y-58105214D01*
X207708523Y-58090727D01*
X207827137Y-57850200D01*
X207827138Y-57850198D01*
X207828959Y-57846505D01*
X207921681Y-57573356D01*
X207977956Y-57290442D01*
X207996822Y-57002603D01*
X207977956Y-56714764D01*
X207963110Y-56640129D01*
X207922487Y-56435900D01*
X207922485Y-56435894D01*
X207921681Y-56431850D01*
X207878827Y-56305605D01*
X207830283Y-56162601D01*
X207830282Y-56162599D01*
X207828959Y-56158701D01*
X207753453Y-56005589D01*
X207703205Y-55903696D01*
X207703202Y-55903691D01*
X207701378Y-55899992D01*
X207541120Y-55660149D01*
X207538406Y-55657055D01*
X207538402Y-55657049D01*
X207353636Y-55446365D01*
X207350927Y-55443276D01*
X207347838Y-55440567D01*
X207137154Y-55255801D01*
X207137148Y-55255797D01*
X207134054Y-55253083D01*
X207130628Y-55250794D01*
X207130623Y-55250790D01*
X206937425Y-55121700D01*
X206894211Y-55092825D01*
X206890512Y-55091001D01*
X206890507Y-55090998D01*
X206639197Y-54967066D01*
X206639195Y-54967065D01*
X206635502Y-54965244D01*
X206631602Y-54963920D01*
X206366263Y-54873849D01*
X206366259Y-54873848D01*
X206362353Y-54872522D01*
X206358309Y-54871718D01*
X206358303Y-54871716D01*
X206083482Y-54817051D01*
X206083479Y-54817051D01*
X206079439Y-54816247D01*
X206075328Y-54815978D01*
X206075324Y-54815977D01*
X205795719Y-54797651D01*
X205791600Y-54797381D01*
X205787481Y-54797651D01*
X205507876Y-54815977D01*
X205507872Y-54815978D01*
X205503761Y-54816247D01*
X205499721Y-54817051D01*
X205499718Y-54817051D01*
X205224897Y-54871716D01*
X205224891Y-54871718D01*
X205220847Y-54872522D01*
X205216941Y-54873848D01*
X205216937Y-54873849D01*
X204951598Y-54963920D01*
X204947698Y-54965244D01*
X204944005Y-54967065D01*
X204944003Y-54967066D01*
X204692693Y-55090998D01*
X204692688Y-55091001D01*
X204688989Y-55092825D01*
X204645775Y-55121700D01*
X204452577Y-55250790D01*
X204452572Y-55250794D01*
X204449146Y-55253083D01*
X204446052Y-55255797D01*
X204446046Y-55255801D01*
X204235362Y-55440567D01*
X204232273Y-55443276D01*
X204229564Y-55446365D01*
X204044798Y-55657049D01*
X204044794Y-55657055D01*
X204042080Y-55660149D01*
X203881822Y-55899992D01*
X203879998Y-55903691D01*
X203879995Y-55903696D01*
X203829747Y-56005589D01*
X203754241Y-56158701D01*
X203752918Y-56162599D01*
X203752917Y-56162601D01*
X203704374Y-56305605D01*
X203661519Y-56431850D01*
X203660715Y-56435894D01*
X203660713Y-56435900D01*
X203620090Y-56640129D01*
X203605244Y-56714764D01*
X203586378Y-57002603D01*
X178696822Y-57002603D01*
X178677956Y-56714764D01*
X178663110Y-56640129D01*
X178622487Y-56435900D01*
X178622485Y-56435894D01*
X178621681Y-56431850D01*
X178578827Y-56305605D01*
X178530283Y-56162601D01*
X178530282Y-56162599D01*
X178528959Y-56158701D01*
X178453453Y-56005589D01*
X178403205Y-55903696D01*
X178403202Y-55903691D01*
X178401378Y-55899992D01*
X178241120Y-55660149D01*
X178238406Y-55657055D01*
X178238402Y-55657049D01*
X178053636Y-55446365D01*
X178050927Y-55443276D01*
X178047838Y-55440567D01*
X177837154Y-55255801D01*
X177837148Y-55255797D01*
X177834054Y-55253083D01*
X177830628Y-55250794D01*
X177830623Y-55250790D01*
X177637425Y-55121700D01*
X177594211Y-55092825D01*
X177590512Y-55091001D01*
X177590507Y-55090998D01*
X177339197Y-54967066D01*
X177339195Y-54967065D01*
X177335502Y-54965244D01*
X177331602Y-54963920D01*
X177066263Y-54873849D01*
X177066259Y-54873848D01*
X177062353Y-54872522D01*
X177058309Y-54871718D01*
X177058303Y-54871716D01*
X176783482Y-54817051D01*
X176783479Y-54817051D01*
X176779439Y-54816247D01*
X176775328Y-54815978D01*
X176775324Y-54815977D01*
X176495719Y-54797651D01*
X176491600Y-54797381D01*
X176487481Y-54797651D01*
X176207876Y-54815977D01*
X176207872Y-54815978D01*
X176203761Y-54816247D01*
X176199721Y-54817051D01*
X176199718Y-54817051D01*
X175924897Y-54871716D01*
X175924891Y-54871718D01*
X175920847Y-54872522D01*
X175916941Y-54873848D01*
X175916937Y-54873849D01*
X175651598Y-54963920D01*
X175647698Y-54965244D01*
X175644005Y-54967065D01*
X175644003Y-54967066D01*
X175392693Y-55090998D01*
X175392688Y-55091001D01*
X175388989Y-55092825D01*
X175345775Y-55121700D01*
X175152577Y-55250790D01*
X175152572Y-55250794D01*
X175149146Y-55253083D01*
X175146052Y-55255797D01*
X175146046Y-55255801D01*
X174935362Y-55440567D01*
X174932273Y-55443276D01*
X174929564Y-55446365D01*
X174744798Y-55657049D01*
X174744794Y-55657055D01*
X174742080Y-55660149D01*
X174581822Y-55899992D01*
X174579998Y-55903691D01*
X174579995Y-55903696D01*
X174529747Y-56005589D01*
X174454241Y-56158701D01*
X174452918Y-56162599D01*
X174452917Y-56162601D01*
X174404374Y-56305605D01*
X174361519Y-56431850D01*
X174360715Y-56435894D01*
X174360713Y-56435900D01*
X174320090Y-56640129D01*
X174305244Y-56714764D01*
X174286378Y-57002603D01*
X173896822Y-57002603D01*
X173899929Y-56120220D01*
X173906394Y-56080819D01*
X174097168Y-55508496D01*
X174104004Y-55491992D01*
X174290857Y-55118286D01*
X174314460Y-55085540D01*
X174648216Y-54751784D01*
X174661802Y-54740011D01*
X174713034Y-54701659D01*
X174718522Y-54697775D01*
X174753791Y-54674209D01*
X174767425Y-54666288D01*
X175197482Y-54451259D01*
X175209774Y-54445911D01*
X175210476Y-54445649D01*
X175214031Y-54444382D01*
X175252505Y-54431322D01*
X175329518Y-54405179D01*
X175343223Y-54401375D01*
X175485701Y-54370381D01*
X175487885Y-54369927D01*
X175600588Y-54347509D01*
X175616179Y-54345409D01*
X175798428Y-54332376D01*
X175798950Y-54332341D01*
X175865554Y-54327975D01*
X175877841Y-54327170D01*
X175886081Y-54326900D01*
X205977248Y-54326900D01*
X205984856Y-54327130D01*
G37*
%TD.AperFunction*%
%TA.AperFunction,Conductor*%
G36*
X190854083Y-68270502D02*
G01*
X190900576Y-68324158D01*
X190910680Y-68394432D01*
X190881186Y-68459012D01*
X190875057Y-68465595D01*
X188983785Y-70356867D01*
X188975681Y-70364294D01*
X188946806Y-70388523D01*
X188941293Y-70398072D01*
X188927961Y-70421163D01*
X188922055Y-70430434D01*
X188900446Y-70461294D01*
X188897592Y-70471944D01*
X188896115Y-70475112D01*
X188894923Y-70478388D01*
X188889412Y-70487933D01*
X188885498Y-70510131D01*
X188882870Y-70525036D01*
X188880491Y-70535766D01*
X188873696Y-70561126D01*
X188862359Y-70579726D01*
X188873973Y-70609164D01*
X188874021Y-70609713D01*
X188874500Y-70620688D01*
X188874500Y-70770762D01*
X188865720Y-70814905D01*
X188861133Y-70821769D01*
X188849500Y-70880252D01*
X188849500Y-72219748D01*
X188850707Y-72225816D01*
X188857713Y-72261035D01*
X188861133Y-72278231D01*
X188905448Y-72344552D01*
X188971769Y-72388867D01*
X188983938Y-72391288D01*
X188983939Y-72391288D01*
X188996684Y-72393823D01*
X189030252Y-72400500D01*
X189248500Y-72400500D01*
X189316621Y-72420502D01*
X189363114Y-72474158D01*
X189374500Y-72526500D01*
X189374500Y-72686127D01*
X189354498Y-72754248D01*
X189353715Y-72755393D01*
X189347450Y-72761658D01*
X189289854Y-72874696D01*
X189288304Y-72884485D01*
X189288303Y-72884487D01*
X189275134Y-72967636D01*
X189270008Y-73000000D01*
X189289854Y-73125304D01*
X189347450Y-73238342D01*
X189437158Y-73328050D01*
X189550196Y-73385646D01*
X189559985Y-73387196D01*
X189559987Y-73387197D01*
X189665707Y-73403941D01*
X189675500Y-73405492D01*
X189685293Y-73403941D01*
X189791013Y-73387197D01*
X189791015Y-73387196D01*
X189800804Y-73385646D01*
X189913842Y-73328050D01*
X189917371Y-73324521D01*
X189981660Y-73301580D01*
X190050812Y-73317657D01*
X190077953Y-73338279D01*
X190499079Y-73759405D01*
X190533105Y-73821717D01*
X190528040Y-73892532D01*
X190485493Y-73949368D01*
X190418973Y-73974179D01*
X190409984Y-73974500D01*
X189622734Y-73974500D01*
X189554613Y-73954498D01*
X189533639Y-73937595D01*
X188211639Y-72615595D01*
X188177613Y-72553283D01*
X188182678Y-72482468D01*
X188225225Y-72425632D01*
X188291745Y-72400821D01*
X188300734Y-72400500D01*
X188369748Y-72400500D01*
X188403316Y-72393823D01*
X188416061Y-72391288D01*
X188416062Y-72391288D01*
X188428231Y-72388867D01*
X188494552Y-72344552D01*
X188538867Y-72278231D01*
X188542288Y-72261035D01*
X188549293Y-72225816D01*
X188550500Y-72219748D01*
X188550500Y-71621037D01*
X188550745Y-71615382D01*
X188550637Y-71615377D01*
X188550755Y-71612646D01*
X188550989Y-71609945D01*
X188550989Y-70815574D01*
X188568668Y-70755364D01*
X188567149Y-70754560D01*
X188571289Y-70746743D01*
X188571772Y-70745947D01*
X188577146Y-70738672D01*
X188578455Y-70734947D01*
X188578978Y-70734085D01*
X188579265Y-70733670D01*
X188579268Y-70733665D01*
X188584620Y-70725920D01*
X188589474Y-70710574D01*
X188611165Y-70641986D01*
X188612418Y-70638230D01*
X188622031Y-70610858D01*
X188622174Y-70607225D01*
X188622231Y-70606999D01*
X188623304Y-70603605D01*
X188625469Y-70596759D01*
X188625659Y-70594341D01*
X188638545Y-70569469D01*
X188625989Y-70528516D01*
X188625989Y-70512609D01*
X188626086Y-70507662D01*
X188626861Y-70487933D01*
X188627350Y-70475495D01*
X188626084Y-70470721D01*
X188625989Y-70468992D01*
X188625989Y-69163304D01*
X188645991Y-69095183D01*
X188662894Y-69074209D01*
X189449698Y-68287405D01*
X189512010Y-68253379D01*
X189538793Y-68250500D01*
X190785962Y-68250500D01*
X190854083Y-68270502D01*
G37*
%TD.AperFunction*%
%TD*%
M02*
