%TF.GenerationSoftware,KiCad,Pcbnew,(6.0.1)*%
%TF.CreationDate,2022-11-26T20:31:09+08:00*%
%TF.ProjectId,IMU_base_V7,494d555f-6261-4736-955f-56372e6b6963,rev?*%
%TF.SameCoordinates,Original*%
%TF.FileFunction,Paste,Bot*%
%TF.FilePolarity,Positive*%
%FSLAX46Y46*%
G04 Gerber Fmt 4.6, Leading zero omitted, Abs format (unit mm)*
G04 Created by KiCad (PCBNEW (6.0.1)) date 2022-11-26 20:31:09*
%MOMM*%
%LPD*%
G01*
G04 APERTURE LIST*
G04 Aperture macros list*
%AMRoundRect*
0 Rectangle with rounded corners*
0 $1 Rounding radius*
0 $2 $3 $4 $5 $6 $7 $8 $9 X,Y pos of 4 corners*
0 Add a 4 corners polygon primitive as box body*
4,1,4,$2,$3,$4,$5,$6,$7,$8,$9,$2,$3,0*
0 Add four circle primitives for the rounded corners*
1,1,$1+$1,$2,$3*
1,1,$1+$1,$4,$5*
1,1,$1+$1,$6,$7*
1,1,$1+$1,$8,$9*
0 Add four rect primitives between the rounded corners*
20,1,$1+$1,$2,$3,$4,$5,0*
20,1,$1+$1,$4,$5,$6,$7,0*
20,1,$1+$1,$6,$7,$8,$9,0*
20,1,$1+$1,$8,$9,$2,$3,0*%
G04 Aperture macros list end*
%ADD10RoundRect,0.105000X-0.175000X-0.415000X0.175000X-0.415000X0.175000X0.415000X-0.175000X0.415000X0*%
%ADD11RoundRect,0.000000X-0.425000X-0.340000X0.425000X-0.340000X0.425000X0.340000X-0.425000X0.340000X0*%
%ADD12RoundRect,0.000000X0.506410X0.077128X-0.186410X0.477128X-0.506410X-0.077128X0.186410X-0.477128X0*%
%ADD13R,0.300000X1.300000*%
%ADD14R,1.800000X2.200000*%
%ADD15RoundRect,0.000000X0.340000X-0.425000X0.340000X0.425000X-0.340000X0.425000X-0.340000X-0.425000X0*%
%ADD16RoundRect,0.000000X-0.340000X0.425000X-0.340000X-0.425000X0.340000X-0.425000X0.340000X0.425000X0*%
%ADD17RoundRect,0.000000X0.495000X-0.787500X0.495000X0.787500X-0.495000X0.787500X-0.495000X-0.787500X0*%
%ADD18RoundRect,0.000000X0.400000X0.320000X-0.400000X0.320000X-0.400000X-0.320000X0.400000X-0.320000X0*%
%ADD19RoundRect,0.000000X-0.400000X-0.320000X0.400000X-0.320000X0.400000X0.320000X-0.400000X0.320000X0*%
%ADD20RoundRect,0.000000X0.056569X0.509117X-0.509117X-0.056569X-0.056569X-0.509117X0.509117X0.056569X0*%
%ADD21RoundRect,0.000000X-0.297500X-0.170000X0.297500X-0.170000X0.297500X0.170000X-0.297500X0.170000X0*%
%ADD22RoundRect,0.000000X0.248000X0.480000X-0.248000X0.480000X-0.248000X-0.480000X0.248000X-0.480000X0*%
%ADD23RoundRect,0.000000X0.263500X0.552500X-0.263500X0.552500X-0.263500X-0.552500X0.263500X-0.552500X0*%
%ADD24RoundRect,0.000000X0.807500X1.381250X-0.807500X1.381250X-0.807500X-1.381250X0.807500X-1.381250X0*%
%ADD25RoundRect,0.000000X0.800000X0.800000X-0.800000X0.800000X-0.800000X-0.800000X0.800000X-0.800000X0*%
%ADD26RoundRect,0.000000X0.425000X0.340000X-0.425000X0.340000X-0.425000X-0.340000X0.425000X-0.340000X0*%
%ADD27RoundRect,0.000000X-0.495000X0.787500X-0.495000X-0.787500X0.495000X-0.787500X0.495000X0.787500X0*%
G04 APERTURE END LIST*
D10*
%TO.C,L1*%
X185550000Y-59500000D03*
X187050000Y-59500000D03*
%TD*%
D11*
%TO.C,C13*%
X192350000Y-61100000D03*
X192350000Y-59500000D03*
%TD*%
D12*
%TO.C,R11*%
X200250000Y-68614360D03*
X199450000Y-70000000D03*
%TD*%
D13*
%TO.C,J5*%
X194700000Y-71550000D03*
X194200000Y-71550000D03*
X193700000Y-71550000D03*
X193200000Y-71550000D03*
X192700000Y-71550000D03*
X192200000Y-71550000D03*
X191700000Y-71550000D03*
X191200000Y-71550000D03*
X190700000Y-71550000D03*
X190200000Y-71550000D03*
X189700000Y-71550000D03*
X189200000Y-71550000D03*
X188700000Y-71550000D03*
X188200000Y-71550000D03*
D14*
X196600000Y-74800000D03*
X186300000Y-74800000D03*
%TD*%
D15*
%TO.C,C3*%
X202150000Y-82500000D03*
X200550000Y-82500000D03*
%TD*%
D16*
%TO.C,C8*%
X192550000Y-63800000D03*
X194150000Y-63800000D03*
%TD*%
D17*
%TO.C,C7*%
X178050000Y-72000000D03*
X181250000Y-72000000D03*
%TD*%
D18*
%TO.C,R3*%
X195650000Y-80300000D03*
X195650000Y-81900000D03*
%TD*%
D19*
%TO.C,R5*%
X181800000Y-63300000D03*
X181800000Y-61700000D03*
%TD*%
D20*
%TO.C,R1*%
X200468630Y-79568630D03*
X201600000Y-80700000D03*
%TD*%
D21*
%TO.C,U3*%
X187500000Y-61650000D03*
X187500000Y-62300000D03*
X187500000Y-62950000D03*
X187500000Y-63600000D03*
X185000000Y-63600000D03*
X185000000Y-62950000D03*
X185000000Y-62300000D03*
X185000000Y-61650000D03*
%TD*%
D22*
%TO.C,U1*%
X195850000Y-63900000D03*
D23*
X197350000Y-63850000D03*
D24*
X197350000Y-61525000D03*
D22*
X198850000Y-63900000D03*
%TD*%
D18*
%TO.C,R8*%
X188900000Y-61000000D03*
X188900000Y-59400000D03*
%TD*%
D25*
%TO.C,D1*%
X176000000Y-75800000D03*
X181250000Y-75800000D03*
%TD*%
D19*
%TO.C,R4*%
X188900000Y-64000000D03*
X188900000Y-62400000D03*
%TD*%
D26*
%TO.C,C11*%
X183500000Y-63300000D03*
X183500000Y-61700000D03*
%TD*%
D27*
%TO.C,C10*%
X181600000Y-65400000D03*
X184800000Y-65400000D03*
%TD*%
D11*
%TO.C,C12*%
X190600000Y-61000000D03*
X190600000Y-59400000D03*
%TD*%
D19*
%TO.C,R9*%
X190600000Y-62300000D03*
X190600000Y-63900000D03*
%TD*%
D15*
%TO.C,C9*%
X199050000Y-65600000D03*
X197450000Y-65600000D03*
%TD*%
M02*
