%TF.GenerationSoftware,KiCad,Pcbnew,(6.0.1)*%
%TF.CreationDate,2022-07-23T16:31:21+08:00*%
%TF.ProjectId,IMU_base_V7,494d555f-6261-4736-955f-56372e6b6963,rev?*%
%TF.SameCoordinates,Original*%
%TF.FileFunction,Soldermask,Bot*%
%TF.FilePolarity,Negative*%
%FSLAX46Y46*%
G04 Gerber Fmt 4.6, Leading zero omitted, Abs format (unit mm)*
G04 Created by KiCad (PCBNEW (6.0.1)) date 2022-07-23 16:31:21*
%MOMM*%
%LPD*%
G01*
G04 APERTURE LIST*
G04 Aperture macros list*
%AMRoundRect*
0 Rectangle with rounded corners*
0 $1 Rounding radius*
0 $2 $3 $4 $5 $6 $7 $8 $9 X,Y pos of 4 corners*
0 Add a 4 corners polygon primitive as box body*
4,1,4,$2,$3,$4,$5,$6,$7,$8,$9,$2,$3,0*
0 Add four circle primitives for the rounded corners*
1,1,$1+$1,$2,$3*
1,1,$1+$1,$4,$5*
1,1,$1+$1,$6,$7*
1,1,$1+$1,$8,$9*
0 Add four rect primitives between the rounded corners*
20,1,$1+$1,$2,$3,$4,$5,0*
20,1,$1+$1,$4,$5,$6,$7,0*
20,1,$1+$1,$6,$7,$8,$9,0*
20,1,$1+$1,$8,$9,$2,$3,0*%
G04 Aperture macros list end*
%ADD10C,0.350000*%
%ADD11RoundRect,0.105000X0.820000X0.495000X-0.820000X0.495000X-0.820000X-0.495000X0.820000X-0.495000X0*%
%ADD12RoundRect,0.175000X0.900000X0.900000X-0.900000X0.900000X-0.900000X-0.900000X0.900000X-0.900000X0*%
%ADD13R,3.800000X3.800000*%
%ADD14C,3.800000*%
%ADD15RoundRect,0.090000X0.460000X0.360000X-0.460000X0.360000X-0.460000X-0.360000X0.460000X-0.360000X0*%
%ADD16RoundRect,0.105000X0.495000X-0.820000X0.495000X0.820000X-0.495000X0.820000X-0.495000X-0.820000X0*%
%ADD17RoundRect,0.090000X-0.460000X-0.360000X0.460000X-0.360000X0.460000X0.360000X-0.460000X0.360000X0*%
%ADD18RoundRect,0.090000X0.360000X-0.460000X0.360000X0.460000X-0.360000X0.460000X-0.360000X-0.460000X0*%
%ADD19RoundRect,0.035000X0.090000X0.740000X-0.090000X0.740000X-0.090000X-0.740000X0.090000X-0.740000X0*%
%ADD20RoundRect,0.140000X0.810000X1.360000X-0.810000X1.360000X-0.810000X-1.360000X0.810000X-1.360000X0*%
%ADD21RoundRect,0.140000X-0.540000X1.740000X-0.540000X-1.740000X0.540000X-1.740000X0.540000X1.740000X0*%
%ADD22RoundRect,0.081000X0.569000X-0.279000X0.569000X0.279000X-0.569000X0.279000X-0.569000X-0.279000X0*%
%ADD23RoundRect,0.081000X0.619000X-0.279000X0.619000X0.279000X-0.619000X0.279000X-0.619000X-0.279000X0*%
%ADD24RoundRect,0.145000X1.530000X-0.855000X1.530000X0.855000X-1.530000X0.855000X-1.530000X-0.855000X0*%
%ADD25RoundRect,0.077500X-0.322500X-0.247500X0.322500X-0.247500X0.322500X0.247500X-0.322500X0.247500X0*%
%ADD26RoundRect,0.090000X-0.360000X0.460000X-0.360000X-0.460000X0.360000X-0.460000X0.360000X0.460000X0*%
%ADD27RoundRect,0.090000X-0.218372X-0.541769X0.578372X-0.081769X0.218372X0.541769X-0.578372X0.081769X0*%
G04 APERTURE END LIST*
D10*
X115250000Y-79050000D02*
X115150000Y-78950000D01*
X114950000Y-79450000D02*
X114850000Y-79350000D01*
X114367517Y-72474709D02*
X114467517Y-72374709D01*
X113750000Y-72150000D02*
X113850000Y-72050000D01*
X113350000Y-71950000D02*
X113450000Y-71850000D01*
X112850000Y-71850000D02*
X112950000Y-71750000D01*
X112250000Y-71750000D02*
X112350000Y-71650000D01*
X111700000Y-71600000D02*
X111800000Y-71500000D01*
D11*
%TO.C,\u4FDD\u9669\u4E1D1*%
X104600000Y-79600000D03*
X104600000Y-82800000D03*
%TD*%
D12*
%TO.C,D1*%
X104800000Y-69900000D03*
X99550000Y-69900000D03*
%TD*%
D13*
%TO.C,+*%
X105800000Y-86100000D03*
D14*
X110800000Y-86100000D03*
%TD*%
D15*
%TO.C,C3*%
X123700000Y-78500000D03*
X123700000Y-76900000D03*
%TD*%
D16*
%TO.C,C7*%
X105250000Y-73000000D03*
X102050000Y-73000000D03*
%TD*%
D17*
%TO.C,C9*%
X124733700Y-69500000D03*
X124733700Y-67900000D03*
%TD*%
D18*
%TO.C,C11*%
X110700000Y-63700000D03*
X109100000Y-63700000D03*
%TD*%
D19*
%TO.C,J5*%
X115650000Y-73987300D03*
X115150000Y-73987300D03*
X114650000Y-73987300D03*
X114150000Y-73987300D03*
X113650000Y-73987300D03*
X113150000Y-73987300D03*
X112650000Y-73987300D03*
X112150000Y-73987300D03*
X111650000Y-73987300D03*
X111150000Y-73987300D03*
X110650000Y-73987300D03*
X110150000Y-73987300D03*
X109650000Y-73987300D03*
X109150000Y-73987300D03*
D20*
X107100000Y-76607300D03*
X117700000Y-76607300D03*
%TD*%
D15*
%TO.C,C12*%
X112600000Y-66750000D03*
X112600000Y-68350000D03*
%TD*%
D17*
%TO.C,C13*%
X114350000Y-65400000D03*
X114350000Y-63800000D03*
%TD*%
D21*
%TO.C,L1*%
X111200000Y-60250000D03*
X114600000Y-60250000D03*
%TD*%
D15*
%TO.C,R1*%
X123700000Y-74000000D03*
X123700000Y-75600000D03*
%TD*%
D22*
%TO.C,U1*%
X120358700Y-67500000D03*
D23*
X120408700Y-66000000D03*
D24*
X122733700Y-66000000D03*
D22*
X120358700Y-64500000D03*
%TD*%
D25*
%TO.C,U3*%
X111050000Y-65550000D03*
X111050000Y-66500000D03*
X111050000Y-67450000D03*
X108550000Y-67450000D03*
X108550000Y-66500000D03*
X108550000Y-65550000D03*
%TD*%
D26*
%TO.C,R3*%
X106900000Y-69000000D03*
X108500000Y-69000000D03*
%TD*%
D17*
%TO.C,C8*%
X118533700Y-66600000D03*
X118533700Y-65000000D03*
%TD*%
D15*
%TO.C,R5*%
X112650000Y-63800000D03*
X112650000Y-65400000D03*
%TD*%
D27*
%TO.C,R9*%
X119500000Y-74800000D03*
X120300000Y-76185640D03*
%TD*%
D15*
%TO.C,R6*%
X114350000Y-66750000D03*
X114350000Y-68350000D03*
%TD*%
D11*
%TO.C,C10*%
X106800000Y-64000000D03*
X106800000Y-67200000D03*
%TD*%
M02*
