%TF.GenerationSoftware,KiCad,Pcbnew,(6.0.1)*%
%TF.CreationDate,2022-07-23T16:31:21+08:00*%
%TF.ProjectId,IMU_base_V7,494d555f-6261-4736-955f-56372e6b6963,rev?*%
%TF.SameCoordinates,Original*%
%TF.FileFunction,Soldermask,Top*%
%TF.FilePolarity,Negative*%
%FSLAX46Y46*%
G04 Gerber Fmt 4.6, Leading zero omitted, Abs format (unit mm)*
G04 Created by KiCad (PCBNEW (6.0.1)) date 2022-07-23 16:31:21*
%MOMM*%
%LPD*%
G01*
G04 APERTURE LIST*
G04 Aperture macros list*
%AMRoundRect*
0 Rectangle with rounded corners*
0 $1 Rounding radius*
0 $2 $3 $4 $5 $6 $7 $8 $9 X,Y pos of 4 corners*
0 Add a 4 corners polygon primitive as box body*
4,1,4,$2,$3,$4,$5,$6,$7,$8,$9,$2,$3,0*
0 Add four circle primitives for the rounded corners*
1,1,$1+$1,$2,$3*
1,1,$1+$1,$4,$5*
1,1,$1+$1,$6,$7*
1,1,$1+$1,$8,$9*
0 Add four rect primitives between the rounded corners*
20,1,$1+$1,$2,$3,$4,$5,0*
20,1,$1+$1,$4,$5,$6,$7,0*
20,1,$1+$1,$6,$7,$8,$9,0*
20,1,$1+$1,$8,$9,$2,$3,0*%
%AMFreePoly0*
4,1,35,0.475355,0.560355,0.685355,0.350355,0.700000,0.315000,0.700000,-0.472500,0.699039,-0.482254,0.695043,-0.502345,0.687577,-0.520370,0.676196,-0.537402,0.662402,-0.551196,0.645370,-0.562577,0.627345,-0.570043,0.607254,-0.574039,0.597500,-0.575000,-0.597500,-0.575000,-0.607254,-0.574039,-0.627345,-0.570043,-0.645370,-0.562577,-0.662402,-0.551196,-0.676196,-0.537402,-0.687577,-0.520370,
-0.695043,-0.502345,-0.699039,-0.482254,-0.700000,-0.472500,-0.700000,0.472500,-0.699039,0.482254,-0.695043,0.502345,-0.687577,0.520370,-0.676196,0.537402,-0.662402,0.551196,-0.645370,0.562577,-0.627345,0.570043,-0.607254,0.574039,-0.597500,0.575000,0.440000,0.575000,0.475355,0.560355,0.475355,0.560355,$1*%
G04 Aperture macros list end*
%ADD10RoundRect,0.080000X0.470000X0.270000X-0.470000X0.270000X-0.470000X-0.270000X0.470000X-0.270000X0*%
%ADD11RoundRect,0.090000X-0.360000X0.460000X-0.360000X-0.460000X0.360000X-0.460000X0.360000X0.460000X0*%
%ADD12RoundRect,0.080000X-0.820000X-0.270000X0.820000X-0.270000X0.820000X0.270000X-0.820000X0.270000X0*%
%ADD13RoundRect,0.100000X-1.350000X-0.450000X1.350000X-0.450000X1.350000X0.450000X-1.350000X0.450000X0*%
%ADD14RoundRect,0.090000X-0.460000X-0.360000X0.460000X-0.360000X0.460000X0.360000X-0.460000X0.360000X0*%
%ADD15RoundRect,0.090000X0.360000X-0.460000X0.360000X0.460000X-0.360000X0.460000X-0.360000X-0.460000X0*%
%ADD16RoundRect,0.120000X0.630000X0.730000X-0.630000X0.730000X-0.630000X-0.730000X0.630000X-0.730000X0*%
%ADD17RoundRect,0.080000X0.820000X0.270000X-0.820000X0.270000X-0.820000X-0.270000X0.820000X-0.270000X0*%
%ADD18RoundRect,0.100000X1.350000X0.450000X-1.350000X0.450000X-1.350000X-0.450000X1.350000X-0.450000X0*%
%ADD19R,3.800000X3.800000*%
%ADD20C,3.800000*%
%ADD21RoundRect,0.102500X0.472500X-0.597500X0.472500X0.597500X-0.472500X0.597500X-0.472500X-0.597500X0*%
%ADD22FreePoly0,90.000000*%
%ADD23RoundRect,0.090000X0.460000X0.360000X-0.460000X0.360000X-0.460000X-0.360000X0.460000X-0.360000X0*%
%ADD24RoundRect,0.065000X0.410000X0.135000X-0.410000X0.135000X-0.410000X-0.135000X0.410000X-0.135000X0*%
%ADD25RoundRect,0.065000X-0.135000X0.410000X-0.135000X-0.410000X0.135000X-0.410000X0.135000X0.410000X0*%
G04 APERTURE END LIST*
D10*
%TO.C,U4*%
X105400000Y-79210000D03*
X105400000Y-77940000D03*
X105400000Y-76670000D03*
X105400000Y-75400000D03*
X110800000Y-75400000D03*
X110800000Y-76670000D03*
X110800000Y-77940000D03*
X110800000Y-79210000D03*
%TD*%
D11*
%TO.C,C5*%
X123900000Y-72300000D03*
X122300000Y-72300000D03*
%TD*%
%TO.C,D3*%
X130350000Y-68950000D03*
X128750000Y-68950000D03*
%TD*%
%TO.C,C2*%
X113600000Y-80100000D03*
X112000000Y-80100000D03*
%TD*%
D12*
%TO.C,J4*%
X126250000Y-76825000D03*
X126250000Y-78075000D03*
X126250000Y-79325000D03*
X126250000Y-80575000D03*
D13*
X129600000Y-82425000D03*
X129600000Y-74975000D03*
%TD*%
D14*
%TO.C,R8*%
X103800000Y-78100000D03*
X103800000Y-76500000D03*
%TD*%
D11*
%TO.C,R7*%
X126900000Y-69000000D03*
X125300000Y-69000000D03*
%TD*%
D15*
%TO.C,C6*%
X121700000Y-81200000D03*
X123300000Y-81200000D03*
%TD*%
D12*
%TO.C,J3*%
X126250000Y-63950000D03*
X126250000Y-65200000D03*
D13*
X129600000Y-67050000D03*
X129600000Y-62100000D03*
%TD*%
D15*
%TO.C,C1*%
X121700000Y-82800000D03*
X123300000Y-82800000D03*
%TD*%
D16*
%TO.C,SW1*%
X119550000Y-86600000D03*
X116050000Y-86600000D03*
%TD*%
D15*
%TO.C,R4*%
X118700000Y-82800000D03*
X120300000Y-82800000D03*
%TD*%
D17*
%TO.C,SW*%
X102000000Y-67875000D03*
X102000000Y-66625000D03*
X102000000Y-65375000D03*
X102000000Y-64125000D03*
D18*
X98650000Y-62275000D03*
X98650000Y-69725000D03*
%TD*%
D19*
%TO.C,+*%
X105800000Y-86100000D03*
D20*
X110800000Y-86100000D03*
%TD*%
D21*
%TO.C,X1*%
X127600000Y-73200000D03*
X127600000Y-71000000D03*
X129150000Y-71000000D03*
D22*
X129150000Y-73200000D03*
%TD*%
D14*
%TO.C,C15*%
X123700000Y-74400000D03*
X123700000Y-76000000D03*
%TD*%
D15*
%TO.C,D2*%
X98550000Y-82050000D03*
X100150000Y-82050000D03*
%TD*%
%TO.C,R2*%
X101550000Y-82000000D03*
X103150000Y-82000000D03*
%TD*%
D11*
%TO.C,C4*%
X114000000Y-71700000D03*
X112400000Y-71700000D03*
%TD*%
D17*
%TO.C,CAN*%
X101850000Y-78025000D03*
X101850000Y-76775000D03*
D18*
X98500000Y-79875000D03*
X98500000Y-74925000D03*
%TD*%
D23*
%TO.C,C14*%
X123700000Y-77500000D03*
X123700000Y-79100000D03*
%TD*%
D24*
%TO.C,U2*%
X122150000Y-79050000D03*
X122150000Y-78550000D03*
X122150000Y-78050000D03*
X122150000Y-77550000D03*
X122150000Y-77050000D03*
X122150000Y-76550000D03*
X122150000Y-76050000D03*
X122150000Y-75550000D03*
X122150000Y-75050000D03*
X122150000Y-74550000D03*
X122150000Y-74050000D03*
X122150000Y-73550000D03*
D25*
X120650000Y-72050000D03*
X120150000Y-72050000D03*
X119650000Y-72050000D03*
X119150000Y-72050000D03*
X118650000Y-72050000D03*
X118150000Y-72050000D03*
X117650000Y-72050000D03*
X117150000Y-72050000D03*
X116650000Y-72050000D03*
X116150000Y-72050000D03*
X115650000Y-72050000D03*
X115150000Y-72050000D03*
D24*
X113650000Y-73550000D03*
X113650000Y-74050000D03*
X113650000Y-74550000D03*
X113650000Y-75050000D03*
X113650000Y-75550000D03*
X113650000Y-76050000D03*
X113650000Y-76550000D03*
X113650000Y-77050000D03*
X113650000Y-77550000D03*
X113650000Y-78050000D03*
X113650000Y-78550000D03*
X113650000Y-79050000D03*
D25*
X115150000Y-80550000D03*
X115650000Y-80550000D03*
X116150000Y-80550000D03*
X116650000Y-80550000D03*
X117150000Y-80550000D03*
X117650000Y-80550000D03*
X118150000Y-80550000D03*
X118650000Y-80550000D03*
X119150000Y-80550000D03*
X119650000Y-80550000D03*
X120150000Y-80550000D03*
X120650000Y-80550000D03*
%TD*%
M02*
