%TF.GenerationSoftware,KiCad,Pcbnew,(6.0.1)*%
%TF.CreationDate,2022-07-23T16:31:21+08:00*%
%TF.ProjectId,IMU_base_V7,494d555f-6261-4736-955f-56372e6b6963,rev?*%
%TF.SameCoordinates,Original*%
%TF.FileFunction,Copper,L2,Bot*%
%TF.FilePolarity,Positive*%
%FSLAX46Y46*%
G04 Gerber Fmt 4.6, Leading zero omitted, Abs format (unit mm)*
G04 Created by KiCad (PCBNEW (6.0.1)) date 2022-07-23 16:31:21*
%MOMM*%
%LPD*%
G01*
G04 APERTURE LIST*
G04 Aperture macros list*
%AMRoundRect*
0 Rectangle with rounded corners*
0 $1 Rounding radius*
0 $2 $3 $4 $5 $6 $7 $8 $9 X,Y pos of 4 corners*
0 Add a 4 corners polygon primitive as box body*
4,1,4,$2,$3,$4,$5,$6,$7,$8,$9,$2,$3,0*
0 Add four circle primitives for the rounded corners*
1,1,$1+$1,$2,$3*
1,1,$1+$1,$4,$5*
1,1,$1+$1,$6,$7*
1,1,$1+$1,$8,$9*
0 Add four rect primitives between the rounded corners*
20,1,$1+$1,$2,$3,$4,$5,0*
20,1,$1+$1,$4,$5,$6,$7,0*
20,1,$1+$1,$6,$7,$8,$9,0*
20,1,$1+$1,$8,$9,$2,$3,0*%
G04 Aperture macros list end*
%TA.AperFunction,SMDPad,CuDef*%
%ADD10RoundRect,0.055000X0.820000X0.495000X-0.820000X0.495000X-0.820000X-0.495000X0.820000X-0.495000X0*%
%TD*%
%TA.AperFunction,SMDPad,CuDef*%
%ADD11RoundRect,0.100000X0.900000X0.900000X-0.900000X0.900000X-0.900000X-0.900000X0.900000X-0.900000X0*%
%TD*%
%TA.AperFunction,ComponentPad*%
%ADD12R,3.800000X3.800000*%
%TD*%
%TA.AperFunction,ComponentPad*%
%ADD13C,3.800000*%
%TD*%
%TA.AperFunction,SMDPad,CuDef*%
%ADD14RoundRect,0.040000X0.460000X0.360000X-0.460000X0.360000X-0.460000X-0.360000X0.460000X-0.360000X0*%
%TD*%
%TA.AperFunction,SMDPad,CuDef*%
%ADD15RoundRect,0.055000X0.495000X-0.820000X0.495000X0.820000X-0.495000X0.820000X-0.495000X-0.820000X0*%
%TD*%
%TA.AperFunction,SMDPad,CuDef*%
%ADD16RoundRect,0.040000X-0.460000X-0.360000X0.460000X-0.360000X0.460000X0.360000X-0.460000X0.360000X0*%
%TD*%
%TA.AperFunction,SMDPad,CuDef*%
%ADD17RoundRect,0.040000X0.360000X-0.460000X0.360000X0.460000X-0.360000X0.460000X-0.360000X-0.460000X0*%
%TD*%
%TA.AperFunction,SMDPad,CuDef*%
%ADD18RoundRect,0.010000X0.090000X0.740000X-0.090000X0.740000X-0.090000X-0.740000X0.090000X-0.740000X0*%
%TD*%
%TA.AperFunction,SMDPad,CuDef*%
%ADD19RoundRect,0.090000X0.810000X1.360000X-0.810000X1.360000X-0.810000X-1.360000X0.810000X-1.360000X0*%
%TD*%
%TA.AperFunction,SMDPad,CuDef*%
%ADD20RoundRect,0.060000X-0.540000X1.740000X-0.540000X-1.740000X0.540000X-1.740000X0.540000X1.740000X0*%
%TD*%
%TA.AperFunction,SMDPad,CuDef*%
%ADD21RoundRect,0.031000X0.569000X-0.279000X0.569000X0.279000X-0.569000X0.279000X-0.569000X-0.279000X0*%
%TD*%
%TA.AperFunction,SMDPad,CuDef*%
%ADD22RoundRect,0.031000X0.619000X-0.279000X0.619000X0.279000X-0.619000X0.279000X-0.619000X-0.279000X0*%
%TD*%
%TA.AperFunction,SMDPad,CuDef*%
%ADD23RoundRect,0.095000X1.530000X-0.855000X1.530000X0.855000X-1.530000X0.855000X-1.530000X-0.855000X0*%
%TD*%
%TA.AperFunction,SMDPad,CuDef*%
%ADD24RoundRect,0.027500X-0.322500X-0.247500X0.322500X-0.247500X0.322500X0.247500X-0.322500X0.247500X0*%
%TD*%
%TA.AperFunction,SMDPad,CuDef*%
%ADD25RoundRect,0.040000X-0.360000X0.460000X-0.360000X-0.460000X0.360000X-0.460000X0.360000X0.460000X0*%
%TD*%
%TA.AperFunction,SMDPad,CuDef*%
%ADD26RoundRect,0.040000X-0.218372X-0.541769X0.578372X-0.081769X0.218372X0.541769X-0.578372X0.081769X0*%
%TD*%
%TA.AperFunction,ViaPad*%
%ADD27C,0.800000*%
%TD*%
%TA.AperFunction,ViaPad*%
%ADD28C,0.600000*%
%TD*%
%TA.AperFunction,ViaPad*%
%ADD29C,0.400000*%
%TD*%
%TA.AperFunction,ViaPad*%
%ADD30C,0.500000*%
%TD*%
%TA.AperFunction,ViaPad*%
%ADD31C,4.000000*%
%TD*%
%TA.AperFunction,ViaPad*%
%ADD32C,0.350000*%
%TD*%
%TA.AperFunction,Conductor*%
%ADD33C,0.400000*%
%TD*%
%TA.AperFunction,Conductor*%
%ADD34C,0.250000*%
%TD*%
%TA.AperFunction,Conductor*%
%ADD35C,0.350000*%
%TD*%
%TA.AperFunction,Conductor*%
%ADD36C,0.300000*%
%TD*%
%TA.AperFunction,Conductor*%
%ADD37C,0.450000*%
%TD*%
%TA.AperFunction,Conductor*%
%ADD38C,0.500000*%
%TD*%
%TA.AperFunction,Conductor*%
%ADD39C,1.000000*%
%TD*%
%TA.AperFunction,Conductor*%
%ADD40C,0.800000*%
%TD*%
G04 APERTURE END LIST*
D10*
%TO.P,\u4FDD\u9669\u4E1D1,1*%
%TO.N,+24V*%
X104600000Y-79600000D03*
%TO.P,\u4FDD\u9669\u4E1D1,2*%
X104600000Y-82800000D03*
%TD*%
D11*
%TO.P,D1,1,Cathode*%
%TO.N,+24V*%
X104800000Y-69900000D03*
%TO.P,D1,2,Anode*%
%TO.N,GND*%
X99550000Y-69900000D03*
%TD*%
D12*
%TO.P,+,1*%
%TO.N,+24V*%
X105800000Y-86100000D03*
D13*
%TO.P,+,2*%
%TO.N,GND*%
X110800000Y-86100000D03*
%TD*%
D14*
%TO.P,C3,2*%
%TO.N,GND*%
X123700000Y-78500000D03*
%TO.P,C3,1*%
%TO.N,/RESET*%
X123700000Y-76900000D03*
%TD*%
D15*
%TO.P,C7,1*%
%TO.N,+24V*%
X105250000Y-73000000D03*
%TO.P,C7,2*%
%TO.N,GND*%
X102050000Y-73000000D03*
%TD*%
D16*
%TO.P,C9,1*%
%TO.N,GND*%
X124733700Y-69500000D03*
%TO.P,C9,2*%
%TO.N,+3V3*%
X124733700Y-67900000D03*
%TD*%
D17*
%TO.P,C11,1*%
%TO.N,Net-(C11-Pad1)*%
X110700000Y-63700000D03*
%TO.P,C11,2*%
%TO.N,Net-(C11-Pad2)*%
X109100000Y-63700000D03*
%TD*%
D18*
%TO.P,J5,1*%
%TO.N,GNDPWR*%
X115650000Y-73987300D03*
%TO.P,J5,2*%
X115150000Y-73987300D03*
%TO.P,J5,3*%
%TO.N,+5V*%
X114650000Y-73987300D03*
%TO.P,J5,4*%
X114150000Y-73987300D03*
%TO.P,J5,5*%
%TO.N,/TIM10_CH1*%
X113650000Y-73987300D03*
%TO.P,J5,6*%
%TO.N,/SPI1_MISO*%
X113150000Y-73987300D03*
%TO.P,J5,7*%
%TO.N,/SPI1_MOSI*%
X112650000Y-73987300D03*
%TO.P,J5,8*%
%TO.N,/INT1_Gyro*%
X112150000Y-73987300D03*
%TO.P,J5,9*%
%TO.N,/INT1_Acce1*%
X111650000Y-73987300D03*
%TO.P,J5,10*%
%TO.N,/CS1_Gyro*%
X111150000Y-73987300D03*
%TO.P,J5,11*%
%TO.N,/CS1_Acce1*%
X110650000Y-73987300D03*
%TO.P,J5,12*%
%TO.N,/SPI1_CLK*%
X110150000Y-73987300D03*
%TO.P,J5,13*%
%TO.N,GND*%
X109650000Y-73987300D03*
%TO.P,J5,14*%
%TO.N,+3V3*%
X109150000Y-73987300D03*
D19*
%TO.P,J5,MP*%
%TO.N,N/C*%
X107100000Y-76607300D03*
X117700000Y-76607300D03*
%TD*%
D14*
%TO.P,C12,1*%
%TO.N,Net-(C12-Pad1)*%
X112600000Y-66750000D03*
%TO.P,C12,2*%
%TO.N,GND*%
X112600000Y-68350000D03*
%TD*%
D16*
%TO.P,C13,1*%
%TO.N,GND*%
X114350000Y-65400000D03*
%TO.P,C13,2*%
%TO.N,+5V*%
X114350000Y-63800000D03*
%TD*%
D20*
%TO.P,L1,1*%
%TO.N,Net-(C11-Pad2)*%
X111200000Y-60250000D03*
%TO.P,L1,2*%
%TO.N,+5V*%
X114600000Y-60250000D03*
%TD*%
D14*
%TO.P,R1,1*%
%TO.N,+3V3*%
X123700000Y-74000000D03*
%TO.P,R1,2*%
%TO.N,/RESET*%
X123700000Y-75600000D03*
%TD*%
D21*
%TO.P,U1,1,GND*%
%TO.N,GND*%
X120358700Y-67500000D03*
D22*
%TO.P,U1,2,VOUT*%
%TO.N,+3V3*%
X120408700Y-66000000D03*
D23*
X122733700Y-66000000D03*
D21*
%TO.P,U1,3,VIN*%
%TO.N,+5V*%
X120358700Y-64500000D03*
%TD*%
D24*
%TO.P,U3,1,BST*%
%TO.N,Net-(C11-Pad1)*%
X111050000Y-65550000D03*
%TO.P,U3,2,GND*%
%TO.N,GND*%
X111050000Y-66500000D03*
%TO.P,U3,3,FB*%
%TO.N,Net-(C12-Pad1)*%
X111050000Y-67450000D03*
%TO.P,U3,4,EN*%
%TO.N,Net-(R3-Pad2)*%
X108550000Y-67450000D03*
%TO.P,U3,5,VIN*%
%TO.N,+24V*%
X108550000Y-66500000D03*
%TO.P,U3,6,SW*%
%TO.N,Net-(C11-Pad2)*%
X108550000Y-65550000D03*
%TD*%
D25*
%TO.P,R3,1*%
%TO.N,+24V*%
X106900000Y-69000000D03*
%TO.P,R3,2*%
%TO.N,Net-(R3-Pad2)*%
X108500000Y-69000000D03*
%TD*%
D16*
%TO.P,C8,1*%
%TO.N,GND*%
X118533700Y-66600000D03*
%TO.P,C8,2*%
%TO.N,+5V*%
X118533700Y-65000000D03*
%TD*%
D14*
%TO.P,R5,1*%
%TO.N,+5V*%
X112650000Y-63800000D03*
%TO.P,R5,2*%
%TO.N,Net-(C12-Pad1)*%
X112650000Y-65400000D03*
%TD*%
D26*
%TO.P,R9,2*%
%TO.N,GNDPWR*%
X119500000Y-74800000D03*
%TO.P,R9,1*%
%TO.N,GND*%
X120300000Y-76185640D03*
%TD*%
D14*
%TO.P,R6,1*%
%TO.N,Net-(C12-Pad1)*%
X114350000Y-66750000D03*
%TO.P,R6,2*%
%TO.N,GND*%
X114350000Y-68350000D03*
%TD*%
D10*
%TO.P,C10,1*%
%TO.N,GND*%
X106800000Y-64000000D03*
%TO.P,C10,2*%
%TO.N,+24V*%
X106800000Y-67200000D03*
%TD*%
D27*
%TO.N,GND*%
X123800000Y-78800000D03*
X129100000Y-80500000D03*
X129100000Y-79500000D03*
X129200000Y-78600000D03*
X129200000Y-77600000D03*
X123700000Y-82400000D03*
X123800000Y-81300000D03*
X126300000Y-81300000D03*
X125500000Y-82300000D03*
X125400000Y-81200000D03*
D28*
X119200000Y-76700000D03*
X119200000Y-77300000D03*
X119200000Y-77900000D03*
D27*
X110200000Y-77700000D03*
X112600000Y-78600000D03*
X111100000Y-77800000D03*
X106500000Y-79100000D03*
X98000000Y-76500000D03*
X97900000Y-77400000D03*
X98100000Y-78400000D03*
X98900000Y-78400000D03*
X98800000Y-77500000D03*
X98900000Y-76600000D03*
X102900000Y-79100000D03*
X125500000Y-70600000D03*
X124700000Y-70600000D03*
X127400000Y-67100000D03*
X127500000Y-66000000D03*
%TO.N,+3V3*%
X121100000Y-66000000D03*
X123100000Y-67000000D03*
X123000000Y-66200000D03*
X123100000Y-65300000D03*
X124000000Y-67000000D03*
X124000000Y-66100000D03*
X124000000Y-65300000D03*
%TO.N,GND*%
X126600000Y-67000000D03*
X126600000Y-66100000D03*
X122100000Y-57900000D03*
X122100000Y-58900000D03*
X121000000Y-61200000D03*
X120100000Y-61200000D03*
X119200000Y-61200000D03*
X118300000Y-61200000D03*
X117500000Y-61100000D03*
X116600000Y-61100000D03*
X116600000Y-60300000D03*
X116600000Y-59500000D03*
X116700000Y-58700000D03*
X116700000Y-57900000D03*
X109900000Y-58200000D03*
X109900000Y-59000000D03*
X109800000Y-59800000D03*
%TO.N,+5V*%
X115300000Y-58300000D03*
X114500000Y-58300000D03*
X113600000Y-61300000D03*
X113600000Y-60400000D03*
X113700000Y-59600000D03*
X113700000Y-58800000D03*
%TO.N,GND*%
X109200000Y-60400000D03*
X108500000Y-61000000D03*
X107000000Y-58600000D03*
X107000000Y-59700000D03*
X107600000Y-64900000D03*
X106700000Y-65200000D03*
X110100000Y-64800000D03*
X110000000Y-66000000D03*
X103000000Y-69800000D03*
X102900000Y-70800000D03*
X102800000Y-71600000D03*
X102900000Y-72600000D03*
%TO.N,+24V*%
X104000000Y-83700000D03*
X106400000Y-83700000D03*
X105600000Y-83700000D03*
X104800000Y-83700000D03*
%TO.N,GND*%
X122400000Y-84100000D03*
X121600000Y-84100000D03*
X120700000Y-78300000D03*
D28*
X119100000Y-78800000D03*
D27*
%TO.N,GNDPWR*%
X117600000Y-73700000D03*
X116700000Y-73700000D03*
%TO.N,GND*%
X111400000Y-70900000D03*
D28*
%TO.N,+3V3*%
X109947361Y-79846003D03*
%TO.N,GND*%
X128800000Y-71300000D03*
X127900000Y-72600000D03*
X128400000Y-72100000D03*
D27*
X129500000Y-70700000D03*
X127200000Y-73425980D03*
X124900000Y-73700000D03*
X109300000Y-76500000D03*
X109600000Y-72200000D03*
D28*
%TO.N,+3V3*%
X113600000Y-80100000D03*
D29*
%TO.N,/CAN_H*%
X127000000Y-82700000D03*
%TO.N,/CAN_L*%
X126431262Y-82510420D03*
X121500000Y-85200000D03*
%TO.N,/CAN_H*%
X120800000Y-84643376D03*
D27*
%TO.N,GND*%
X120300000Y-83900000D03*
D29*
%TO.N,/CAN_L*%
X108182448Y-80775500D03*
X106500000Y-80775500D03*
%TO.N,/CAN_H*%
X108249500Y-80176260D03*
X106277350Y-80218876D03*
D27*
%TO.N,+24V*%
X122200000Y-80000000D03*
D28*
%TO.N,GND*%
X112000000Y-79200000D03*
D27*
%TO.N,+3V3*%
X121200000Y-75100000D03*
D30*
%TO.N,Net-(J3-Pad1)*%
X111400689Y-69300689D03*
X110600000Y-71800000D03*
D27*
%TO.N,+3V3*%
X122950000Y-71100000D03*
X103400000Y-67900000D03*
X104800000Y-65100000D03*
D31*
%TO.N,*%
X128799600Y-85244206D03*
X99509600Y-58344206D03*
X99509600Y-85244206D03*
X128809600Y-58344206D03*
D27*
%TO.N,+3V3*%
X108550000Y-74100000D03*
X122250000Y-62150000D03*
D28*
X120150000Y-79200000D03*
D32*
%TO.N,GND*%
X122700000Y-80850000D03*
D27*
X99000000Y-67850000D03*
X115400000Y-68300000D03*
X120100000Y-58850000D03*
X116250000Y-68000000D03*
X119300000Y-67250000D03*
X99200000Y-73400000D03*
X99100000Y-65950000D03*
D32*
X122700000Y-81350000D03*
D27*
X106065266Y-58643548D03*
X110800000Y-68700000D03*
X118300000Y-79300000D03*
X113350000Y-86450000D03*
X108725500Y-78000000D03*
X113250000Y-85500000D03*
X99200000Y-72350000D03*
X105050000Y-59650000D03*
X105050000Y-58700000D03*
X113000000Y-87300000D03*
X99100000Y-65050000D03*
X98850000Y-81100000D03*
X106100000Y-59700000D03*
X120100000Y-57950000D03*
X99100000Y-66850000D03*
X121143135Y-57942197D03*
X121150000Y-58900000D03*
X113100000Y-84650000D03*
D30*
%TO.N,+5V*%
X112488479Y-75511521D03*
D28*
%TO.N,/RESET*%
X121000000Y-77400000D03*
D29*
X124650000Y-82500000D03*
%TO.N,/SWDIO*%
X107150000Y-71700000D03*
X110450000Y-80600000D03*
%TO.N,/SWCLK*%
X100400000Y-81000000D03*
X114900000Y-81138644D03*
%TO.N,/TIM10_CH1*%
X119650000Y-72950000D03*
%TO.N,/INT1_Acce1*%
X120800000Y-70850000D03*
%TO.N,/INT1_Gyro*%
X120195836Y-70833796D03*
%TO.N,/SPI1_CLK*%
X119600695Y-70905980D03*
%TO.N,/SPI1_MISO*%
X119000497Y-70900000D03*
%TO.N,/SPI1_MOSI*%
X118400994Y-70900000D03*
%TO.N,/CS1_Acce1*%
X116355761Y-79653770D03*
%TO.N,/CS1_Gyro*%
X115854122Y-79325500D03*
%TD*%
D33*
%TO.N,GND*%
X123700000Y-78700000D02*
X123800000Y-78800000D01*
X123700000Y-78500000D02*
X123700000Y-78700000D01*
D34*
%TO.N,/CAN_L*%
X123782141Y-85200000D02*
X121500000Y-85200000D01*
X126431262Y-82510420D02*
X126431262Y-82550879D01*
X126431262Y-82550879D02*
X123782141Y-85200000D01*
%TO.N,/CAN_H*%
X120800000Y-85241772D02*
X120800000Y-84643376D01*
X121282739Y-85724511D02*
X120800000Y-85241772D01*
X127000000Y-82700000D02*
X123975489Y-85724511D01*
X123975489Y-85724511D02*
X121282739Y-85724511D01*
D33*
%TO.N,GND*%
X112000000Y-78700000D02*
X111100000Y-77800000D01*
X112000000Y-79200000D02*
X112000000Y-78700000D01*
X112600000Y-69700000D02*
X111400000Y-70900000D01*
X112600000Y-68350000D02*
X112600000Y-69700000D01*
D34*
%TO.N,Net-(J3-Pad1)*%
X110600000Y-70101378D02*
X110600000Y-71800000D01*
X111400689Y-69300689D02*
X110600000Y-70101378D01*
D33*
%TO.N,+3V3*%
X113400000Y-79900000D02*
X113600000Y-80100000D01*
X110001358Y-79900000D02*
X113400000Y-79900000D01*
X109947361Y-79846003D02*
X110001358Y-79900000D01*
D34*
%TO.N,/SWDIO*%
X107150000Y-73901081D02*
X107150000Y-71750000D01*
X109450011Y-78300103D02*
X109450011Y-77674625D01*
X108324520Y-75075601D02*
X107150000Y-73901081D01*
X109200000Y-78550114D02*
X109450011Y-78300103D01*
X108324520Y-76549134D02*
X108324520Y-75075601D01*
X109200000Y-80200000D02*
X109200000Y-78550114D01*
X109450011Y-77674625D02*
X108324520Y-76549134D01*
X109600000Y-80600000D02*
X109200000Y-80200000D01*
X110450000Y-80600000D02*
X109600000Y-80600000D01*
D35*
%TO.N,GND*%
X109674520Y-76125480D02*
X109674520Y-73987300D01*
D33*
X109300000Y-76500000D02*
X109674520Y-76125480D01*
D35*
X109674520Y-72274520D02*
X109674520Y-73987300D01*
D34*
X109600000Y-72200000D02*
X109674520Y-72274520D01*
D33*
%TO.N,+3V3*%
X118975480Y-80374520D02*
X119125000Y-80225000D01*
D36*
X119125000Y-80225000D02*
X119050000Y-80300000D01*
D33*
X120150000Y-79200000D02*
X119125000Y-80225000D01*
X113600000Y-80100000D02*
X113874520Y-80374520D01*
X113874520Y-80374520D02*
X118975480Y-80374520D01*
D34*
%TO.N,/SWCLK*%
X100700000Y-81300000D02*
X100400000Y-81000000D01*
X114900000Y-81138644D02*
X114738644Y-81300000D01*
X114738644Y-81300000D02*
X100700000Y-81300000D01*
%TO.N,/CAN_L*%
X106500000Y-80775500D02*
X108182448Y-80775500D01*
%TO.N,/CAN_H*%
X108206884Y-80218876D02*
X108249500Y-80176260D01*
X106277350Y-80218876D02*
X108206884Y-80218876D01*
D33*
%TO.N,+24V*%
X120300480Y-81899520D02*
X122200000Y-80000000D01*
X105500480Y-81899520D02*
X120300480Y-81899520D01*
X104600000Y-82800000D02*
X105500480Y-81899520D01*
%TO.N,+3V3*%
X123700000Y-74000000D02*
X122600000Y-75100000D01*
X122600000Y-75100000D02*
X121200000Y-75100000D01*
D37*
%TO.N,+5V*%
X118391327Y-72574520D02*
X118074520Y-72574520D01*
X120125489Y-73574511D02*
X119391318Y-73574511D01*
X119391318Y-73574511D02*
X118391327Y-72574520D01*
X121800000Y-71900000D02*
X120125489Y-73574511D01*
D34*
%TO.N,/RESET*%
X121500000Y-76900000D02*
X121000000Y-77400000D01*
X123700000Y-76900000D02*
X121500000Y-76900000D01*
D38*
%TO.N,+5V*%
X116400000Y-65250000D02*
X114950000Y-63800000D01*
X119081922Y-68801929D02*
X116400000Y-66120007D01*
X121451929Y-68801929D02*
X119081922Y-68801929D01*
X116400000Y-66120007D02*
X116400000Y-65250000D01*
X121800000Y-71900000D02*
X121900000Y-71800000D01*
X121900000Y-69250000D02*
X121451929Y-68801929D01*
X121900000Y-71800000D02*
X121900000Y-69250000D01*
D39*
%TO.N,+24V*%
X104600000Y-73650000D02*
X105250000Y-73000000D01*
X104600000Y-79600000D02*
X104600000Y-73650000D01*
D33*
%TO.N,+5V*%
X112500000Y-75500000D02*
X112488479Y-75511521D01*
X113950000Y-75500000D02*
X112500000Y-75500000D01*
%TO.N,+3V3*%
X122950000Y-73250000D02*
X123700000Y-74000000D01*
X122950000Y-71100000D02*
X122950000Y-73250000D01*
X104800000Y-66500000D02*
X103400000Y-67900000D01*
X104800000Y-65100000D02*
X104800000Y-66500000D01*
X124733700Y-67900000D02*
X122950000Y-69683700D01*
X122950000Y-69683700D02*
X122950000Y-71100000D01*
X122250000Y-62150000D02*
X124733700Y-64633700D01*
X124733700Y-64633700D02*
X124733700Y-67900000D01*
D34*
X108662700Y-73987300D02*
X108550000Y-74100000D01*
D33*
X109150000Y-73987300D02*
X108662700Y-73987300D01*
D38*
%TO.N,GND*%
X110200000Y-68100000D02*
X110800000Y-68700000D01*
X110200000Y-67100000D02*
X110200000Y-68100000D01*
X110800000Y-66500000D02*
X110200000Y-67100000D01*
X111050000Y-66500000D02*
X110800000Y-66500000D01*
D34*
%TO.N,+24V*%
X105800000Y-85900000D02*
X104500000Y-84600000D01*
X105800000Y-85900000D02*
X104800000Y-84900000D01*
D40*
%TO.N,+5V*%
X118533700Y-65000000D02*
X119858700Y-65000000D01*
D39*
X114350000Y-63800000D02*
X114950000Y-63800000D01*
D33*
X114150000Y-73987300D02*
X114150000Y-75300000D01*
D34*
X114150000Y-73987300D02*
X114150000Y-73550000D01*
D37*
X115150000Y-72550000D02*
X117950000Y-72550000D01*
D33*
X114400000Y-73300000D02*
X114650000Y-73550000D01*
D39*
X117333700Y-63800000D02*
X118533700Y-65000000D01*
D34*
X114650000Y-73550000D02*
X114650000Y-73987300D01*
D40*
X119858700Y-65000000D02*
X120358700Y-64500000D01*
D33*
X114150000Y-73550000D02*
X114400000Y-73300000D01*
D37*
X114400000Y-73300000D02*
X115150000Y-72550000D01*
D33*
X114150000Y-75300000D02*
X113950000Y-75500000D01*
D39*
X114350000Y-63800000D02*
X117333700Y-63800000D01*
D34*
%TO.N,/RESET*%
X124350000Y-75600000D02*
X124500000Y-75750000D01*
X124350000Y-76900000D02*
X123700000Y-76900000D01*
X123700000Y-75600000D02*
X124350000Y-75600000D01*
X124500000Y-76750000D02*
X124350000Y-76900000D01*
X123700000Y-77164491D02*
X123700000Y-76900000D01*
X124500000Y-75750000D02*
X124500000Y-76750000D01*
X124650000Y-78114491D02*
X123700000Y-77164491D01*
X124650000Y-82500000D02*
X124650000Y-78114491D01*
%TO.N,Net-(C11-Pad1)*%
X111050000Y-65550000D02*
X111050000Y-64050000D01*
X111050000Y-64050000D02*
X110700000Y-63700000D01*
D38*
%TO.N,Net-(C11-Pad2)*%
X111200000Y-60250000D02*
X109100000Y-62350000D01*
X109100000Y-65000000D02*
X108550000Y-65550000D01*
X109100000Y-62350000D02*
X109100000Y-63700000D01*
X109100000Y-63700000D02*
X109100000Y-65000000D01*
D34*
%TO.N,Net-(C12-Pad1)*%
X113500000Y-65700000D02*
X113500000Y-66150000D01*
X113650000Y-67450000D02*
X114350000Y-66750000D01*
X113500000Y-66150000D02*
X112900000Y-66750000D01*
X112950000Y-67450000D02*
X113650000Y-67450000D01*
X112600000Y-67100000D02*
X112950000Y-67450000D01*
X111900000Y-67450000D02*
X112600000Y-66750000D01*
X112600000Y-66750000D02*
X112600000Y-67100000D01*
X111050000Y-67450000D02*
X111900000Y-67450000D01*
X113200000Y-65400000D02*
X113500000Y-65700000D01*
X112900000Y-66750000D02*
X112600000Y-66750000D01*
X112650000Y-65400000D02*
X113200000Y-65400000D01*
%TO.N,Net-(R3-Pad2)*%
X109350000Y-68750000D02*
X109100000Y-69000000D01*
X108550000Y-67450000D02*
X109150000Y-67450000D01*
X109100000Y-69000000D02*
X108500000Y-69000000D01*
X109350000Y-67650000D02*
X109350000Y-68750000D01*
X109150000Y-67450000D02*
X109350000Y-67650000D01*
D38*
%TO.N,GNDPWR*%
X115650000Y-74450000D02*
X115650000Y-73987300D01*
D33*
X115400000Y-74700000D02*
X115650000Y-74450000D01*
X115150000Y-74450000D02*
X115400000Y-74700000D01*
X115150000Y-73987300D02*
X115150000Y-74450000D01*
D34*
%TO.N,/TIM10_CH1*%
X118700000Y-72000000D02*
X114834218Y-72000000D01*
X113650000Y-73184218D02*
X113650000Y-73987300D01*
X119650000Y-72950000D02*
X118700000Y-72000000D01*
X114834218Y-72000000D02*
X113650000Y-73184218D01*
%TO.N,/INT1_Acce1*%
X111650000Y-73987300D02*
X111650000Y-72378566D01*
X114102597Y-69925969D02*
X120125969Y-69925969D01*
X120125969Y-69925969D02*
X120800000Y-70600000D01*
X111650000Y-72378566D02*
X114102597Y-69925969D01*
X120800000Y-70600000D02*
X120800000Y-70850000D01*
%TO.N,/INT1_Gyro*%
X114213803Y-70450480D02*
X118108742Y-70450480D01*
X120195836Y-70759349D02*
X120195836Y-70833796D01*
X118108742Y-70450480D02*
X118183733Y-70375489D01*
X112150000Y-73987300D02*
X112150000Y-72514283D01*
X119811976Y-70375489D02*
X120195836Y-70759349D01*
X118183733Y-70375489D02*
X119811976Y-70375489D01*
X112150000Y-72514283D02*
X114213803Y-70450480D01*
%TO.N,/SPI1_CLK*%
X120312167Y-69476449D02*
X121324511Y-70488793D01*
X121324511Y-71075489D02*
X121025489Y-71374511D01*
X110150000Y-73184218D02*
X113857769Y-69476449D01*
X121025489Y-71374511D02*
X119994779Y-71374511D01*
X121324511Y-70488793D02*
X121324511Y-71075489D01*
X110150000Y-73987300D02*
X110150000Y-73184218D01*
X119600695Y-70980427D02*
X119600695Y-70905980D01*
X113857769Y-69476449D02*
X120312167Y-69476449D01*
X119994779Y-71374511D02*
X119600695Y-70980427D01*
%TO.N,/SPI1_MISO*%
X118618255Y-71424511D02*
X119000497Y-71042269D01*
X113150000Y-73987300D02*
X113150000Y-72785718D01*
X114511207Y-71424511D02*
X118618255Y-71424511D01*
X119000497Y-71042269D02*
X119000497Y-70900000D01*
X113150000Y-72785718D02*
X114511207Y-71424511D01*
%TO.N,/SPI1_MOSI*%
X112650000Y-72650000D02*
X112650000Y-73987300D01*
X118400994Y-70900000D02*
X114400000Y-70900000D01*
X114400000Y-70900000D02*
X112650000Y-72650000D01*
%TO.N,/CS1_Acce1*%
X116355761Y-79694239D02*
X116200000Y-79850000D01*
X115378773Y-79850000D02*
X110650000Y-75121227D01*
X110650000Y-75121227D02*
X110650000Y-73987300D01*
X116355761Y-79653770D02*
X116355761Y-79694239D01*
X116200000Y-79850000D02*
X115378773Y-79850000D01*
%TO.N,/CS1_Gyro*%
X115854122Y-79325500D02*
X115489991Y-79325500D01*
X111150000Y-74985509D02*
X111150000Y-73987300D01*
X115489991Y-79325500D02*
X111150000Y-74985509D01*
%TD*%
%TA.AperFunction,Conductor*%
%TO.N,+3V3*%
G36*
X125592772Y-64821323D02*
G01*
X125640485Y-64873896D01*
X125653068Y-64925787D01*
X125699531Y-66830738D01*
X125699788Y-66841288D01*
X125699010Y-66858660D01*
X125540446Y-68246095D01*
X125514019Y-68477333D01*
X125486412Y-68542742D01*
X125427824Y-68582842D01*
X125377075Y-68588476D01*
X124005396Y-68459881D01*
X123939440Y-68433608D01*
X123898158Y-68375847D01*
X123891558Y-68344479D01*
X123801445Y-67218058D01*
X123801445Y-67218057D01*
X123800000Y-67200000D01*
X121510360Y-67033481D01*
X121443870Y-67008591D01*
X121412473Y-66967471D01*
X121409517Y-66969137D01*
X121405302Y-66961656D01*
X121402139Y-66953668D01*
X121312771Y-66835929D01*
X121195032Y-66746561D01*
X121187051Y-66743401D01*
X121187049Y-66743400D01*
X121155379Y-66730861D01*
X121129615Y-66720661D01*
X121073643Y-66676987D01*
X121059845Y-66634106D01*
X121055104Y-66635498D01*
X121050000Y-66618115D01*
X121050000Y-66600000D01*
X121039173Y-66592782D01*
X121039172Y-66592781D01*
X120914456Y-66509637D01*
X120914455Y-66509637D01*
X120900000Y-66500000D01*
X120233297Y-66473332D01*
X119778757Y-66455150D01*
X119711490Y-66432442D01*
X119667179Y-66376971D01*
X119658038Y-66321391D01*
X119676287Y-66029410D01*
X119700500Y-65962670D01*
X119756951Y-65919615D01*
X119807207Y-65911669D01*
X119810890Y-65912252D01*
X119817477Y-65911907D01*
X119817482Y-65911907D01*
X119879180Y-65908673D01*
X119885774Y-65908500D01*
X119906310Y-65908500D01*
X119909582Y-65908156D01*
X119909584Y-65908156D01*
X119926742Y-65906353D01*
X119933316Y-65905836D01*
X119995008Y-65902603D01*
X119995012Y-65902602D01*
X120001603Y-65902257D01*
X120007984Y-65900547D01*
X120007986Y-65900547D01*
X120015191Y-65898617D01*
X120034625Y-65895015D01*
X120042054Y-65894234D01*
X120042063Y-65894232D01*
X120048628Y-65893542D01*
X120113697Y-65872400D01*
X120119999Y-65870533D01*
X120186070Y-65852829D01*
X120198608Y-65846440D01*
X120216874Y-65838875D01*
X120223972Y-65836569D01*
X120223974Y-65836568D01*
X120230256Y-65834527D01*
X120289485Y-65800331D01*
X120295279Y-65797185D01*
X120356230Y-65766129D01*
X120367167Y-65757273D01*
X120383463Y-65746073D01*
X120389924Y-65742343D01*
X120389928Y-65742340D01*
X120395644Y-65739040D01*
X120400550Y-65734623D01*
X120400555Y-65734619D01*
X120446469Y-65693278D01*
X120451484Y-65688994D01*
X120464877Y-65678148D01*
X120467441Y-65676072D01*
X120481956Y-65661557D01*
X120486741Y-65657016D01*
X120532657Y-65615673D01*
X120537566Y-65611253D01*
X120545840Y-65599865D01*
X120558681Y-65584832D01*
X120788108Y-65355405D01*
X120850420Y-65321379D01*
X120877203Y-65318500D01*
X120969614Y-65318500D01*
X121017163Y-65312746D01*
X121049560Y-65308826D01*
X121049562Y-65308826D01*
X121057599Y-65307853D01*
X121195032Y-65253439D01*
X121312771Y-65164071D01*
X121402139Y-65046332D01*
X121430798Y-64973949D01*
X121474473Y-64917975D01*
X121545052Y-64894367D01*
X124308356Y-64830842D01*
X125524209Y-64802892D01*
X125592772Y-64821323D01*
G37*
%TD.AperFunction*%
%TD*%
%TA.AperFunction,Conductor*%
%TO.N,+24V*%
G36*
X107861911Y-66194372D02*
G01*
X107875955Y-66203623D01*
X107955057Y-66263666D01*
X107955061Y-66263668D01*
X107961902Y-66268861D01*
X108098444Y-66322922D01*
X108106481Y-66323895D01*
X108106483Y-66323895D01*
X108138770Y-66327802D01*
X108185859Y-66333500D01*
X108549711Y-66333500D01*
X108914140Y-66333499D01*
X109001556Y-66322922D01*
X109001629Y-66323528D01*
X109066759Y-66325931D01*
X109125029Y-66366491D01*
X109152120Y-66432116D01*
X109151721Y-66462088D01*
X109137579Y-66568158D01*
X109108750Y-66633038D01*
X109049420Y-66672032D01*
X108997548Y-66676593D01*
X108914141Y-66666500D01*
X108550289Y-66666500D01*
X108185860Y-66666501D01*
X108147102Y-66671191D01*
X108106473Y-66676106D01*
X108106469Y-66676107D01*
X108098444Y-66677078D01*
X108090927Y-66680054D01*
X108090924Y-66680055D01*
X108053236Y-66694977D01*
X107961902Y-66731139D01*
X107955061Y-66736332D01*
X107955057Y-66736334D01*
X107882883Y-66791118D01*
X107844928Y-66819928D01*
X107839736Y-66826768D01*
X107761334Y-66930057D01*
X107761332Y-66930061D01*
X107756139Y-66936902D01*
X107702078Y-67073444D01*
X107691500Y-67160859D01*
X107691500Y-67164648D01*
X107691501Y-67732386D01*
X107671499Y-67800507D01*
X107620391Y-67845802D01*
X107617871Y-67847021D01*
X107600000Y-67850000D01*
X107566070Y-70191158D01*
X107555629Y-70911608D01*
X107534642Y-70979432D01*
X107480318Y-71025142D01*
X107409905Y-71034227D01*
X107398947Y-71031986D01*
X107246822Y-70993775D01*
X107246818Y-70993775D01*
X107239451Y-70991924D01*
X107231852Y-70991884D01*
X107231850Y-70991884D01*
X107160394Y-70991510D01*
X107067969Y-70991026D01*
X107060589Y-70992798D01*
X107060587Y-70992798D01*
X106908602Y-71029286D01*
X106908598Y-71029287D01*
X106901223Y-71031058D01*
X106748839Y-71109709D01*
X106619615Y-71222439D01*
X106521010Y-71362739D01*
X106503020Y-71408882D01*
X106498211Y-71421215D01*
X106454830Y-71477416D01*
X106432997Y-71486649D01*
X106434100Y-71488888D01*
X106417846Y-71496896D01*
X106400000Y-71500000D01*
X106400806Y-71510480D01*
X106400806Y-71510481D01*
X106516129Y-73009677D01*
X106516500Y-73019341D01*
X106516500Y-73822314D01*
X106515973Y-73833497D01*
X106514298Y-73840990D01*
X106514547Y-73848916D01*
X106514547Y-73848917D01*
X106516438Y-73909067D01*
X106516500Y-73913026D01*
X106516500Y-73940937D01*
X106516997Y-73944871D01*
X106516997Y-73944872D01*
X106517005Y-73944937D01*
X106517938Y-73956778D01*
X106518355Y-73970040D01*
X106500503Y-74038756D01*
X106448335Y-74086912D01*
X106392417Y-74100000D01*
X104320071Y-74100000D01*
X104251950Y-74079998D01*
X104205457Y-74026342D01*
X104194750Y-73987063D01*
X103807007Y-70267222D01*
X103823209Y-70191160D01*
X103834527Y-70171556D01*
X103893542Y-69989928D01*
X103913504Y-69800000D01*
X103893542Y-69610072D01*
X103834527Y-69428444D01*
X103739040Y-69263056D01*
X103734620Y-69258147D01*
X103734617Y-69258143D01*
X103690059Y-69208657D01*
X103658800Y-69141000D01*
X103625726Y-68892946D01*
X103636550Y-68822781D01*
X103683590Y-68769604D01*
X103699372Y-68761188D01*
X103850722Y-68693803D01*
X103850724Y-68693802D01*
X103856752Y-68691118D01*
X104011253Y-68578866D01*
X104139040Y-68436944D01*
X104234527Y-68271556D01*
X104293542Y-68089928D01*
X104298450Y-68043230D01*
X104325463Y-67977573D01*
X104334665Y-67967305D01*
X105280520Y-67021450D01*
X105286785Y-67015596D01*
X105310377Y-66995015D01*
X105330385Y-66977561D01*
X105367129Y-66925280D01*
X105371061Y-66919986D01*
X105405791Y-66875693D01*
X105410476Y-66869718D01*
X105413599Y-66862802D01*
X105414983Y-66860516D01*
X105423357Y-66845835D01*
X105424622Y-66843475D01*
X105428990Y-66837261D01*
X105432222Y-66828973D01*
X105452202Y-66777725D01*
X105454759Y-66771642D01*
X105473048Y-66731139D01*
X105481045Y-66713427D01*
X105482429Y-66705960D01*
X105483230Y-66703405D01*
X105487859Y-66687152D01*
X105488522Y-66684572D01*
X105491282Y-66677491D01*
X105499622Y-66614139D01*
X105500653Y-66607632D01*
X105510912Y-66552280D01*
X105512296Y-66544814D01*
X105508709Y-66482608D01*
X105508500Y-66475354D01*
X105508500Y-66455418D01*
X105528502Y-66387297D01*
X105537704Y-66374755D01*
X105564914Y-66342103D01*
X105623890Y-66302576D01*
X105654721Y-66296960D01*
X107792786Y-66178179D01*
X107861911Y-66194372D01*
G37*
%TD.AperFunction*%
%TD*%
%TA.AperFunction,Conductor*%
%TO.N,+5V*%
G36*
X115488025Y-57921246D02*
G01*
X115535581Y-57973961D01*
X115548023Y-58030494D01*
X115451880Y-64375909D01*
X115430848Y-64443719D01*
X115376494Y-64489393D01*
X115325894Y-64500000D01*
X114930446Y-64500000D01*
X114915309Y-64499087D01*
X114913541Y-64498873D01*
X114852614Y-64491500D01*
X113847386Y-64491500D01*
X113786459Y-64498873D01*
X113784691Y-64499087D01*
X113769554Y-64500000D01*
X113230446Y-64500000D01*
X113215309Y-64499087D01*
X113213541Y-64498873D01*
X113152614Y-64491500D01*
X112147386Y-64491500D01*
X112086459Y-64498873D01*
X112084691Y-64499087D01*
X112069554Y-64500000D01*
X111809500Y-64500000D01*
X111741379Y-64479998D01*
X111694886Y-64426342D01*
X111683500Y-64374000D01*
X111683500Y-64128768D01*
X111684027Y-64117585D01*
X111685702Y-64110092D01*
X111683562Y-64042001D01*
X111683500Y-64038044D01*
X111683500Y-64010144D01*
X111682996Y-64006153D01*
X111682063Y-63994311D01*
X111680923Y-63958036D01*
X111680674Y-63950111D01*
X111678462Y-63942497D01*
X111678461Y-63942492D01*
X111675023Y-63930659D01*
X111671012Y-63911295D01*
X111669467Y-63899064D01*
X111668474Y-63891203D01*
X111665557Y-63883836D01*
X111665556Y-63883831D01*
X111652198Y-63850092D01*
X111648354Y-63838865D01*
X111638230Y-63804022D01*
X111636018Y-63796407D01*
X111631980Y-63789579D01*
X111626047Y-63779546D01*
X111608500Y-63715407D01*
X111608500Y-63197386D01*
X111600913Y-63134691D01*
X111600000Y-63119554D01*
X111600000Y-62877873D01*
X111620002Y-62809752D01*
X111669651Y-62765175D01*
X113083798Y-62058101D01*
X113100000Y-62050000D01*
X113051525Y-58075011D01*
X113070695Y-58006652D01*
X113123780Y-57959508D01*
X113174997Y-57947500D01*
X113495643Y-57941087D01*
X115419518Y-57902610D01*
X115488025Y-57921246D01*
G37*
%TD.AperFunction*%
%TD*%
%TA.AperFunction,Conductor*%
%TO.N,+24V*%
G36*
X106755946Y-82020002D02*
G01*
X106802439Y-82073658D01*
X106812543Y-82143932D01*
X106798023Y-82182635D01*
X106799354Y-82183250D01*
X106795590Y-82191397D01*
X106790707Y-82198930D01*
X106788135Y-82207530D01*
X106783361Y-82223493D01*
X106776699Y-82240939D01*
X106765801Y-82264151D01*
X106764420Y-82273024D01*
X106761258Y-82293331D01*
X106757474Y-82310052D01*
X106751586Y-82329739D01*
X106751585Y-82329742D01*
X106749013Y-82338344D01*
X106748958Y-82347319D01*
X106748958Y-82347320D01*
X106748803Y-82372749D01*
X106748770Y-82373531D01*
X106748600Y-82374626D01*
X106748600Y-82405501D01*
X106748598Y-82406271D01*
X106748124Y-82483855D01*
X106748508Y-82485199D01*
X106748600Y-82486544D01*
X106748600Y-83700901D01*
X106748598Y-83701671D01*
X106748124Y-83779255D01*
X106750590Y-83787884D01*
X106750591Y-83787889D01*
X106756239Y-83807651D01*
X106759817Y-83824412D01*
X106762730Y-83844755D01*
X106762733Y-83844765D01*
X106764005Y-83853648D01*
X106774621Y-83876998D01*
X106781064Y-83894510D01*
X106788112Y-83919168D01*
X106803874Y-83944151D01*
X106812004Y-83959217D01*
X106824233Y-83986113D01*
X106840974Y-84005542D01*
X106852079Y-84020550D01*
X106865760Y-84042234D01*
X106872488Y-84048176D01*
X106887896Y-84061784D01*
X106899940Y-84073976D01*
X106919219Y-84096350D01*
X106926747Y-84101229D01*
X106926750Y-84101232D01*
X106940739Y-84110299D01*
X106955613Y-84121589D01*
X106974828Y-84138559D01*
X106982954Y-84142374D01*
X106982955Y-84142375D01*
X106988621Y-84145035D01*
X107001566Y-84151113D01*
X107016535Y-84159427D01*
X107041327Y-84175496D01*
X107049927Y-84178068D01*
X107065890Y-84182842D01*
X107083336Y-84189504D01*
X107106548Y-84200402D01*
X107135730Y-84204946D01*
X107152449Y-84208729D01*
X107172136Y-84214617D01*
X107172139Y-84214618D01*
X107180741Y-84217190D01*
X107189716Y-84217245D01*
X107189717Y-84217245D01*
X107196410Y-84217286D01*
X107215156Y-84217400D01*
X107215928Y-84217433D01*
X107217023Y-84217603D01*
X107247898Y-84217603D01*
X107248668Y-84217605D01*
X107322316Y-84218055D01*
X107322317Y-84218055D01*
X107326252Y-84218079D01*
X107327596Y-84217695D01*
X107328941Y-84217603D01*
X107650773Y-84217603D01*
X107718894Y-84237605D01*
X107765387Y-84291261D01*
X107776704Y-84339471D01*
X107862440Y-86954430D01*
X107891694Y-87846672D01*
X107873935Y-87915412D01*
X107821832Y-87963638D01*
X107765763Y-87976801D01*
X106409762Y-87976801D01*
X103326000Y-87976800D01*
X103257879Y-87956798D01*
X103211386Y-87903142D01*
X103200000Y-87850800D01*
X103200000Y-82126000D01*
X103220002Y-82057879D01*
X103273658Y-82011386D01*
X103326000Y-82000000D01*
X106687825Y-82000000D01*
X106755946Y-82020002D01*
G37*
%TD.AperFunction*%
%TD*%
%TA.AperFunction,Conductor*%
%TO.N,GNDPWR*%
G36*
X117900531Y-73287111D02*
G01*
X117983241Y-73307350D01*
X117988843Y-73307698D01*
X117988846Y-73307698D01*
X117992101Y-73307900D01*
X117992111Y-73307900D01*
X117994040Y-73308020D01*
X118035311Y-73308020D01*
X118103432Y-73328022D01*
X118124406Y-73344925D01*
X118190715Y-73411234D01*
X118208468Y-73433549D01*
X118500000Y-73900000D01*
X118627292Y-73900000D01*
X118695413Y-73920002D01*
X118716387Y-73936905D01*
X118826570Y-74047088D01*
X118838957Y-74061500D01*
X118851218Y-74078162D01*
X118856801Y-74082905D01*
X118890038Y-74111142D01*
X118897554Y-74118072D01*
X118902938Y-74123456D01*
X118905799Y-74125719D01*
X118905804Y-74125724D01*
X118924409Y-74140443D01*
X118927811Y-74143232D01*
X118975990Y-74184164D01*
X118975994Y-74184167D01*
X118981569Y-74188903D01*
X118988090Y-74192232D01*
X118992769Y-74195353D01*
X118997523Y-74198289D01*
X119003261Y-74202829D01*
X119009888Y-74205926D01*
X119009889Y-74205927D01*
X119067172Y-74232700D01*
X119071079Y-74234610D01*
X119133900Y-74266687D01*
X119141012Y-74268427D01*
X119146298Y-74270393D01*
X119151583Y-74272151D01*
X119158213Y-74275250D01*
X119227281Y-74289616D01*
X119231565Y-74290586D01*
X119300039Y-74307341D01*
X119305641Y-74307689D01*
X119305644Y-74307689D01*
X119310838Y-74308011D01*
X119310837Y-74308035D01*
X119315252Y-74308299D01*
X119318502Y-74308589D01*
X119325670Y-74310080D01*
X119400441Y-74308057D01*
X119403849Y-74308011D01*
X120021532Y-74308011D01*
X120089653Y-74328013D01*
X120136146Y-74381669D01*
X120142684Y-74399396D01*
X120219247Y-74667364D01*
X120291805Y-74921315D01*
X120294942Y-74932296D01*
X120299100Y-74980081D01*
X120288240Y-75083410D01*
X120261227Y-75149067D01*
X120225931Y-75179358D01*
X119410474Y-75650163D01*
X119407435Y-75652445D01*
X119400706Y-75657497D01*
X119334221Y-75682403D01*
X119264825Y-75667411D01*
X119224253Y-75632337D01*
X119133699Y-75511599D01*
X119108828Y-75445102D01*
X119108499Y-75435999D01*
X119108499Y-75208076D01*
X119093095Y-75091060D01*
X119089927Y-75083410D01*
X119035948Y-74953096D01*
X119035947Y-74953094D01*
X119032788Y-74945468D01*
X118961177Y-74852142D01*
X118941878Y-74826991D01*
X118936855Y-74820445D01*
X118811832Y-74724512D01*
X118804206Y-74721353D01*
X118804204Y-74721352D01*
X118673866Y-74667364D01*
X118673867Y-74667364D01*
X118666240Y-74664205D01*
X118658056Y-74663128D01*
X118658054Y-74663127D01*
X118553312Y-74649338D01*
X118553311Y-74649338D01*
X118549225Y-74648800D01*
X117700104Y-74648800D01*
X116850776Y-74648801D01*
X116846692Y-74649339D01*
X116846686Y-74649339D01*
X116798249Y-74655716D01*
X116733760Y-74664205D01*
X116726138Y-74667362D01*
X116726135Y-74667363D01*
X116595796Y-74721352D01*
X116595794Y-74721353D01*
X116588168Y-74724512D01*
X116463145Y-74820445D01*
X116458122Y-74826991D01*
X116458121Y-74826992D01*
X116423557Y-74872036D01*
X116366219Y-74913903D01*
X116321563Y-74921315D01*
X115381709Y-74906156D01*
X115313920Y-74885058D01*
X115268298Y-74830659D01*
X115257969Y-74772589D01*
X115258043Y-74771359D01*
X115258500Y-74767584D01*
X115258500Y-74180614D01*
X115262459Y-74149279D01*
X115269754Y-74120868D01*
X115283500Y-74067330D01*
X115283500Y-73906071D01*
X115294937Y-73853619D01*
X115294956Y-73853578D01*
X115298925Y-73847101D01*
X115351062Y-73683735D01*
X115362725Y-73512648D01*
X115353465Y-73459588D01*
X115361458Y-73389043D01*
X115388494Y-73348831D01*
X115416920Y-73320405D01*
X115479232Y-73286379D01*
X115506015Y-73283500D01*
X117870583Y-73283500D01*
X117900531Y-73287111D01*
G37*
%TD.AperFunction*%
%TD*%
%TA.AperFunction,Conductor*%
%TO.N,GND*%
G36*
X115016172Y-75304366D02*
G01*
X115030115Y-75310851D01*
X115030284Y-75310477D01*
X115060570Y-75324152D01*
X115074552Y-75331555D01*
X115096415Y-75344953D01*
X115096421Y-75344956D01*
X115102898Y-75348925D01*
X115138751Y-75360367D01*
X115152282Y-75365562D01*
X115166098Y-75371800D01*
X115186573Y-75381045D01*
X115207716Y-75384964D01*
X115222189Y-75388544D01*
X115230746Y-75391207D01*
X115235195Y-75391920D01*
X115239518Y-75392934D01*
X115249064Y-75395572D01*
X115266265Y-75401062D01*
X115273844Y-75401579D01*
X115273846Y-75401579D01*
X115303802Y-75403621D01*
X115318193Y-75405439D01*
X115347718Y-75410911D01*
X115355186Y-75412295D01*
X115359538Y-75412044D01*
X115363505Y-75412486D01*
X115365800Y-75412854D01*
X115373516Y-75414090D01*
X115378005Y-75414162D01*
X115378012Y-75414163D01*
X116167532Y-75426897D01*
X116235321Y-75447995D01*
X116280943Y-75502394D01*
X116291500Y-75552881D01*
X116291501Y-76777886D01*
X116291501Y-78006524D01*
X116292039Y-78010608D01*
X116292039Y-78010614D01*
X116298292Y-78058114D01*
X116306905Y-78123540D01*
X116310062Y-78131162D01*
X116310063Y-78131165D01*
X116343878Y-78212800D01*
X116367212Y-78269132D01*
X116463145Y-78394155D01*
X116588168Y-78490088D01*
X116595794Y-78493247D01*
X116595796Y-78493248D01*
X116604461Y-78496837D01*
X116733760Y-78550395D01*
X116741944Y-78551472D01*
X116741946Y-78551473D01*
X116846688Y-78565262D01*
X116850775Y-78565800D01*
X117699897Y-78565800D01*
X118549224Y-78565799D01*
X118553308Y-78565261D01*
X118553314Y-78565261D01*
X118601921Y-78558862D01*
X118666240Y-78550395D01*
X118673862Y-78547238D01*
X118673865Y-78547237D01*
X118804204Y-78493248D01*
X118804206Y-78493247D01*
X118811832Y-78490088D01*
X118936855Y-78394155D01*
X119032788Y-78269132D01*
X119063570Y-78194820D01*
X119089936Y-78131166D01*
X119093095Y-78123540D01*
X119094798Y-78110608D01*
X119107962Y-78010612D01*
X119107962Y-78010611D01*
X119108500Y-78006525D01*
X119108499Y-76305786D01*
X119128501Y-76237665D01*
X119182157Y-76191172D01*
X119243307Y-76180094D01*
X119371186Y-76189056D01*
X119379987Y-76187128D01*
X119379990Y-76187128D01*
X119439211Y-76174156D01*
X119512429Y-76158119D01*
X119578914Y-76133213D01*
X119582855Y-76131054D01*
X119582859Y-76131052D01*
X119650586Y-76093946D01*
X119663495Y-76088407D01*
X119664474Y-76090104D01*
X119759299Y-76035357D01*
X120368633Y-75683557D01*
X120437628Y-75666819D01*
X120504720Y-75690039D01*
X120525263Y-75708360D01*
X120588747Y-75778866D01*
X120641106Y-75816907D01*
X120730916Y-75882158D01*
X120743248Y-75891118D01*
X120749276Y-75893802D01*
X120749278Y-75893803D01*
X120840686Y-75934500D01*
X120917712Y-75968794D01*
X120999243Y-75986124D01*
X121098056Y-76007128D01*
X121098061Y-76007128D01*
X121104513Y-76008500D01*
X121295487Y-76008500D01*
X121301939Y-76007128D01*
X121301944Y-76007128D01*
X121400757Y-75986124D01*
X121482288Y-75968794D01*
X121559314Y-75934500D01*
X121650722Y-75893803D01*
X121650724Y-75893802D01*
X121656752Y-75891118D01*
X121669085Y-75882158D01*
X121737344Y-75832564D01*
X121804211Y-75808706D01*
X121811405Y-75808500D01*
X122565500Y-75808500D01*
X122633621Y-75828502D01*
X122680114Y-75882158D01*
X122691500Y-75934500D01*
X122691500Y-76002614D01*
X122702325Y-76092066D01*
X122705306Y-76099596D01*
X122707297Y-76107435D01*
X122704425Y-76108164D01*
X122709616Y-76164819D01*
X122676842Y-76227798D01*
X122615222Y-76263061D01*
X122585985Y-76266500D01*
X121578768Y-76266500D01*
X121567585Y-76265973D01*
X121560092Y-76264298D01*
X121552166Y-76264547D01*
X121552165Y-76264547D01*
X121492002Y-76266438D01*
X121488044Y-76266500D01*
X121460144Y-76266500D01*
X121456154Y-76267004D01*
X121444320Y-76267936D01*
X121400111Y-76269326D01*
X121392497Y-76271538D01*
X121392492Y-76271539D01*
X121380659Y-76274977D01*
X121361296Y-76278988D01*
X121341203Y-76281526D01*
X121333836Y-76284443D01*
X121333831Y-76284444D01*
X121300092Y-76297802D01*
X121288865Y-76301646D01*
X121246407Y-76313982D01*
X121239581Y-76318019D01*
X121228972Y-76324293D01*
X121211224Y-76332988D01*
X121192383Y-76340448D01*
X121185967Y-76345110D01*
X121185966Y-76345110D01*
X121156613Y-76366436D01*
X121146693Y-76372952D01*
X121115465Y-76391420D01*
X121115462Y-76391422D01*
X121108638Y-76395458D01*
X121094317Y-76409779D01*
X121079284Y-76422619D01*
X121062893Y-76434528D01*
X121057840Y-76440636D01*
X121034708Y-76468598D01*
X121026718Y-76477378D01*
X120938909Y-76565187D01*
X120876597Y-76599213D01*
X120862985Y-76601402D01*
X120855233Y-76602217D01*
X120832289Y-76604628D01*
X120832288Y-76604628D01*
X120825288Y-76605364D01*
X120653579Y-76663818D01*
X120647575Y-76667512D01*
X120505095Y-76755166D01*
X120505092Y-76755168D01*
X120499088Y-76758862D01*
X120494053Y-76763793D01*
X120494050Y-76763795D01*
X120374525Y-76880843D01*
X120369493Y-76885771D01*
X120271235Y-77038238D01*
X120268826Y-77044858D01*
X120268824Y-77044861D01*
X120215663Y-77190920D01*
X120209197Y-77208685D01*
X120186463Y-77388640D01*
X120204163Y-77569160D01*
X120261418Y-77741273D01*
X120265065Y-77747295D01*
X120265066Y-77747297D01*
X120338477Y-77868513D01*
X120355380Y-77896424D01*
X120360269Y-77901487D01*
X120360270Y-77901488D01*
X120437121Y-77981068D01*
X120481382Y-78026902D01*
X120551127Y-78072542D01*
X120604954Y-78107765D01*
X120633159Y-78126222D01*
X120639763Y-78128678D01*
X120639765Y-78128679D01*
X120796558Y-78186990D01*
X120796560Y-78186990D01*
X120803168Y-78189448D01*
X120886995Y-78200633D01*
X120975980Y-78212507D01*
X120975984Y-78212507D01*
X120982961Y-78213438D01*
X120989972Y-78212800D01*
X120989976Y-78212800D01*
X121132459Y-78199832D01*
X121163600Y-78196998D01*
X121170302Y-78194820D01*
X121170304Y-78194820D01*
X121329409Y-78143124D01*
X121329412Y-78143123D01*
X121336108Y-78140947D01*
X121453945Y-78070702D01*
X121485860Y-78051677D01*
X121485862Y-78051676D01*
X121491912Y-78048069D01*
X121623266Y-77922982D01*
X121723643Y-77771902D01*
X121774229Y-77638735D01*
X121783338Y-77614756D01*
X121826227Y-77558178D01*
X121892896Y-77533769D01*
X121901126Y-77533500D01*
X122696395Y-77533500D01*
X122764516Y-77553502D01*
X122796756Y-77583318D01*
X122848505Y-77651495D01*
X122968208Y-77742354D01*
X122996090Y-77753393D01*
X123100404Y-77794694D01*
X123100406Y-77794695D01*
X123107934Y-77797675D01*
X123197386Y-77808500D01*
X123395914Y-77808500D01*
X123464035Y-77828502D01*
X123485010Y-77845405D01*
X123979596Y-78339992D01*
X124013621Y-78402304D01*
X124016500Y-78429087D01*
X124016500Y-82150612D01*
X124007893Y-82196382D01*
X123958718Y-82322509D01*
X123957726Y-82330042D01*
X123957726Y-82330043D01*
X123938915Y-82472931D01*
X123936335Y-82492526D01*
X123943315Y-82555752D01*
X123947487Y-82593534D01*
X123955153Y-82662975D01*
X123957762Y-82670106D01*
X123957763Y-82670108D01*
X123972662Y-82710822D01*
X124014085Y-82824015D01*
X124018322Y-82830321D01*
X124018324Y-82830324D01*
X124054877Y-82884720D01*
X124109730Y-82966349D01*
X124236565Y-83081760D01*
X124387268Y-83163585D01*
X124553139Y-83207101D01*
X124576572Y-83207469D01*
X124644371Y-83228538D01*
X124690015Y-83282917D01*
X124699015Y-83353341D01*
X124663689Y-83422548D01*
X124109160Y-83977076D01*
X123556641Y-84529595D01*
X123494329Y-84563621D01*
X123467546Y-84566500D01*
X121849015Y-84566500D01*
X121790059Y-84551856D01*
X121755769Y-84533700D01*
X121748404Y-84531850D01*
X121596822Y-84493775D01*
X121596818Y-84493775D01*
X121589451Y-84491924D01*
X121581851Y-84491884D01*
X121574320Y-84490933D01*
X121574649Y-84488327D01*
X121518600Y-84471546D01*
X121472392Y-84417645D01*
X121469416Y-84410449D01*
X121435171Y-84319823D01*
X121432487Y-84312720D01*
X121361865Y-84209964D01*
X121339659Y-84177654D01*
X121339658Y-84177652D01*
X121335357Y-84171395D01*
X121329686Y-84166342D01*
X121212993Y-84062372D01*
X121212990Y-84062370D01*
X121207321Y-84057319D01*
X121199325Y-84053085D01*
X121062481Y-83980630D01*
X121062482Y-83980630D01*
X121055769Y-83977076D01*
X121038196Y-83972662D01*
X120896822Y-83937151D01*
X120896818Y-83937151D01*
X120889451Y-83935300D01*
X120881852Y-83935260D01*
X120881850Y-83935260D01*
X120810394Y-83934886D01*
X120717969Y-83934402D01*
X120710589Y-83936174D01*
X120710587Y-83936174D01*
X120558602Y-83972662D01*
X120558598Y-83972663D01*
X120551223Y-83974434D01*
X120398839Y-84053085D01*
X120269615Y-84165815D01*
X120171010Y-84306115D01*
X120108718Y-84465885D01*
X120107726Y-84473418D01*
X120107726Y-84473419D01*
X120088543Y-84619134D01*
X120086335Y-84635902D01*
X120105153Y-84806351D01*
X120107762Y-84813482D01*
X120107763Y-84813484D01*
X120158826Y-84953020D01*
X120166500Y-84996321D01*
X120166500Y-85163005D01*
X120165973Y-85174188D01*
X120164298Y-85181681D01*
X120164547Y-85189607D01*
X120164547Y-85189608D01*
X120166438Y-85249758D01*
X120166500Y-85253717D01*
X120166500Y-85281628D01*
X120166997Y-85285562D01*
X120166997Y-85285563D01*
X120167005Y-85285628D01*
X120167938Y-85297465D01*
X120169327Y-85341661D01*
X120174978Y-85361111D01*
X120178987Y-85380472D01*
X120181526Y-85400569D01*
X120184445Y-85407940D01*
X120184445Y-85407942D01*
X120197804Y-85441684D01*
X120201649Y-85452914D01*
X120213982Y-85495365D01*
X120218015Y-85502184D01*
X120218017Y-85502189D01*
X120224293Y-85512800D01*
X120232988Y-85530548D01*
X120240448Y-85549389D01*
X120245110Y-85555805D01*
X120245110Y-85555806D01*
X120266436Y-85585159D01*
X120272952Y-85595079D01*
X120295458Y-85633134D01*
X120309779Y-85647455D01*
X120322619Y-85662488D01*
X120334528Y-85678879D01*
X120364338Y-85703540D01*
X120368593Y-85707060D01*
X120377374Y-85715050D01*
X120779092Y-86116769D01*
X120786626Y-86125048D01*
X120790739Y-86131529D01*
X120840390Y-86178154D01*
X120843232Y-86180909D01*
X120862969Y-86200646D01*
X120866166Y-86203126D01*
X120875186Y-86210829D01*
X120907418Y-86241097D01*
X120914364Y-86244916D01*
X120914367Y-86244918D01*
X120925173Y-86250859D01*
X120941692Y-86261710D01*
X120957698Y-86274125D01*
X120964967Y-86277270D01*
X120964971Y-86277273D01*
X120998276Y-86291685D01*
X121008926Y-86296902D01*
X121047679Y-86318206D01*
X121055354Y-86320177D01*
X121055355Y-86320177D01*
X121067301Y-86323244D01*
X121086006Y-86329648D01*
X121104594Y-86337692D01*
X121112417Y-86338931D01*
X121112427Y-86338934D01*
X121148263Y-86344610D01*
X121159883Y-86347016D01*
X121191698Y-86355184D01*
X121202709Y-86358011D01*
X121222963Y-86358011D01*
X121242673Y-86359562D01*
X121262682Y-86362731D01*
X121270574Y-86361985D01*
X121289319Y-86360213D01*
X121306701Y-86358570D01*
X121318558Y-86358011D01*
X123896722Y-86358011D01*
X123907905Y-86358538D01*
X123915398Y-86360213D01*
X123923324Y-86359964D01*
X123923325Y-86359964D01*
X123983475Y-86358073D01*
X123987434Y-86358011D01*
X124015345Y-86358011D01*
X124019280Y-86357514D01*
X124019345Y-86357506D01*
X124031182Y-86356573D01*
X124063440Y-86355559D01*
X124067459Y-86355433D01*
X124075378Y-86355184D01*
X124094832Y-86349532D01*
X124114189Y-86345524D01*
X124126419Y-86343979D01*
X124126420Y-86343979D01*
X124134286Y-86342985D01*
X124141657Y-86340066D01*
X124141659Y-86340066D01*
X124175401Y-86326707D01*
X124186631Y-86322862D01*
X124221472Y-86312740D01*
X124221473Y-86312740D01*
X124229082Y-86310529D01*
X124235901Y-86306496D01*
X124235906Y-86306494D01*
X124246517Y-86300218D01*
X124264265Y-86291523D01*
X124283106Y-86284063D01*
X124318876Y-86258075D01*
X124328796Y-86251559D01*
X124360024Y-86233091D01*
X124360027Y-86233089D01*
X124366851Y-86229053D01*
X124381172Y-86214732D01*
X124396206Y-86201891D01*
X124406183Y-86194642D01*
X124412596Y-86189983D01*
X124440787Y-86155906D01*
X124448777Y-86147127D01*
X126180905Y-84414999D01*
X126243217Y-84380973D01*
X126314032Y-84386038D01*
X126370868Y-84428585D01*
X126395679Y-84495105D01*
X126389833Y-84543028D01*
X126365105Y-84619134D01*
X126305959Y-84929186D01*
X126286140Y-85244206D01*
X126305959Y-85559226D01*
X126365105Y-85869278D01*
X126462644Y-86169472D01*
X126464331Y-86173058D01*
X126464333Y-86173062D01*
X126595350Y-86451489D01*
X126595354Y-86451496D01*
X126597038Y-86455075D01*
X126766168Y-86721581D01*
X126967367Y-86964788D01*
X127197460Y-87180860D01*
X127452821Y-87366390D01*
X127729421Y-87518453D01*
X127733090Y-87519906D01*
X127733095Y-87519908D01*
X127924827Y-87595820D01*
X128022898Y-87634649D01*
X128328625Y-87713146D01*
X128412274Y-87723713D01*
X128428769Y-87725797D01*
X128493846Y-87754179D01*
X128533247Y-87813238D01*
X128534464Y-87884224D01*
X128497109Y-87944599D01*
X128433043Y-87975195D01*
X128412977Y-87976803D01*
X115298206Y-87976802D01*
X108523892Y-87976801D01*
X108455771Y-87956799D01*
X108409278Y-87903143D01*
X108398982Y-87839005D01*
X108398753Y-87838996D01*
X108398797Y-87837854D01*
X108398654Y-87836965D01*
X108399421Y-87830025D01*
X108370167Y-86937783D01*
X108351313Y-86362731D01*
X108285248Y-84347732D01*
X108303007Y-84278992D01*
X108355110Y-84230766D01*
X108411180Y-84217603D01*
X116937998Y-84217603D01*
X116938769Y-84217605D01*
X117016352Y-84218079D01*
X117024981Y-84215613D01*
X117024986Y-84215612D01*
X117044748Y-84209964D01*
X117061509Y-84206386D01*
X117081852Y-84203473D01*
X117081862Y-84203470D01*
X117090745Y-84202198D01*
X117114095Y-84191582D01*
X117131607Y-84185139D01*
X117147637Y-84180557D01*
X117156265Y-84178091D01*
X117181248Y-84162329D01*
X117196314Y-84154199D01*
X117223210Y-84141970D01*
X117242639Y-84125229D01*
X117257647Y-84114124D01*
X117271739Y-84105233D01*
X117279331Y-84100443D01*
X117298882Y-84078306D01*
X117311074Y-84066262D01*
X117326649Y-84052842D01*
X117326650Y-84052840D01*
X117333447Y-84046984D01*
X117338326Y-84039456D01*
X117338329Y-84039453D01*
X117347396Y-84025464D01*
X117358686Y-84010590D01*
X117369712Y-83998105D01*
X117375656Y-83991375D01*
X117388210Y-83964637D01*
X117396524Y-83949668D01*
X117412593Y-83924876D01*
X117419939Y-83900312D01*
X117426601Y-83882867D01*
X117433683Y-83867782D01*
X117437499Y-83859655D01*
X117442043Y-83830473D01*
X117445826Y-83813754D01*
X117451714Y-83794067D01*
X117451715Y-83794064D01*
X117454287Y-83785462D01*
X117454497Y-83751047D01*
X117454530Y-83750275D01*
X117454700Y-83749180D01*
X117454700Y-83718305D01*
X117454702Y-83717535D01*
X117455152Y-83643887D01*
X117455152Y-83643886D01*
X117455176Y-83639951D01*
X117454792Y-83638607D01*
X117454700Y-83637262D01*
X117454700Y-82734020D01*
X117474702Y-82665899D01*
X117528358Y-82619406D01*
X117580700Y-82608020D01*
X120271568Y-82608020D01*
X120280138Y-82608312D01*
X120330256Y-82611729D01*
X120330260Y-82611729D01*
X120337832Y-82612245D01*
X120345309Y-82610940D01*
X120345310Y-82610940D01*
X120371788Y-82606319D01*
X120400783Y-82601258D01*
X120407301Y-82600297D01*
X120470722Y-82592622D01*
X120477823Y-82589939D01*
X120480432Y-82589298D01*
X120496742Y-82584835D01*
X120499278Y-82584070D01*
X120506764Y-82582763D01*
X120565280Y-82557076D01*
X120571384Y-82554585D01*
X120624028Y-82534693D01*
X120624029Y-82534692D01*
X120631136Y-82532007D01*
X120637399Y-82527703D01*
X120639765Y-82526466D01*
X120654577Y-82518221D01*
X120656831Y-82516888D01*
X120663785Y-82513835D01*
X120714482Y-82474933D01*
X120719812Y-82471061D01*
X120766200Y-82439181D01*
X120766205Y-82439176D01*
X120772461Y-82434877D01*
X120813916Y-82388349D01*
X120818896Y-82383074D01*
X122266533Y-80935437D01*
X122329431Y-80901285D01*
X122345589Y-80897850D01*
X122482288Y-80868794D01*
X122500589Y-80860646D01*
X122650722Y-80793803D01*
X122650724Y-80793802D01*
X122656752Y-80791118D01*
X122811253Y-80678866D01*
X122819399Y-80669819D01*
X122934621Y-80541852D01*
X122934622Y-80541851D01*
X122939040Y-80536944D01*
X122997314Y-80436010D01*
X123031223Y-80377279D01*
X123031224Y-80377278D01*
X123034527Y-80371556D01*
X123093542Y-80189928D01*
X123113504Y-80000000D01*
X123093542Y-79810072D01*
X123034527Y-79628444D01*
X122939040Y-79463056D01*
X122811253Y-79321134D01*
X122656752Y-79208882D01*
X122650724Y-79206198D01*
X122650722Y-79206197D01*
X122488319Y-79133891D01*
X122488318Y-79133891D01*
X122482288Y-79131206D01*
X122388888Y-79111353D01*
X122301944Y-79092872D01*
X122301939Y-79092872D01*
X122295487Y-79091500D01*
X122104513Y-79091500D01*
X122098061Y-79092872D01*
X122098056Y-79092872D01*
X122011112Y-79111353D01*
X121917712Y-79131206D01*
X121911682Y-79133891D01*
X121911681Y-79133891D01*
X121749278Y-79206197D01*
X121749276Y-79206198D01*
X121743248Y-79208882D01*
X121588747Y-79321134D01*
X121460960Y-79463056D01*
X121365473Y-79628444D01*
X121306458Y-79810072D01*
X121305768Y-79816635D01*
X121305768Y-79816637D01*
X121301550Y-79856770D01*
X121274537Y-79922427D01*
X121265335Y-79932695D01*
X120043915Y-81154115D01*
X119981603Y-81188141D01*
X119954820Y-81191020D01*
X119446476Y-81191020D01*
X119378355Y-81171018D01*
X119331862Y-81117362D01*
X119321758Y-81047088D01*
X119351252Y-80982508D01*
X119369769Y-80965060D01*
X119389470Y-80949942D01*
X119394812Y-80946061D01*
X119441200Y-80914181D01*
X119441205Y-80914176D01*
X119447461Y-80909877D01*
X119488914Y-80863351D01*
X119493895Y-80858075D01*
X119656393Y-80695578D01*
X119656410Y-80695560D01*
X120353493Y-79998477D01*
X120403651Y-79967739D01*
X120479411Y-79943123D01*
X120486108Y-79940947D01*
X120641912Y-79848069D01*
X120773266Y-79722982D01*
X120873643Y-79571902D01*
X120926826Y-79431898D01*
X120935555Y-79408920D01*
X120935556Y-79408918D01*
X120938055Y-79402338D01*
X120942779Y-79368727D01*
X120962748Y-79226639D01*
X120962748Y-79226636D01*
X120963299Y-79222717D01*
X120963616Y-79200000D01*
X120943397Y-79019745D01*
X120941080Y-79013091D01*
X120886064Y-78855106D01*
X120886062Y-78855103D01*
X120883745Y-78848448D01*
X120848537Y-78792103D01*
X120791359Y-78700598D01*
X120787626Y-78694624D01*
X120778835Y-78685771D01*
X120664778Y-78570915D01*
X120664774Y-78570912D01*
X120659815Y-78565918D01*
X120648697Y-78558862D01*
X120571779Y-78510049D01*
X120506666Y-78468727D01*
X120425851Y-78439950D01*
X120342425Y-78410243D01*
X120342420Y-78410242D01*
X120335790Y-78407881D01*
X120328802Y-78407048D01*
X120328799Y-78407047D01*
X120205698Y-78392368D01*
X120155680Y-78386404D01*
X120148677Y-78387140D01*
X120148676Y-78387140D01*
X119982288Y-78404628D01*
X119982286Y-78404629D01*
X119975288Y-78405364D01*
X119803579Y-78463818D01*
X119749908Y-78496837D01*
X119655095Y-78555166D01*
X119655092Y-78555168D01*
X119649088Y-78558862D01*
X119644053Y-78563793D01*
X119644050Y-78563795D01*
X119546626Y-78659200D01*
X119519493Y-78685771D01*
X119421235Y-78838238D01*
X119418825Y-78844858D01*
X119418824Y-78844861D01*
X119380110Y-78951226D01*
X119350804Y-78997226D01*
X118718915Y-79629115D01*
X118656603Y-79663141D01*
X118629820Y-79666020D01*
X117182618Y-79666020D01*
X117114497Y-79646018D01*
X117068004Y-79592362D01*
X117057531Y-79555157D01*
X117049776Y-79491069D01*
X117049775Y-79491066D01*
X117048863Y-79483528D01*
X117043765Y-79470035D01*
X116990932Y-79330217D01*
X116988248Y-79323114D01*
X116919247Y-79222717D01*
X116895420Y-79188048D01*
X116895419Y-79188046D01*
X116891118Y-79181789D01*
X116885447Y-79176736D01*
X116768754Y-79072766D01*
X116768751Y-79072764D01*
X116763082Y-79067713D01*
X116756036Y-79063982D01*
X116618244Y-78991025D01*
X116618245Y-78991025D01*
X116611530Y-78987470D01*
X116604167Y-78985621D01*
X116604163Y-78985619D01*
X116500595Y-78959605D01*
X116439399Y-78923610D01*
X116427450Y-78908767D01*
X116393784Y-78859781D01*
X116393778Y-78859775D01*
X116389479Y-78853519D01*
X116383808Y-78848466D01*
X116267115Y-78744496D01*
X116267112Y-78744494D01*
X116261443Y-78739443D01*
X116109891Y-78659200D01*
X116102526Y-78657350D01*
X115950944Y-78619275D01*
X115950940Y-78619275D01*
X115943573Y-78617424D01*
X115935974Y-78617384D01*
X115935972Y-78617384D01*
X115864516Y-78617010D01*
X115772091Y-78616526D01*
X115764706Y-78618299D01*
X115763950Y-78618480D01*
X115763383Y-78618452D01*
X115757156Y-78619172D01*
X115757036Y-78618134D01*
X115693042Y-78614928D01*
X115645449Y-78585054D01*
X113483991Y-76423595D01*
X113449965Y-76361283D01*
X113455030Y-76290467D01*
X113497577Y-76233632D01*
X113564097Y-76208821D01*
X113573086Y-76208500D01*
X113921088Y-76208500D01*
X113929658Y-76208792D01*
X113979776Y-76212209D01*
X113979780Y-76212209D01*
X113987352Y-76212725D01*
X113994829Y-76211420D01*
X113994830Y-76211420D01*
X114021308Y-76206799D01*
X114050303Y-76201738D01*
X114056821Y-76200777D01*
X114120242Y-76193102D01*
X114127343Y-76190419D01*
X114129952Y-76189778D01*
X114146262Y-76185315D01*
X114148798Y-76184550D01*
X114156284Y-76183243D01*
X114214800Y-76157556D01*
X114220904Y-76155065D01*
X114273548Y-76135173D01*
X114273549Y-76135172D01*
X114280656Y-76132487D01*
X114286919Y-76128183D01*
X114289285Y-76126946D01*
X114304097Y-76118701D01*
X114306351Y-76117368D01*
X114313305Y-76114315D01*
X114364002Y-76075413D01*
X114369332Y-76071541D01*
X114415720Y-76039661D01*
X114415725Y-76039656D01*
X114421981Y-76035357D01*
X114447800Y-76006379D01*
X114463435Y-75988830D01*
X114468416Y-75983554D01*
X114630520Y-75821450D01*
X114636785Y-75815596D01*
X114674660Y-75782555D01*
X114680385Y-75777561D01*
X114717114Y-75725300D01*
X114721046Y-75720005D01*
X114744543Y-75690039D01*
X114760477Y-75669718D01*
X114763602Y-75662796D01*
X114764964Y-75660548D01*
X114773368Y-75645815D01*
X114774622Y-75643476D01*
X114778990Y-75637261D01*
X114781749Y-75630185D01*
X114781751Y-75630181D01*
X114802200Y-75577731D01*
X114804749Y-75571666D01*
X114831045Y-75513427D01*
X114832429Y-75505962D01*
X114833226Y-75503418D01*
X114837859Y-75487152D01*
X114838521Y-75484572D01*
X114841282Y-75477491D01*
X114849622Y-75414143D01*
X114850648Y-75407659D01*
X114851925Y-75400766D01*
X114884004Y-75337434D01*
X114945233Y-75301496D01*
X115016172Y-75304366D01*
G37*
%TD.AperFunction*%
%TA.AperFunction,Conductor*%
G36*
X127206493Y-56196005D02*
G01*
X127252986Y-56249661D01*
X127263090Y-56319935D01*
X127233596Y-56384515D01*
X127212434Y-56403938D01*
X127207460Y-56407552D01*
X126977367Y-56623624D01*
X126776168Y-56866831D01*
X126607038Y-57133337D01*
X126605354Y-57136916D01*
X126605350Y-57136923D01*
X126475155Y-57413604D01*
X126472644Y-57418940D01*
X126471418Y-57422712D01*
X126471418Y-57422713D01*
X126444898Y-57504334D01*
X126375105Y-57719134D01*
X126315959Y-58029186D01*
X126296140Y-58344206D01*
X126315959Y-58659226D01*
X126375105Y-58969278D01*
X126472644Y-59269472D01*
X126474331Y-59273058D01*
X126474333Y-59273062D01*
X126605350Y-59551489D01*
X126605354Y-59551496D01*
X126607038Y-59555075D01*
X126776168Y-59821581D01*
X126977367Y-60064788D01*
X127207460Y-60280860D01*
X127462821Y-60466390D01*
X127739421Y-60618453D01*
X127743090Y-60619906D01*
X127743095Y-60619908D01*
X128029228Y-60733196D01*
X128032898Y-60734649D01*
X128338625Y-60813146D01*
X128651779Y-60852706D01*
X128967421Y-60852706D01*
X129280575Y-60813146D01*
X129586302Y-60734649D01*
X129589972Y-60733196D01*
X129876105Y-60619908D01*
X129876110Y-60619906D01*
X129879779Y-60618453D01*
X130156379Y-60466390D01*
X130411740Y-60280860D01*
X130641833Y-60064788D01*
X130644358Y-60061736D01*
X130644365Y-60061729D01*
X130680915Y-60017547D01*
X130739749Y-59977808D01*
X130810727Y-59976186D01*
X130871315Y-60013196D01*
X130902275Y-60077086D01*
X130904000Y-60097862D01*
X130904000Y-83502638D01*
X130883998Y-83570759D01*
X130830342Y-83617252D01*
X130760068Y-83627356D01*
X130695488Y-83597862D01*
X130680915Y-83582953D01*
X130634365Y-83526683D01*
X130634354Y-83526671D01*
X130631833Y-83523624D01*
X130401740Y-83307552D01*
X130146379Y-83122022D01*
X129869779Y-82969959D01*
X129866110Y-82968506D01*
X129866105Y-82968504D01*
X129579972Y-82855216D01*
X129579971Y-82855216D01*
X129576302Y-82853763D01*
X129270575Y-82775266D01*
X128957421Y-82735706D01*
X128641779Y-82735706D01*
X128328625Y-82775266D01*
X128022898Y-82853763D01*
X128019224Y-82855218D01*
X128019223Y-82855218D01*
X127875829Y-82911991D01*
X127805129Y-82918470D01*
X127742149Y-82885698D01*
X127706885Y-82824078D01*
X127704703Y-82777088D01*
X127713547Y-82714947D01*
X127713704Y-82700000D01*
X127701755Y-82601259D01*
X127694015Y-82537299D01*
X127694014Y-82537296D01*
X127693102Y-82529758D01*
X127687506Y-82514947D01*
X127635171Y-82376447D01*
X127632487Y-82369344D01*
X127535357Y-82228019D01*
X127529686Y-82222966D01*
X127412993Y-82118996D01*
X127412990Y-82118994D01*
X127407321Y-82113943D01*
X127255769Y-82033700D01*
X127232547Y-82027867D01*
X127096822Y-81993775D01*
X127096818Y-81993775D01*
X127089451Y-81991924D01*
X127081852Y-81991884D01*
X127081850Y-81991884D01*
X126960989Y-81991251D01*
X126892974Y-81970893D01*
X126877831Y-81959330D01*
X126844259Y-81929419D01*
X126844253Y-81929415D01*
X126838583Y-81924363D01*
X126687031Y-81844120D01*
X126669458Y-81839706D01*
X126528084Y-81804195D01*
X126528080Y-81804195D01*
X126520713Y-81802344D01*
X126513114Y-81802304D01*
X126513112Y-81802304D01*
X126441656Y-81801930D01*
X126349231Y-81801446D01*
X126341851Y-81803218D01*
X126341849Y-81803218D01*
X126189864Y-81839706D01*
X126189860Y-81839707D01*
X126182485Y-81841478D01*
X126030101Y-81920129D01*
X125900877Y-82032859D01*
X125802272Y-82173159D01*
X125793218Y-82196382D01*
X125741066Y-82330144D01*
X125712768Y-82373469D01*
X125570804Y-82515433D01*
X125508492Y-82549459D01*
X125437677Y-82544394D01*
X125380841Y-82501847D01*
X125356622Y-82441476D01*
X125344015Y-82337299D01*
X125344014Y-82337296D01*
X125343102Y-82329758D01*
X125291634Y-82193551D01*
X125283500Y-82149013D01*
X125283500Y-78193258D01*
X125284027Y-78182075D01*
X125285702Y-78174582D01*
X125284338Y-78131166D01*
X125283562Y-78106492D01*
X125283500Y-78102534D01*
X125283500Y-78074635D01*
X125282996Y-78070644D01*
X125282063Y-78058802D01*
X125282042Y-78058114D01*
X125280674Y-78014602D01*
X125278462Y-78006988D01*
X125278461Y-78006983D01*
X125275023Y-77995150D01*
X125271012Y-77975786D01*
X125269467Y-77963555D01*
X125268474Y-77955694D01*
X125265557Y-77948327D01*
X125265556Y-77948322D01*
X125252198Y-77914583D01*
X125248354Y-77903356D01*
X125238230Y-77868513D01*
X125236018Y-77860898D01*
X125225707Y-77843463D01*
X125217012Y-77825715D01*
X125209552Y-77806874D01*
X125183564Y-77771104D01*
X125177048Y-77761184D01*
X125158580Y-77729956D01*
X125158578Y-77729953D01*
X125154542Y-77723129D01*
X125140221Y-77708808D01*
X125127380Y-77693774D01*
X125120131Y-77683797D01*
X125115472Y-77677384D01*
X125109367Y-77672333D01*
X125109362Y-77672328D01*
X125081402Y-77649197D01*
X125072624Y-77641210D01*
X124877754Y-77446340D01*
X124843729Y-77384029D01*
X124848793Y-77313213D01*
X124877754Y-77268150D01*
X124892251Y-77253653D01*
X124900537Y-77246113D01*
X124907018Y-77242000D01*
X124941249Y-77205548D01*
X124953644Y-77192348D01*
X124956399Y-77189506D01*
X124976135Y-77169770D01*
X124978615Y-77166573D01*
X124986320Y-77157551D01*
X125011159Y-77131100D01*
X125016586Y-77125321D01*
X125020405Y-77118375D01*
X125020407Y-77118372D01*
X125026348Y-77107566D01*
X125037199Y-77091047D01*
X125044758Y-77081301D01*
X125049614Y-77075041D01*
X125052759Y-77067772D01*
X125052762Y-77067768D01*
X125067174Y-77034463D01*
X125072391Y-77023813D01*
X125093695Y-76985060D01*
X125098733Y-76965437D01*
X125105137Y-76946734D01*
X125110033Y-76935420D01*
X125110033Y-76935419D01*
X125113181Y-76928145D01*
X125114420Y-76920322D01*
X125114423Y-76920312D01*
X125120099Y-76884476D01*
X125122505Y-76872856D01*
X125131528Y-76837711D01*
X125131528Y-76837710D01*
X125133500Y-76830030D01*
X125133500Y-76809776D01*
X125135051Y-76790065D01*
X125136980Y-76777886D01*
X125138220Y-76770057D01*
X125134059Y-76726038D01*
X125133500Y-76714181D01*
X125133500Y-75828767D01*
X125134027Y-75817584D01*
X125135702Y-75810091D01*
X125134837Y-75782555D01*
X125133562Y-75742014D01*
X125133500Y-75738055D01*
X125133500Y-75710144D01*
X125132995Y-75706144D01*
X125132062Y-75694301D01*
X125131725Y-75683557D01*
X125130673Y-75650111D01*
X125125021Y-75630657D01*
X125121013Y-75611300D01*
X125119468Y-75599070D01*
X125119468Y-75599069D01*
X125118474Y-75591203D01*
X125113140Y-75577731D01*
X125102196Y-75550088D01*
X125098351Y-75538858D01*
X125088229Y-75504017D01*
X125088229Y-75504016D01*
X125086018Y-75496407D01*
X125081985Y-75489588D01*
X125081983Y-75489583D01*
X125075707Y-75478972D01*
X125067012Y-75461224D01*
X125059552Y-75442383D01*
X125049716Y-75428844D01*
X125033564Y-75406613D01*
X125027048Y-75396693D01*
X125008580Y-75365465D01*
X125008578Y-75365462D01*
X125004542Y-75358638D01*
X124990218Y-75344314D01*
X124977383Y-75329287D01*
X124965472Y-75312893D01*
X124954335Y-75303679D01*
X124931402Y-75284708D01*
X124922622Y-75276718D01*
X124853653Y-75207749D01*
X124846113Y-75199463D01*
X124842000Y-75192982D01*
X124792347Y-75146355D01*
X124789506Y-75143601D01*
X124769770Y-75123865D01*
X124766573Y-75121385D01*
X124757551Y-75113680D01*
X124731100Y-75088841D01*
X124725321Y-75083414D01*
X124718376Y-75079596D01*
X124718368Y-75079590D01*
X124717320Y-75079014D01*
X124716657Y-75078347D01*
X124711961Y-75074935D01*
X124712511Y-75074177D01*
X124667264Y-75028666D01*
X124660875Y-75014987D01*
X124659781Y-75012224D01*
X124642354Y-74968208D01*
X124637164Y-74961370D01*
X124637162Y-74961367D01*
X124572501Y-74876179D01*
X124547248Y-74809825D01*
X124561877Y-74740352D01*
X124572501Y-74723821D01*
X124637162Y-74638633D01*
X124637164Y-74638630D01*
X124642354Y-74631792D01*
X124674734Y-74550009D01*
X124694694Y-74499596D01*
X124694695Y-74499594D01*
X124697675Y-74492066D01*
X124708500Y-74402614D01*
X124708500Y-73597386D01*
X124697675Y-73507934D01*
X124677226Y-73456284D01*
X124674615Y-73449690D01*
X124642354Y-73368208D01*
X124551495Y-73248505D01*
X124431792Y-73157646D01*
X124342917Y-73122458D01*
X124299596Y-73105306D01*
X124299594Y-73105305D01*
X124292066Y-73102325D01*
X124202614Y-73091500D01*
X123845660Y-73091500D01*
X123777539Y-73071498D01*
X123756565Y-73054595D01*
X123695405Y-72993435D01*
X123661379Y-72931123D01*
X123658500Y-72904340D01*
X123658500Y-71718744D01*
X123678502Y-71650623D01*
X123682564Y-71644683D01*
X123684621Y-71641852D01*
X123689040Y-71636944D01*
X123784527Y-71471556D01*
X123843542Y-71289928D01*
X123863504Y-71100000D01*
X123850485Y-70976132D01*
X123844232Y-70916635D01*
X123844232Y-70916633D01*
X123843542Y-70910072D01*
X123784527Y-70728444D01*
X123689040Y-70563056D01*
X123684621Y-70558148D01*
X123682564Y-70555317D01*
X123658705Y-70488449D01*
X123658500Y-70481256D01*
X123658500Y-70029360D01*
X123678502Y-69961239D01*
X123695405Y-69940265D01*
X124567092Y-69068578D01*
X124629404Y-69034552D01*
X124667948Y-69032223D01*
X125047066Y-69067765D01*
X125329658Y-69094258D01*
X125433127Y-69093374D01*
X125436314Y-69093020D01*
X125436317Y-69093020D01*
X125480690Y-69088094D01*
X125480696Y-69088093D01*
X125483876Y-69087740D01*
X125487008Y-69087064D01*
X125577481Y-69067536D01*
X125577485Y-69067535D01*
X125585021Y-69065908D01*
X125714749Y-69002053D01*
X125718460Y-68999513D01*
X125718467Y-68999509D01*
X125769620Y-68964497D01*
X125769619Y-68964497D01*
X125773337Y-68961953D01*
X125789909Y-68946730D01*
X125873186Y-68870229D01*
X125879822Y-68864133D01*
X125954433Y-68740278D01*
X125970570Y-68702046D01*
X125980291Y-68679013D01*
X125980291Y-68679012D01*
X125982040Y-68674869D01*
X126018734Y-68535015D01*
X126045161Y-68303777D01*
X126203725Y-66916342D01*
X126206501Y-66881388D01*
X126207279Y-66864016D01*
X126207637Y-66828917D01*
X126207380Y-66818367D01*
X126207380Y-66818351D01*
X126194486Y-66289703D01*
X126160999Y-64916760D01*
X126160999Y-64916759D01*
X126160917Y-64913400D01*
X126154613Y-64865601D01*
X126147202Y-64809413D01*
X126147201Y-64809407D01*
X126146761Y-64806072D01*
X126140453Y-64780055D01*
X126134971Y-64757450D01*
X126134969Y-64757445D01*
X126134178Y-64754181D01*
X126112824Y-64694694D01*
X126100266Y-64659709D01*
X126100265Y-64659708D01*
X126097608Y-64652305D01*
X126086763Y-64636252D01*
X126019185Y-64536228D01*
X126019183Y-64536226D01*
X126016662Y-64532494D01*
X125968949Y-64479921D01*
X125965487Y-64477058D01*
X125965482Y-64477053D01*
X125864467Y-64393511D01*
X125857521Y-64387766D01*
X125724650Y-64330739D01*
X125700790Y-64324325D01*
X125660433Y-64313476D01*
X125660429Y-64313475D01*
X125656087Y-64312308D01*
X125651628Y-64311771D01*
X125651622Y-64311770D01*
X125556035Y-64300263D01*
X125512534Y-64295026D01*
X125508047Y-64295129D01*
X125508044Y-64295129D01*
X125433369Y-64296846D01*
X125364806Y-64278415D01*
X125330512Y-64247585D01*
X125320004Y-64233891D01*
X125309113Y-64219698D01*
X125305241Y-64214368D01*
X125273361Y-64167980D01*
X125273356Y-64167975D01*
X125269057Y-64161719D01*
X125222529Y-64120264D01*
X125217254Y-64115284D01*
X123184665Y-62082695D01*
X123150639Y-62020383D01*
X123148450Y-62006770D01*
X123144232Y-61966637D01*
X123144232Y-61966635D01*
X123143542Y-61960072D01*
X123084527Y-61778444D01*
X122989040Y-61613056D01*
X122861253Y-61471134D01*
X122706752Y-61358882D01*
X122700724Y-61356198D01*
X122700722Y-61356197D01*
X122538319Y-61283891D01*
X122538318Y-61283891D01*
X122532288Y-61281206D01*
X122438888Y-61261353D01*
X122351944Y-61242872D01*
X122351939Y-61242872D01*
X122345487Y-61241500D01*
X122154513Y-61241500D01*
X122148061Y-61242872D01*
X122148056Y-61242872D01*
X122061112Y-61261353D01*
X121967712Y-61281206D01*
X121961682Y-61283891D01*
X121961681Y-61283891D01*
X121799278Y-61356197D01*
X121799276Y-61356198D01*
X121793248Y-61358882D01*
X121638747Y-61471134D01*
X121510960Y-61613056D01*
X121415473Y-61778444D01*
X121356458Y-61960072D01*
X121355768Y-61966633D01*
X121355768Y-61966635D01*
X121350492Y-62016834D01*
X121336496Y-62150000D01*
X121337186Y-62156565D01*
X121347023Y-62250155D01*
X121356458Y-62339928D01*
X121415473Y-62521556D01*
X121510960Y-62686944D01*
X121515378Y-62691851D01*
X121515379Y-62691852D01*
X121626560Y-62815331D01*
X121638747Y-62828866D01*
X121793248Y-62941118D01*
X121799276Y-62943802D01*
X121799278Y-62943803D01*
X121838528Y-62961278D01*
X121967712Y-63018794D01*
X122104411Y-63047850D01*
X122120569Y-63051285D01*
X122183467Y-63085437D01*
X123232392Y-64134362D01*
X123266418Y-64196674D01*
X123261353Y-64267489D01*
X123218806Y-64324325D01*
X123146193Y-64349424D01*
X121596096Y-64385059D01*
X121527533Y-64366628D01*
X121479820Y-64314055D01*
X121467200Y-64259092D01*
X121467200Y-64179086D01*
X121456553Y-64091101D01*
X121402139Y-63953668D01*
X121312771Y-63835929D01*
X121195032Y-63746561D01*
X121057599Y-63692147D01*
X121049562Y-63691174D01*
X121049560Y-63691174D01*
X121017163Y-63687254D01*
X120969614Y-63681500D01*
X120784891Y-63681500D01*
X120739737Y-63673131D01*
X120601299Y-63619990D01*
X120601300Y-63619990D01*
X120595133Y-63617623D01*
X120588614Y-63616590D01*
X120588612Y-63616590D01*
X120413027Y-63588780D01*
X120413025Y-63588780D01*
X120406510Y-63587748D01*
X120399923Y-63588093D01*
X120399918Y-63588093D01*
X120222392Y-63597397D01*
X120222389Y-63597398D01*
X120215797Y-63597743D01*
X120209425Y-63599450D01*
X120209421Y-63599451D01*
X120037704Y-63645462D01*
X120031330Y-63647170D01*
X120025450Y-63650166D01*
X119990906Y-63667767D01*
X119933703Y-63681500D01*
X119747786Y-63681500D01*
X119700237Y-63687254D01*
X119667840Y-63691174D01*
X119667838Y-63691174D01*
X119659801Y-63692147D01*
X119522368Y-63746561D01*
X119404629Y-63835929D01*
X119315261Y-63953668D01*
X119312100Y-63961651D01*
X119312098Y-63961655D01*
X119292210Y-64011885D01*
X119248535Y-64067858D01*
X119175059Y-64091500D01*
X119103626Y-64091500D01*
X119035505Y-64071498D01*
X119014531Y-64054596D01*
X118090551Y-63130617D01*
X118081449Y-63120473D01*
X118061597Y-63095782D01*
X118057732Y-63090975D01*
X118019278Y-63058708D01*
X118015631Y-63055528D01*
X118013819Y-63053885D01*
X118011625Y-63051691D01*
X117978351Y-63024358D01*
X117977553Y-63023696D01*
X117906226Y-62963846D01*
X117901556Y-62961278D01*
X117897439Y-62957897D01*
X117815614Y-62914023D01*
X117814455Y-62913394D01*
X117738319Y-62871538D01*
X117738311Y-62871535D01*
X117732913Y-62868567D01*
X117727831Y-62866955D01*
X117723137Y-62864438D01*
X117634169Y-62837238D01*
X117633141Y-62836918D01*
X117544394Y-62808765D01*
X117539098Y-62808171D01*
X117534002Y-62806613D01*
X117441443Y-62797210D01*
X117440307Y-62797089D01*
X117406692Y-62793319D01*
X117393970Y-62791892D01*
X117393966Y-62791892D01*
X117390473Y-62791500D01*
X117386946Y-62791500D01*
X117385961Y-62791445D01*
X117380281Y-62790998D01*
X117350875Y-62788011D01*
X117343363Y-62787248D01*
X117343361Y-62787248D01*
X117337238Y-62786626D01*
X117294959Y-62790623D01*
X117291591Y-62790941D01*
X117279733Y-62791500D01*
X116111869Y-62791500D01*
X116043748Y-62771498D01*
X115997255Y-62717842D01*
X115985883Y-62663591D01*
X115996543Y-61960072D01*
X116043497Y-58861101D01*
X116060364Y-58800010D01*
X116131223Y-58677279D01*
X116131224Y-58677278D01*
X116134527Y-58671556D01*
X116193542Y-58489928D01*
X116207031Y-58361592D01*
X116212814Y-58306565D01*
X116213504Y-58300000D01*
X116204754Y-58216744D01*
X116194232Y-58116635D01*
X116194232Y-58116633D01*
X116193542Y-58110072D01*
X116134527Y-57928444D01*
X116039040Y-57763056D01*
X116015793Y-57737237D01*
X115915675Y-57626045D01*
X115915674Y-57626044D01*
X115911253Y-57621134D01*
X115893476Y-57608219D01*
X115873983Y-57590683D01*
X115868239Y-57584316D01*
X115865218Y-57580967D01*
X115754071Y-57488483D01*
X115641113Y-57439602D01*
X115625501Y-57432846D01*
X115625499Y-57432845D01*
X115621371Y-57431059D01*
X115552864Y-57412423D01*
X115417724Y-57395744D01*
X115406989Y-57393945D01*
X115395487Y-57391500D01*
X115204513Y-57391500D01*
X115198056Y-57392872D01*
X115198051Y-57392873D01*
X115178262Y-57397079D01*
X115154587Y-57399807D01*
X114910588Y-57404687D01*
X114693805Y-57409023D01*
X114665093Y-57406295D01*
X114634569Y-57399807D01*
X114601944Y-57392872D01*
X114601940Y-57392872D01*
X114595487Y-57391500D01*
X114404513Y-57391500D01*
X114398061Y-57392872D01*
X114398056Y-57392872D01*
X114295173Y-57414741D01*
X114271495Y-57417469D01*
X113485485Y-57433189D01*
X113168138Y-57439536D01*
X113164839Y-57439602D01*
X113111073Y-57446366D01*
X113062327Y-57452498D01*
X113062320Y-57452499D01*
X113059039Y-57452912D01*
X113055816Y-57453668D01*
X113055814Y-57453668D01*
X113011045Y-57464164D01*
X113011039Y-57464166D01*
X113007822Y-57464920D01*
X112907130Y-57500023D01*
X112786454Y-57579673D01*
X112783094Y-57582657D01*
X112736736Y-57623826D01*
X112736730Y-57623832D01*
X112733369Y-57626817D01*
X112730461Y-57630257D01*
X112730458Y-57630260D01*
X112645841Y-57730353D01*
X112645839Y-57730356D01*
X112640022Y-57737237D01*
X112581564Y-57869484D01*
X112562394Y-57937843D01*
X112561809Y-57942298D01*
X112561808Y-57942302D01*
X112554556Y-57997516D01*
X112543563Y-58081206D01*
X112543995Y-58116635D01*
X112546965Y-58360205D01*
X112527795Y-58428564D01*
X112474710Y-58475708D01*
X112404564Y-58486668D01*
X112339629Y-58457964D01*
X112300520Y-58398711D01*
X112296054Y-58378195D01*
X112293868Y-58361592D01*
X112236584Y-58223297D01*
X112145459Y-58104541D01*
X112026703Y-58013416D01*
X111888408Y-57956132D01*
X111783357Y-57942302D01*
X111781352Y-57942038D01*
X111781351Y-57942038D01*
X111777265Y-57941500D01*
X111200071Y-57941500D01*
X110622736Y-57941501D01*
X110618652Y-57942039D01*
X110618646Y-57942039D01*
X110519779Y-57955054D01*
X110519777Y-57955055D01*
X110511592Y-57956132D01*
X110373297Y-58013416D01*
X110254541Y-58104541D01*
X110163416Y-58223297D01*
X110106132Y-58361592D01*
X110091500Y-58472735D01*
X110091501Y-59375573D01*
X110091501Y-60233628D01*
X110071499Y-60301749D01*
X110054596Y-60322723D01*
X108611089Y-61766230D01*
X108596677Y-61778616D01*
X108585082Y-61787149D01*
X108585077Y-61787154D01*
X108579182Y-61791492D01*
X108574443Y-61797070D01*
X108574440Y-61797073D01*
X108544965Y-61831768D01*
X108538035Y-61839284D01*
X108532340Y-61844979D01*
X108530060Y-61847861D01*
X108514719Y-61867251D01*
X108511928Y-61870655D01*
X108469409Y-61920703D01*
X108464667Y-61926285D01*
X108461339Y-61932801D01*
X108457972Y-61937850D01*
X108454805Y-61942979D01*
X108450266Y-61948716D01*
X108419345Y-62014875D01*
X108417442Y-62018769D01*
X108384231Y-62083808D01*
X108382492Y-62090916D01*
X108380393Y-62096559D01*
X108378476Y-62102322D01*
X108375378Y-62108950D01*
X108373888Y-62116112D01*
X108373888Y-62116113D01*
X108360514Y-62180412D01*
X108359544Y-62184696D01*
X108342192Y-62255610D01*
X108341500Y-62266764D01*
X108341464Y-62266762D01*
X108341225Y-62270755D01*
X108340851Y-62274947D01*
X108339360Y-62282115D01*
X108339558Y-62289432D01*
X108341454Y-62359521D01*
X108341500Y-62362928D01*
X108341500Y-62815331D01*
X108321498Y-62883452D01*
X108315875Y-62891494D01*
X108257646Y-62968208D01*
X108202325Y-63107934D01*
X108191500Y-63197386D01*
X108191500Y-64202614D01*
X108202325Y-64292066D01*
X108205305Y-64299594D01*
X108205306Y-64299596D01*
X108218340Y-64332516D01*
X108257646Y-64431792D01*
X108315864Y-64508492D01*
X108341116Y-64574843D01*
X108341500Y-64584669D01*
X108341500Y-64633629D01*
X108321498Y-64701750D01*
X108304595Y-64722724D01*
X108297723Y-64729596D01*
X108235411Y-64763622D01*
X108208628Y-64766501D01*
X108185860Y-64766501D01*
X108147102Y-64771191D01*
X108106473Y-64776106D01*
X108106469Y-64776107D01*
X108098444Y-64777078D01*
X108090927Y-64780054D01*
X108090924Y-64780055D01*
X108033488Y-64802796D01*
X107961902Y-64831139D01*
X107955061Y-64836332D01*
X107955057Y-64836334D01*
X107853528Y-64913400D01*
X107844928Y-64919928D01*
X107839736Y-64926768D01*
X107761334Y-65030057D01*
X107761332Y-65030061D01*
X107756139Y-65036902D01*
X107702078Y-65173444D01*
X107691500Y-65260859D01*
X107691501Y-65465271D01*
X107691501Y-65555828D01*
X107671499Y-65623948D01*
X107617844Y-65670441D01*
X107572491Y-65681634D01*
X105677574Y-65786907D01*
X105608449Y-65770714D01*
X105559051Y-65719720D01*
X105545065Y-65650115D01*
X105561466Y-65598101D01*
X105631223Y-65477279D01*
X105631224Y-65477278D01*
X105634527Y-65471556D01*
X105693542Y-65289928D01*
X105694938Y-65276651D01*
X105712814Y-65106565D01*
X105713504Y-65100000D01*
X105703835Y-65008000D01*
X105694232Y-64916635D01*
X105694232Y-64916633D01*
X105693542Y-64910072D01*
X105634527Y-64728444D01*
X105616763Y-64697675D01*
X105542341Y-64568774D01*
X105539040Y-64563056D01*
X105528631Y-64551495D01*
X105415675Y-64426045D01*
X105415674Y-64426044D01*
X105411253Y-64421134D01*
X105289281Y-64332516D01*
X105262094Y-64312763D01*
X105262093Y-64312762D01*
X105256752Y-64308882D01*
X105250724Y-64306198D01*
X105250722Y-64306197D01*
X105088319Y-64233891D01*
X105088318Y-64233891D01*
X105082288Y-64231206D01*
X104965487Y-64206379D01*
X104901944Y-64192872D01*
X104901939Y-64192872D01*
X104895487Y-64191500D01*
X104704513Y-64191500D01*
X104698061Y-64192872D01*
X104698056Y-64192872D01*
X104634513Y-64206379D01*
X104517712Y-64231206D01*
X104511682Y-64233891D01*
X104511681Y-64233891D01*
X104349278Y-64306197D01*
X104349276Y-64306198D01*
X104343248Y-64308882D01*
X104337907Y-64312762D01*
X104337906Y-64312763D01*
X104310719Y-64332516D01*
X104188747Y-64421134D01*
X104184326Y-64426044D01*
X104184325Y-64426045D01*
X104071370Y-64551495D01*
X104060960Y-64563056D01*
X104057659Y-64568774D01*
X103983238Y-64697675D01*
X103965473Y-64728444D01*
X103906458Y-64910072D01*
X103905768Y-64916633D01*
X103905768Y-64916635D01*
X103896165Y-65008000D01*
X103886496Y-65100000D01*
X103887186Y-65106565D01*
X103905063Y-65276651D01*
X103906458Y-65289928D01*
X103965473Y-65471556D01*
X103968776Y-65477278D01*
X103968777Y-65477279D01*
X104015675Y-65558508D01*
X104060960Y-65636944D01*
X104065379Y-65641852D01*
X104067436Y-65644683D01*
X104091295Y-65711551D01*
X104091500Y-65718744D01*
X104091500Y-66154340D01*
X104071498Y-66222461D01*
X104054595Y-66243435D01*
X103333467Y-66964563D01*
X103270569Y-66998715D01*
X103117712Y-67031206D01*
X103111682Y-67033891D01*
X103111681Y-67033891D01*
X102949278Y-67106197D01*
X102949276Y-67106198D01*
X102943248Y-67108882D01*
X102788747Y-67221134D01*
X102660960Y-67363056D01*
X102651771Y-67378972D01*
X102573132Y-67515179D01*
X102565473Y-67528444D01*
X102506458Y-67710072D01*
X102505768Y-67716633D01*
X102505768Y-67716635D01*
X102490058Y-67866109D01*
X102486496Y-67900000D01*
X102487186Y-67906565D01*
X102505659Y-68082322D01*
X102506458Y-68089928D01*
X102565473Y-68271556D01*
X102568776Y-68277278D01*
X102568777Y-68277279D01*
X102574396Y-68287011D01*
X102660960Y-68436944D01*
X102788747Y-68578866D01*
X102943248Y-68691118D01*
X102949276Y-68693802D01*
X102949278Y-68693803D01*
X103048522Y-68737989D01*
X103102618Y-68783969D01*
X103123266Y-68854388D01*
X103122292Y-68949392D01*
X103122182Y-68960085D01*
X103155256Y-69208139D01*
X103156575Y-69212680D01*
X103166157Y-69245668D01*
X103197641Y-69354065D01*
X103228900Y-69421722D01*
X103231504Y-69425671D01*
X103231506Y-69425675D01*
X103270692Y-69485105D01*
X103291500Y-69554464D01*
X103291501Y-70839884D01*
X103292039Y-70843969D01*
X103292039Y-70843973D01*
X103301912Y-70918970D01*
X103307162Y-70958850D01*
X103319948Y-70989718D01*
X103362909Y-71093435D01*
X103368476Y-71106876D01*
X103373467Y-71113380D01*
X103389656Y-71163281D01*
X103619692Y-73370151D01*
X103614474Y-73421307D01*
X103608765Y-73439306D01*
X103608171Y-73444602D01*
X103606613Y-73449698D01*
X103599694Y-73517816D01*
X103597218Y-73542187D01*
X103597089Y-73543393D01*
X103591500Y-73593227D01*
X103591500Y-73596754D01*
X103591445Y-73597739D01*
X103590998Y-73603419D01*
X103586626Y-73646462D01*
X103587206Y-73652593D01*
X103590941Y-73692109D01*
X103591500Y-73703967D01*
X103591500Y-78488960D01*
X103571498Y-78557081D01*
X103513721Y-78605367D01*
X103503456Y-78609619D01*
X103503446Y-78609625D01*
X103495819Y-78612784D01*
X103378107Y-78703107D01*
X103373084Y-78709653D01*
X103352953Y-78735888D01*
X103287784Y-78820819D01*
X103231004Y-78957897D01*
X103216500Y-79068069D01*
X103216501Y-80131930D01*
X103217039Y-80136014D01*
X103217039Y-80136020D01*
X103224962Y-80196206D01*
X103231004Y-80242103D01*
X103287784Y-80379181D01*
X103292811Y-80385732D01*
X103352711Y-80463796D01*
X103378311Y-80530017D01*
X103364046Y-80599565D01*
X103314445Y-80650361D01*
X103252748Y-80666500D01*
X101096824Y-80666500D01*
X101028703Y-80646498D01*
X100992984Y-80611867D01*
X100939659Y-80534278D01*
X100939658Y-80534276D01*
X100935357Y-80528019D01*
X100929686Y-80522966D01*
X100812993Y-80418996D01*
X100812990Y-80418994D01*
X100807321Y-80413943D01*
X100799325Y-80409709D01*
X100662481Y-80337254D01*
X100662482Y-80337254D01*
X100655769Y-80333700D01*
X100638196Y-80329286D01*
X100496822Y-80293775D01*
X100496818Y-80293775D01*
X100489451Y-80291924D01*
X100481852Y-80291884D01*
X100481850Y-80291884D01*
X100410394Y-80291510D01*
X100317969Y-80291026D01*
X100310589Y-80292798D01*
X100310587Y-80292798D01*
X100158602Y-80329286D01*
X100158598Y-80329287D01*
X100151223Y-80331058D01*
X99998839Y-80409709D01*
X99869615Y-80522439D01*
X99771010Y-80662739D01*
X99708718Y-80822509D01*
X99707726Y-80830042D01*
X99707726Y-80830043D01*
X99687654Y-80982508D01*
X99686335Y-80992526D01*
X99692359Y-81047088D01*
X99704175Y-81154115D01*
X99705153Y-81162975D01*
X99764085Y-81324015D01*
X99859730Y-81466349D01*
X99986565Y-81581760D01*
X100137268Y-81663585D01*
X100144611Y-81665511D01*
X100151679Y-81668310D01*
X100151078Y-81669828D01*
X100207084Y-81705575D01*
X100208000Y-81707018D01*
X100213780Y-81712446D01*
X100213781Y-81712447D01*
X100257652Y-81753644D01*
X100260494Y-81756399D01*
X100280230Y-81776135D01*
X100283427Y-81778615D01*
X100292447Y-81786318D01*
X100324679Y-81816586D01*
X100331625Y-81820405D01*
X100331628Y-81820407D01*
X100342434Y-81826348D01*
X100358953Y-81837199D01*
X100374959Y-81849614D01*
X100382228Y-81852759D01*
X100382232Y-81852762D01*
X100415537Y-81867174D01*
X100426187Y-81872391D01*
X100464940Y-81893695D01*
X100472615Y-81895666D01*
X100472616Y-81895666D01*
X100484562Y-81898733D01*
X100503267Y-81905137D01*
X100521855Y-81913181D01*
X100529678Y-81914420D01*
X100529688Y-81914423D01*
X100565524Y-81920099D01*
X100577144Y-81922505D01*
X100612289Y-81931528D01*
X100619970Y-81933500D01*
X100640224Y-81933500D01*
X100659934Y-81935051D01*
X100679943Y-81938220D01*
X100687835Y-81937474D01*
X100723961Y-81934059D01*
X100735819Y-81933500D01*
X102574265Y-81933500D01*
X102642386Y-81953502D01*
X102688879Y-82007158D01*
X102698983Y-82077431D01*
X102692639Y-82121552D01*
X102692638Y-82121559D01*
X102692000Y-82126000D01*
X102692000Y-87850800D01*
X102671998Y-87918921D01*
X102618342Y-87965414D01*
X102566000Y-87976800D01*
X99896246Y-87976800D01*
X99828125Y-87956798D01*
X99781632Y-87903142D01*
X99771528Y-87832868D01*
X99801022Y-87768288D01*
X99860748Y-87729904D01*
X99880454Y-87725794D01*
X99980575Y-87713146D01*
X100286302Y-87634649D01*
X100384373Y-87595820D01*
X100576105Y-87519908D01*
X100576110Y-87519906D01*
X100579779Y-87518453D01*
X100856379Y-87366390D01*
X101111740Y-87180860D01*
X101341833Y-86964788D01*
X101543032Y-86721581D01*
X101712162Y-86455075D01*
X101713846Y-86451496D01*
X101713850Y-86451489D01*
X101844867Y-86173062D01*
X101844869Y-86173058D01*
X101846556Y-86169472D01*
X101944095Y-85869278D01*
X102003241Y-85559226D01*
X102023060Y-85244206D01*
X102003241Y-84929186D01*
X101944095Y-84619134D01*
X101876289Y-84410449D01*
X101847782Y-84322713D01*
X101847782Y-84322712D01*
X101846556Y-84318940D01*
X101843629Y-84312720D01*
X101713850Y-84036923D01*
X101713846Y-84036916D01*
X101712162Y-84033337D01*
X101543032Y-83766831D01*
X101341833Y-83523624D01*
X101111740Y-83307552D01*
X100856379Y-83122022D01*
X100579779Y-82969959D01*
X100576110Y-82968506D01*
X100576105Y-82968504D01*
X100289972Y-82855216D01*
X100289971Y-82855216D01*
X100286302Y-82853763D01*
X99980575Y-82775266D01*
X99667421Y-82735706D01*
X99351779Y-82735706D01*
X99038625Y-82775266D01*
X98732898Y-82853763D01*
X98729229Y-82855216D01*
X98729228Y-82855216D01*
X98443095Y-82968504D01*
X98443090Y-82968506D01*
X98439421Y-82969959D01*
X98162821Y-83122022D01*
X97907460Y-83307552D01*
X97677367Y-83523624D01*
X97674842Y-83526676D01*
X97674834Y-83526685D01*
X97599084Y-83618250D01*
X97540251Y-83657988D01*
X97469273Y-83659609D01*
X97408685Y-83622600D01*
X97377725Y-83558710D01*
X97376000Y-83537934D01*
X97376000Y-60050478D01*
X97396002Y-59982357D01*
X97449658Y-59935864D01*
X97519932Y-59925760D01*
X97584512Y-59955254D01*
X97599084Y-59970162D01*
X97674834Y-60061727D01*
X97674836Y-60061729D01*
X97677367Y-60064788D01*
X97907460Y-60280860D01*
X98162821Y-60466390D01*
X98439421Y-60618453D01*
X98443090Y-60619906D01*
X98443095Y-60619908D01*
X98729228Y-60733196D01*
X98732898Y-60734649D01*
X99038625Y-60813146D01*
X99351779Y-60852706D01*
X99667421Y-60852706D01*
X99980575Y-60813146D01*
X100286302Y-60734649D01*
X100289972Y-60733196D01*
X100576105Y-60619908D01*
X100576110Y-60619906D01*
X100579779Y-60618453D01*
X100856379Y-60466390D01*
X101111740Y-60280860D01*
X101341833Y-60064788D01*
X101543032Y-59821581D01*
X101712162Y-59555075D01*
X101713846Y-59551496D01*
X101713850Y-59551489D01*
X101844867Y-59273062D01*
X101844869Y-59273058D01*
X101846556Y-59269472D01*
X101944095Y-58969278D01*
X102003241Y-58659226D01*
X102023060Y-58344206D01*
X102003241Y-58029186D01*
X101944095Y-57719134D01*
X101874302Y-57504334D01*
X101847782Y-57422713D01*
X101847782Y-57422712D01*
X101846556Y-57418940D01*
X101844045Y-57413604D01*
X101713850Y-57136923D01*
X101713846Y-57136916D01*
X101712162Y-57133337D01*
X101543032Y-56866831D01*
X101341833Y-56623624D01*
X101111740Y-56407552D01*
X101106767Y-56403939D01*
X101106388Y-56403447D01*
X101105486Y-56402701D01*
X101105655Y-56402497D01*
X101063414Y-56347718D01*
X101057337Y-56276982D01*
X101090468Y-56214190D01*
X101152288Y-56179278D01*
X101180828Y-56176003D01*
X127138372Y-56176003D01*
X127206493Y-56196005D01*
G37*
%TD.AperFunction*%
%TA.AperFunction,Conductor*%
G36*
X105817012Y-78338256D02*
G01*
X105834462Y-78356776D01*
X105858118Y-78387605D01*
X105858122Y-78387609D01*
X105863145Y-78394155D01*
X105988168Y-78490088D01*
X105995794Y-78493247D01*
X105995796Y-78493248D01*
X106004461Y-78496837D01*
X106133760Y-78550395D01*
X106141944Y-78551472D01*
X106141946Y-78551473D01*
X106246688Y-78565262D01*
X106250775Y-78565800D01*
X107099897Y-78565800D01*
X107949224Y-78565799D01*
X107953308Y-78565261D01*
X107953314Y-78565261D01*
X108001921Y-78558862D01*
X108066240Y-78550395D01*
X108073862Y-78547238D01*
X108073865Y-78547237D01*
X108204204Y-78493248D01*
X108204206Y-78493247D01*
X108211832Y-78490088D01*
X108336855Y-78394155D01*
X108341878Y-78387609D01*
X108347723Y-78381764D01*
X108348877Y-78382918D01*
X108398482Y-78346697D01*
X108469353Y-78342475D01*
X108531256Y-78377238D01*
X108564538Y-78439950D01*
X108565695Y-78470084D01*
X108566500Y-78470084D01*
X108566500Y-78490338D01*
X108564949Y-78510048D01*
X108561780Y-78530057D01*
X108562526Y-78537949D01*
X108565941Y-78574075D01*
X108566500Y-78585933D01*
X108566500Y-79363777D01*
X108546498Y-79431898D01*
X108492842Y-79478391D01*
X108422568Y-79488495D01*
X108409805Y-79485981D01*
X108346322Y-79470035D01*
X108346318Y-79470035D01*
X108338951Y-79468184D01*
X108331352Y-79468144D01*
X108331350Y-79468144D01*
X108259894Y-79467770D01*
X108167469Y-79467286D01*
X108160089Y-79469058D01*
X108160087Y-79469058D01*
X108008102Y-79505546D01*
X108008098Y-79505547D01*
X108000723Y-79507318D01*
X107944087Y-79536550D01*
X107876678Y-79571342D01*
X107818888Y-79585376D01*
X106626365Y-79585376D01*
X106567409Y-79570732D01*
X106533119Y-79552576D01*
X106492527Y-79542380D01*
X106374172Y-79512651D01*
X106374168Y-79512651D01*
X106366801Y-79510800D01*
X106359202Y-79510760D01*
X106359200Y-79510760D01*
X106287744Y-79510386D01*
X106195319Y-79509902D01*
X106187939Y-79511674D01*
X106187937Y-79511674D01*
X106158987Y-79518624D01*
X106138912Y-79523444D01*
X106068005Y-79519897D01*
X106010271Y-79478577D01*
X105984041Y-79412604D01*
X105983499Y-79400925D01*
X105983499Y-79068070D01*
X105980459Y-79044971D01*
X105970074Y-78966084D01*
X105970073Y-78966082D01*
X105968996Y-78957897D01*
X105912216Y-78820819D01*
X105847047Y-78735888D01*
X105826916Y-78709653D01*
X105821893Y-78703107D01*
X105704181Y-78612784D01*
X105696554Y-78609625D01*
X105696544Y-78609619D01*
X105686279Y-78605367D01*
X105630999Y-78560818D01*
X105608500Y-78488960D01*
X105608500Y-78433480D01*
X105628502Y-78365359D01*
X105682158Y-78318866D01*
X105752432Y-78308762D01*
X105817012Y-78338256D01*
G37*
%TD.AperFunction*%
%TA.AperFunction,Conductor*%
G36*
X109709647Y-75114281D02*
G01*
X109726175Y-75124903D01*
X109803073Y-75183272D01*
X109935158Y-75235567D01*
X109943472Y-75236573D01*
X109943684Y-75236664D01*
X109951035Y-75238531D01*
X109950739Y-75239697D01*
X110008696Y-75264616D01*
X110045482Y-75315275D01*
X110047803Y-75321137D01*
X110051649Y-75332369D01*
X110055119Y-75344314D01*
X110063982Y-75374820D01*
X110068015Y-75381639D01*
X110068017Y-75381644D01*
X110074293Y-75392255D01*
X110082988Y-75410003D01*
X110090448Y-75428844D01*
X110095110Y-75435260D01*
X110095110Y-75435261D01*
X110116436Y-75464614D01*
X110122952Y-75474534D01*
X110139429Y-75502394D01*
X110145458Y-75512589D01*
X110159779Y-75526910D01*
X110172619Y-75541943D01*
X110184528Y-75558334D01*
X110204264Y-75574661D01*
X110218605Y-75586525D01*
X110227384Y-75594515D01*
X113619125Y-78986257D01*
X113653151Y-79048569D01*
X113648086Y-79119385D01*
X113605539Y-79176220D01*
X113539019Y-79201031D01*
X113507069Y-79199242D01*
X113452282Y-79189088D01*
X113452281Y-79189088D01*
X113444814Y-79187704D01*
X113437234Y-79188141D01*
X113437233Y-79188141D01*
X113382608Y-79191291D01*
X113375354Y-79191500D01*
X110461605Y-79191500D01*
X110394091Y-79171886D01*
X110309970Y-79118501D01*
X110309966Y-79118499D01*
X110304027Y-79114730D01*
X110297394Y-79112368D01*
X110139786Y-79056246D01*
X110139781Y-79056245D01*
X110133151Y-79053884D01*
X110126163Y-79053051D01*
X110126160Y-79053050D01*
X110003059Y-79038371D01*
X109957751Y-79032969D01*
X109957749Y-79032968D01*
X109953041Y-79032407D01*
X109953140Y-79031580D01*
X109890642Y-79012754D01*
X109844524Y-78958776D01*
X109833500Y-78907234D01*
X109833500Y-78867046D01*
X109853502Y-78798925D01*
X109867649Y-78780794D01*
X109903654Y-78742452D01*
X109906410Y-78739609D01*
X109926146Y-78719873D01*
X109928626Y-78716676D01*
X109936331Y-78707654D01*
X109951319Y-78691693D01*
X109966597Y-78675424D01*
X109970416Y-78668478D01*
X109970418Y-78668475D01*
X109976359Y-78657669D01*
X109987210Y-78641150D01*
X109994769Y-78631404D01*
X109999625Y-78625144D01*
X110002770Y-78617875D01*
X110002773Y-78617871D01*
X110017185Y-78584566D01*
X110022402Y-78573916D01*
X110043706Y-78535163D01*
X110048744Y-78515540D01*
X110055148Y-78496837D01*
X110060044Y-78485523D01*
X110060044Y-78485522D01*
X110063192Y-78478248D01*
X110064431Y-78470425D01*
X110064434Y-78470415D01*
X110070110Y-78434579D01*
X110072516Y-78422959D01*
X110081539Y-78387814D01*
X110081539Y-78387813D01*
X110083511Y-78380133D01*
X110083511Y-78359879D01*
X110085062Y-78340168D01*
X110086991Y-78327989D01*
X110088231Y-78320160D01*
X110084070Y-78276141D01*
X110083511Y-78264284D01*
X110083511Y-77753393D01*
X110084038Y-77742210D01*
X110085713Y-77734717D01*
X110085173Y-77717518D01*
X110083573Y-77666627D01*
X110083511Y-77662669D01*
X110083511Y-77634769D01*
X110083007Y-77630778D01*
X110082074Y-77618936D01*
X110081553Y-77602338D01*
X110080685Y-77574736D01*
X110077029Y-77562151D01*
X110075032Y-77555277D01*
X110071023Y-77535918D01*
X110070717Y-77533500D01*
X110068485Y-77515828D01*
X110065569Y-77508462D01*
X110065567Y-77508456D01*
X110052211Y-77474723D01*
X110048366Y-77463493D01*
X110038241Y-77428642D01*
X110038241Y-77428641D01*
X110036030Y-77421032D01*
X110025716Y-77403591D01*
X110017019Y-77385838D01*
X110012483Y-77374383D01*
X110009563Y-77367008D01*
X109983574Y-77331237D01*
X109977058Y-77321317D01*
X109958589Y-77290088D01*
X109954553Y-77283263D01*
X109940232Y-77268942D01*
X109927391Y-77253908D01*
X109920142Y-77243931D01*
X109915483Y-77237518D01*
X109909379Y-77232468D01*
X109909374Y-77232463D01*
X109881413Y-77209332D01*
X109872632Y-77201342D01*
X108994924Y-76323633D01*
X108960899Y-76261321D01*
X108958020Y-76234538D01*
X108958020Y-75371800D01*
X108978022Y-75303679D01*
X109031678Y-75257186D01*
X109084020Y-75245800D01*
X109280284Y-75245800D01*
X109364842Y-75235567D01*
X109496927Y-75183272D01*
X109573822Y-75124905D01*
X109640174Y-75099653D01*
X109709647Y-75114281D01*
G37*
%TD.AperFunction*%
%TA.AperFunction,Conductor*%
G36*
X108717012Y-77837984D02*
G01*
X108723595Y-77844113D01*
X108776677Y-77897195D01*
X108810703Y-77959507D01*
X108805638Y-78030322D01*
X108779433Y-78072542D01*
X108746357Y-78107765D01*
X108743601Y-78110608D01*
X108723865Y-78130344D01*
X108723785Y-78130264D01*
X108664823Y-78167449D01*
X108593829Y-78166844D01*
X108534433Y-78127953D01*
X108505491Y-78063123D01*
X108505435Y-78029811D01*
X108507962Y-78010617D01*
X108507963Y-78010606D01*
X108508500Y-78006525D01*
X108508500Y-77933208D01*
X108528502Y-77865087D01*
X108582158Y-77818594D01*
X108652432Y-77808490D01*
X108717012Y-77837984D01*
G37*
%TD.AperFunction*%
%TA.AperFunction,Conductor*%
G36*
X114829529Y-65000413D02*
G01*
X114852510Y-65003194D01*
X114852511Y-65003194D01*
X114853318Y-65003292D01*
X114853351Y-65003295D01*
X114854266Y-65003406D01*
X114884724Y-65006165D01*
X114899861Y-65007078D01*
X114900761Y-65007105D01*
X114900780Y-65007106D01*
X114914329Y-65007514D01*
X114930446Y-65008000D01*
X115033129Y-65008000D01*
X115101250Y-65028002D01*
X115122224Y-65044905D01*
X115604595Y-65527276D01*
X115638621Y-65589588D01*
X115641500Y-65616371D01*
X115641500Y-66052937D01*
X115640067Y-66071887D01*
X115636801Y-66093356D01*
X115637394Y-66100648D01*
X115637394Y-66100651D01*
X115641085Y-66146025D01*
X115641500Y-66156240D01*
X115641500Y-66164300D01*
X115641925Y-66167944D01*
X115644789Y-66192514D01*
X115645222Y-66196889D01*
X115650188Y-66257934D01*
X115651140Y-66269644D01*
X115653396Y-66276608D01*
X115654587Y-66282567D01*
X115655971Y-66288422D01*
X115656818Y-66295688D01*
X115681735Y-66364334D01*
X115683152Y-66368462D01*
X115695744Y-66407330D01*
X115705649Y-66437906D01*
X115709445Y-66444161D01*
X115711951Y-66449635D01*
X115714670Y-66455065D01*
X115717167Y-66461944D01*
X115721180Y-66468064D01*
X115721180Y-66468065D01*
X115757186Y-66522983D01*
X115759523Y-66526687D01*
X115797405Y-66589114D01*
X115801121Y-66593322D01*
X115801122Y-66593323D01*
X115804803Y-66597491D01*
X115804776Y-66597515D01*
X115807429Y-66600507D01*
X115810132Y-66603740D01*
X115814144Y-66609859D01*
X115819456Y-66614891D01*
X115870383Y-66663135D01*
X115872825Y-66665513D01*
X117835166Y-68627854D01*
X117869192Y-68690166D01*
X117864127Y-68760981D01*
X117821580Y-68817817D01*
X117755060Y-68842628D01*
X117746071Y-68842949D01*
X113936536Y-68842949D01*
X113925353Y-68842422D01*
X113917860Y-68840747D01*
X113909934Y-68840996D01*
X113909933Y-68840996D01*
X113849783Y-68842887D01*
X113845824Y-68842949D01*
X113817913Y-68842949D01*
X113813979Y-68843446D01*
X113813978Y-68843446D01*
X113813913Y-68843454D01*
X113802076Y-68844387D01*
X113770259Y-68845387D01*
X113765798Y-68845527D01*
X113757879Y-68845776D01*
X113740223Y-68850905D01*
X113738427Y-68851427D01*
X113719075Y-68855435D01*
X113712004Y-68856329D01*
X113698972Y-68857975D01*
X113691603Y-68860892D01*
X113691601Y-68860893D01*
X113657866Y-68874249D01*
X113646638Y-68878094D01*
X113604176Y-68890431D01*
X113597354Y-68894465D01*
X113597348Y-68894468D01*
X113586737Y-68900743D01*
X113568987Y-68909439D01*
X113557525Y-68913977D01*
X113557520Y-68913980D01*
X113550152Y-68916897D01*
X113543737Y-68921558D01*
X113514394Y-68942876D01*
X113504476Y-68949392D01*
X113486396Y-68960085D01*
X113466406Y-68971907D01*
X113452082Y-68986231D01*
X113437050Y-68999070D01*
X113420662Y-69010977D01*
X113401159Y-69034552D01*
X113392481Y-69045042D01*
X113384491Y-69053822D01*
X111448595Y-70989718D01*
X111386283Y-71023744D01*
X111315468Y-71018679D01*
X111258632Y-70976132D01*
X111233821Y-70909612D01*
X111233500Y-70900623D01*
X111233500Y-70415972D01*
X111253502Y-70347851D01*
X111270405Y-70326877D01*
X111524948Y-70072334D01*
X111575106Y-70041596D01*
X111612765Y-70029360D01*
X111716011Y-69995813D01*
X111862179Y-69908679D01*
X111867273Y-69903828D01*
X111867277Y-69903825D01*
X111958541Y-69816915D01*
X111985410Y-69791328D01*
X112006005Y-69760331D01*
X112032616Y-69720278D01*
X112079580Y-69649591D01*
X112140008Y-69490514D01*
X112163690Y-69322002D01*
X112163988Y-69300689D01*
X112145020Y-69131581D01*
X112139103Y-69114588D01*
X112099027Y-68999509D01*
X112089057Y-68970878D01*
X112083072Y-68961299D01*
X112055777Y-68917619D01*
X111998881Y-68826568D01*
X111878975Y-68705821D01*
X111862728Y-68695510D01*
X111823348Y-68670519D01*
X111735297Y-68614640D01*
X111574989Y-68557557D01*
X111406018Y-68537409D01*
X111399015Y-68538145D01*
X111399014Y-68538145D01*
X111243790Y-68554459D01*
X111243786Y-68554460D01*
X111236782Y-68555196D01*
X111230111Y-68557467D01*
X111082362Y-68607764D01*
X111082359Y-68607765D01*
X111075692Y-68610035D01*
X111069694Y-68613725D01*
X111069692Y-68613726D01*
X110936754Y-68695510D01*
X110936752Y-68695512D01*
X110930755Y-68699201D01*
X110925722Y-68704130D01*
X110827975Y-68799852D01*
X110809175Y-68818262D01*
X110805364Y-68824176D01*
X110805362Y-68824178D01*
X110720810Y-68955376D01*
X110716993Y-68961299D01*
X110705817Y-68992005D01*
X110668922Y-69093374D01*
X110658792Y-69121205D01*
X110658732Y-69121682D01*
X110626683Y-69178790D01*
X110207747Y-69597726D01*
X110199461Y-69605266D01*
X110192982Y-69609378D01*
X110187557Y-69615155D01*
X110146357Y-69659029D01*
X110143602Y-69661871D01*
X110123865Y-69681608D01*
X110121385Y-69684805D01*
X110113682Y-69693825D01*
X110083414Y-69726057D01*
X110079595Y-69733003D01*
X110079593Y-69733006D01*
X110073652Y-69743812D01*
X110062801Y-69760331D01*
X110050386Y-69776337D01*
X110047241Y-69783606D01*
X110047238Y-69783610D01*
X110032826Y-69816915D01*
X110027609Y-69827565D01*
X110006305Y-69866318D01*
X110004334Y-69873993D01*
X110004334Y-69873994D01*
X110001267Y-69885940D01*
X109994863Y-69904644D01*
X109986819Y-69923233D01*
X109985580Y-69931056D01*
X109985577Y-69931066D01*
X109979901Y-69966902D01*
X109977495Y-69978522D01*
X109966500Y-70021348D01*
X109966500Y-70041602D01*
X109964949Y-70061312D01*
X109961780Y-70081321D01*
X109962526Y-70089213D01*
X109965941Y-70125339D01*
X109966500Y-70137197D01*
X109966500Y-71345638D01*
X109946411Y-71413893D01*
X109916304Y-71460610D01*
X109858103Y-71620516D01*
X109836775Y-71789343D01*
X109853381Y-71958699D01*
X109855605Y-71965384D01*
X109855605Y-71965385D01*
X109869572Y-72007372D01*
X109907094Y-72120167D01*
X109910741Y-72126189D01*
X109910742Y-72126191D01*
X109985904Y-72250297D01*
X109995246Y-72265723D01*
X110000136Y-72270787D01*
X110004438Y-72276373D01*
X110002227Y-72278075D01*
X110029295Y-72329798D01*
X110022980Y-72400513D01*
X109994816Y-72443497D01*
X109757747Y-72680566D01*
X109749461Y-72688106D01*
X109742982Y-72692218D01*
X109737557Y-72697995D01*
X109696357Y-72741869D01*
X109693602Y-72744711D01*
X109673865Y-72764448D01*
X109671436Y-72767580D01*
X109668818Y-72770549D01*
X109668128Y-72769940D01*
X109613935Y-72809086D01*
X109543043Y-72812943D01*
X109510068Y-72800071D01*
X109503772Y-72796523D01*
X109496927Y-72791328D01*
X109364842Y-72739033D01*
X109280284Y-72728800D01*
X109019716Y-72728800D01*
X108935158Y-72739033D01*
X108803073Y-72791328D01*
X108689918Y-72877218D01*
X108604028Y-72990373D01*
X108600864Y-72998365D01*
X108555236Y-73113609D01*
X108511562Y-73169583D01*
X108454473Y-73191312D01*
X108454513Y-73191500D01*
X108453302Y-73191757D01*
X108453300Y-73191758D01*
X108267712Y-73231206D01*
X108261682Y-73233891D01*
X108261681Y-73233891D01*
X108099278Y-73306197D01*
X108099276Y-73306198D01*
X108093248Y-73308882D01*
X107983560Y-73388575D01*
X107916694Y-73412433D01*
X107847542Y-73396353D01*
X107798062Y-73345440D01*
X107783500Y-73286639D01*
X107783500Y-72048119D01*
X107792592Y-72001123D01*
X107809646Y-71958699D01*
X107839385Y-71884720D01*
X107844234Y-71850646D01*
X107862966Y-71719031D01*
X107862966Y-71719027D01*
X107863547Y-71714947D01*
X107863704Y-71700000D01*
X107843102Y-71529758D01*
X107832518Y-71501748D01*
X107827150Y-71430955D01*
X107861818Y-71368232D01*
X107861710Y-71368136D01*
X107862132Y-71367663D01*
X107957975Y-71260241D01*
X107984265Y-71204813D01*
X108018008Y-71133673D01*
X108018010Y-71133669D01*
X108019940Y-71129599D01*
X108040927Y-71061775D01*
X108063576Y-70918970D01*
X108074017Y-70198520D01*
X108074971Y-70132673D01*
X108095958Y-70064850D01*
X108150282Y-70019140D01*
X108200958Y-70008500D01*
X108902614Y-70008500D01*
X108992066Y-69997675D01*
X108999594Y-69994695D01*
X108999596Y-69994694D01*
X109069790Y-69966902D01*
X109131792Y-69942354D01*
X109251495Y-69851495D01*
X109342354Y-69731792D01*
X109397675Y-69592066D01*
X109400668Y-69593251D01*
X109429161Y-69545072D01*
X109441099Y-69535226D01*
X109443398Y-69533556D01*
X109453307Y-69527048D01*
X109484535Y-69508580D01*
X109484538Y-69508578D01*
X109491362Y-69504542D01*
X109505683Y-69490221D01*
X109520717Y-69477380D01*
X109530694Y-69470131D01*
X109537107Y-69465472D01*
X109565298Y-69431395D01*
X109573288Y-69422616D01*
X109742247Y-69253657D01*
X109750537Y-69246113D01*
X109757018Y-69242000D01*
X109803659Y-69192332D01*
X109806413Y-69189491D01*
X109826134Y-69169770D01*
X109828612Y-69166575D01*
X109836318Y-69157553D01*
X109861158Y-69131101D01*
X109866586Y-69125321D01*
X109876346Y-69107568D01*
X109887199Y-69091045D01*
X109894753Y-69081306D01*
X109899613Y-69075041D01*
X109917176Y-69034457D01*
X109922383Y-69023827D01*
X109943695Y-68985060D01*
X109945666Y-68977383D01*
X109945668Y-68977378D01*
X109948732Y-68965442D01*
X109955138Y-68946730D01*
X109960034Y-68935417D01*
X109963181Y-68928145D01*
X109965651Y-68912554D01*
X109970097Y-68884481D01*
X109972504Y-68872860D01*
X109981528Y-68837711D01*
X109981528Y-68837710D01*
X109983500Y-68830030D01*
X109983500Y-68809769D01*
X109985051Y-68790058D01*
X109986016Y-68783969D01*
X109988219Y-68770057D01*
X109984059Y-68726046D01*
X109983500Y-68714189D01*
X109983500Y-67935007D01*
X110003502Y-67866886D01*
X110057158Y-67820393D01*
X110127432Y-67810289D01*
X110192012Y-67839783D01*
X110226652Y-67888623D01*
X110235112Y-67909989D01*
X110256139Y-67963098D01*
X110261332Y-67969939D01*
X110261334Y-67969943D01*
X110336879Y-68069468D01*
X110344928Y-68080072D01*
X110351768Y-68085264D01*
X110455057Y-68163666D01*
X110455061Y-68163668D01*
X110461902Y-68168861D01*
X110598444Y-68222922D01*
X110606481Y-68223895D01*
X110606483Y-68223895D01*
X110638770Y-68227802D01*
X110685859Y-68233500D01*
X111049711Y-68233500D01*
X111414140Y-68233499D01*
X111452898Y-68228809D01*
X111493527Y-68223894D01*
X111493531Y-68223893D01*
X111501556Y-68222922D01*
X111509073Y-68219946D01*
X111509076Y-68219945D01*
X111578602Y-68192417D01*
X111638098Y-68168861D01*
X111716780Y-68109138D01*
X111783132Y-68083884D01*
X111792959Y-68083500D01*
X111821233Y-68083500D01*
X111832416Y-68084027D01*
X111839909Y-68085702D01*
X111847835Y-68085453D01*
X111847836Y-68085453D01*
X111907986Y-68083562D01*
X111911945Y-68083500D01*
X111939856Y-68083500D01*
X111943791Y-68083003D01*
X111943856Y-68082995D01*
X111955693Y-68082062D01*
X111987951Y-68081048D01*
X111991970Y-68080922D01*
X111999889Y-68080673D01*
X112019343Y-68075021D01*
X112038700Y-68071013D01*
X112050930Y-68069468D01*
X112050931Y-68069468D01*
X112058797Y-68068474D01*
X112066168Y-68065555D01*
X112066170Y-68065555D01*
X112099912Y-68052196D01*
X112111142Y-68048351D01*
X112145983Y-68038229D01*
X112145984Y-68038229D01*
X112153593Y-68036018D01*
X112160412Y-68031985D01*
X112160417Y-68031983D01*
X112171028Y-68025707D01*
X112188776Y-68017012D01*
X112207617Y-68009552D01*
X112243387Y-67983564D01*
X112253307Y-67977048D01*
X112284535Y-67958580D01*
X112284538Y-67958578D01*
X112291362Y-67954542D01*
X112305683Y-67940221D01*
X112320717Y-67927380D01*
X112330694Y-67920131D01*
X112337107Y-67915472D01*
X112341749Y-67909860D01*
X112404846Y-67877939D01*
X112475468Y-67885228D01*
X112516841Y-67912746D01*
X112530230Y-67926135D01*
X112533427Y-67928615D01*
X112542447Y-67936318D01*
X112574679Y-67966586D01*
X112581625Y-67970405D01*
X112581628Y-67970407D01*
X112592434Y-67976348D01*
X112608953Y-67987199D01*
X112624959Y-67999614D01*
X112632228Y-68002759D01*
X112632232Y-68002762D01*
X112665537Y-68017174D01*
X112676187Y-68022391D01*
X112714940Y-68043695D01*
X112722615Y-68045666D01*
X112722616Y-68045666D01*
X112734562Y-68048733D01*
X112753267Y-68055137D01*
X112771855Y-68063181D01*
X112779678Y-68064420D01*
X112779688Y-68064423D01*
X112815524Y-68070099D01*
X112827144Y-68072505D01*
X112856618Y-68080072D01*
X112869970Y-68083500D01*
X112890224Y-68083500D01*
X112909934Y-68085051D01*
X112929943Y-68088220D01*
X112937835Y-68087474D01*
X112956580Y-68085702D01*
X112973962Y-68084059D01*
X112985819Y-68083500D01*
X113571233Y-68083500D01*
X113582416Y-68084027D01*
X113589909Y-68085702D01*
X113597835Y-68085453D01*
X113597836Y-68085453D01*
X113657986Y-68083562D01*
X113661945Y-68083500D01*
X113689856Y-68083500D01*
X113693791Y-68083003D01*
X113693856Y-68082995D01*
X113705693Y-68082062D01*
X113737951Y-68081048D01*
X113741970Y-68080922D01*
X113749889Y-68080673D01*
X113769343Y-68075021D01*
X113788700Y-68071013D01*
X113800930Y-68069468D01*
X113800931Y-68069468D01*
X113808797Y-68068474D01*
X113816168Y-68065555D01*
X113816170Y-68065555D01*
X113849912Y-68052196D01*
X113861142Y-68048351D01*
X113895983Y-68038229D01*
X113895984Y-68038229D01*
X113903593Y-68036018D01*
X113910412Y-68031985D01*
X113910417Y-68031983D01*
X113921028Y-68025707D01*
X113938776Y-68017012D01*
X113957617Y-68009552D01*
X113993387Y-67983564D01*
X114003307Y-67977048D01*
X114034535Y-67958580D01*
X114034538Y-67958578D01*
X114041362Y-67954542D01*
X114055683Y-67940221D01*
X114070717Y-67927380D01*
X114080694Y-67920131D01*
X114087107Y-67915472D01*
X114115298Y-67881395D01*
X114123288Y-67872616D01*
X114300499Y-67695405D01*
X114362811Y-67661379D01*
X114389594Y-67658500D01*
X114852614Y-67658500D01*
X114942066Y-67647675D01*
X114949594Y-67644695D01*
X114949596Y-67644694D01*
X115036859Y-67610144D01*
X115081792Y-67592354D01*
X115201495Y-67501495D01*
X115292354Y-67381792D01*
X115341114Y-67258638D01*
X115344694Y-67249596D01*
X115344695Y-67249594D01*
X115347675Y-67242066D01*
X115358500Y-67152614D01*
X115358500Y-66347386D01*
X115347675Y-66257934D01*
X115341935Y-66243435D01*
X115310603Y-66164300D01*
X115292354Y-66118208D01*
X115201495Y-65998505D01*
X115081792Y-65907646D01*
X115000009Y-65875266D01*
X114949596Y-65855306D01*
X114949594Y-65855305D01*
X114942066Y-65852325D01*
X114852614Y-65841500D01*
X114260363Y-65841500D01*
X114192242Y-65821498D01*
X114145749Y-65767842D01*
X114134425Y-65719460D01*
X114133562Y-65692015D01*
X114133500Y-65688055D01*
X114133500Y-65660144D01*
X114132995Y-65656144D01*
X114132062Y-65644301D01*
X114130922Y-65608030D01*
X114130673Y-65600111D01*
X114125021Y-65580657D01*
X114121013Y-65561300D01*
X114119468Y-65549070D01*
X114119468Y-65549069D01*
X114118474Y-65541203D01*
X114112960Y-65527276D01*
X114102196Y-65500088D01*
X114098351Y-65488858D01*
X114088229Y-65454017D01*
X114088229Y-65454016D01*
X114086018Y-65446407D01*
X114081985Y-65439588D01*
X114081983Y-65439583D01*
X114075707Y-65428972D01*
X114067012Y-65411224D01*
X114059552Y-65392383D01*
X114033564Y-65356613D01*
X114027048Y-65346693D01*
X114019053Y-65333175D01*
X114004542Y-65308638D01*
X113998936Y-65303031D01*
X113990220Y-65294315D01*
X113977379Y-65279281D01*
X113970131Y-65269305D01*
X113970130Y-65269304D01*
X113965472Y-65262893D01*
X113931407Y-65234712D01*
X113922627Y-65226722D01*
X113910500Y-65214595D01*
X113876474Y-65152283D01*
X113881539Y-65081468D01*
X113924086Y-65024632D01*
X113990606Y-64999821D01*
X113999595Y-64999500D01*
X114814392Y-64999500D01*
X114829529Y-65000413D01*
G37*
%TD.AperFunction*%
%TA.AperFunction,Conductor*%
G36*
X117367012Y-65260001D02*
G01*
X117373595Y-65266130D01*
X117496517Y-65389052D01*
X117530543Y-65451364D01*
X117532506Y-65462987D01*
X117536025Y-65492066D01*
X117539005Y-65499594D01*
X117539006Y-65499596D01*
X117552560Y-65533830D01*
X117591346Y-65631792D01*
X117682205Y-65751495D01*
X117801908Y-65842354D01*
X117883691Y-65874734D01*
X117934104Y-65894694D01*
X117934106Y-65894695D01*
X117941634Y-65897675D01*
X118031086Y-65908500D01*
X118062144Y-65908500D01*
X118121684Y-65923455D01*
X118144263Y-65935562D01*
X118277765Y-65976378D01*
X118327500Y-65991584D01*
X118327502Y-65991584D01*
X118333398Y-65993387D01*
X118383783Y-65998505D01*
X118524034Y-66012752D01*
X118524039Y-66012752D01*
X118530162Y-66013374D01*
X118654225Y-66001646D01*
X118720929Y-65995341D01*
X118720931Y-65995341D01*
X118727062Y-65994761D01*
X118878711Y-65949553D01*
X118910693Y-65940019D01*
X118910695Y-65940018D01*
X118916596Y-65938259D01*
X118922045Y-65935386D01*
X118922050Y-65935384D01*
X118945457Y-65923043D01*
X119004221Y-65908500D01*
X119040731Y-65908500D01*
X119108852Y-65928502D01*
X119155345Y-65982158D01*
X119166486Y-66042360D01*
X119151248Y-66286159D01*
X119151248Y-66286168D01*
X119151027Y-66289703D01*
X119156772Y-66403832D01*
X119157346Y-66407325D01*
X119157347Y-66407330D01*
X119162376Y-66437906D01*
X119165913Y-66459412D01*
X119197020Y-66569363D01*
X119270268Y-66694029D01*
X119273076Y-66697544D01*
X119273080Y-66697550D01*
X119285174Y-66712689D01*
X119314579Y-66749500D01*
X119317852Y-66752573D01*
X119317858Y-66752580D01*
X119345505Y-66778541D01*
X119419988Y-66848483D01*
X119549008Y-66913756D01*
X119553273Y-66915196D01*
X119553276Y-66915197D01*
X119607240Y-66933414D01*
X119616275Y-66936464D01*
X119758453Y-66962744D01*
X119762945Y-66962924D01*
X119762948Y-66962924D01*
X120212993Y-66980926D01*
X120528672Y-66993554D01*
X120595937Y-67016261D01*
X120640042Y-67071233D01*
X120676543Y-67159354D01*
X120717625Y-67212893D01*
X120757965Y-67265465D01*
X120773278Y-67285422D01*
X120899346Y-67382157D01*
X120972751Y-67412562D01*
X121038525Y-67439807D01*
X121038528Y-67439808D01*
X121046155Y-67442967D01*
X121164141Y-67458500D01*
X121186330Y-67458500D01*
X121246845Y-67473984D01*
X121265774Y-67484349D01*
X121332264Y-67509239D01*
X121336664Y-67510202D01*
X121336665Y-67510202D01*
X121469110Y-67539180D01*
X121469112Y-67539180D01*
X121473512Y-67540143D01*
X121478004Y-67540470D01*
X121478006Y-67540470D01*
X121977207Y-67576775D01*
X122375657Y-67605753D01*
X122442148Y-67630643D01*
X122460155Y-67647111D01*
X122488747Y-67678866D01*
X122494089Y-67682747D01*
X122494091Y-67682749D01*
X122637906Y-67787237D01*
X122643248Y-67791118D01*
X122649276Y-67793802D01*
X122649278Y-67793803D01*
X122811681Y-67866109D01*
X122817712Y-67868794D01*
X122911000Y-67888623D01*
X122998056Y-67907128D01*
X122998061Y-67907128D01*
X123004513Y-67908500D01*
X123195487Y-67908500D01*
X123204166Y-67906655D01*
X123205484Y-67906756D01*
X123208515Y-67906437D01*
X123208573Y-67906991D01*
X123274956Y-67912054D01*
X123331590Y-67954869D01*
X123355965Y-68019852D01*
X123363927Y-68119368D01*
X123370282Y-68198809D01*
X123355776Y-68268308D01*
X123333778Y-68297952D01*
X122748137Y-68883593D01*
X122685825Y-68917619D01*
X122615010Y-68912554D01*
X122558174Y-68870007D01*
X122553668Y-68863580D01*
X122551907Y-68860893D01*
X122542812Y-68847021D01*
X122540467Y-68843305D01*
X122540251Y-68842949D01*
X122502595Y-68780893D01*
X122495197Y-68772516D01*
X122495224Y-68772492D01*
X122492571Y-68769500D01*
X122489868Y-68766267D01*
X122485856Y-68760148D01*
X122429617Y-68706872D01*
X122427175Y-68704494D01*
X122035699Y-68313018D01*
X122023313Y-68298606D01*
X122014780Y-68287011D01*
X122014775Y-68287006D01*
X122010437Y-68281111D01*
X122004859Y-68276372D01*
X122004856Y-68276369D01*
X121970161Y-68246894D01*
X121962645Y-68239964D01*
X121956950Y-68234269D01*
X121950809Y-68229411D01*
X121934678Y-68216648D01*
X121931274Y-68213857D01*
X121881226Y-68171338D01*
X121881224Y-68171337D01*
X121875644Y-68166596D01*
X121869128Y-68163268D01*
X121864079Y-68159901D01*
X121858950Y-68156734D01*
X121853213Y-68152195D01*
X121787054Y-68121274D01*
X121783154Y-68119368D01*
X121763120Y-68109138D01*
X121718121Y-68086160D01*
X121711013Y-68084421D01*
X121705370Y-68082322D01*
X121699607Y-68080405D01*
X121692979Y-68077307D01*
X121681994Y-68075022D01*
X121636479Y-68065555D01*
X121621512Y-68062442D01*
X121617228Y-68061472D01*
X121546319Y-68044121D01*
X121540717Y-68043773D01*
X121540714Y-68043773D01*
X121535165Y-68043429D01*
X121535167Y-68043393D01*
X121531174Y-68043154D01*
X121526982Y-68042780D01*
X121519814Y-68041289D01*
X121453604Y-68043080D01*
X121442408Y-68043383D01*
X121439001Y-68043429D01*
X119448293Y-68043429D01*
X119380172Y-68023427D01*
X119359198Y-68006524D01*
X117195405Y-65842731D01*
X117161379Y-65780419D01*
X117158500Y-65753636D01*
X117158500Y-65355225D01*
X117178502Y-65287104D01*
X117232158Y-65240611D01*
X117302432Y-65230507D01*
X117367012Y-65260001D01*
G37*
%TD.AperFunction*%
%TA.AperFunction,Conductor*%
G36*
X110053493Y-64633634D02*
G01*
X110053882Y-64632944D01*
X110059752Y-64636252D01*
X110060679Y-64636639D01*
X110068208Y-64642354D01*
X110135208Y-64668881D01*
X110200404Y-64694694D01*
X110200406Y-64694695D01*
X110207934Y-64697675D01*
X110241608Y-64701750D01*
X110272835Y-64705529D01*
X110338060Y-64733570D01*
X110377770Y-64792422D01*
X110379358Y-64863401D01*
X110348029Y-64917574D01*
X110344928Y-64919928D01*
X110339736Y-64926768D01*
X110261334Y-65030057D01*
X110261332Y-65030061D01*
X110256139Y-65036902D01*
X110202078Y-65173444D01*
X110191500Y-65260859D01*
X110191501Y-65839140D01*
X110193457Y-65855306D01*
X110201106Y-65918527D01*
X110201107Y-65918531D01*
X110202078Y-65926556D01*
X110205054Y-65934073D01*
X110205055Y-65934076D01*
X110228509Y-65993314D01*
X110256139Y-66063098D01*
X110261332Y-66069939D01*
X110261334Y-66069943D01*
X110322957Y-66151127D01*
X110344928Y-66180072D01*
X110351768Y-66185264D01*
X110455057Y-66263666D01*
X110455061Y-66263668D01*
X110461902Y-66268861D01*
X110598444Y-66322922D01*
X110606481Y-66323895D01*
X110606483Y-66323895D01*
X110638770Y-66327802D01*
X110685859Y-66333500D01*
X111049711Y-66333500D01*
X111414140Y-66333499D01*
X111445164Y-66329745D01*
X111450365Y-66329116D01*
X111520395Y-66340791D01*
X111572997Y-66388474D01*
X111591500Y-66454204D01*
X111591500Y-66545796D01*
X111571498Y-66613917D01*
X111517842Y-66660410D01*
X111450367Y-66670884D01*
X111414141Y-66666500D01*
X111050289Y-66666500D01*
X110685860Y-66666501D01*
X110649636Y-66670884D01*
X110606473Y-66676106D01*
X110606469Y-66676107D01*
X110598444Y-66677078D01*
X110590927Y-66680054D01*
X110590924Y-66680055D01*
X110521398Y-66707583D01*
X110461902Y-66731139D01*
X110455061Y-66736332D01*
X110455057Y-66736334D01*
X110351768Y-66814736D01*
X110344928Y-66819928D01*
X110339736Y-66826768D01*
X110261334Y-66930057D01*
X110261332Y-66930061D01*
X110256139Y-66936902D01*
X110202078Y-67073444D01*
X110191500Y-67160859D01*
X110191500Y-67390461D01*
X110171498Y-67458582D01*
X110117842Y-67505075D01*
X110047568Y-67515179D01*
X109982988Y-67485685D01*
X109944505Y-67425617D01*
X109936018Y-67396407D01*
X109929459Y-67385317D01*
X109925707Y-67378972D01*
X109917012Y-67361224D01*
X109909552Y-67342383D01*
X109883564Y-67306613D01*
X109877048Y-67296693D01*
X109858580Y-67265465D01*
X109858578Y-67265462D01*
X109854542Y-67258638D01*
X109840218Y-67244314D01*
X109827383Y-67229287D01*
X109815472Y-67212893D01*
X109781403Y-67184708D01*
X109772625Y-67176720D01*
X109653648Y-67057744D01*
X109646112Y-67049462D01*
X109642000Y-67042982D01*
X109609588Y-67012545D01*
X109593718Y-66997642D01*
X109557752Y-66936429D01*
X109560591Y-66865489D01*
X109568771Y-66846542D01*
X109570592Y-66843124D01*
X109572984Y-66839317D01*
X109601813Y-66774437D01*
X109624530Y-66694029D01*
X109639902Y-66639616D01*
X109641123Y-66635294D01*
X109655265Y-66529224D01*
X109659676Y-66468850D01*
X109660075Y-66438878D01*
X109657274Y-66378416D01*
X109642424Y-66319942D01*
X109622791Y-66242635D01*
X109622790Y-66242632D01*
X109621683Y-66238273D01*
X109594592Y-66172648D01*
X109589653Y-66164300D01*
X109551989Y-66100651D01*
X109520956Y-66048206D01*
X109514372Y-66042061D01*
X109514370Y-66042059D01*
X109443991Y-65976378D01*
X109407836Y-65915276D01*
X109404871Y-65869129D01*
X109408500Y-65839141D01*
X109408500Y-65816371D01*
X109428502Y-65748250D01*
X109445405Y-65727276D01*
X109588911Y-65583770D01*
X109603323Y-65571384D01*
X109614918Y-65562851D01*
X109614923Y-65562846D01*
X109620818Y-65558508D01*
X109625557Y-65552930D01*
X109625560Y-65552927D01*
X109655035Y-65518232D01*
X109661965Y-65510716D01*
X109667660Y-65505021D01*
X109675929Y-65494569D01*
X109685281Y-65482749D01*
X109688072Y-65479345D01*
X109730591Y-65429297D01*
X109730592Y-65429295D01*
X109735333Y-65423715D01*
X109738661Y-65417199D01*
X109742020Y-65412162D01*
X109745194Y-65407023D01*
X109749734Y-65401284D01*
X109780636Y-65335163D01*
X109782569Y-65331209D01*
X109790609Y-65315463D01*
X109815769Y-65266192D01*
X109817510Y-65259076D01*
X109819604Y-65253446D01*
X109821523Y-65247679D01*
X109824621Y-65241050D01*
X109826728Y-65230924D01*
X109839482Y-65169604D01*
X109840453Y-65165315D01*
X109843642Y-65152283D01*
X109857808Y-65094390D01*
X109858500Y-65083236D01*
X109858536Y-65083238D01*
X109858775Y-65079248D01*
X109859150Y-65075050D01*
X109860640Y-65067885D01*
X109858546Y-64990479D01*
X109858500Y-64987072D01*
X109858500Y-64737002D01*
X109878502Y-64668881D01*
X109932158Y-64622388D01*
X110002432Y-64612284D01*
X110053493Y-64633634D01*
G37*
%TD.AperFunction*%
%TD*%
M02*
