M48
; DRILL file {KiCad (6.0.1)} date Sat Jul 23 16:31:23 2022
; FORMAT={-:-/ absolute / metric / decimal}
; #@! TF.CreationDate,2022-07-23T16:31:23+08:00
; #@! TF.GenerationSoftware,Kicad,Pcbnew,(6.0.1)
; #@! TF.FileFunction,MixedPlating,1,2
FMAT,2
METRIC
; #@! TA.AperFunction,Plated,PTH,ViaDrill
T1C0.250
; #@! TA.AperFunction,Plated,PTH,ViaDrill
T2C0.300
; #@! TA.AperFunction,Plated,PTH,ViaDrill
T3C0.350
; #@! TA.AperFunction,Plated,PTH,ViaDrill
T4C0.370
; #@! TA.AperFunction,Plated,PTH,ViaDrill
T5C0.400
; #@! TA.AperFunction,Plated,PTH,ComponentDrill
T6C2.700
; #@! TA.AperFunction,Plated,PTH,ViaDrill
T7C3.000
%
G90
G05
T1
X100.4Y-81.0
X106.277Y-80.219
X106.5Y-80.775
X107.15Y-71.7
X108.182Y-80.775
X108.249Y-80.176
X110.45Y-80.6
X110.6Y-71.8
X114.9Y-81.139
X115.854Y-79.325
X116.356Y-79.654
X118.401Y-70.9
X119.0Y-70.9
X119.601Y-70.906
X119.65Y-72.95
X120.196Y-70.834
X120.8Y-70.85
X120.8Y-84.643
X121.5Y-85.2
X122.7Y-80.85
X122.7Y-81.35
X124.65Y-82.5
X126.431Y-82.51
X127.0Y-82.7
T2
X111.401Y-69.301
X112.0Y-79.2
X121.0Y-77.4
X127.9Y-72.6
X128.4Y-72.1
X128.8Y-71.3
T3
X119.1Y-78.8
X119.2Y-76.7
X119.2Y-77.3
X119.2Y-77.9
T4
X112.488Y-75.512
T5
X97.9Y-77.4
X98.0Y-76.5
X98.1Y-78.4
X98.8Y-77.5
X98.85Y-81.1
X98.9Y-76.6
X98.9Y-78.4
X99.0Y-67.85
X99.1Y-65.05
X99.1Y-65.95
X99.1Y-66.85
X99.2Y-72.35
X99.2Y-73.4
X102.8Y-71.6
X102.9Y-70.8
X102.9Y-72.6
X102.9Y-79.1
X103.0Y-69.8
X103.4Y-67.9
X104.0Y-83.7
X104.8Y-65.1
X104.8Y-83.7
X105.05Y-58.7
X105.05Y-59.65
X105.6Y-83.7
X106.065Y-58.644
X106.1Y-59.7
X106.4Y-83.7
X106.5Y-79.1
X106.7Y-65.2
X107.0Y-58.6
X107.0Y-59.7
X107.6Y-64.9
X108.5Y-61.0
X108.55Y-74.1
X108.725Y-78.0
X109.2Y-60.4
X109.3Y-76.5
X109.6Y-72.2
X109.8Y-59.8
X109.9Y-58.2
X109.9Y-59.0
X109.947Y-79.846
X110.0Y-66.0
X110.1Y-64.8
X110.2Y-77.7
X110.8Y-68.7
X111.1Y-77.8
X111.4Y-70.9
X112.6Y-78.6
X113.0Y-87.3
X113.1Y-84.65
X113.25Y-85.5
X113.35Y-86.45
X113.6Y-60.4
X113.6Y-61.3
X113.6Y-80.1
X113.7Y-58.8
X113.7Y-59.6
X114.5Y-58.3
X115.3Y-58.3
X115.4Y-68.3
X116.25Y-68.0
X116.6Y-59.5
X116.6Y-60.3
X116.6Y-61.1
X116.7Y-57.9
X116.7Y-58.7
X116.7Y-73.7
X117.5Y-61.1
X117.6Y-73.7
X118.3Y-61.2
X118.3Y-79.3
X119.2Y-61.2
X119.3Y-67.25
X120.1Y-57.95
X120.1Y-58.85
X120.1Y-61.2
X120.15Y-79.2
X120.3Y-83.9
X120.7Y-78.3
X121.0Y-61.2
X121.1Y-66.0
X121.143Y-57.942
X121.15Y-58.9
X121.2Y-75.1
X121.6Y-84.1
X122.1Y-57.9
X122.1Y-58.9
X122.2Y-80.0
X122.25Y-62.15
X122.4Y-84.1
X122.95Y-71.1
X123.0Y-66.2
X123.1Y-65.3
X123.1Y-67.0
X123.7Y-82.4
X123.8Y-78.8
X123.8Y-81.3
X124.0Y-65.3
X124.0Y-66.1
X124.0Y-67.0
X124.7Y-70.6
X124.9Y-73.7
X125.4Y-81.2
X125.5Y-70.6
X125.5Y-82.3
X126.3Y-81.3
X126.6Y-66.1
X126.6Y-67.0
X127.2Y-73.426
X127.4Y-67.1
X127.5Y-66.0
X129.1Y-79.5
X129.1Y-80.5
X129.2Y-77.6
X129.2Y-78.6
X129.5Y-70.7
T6
X105.8Y-86.1
X110.8Y-86.1
T7
X99.51Y-58.344
X99.51Y-85.244
X128.8Y-85.244
X128.81Y-58.344
T0
M30
