%TF.GenerationSoftware,KiCad,Pcbnew,(6.0.1)*%
%TF.CreationDate,2022-07-23T16:31:21+08:00*%
%TF.ProjectId,IMU_base_V7,494d555f-6261-4736-955f-56372e6b6963,rev?*%
%TF.SameCoordinates,Original*%
%TF.FileFunction,Paste,Top*%
%TF.FilePolarity,Positive*%
%FSLAX46Y46*%
G04 Gerber Fmt 4.6, Leading zero omitted, Abs format (unit mm)*
G04 Created by KiCad (PCBNEW (6.0.1)) date 2022-07-23 16:31:21*
%MOMM*%
%LPD*%
G01*
G04 APERTURE LIST*
G04 Aperture macros list*
%AMRoundRect*
0 Rectangle with rounded corners*
0 $1 Rounding radius*
0 $2 $3 $4 $5 $6 $7 $8 $9 X,Y pos of 4 corners*
0 Add a 4 corners polygon primitive as box body*
4,1,4,$2,$3,$4,$5,$6,$7,$8,$9,$2,$3,0*
0 Add four circle primitives for the rounded corners*
1,1,$1+$1,$2,$3*
1,1,$1+$1,$4,$5*
1,1,$1+$1,$6,$7*
1,1,$1+$1,$8,$9*
0 Add four rect primitives between the rounded corners*
20,1,$1+$1,$2,$3,$4,$5,0*
20,1,$1+$1,$4,$5,$6,$7,0*
20,1,$1+$1,$6,$7,$8,$9,0*
20,1,$1+$1,$8,$9,$2,$3,0*%
%AMFreePoly0*
4,1,6,0.520000,0.261152,0.520000,-0.395000,-0.520000,-0.395000,-0.520000,0.395000,0.386152,0.395000,0.520000,0.261152,0.520000,0.261152,$1*%
G04 Aperture macros list end*
%ADD10RoundRect,0.000000X0.450000X0.270000X-0.450000X0.270000X-0.450000X-0.270000X0.450000X-0.270000X0*%
%ADD11RoundRect,0.000000X-0.340000X0.425000X-0.340000X-0.425000X0.340000X-0.425000X0.340000X0.425000X0*%
%ADD12RoundRect,0.000000X-0.765000X-0.270000X0.765000X-0.270000X0.765000X0.270000X-0.765000X0.270000X0*%
%ADD13RoundRect,0.000000X-1.260000X-0.450000X1.260000X-0.450000X1.260000X0.450000X-1.260000X0.450000X0*%
%ADD14RoundRect,0.000000X-0.400000X-0.320000X0.400000X-0.320000X0.400000X0.320000X-0.400000X0.320000X0*%
%ADD15RoundRect,0.000000X-0.320000X0.400000X-0.320000X-0.400000X0.320000X-0.400000X0.320000X0.400000X0*%
%ADD16RoundRect,0.000000X0.340000X-0.425000X0.340000X0.425000X-0.340000X0.425000X-0.340000X-0.425000X0*%
%ADD17RoundRect,0.000000X0.560000X0.640000X-0.560000X0.640000X-0.560000X-0.640000X0.560000X-0.640000X0*%
%ADD18RoundRect,0.000000X0.320000X-0.400000X0.320000X0.400000X-0.320000X0.400000X-0.320000X-0.400000X0*%
%ADD19RoundRect,0.000000X0.765000X0.270000X-0.765000X0.270000X-0.765000X-0.270000X0.765000X-0.270000X0*%
%ADD20RoundRect,0.000000X1.260000X0.450000X-1.260000X0.450000X-1.260000X-0.450000X1.260000X-0.450000X0*%
%ADD21RoundRect,0.000000X0.420000X-0.520000X0.420000X0.520000X-0.420000X0.520000X-0.420000X-0.520000X0*%
%ADD22FreePoly0,90.000000*%
%ADD23RoundRect,0.000000X-0.425000X-0.340000X0.425000X-0.340000X0.425000X0.340000X-0.425000X0.340000X0*%
%ADD24RoundRect,0.000000X0.425000X0.340000X-0.425000X0.340000X-0.425000X-0.340000X0.425000X-0.340000X0*%
%ADD25RoundRect,0.000000X0.382500X0.135000X-0.382500X0.135000X-0.382500X-0.135000X0.382500X-0.135000X0*%
%ADD26RoundRect,0.000000X-0.135000X0.382500X-0.135000X-0.382500X0.135000X-0.382500X0.135000X0.382500X0*%
G04 APERTURE END LIST*
D10*
%TO.C,U4*%
X105400000Y-79210000D03*
X105400000Y-77940000D03*
X105400000Y-76670000D03*
X105400000Y-75400000D03*
X110800000Y-75400000D03*
X110800000Y-76670000D03*
X110800000Y-77940000D03*
X110800000Y-79210000D03*
%TD*%
D11*
%TO.C,C5*%
X123900000Y-72300000D03*
X122300000Y-72300000D03*
%TD*%
%TO.C,D3*%
X130350000Y-68950000D03*
X128750000Y-68950000D03*
%TD*%
%TO.C,C2*%
X113600000Y-80100000D03*
X112000000Y-80100000D03*
%TD*%
D12*
%TO.C,J4*%
X126250000Y-76825000D03*
X126250000Y-78075000D03*
X126250000Y-79325000D03*
X126250000Y-80575000D03*
D13*
X129600000Y-82425000D03*
X129600000Y-74975000D03*
%TD*%
D14*
%TO.C,R8*%
X103800000Y-78100000D03*
X103800000Y-76500000D03*
%TD*%
D15*
%TO.C,R7*%
X126900000Y-69000000D03*
X125300000Y-69000000D03*
%TD*%
D16*
%TO.C,C6*%
X121700000Y-81200000D03*
X123300000Y-81200000D03*
%TD*%
D12*
%TO.C,J3*%
X126250000Y-63950000D03*
X126250000Y-65200000D03*
D13*
X129600000Y-67050000D03*
X129600000Y-62100000D03*
%TD*%
D16*
%TO.C,C1*%
X121700000Y-82800000D03*
X123300000Y-82800000D03*
%TD*%
D17*
%TO.C,SW1*%
X119550000Y-86600000D03*
X116050000Y-86600000D03*
%TD*%
D18*
%TO.C,R4*%
X118700000Y-82800000D03*
X120300000Y-82800000D03*
%TD*%
D19*
%TO.C,SW*%
X102000000Y-67875000D03*
X102000000Y-66625000D03*
X102000000Y-65375000D03*
X102000000Y-64125000D03*
D20*
X98650000Y-62275000D03*
X98650000Y-69725000D03*
%TD*%
D21*
%TO.C,X1*%
X127600000Y-73200000D03*
X127600000Y-71000000D03*
X129150000Y-71000000D03*
D22*
X129150000Y-73200000D03*
%TD*%
D23*
%TO.C,C15*%
X123700000Y-74400000D03*
X123700000Y-76000000D03*
%TD*%
D16*
%TO.C,D2*%
X98550000Y-82050000D03*
X100150000Y-82050000D03*
%TD*%
D18*
%TO.C,R2*%
X101550000Y-82000000D03*
X103150000Y-82000000D03*
%TD*%
D11*
%TO.C,C4*%
X114000000Y-71700000D03*
X112400000Y-71700000D03*
%TD*%
D19*
%TO.C,CAN*%
X101850000Y-78025000D03*
X101850000Y-76775000D03*
D20*
X98500000Y-79875000D03*
X98500000Y-74925000D03*
%TD*%
D24*
%TO.C,C14*%
X123700000Y-77500000D03*
X123700000Y-79100000D03*
%TD*%
D25*
%TO.C,U2*%
X122150000Y-79050000D03*
X122150000Y-78550000D03*
X122150000Y-78050000D03*
X122150000Y-77550000D03*
X122150000Y-77050000D03*
X122150000Y-76550000D03*
X122150000Y-76050000D03*
X122150000Y-75550000D03*
X122150000Y-75050000D03*
X122150000Y-74550000D03*
X122150000Y-74050000D03*
X122150000Y-73550000D03*
D26*
X120650000Y-72050000D03*
X120150000Y-72050000D03*
X119650000Y-72050000D03*
X119150000Y-72050000D03*
X118650000Y-72050000D03*
X118150000Y-72050000D03*
X117650000Y-72050000D03*
X117150000Y-72050000D03*
X116650000Y-72050000D03*
X116150000Y-72050000D03*
X115650000Y-72050000D03*
X115150000Y-72050000D03*
D25*
X113650000Y-73550000D03*
X113650000Y-74050000D03*
X113650000Y-74550000D03*
X113650000Y-75050000D03*
X113650000Y-75550000D03*
X113650000Y-76050000D03*
X113650000Y-76550000D03*
X113650000Y-77050000D03*
X113650000Y-77550000D03*
X113650000Y-78050000D03*
X113650000Y-78550000D03*
X113650000Y-79050000D03*
D26*
X115150000Y-80550000D03*
X115650000Y-80550000D03*
X116150000Y-80550000D03*
X116650000Y-80550000D03*
X117150000Y-80550000D03*
X117650000Y-80550000D03*
X118150000Y-80550000D03*
X118650000Y-80550000D03*
X119150000Y-80550000D03*
X119650000Y-80550000D03*
X120150000Y-80550000D03*
X120650000Y-80550000D03*
%TD*%
M02*
