%TF.GenerationSoftware,KiCad,Pcbnew,(6.0.1)*%
%TF.CreationDate,2022-07-23T16:31:21+08:00*%
%TF.ProjectId,IMU_base_V7,494d555f-6261-4736-955f-56372e6b6963,rev?*%
%TF.SameCoordinates,Original*%
%TF.FileFunction,Copper,L1,Top*%
%TF.FilePolarity,Positive*%
%FSLAX46Y46*%
G04 Gerber Fmt 4.6, Leading zero omitted, Abs format (unit mm)*
G04 Created by KiCad (PCBNEW (6.0.1)) date 2022-07-23 16:31:21*
%MOMM*%
%LPD*%
G01*
G04 APERTURE LIST*
G04 Aperture macros list*
%AMRoundRect*
0 Rectangle with rounded corners*
0 $1 Rounding radius*
0 $2 $3 $4 $5 $6 $7 $8 $9 X,Y pos of 4 corners*
0 Add a 4 corners polygon primitive as box body*
4,1,4,$2,$3,$4,$5,$6,$7,$8,$9,$2,$3,0*
0 Add four circle primitives for the rounded corners*
1,1,$1+$1,$2,$3*
1,1,$1+$1,$4,$5*
1,1,$1+$1,$6,$7*
1,1,$1+$1,$8,$9*
0 Add four rect primitives between the rounded corners*
20,1,$1+$1,$2,$3,$4,$5,0*
20,1,$1+$1,$4,$5,$6,$7,0*
20,1,$1+$1,$6,$7,$8,$9,0*
20,1,$1+$1,$8,$9,$2,$3,0*%
%AMFreePoly0*
4,1,18,-0.650000,0.472500,-0.646004,0.492591,-0.634623,0.509623,-0.617591,0.521004,-0.597500,0.525000,0.440000,0.525000,0.650000,0.315000,0.650000,-0.472500,0.646004,-0.492591,0.634623,-0.509623,0.617591,-0.521004,0.597500,-0.525000,-0.597500,-0.525000,-0.617591,-0.521004,-0.634623,-0.509623,-0.646004,-0.492591,-0.650000,-0.472500,-0.650000,0.472500,-0.650000,0.472500,$1*%
G04 Aperture macros list end*
%TA.AperFunction,SMDPad,CuDef*%
%ADD10RoundRect,0.030000X0.470000X0.270000X-0.470000X0.270000X-0.470000X-0.270000X0.470000X-0.270000X0*%
%TD*%
%TA.AperFunction,SMDPad,CuDef*%
%ADD11RoundRect,0.040000X-0.360000X0.460000X-0.360000X-0.460000X0.360000X-0.460000X0.360000X0.460000X0*%
%TD*%
%TA.AperFunction,SMDPad,CuDef*%
%ADD12RoundRect,0.030000X-0.820000X-0.270000X0.820000X-0.270000X0.820000X0.270000X-0.820000X0.270000X0*%
%TD*%
%TA.AperFunction,SMDPad,CuDef*%
%ADD13RoundRect,0.050000X-1.350000X-0.450000X1.350000X-0.450000X1.350000X0.450000X-1.350000X0.450000X0*%
%TD*%
%TA.AperFunction,SMDPad,CuDef*%
%ADD14RoundRect,0.040000X-0.460000X-0.360000X0.460000X-0.360000X0.460000X0.360000X-0.460000X0.360000X0*%
%TD*%
%TA.AperFunction,SMDPad,CuDef*%
%ADD15RoundRect,0.040000X0.360000X-0.460000X0.360000X0.460000X-0.360000X0.460000X-0.360000X-0.460000X0*%
%TD*%
%TA.AperFunction,SMDPad,CuDef*%
%ADD16RoundRect,0.070000X0.630000X0.730000X-0.630000X0.730000X-0.630000X-0.730000X0.630000X-0.730000X0*%
%TD*%
%TA.AperFunction,SMDPad,CuDef*%
%ADD17RoundRect,0.030000X0.820000X0.270000X-0.820000X0.270000X-0.820000X-0.270000X0.820000X-0.270000X0*%
%TD*%
%TA.AperFunction,SMDPad,CuDef*%
%ADD18RoundRect,0.050000X1.350000X0.450000X-1.350000X0.450000X-1.350000X-0.450000X1.350000X-0.450000X0*%
%TD*%
%TA.AperFunction,ComponentPad*%
%ADD19R,3.800000X3.800000*%
%TD*%
%TA.AperFunction,ComponentPad*%
%ADD20C,3.800000*%
%TD*%
%TA.AperFunction,SMDPad,CuDef*%
%ADD21RoundRect,0.052500X0.472500X-0.597500X0.472500X0.597500X-0.472500X0.597500X-0.472500X-0.597500X0*%
%TD*%
%TA.AperFunction,SMDPad,CuDef*%
%ADD22FreePoly0,90.000000*%
%TD*%
%TA.AperFunction,SMDPad,CuDef*%
%ADD23RoundRect,0.040000X0.460000X0.360000X-0.460000X0.360000X-0.460000X-0.360000X0.460000X-0.360000X0*%
%TD*%
%TA.AperFunction,SMDPad,CuDef*%
%ADD24RoundRect,0.015000X0.410000X0.135000X-0.410000X0.135000X-0.410000X-0.135000X0.410000X-0.135000X0*%
%TD*%
%TA.AperFunction,SMDPad,CuDef*%
%ADD25RoundRect,0.015000X-0.135000X0.410000X-0.135000X-0.410000X0.135000X-0.410000X0.135000X0.410000X0*%
%TD*%
%TA.AperFunction,ViaPad*%
%ADD26C,0.800000*%
%TD*%
%TA.AperFunction,ViaPad*%
%ADD27C,0.600000*%
%TD*%
%TA.AperFunction,ViaPad*%
%ADD28C,0.400000*%
%TD*%
%TA.AperFunction,ViaPad*%
%ADD29C,0.500000*%
%TD*%
%TA.AperFunction,ViaPad*%
%ADD30C,4.000000*%
%TD*%
%TA.AperFunction,ViaPad*%
%ADD31C,0.350000*%
%TD*%
%TA.AperFunction,Conductor*%
%ADD32C,0.250000*%
%TD*%
%TA.AperFunction,Conductor*%
%ADD33C,0.400000*%
%TD*%
%TA.AperFunction,Conductor*%
%ADD34C,0.350000*%
%TD*%
%TA.AperFunction,Conductor*%
%ADD35C,0.300000*%
%TD*%
%TA.AperFunction,Conductor*%
%ADD36C,0.200000*%
%TD*%
%TA.AperFunction,Conductor*%
%ADD37C,0.800000*%
%TD*%
G04 APERTURE END LIST*
D10*
%TO.P,U4,8,S*%
%TO.N,GND*%
X105400000Y-79210000D03*
%TO.P,U4,7,CAN_H*%
%TO.N,/CAN_H*%
X105400000Y-77940000D03*
%TO.P,U4,6,CAN_L*%
%TO.N,/CAN_L*%
X105400000Y-76670000D03*
%TO.P,U4,5,V_IO*%
%TO.N,+3V3*%
X105400000Y-75400000D03*
%TO.P,U4,4,Rx_D*%
%TO.N,/CAN0_RX*%
X110800000Y-75400000D03*
%TO.P,U4,3,Vin*%
%TO.N,+5V*%
X110800000Y-76670000D03*
%TO.P,U4,2,GND*%
%TO.N,GND*%
X110800000Y-77940000D03*
%TO.P,U4,1,Tx_D*%
%TO.N,/CAN0_TX*%
X110800000Y-79210000D03*
%TD*%
D11*
%TO.P,C5,1*%
%TO.N,+3V3*%
X123900000Y-72300000D03*
%TO.P,C5,2*%
%TO.N,GND*%
X122300000Y-72300000D03*
%TD*%
%TO.P,D3,1,Cathode*%
%TO.N,GND*%
X130350000Y-68950000D03*
%TO.P,D3,2,Anode*%
%TO.N,Net-(D3-Pad2)*%
X128750000Y-68950000D03*
%TD*%
%TO.P,C2,1*%
%TO.N,+3V3*%
X113600000Y-80100000D03*
%TO.P,C2,2*%
%TO.N,GND*%
X112000000Y-80100000D03*
%TD*%
D12*
%TO.P,J4,1*%
%TO.N,+24V*%
X126250000Y-76825000D03*
%TO.P,J4,2*%
%TO.N,/CAN_H*%
X126250000Y-78075000D03*
%TO.P,J4,3*%
%TO.N,/CAN_L*%
X126250000Y-79325000D03*
%TO.P,J4,4*%
%TO.N,GND*%
X126250000Y-80575000D03*
D13*
%TO.P,J4,MP*%
%TO.N,N/C*%
X129600000Y-82425000D03*
X129600000Y-74975000D03*
%TD*%
D14*
%TO.P,R8,2*%
%TO.N,/CAN_H*%
X103800000Y-78100000D03*
%TO.P,R8,1*%
%TO.N,/CAN_L*%
X103800000Y-76500000D03*
%TD*%
D11*
%TO.P,R7,1*%
%TO.N,Net-(D3-Pad2)*%
X126900000Y-69000000D03*
%TO.P,R7,2*%
%TO.N,/LED*%
X125300000Y-69000000D03*
%TD*%
D15*
%TO.P,C6,1*%
%TO.N,+3V3*%
X121700000Y-81200000D03*
%TO.P,C6,2*%
%TO.N,GND*%
X123300000Y-81200000D03*
%TD*%
D12*
%TO.P,J3,1*%
%TO.N,Net-(J3-Pad1)*%
X126250000Y-63950000D03*
%TO.P,J3,2*%
%TO.N,GND*%
X126250000Y-65200000D03*
D13*
%TO.P,J3,MP*%
%TO.N,N/C*%
X129600000Y-67050000D03*
X129600000Y-62100000D03*
%TD*%
D15*
%TO.P,C1,1*%
%TO.N,+3V3*%
X121700000Y-82800000D03*
%TO.P,C1,2*%
%TO.N,GND*%
X123300000Y-82800000D03*
%TD*%
D16*
%TO.P,SW1,1*%
%TO.N,/RESET*%
X119550000Y-86600000D03*
%TO.P,SW1,2*%
%TO.N,GND*%
X116050000Y-86600000D03*
%TD*%
D15*
%TO.P,R4,1*%
%TO.N,/BOOT0*%
X118700000Y-82800000D03*
%TO.P,R4,2*%
%TO.N,GND*%
X120300000Y-82800000D03*
%TD*%
D17*
%TO.P,SW,1*%
%TO.N,+3V3*%
X102000000Y-67875000D03*
%TO.P,SW,2*%
%TO.N,/SWDIO*%
X102000000Y-66625000D03*
%TO.P,SW,3*%
%TO.N,/SWCLK*%
X102000000Y-65375000D03*
%TO.P,SW,4*%
%TO.N,GND*%
X102000000Y-64125000D03*
D18*
%TO.P,SW,MP*%
%TO.N,N/C*%
X98650000Y-62275000D03*
X98650000Y-69725000D03*
%TD*%
D19*
%TO.P,+,1*%
%TO.N,+24V*%
X105800000Y-86100000D03*
D20*
%TO.P,+,2*%
%TO.N,GND*%
X110800000Y-86100000D03*
%TD*%
D21*
%TO.P,X1,4*%
%TO.N,GND*%
X127600000Y-73200000D03*
%TO.P,X1,3*%
%TO.N,/XTAL1*%
X127600000Y-71000000D03*
%TO.P,X1,2*%
%TO.N,GND*%
X129150000Y-71000000D03*
D22*
%TO.P,X1,1*%
%TO.N,/XTAL0*%
X129150000Y-73200000D03*
%TD*%
D14*
%TO.P,C15,1*%
%TO.N,GND*%
X123700000Y-74400000D03*
%TO.P,C15,2*%
%TO.N,/XTAL1*%
X123700000Y-76000000D03*
%TD*%
D15*
%TO.P,D2,1,Cathode*%
%TO.N,GND*%
X98550000Y-82050000D03*
%TO.P,D2,2,Anode*%
%TO.N,Net-(D2-Pad2)*%
X100150000Y-82050000D03*
%TD*%
%TO.P,R2,1*%
%TO.N,Net-(D2-Pad2)*%
X101550000Y-82000000D03*
%TO.P,R2,2*%
%TO.N,+3V3*%
X103150000Y-82000000D03*
%TD*%
D11*
%TO.P,C4,1*%
%TO.N,+3V3*%
X114000000Y-71700000D03*
%TO.P,C4,2*%
%TO.N,GND*%
X112400000Y-71700000D03*
%TD*%
D17*
%TO.P,CAN,1*%
%TO.N,/CAN_H*%
X101850000Y-78025000D03*
%TO.P,CAN,2*%
%TO.N,/CAN_L*%
X101850000Y-76775000D03*
D18*
%TO.P,CAN,MP*%
%TO.N,N/C*%
X98500000Y-79875000D03*
X98500000Y-74925000D03*
%TD*%
D23*
%TO.P,C14,2*%
%TO.N,/XTAL0*%
X123700000Y-77500000D03*
%TO.P,C14,1*%
%TO.N,GND*%
X123700000Y-79100000D03*
%TD*%
D24*
%TO.P,U2,1,Vbat*%
%TO.N,+3V3*%
X122150000Y-79050000D03*
%TO.P,U2,2,PC13*%
%TO.N,unconnected-(U2-Pad2)*%
X122150000Y-78550000D03*
%TO.P,U2,3,PC14*%
%TO.N,unconnected-(U2-Pad3)*%
X122150000Y-78050000D03*
%TO.P,U2,4,PC15*%
%TO.N,unconnected-(U2-Pad4)*%
X122150000Y-77550000D03*
%TO.P,U2,5,PD0*%
%TO.N,/XTAL0*%
X122150000Y-77050000D03*
%TO.P,U2,6,PD1*%
%TO.N,/XTAL1*%
X122150000Y-76550000D03*
%TO.P,U2,7,nRST*%
%TO.N,/RESET*%
X122150000Y-76050000D03*
%TO.P,U2,8,GND_A*%
%TO.N,GND*%
X122150000Y-75550000D03*
%TO.P,U2,9,Vin_A*%
%TO.N,+3V3*%
X122150000Y-75050000D03*
%TO.P,U2,10,PA0*%
%TO.N,unconnected-(U2-Pad10)*%
X122150000Y-74550000D03*
%TO.P,U2,11,PA1*%
%TO.N,/TIM10_CH1*%
X122150000Y-74050000D03*
%TO.P,U2,12,PA2*%
%TO.N,unconnected-(U2-Pad12)*%
X122150000Y-73550000D03*
D25*
%TO.P,U2,13,PA3*%
%TO.N,/INT1_Acce1*%
X120650000Y-72050000D03*
%TO.P,U2,14,PA4*%
%TO.N,/INT1_Gyro*%
X120150000Y-72050000D03*
%TO.P,U2,15,PA5*%
%TO.N,/SPI1_CLK*%
X119650000Y-72050000D03*
%TO.P,U2,16,PA6*%
%TO.N,/SPI1_MISO*%
X119150000Y-72050000D03*
%TO.P,U2,17,PA7*%
%TO.N,/SPI1_MOSI*%
X118650000Y-72050000D03*
%TO.P,U2,18,PB0*%
%TO.N,unconnected-(U2-Pad18)*%
X118150000Y-72050000D03*
%TO.P,U2,19,PB1*%
%TO.N,/LED*%
X117650000Y-72050000D03*
%TO.P,U2,20,PB2*%
%TO.N,unconnected-(U2-Pad20)*%
X117150000Y-72050000D03*
%TO.P,U2,21,PB10*%
%TO.N,unconnected-(U2-Pad21)*%
X116650000Y-72050000D03*
%TO.P,U2,22,PB11*%
%TO.N,unconnected-(U2-Pad22)*%
X116150000Y-72050000D03*
%TO.P,U2,23,GND*%
%TO.N,GND*%
X115650000Y-72050000D03*
%TO.P,U2,24,Vin*%
%TO.N,+3V3*%
X115150000Y-72050000D03*
D24*
%TO.P,U2,25,PB12*%
%TO.N,unconnected-(U2-Pad25)*%
X113650000Y-73550000D03*
%TO.P,U2,26,PB13*%
%TO.N,Net-(J3-Pad1)*%
X113650000Y-74050000D03*
%TO.P,U2,27,PB14*%
%TO.N,unconnected-(U2-Pad27)*%
X113650000Y-74550000D03*
%TO.P,U2,28,PB15*%
%TO.N,unconnected-(U2-Pad28)*%
X113650000Y-75050000D03*
%TO.P,U2,29,PA8*%
%TO.N,/CS1_Acce1*%
X113650000Y-75550000D03*
%TO.P,U2,30,PA9*%
%TO.N,/CS1_Gyro*%
X113650000Y-76050000D03*
%TO.P,U2,31,PA10*%
%TO.N,unconnected-(U2-Pad31)*%
X113650000Y-76550000D03*
%TO.P,U2,32,PA11*%
%TO.N,/CAN0_RX*%
X113650000Y-77050000D03*
%TO.P,U2,33,PA12*%
%TO.N,/CAN0_TX*%
X113650000Y-77550000D03*
%TO.P,U2,34,PA13*%
%TO.N,/SWDIO*%
X113650000Y-78050000D03*
%TO.P,U2,35,GND*%
%TO.N,GND*%
X113650000Y-78550000D03*
%TO.P,U2,36,Vin*%
%TO.N,+3V3*%
X113650000Y-79050000D03*
D25*
%TO.P,U2,37,PA14*%
%TO.N,/SWCLK*%
X115150000Y-80550000D03*
%TO.P,U2,38,PA15*%
%TO.N,unconnected-(U2-Pad38)*%
X115650000Y-80550000D03*
%TO.P,U2,39,PB3*%
%TO.N,unconnected-(U2-Pad39)*%
X116150000Y-80550000D03*
%TO.P,U2,40,PB4*%
%TO.N,unconnected-(U2-Pad40)*%
X116650000Y-80550000D03*
%TO.P,U2,41,PB5*%
%TO.N,unconnected-(U2-Pad41)*%
X117150000Y-80550000D03*
%TO.P,U2,42,PB6*%
%TO.N,unconnected-(U2-Pad42)*%
X117650000Y-80550000D03*
%TO.P,U2,43,PB7*%
%TO.N,unconnected-(U2-Pad43)*%
X118150000Y-80550000D03*
%TO.P,U2,44,BOOT0*%
%TO.N,/BOOT0*%
X118650000Y-80550000D03*
%TO.P,U2,45,PB8*%
%TO.N,unconnected-(U2-Pad45)*%
X119150000Y-80550000D03*
%TO.P,U2,46,PB9*%
%TO.N,unconnected-(U2-Pad46)*%
X119650000Y-80550000D03*
%TO.P,U2,47,GND*%
%TO.N,GND*%
X120150000Y-80550000D03*
%TO.P,U2,48,Vin*%
%TO.N,+3V3*%
X120650000Y-80550000D03*
%TD*%
D26*
%TO.N,GND*%
X123800000Y-78800000D03*
X129100000Y-80500000D03*
X129100000Y-79500000D03*
X129200000Y-78600000D03*
X129200000Y-77600000D03*
X123700000Y-82400000D03*
X123800000Y-81300000D03*
X126300000Y-81300000D03*
X125500000Y-82300000D03*
X125400000Y-81200000D03*
D27*
X119200000Y-76700000D03*
X119200000Y-77300000D03*
X119200000Y-77900000D03*
D26*
X110200000Y-77700000D03*
X112600000Y-78600000D03*
X111100000Y-77800000D03*
X106500000Y-79100000D03*
X98000000Y-76500000D03*
X97900000Y-77400000D03*
X98100000Y-78400000D03*
X98900000Y-78400000D03*
X98800000Y-77500000D03*
X98900000Y-76600000D03*
X102900000Y-79100000D03*
X125500000Y-70600000D03*
X124700000Y-70600000D03*
X127400000Y-67100000D03*
X127500000Y-66000000D03*
%TO.N,+3V3*%
X121100000Y-66000000D03*
X123100000Y-67000000D03*
X123000000Y-66200000D03*
X123100000Y-65300000D03*
X124000000Y-67000000D03*
X124000000Y-66100000D03*
X124000000Y-65300000D03*
%TO.N,GND*%
X126600000Y-67000000D03*
X126600000Y-66100000D03*
X122100000Y-57900000D03*
X122100000Y-58900000D03*
X121000000Y-61200000D03*
X120100000Y-61200000D03*
X119200000Y-61200000D03*
X118300000Y-61200000D03*
X117500000Y-61100000D03*
X116600000Y-61100000D03*
X116600000Y-60300000D03*
X116600000Y-59500000D03*
X116700000Y-58700000D03*
X116700000Y-57900000D03*
X109900000Y-58200000D03*
X109900000Y-59000000D03*
X109800000Y-59800000D03*
%TO.N,+5V*%
X115300000Y-58300000D03*
X114500000Y-58300000D03*
X113600000Y-61300000D03*
X113600000Y-60400000D03*
X113700000Y-59600000D03*
X113700000Y-58800000D03*
%TO.N,GND*%
X109200000Y-60400000D03*
X108500000Y-61000000D03*
X107000000Y-58600000D03*
X107000000Y-59700000D03*
X107600000Y-64900000D03*
X106700000Y-65200000D03*
X110100000Y-64800000D03*
X110000000Y-66000000D03*
X103000000Y-69800000D03*
X102900000Y-70800000D03*
X102800000Y-71600000D03*
X102900000Y-72600000D03*
%TO.N,+24V*%
X104000000Y-83700000D03*
X106400000Y-83700000D03*
X105600000Y-83700000D03*
X104800000Y-83700000D03*
%TO.N,GND*%
X122400000Y-84100000D03*
X121600000Y-84100000D03*
X120700000Y-78300000D03*
D27*
X119100000Y-78800000D03*
D26*
%TO.N,GNDPWR*%
X117600000Y-73700000D03*
X116700000Y-73700000D03*
%TO.N,GND*%
X111400000Y-70900000D03*
D27*
%TO.N,+3V3*%
X109947361Y-79846003D03*
%TO.N,GND*%
X128800000Y-71300000D03*
X127900000Y-72600000D03*
X128400000Y-72100000D03*
D26*
X129500000Y-70700000D03*
X127200000Y-73425980D03*
X124900000Y-73700000D03*
X109300000Y-76500000D03*
X109600000Y-72200000D03*
D27*
%TO.N,+3V3*%
X113600000Y-80100000D03*
D28*
%TO.N,/CAN_H*%
X127000000Y-82700000D03*
%TO.N,/CAN_L*%
X126431262Y-82510420D03*
X121500000Y-85200000D03*
%TO.N,/CAN_H*%
X120800000Y-84643376D03*
D26*
%TO.N,GND*%
X120300000Y-83900000D03*
D28*
%TO.N,/CAN_L*%
X108182448Y-80775500D03*
X106500000Y-80775500D03*
%TO.N,/CAN_H*%
X108249500Y-80176260D03*
X106277350Y-80218876D03*
D26*
%TO.N,+24V*%
X122200000Y-80000000D03*
D27*
%TO.N,GND*%
X112000000Y-79200000D03*
D26*
%TO.N,+3V3*%
X121200000Y-75100000D03*
D29*
%TO.N,Net-(J3-Pad1)*%
X111400689Y-69300689D03*
X110600000Y-71800000D03*
D26*
%TO.N,+3V3*%
X122950000Y-71100000D03*
X103400000Y-67900000D03*
X104800000Y-65100000D03*
D30*
%TO.N,*%
X128799600Y-85244206D03*
X99509600Y-58344206D03*
X99509600Y-85244206D03*
X128809600Y-58344206D03*
D26*
%TO.N,+3V3*%
X108550000Y-74100000D03*
X122250000Y-62150000D03*
D27*
X120150000Y-79200000D03*
D31*
%TO.N,GND*%
X122700000Y-80850000D03*
D26*
X99000000Y-67850000D03*
X115400000Y-68300000D03*
X120100000Y-58850000D03*
X116250000Y-68000000D03*
X119300000Y-67250000D03*
X99200000Y-73400000D03*
X99100000Y-65950000D03*
D31*
X122700000Y-81350000D03*
D26*
X106065266Y-58643548D03*
X110800000Y-68700000D03*
X118300000Y-79300000D03*
X113350000Y-86450000D03*
X108725500Y-78000000D03*
X113250000Y-85500000D03*
X99200000Y-72350000D03*
X105050000Y-59650000D03*
X105050000Y-58700000D03*
X113000000Y-87300000D03*
X99100000Y-65050000D03*
X98850000Y-81100000D03*
X106100000Y-59700000D03*
X120100000Y-57950000D03*
X99100000Y-66850000D03*
X121143135Y-57942197D03*
X121150000Y-58900000D03*
X113100000Y-84650000D03*
D29*
%TO.N,+5V*%
X112488479Y-75511521D03*
D27*
%TO.N,/RESET*%
X121000000Y-77400000D03*
D28*
X124650000Y-82500000D03*
%TO.N,/SWDIO*%
X107150000Y-71700000D03*
X110450000Y-80600000D03*
%TO.N,/SWCLK*%
X100400000Y-81000000D03*
X114900000Y-81138644D03*
%TO.N,/TIM10_CH1*%
X119650000Y-72950000D03*
%TO.N,/INT1_Acce1*%
X120800000Y-70850000D03*
%TO.N,/INT1_Gyro*%
X120195836Y-70833796D03*
%TO.N,/SPI1_CLK*%
X119600695Y-70905980D03*
%TO.N,/SPI1_MISO*%
X119000497Y-70900000D03*
%TO.N,/SPI1_MOSI*%
X118400994Y-70900000D03*
%TO.N,/CS1_Acce1*%
X116355761Y-79653770D03*
%TO.N,/CS1_Gyro*%
X115854122Y-79325500D03*
%TD*%
D32*
%TO.N,/SWDIO*%
X107150000Y-71700000D02*
X105500000Y-70050000D01*
X105500000Y-70050000D02*
X105500000Y-68200000D01*
X103925000Y-66625000D02*
X105500000Y-68200000D01*
X102000000Y-66625000D02*
X103925000Y-66625000D01*
%TO.N,/XTAL0*%
X129150000Y-73550000D02*
X129150000Y-73200000D01*
X128549520Y-74150480D02*
X129150000Y-73550000D01*
%TO.N,/XTAL1*%
X127300000Y-71000000D02*
X127600000Y-71000000D01*
X126000000Y-72300000D02*
X127300000Y-71000000D01*
D33*
%TO.N,+24V*%
X125575000Y-76825000D02*
X124800000Y-77600000D01*
X124800000Y-77600000D02*
X124800000Y-77933634D01*
X126250000Y-76825000D02*
X125575000Y-76825000D01*
%TO.N,GND*%
X123700000Y-78900000D02*
X123800000Y-78800000D01*
X123700000Y-79100000D02*
X123700000Y-78900000D01*
D32*
%TO.N,/CAN_L*%
X126591366Y-79325000D02*
X126250000Y-79325000D01*
X127424520Y-81517162D02*
X127424520Y-80158154D01*
X127424520Y-80158154D02*
X126591366Y-79325000D01*
X126431262Y-82510420D02*
X127424520Y-81517162D01*
%TO.N,/CAN_H*%
X127175000Y-78075000D02*
X126250000Y-78075000D01*
X127900000Y-78800000D02*
X127175000Y-78075000D01*
X127900000Y-81800000D02*
X127900000Y-78800000D01*
X127000000Y-82700000D02*
X127900000Y-81800000D01*
D33*
%TO.N,GND*%
X112600000Y-78600000D02*
X112000000Y-79200000D01*
X112400000Y-71700000D02*
X112200000Y-71700000D01*
X112200000Y-71700000D02*
X111400000Y-70900000D01*
%TO.N,+3V3*%
X110500000Y-70100000D02*
X112400000Y-70100000D01*
X108550000Y-72050000D02*
X110500000Y-70100000D01*
X108550000Y-74100000D02*
X108550000Y-72050000D01*
X112400000Y-70100000D02*
X114000000Y-71700000D01*
D32*
%TO.N,Net-(J3-Pad1)*%
X111400689Y-69299311D02*
X116750000Y-63950000D01*
X116750000Y-63950000D02*
X126250000Y-63950000D01*
X111400689Y-69300689D02*
X111400689Y-69299311D01*
D33*
%TO.N,+3V3*%
X109947361Y-79704794D02*
X109542567Y-79300000D01*
X109947361Y-79846003D02*
X109947361Y-79704794D01*
X108400000Y-79300000D02*
X109542567Y-79300000D01*
X107650000Y-78550000D02*
X108400000Y-79300000D01*
X107650000Y-78550000D02*
X107650000Y-80500000D01*
X107650000Y-76850000D02*
X107650000Y-78550000D01*
%TO.N,GND*%
X123700000Y-74530978D02*
X123700000Y-74400000D01*
X122680978Y-75550000D02*
X123700000Y-74530978D01*
X122150000Y-75550000D02*
X122680978Y-75550000D01*
D32*
%TO.N,/SWDIO*%
X114096872Y-81200000D02*
X111050000Y-81200000D01*
X111050000Y-81200000D02*
X110450000Y-80600000D01*
X114600000Y-80696872D02*
X114096872Y-81200000D01*
X114250000Y-78050000D02*
X114600000Y-78400000D01*
X113650000Y-78050000D02*
X114250000Y-78050000D01*
X114600000Y-78400000D02*
X114600000Y-80696872D01*
%TO.N,/SWCLK*%
X115150000Y-80888644D02*
X115150000Y-80550000D01*
X114900000Y-81138644D02*
X115150000Y-80888644D01*
%TO.N,/CAN_H*%
X110763144Y-81663144D02*
X109276260Y-80176260D01*
X117763144Y-81663144D02*
X110763144Y-81663144D01*
X117975480Y-81875480D02*
X117763144Y-81663144D01*
X117975480Y-83410989D02*
X117975480Y-81875480D01*
X119207867Y-84643376D02*
X117975480Y-83410989D01*
X109276260Y-80176260D02*
X108249500Y-80176260D01*
X120800000Y-84643376D02*
X119207867Y-84643376D01*
%TO.N,/CAN_L*%
X119100000Y-85200000D02*
X121500000Y-85200000D01*
X117500000Y-83600000D02*
X119100000Y-85200000D01*
X117500000Y-82412664D02*
X117500000Y-83600000D01*
X117200000Y-82112664D02*
X117500000Y-82412664D01*
X115600000Y-82112664D02*
X117200000Y-82112664D01*
X109519612Y-82112664D02*
X115600000Y-82112664D01*
X108182448Y-80775500D02*
X109519612Y-82112664D01*
%TO.N,/RESET*%
X121100000Y-86600000D02*
X119550000Y-86600000D01*
X124650000Y-83050000D02*
X121100000Y-86600000D01*
X124650000Y-82500000D02*
X124650000Y-83050000D01*
D33*
%TO.N,GND*%
X120150000Y-82650000D02*
X120300000Y-82800000D01*
D34*
X120150000Y-80550000D02*
X120150000Y-82650000D01*
D32*
%TO.N,/BOOT0*%
X118624520Y-82724520D02*
X118700000Y-82800000D01*
X118624520Y-80575480D02*
X118624520Y-82724520D01*
X118650000Y-80550000D02*
X118624520Y-80575480D01*
%TO.N,/CAN_H*%
X101850000Y-79300000D02*
X101850000Y-78025000D01*
X102850000Y-80300000D02*
X101850000Y-79300000D01*
X106277350Y-80218876D02*
X106196226Y-80300000D01*
X106196226Y-80300000D02*
X102850000Y-80300000D01*
%TO.N,/CAN_L*%
X100675480Y-78761198D02*
X100675480Y-77608154D01*
X100675480Y-77608154D02*
X101508634Y-76775000D01*
X106475500Y-80800000D02*
X102714282Y-80800000D01*
X106500000Y-80775500D02*
X106475500Y-80800000D01*
X102714282Y-80800000D02*
X100675480Y-78761198D01*
X101508634Y-76775000D02*
X101850000Y-76775000D01*
%TO.N,/SWCLK*%
X101658634Y-65375000D02*
X102000000Y-65375000D01*
X100700000Y-66333634D02*
X101658634Y-65375000D01*
X100700000Y-71300000D02*
X100700000Y-66333634D01*
X100400000Y-75464282D02*
X100400000Y-71600000D01*
X99874511Y-75989771D02*
X100400000Y-75464282D01*
X99874511Y-78919860D02*
X99874511Y-75989771D01*
X100400000Y-79445349D02*
X99874511Y-78919860D01*
X100400000Y-81000000D02*
X100400000Y-79445349D01*
X100400000Y-71600000D02*
X100700000Y-71300000D01*
D33*
%TO.N,+24V*%
X124400000Y-80000000D02*
X122200000Y-80000000D01*
X124800000Y-79600000D02*
X124400000Y-80000000D01*
X124800000Y-77933634D02*
X124800000Y-79600000D01*
%TO.N,GND*%
X112650000Y-78550000D02*
X112600000Y-78600000D01*
X113650000Y-78550000D02*
X112650000Y-78550000D01*
%TO.N,+3V3*%
X113650000Y-79050000D02*
X113650000Y-80050000D01*
X113650000Y-80050000D02*
X113600000Y-80100000D01*
%TO.N,GND*%
X112000000Y-80100000D02*
X112000000Y-79200000D01*
D35*
%TO.N,+3V3*%
X121200000Y-75100000D02*
X121250000Y-75050000D01*
X121250000Y-75050000D02*
X122150000Y-75050000D01*
X119900000Y-76400000D02*
X121200000Y-75100000D01*
X119900000Y-78950000D02*
X119900000Y-76400000D01*
X120150000Y-79200000D02*
X119900000Y-78950000D01*
D32*
%TO.N,Net-(J3-Pad1)*%
X112850000Y-74050000D02*
X110600000Y-71800000D01*
X113650000Y-74050000D02*
X112850000Y-74050000D01*
D36*
%TO.N,/RESET*%
X121000000Y-76710202D02*
X121660202Y-76050000D01*
X121000000Y-77400000D02*
X121000000Y-76710202D01*
X121660202Y-76050000D02*
X122150000Y-76050000D01*
D33*
%TO.N,+3V3*%
X120250480Y-79099520D02*
X122150000Y-79099520D01*
X120150000Y-79200000D02*
X120250480Y-79099520D01*
X106700000Y-74100000D02*
X105400000Y-75400000D01*
X108550000Y-74100000D02*
X106700000Y-74100000D01*
%TO.N,+5V*%
X110400000Y-74500000D02*
X111476958Y-74500000D01*
X111476958Y-74500000D02*
X112488479Y-75511521D01*
X109900000Y-75000000D02*
X110400000Y-74500000D01*
X109900000Y-76000000D02*
X109900000Y-75000000D01*
X110570000Y-76670000D02*
X109900000Y-76000000D01*
D32*
X110800000Y-76670000D02*
X110570000Y-76670000D01*
%TO.N,/CAN_L*%
X105330000Y-76670000D02*
X104800000Y-77200000D01*
X105400000Y-76670000D02*
X105330000Y-76670000D01*
X104800000Y-77200000D02*
X104500000Y-77200000D01*
X104500000Y-77200000D02*
X103800000Y-76500000D01*
%TO.N,/CAN_H*%
X104250480Y-77649520D02*
X103800000Y-78100000D01*
X105109520Y-77649520D02*
X104250480Y-77649520D01*
X105400000Y-77940000D02*
X105109520Y-77649520D01*
X102275000Y-77600000D02*
X101850000Y-78025000D01*
X103300000Y-77600000D02*
X102275000Y-77600000D01*
X103800000Y-78100000D02*
X103300000Y-77600000D01*
%TO.N,/CAN_L*%
X103200000Y-77100000D02*
X102175000Y-77100000D01*
X103800000Y-76500000D02*
X103200000Y-77100000D01*
X102175000Y-77100000D02*
X101850000Y-76775000D01*
D33*
%TO.N,+3V3*%
X108550000Y-74100000D02*
X108550000Y-75950000D01*
X108550000Y-75950000D02*
X107650000Y-76850000D01*
D32*
%TO.N,/CAN0_TX*%
X112450000Y-77550000D02*
X113650000Y-77550000D01*
X110800000Y-79200000D02*
X112450000Y-77550000D01*
X110800000Y-79210000D02*
X110800000Y-79200000D01*
%TO.N,/CAN0_RX*%
X112450000Y-77050000D02*
X113650000Y-77050000D01*
X110800000Y-75400000D02*
X112450000Y-77050000D01*
D33*
%TO.N,+3V3*%
X122950000Y-71100000D02*
X122950000Y-71350000D01*
X122950000Y-71350000D02*
X123900000Y-72300000D01*
D32*
%TO.N,/XTAL1*%
X126000000Y-73700000D02*
X123700000Y-76000000D01*
X126000000Y-72300000D02*
X126000000Y-73700000D01*
%TO.N,/XTAL0*%
X127049520Y-74150480D02*
X123700000Y-77500000D01*
X128549520Y-74150480D02*
X127049520Y-74150480D01*
%TO.N,Net-(D3-Pad2)*%
X128200000Y-69500000D02*
X128750000Y-68950000D01*
X126900000Y-69000000D02*
X127400000Y-69500000D01*
X127400000Y-69500000D02*
X128200000Y-69500000D01*
%TO.N,/XTAL1*%
X123700000Y-76000000D02*
X123150000Y-76550000D01*
X123150000Y-76550000D02*
X122150000Y-76550000D01*
%TO.N,/XTAL0*%
X123250000Y-77050000D02*
X122150000Y-77050000D01*
X123700000Y-77500000D02*
X123250000Y-77050000D01*
%TO.N,/LED*%
X119559222Y-69000000D02*
X125300000Y-69000000D01*
X117650000Y-70909222D02*
X119559222Y-69000000D01*
X117650000Y-72050000D02*
X117650000Y-70909222D01*
D33*
%TO.N,+3V3*%
X107750000Y-62150000D02*
X104800000Y-65100000D01*
X110550000Y-62150000D02*
X107750000Y-62150000D01*
X120650000Y-79700000D02*
X120150000Y-79200000D01*
X114800000Y-71700000D02*
X115150000Y-72050000D01*
D35*
X120650000Y-80550000D02*
X120650000Y-79700000D01*
D33*
X110550000Y-62150000D02*
X122250000Y-62150000D01*
X107650000Y-80500000D02*
X106100000Y-82050000D01*
X121050000Y-80550000D02*
X121700000Y-81200000D01*
D34*
X120650000Y-80550000D02*
X121050000Y-80550000D01*
D33*
X106100000Y-82050000D02*
X103200000Y-82050000D01*
X114000000Y-71700000D02*
X114800000Y-71700000D01*
D34*
%TO.N,GND*%
X115650000Y-71700000D02*
X115650000Y-68550000D01*
D37*
X119300000Y-67250000D02*
X118550000Y-68000000D01*
D33*
X115650000Y-68550000D02*
X115400000Y-68300000D01*
D32*
X120150000Y-80024847D02*
X120150000Y-80550000D01*
X118800480Y-79800480D02*
X119925633Y-79800480D01*
X118300000Y-79300000D02*
X118800480Y-79800480D01*
D37*
X118550000Y-68000000D02*
X116400000Y-68000000D01*
D32*
X119925633Y-79800480D02*
X120150000Y-80024847D01*
%TO.N,/TIM10_CH1*%
X120750000Y-74050000D02*
X122150000Y-74050000D01*
X119650000Y-72950000D02*
X120750000Y-74050000D01*
%TO.N,/INT1_Acce1*%
X120650000Y-72050000D02*
X120800000Y-71900000D01*
X120800000Y-71900000D02*
X120800000Y-70850000D01*
%TO.N,/INT1_Gyro*%
X120150000Y-72050000D02*
X120150000Y-70879632D01*
X120150000Y-70879632D02*
X120195836Y-70833796D01*
%TO.N,/SPI1_CLK*%
X119650000Y-72050000D02*
X119650000Y-70955285D01*
X119650000Y-70955285D02*
X119600695Y-70905980D01*
%TO.N,/SPI1_MISO*%
X119150000Y-72050000D02*
X119150000Y-71197057D01*
X119000497Y-71047554D02*
X119000497Y-70900000D01*
X119150000Y-71197057D02*
X119000497Y-71047554D01*
%TO.N,/SPI1_MOSI*%
X118400994Y-71083769D02*
X118400994Y-70900000D01*
X118650000Y-72050000D02*
X118650000Y-71332775D01*
X118650000Y-71332775D02*
X118400994Y-71083769D01*
%TO.N,/CS1_Acce1*%
X116550000Y-77300000D02*
X116550000Y-79459531D01*
X113650000Y-75550000D02*
X114800000Y-75550000D01*
X114800000Y-75550000D02*
X116550000Y-77300000D01*
X116550000Y-79459531D02*
X116355761Y-79653770D01*
%TO.N,/CS1_Gyro*%
X114600000Y-76050000D02*
X115854122Y-77304122D01*
X115854122Y-77304122D02*
X115854122Y-79325500D01*
X113650000Y-76050000D02*
X114600000Y-76050000D01*
%TD*%
%TA.AperFunction,Conductor*%
%TO.N,+3V3*%
G36*
X121348401Y-80458626D02*
G01*
X121415589Y-80481568D01*
X121452046Y-80521505D01*
X121460960Y-80536944D01*
X121588747Y-80678866D01*
X121743248Y-80791118D01*
X121749276Y-80793802D01*
X121749278Y-80793803D01*
X121911681Y-80866109D01*
X121917712Y-80868794D01*
X121927655Y-80870907D01*
X121929478Y-80871891D01*
X121930452Y-80872208D01*
X121930394Y-80872386D01*
X121990129Y-80904632D01*
X122024453Y-80966780D01*
X122026702Y-80980330D01*
X122028837Y-80999674D01*
X122028838Y-80999678D01*
X122029671Y-81007224D01*
X122032282Y-81014359D01*
X122047357Y-81055556D01*
X122051983Y-81126402D01*
X122046428Y-81144616D01*
X122033111Y-81178772D01*
X122011518Y-81342790D01*
X122029671Y-81507224D01*
X122086524Y-81662582D01*
X122090761Y-81668888D01*
X122090763Y-81668891D01*
X122133324Y-81732227D01*
X122178794Y-81799893D01*
X122184413Y-81805006D01*
X122233899Y-81850036D01*
X122270821Y-81910676D01*
X122275079Y-81945400D01*
X122255136Y-83102130D01*
X122233963Y-83169896D01*
X122179514Y-83215457D01*
X122155353Y-83223204D01*
X122124176Y-83229831D01*
X122124167Y-83229834D01*
X122117712Y-83231206D01*
X122111685Y-83233889D01*
X122111677Y-83233892D01*
X122051248Y-83260797D01*
X121980881Y-83270231D01*
X121948752Y-83260797D01*
X121888323Y-83233892D01*
X121888315Y-83233889D01*
X121882288Y-83231206D01*
X121788887Y-83211353D01*
X121701944Y-83192872D01*
X121701939Y-83192872D01*
X121695487Y-83191500D01*
X121504513Y-83191500D01*
X121498061Y-83192872D01*
X121498056Y-83192872D01*
X121360697Y-83222069D01*
X121289906Y-83216667D01*
X121233274Y-83173850D01*
X121208780Y-83107212D01*
X121208500Y-83098822D01*
X121208500Y-82297386D01*
X121197675Y-82207934D01*
X121187051Y-82181100D01*
X121178222Y-82136889D01*
X121151445Y-80583830D01*
X121170269Y-80515376D01*
X121223116Y-80467965D01*
X121282898Y-80455778D01*
X121348401Y-80458626D01*
G37*
%TD.AperFunction*%
%TD*%
%TA.AperFunction,Conductor*%
%TO.N,Net-(D2-Pad2)*%
G36*
X102080152Y-81371376D02*
G01*
X102127687Y-81424110D01*
X102139778Y-81487997D01*
X102058819Y-82580946D01*
X102033839Y-82647403D01*
X101976896Y-82689805D01*
X101930644Y-82697613D01*
X101273773Y-82684475D01*
X99678517Y-82652570D01*
X99610810Y-82631210D01*
X99565400Y-82576635D01*
X99555138Y-82521559D01*
X99589391Y-81665237D01*
X99606171Y-81607273D01*
X99668623Y-81499102D01*
X99720005Y-81450109D01*
X99789719Y-81436672D01*
X99855630Y-81463059D01*
X99862541Y-81468908D01*
X99980944Y-81576646D01*
X99980948Y-81576649D01*
X99986565Y-81581760D01*
X100137268Y-81663585D01*
X100303139Y-81707101D01*
X100390586Y-81708474D01*
X100467003Y-81709675D01*
X100467006Y-81709675D01*
X100474602Y-81709794D01*
X100482006Y-81708098D01*
X100482008Y-81708098D01*
X100544846Y-81693706D01*
X100641759Y-81671510D01*
X100794958Y-81594459D01*
X100800729Y-81589530D01*
X100800732Y-81589528D01*
X100919578Y-81488023D01*
X100925355Y-81483089D01*
X100929789Y-81476919D01*
X100968055Y-81423667D01*
X101024050Y-81380020D01*
X101067907Y-81371218D01*
X102011652Y-81352713D01*
X102080152Y-81371376D01*
G37*
%TD.AperFunction*%
%TD*%
%TA.AperFunction,Conductor*%
%TO.N,+3V3*%
G36*
X124831167Y-64838830D02*
G01*
X124878880Y-64891403D01*
X124891500Y-64946366D01*
X124891501Y-65511838D01*
X124902127Y-65599658D01*
X124905103Y-65607175D01*
X124905104Y-65607178D01*
X124932093Y-65675343D01*
X124956440Y-65736837D01*
X125045643Y-65854357D01*
X125163163Y-65943560D01*
X125300342Y-65997873D01*
X125308380Y-65998846D01*
X125308381Y-65998846D01*
X125340225Y-66002699D01*
X125388161Y-66008500D01*
X125556511Y-66008500D01*
X125624632Y-66028502D01*
X125671125Y-66082158D01*
X125682474Y-66131427D01*
X125694345Y-66618115D01*
X125699788Y-66841288D01*
X125699010Y-66858660D01*
X125582308Y-67879807D01*
X125554701Y-67945216D01*
X125496113Y-67985316D01*
X125457123Y-67991500D01*
X124897386Y-67991500D01*
X124807934Y-68002325D01*
X124800406Y-68005305D01*
X124800404Y-68005306D01*
X124749991Y-68025266D01*
X124668208Y-68057646D01*
X124548505Y-68148505D01*
X124457646Y-68268208D01*
X124450252Y-68286884D01*
X124406577Y-68342858D01*
X124333100Y-68366500D01*
X124009643Y-68366500D01*
X123941522Y-68346498D01*
X123895029Y-68292842D01*
X123884044Y-68250548D01*
X123801445Y-67218058D01*
X123801445Y-67218057D01*
X123800000Y-67200000D01*
X121166861Y-67008499D01*
X121100370Y-66983609D01*
X121057892Y-66926722D01*
X121050000Y-66882831D01*
X121050000Y-66600000D01*
X121039173Y-66592782D01*
X121039172Y-66592781D01*
X120914456Y-66509637D01*
X120914455Y-66509637D01*
X120900000Y-66500000D01*
X120233297Y-66473332D01*
X119778757Y-66455150D01*
X119711490Y-66432442D01*
X119667179Y-66376971D01*
X119658038Y-66321391D01*
X119694609Y-65736263D01*
X119718822Y-65669523D01*
X119775273Y-65626468D01*
X119782412Y-65623975D01*
X120297558Y-65461298D01*
X120640982Y-65352848D01*
X120640983Y-65352847D01*
X120650000Y-65350000D01*
X120657774Y-65344618D01*
X120657776Y-65344617D01*
X121268940Y-64921503D01*
X121337764Y-64899132D01*
X121789391Y-64888750D01*
X124762607Y-64820400D01*
X124831167Y-64838830D01*
G37*
%TD.AperFunction*%
%TD*%
%TA.AperFunction,Conductor*%
%TO.N,+5V*%
G36*
X115488025Y-57921246D02*
G01*
X115535581Y-57973961D01*
X115548023Y-58030494D01*
X115498221Y-61317409D01*
X115477189Y-61385219D01*
X115422835Y-61430893D01*
X115372235Y-61441500D01*
X113217052Y-61441500D01*
X113148931Y-61421498D01*
X113102438Y-61367842D01*
X113091061Y-61317036D01*
X113051525Y-58075011D01*
X113070695Y-58006652D01*
X113123780Y-57959508D01*
X113174997Y-57947500D01*
X113495643Y-57941087D01*
X115419518Y-57902610D01*
X115488025Y-57921246D01*
G37*
%TD.AperFunction*%
%TD*%
%TA.AperFunction,Conductor*%
%TO.N,+3V3*%
G36*
X103678527Y-67278502D02*
G01*
X103699501Y-67295405D01*
X103863095Y-67458999D01*
X103897121Y-67521311D01*
X103900000Y-67548094D01*
X103900000Y-68374000D01*
X103879998Y-68442121D01*
X103826342Y-68488614D01*
X103774000Y-68500000D01*
X101459500Y-68500000D01*
X101391379Y-68479998D01*
X101344886Y-68426342D01*
X101333500Y-68374000D01*
X101333500Y-67559500D01*
X101353502Y-67491379D01*
X101407158Y-67444886D01*
X101459500Y-67433500D01*
X102817152Y-67433499D01*
X102861838Y-67433499D01*
X102906090Y-67428145D01*
X102941628Y-67423845D01*
X102941631Y-67423844D01*
X102949658Y-67422873D01*
X102957175Y-67419897D01*
X102957178Y-67419896D01*
X103025343Y-67392907D01*
X103086837Y-67368560D01*
X103198059Y-67284137D01*
X103264414Y-67258884D01*
X103274240Y-67258500D01*
X103610406Y-67258500D01*
X103678527Y-67278502D01*
G37*
%TD.AperFunction*%
%TD*%
%TA.AperFunction,Conductor*%
%TO.N,+24V*%
G36*
X106687412Y-82595404D02*
G01*
X106735541Y-82647597D01*
X106748600Y-82703457D01*
X106748600Y-83700901D01*
X106748598Y-83701671D01*
X106748124Y-83779255D01*
X106750590Y-83787884D01*
X106750591Y-83787889D01*
X106756239Y-83807651D01*
X106759817Y-83824412D01*
X106762730Y-83844755D01*
X106762733Y-83844765D01*
X106764005Y-83853648D01*
X106774621Y-83876998D01*
X106781064Y-83894510D01*
X106788112Y-83919168D01*
X106803874Y-83944151D01*
X106812004Y-83959217D01*
X106824233Y-83986113D01*
X106840974Y-84005542D01*
X106852079Y-84020550D01*
X106865760Y-84042234D01*
X106872488Y-84048176D01*
X106887896Y-84061784D01*
X106899940Y-84073976D01*
X106919219Y-84096350D01*
X106926747Y-84101229D01*
X106926750Y-84101232D01*
X106940739Y-84110299D01*
X106955613Y-84121589D01*
X106974828Y-84138559D01*
X106982954Y-84142374D01*
X106982955Y-84142375D01*
X106988621Y-84145035D01*
X107001566Y-84151113D01*
X107016535Y-84159427D01*
X107041327Y-84175496D01*
X107049927Y-84178068D01*
X107065890Y-84182842D01*
X107083336Y-84189504D01*
X107106548Y-84200402D01*
X107135730Y-84204946D01*
X107152449Y-84208729D01*
X107172136Y-84214617D01*
X107172139Y-84214618D01*
X107180741Y-84217190D01*
X107189716Y-84217245D01*
X107189717Y-84217245D01*
X107196410Y-84217286D01*
X107215156Y-84217400D01*
X107215928Y-84217433D01*
X107217023Y-84217603D01*
X107247898Y-84217603D01*
X107248668Y-84217605D01*
X107322316Y-84218055D01*
X107322317Y-84218055D01*
X107326252Y-84218079D01*
X107327596Y-84217695D01*
X107328941Y-84217603D01*
X107650773Y-84217603D01*
X107718894Y-84237605D01*
X107765387Y-84291261D01*
X107776704Y-84339471D01*
X107862440Y-86954430D01*
X107891694Y-87846672D01*
X107873935Y-87915412D01*
X107821832Y-87963638D01*
X107765763Y-87976801D01*
X106409762Y-87976801D01*
X103326000Y-87976800D01*
X103257879Y-87956798D01*
X103211386Y-87903142D01*
X103200000Y-87850800D01*
X103200000Y-83134500D01*
X103220002Y-83066379D01*
X103273658Y-83019886D01*
X103326000Y-83008500D01*
X103552614Y-83008500D01*
X103642066Y-82997675D01*
X103649594Y-82994695D01*
X103649596Y-82994694D01*
X103700009Y-82974734D01*
X103781792Y-82942354D01*
X103901495Y-82851495D01*
X103934267Y-82808319D01*
X103991384Y-82766153D01*
X104034629Y-82758500D01*
X106071088Y-82758500D01*
X106079658Y-82758792D01*
X106129776Y-82762209D01*
X106129780Y-82762209D01*
X106137352Y-82762725D01*
X106144829Y-82761420D01*
X106144830Y-82761420D01*
X106171308Y-82756799D01*
X106200303Y-82751738D01*
X106206821Y-82750777D01*
X106270242Y-82743102D01*
X106277343Y-82740419D01*
X106279952Y-82739778D01*
X106296262Y-82735315D01*
X106298798Y-82734550D01*
X106306284Y-82733243D01*
X106364800Y-82707556D01*
X106370904Y-82705065D01*
X106423548Y-82685173D01*
X106423549Y-82685172D01*
X106430656Y-82682487D01*
X106436919Y-82678183D01*
X106439285Y-82676946D01*
X106454097Y-82668701D01*
X106456351Y-82667368D01*
X106463305Y-82664315D01*
X106514002Y-82625413D01*
X106519333Y-82621540D01*
X106551236Y-82599615D01*
X106618706Y-82577517D01*
X106687412Y-82595404D01*
G37*
%TD.AperFunction*%
%TD*%
%TA.AperFunction,Conductor*%
%TO.N,GNDPWR*%
G36*
X117998285Y-73120002D02*
G01*
X118037012Y-73159220D01*
X118500000Y-73900000D01*
X119651905Y-73900000D01*
X119720026Y-73920002D01*
X119740999Y-73936903D01*
X119976649Y-74172554D01*
X120095276Y-74291181D01*
X120127331Y-74345660D01*
X120294942Y-74932296D01*
X120299100Y-74980080D01*
X120298010Y-74990448D01*
X120293245Y-75035786D01*
X120266231Y-75101443D01*
X120257030Y-75111710D01*
X119840229Y-75528511D01*
X119800510Y-75555338D01*
X119464553Y-75698431D01*
X119410896Y-75721285D01*
X119340385Y-75729577D01*
X119276585Y-75698431D01*
X119260721Y-75680962D01*
X118730871Y-74974495D01*
X118730872Y-74974495D01*
X118720000Y-74960000D01*
X117954466Y-74947653D01*
X115123968Y-74901999D01*
X115056179Y-74880901D01*
X115010557Y-74826502D01*
X115000000Y-74776015D01*
X115000000Y-73226000D01*
X115020002Y-73157879D01*
X115073658Y-73111386D01*
X115126000Y-73100000D01*
X117930164Y-73100000D01*
X117998285Y-73120002D01*
G37*
%TD.AperFunction*%
%TD*%
%TA.AperFunction,Conductor*%
%TO.N,GND*%
G36*
X125388161Y-80133500D02*
G01*
X125463685Y-80133500D01*
X126451771Y-80133499D01*
X126519892Y-80153501D01*
X126540866Y-80170404D01*
X126754115Y-80383653D01*
X126788141Y-80445965D01*
X126791020Y-80472748D01*
X126791020Y-81202567D01*
X126771018Y-81270688D01*
X126754115Y-81291663D01*
X126488619Y-81557158D01*
X126235090Y-81810687D01*
X126189913Y-81839689D01*
X126189870Y-81839705D01*
X126182485Y-81841478D01*
X126175741Y-81844959D01*
X126175738Y-81844960D01*
X126105775Y-81881071D01*
X126030101Y-81920129D01*
X125900877Y-82032859D01*
X125802272Y-82173159D01*
X125799512Y-82180239D01*
X125744043Y-82322509D01*
X125739980Y-82332929D01*
X125738988Y-82340462D01*
X125738988Y-82340463D01*
X125718969Y-82492526D01*
X125717597Y-82502946D01*
X125718431Y-82510496D01*
X125735265Y-82662975D01*
X125736415Y-82673395D01*
X125795347Y-82834435D01*
X125890992Y-82976769D01*
X126017827Y-83092180D01*
X126168530Y-83174005D01*
X126334401Y-83217521D01*
X126471550Y-83219675D01*
X126539348Y-83240744D01*
X126554370Y-83252465D01*
X126586565Y-83281760D01*
X126737268Y-83363585D01*
X126844181Y-83391633D01*
X126904995Y-83428267D01*
X126936350Y-83491964D01*
X126928291Y-83562502D01*
X126909291Y-83593824D01*
X126790712Y-83737162D01*
X126766168Y-83766831D01*
X126597038Y-84033337D01*
X126595354Y-84036916D01*
X126595350Y-84036923D01*
X126465571Y-84312720D01*
X126462644Y-84318940D01*
X126365105Y-84619134D01*
X126305959Y-84929186D01*
X126286140Y-85244206D01*
X126305959Y-85559226D01*
X126365105Y-85869278D01*
X126462644Y-86169472D01*
X126464331Y-86173058D01*
X126464333Y-86173062D01*
X126595350Y-86451489D01*
X126595354Y-86451496D01*
X126597038Y-86455075D01*
X126766168Y-86721581D01*
X126967367Y-86964788D01*
X127197460Y-87180860D01*
X127200662Y-87183187D01*
X127200664Y-87183188D01*
X127245214Y-87215555D01*
X127452821Y-87366390D01*
X127456290Y-87368297D01*
X127456293Y-87368299D01*
X127504496Y-87394799D01*
X127729421Y-87518453D01*
X127733090Y-87519906D01*
X127733095Y-87519908D01*
X127990309Y-87621746D01*
X128022898Y-87634649D01*
X128328625Y-87713146D01*
X128412274Y-87723713D01*
X128428769Y-87725797D01*
X128493846Y-87754179D01*
X128533247Y-87813238D01*
X128534464Y-87884224D01*
X128497109Y-87944599D01*
X128433043Y-87975195D01*
X128412977Y-87976803D01*
X127529155Y-87976803D01*
X120658544Y-87976802D01*
X120590423Y-87956800D01*
X120543930Y-87903144D01*
X120533827Y-87832870D01*
X120563320Y-87768290D01*
X120581839Y-87750841D01*
X120592591Y-87742591D01*
X120685319Y-87621746D01*
X120743610Y-87481019D01*
X120750390Y-87429520D01*
X120757962Y-87372005D01*
X120757962Y-87372004D01*
X120758500Y-87367918D01*
X120758500Y-87359500D01*
X120778502Y-87291379D01*
X120832158Y-87244886D01*
X120884500Y-87233500D01*
X121021233Y-87233500D01*
X121032416Y-87234027D01*
X121039909Y-87235702D01*
X121047835Y-87235453D01*
X121047836Y-87235453D01*
X121107986Y-87233562D01*
X121111945Y-87233500D01*
X121139856Y-87233500D01*
X121143791Y-87233003D01*
X121143856Y-87232995D01*
X121155693Y-87232062D01*
X121187951Y-87231048D01*
X121191970Y-87230922D01*
X121199889Y-87230673D01*
X121219343Y-87225021D01*
X121238700Y-87221013D01*
X121250930Y-87219468D01*
X121250931Y-87219468D01*
X121258797Y-87218474D01*
X121266168Y-87215555D01*
X121266170Y-87215555D01*
X121299912Y-87202196D01*
X121311142Y-87198351D01*
X121345983Y-87188229D01*
X121345984Y-87188229D01*
X121353593Y-87186018D01*
X121360412Y-87181985D01*
X121360417Y-87181983D01*
X121371028Y-87175707D01*
X121388776Y-87167012D01*
X121407617Y-87159552D01*
X121443387Y-87133564D01*
X121453307Y-87127048D01*
X121484535Y-87108580D01*
X121484538Y-87108578D01*
X121491362Y-87104542D01*
X121505683Y-87090221D01*
X121520717Y-87077380D01*
X121530694Y-87070131D01*
X121537107Y-87065472D01*
X121565298Y-87031395D01*
X121573288Y-87022616D01*
X125042247Y-83553657D01*
X125050537Y-83546113D01*
X125057018Y-83542000D01*
X125074099Y-83523811D01*
X125103658Y-83492333D01*
X125106413Y-83489491D01*
X125126134Y-83469770D01*
X125128612Y-83466575D01*
X125136318Y-83457553D01*
X125161158Y-83431101D01*
X125166586Y-83425321D01*
X125176346Y-83407568D01*
X125187199Y-83391045D01*
X125194753Y-83381306D01*
X125199613Y-83375041D01*
X125217176Y-83334457D01*
X125222383Y-83323827D01*
X125243695Y-83285060D01*
X125245666Y-83277383D01*
X125245668Y-83277378D01*
X125248732Y-83265442D01*
X125255138Y-83246730D01*
X125260033Y-83235419D01*
X125263181Y-83228145D01*
X125264421Y-83220317D01*
X125264423Y-83220310D01*
X125270099Y-83184476D01*
X125272505Y-83172856D01*
X125281528Y-83137711D01*
X125281528Y-83137710D01*
X125283500Y-83130030D01*
X125283500Y-83109776D01*
X125285051Y-83090065D01*
X125286980Y-83077886D01*
X125288220Y-83070057D01*
X125284059Y-83026038D01*
X125283500Y-83014181D01*
X125283500Y-82848119D01*
X125292592Y-82801123D01*
X125336553Y-82691764D01*
X125339385Y-82684720D01*
X125363547Y-82514947D01*
X125363704Y-82500000D01*
X125359258Y-82463262D01*
X125344015Y-82337299D01*
X125344014Y-82337296D01*
X125343102Y-82329758D01*
X125337262Y-82314301D01*
X125285171Y-82176447D01*
X125282487Y-82169344D01*
X125266200Y-82145646D01*
X125189659Y-82034278D01*
X125189658Y-82034276D01*
X125185357Y-82028019D01*
X125179686Y-82022966D01*
X125062993Y-81918996D01*
X125062990Y-81918994D01*
X125057321Y-81913943D01*
X125049325Y-81909709D01*
X124938492Y-81851026D01*
X124905769Y-81833700D01*
X124884820Y-81828438D01*
X124746822Y-81793775D01*
X124746818Y-81793775D01*
X124739451Y-81791924D01*
X124731852Y-81791884D01*
X124731850Y-81791884D01*
X124660394Y-81791510D01*
X124567969Y-81791026D01*
X124560589Y-81792798D01*
X124560587Y-81792798D01*
X124408602Y-81829286D01*
X124408598Y-81829287D01*
X124401223Y-81831058D01*
X124248839Y-81909709D01*
X124119615Y-82022439D01*
X124021010Y-82162739D01*
X124014187Y-82180239D01*
X123966535Y-82302460D01*
X123958718Y-82322509D01*
X123936335Y-82492526D01*
X123945744Y-82577750D01*
X123949424Y-82611079D01*
X123955153Y-82662975D01*
X123957763Y-82670108D01*
X123957764Y-82670111D01*
X123977336Y-82723596D01*
X123981962Y-82794442D01*
X123948105Y-82855991D01*
X122140996Y-84663099D01*
X122078684Y-84697125D01*
X122007868Y-84692060D01*
X121968087Y-84668084D01*
X121907321Y-84613943D01*
X121755769Y-84533700D01*
X121748404Y-84531850D01*
X121596822Y-84493775D01*
X121596818Y-84493775D01*
X121589451Y-84491924D01*
X121581851Y-84491884D01*
X121574320Y-84490933D01*
X121574649Y-84488327D01*
X121518600Y-84471546D01*
X121472392Y-84417645D01*
X121469416Y-84410449D01*
X121435171Y-84319823D01*
X121432487Y-84312720D01*
X121361865Y-84209964D01*
X121339659Y-84177654D01*
X121339658Y-84177652D01*
X121335357Y-84171395D01*
X121329686Y-84166342D01*
X121212993Y-84062372D01*
X121212990Y-84062370D01*
X121207321Y-84057319D01*
X121172283Y-84038767D01*
X121121443Y-83989217D01*
X121105461Y-83920042D01*
X121129415Y-83853209D01*
X121185699Y-83809935D01*
X121246382Y-83802328D01*
X121268593Y-83805016D01*
X121297386Y-83808500D01*
X122102614Y-83808500D01*
X122192066Y-83797675D01*
X122199594Y-83794695D01*
X122199596Y-83794694D01*
X122261506Y-83770182D01*
X122331792Y-83742354D01*
X122373480Y-83710711D01*
X122444653Y-83656689D01*
X122444656Y-83656686D01*
X122451495Y-83651495D01*
X122456686Y-83644656D01*
X122462764Y-83638578D01*
X122463207Y-83639021D01*
X122490050Y-83614622D01*
X122505516Y-83605055D01*
X122518938Y-83593824D01*
X122556513Y-83562383D01*
X122556517Y-83562379D01*
X122559965Y-83559494D01*
X122584818Y-83531792D01*
X122618662Y-83494067D01*
X122656523Y-83451865D01*
X122705216Y-83349929D01*
X122716902Y-83325466D01*
X122716903Y-83325464D01*
X122718847Y-83321394D01*
X122740020Y-83253628D01*
X122763061Y-83110887D01*
X122764729Y-83014181D01*
X122782966Y-81956369D01*
X122782966Y-81956365D01*
X122783004Y-81954157D01*
X122779302Y-81883570D01*
X122775044Y-81848846D01*
X122767640Y-81810687D01*
X122762851Y-81786006D01*
X122762850Y-81786003D01*
X122761575Y-81779432D01*
X122704720Y-81646487D01*
X122667798Y-81585847D01*
X122637300Y-81548873D01*
X122609384Y-81483595D01*
X122608500Y-81468697D01*
X122608500Y-80890375D01*
X122628502Y-80822254D01*
X122660439Y-80788439D01*
X122737344Y-80732564D01*
X122804212Y-80708706D01*
X122811405Y-80708500D01*
X124371088Y-80708500D01*
X124379658Y-80708792D01*
X124429776Y-80712209D01*
X124429780Y-80712209D01*
X124437352Y-80712725D01*
X124444829Y-80711420D01*
X124444830Y-80711420D01*
X124471308Y-80706799D01*
X124500303Y-80701738D01*
X124506821Y-80700777D01*
X124570242Y-80693102D01*
X124577343Y-80690419D01*
X124579952Y-80689778D01*
X124596262Y-80685315D01*
X124598798Y-80684550D01*
X124606284Y-80683243D01*
X124664800Y-80657556D01*
X124670904Y-80655065D01*
X124723548Y-80635173D01*
X124723549Y-80635172D01*
X124730656Y-80632487D01*
X124736919Y-80628183D01*
X124739285Y-80626946D01*
X124754097Y-80618701D01*
X124756351Y-80617368D01*
X124763305Y-80614315D01*
X124814002Y-80575413D01*
X124819332Y-80571541D01*
X124865720Y-80539661D01*
X124865725Y-80539656D01*
X124871981Y-80535357D01*
X124877030Y-80529690D01*
X124877037Y-80529684D01*
X124913444Y-80488821D01*
X124918425Y-80483545D01*
X125238032Y-80163938D01*
X125300344Y-80129912D01*
X125342264Y-80127946D01*
X125388161Y-80133500D01*
G37*
%TD.AperFunction*%
%TA.AperFunction,Conductor*%
G36*
X117178454Y-84196061D02*
G01*
X117231920Y-84227824D01*
X118409344Y-85405248D01*
X118443370Y-85467560D01*
X118438305Y-85538375D01*
X118423816Y-85564536D01*
X118423838Y-85564549D01*
X118423129Y-85565778D01*
X118420208Y-85571051D01*
X118414681Y-85578254D01*
X118356390Y-85718981D01*
X118341500Y-85832082D01*
X118341500Y-87367918D01*
X118342038Y-87372004D01*
X118342038Y-87372005D01*
X118349610Y-87429520D01*
X118356390Y-87481019D01*
X118414681Y-87621746D01*
X118507409Y-87742591D01*
X118513959Y-87747617D01*
X118513961Y-87747619D01*
X118518160Y-87750841D01*
X118560027Y-87808179D01*
X118564248Y-87879050D01*
X118529483Y-87940953D01*
X118466770Y-87974233D01*
X118441455Y-87976802D01*
X114501438Y-87976802D01*
X108523892Y-87976801D01*
X108455771Y-87956799D01*
X108409278Y-87903143D01*
X108398982Y-87839005D01*
X108398753Y-87838996D01*
X108398797Y-87837854D01*
X108398654Y-87836965D01*
X108399421Y-87830025D01*
X108370167Y-86937783D01*
X108330475Y-85727169D01*
X108285248Y-84347732D01*
X108303007Y-84278992D01*
X108355110Y-84230766D01*
X108411180Y-84217603D01*
X116937998Y-84217603D01*
X116938769Y-84217605D01*
X117016352Y-84218079D01*
X117024981Y-84215613D01*
X117024986Y-84215612D01*
X117044748Y-84209964D01*
X117061509Y-84206386D01*
X117081852Y-84203473D01*
X117081862Y-84203470D01*
X117090745Y-84202198D01*
X117098921Y-84198481D01*
X117107458Y-84195984D01*
X117178454Y-84196061D01*
G37*
%TD.AperFunction*%
%TA.AperFunction,Conductor*%
G36*
X120209647Y-81387416D02*
G01*
X120226180Y-81398041D01*
X120255596Y-81420369D01*
X120388954Y-81473169D01*
X120396992Y-81474142D01*
X120396993Y-81474142D01*
X120427160Y-81477792D01*
X120474326Y-81483500D01*
X120535035Y-81483500D01*
X120603156Y-81503502D01*
X120649649Y-81557158D01*
X120661016Y-81607328D01*
X120669100Y-82076193D01*
X120670297Y-82145646D01*
X120670598Y-82148448D01*
X120670599Y-82148457D01*
X120676188Y-82200404D01*
X120680058Y-82236373D01*
X120688887Y-82280584D01*
X120695345Y-82302460D01*
X120700500Y-82338133D01*
X120700500Y-83098822D01*
X120700626Y-83106380D01*
X120700702Y-83110887D01*
X120700783Y-83115766D01*
X120700798Y-83116221D01*
X120700799Y-83116254D01*
X120700992Y-83122022D01*
X120701063Y-83124156D01*
X120701908Y-83141040D01*
X120702952Y-83145950D01*
X120702952Y-83145953D01*
X120730733Y-83276650D01*
X120731970Y-83282472D01*
X120756464Y-83349110D01*
X120758595Y-83353058D01*
X120758599Y-83353066D01*
X120789225Y-83409794D01*
X120825152Y-83476341D01*
X120831494Y-83482744D01*
X120836108Y-83488969D01*
X120852031Y-83517609D01*
X120857646Y-83531792D01*
X120948505Y-83651495D01*
X121026520Y-83710711D01*
X121045436Y-83725069D01*
X121087603Y-83782187D01*
X121092195Y-83853035D01*
X121057756Y-83915119D01*
X120995218Y-83948728D01*
X120938563Y-83947636D01*
X120889451Y-83935300D01*
X120881852Y-83935260D01*
X120881850Y-83935260D01*
X120810394Y-83934886D01*
X120717969Y-83934402D01*
X120710589Y-83936174D01*
X120710587Y-83936174D01*
X120558602Y-83972662D01*
X120558598Y-83972663D01*
X120551223Y-83974434D01*
X120521309Y-83989874D01*
X120509746Y-83995842D01*
X120451956Y-84009876D01*
X119522462Y-84009876D01*
X119454341Y-83989874D01*
X119433367Y-83972971D01*
X119360565Y-83900169D01*
X119326539Y-83837857D01*
X119331604Y-83767042D01*
X119373480Y-83710711D01*
X119451495Y-83651495D01*
X119542354Y-83531792D01*
X119587260Y-83418372D01*
X119594694Y-83399596D01*
X119594695Y-83399594D01*
X119597675Y-83392066D01*
X119608500Y-83302614D01*
X119608500Y-82297386D01*
X119597675Y-82207934D01*
X119542354Y-82068208D01*
X119451495Y-81948505D01*
X119331792Y-81857646D01*
X119323809Y-81854485D01*
X119322165Y-81853559D01*
X119272637Y-81802692D01*
X119258020Y-81743787D01*
X119258020Y-81603359D01*
X119278022Y-81535238D01*
X119331678Y-81488745D01*
X119368889Y-81478271D01*
X119384869Y-81476338D01*
X119415136Y-81476338D01*
X119470562Y-81483045D01*
X119470570Y-81483045D01*
X119474326Y-81483500D01*
X119825674Y-81483500D01*
X119872840Y-81477792D01*
X119903007Y-81474142D01*
X119903008Y-81474142D01*
X119911046Y-81473169D01*
X120044404Y-81420369D01*
X120073820Y-81398041D01*
X120140174Y-81372788D01*
X120209647Y-81387416D01*
G37*
%TD.AperFunction*%
%TA.AperFunction,Conductor*%
G36*
X99331489Y-80903502D02*
G01*
X99377982Y-80957158D01*
X99388086Y-81027432D01*
X99358592Y-81092012D01*
X99350331Y-81100677D01*
X99318062Y-81131446D01*
X99228681Y-81245104D01*
X99226436Y-81248993D01*
X99226431Y-81249000D01*
X99201800Y-81291663D01*
X99166229Y-81353275D01*
X99118206Y-81466012D01*
X99117151Y-81469657D01*
X99117149Y-81469662D01*
X99115217Y-81476338D01*
X99101426Y-81523976D01*
X99100817Y-81527728D01*
X99100816Y-81527733D01*
X99087900Y-81607328D01*
X99081797Y-81644933D01*
X99047544Y-82501255D01*
X99047799Y-82504783D01*
X99047799Y-82504791D01*
X99048235Y-82510822D01*
X99055733Y-82614610D01*
X99061939Y-82647915D01*
X99054754Y-82718547D01*
X99010523Y-82774082D01*
X98969406Y-82793037D01*
X98736733Y-82852777D01*
X98736713Y-82852783D01*
X98732898Y-82853763D01*
X98729229Y-82855216D01*
X98729228Y-82855216D01*
X98443095Y-82968504D01*
X98443090Y-82968506D01*
X98439421Y-82969959D01*
X98435953Y-82971865D01*
X98435952Y-82971866D01*
X98173313Y-83116254D01*
X98162821Y-83122022D01*
X98016755Y-83228145D01*
X97914257Y-83302614D01*
X97907460Y-83307552D01*
X97677367Y-83523624D01*
X97674842Y-83526676D01*
X97674834Y-83526685D01*
X97599084Y-83618250D01*
X97540251Y-83657988D01*
X97469273Y-83659609D01*
X97408685Y-83622600D01*
X97377725Y-83558710D01*
X97376000Y-83537934D01*
X97376000Y-81009500D01*
X97396002Y-80941379D01*
X97449658Y-80894886D01*
X97502000Y-80883500D01*
X99263368Y-80883500D01*
X99331489Y-80903502D01*
G37*
%TD.AperFunction*%
%TA.AperFunction,Conductor*%
G36*
X127633621Y-74803982D02*
G01*
X127680114Y-74857638D01*
X127691500Y-74909980D01*
X127691500Y-75468392D01*
X127702522Y-75559473D01*
X127758852Y-75701747D01*
X127851368Y-75823632D01*
X127973253Y-75916148D01*
X128115527Y-75972478D01*
X128123565Y-75973451D01*
X128123566Y-75973451D01*
X128148338Y-75976449D01*
X128206608Y-75983500D01*
X130778000Y-75983500D01*
X130846121Y-76003502D01*
X130892614Y-76057158D01*
X130904000Y-76109500D01*
X130904000Y-81290500D01*
X130883998Y-81358621D01*
X130830342Y-81405114D01*
X130778000Y-81416500D01*
X128659500Y-81416500D01*
X128591379Y-81396498D01*
X128544886Y-81342842D01*
X128533500Y-81290500D01*
X128533500Y-78878767D01*
X128534027Y-78867584D01*
X128535702Y-78860091D01*
X128533562Y-78792000D01*
X128533500Y-78788043D01*
X128533500Y-78760144D01*
X128532996Y-78756153D01*
X128532063Y-78744311D01*
X128531944Y-78740500D01*
X128530674Y-78700111D01*
X128528462Y-78692497D01*
X128528461Y-78692492D01*
X128525023Y-78680659D01*
X128521012Y-78661295D01*
X128519467Y-78649064D01*
X128518474Y-78641203D01*
X128515557Y-78633836D01*
X128515556Y-78633831D01*
X128502198Y-78600092D01*
X128498354Y-78588865D01*
X128488701Y-78555643D01*
X128486018Y-78546407D01*
X128478976Y-78534500D01*
X128475707Y-78528972D01*
X128467012Y-78511224D01*
X128459552Y-78492383D01*
X128433564Y-78456613D01*
X128427048Y-78446693D01*
X128408580Y-78415465D01*
X128408578Y-78415462D01*
X128404542Y-78408638D01*
X128390221Y-78394317D01*
X128377380Y-78379283D01*
X128370132Y-78369307D01*
X128365472Y-78362893D01*
X128331407Y-78334712D01*
X128322626Y-78326722D01*
X127678647Y-77682742D01*
X127671113Y-77674463D01*
X127667000Y-77667982D01*
X127617348Y-77621356D01*
X127614507Y-77618602D01*
X127594770Y-77598865D01*
X127591573Y-77596386D01*
X127582547Y-77588676D01*
X127571406Y-77578213D01*
X127547893Y-77548225D01*
X127546719Y-77546142D01*
X127543560Y-77538163D01*
X127534464Y-77526180D01*
X127509210Y-77459829D01*
X127523837Y-77390355D01*
X127534460Y-77373825D01*
X127543560Y-77361837D01*
X127597873Y-77224658D01*
X127599885Y-77208036D01*
X127604350Y-77171134D01*
X127608500Y-77136839D01*
X127608499Y-76513162D01*
X127597873Y-76425342D01*
X127594417Y-76416611D01*
X127559550Y-76328550D01*
X127543560Y-76288163D01*
X127454357Y-76170643D01*
X127336837Y-76081440D01*
X127199658Y-76027127D01*
X127191620Y-76026154D01*
X127191619Y-76026154D01*
X127151827Y-76021339D01*
X127111839Y-76016500D01*
X127099137Y-76016500D01*
X126383592Y-76016501D01*
X126315472Y-75996499D01*
X126268979Y-75942843D01*
X126258875Y-75872570D01*
X126288368Y-75807989D01*
X126294498Y-75801406D01*
X127275019Y-74820885D01*
X127337331Y-74786859D01*
X127364114Y-74783980D01*
X127565500Y-74783980D01*
X127633621Y-74803982D01*
G37*
%TD.AperFunction*%
%TA.AperFunction,Conductor*%
G36*
X112684055Y-78316015D02*
G01*
X112740891Y-78358562D01*
X112757175Y-78387687D01*
X112762825Y-78401957D01*
X112779631Y-78444404D01*
X112784821Y-78451241D01*
X112801959Y-78473820D01*
X112827212Y-78540174D01*
X112812584Y-78609647D01*
X112801959Y-78626180D01*
X112779631Y-78655596D01*
X112726831Y-78788954D01*
X112725858Y-78796992D01*
X112725858Y-78796993D01*
X112723663Y-78815136D01*
X112716500Y-78874326D01*
X112716500Y-79225674D01*
X112726831Y-79311046D01*
X112729812Y-79318574D01*
X112729812Y-79318576D01*
X112735190Y-79332159D01*
X112741669Y-79402860D01*
X112735190Y-79424925D01*
X112702325Y-79507934D01*
X112691500Y-79597386D01*
X112691500Y-80440500D01*
X112671498Y-80508621D01*
X112617842Y-80555114D01*
X112565500Y-80566500D01*
X111364595Y-80566500D01*
X111296474Y-80546498D01*
X111275499Y-80529595D01*
X111142507Y-80396602D01*
X111113737Y-80352045D01*
X111085171Y-80276447D01*
X111082487Y-80269344D01*
X111055596Y-80230217D01*
X111045733Y-80215866D01*
X111023633Y-80148396D01*
X111041519Y-80079689D01*
X111093711Y-80031559D01*
X111149573Y-80018499D01*
X111311838Y-80018499D01*
X111356090Y-80013145D01*
X111391628Y-80008845D01*
X111391631Y-80008844D01*
X111399658Y-80007873D01*
X111407175Y-80004897D01*
X111407178Y-80004896D01*
X111475343Y-79977907D01*
X111536837Y-79953560D01*
X111654357Y-79864357D01*
X111743560Y-79746837D01*
X111797873Y-79609658D01*
X111799466Y-79596498D01*
X111804679Y-79553415D01*
X111808500Y-79521839D01*
X111808499Y-79139595D01*
X111828501Y-79071475D01*
X111845404Y-79050500D01*
X112550928Y-78344976D01*
X112613240Y-78310950D01*
X112684055Y-78316015D01*
G37*
%TD.AperFunction*%
%TA.AperFunction,Conductor*%
G36*
X107783621Y-74828502D02*
G01*
X107830114Y-74882158D01*
X107841500Y-74934500D01*
X107841500Y-75604340D01*
X107821498Y-75672461D01*
X107804595Y-75693435D01*
X107169480Y-76328550D01*
X107163215Y-76334404D01*
X107119615Y-76372439D01*
X107115248Y-76378653D01*
X107082872Y-76424719D01*
X107078939Y-76430014D01*
X107039524Y-76480282D01*
X107036401Y-76487198D01*
X107035017Y-76489484D01*
X107026643Y-76504165D01*
X107025378Y-76506525D01*
X107021010Y-76512739D01*
X107018250Y-76519818D01*
X107018249Y-76519820D01*
X106997798Y-76572275D01*
X106995247Y-76578344D01*
X106968955Y-76636573D01*
X106967571Y-76644040D01*
X106966770Y-76646595D01*
X106962141Y-76662848D01*
X106961478Y-76665428D01*
X106958718Y-76672509D01*
X106957727Y-76680040D01*
X106957726Y-76680042D01*
X106950379Y-76735852D01*
X106949348Y-76742359D01*
X106937704Y-76805186D01*
X106938141Y-76812766D01*
X106938141Y-76812767D01*
X106941291Y-76867392D01*
X106941500Y-76874646D01*
X106941500Y-78521088D01*
X106941208Y-78529658D01*
X106937791Y-78579775D01*
X106937791Y-78579779D01*
X106937275Y-78587352D01*
X106938580Y-78594829D01*
X106938580Y-78594832D01*
X106939624Y-78600812D01*
X106941500Y-78622474D01*
X106941500Y-79580627D01*
X106921498Y-79648748D01*
X106867842Y-79695241D01*
X106797568Y-79705345D01*
X106731682Y-79674705D01*
X106684671Y-79632819D01*
X106676675Y-79628585D01*
X106600297Y-79588145D01*
X106533119Y-79552576D01*
X106515546Y-79548162D01*
X106374172Y-79512651D01*
X106374168Y-79512651D01*
X106366801Y-79510800D01*
X106359202Y-79510760D01*
X106359200Y-79510760D01*
X106287744Y-79510386D01*
X106195319Y-79509902D01*
X106187939Y-79511674D01*
X106187937Y-79511674D01*
X106035952Y-79548162D01*
X106035948Y-79548163D01*
X106028573Y-79549934D01*
X105969106Y-79580627D01*
X105895814Y-79618456D01*
X105876189Y-79628585D01*
X105870467Y-79633577D01*
X105870465Y-79633578D01*
X105868323Y-79635447D01*
X105866436Y-79636316D01*
X105864184Y-79637847D01*
X105863929Y-79637472D01*
X105803842Y-79665157D01*
X105785492Y-79666500D01*
X103164595Y-79666500D01*
X103096474Y-79646498D01*
X103075499Y-79629595D01*
X102520404Y-79074499D01*
X102486379Y-79012187D01*
X102483500Y-78985404D01*
X102483500Y-78959499D01*
X102503502Y-78891378D01*
X102557158Y-78844885D01*
X102609500Y-78833499D01*
X102711838Y-78833499D01*
X102756090Y-78828145D01*
X102791628Y-78823845D01*
X102791631Y-78823844D01*
X102799658Y-78822873D01*
X102807175Y-78819897D01*
X102807182Y-78819895D01*
X102810007Y-78818776D01*
X102812479Y-78818549D01*
X102815028Y-78817902D01*
X102815131Y-78818306D01*
X102880707Y-78812294D01*
X102944609Y-78846362D01*
X102948505Y-78851495D01*
X103068208Y-78942354D01*
X103149991Y-78974734D01*
X103200404Y-78994694D01*
X103200406Y-78994695D01*
X103207934Y-78997675D01*
X103297386Y-79008500D01*
X104302614Y-79008500D01*
X104392066Y-78997675D01*
X104399594Y-78994695D01*
X104399596Y-78994694D01*
X104450009Y-78974734D01*
X104531792Y-78942354D01*
X104651495Y-78851495D01*
X104699289Y-78788528D01*
X104756405Y-78746362D01*
X104814788Y-78739621D01*
X104888161Y-78748500D01*
X105399595Y-78748500D01*
X105911838Y-78748499D01*
X105956090Y-78743145D01*
X105991628Y-78738845D01*
X105991631Y-78738844D01*
X105999658Y-78737873D01*
X106007175Y-78734897D01*
X106007178Y-78734896D01*
X106114277Y-78692492D01*
X106136837Y-78683560D01*
X106254357Y-78594357D01*
X106343560Y-78476837D01*
X106397873Y-78339658D01*
X106399439Y-78326722D01*
X106403466Y-78293435D01*
X106408500Y-78251839D01*
X106408499Y-77628162D01*
X106402455Y-77578213D01*
X106398845Y-77548372D01*
X106398844Y-77548369D01*
X106397873Y-77540342D01*
X106393629Y-77529621D01*
X106358167Y-77440057D01*
X106343560Y-77403163D01*
X106338370Y-77396325D01*
X106338368Y-77396322D01*
X106326874Y-77381179D01*
X106301621Y-77314826D01*
X106316250Y-77245353D01*
X106326874Y-77228821D01*
X106338368Y-77213678D01*
X106338370Y-77213674D01*
X106343560Y-77206837D01*
X106397873Y-77069658D01*
X106408500Y-76981839D01*
X106408499Y-76358162D01*
X106400995Y-76296145D01*
X106398845Y-76278372D01*
X106398844Y-76278369D01*
X106397873Y-76270342D01*
X106393474Y-76259230D01*
X106363732Y-76184111D01*
X106343560Y-76133163D01*
X106338370Y-76126325D01*
X106338368Y-76126322D01*
X106326874Y-76111179D01*
X106301621Y-76044826D01*
X106316250Y-75975353D01*
X106326874Y-75958821D01*
X106338368Y-75943678D01*
X106338370Y-75943675D01*
X106343560Y-75936837D01*
X106397873Y-75799658D01*
X106408500Y-75711839D01*
X106408499Y-75445660D01*
X106428501Y-75377541D01*
X106445404Y-75356566D01*
X106956565Y-74845405D01*
X107018877Y-74811379D01*
X107045660Y-74808500D01*
X107715500Y-74808500D01*
X107783621Y-74828502D01*
G37*
%TD.AperFunction*%
%TA.AperFunction,Conductor*%
G36*
X117946274Y-75455587D02*
G01*
X118401214Y-75462924D01*
X118469002Y-75484022D01*
X118499981Y-75513308D01*
X118854321Y-75985762D01*
X118855245Y-75986880D01*
X118855261Y-75986901D01*
X118868974Y-76003502D01*
X118884650Y-76022480D01*
X118900514Y-76039949D01*
X118934141Y-76073659D01*
X119053727Y-76154938D01*
X119057754Y-76156904D01*
X119057761Y-76156908D01*
X119099898Y-76177478D01*
X119117527Y-76186084D01*
X119121809Y-76187462D01*
X119154099Y-76197853D01*
X119212817Y-76237761D01*
X119240638Y-76303080D01*
X119241500Y-76317795D01*
X119241500Y-76338259D01*
X119239949Y-76357969D01*
X119236594Y-76379152D01*
X119237340Y-76387043D01*
X119240941Y-76425138D01*
X119241500Y-76436996D01*
X119241500Y-78867944D01*
X119240941Y-78879800D01*
X119239212Y-78887537D01*
X119239461Y-78895459D01*
X119241438Y-78958369D01*
X119241500Y-78962327D01*
X119241500Y-78991432D01*
X119242056Y-78995832D01*
X119242988Y-79007664D01*
X119244438Y-79053831D01*
X119246650Y-79061444D01*
X119246650Y-79061445D01*
X119250419Y-79074416D01*
X119254430Y-79093782D01*
X119257118Y-79115064D01*
X119260034Y-79122429D01*
X119260035Y-79122433D01*
X119274126Y-79158021D01*
X119277965Y-79169231D01*
X119290855Y-79213600D01*
X119301775Y-79232065D01*
X119310466Y-79249805D01*
X119318365Y-79269756D01*
X119325891Y-79280114D01*
X119328359Y-79283511D01*
X119351821Y-79345275D01*
X119354163Y-79369160D01*
X119356387Y-79375845D01*
X119381297Y-79450728D01*
X119383820Y-79521680D01*
X119347583Y-79582732D01*
X119284091Y-79614502D01*
X119261739Y-79616500D01*
X118974326Y-79616500D01*
X118970570Y-79616955D01*
X118970562Y-79616955D01*
X118915136Y-79623662D01*
X118884864Y-79623662D01*
X118829438Y-79616955D01*
X118829430Y-79616955D01*
X118825674Y-79616500D01*
X118474326Y-79616500D01*
X118470570Y-79616955D01*
X118470562Y-79616955D01*
X118415136Y-79623662D01*
X118384864Y-79623662D01*
X118329438Y-79616955D01*
X118329430Y-79616955D01*
X118325674Y-79616500D01*
X117974326Y-79616500D01*
X117970570Y-79616955D01*
X117970562Y-79616955D01*
X117915136Y-79623662D01*
X117884864Y-79623662D01*
X117829438Y-79616955D01*
X117829430Y-79616955D01*
X117825674Y-79616500D01*
X117474326Y-79616500D01*
X117470570Y-79616955D01*
X117470562Y-79616955D01*
X117415136Y-79623662D01*
X117384864Y-79623662D01*
X117329438Y-79616955D01*
X117329430Y-79616955D01*
X117325674Y-79616500D01*
X117312944Y-79616500D01*
X117244823Y-79596498D01*
X117198330Y-79542842D01*
X117187069Y-79486851D01*
X117188219Y-79479588D01*
X117184059Y-79435577D01*
X117183500Y-79423720D01*
X117183500Y-77378768D01*
X117184027Y-77367585D01*
X117185702Y-77360092D01*
X117183562Y-77292001D01*
X117183500Y-77288044D01*
X117183500Y-77260144D01*
X117182996Y-77256153D01*
X117182063Y-77244311D01*
X117181478Y-77225674D01*
X117180674Y-77200111D01*
X117178462Y-77192497D01*
X117178461Y-77192492D01*
X117175023Y-77180659D01*
X117171012Y-77161295D01*
X117169467Y-77149064D01*
X117168474Y-77141203D01*
X117165557Y-77133836D01*
X117165556Y-77133831D01*
X117152198Y-77100092D01*
X117148354Y-77088865D01*
X117140440Y-77061628D01*
X117136018Y-77046407D01*
X117125707Y-77028972D01*
X117117012Y-77011224D01*
X117109552Y-76992383D01*
X117101892Y-76981839D01*
X117083564Y-76956613D01*
X117077048Y-76946693D01*
X117058580Y-76915465D01*
X117058578Y-76915462D01*
X117054542Y-76908638D01*
X117040221Y-76894317D01*
X117027380Y-76879283D01*
X117024011Y-76874646D01*
X117015472Y-76862893D01*
X116981395Y-76834702D01*
X116972616Y-76826712D01*
X115783151Y-75637246D01*
X115749125Y-75574934D01*
X115754190Y-75504118D01*
X115796737Y-75447283D01*
X115863257Y-75422472D01*
X115874278Y-75422167D01*
X117946274Y-75455587D01*
G37*
%TD.AperFunction*%
%TA.AperFunction,Conductor*%
G36*
X124033621Y-78428502D02*
G01*
X124080114Y-78482158D01*
X124091500Y-78534500D01*
X124091500Y-79165500D01*
X124071498Y-79233621D01*
X124017842Y-79280114D01*
X123965500Y-79291500D01*
X123209500Y-79291500D01*
X123141379Y-79271498D01*
X123094886Y-79217842D01*
X123083500Y-79165500D01*
X123083500Y-78874326D01*
X123083045Y-78870560D01*
X123076338Y-78815136D01*
X123076338Y-78784864D01*
X123083045Y-78729438D01*
X123083045Y-78729430D01*
X123083500Y-78725674D01*
X123083500Y-78534500D01*
X123103502Y-78466379D01*
X123157158Y-78419886D01*
X123209500Y-78408500D01*
X123965500Y-78408500D01*
X124033621Y-78428502D01*
G37*
%TD.AperFunction*%
%TA.AperFunction,Conductor*%
G36*
X99183132Y-75953502D02*
G01*
X99229625Y-76007158D01*
X99241011Y-76059500D01*
X99241011Y-78740500D01*
X99221009Y-78808621D01*
X99167353Y-78855114D01*
X99115011Y-78866500D01*
X97502000Y-78866500D01*
X97433879Y-78846498D01*
X97387386Y-78792842D01*
X97376000Y-78740500D01*
X97376000Y-76059500D01*
X97396002Y-75991379D01*
X97449658Y-75944886D01*
X97502000Y-75933500D01*
X99115011Y-75933500D01*
X99183132Y-75953502D01*
G37*
%TD.AperFunction*%
%TA.AperFunction,Conductor*%
G36*
X109292943Y-76375437D02*
G01*
X109306517Y-76390454D01*
X109309785Y-76394712D01*
X109324590Y-76414006D01*
X109328459Y-76419332D01*
X109360339Y-76465720D01*
X109360344Y-76465725D01*
X109364643Y-76471981D01*
X109370313Y-76477032D01*
X109370314Y-76477034D01*
X109411170Y-76513435D01*
X109416446Y-76518416D01*
X109754596Y-76856566D01*
X109788622Y-76918878D01*
X109791501Y-76945661D01*
X109791501Y-76981838D01*
X109792777Y-76992383D01*
X109799314Y-77046407D01*
X109802127Y-77069658D01*
X109805103Y-77077175D01*
X109805104Y-77077178D01*
X109817993Y-77109731D01*
X109856440Y-77206837D01*
X109945643Y-77324357D01*
X110063163Y-77413560D01*
X110200342Y-77467873D01*
X110208380Y-77468846D01*
X110208381Y-77468846D01*
X110240225Y-77472699D01*
X110288161Y-77478500D01*
X110799056Y-77478500D01*
X111311838Y-77478499D01*
X111314641Y-77478160D01*
X111383637Y-77493979D01*
X111433275Y-77544739D01*
X111447591Y-77614277D01*
X111422038Y-77680516D01*
X111411115Y-77692980D01*
X110739499Y-78364596D01*
X110677187Y-78398622D01*
X110650404Y-78401501D01*
X110288162Y-78401501D01*
X110243910Y-78406855D01*
X110208372Y-78411155D01*
X110208369Y-78411156D01*
X110200342Y-78412127D01*
X110192825Y-78415103D01*
X110192822Y-78415104D01*
X110158983Y-78428502D01*
X110063163Y-78466440D01*
X109945643Y-78555643D01*
X109940455Y-78562478D01*
X109940452Y-78562481D01*
X109922150Y-78586593D01*
X109865032Y-78628760D01*
X109794184Y-78633353D01*
X109769943Y-78625253D01*
X109755994Y-78618955D01*
X109748527Y-78617571D01*
X109745972Y-78616770D01*
X109729719Y-78612141D01*
X109727139Y-78611478D01*
X109720058Y-78608718D01*
X109712527Y-78607727D01*
X109712525Y-78607726D01*
X109682906Y-78603827D01*
X109656706Y-78600378D01*
X109650208Y-78599348D01*
X109587381Y-78587704D01*
X109579801Y-78588141D01*
X109579800Y-78588141D01*
X109525175Y-78591291D01*
X109517921Y-78591500D01*
X108745660Y-78591500D01*
X108677539Y-78571498D01*
X108656565Y-78554595D01*
X108395405Y-78293435D01*
X108361379Y-78231123D01*
X108358500Y-78204340D01*
X108358500Y-77195661D01*
X108378502Y-77127540D01*
X108395405Y-77106565D01*
X108696785Y-76805186D01*
X109030536Y-76471435D01*
X109036801Y-76465582D01*
X109074664Y-76432552D01*
X109074665Y-76432551D01*
X109080385Y-76427561D01*
X109084750Y-76421350D01*
X109084753Y-76421347D01*
X109103472Y-76394712D01*
X109159006Y-76350480D01*
X109229638Y-76343295D01*
X109292943Y-76375437D01*
G37*
%TD.AperFunction*%
%TA.AperFunction,Conductor*%
G36*
X104616512Y-68212870D02*
G01*
X104623095Y-68218999D01*
X104829595Y-68425499D01*
X104863621Y-68487811D01*
X104866500Y-68514594D01*
X104866500Y-69971233D01*
X104865973Y-69982416D01*
X104864298Y-69989909D01*
X104864547Y-69997835D01*
X104864547Y-69997836D01*
X104866438Y-70057986D01*
X104866500Y-70061945D01*
X104866500Y-70089856D01*
X104866997Y-70093790D01*
X104866997Y-70093791D01*
X104867005Y-70093856D01*
X104867938Y-70105693D01*
X104869327Y-70149889D01*
X104874978Y-70169339D01*
X104878987Y-70188700D01*
X104881526Y-70208797D01*
X104884445Y-70216168D01*
X104884445Y-70216170D01*
X104897804Y-70249912D01*
X104901649Y-70261142D01*
X104913982Y-70303593D01*
X104918015Y-70310412D01*
X104918017Y-70310417D01*
X104924293Y-70321028D01*
X104932988Y-70338776D01*
X104940448Y-70357617D01*
X104945110Y-70364033D01*
X104945110Y-70364034D01*
X104966436Y-70393387D01*
X104972952Y-70403307D01*
X104981199Y-70417251D01*
X104995458Y-70441362D01*
X105009779Y-70455683D01*
X105022619Y-70470716D01*
X105034528Y-70487107D01*
X105046900Y-70497342D01*
X105068605Y-70515298D01*
X105077384Y-70523288D01*
X106457460Y-71903364D01*
X106486691Y-71949158D01*
X106511473Y-72016879D01*
X106511475Y-72016883D01*
X106514085Y-72024015D01*
X106518322Y-72030321D01*
X106518324Y-72030324D01*
X106561225Y-72094166D01*
X106609730Y-72166349D01*
X106628127Y-72183089D01*
X106729489Y-72275321D01*
X106736565Y-72281760D01*
X106887268Y-72363585D01*
X107053139Y-72407101D01*
X107140586Y-72408474D01*
X107217003Y-72409675D01*
X107217006Y-72409675D01*
X107224602Y-72409794D01*
X107232006Y-72408098D01*
X107232008Y-72408098D01*
X107319183Y-72388132D01*
X107391759Y-72371510D01*
X107544958Y-72294459D01*
X107633670Y-72218692D01*
X107698459Y-72189661D01*
X107768659Y-72200266D01*
X107821981Y-72247140D01*
X107841500Y-72314503D01*
X107841500Y-73265500D01*
X107821498Y-73333621D01*
X107767842Y-73380114D01*
X107715500Y-73391500D01*
X106728927Y-73391500D01*
X106720358Y-73391208D01*
X106670225Y-73387790D01*
X106670221Y-73387790D01*
X106662648Y-73387274D01*
X106599681Y-73398264D01*
X106593169Y-73399224D01*
X106529758Y-73406898D01*
X106522657Y-73409581D01*
X106520048Y-73410222D01*
X106503728Y-73414687D01*
X106501195Y-73415452D01*
X106493717Y-73416757D01*
X106435190Y-73442448D01*
X106429108Y-73444930D01*
X106408753Y-73452622D01*
X106376449Y-73464828D01*
X106376447Y-73464829D01*
X106369344Y-73467513D01*
X106363085Y-73471814D01*
X106360720Y-73473051D01*
X106345948Y-73481273D01*
X106343656Y-73482628D01*
X106336695Y-73485684D01*
X106330668Y-73490309D01*
X106330664Y-73490311D01*
X106285987Y-73524593D01*
X106280662Y-73528462D01*
X106267387Y-73537586D01*
X106248647Y-73550466D01*
X106228019Y-73564643D01*
X106222967Y-73570313D01*
X106222966Y-73570314D01*
X106186573Y-73611161D01*
X106181610Y-73616419D01*
X105243433Y-74554597D01*
X105181122Y-74588621D01*
X105154339Y-74591501D01*
X104888162Y-74591501D01*
X104843910Y-74596855D01*
X104808372Y-74601155D01*
X104808369Y-74601156D01*
X104800342Y-74602127D01*
X104792825Y-74605103D01*
X104792822Y-74605104D01*
X104770306Y-74614019D01*
X104663163Y-74656440D01*
X104545643Y-74745643D01*
X104456440Y-74863163D01*
X104402127Y-75000342D01*
X104391500Y-75088161D01*
X104391500Y-75091950D01*
X104391501Y-75465500D01*
X104371499Y-75533620D01*
X104317844Y-75580113D01*
X104265501Y-75591500D01*
X103297386Y-75591500D01*
X103207934Y-75602325D01*
X103200406Y-75605305D01*
X103200404Y-75605306D01*
X103149991Y-75625266D01*
X103068208Y-75657646D01*
X102948505Y-75748505D01*
X102857646Y-75868208D01*
X102854486Y-75876190D01*
X102854483Y-75876195D01*
X102849626Y-75888463D01*
X102805951Y-75944436D01*
X102738948Y-75967912D01*
X102717352Y-75967167D01*
X102711839Y-75966500D01*
X102630409Y-75966500D01*
X101064577Y-75966501D01*
X100996456Y-75946499D01*
X100949963Y-75892843D01*
X100939859Y-75822569D01*
X100951308Y-75790056D01*
X100949613Y-75789323D01*
X100949614Y-75789322D01*
X100967174Y-75748742D01*
X100972391Y-75738094D01*
X100989875Y-75706291D01*
X100989876Y-75706289D01*
X100993695Y-75699342D01*
X100998733Y-75679719D01*
X101005137Y-75661016D01*
X101010033Y-75649702D01*
X101010033Y-75649701D01*
X101013181Y-75642427D01*
X101014420Y-75634604D01*
X101014423Y-75634594D01*
X101020099Y-75598758D01*
X101022505Y-75587138D01*
X101031528Y-75551993D01*
X101031528Y-75551992D01*
X101033500Y-75544312D01*
X101033500Y-75524058D01*
X101035051Y-75504347D01*
X101036980Y-75492168D01*
X101038220Y-75484339D01*
X101034059Y-75440320D01*
X101033500Y-75428463D01*
X101033500Y-71914595D01*
X101053502Y-71846474D01*
X101070405Y-71825500D01*
X101092253Y-71803652D01*
X101100539Y-71796112D01*
X101107018Y-71792000D01*
X101153645Y-71742347D01*
X101156399Y-71739506D01*
X101176135Y-71719770D01*
X101178615Y-71716573D01*
X101186320Y-71707551D01*
X101216586Y-71675321D01*
X101220405Y-71668375D01*
X101220407Y-71668372D01*
X101226348Y-71657566D01*
X101237199Y-71641047D01*
X101241254Y-71635819D01*
X101249614Y-71625041D01*
X101252759Y-71617772D01*
X101252762Y-71617768D01*
X101267174Y-71584463D01*
X101272391Y-71573813D01*
X101293695Y-71535060D01*
X101298733Y-71515437D01*
X101305137Y-71496734D01*
X101310033Y-71485420D01*
X101310033Y-71485419D01*
X101313181Y-71478145D01*
X101314420Y-71470322D01*
X101314423Y-71470312D01*
X101320099Y-71434476D01*
X101322505Y-71422856D01*
X101331528Y-71387711D01*
X101331528Y-71387710D01*
X101333500Y-71380030D01*
X101333500Y-71359776D01*
X101335051Y-71340065D01*
X101336980Y-71327886D01*
X101338220Y-71320057D01*
X101334059Y-71276038D01*
X101333500Y-71264181D01*
X101333500Y-69134000D01*
X101353502Y-69065879D01*
X101407158Y-69019386D01*
X101459500Y-69008000D01*
X103774000Y-69008000D01*
X103881980Y-68996391D01*
X103885264Y-68995677D01*
X103885268Y-68995676D01*
X103911893Y-68989884D01*
X103934322Y-68985005D01*
X104037372Y-68950707D01*
X104159010Y-68872535D01*
X104212666Y-68826042D01*
X104219408Y-68818262D01*
X104301453Y-68723577D01*
X104307355Y-68716766D01*
X104367421Y-68585240D01*
X104376243Y-68555196D01*
X104386154Y-68521442D01*
X104386155Y-68521438D01*
X104387423Y-68517119D01*
X104388064Y-68512664D01*
X104407361Y-68378448D01*
X104407362Y-68378441D01*
X104408000Y-68374000D01*
X104408000Y-68308094D01*
X104428002Y-68239973D01*
X104481658Y-68193480D01*
X104551932Y-68183376D01*
X104616512Y-68212870D01*
G37*
%TD.AperFunction*%
%TA.AperFunction,Conductor*%
G36*
X124401221Y-69653502D02*
G01*
X124450252Y-69713115D01*
X124457646Y-69731792D01*
X124548505Y-69851495D01*
X124668208Y-69942354D01*
X124726598Y-69965472D01*
X124800404Y-69994694D01*
X124800406Y-69994695D01*
X124807934Y-69997675D01*
X124897386Y-70008500D01*
X125702614Y-70008500D01*
X125792066Y-69997675D01*
X125799594Y-69994695D01*
X125799596Y-69994694D01*
X125873402Y-69965472D01*
X125931792Y-69942354D01*
X125938630Y-69937164D01*
X125938633Y-69937162D01*
X126023821Y-69872501D01*
X126090175Y-69847248D01*
X126159648Y-69861877D01*
X126176179Y-69872501D01*
X126261367Y-69937162D01*
X126261370Y-69937164D01*
X126268208Y-69942354D01*
X126326598Y-69965472D01*
X126400404Y-69994694D01*
X126400406Y-69994695D01*
X126407934Y-69997675D01*
X126497386Y-70008500D01*
X126501177Y-70008500D01*
X126502552Y-70008583D01*
X126569345Y-70032649D01*
X126612523Y-70089007D01*
X126618378Y-70159762D01*
X126611375Y-70182571D01*
X126590118Y-70233891D01*
X126580940Y-70256050D01*
X126566500Y-70365730D01*
X126566500Y-70785405D01*
X126546498Y-70853526D01*
X126529595Y-70874501D01*
X126064030Y-71340065D01*
X125607742Y-71796353D01*
X125599463Y-71803887D01*
X125592982Y-71808000D01*
X125557617Y-71845660D01*
X125546357Y-71857651D01*
X125543602Y-71860493D01*
X125523865Y-71880230D01*
X125521385Y-71883427D01*
X125513682Y-71892447D01*
X125483414Y-71924679D01*
X125479595Y-71931625D01*
X125479593Y-71931628D01*
X125473652Y-71942434D01*
X125462801Y-71958953D01*
X125450386Y-71974959D01*
X125447241Y-71982228D01*
X125447238Y-71982232D01*
X125432826Y-72015537D01*
X125427609Y-72026187D01*
X125406305Y-72064940D01*
X125404334Y-72072615D01*
X125404334Y-72072616D01*
X125401267Y-72084562D01*
X125394863Y-72103266D01*
X125390882Y-72112467D01*
X125386819Y-72121855D01*
X125385580Y-72129678D01*
X125385577Y-72129688D01*
X125379901Y-72165524D01*
X125377495Y-72177144D01*
X125370956Y-72202614D01*
X125366500Y-72219970D01*
X125366500Y-72240224D01*
X125364949Y-72259934D01*
X125361780Y-72279943D01*
X125362526Y-72287835D01*
X125365941Y-72323961D01*
X125366500Y-72335819D01*
X125366500Y-73385405D01*
X125346498Y-73453526D01*
X125329595Y-73474500D01*
X123749500Y-75054595D01*
X123687188Y-75088621D01*
X123660405Y-75091500D01*
X123209500Y-75091500D01*
X123141379Y-75071498D01*
X123094886Y-75017842D01*
X123083500Y-74965500D01*
X123083500Y-74874326D01*
X123082150Y-74863163D01*
X123076338Y-74815136D01*
X123076338Y-74784864D01*
X123083045Y-74729438D01*
X123083045Y-74729430D01*
X123083500Y-74725674D01*
X123083500Y-74374326D01*
X123076338Y-74315136D01*
X123076338Y-74284864D01*
X123083045Y-74229438D01*
X123083045Y-74229430D01*
X123083500Y-74225674D01*
X123083500Y-73874326D01*
X123082351Y-73864825D01*
X123076338Y-73815136D01*
X123076338Y-73784864D01*
X123083045Y-73729438D01*
X123083045Y-73729430D01*
X123083500Y-73725674D01*
X123083500Y-73374326D01*
X123082573Y-73366664D01*
X123094242Y-73296637D01*
X123141921Y-73244032D01*
X123210471Y-73225555D01*
X123266226Y-73240850D01*
X123268208Y-73242354D01*
X123326669Y-73265500D01*
X123400404Y-73294694D01*
X123400406Y-73294695D01*
X123407934Y-73297675D01*
X123497386Y-73308500D01*
X124302614Y-73308500D01*
X124392066Y-73297675D01*
X124399594Y-73294695D01*
X124399596Y-73294694D01*
X124473331Y-73265500D01*
X124531792Y-73242354D01*
X124651495Y-73151495D01*
X124742354Y-73031792D01*
X124788525Y-72915177D01*
X124794694Y-72899596D01*
X124794695Y-72899594D01*
X124797675Y-72892066D01*
X124808500Y-72802614D01*
X124808500Y-71797386D01*
X124797675Y-71707934D01*
X124782012Y-71668372D01*
X124769123Y-71635819D01*
X124742354Y-71568208D01*
X124651495Y-71448505D01*
X124531792Y-71357646D01*
X124425436Y-71315537D01*
X124399596Y-71305306D01*
X124399594Y-71305305D01*
X124392066Y-71302325D01*
X124302614Y-71291500D01*
X123983314Y-71291500D01*
X123915193Y-71271498D01*
X123868700Y-71217842D01*
X123858004Y-71152330D01*
X123862814Y-71106565D01*
X123863504Y-71100000D01*
X123854756Y-71016770D01*
X123844232Y-70916635D01*
X123844232Y-70916633D01*
X123843542Y-70910072D01*
X123784527Y-70728444D01*
X123768886Y-70701352D01*
X123724664Y-70624759D01*
X123689040Y-70563056D01*
X123678776Y-70551656D01*
X123565675Y-70426045D01*
X123565674Y-70426044D01*
X123561253Y-70421134D01*
X123435217Y-70329563D01*
X123412094Y-70312763D01*
X123412093Y-70312762D01*
X123406752Y-70308882D01*
X123400724Y-70306198D01*
X123400722Y-70306197D01*
X123238319Y-70233891D01*
X123238318Y-70233891D01*
X123232288Y-70231206D01*
X123126863Y-70208797D01*
X123051944Y-70192872D01*
X123051939Y-70192872D01*
X123045487Y-70191500D01*
X122854513Y-70191500D01*
X122848061Y-70192872D01*
X122848056Y-70192872D01*
X122773137Y-70208797D01*
X122667712Y-70231206D01*
X122661682Y-70233891D01*
X122661681Y-70233891D01*
X122499278Y-70306197D01*
X122499276Y-70306198D01*
X122493248Y-70308882D01*
X122487907Y-70312762D01*
X122487906Y-70312763D01*
X122464783Y-70329563D01*
X122338747Y-70421134D01*
X122334326Y-70426044D01*
X122334325Y-70426045D01*
X122221225Y-70551656D01*
X122210960Y-70563056D01*
X122175336Y-70624759D01*
X122131115Y-70701352D01*
X122115473Y-70728444D01*
X122056458Y-70910072D01*
X122055768Y-70916633D01*
X122055768Y-70916635D01*
X122045244Y-71016770D01*
X122036496Y-71100000D01*
X122037186Y-71106565D01*
X122054377Y-71270125D01*
X122056458Y-71289928D01*
X122115473Y-71471556D01*
X122118776Y-71477278D01*
X122118777Y-71477279D01*
X122135263Y-71505834D01*
X122210960Y-71636944D01*
X122215378Y-71641851D01*
X122215379Y-71641852D01*
X122318667Y-71756565D01*
X122338747Y-71778866D01*
X122464354Y-71870125D01*
X122470235Y-71874398D01*
X122485269Y-71887239D01*
X122954595Y-72356565D01*
X122988621Y-72418877D01*
X122991500Y-72445660D01*
X122991500Y-72802614D01*
X122991956Y-72806379D01*
X122994108Y-72824163D01*
X122982435Y-72894193D01*
X122934754Y-72946796D01*
X122866203Y-72965269D01*
X122820190Y-72952645D01*
X122819404Y-72954631D01*
X122686046Y-72901831D01*
X122678008Y-72900858D01*
X122678007Y-72900858D01*
X122647840Y-72897208D01*
X122600674Y-72891500D01*
X121699326Y-72891500D01*
X121652160Y-72897208D01*
X121621993Y-72900858D01*
X121621992Y-72900858D01*
X121613954Y-72901831D01*
X121598431Y-72907977D01*
X121488579Y-72951470D01*
X121488577Y-72951471D01*
X121480596Y-72954631D01*
X121366349Y-73041349D01*
X121279631Y-73155596D01*
X121276471Y-73163577D01*
X121276470Y-73163579D01*
X121253063Y-73222699D01*
X121226831Y-73288954D01*
X121225859Y-73296990D01*
X121225858Y-73296992D01*
X121224812Y-73305638D01*
X121196771Y-73370862D01*
X121137918Y-73410572D01*
X121099725Y-73416500D01*
X121064595Y-73416500D01*
X120996474Y-73396498D01*
X120975499Y-73379595D01*
X120789067Y-73193162D01*
X120755042Y-73130850D01*
X120760107Y-73060034D01*
X120802654Y-73003199D01*
X120863026Y-72978980D01*
X120903007Y-72974142D01*
X120903008Y-72974142D01*
X120911046Y-72973169D01*
X120979665Y-72946001D01*
X121036421Y-72923530D01*
X121036423Y-72923529D01*
X121044404Y-72920369D01*
X121158651Y-72833651D01*
X121245369Y-72719404D01*
X121298169Y-72586046D01*
X121300628Y-72565730D01*
X121308044Y-72504440D01*
X121308500Y-72500674D01*
X121308500Y-72322382D01*
X121324090Y-72261673D01*
X121326351Y-72257561D01*
X121337199Y-72241047D01*
X121344758Y-72231301D01*
X121349614Y-72225041D01*
X121352759Y-72217772D01*
X121352762Y-72217768D01*
X121367174Y-72184463D01*
X121372391Y-72173813D01*
X121393695Y-72135060D01*
X121397086Y-72121855D01*
X121398733Y-72115438D01*
X121405137Y-72096734D01*
X121410033Y-72085420D01*
X121410033Y-72085419D01*
X121413181Y-72078145D01*
X121414420Y-72070322D01*
X121414423Y-72070312D01*
X121420099Y-72034476D01*
X121422505Y-72022856D01*
X121431528Y-71987711D01*
X121431528Y-71987710D01*
X121433500Y-71980030D01*
X121433500Y-71959776D01*
X121435051Y-71940065D01*
X121436980Y-71927886D01*
X121438220Y-71920057D01*
X121434059Y-71876038D01*
X121433500Y-71864181D01*
X121433500Y-71198119D01*
X121442592Y-71151123D01*
X121461399Y-71104337D01*
X121489385Y-71034720D01*
X121495927Y-70988756D01*
X121512966Y-70869031D01*
X121512966Y-70869027D01*
X121513547Y-70864947D01*
X121513704Y-70850000D01*
X121500984Y-70744886D01*
X121494015Y-70687299D01*
X121494014Y-70687296D01*
X121493102Y-70679758D01*
X121432487Y-70519344D01*
X121382748Y-70446973D01*
X121339659Y-70384278D01*
X121339658Y-70384276D01*
X121335357Y-70378019D01*
X121326191Y-70369852D01*
X121212993Y-70268996D01*
X121212990Y-70268994D01*
X121207321Y-70263943D01*
X121055769Y-70183700D01*
X121036504Y-70178861D01*
X120896822Y-70143775D01*
X120896818Y-70143775D01*
X120889451Y-70141924D01*
X120881852Y-70141884D01*
X120881850Y-70141884D01*
X120810394Y-70141510D01*
X120717969Y-70141026D01*
X120710589Y-70142798D01*
X120710587Y-70142798D01*
X120551223Y-70181058D01*
X120550702Y-70178886D01*
X120490960Y-70183100D01*
X120465420Y-70173747D01*
X120465410Y-70173773D01*
X120463744Y-70173134D01*
X120458912Y-70171364D01*
X120458325Y-70171053D01*
X120458317Y-70171050D01*
X120451605Y-70167496D01*
X120420815Y-70159762D01*
X120292658Y-70127571D01*
X120292654Y-70127571D01*
X120285287Y-70125720D01*
X120277688Y-70125680D01*
X120277686Y-70125680D01*
X120206230Y-70125306D01*
X120113805Y-70124822D01*
X120106425Y-70126594D01*
X120106423Y-70126594D01*
X119954438Y-70163082D01*
X119954434Y-70163083D01*
X119947059Y-70164854D01*
X119940317Y-70168334D01*
X119940311Y-70168336D01*
X119862194Y-70208655D01*
X119792487Y-70222124D01*
X119773711Y-70218893D01*
X119697519Y-70199756D01*
X119697520Y-70199756D01*
X119690146Y-70197904D01*
X119682547Y-70197864D01*
X119682545Y-70197864D01*
X119596131Y-70197412D01*
X119561424Y-70197230D01*
X119493409Y-70176872D01*
X119447198Y-70122973D01*
X119437462Y-70052648D01*
X119467293Y-69988222D01*
X119472989Y-69982137D01*
X119784721Y-69670405D01*
X119847033Y-69636379D01*
X119873816Y-69633500D01*
X124333100Y-69633500D01*
X124401221Y-69653502D01*
G37*
%TD.AperFunction*%
%TA.AperFunction,Conductor*%
G36*
X109789805Y-71916334D02*
G01*
X109846640Y-71958881D01*
X109865328Y-71994613D01*
X109907094Y-72120167D01*
X109910741Y-72126189D01*
X109910742Y-72126191D01*
X109985810Y-72250142D01*
X109995246Y-72265723D01*
X110113455Y-72388132D01*
X110142443Y-72407101D01*
X110217245Y-72456050D01*
X110255846Y-72481310D01*
X110262450Y-72483766D01*
X110262452Y-72483767D01*
X110302044Y-72498491D01*
X110415341Y-72540626D01*
X110420257Y-72541282D01*
X110478111Y-72574015D01*
X111480501Y-73576405D01*
X111514527Y-73638717D01*
X111509462Y-73709532D01*
X111466915Y-73766368D01*
X111400395Y-73791179D01*
X111391406Y-73791500D01*
X110428927Y-73791500D01*
X110420358Y-73791208D01*
X110370225Y-73787790D01*
X110370221Y-73787790D01*
X110362648Y-73787274D01*
X110299681Y-73798264D01*
X110293169Y-73799224D01*
X110229758Y-73806898D01*
X110222657Y-73809581D01*
X110220048Y-73810222D01*
X110203715Y-73814691D01*
X110201195Y-73815452D01*
X110193717Y-73816757D01*
X110186765Y-73819809D01*
X110186764Y-73819809D01*
X110135204Y-73842441D01*
X110129099Y-73844932D01*
X110076456Y-73864825D01*
X110076452Y-73864827D01*
X110069344Y-73867513D01*
X110063083Y-73871816D01*
X110060717Y-73873053D01*
X110045937Y-73881280D01*
X110043652Y-73882631D01*
X110036695Y-73885685D01*
X110030675Y-73890305D01*
X110030669Y-73890308D01*
X110013095Y-73903794D01*
X109985998Y-73924587D01*
X109980668Y-73928459D01*
X109934280Y-73960339D01*
X109934275Y-73960344D01*
X109928019Y-73964643D01*
X109922968Y-73970313D01*
X109922966Y-73970314D01*
X109886565Y-74011170D01*
X109881584Y-74016446D01*
X109675812Y-74222218D01*
X109613500Y-74256244D01*
X109542685Y-74251179D01*
X109485849Y-74208632D01*
X109461038Y-74142112D01*
X109461407Y-74119953D01*
X109462814Y-74106565D01*
X109463504Y-74100000D01*
X109448276Y-73955114D01*
X109444232Y-73916635D01*
X109444232Y-73916633D01*
X109443542Y-73910072D01*
X109384527Y-73728444D01*
X109316814Y-73611161D01*
X109292342Y-73568775D01*
X109292341Y-73568774D01*
X109289040Y-73563056D01*
X109284621Y-73558148D01*
X109282564Y-73555317D01*
X109258705Y-73488449D01*
X109258500Y-73481256D01*
X109258500Y-72395661D01*
X109278502Y-72327540D01*
X109295405Y-72306565D01*
X109656677Y-71945294D01*
X109718989Y-71911269D01*
X109789805Y-71916334D01*
G37*
%TD.AperFunction*%
%TA.AperFunction,Conductor*%
G36*
X130846121Y-68078502D02*
G01*
X130892614Y-68132158D01*
X130904000Y-68184500D01*
X130904000Y-73840500D01*
X130883998Y-73908621D01*
X130830342Y-73955114D01*
X130778000Y-73966500D01*
X130309092Y-73966500D01*
X130240971Y-73946498D01*
X130194478Y-73892842D01*
X130183729Y-73834270D01*
X130183500Y-73834270D01*
X130183500Y-72565730D01*
X130180791Y-72545150D01*
X130170138Y-72464234D01*
X130170137Y-72464230D01*
X130169060Y-72456050D01*
X130165902Y-72448426D01*
X130165901Y-72448422D01*
X130115694Y-72327210D01*
X130115693Y-72327209D01*
X130112533Y-72319579D01*
X130102547Y-72306565D01*
X130027639Y-72208943D01*
X130027636Y-72208940D01*
X130022610Y-72202390D01*
X129997457Y-72183089D01*
X129923305Y-72126191D01*
X129905420Y-72112467D01*
X129768950Y-72055940D01*
X129659270Y-72041500D01*
X129218323Y-72041499D01*
X128793315Y-72041499D01*
X128789381Y-72041998D01*
X128789377Y-72041998D01*
X128737964Y-72048516D01*
X128707241Y-72052411D01*
X128706355Y-72052779D01*
X128638919Y-72051040D01*
X128580202Y-72011131D01*
X128552383Y-71945811D01*
X128563447Y-71880799D01*
X128562533Y-71880420D01*
X128564194Y-71876411D01*
X128564194Y-71876409D01*
X128619060Y-71743950D01*
X128633500Y-71634270D01*
X128633500Y-70365730D01*
X128629953Y-70338787D01*
X128620138Y-70264234D01*
X128620137Y-70264230D01*
X128619060Y-70256050D01*
X128615902Y-70248426D01*
X128615901Y-70248422D01*
X128569501Y-70136401D01*
X128561912Y-70065811D01*
X128596815Y-69999089D01*
X128600499Y-69995405D01*
X128662811Y-69961379D01*
X128689594Y-69958500D01*
X129152614Y-69958500D01*
X129242066Y-69947675D01*
X129249594Y-69944695D01*
X129249596Y-69944694D01*
X129300009Y-69924734D01*
X129381792Y-69892354D01*
X129501495Y-69801495D01*
X129592354Y-69681792D01*
X129638736Y-69564643D01*
X129644694Y-69549596D01*
X129644695Y-69549594D01*
X129647675Y-69542066D01*
X129658500Y-69452614D01*
X129658500Y-68447386D01*
X129647675Y-68357934D01*
X129597372Y-68230882D01*
X129590893Y-68160183D01*
X129623665Y-68097203D01*
X129685285Y-68061940D01*
X129714524Y-68058500D01*
X130778000Y-68058500D01*
X130846121Y-68078502D01*
G37*
%TD.AperFunction*%
%TA.AperFunction,Conductor*%
G36*
X100008621Y-70753502D02*
G01*
X100055114Y-70807158D01*
X100066500Y-70859500D01*
X100066500Y-70985405D01*
X100046498Y-71053526D01*
X100029595Y-71074500D01*
X100007747Y-71096348D01*
X99999461Y-71103888D01*
X99992982Y-71108000D01*
X99987557Y-71113777D01*
X99946356Y-71157652D01*
X99943601Y-71160494D01*
X99923865Y-71180230D01*
X99921385Y-71183427D01*
X99913682Y-71192447D01*
X99883414Y-71224679D01*
X99879595Y-71231625D01*
X99879593Y-71231628D01*
X99873652Y-71242434D01*
X99862801Y-71258953D01*
X99850386Y-71274959D01*
X99847241Y-71282228D01*
X99847238Y-71282232D01*
X99832826Y-71315537D01*
X99827609Y-71326187D01*
X99806305Y-71364940D01*
X99804334Y-71372615D01*
X99804334Y-71372616D01*
X99801267Y-71384562D01*
X99794863Y-71403266D01*
X99786819Y-71421855D01*
X99785580Y-71429678D01*
X99785577Y-71429688D01*
X99779901Y-71465524D01*
X99777495Y-71477144D01*
X99772466Y-71496734D01*
X99766500Y-71519970D01*
X99766500Y-71540224D01*
X99764949Y-71559934D01*
X99761780Y-71579943D01*
X99762526Y-71587835D01*
X99765941Y-71623961D01*
X99766500Y-71635819D01*
X99766500Y-73790500D01*
X99746498Y-73858621D01*
X99692842Y-73905114D01*
X99640500Y-73916500D01*
X97502000Y-73916500D01*
X97433879Y-73896498D01*
X97387386Y-73842842D01*
X97376000Y-73790500D01*
X97376000Y-70859500D01*
X97396002Y-70791379D01*
X97449658Y-70744886D01*
X97502000Y-70733500D01*
X99940500Y-70733500D01*
X100008621Y-70753502D01*
G37*
%TD.AperFunction*%
%TA.AperFunction,Conductor*%
G36*
X128269871Y-72157531D02*
G01*
X128322969Y-72204660D01*
X128342159Y-72273013D01*
X128321348Y-72340891D01*
X128305263Y-72360609D01*
X128238780Y-72427092D01*
X128238773Y-72427100D01*
X128235960Y-72429913D01*
X128182812Y-72498491D01*
X128127189Y-72633109D01*
X128126140Y-72641469D01*
X128126140Y-72641470D01*
X128117732Y-72708500D01*
X128116500Y-72718317D01*
X128116500Y-73390980D01*
X128096498Y-73459101D01*
X128042842Y-73505594D01*
X127990500Y-73516980D01*
X127128288Y-73516980D01*
X127117105Y-73516453D01*
X127109612Y-73514778D01*
X127101686Y-73515027D01*
X127101685Y-73515027D01*
X127041522Y-73516918D01*
X127037564Y-73516980D01*
X127009664Y-73516980D01*
X127005674Y-73517484D01*
X126993840Y-73518416D01*
X126949631Y-73519806D01*
X126942015Y-73522019D01*
X126942013Y-73522019D01*
X126930172Y-73525459D01*
X126910813Y-73529468D01*
X126909503Y-73529634D01*
X126890723Y-73532006D01*
X126883357Y-73534922D01*
X126883351Y-73534924D01*
X126849618Y-73548280D01*
X126838388Y-73552125D01*
X126827401Y-73555317D01*
X126795928Y-73564461D01*
X126795050Y-73561438D01*
X126739100Y-73568354D01*
X126675116Y-73537586D01*
X126637924Y-73477111D01*
X126633500Y-73444016D01*
X126633500Y-72614594D01*
X126653502Y-72546473D01*
X126670405Y-72525499D01*
X127000569Y-72195335D01*
X127062881Y-72161309D01*
X127090730Y-72159236D01*
X127090730Y-72158500D01*
X128109270Y-72158500D01*
X128113355Y-72157962D01*
X128113358Y-72157962D01*
X128199722Y-72146592D01*
X128269871Y-72157531D01*
G37*
%TD.AperFunction*%
%TA.AperFunction,Conductor*%
G36*
X112122461Y-70828502D02*
G01*
X112143435Y-70845405D01*
X113054595Y-71756565D01*
X113088621Y-71818877D01*
X113091500Y-71845660D01*
X113091500Y-72202614D01*
X113102325Y-72292066D01*
X113105305Y-72299594D01*
X113105306Y-72299596D01*
X113119648Y-72335819D01*
X113157646Y-72431792D01*
X113248505Y-72551495D01*
X113368208Y-72642354D01*
X113383349Y-72648349D01*
X113439322Y-72692023D01*
X113462798Y-72759026D01*
X113446322Y-72828084D01*
X113395126Y-72877273D01*
X113336964Y-72891500D01*
X113199326Y-72891500D01*
X113152160Y-72897208D01*
X113121993Y-72900858D01*
X113121992Y-72900858D01*
X113113954Y-72901831D01*
X113098431Y-72907977D01*
X112988579Y-72951470D01*
X112988577Y-72951471D01*
X112980596Y-72954631D01*
X112966581Y-72965269D01*
X112880510Y-73030600D01*
X112814157Y-73055853D01*
X112744684Y-73041224D01*
X112715236Y-73019332D01*
X112069110Y-72373205D01*
X111374105Y-71678200D01*
X111344209Y-71630542D01*
X111329337Y-71587835D01*
X111288368Y-71470189D01*
X111271575Y-71443314D01*
X111236829Y-71387711D01*
X111198192Y-71325879D01*
X111164053Y-71291500D01*
X111104597Y-71231628D01*
X111078286Y-71205132D01*
X111067236Y-71198119D01*
X111005720Y-71159080D01*
X110934608Y-71113951D01*
X110823817Y-71074500D01*
X110793049Y-71063544D01*
X110735585Y-71021850D01*
X110709785Y-70955707D01*
X110723840Y-70886116D01*
X110746221Y-70855750D01*
X110756566Y-70845405D01*
X110818878Y-70811379D01*
X110845661Y-70808500D01*
X112054340Y-70808500D01*
X112122461Y-70828502D01*
G37*
%TD.AperFunction*%
%TA.AperFunction,Conductor*%
G36*
X111034121Y-62878502D02*
G01*
X111080614Y-62932158D01*
X111092000Y-62984500D01*
X111092000Y-64374000D01*
X111103609Y-64481980D01*
X111104323Y-64485264D01*
X111104324Y-64485268D01*
X111106153Y-64493674D01*
X111114995Y-64534322D01*
X111149293Y-64637372D01*
X111227465Y-64759010D01*
X111273958Y-64812666D01*
X111383234Y-64907355D01*
X111514760Y-64967421D01*
X111538514Y-64974396D01*
X111578558Y-64986154D01*
X111578562Y-64986155D01*
X111582881Y-64987423D01*
X111587329Y-64988063D01*
X111587336Y-64988064D01*
X111721552Y-65007361D01*
X111721559Y-65007362D01*
X111726000Y-65008000D01*
X114491905Y-65008000D01*
X114560026Y-65028002D01*
X114606519Y-65081658D01*
X114616623Y-65151932D01*
X114587129Y-65216512D01*
X114581000Y-65223095D01*
X111275887Y-68528208D01*
X111227397Y-68558391D01*
X111082362Y-68607764D01*
X111082359Y-68607765D01*
X111075692Y-68610035D01*
X111069694Y-68613725D01*
X111069692Y-68613726D01*
X110936754Y-68695510D01*
X110936752Y-68695512D01*
X110930755Y-68699201D01*
X110809175Y-68818262D01*
X110716993Y-68961299D01*
X110658792Y-69121205D01*
X110657909Y-69128195D01*
X110638699Y-69280255D01*
X110610317Y-69345332D01*
X110551257Y-69384733D01*
X110505125Y-69390171D01*
X110462647Y-69387275D01*
X110399685Y-69398264D01*
X110393195Y-69399221D01*
X110329758Y-69406898D01*
X110322649Y-69409584D01*
X110320078Y-69410216D01*
X110303772Y-69414676D01*
X110301204Y-69415451D01*
X110293716Y-69416758D01*
X110258722Y-69432119D01*
X110235212Y-69442439D01*
X110229105Y-69444931D01*
X110221518Y-69447798D01*
X110169344Y-69467513D01*
X110163083Y-69471816D01*
X110160717Y-69473053D01*
X110145937Y-69481280D01*
X110143652Y-69482631D01*
X110136695Y-69485685D01*
X110130675Y-69490305D01*
X110130669Y-69490308D01*
X110099542Y-69514194D01*
X110085998Y-69524587D01*
X110080668Y-69528459D01*
X110034280Y-69560339D01*
X110034275Y-69560344D01*
X110028019Y-69564643D01*
X110022968Y-69570313D01*
X110022966Y-69570314D01*
X109986565Y-69611170D01*
X109981584Y-69616446D01*
X108069480Y-71528550D01*
X108063215Y-71534404D01*
X108035606Y-71558489D01*
X107971123Y-71588197D01*
X107900816Y-71578328D01*
X107847006Y-71532014D01*
X107834910Y-71508078D01*
X107785171Y-71376447D01*
X107782487Y-71369344D01*
X107748613Y-71320057D01*
X107689659Y-71234278D01*
X107689658Y-71234276D01*
X107685357Y-71228019D01*
X107673935Y-71217842D01*
X107562993Y-71118996D01*
X107562990Y-71118994D01*
X107557321Y-71113943D01*
X107543387Y-71106565D01*
X107511202Y-71089524D01*
X107405769Y-71033700D01*
X107398397Y-71031848D01*
X107391308Y-71029127D01*
X107392338Y-71026444D01*
X107346204Y-71000299D01*
X106170405Y-69824500D01*
X106136379Y-69762188D01*
X106133500Y-69735405D01*
X106133500Y-68278763D01*
X106134027Y-68267579D01*
X106135701Y-68260091D01*
X106133562Y-68192032D01*
X106133500Y-68188075D01*
X106133500Y-68160144D01*
X106132994Y-68156138D01*
X106132061Y-68144292D01*
X106130922Y-68108037D01*
X106130673Y-68100110D01*
X106125022Y-68080658D01*
X106121014Y-68061306D01*
X106119467Y-68049063D01*
X106118474Y-68041203D01*
X106111462Y-68023492D01*
X106102200Y-68000097D01*
X106098355Y-67988870D01*
X106097721Y-67986687D01*
X106086018Y-67946407D01*
X106081984Y-67939585D01*
X106081981Y-67939579D01*
X106075706Y-67928968D01*
X106067010Y-67911218D01*
X106062472Y-67899756D01*
X106062469Y-67899751D01*
X106059552Y-67892383D01*
X106033573Y-67856625D01*
X106027057Y-67846707D01*
X106008575Y-67815457D01*
X106004542Y-67808637D01*
X105990218Y-67794313D01*
X105977376Y-67779278D01*
X105965472Y-67762893D01*
X105931406Y-67734711D01*
X105922627Y-67726722D01*
X104428652Y-66232747D01*
X104421112Y-66224461D01*
X104417000Y-66217982D01*
X104409329Y-66210778D01*
X104367349Y-66171357D01*
X104364507Y-66168602D01*
X104362106Y-66166201D01*
X104328080Y-66103889D01*
X104333145Y-66033074D01*
X104375692Y-65976238D01*
X104442212Y-65951427D01*
X104502449Y-65961999D01*
X104511677Y-65966108D01*
X104511685Y-65966111D01*
X104517712Y-65968794D01*
X104602329Y-65986780D01*
X104698056Y-66007128D01*
X104698061Y-66007128D01*
X104704513Y-66008500D01*
X104895487Y-66008500D01*
X104901939Y-66007128D01*
X104901944Y-66007128D01*
X104997671Y-65986780D01*
X105082288Y-65968794D01*
X105090221Y-65965262D01*
X105250722Y-65893803D01*
X105250724Y-65893802D01*
X105256752Y-65891118D01*
X105293166Y-65864662D01*
X105355852Y-65819117D01*
X105411253Y-65778866D01*
X105486015Y-65695834D01*
X105534621Y-65641852D01*
X105534622Y-65641851D01*
X105539040Y-65636944D01*
X105622843Y-65491793D01*
X105631223Y-65477279D01*
X105631224Y-65477278D01*
X105634527Y-65471556D01*
X105693542Y-65289928D01*
X105698450Y-65243230D01*
X105725463Y-65177573D01*
X105734665Y-65167305D01*
X108006565Y-62895405D01*
X108068877Y-62861379D01*
X108095660Y-62858500D01*
X110966000Y-62858500D01*
X111034121Y-62878502D01*
G37*
%TD.AperFunction*%
%TA.AperFunction,Conductor*%
G36*
X120529464Y-64603502D02*
G01*
X120575957Y-64657158D01*
X120586061Y-64727432D01*
X120556567Y-64792012D01*
X120533063Y-64813096D01*
X120439535Y-64877846D01*
X120405758Y-64894401D01*
X120335351Y-64916635D01*
X120144583Y-64976878D01*
X119629438Y-65139555D01*
X119614932Y-65144377D01*
X119614495Y-65144529D01*
X119614441Y-65144548D01*
X119608242Y-65146713D01*
X119608217Y-65146722D01*
X119607793Y-65146870D01*
X119607405Y-65147012D01*
X119607366Y-65147026D01*
X119598151Y-65150400D01*
X119598147Y-65150402D01*
X119593479Y-65152111D01*
X119467201Y-65222543D01*
X119463622Y-65225272D01*
X119463623Y-65225272D01*
X119440078Y-65243230D01*
X119410750Y-65265598D01*
X119309432Y-65368750D01*
X119241278Y-65496272D01*
X119217065Y-65563012D01*
X119216149Y-65567412D01*
X119216148Y-65567416D01*
X119188514Y-65700171D01*
X119188513Y-65700178D01*
X119187598Y-65704574D01*
X119172100Y-65952534D01*
X119152788Y-66261533D01*
X119151027Y-66289702D01*
X119156772Y-66403832D01*
X119165913Y-66459412D01*
X119197020Y-66569363D01*
X119270268Y-66694029D01*
X119273076Y-66697544D01*
X119273080Y-66697550D01*
X119301444Y-66733056D01*
X119314579Y-66749500D01*
X119317852Y-66752573D01*
X119317858Y-66752580D01*
X119383830Y-66814530D01*
X119419988Y-66848483D01*
X119549008Y-66913756D01*
X119553273Y-66915196D01*
X119553276Y-66915197D01*
X119553472Y-66915263D01*
X119616275Y-66936464D01*
X119758453Y-66962744D01*
X119762945Y-66962924D01*
X119762948Y-66962924D01*
X120212993Y-66980926D01*
X120459680Y-66990793D01*
X120526946Y-67013501D01*
X120571257Y-67068973D01*
X120576182Y-67083461D01*
X120581708Y-67103675D01*
X120650850Y-67230664D01*
X120653545Y-67234273D01*
X120690634Y-67283944D01*
X120690639Y-67283949D01*
X120693328Y-67287551D01*
X120795453Y-67389922D01*
X120922276Y-67459368D01*
X120988767Y-67484258D01*
X120993160Y-67485219D01*
X120993163Y-67485220D01*
X121115017Y-67511880D01*
X121130013Y-67515161D01*
X122375658Y-67605753D01*
X122442148Y-67630643D01*
X122460152Y-67647108D01*
X122488747Y-67678866D01*
X122494086Y-67682745D01*
X122626952Y-67779278D01*
X122643248Y-67791118D01*
X122649276Y-67793802D01*
X122649278Y-67793803D01*
X122811681Y-67866109D01*
X122817712Y-67868794D01*
X122898509Y-67885968D01*
X122998056Y-67907128D01*
X122998061Y-67907128D01*
X123004513Y-67908500D01*
X123195487Y-67908500D01*
X123204166Y-67906655D01*
X123205484Y-67906756D01*
X123208515Y-67906437D01*
X123208573Y-67906991D01*
X123274956Y-67912054D01*
X123331590Y-67954869D01*
X123355965Y-68019852D01*
X123371987Y-68220112D01*
X123372814Y-68230452D01*
X123358308Y-68299951D01*
X123308531Y-68350575D01*
X123247215Y-68366500D01*
X119637990Y-68366500D01*
X119626807Y-68365973D01*
X119619314Y-68364298D01*
X119611388Y-68364547D01*
X119611387Y-68364547D01*
X119551224Y-68366438D01*
X119547266Y-68366500D01*
X119519366Y-68366500D01*
X119515376Y-68367004D01*
X119503542Y-68367936D01*
X119459333Y-68369326D01*
X119451717Y-68371539D01*
X119451715Y-68371539D01*
X119439874Y-68374979D01*
X119420515Y-68378988D01*
X119419205Y-68379154D01*
X119400425Y-68381526D01*
X119393059Y-68384442D01*
X119393053Y-68384444D01*
X119359320Y-68397800D01*
X119348090Y-68401645D01*
X119326443Y-68407934D01*
X119305629Y-68413981D01*
X119298806Y-68418016D01*
X119288188Y-68424295D01*
X119270435Y-68432992D01*
X119262790Y-68436019D01*
X119251605Y-68440448D01*
X119245190Y-68445109D01*
X119215834Y-68466437D01*
X119205917Y-68472951D01*
X119167860Y-68495458D01*
X119153539Y-68509779D01*
X119138506Y-68522619D01*
X119122115Y-68534528D01*
X119117064Y-68540634D01*
X119093924Y-68568605D01*
X119085934Y-68577384D01*
X117257747Y-70405570D01*
X117249461Y-70413110D01*
X117242982Y-70417222D01*
X117237557Y-70422999D01*
X117196357Y-70466873D01*
X117193602Y-70469715D01*
X117173865Y-70489452D01*
X117171385Y-70492649D01*
X117163682Y-70501669D01*
X117133414Y-70533901D01*
X117129595Y-70540847D01*
X117129593Y-70540850D01*
X117123652Y-70551656D01*
X117112801Y-70568175D01*
X117100386Y-70584181D01*
X117097241Y-70591450D01*
X117097238Y-70591454D01*
X117082826Y-70624759D01*
X117077609Y-70635409D01*
X117056305Y-70674162D01*
X117054334Y-70681837D01*
X117054334Y-70681838D01*
X117051267Y-70693784D01*
X117044863Y-70712488D01*
X117036819Y-70731077D01*
X117035580Y-70738900D01*
X117035577Y-70738910D01*
X117029901Y-70774746D01*
X117027495Y-70786366D01*
X117021073Y-70811379D01*
X117016500Y-70829192D01*
X117016500Y-70849446D01*
X117014949Y-70869156D01*
X117011780Y-70889165D01*
X117012526Y-70897057D01*
X117015941Y-70933183D01*
X117016500Y-70945041D01*
X117016500Y-70997425D01*
X116996498Y-71065546D01*
X116942842Y-71112039D01*
X116875363Y-71122512D01*
X116829452Y-71116956D01*
X116829433Y-71116955D01*
X116825674Y-71116500D01*
X116474326Y-71116500D01*
X116470570Y-71116955D01*
X116470562Y-71116955D01*
X116415136Y-71123662D01*
X116384864Y-71123662D01*
X116329438Y-71116955D01*
X116329430Y-71116955D01*
X116325674Y-71116500D01*
X115974326Y-71116500D01*
X115927160Y-71122208D01*
X115896993Y-71125858D01*
X115896992Y-71125858D01*
X115888954Y-71126831D01*
X115755596Y-71179631D01*
X115738709Y-71192449D01*
X115726180Y-71201959D01*
X115659826Y-71227212D01*
X115590353Y-71212584D01*
X115573820Y-71201959D01*
X115561291Y-71192449D01*
X115544404Y-71179631D01*
X115411046Y-71126831D01*
X115403008Y-71125858D01*
X115403007Y-71125858D01*
X115372840Y-71122208D01*
X115325674Y-71116500D01*
X115247630Y-71116500D01*
X115182634Y-71097416D01*
X115182192Y-71098145D01*
X115175693Y-71094209D01*
X115169718Y-71089524D01*
X115162802Y-71086401D01*
X115160516Y-71085017D01*
X115145835Y-71076643D01*
X115143475Y-71075378D01*
X115137261Y-71071010D01*
X115130182Y-71068250D01*
X115130180Y-71068249D01*
X115077725Y-71047798D01*
X115071656Y-71045247D01*
X115013427Y-71018955D01*
X115005960Y-71017571D01*
X115003405Y-71016770D01*
X114987152Y-71012141D01*
X114984572Y-71011478D01*
X114977491Y-71008718D01*
X114969960Y-71007727D01*
X114969958Y-71007726D01*
X114940339Y-71003827D01*
X114914139Y-71000378D01*
X114907526Y-70999327D01*
X114906969Y-70999224D01*
X114843669Y-70967075D01*
X114829700Y-70951537D01*
X114756686Y-70855344D01*
X114751495Y-70848505D01*
X114631792Y-70757646D01*
X114543581Y-70722721D01*
X114499596Y-70705306D01*
X114499594Y-70705305D01*
X114492066Y-70702325D01*
X114402614Y-70691500D01*
X114045660Y-70691500D01*
X113977539Y-70671498D01*
X113956565Y-70654595D01*
X112921450Y-69619480D01*
X112915596Y-69613215D01*
X112913812Y-69611170D01*
X112877561Y-69569615D01*
X112825280Y-69532871D01*
X112819986Y-69528939D01*
X112775693Y-69494209D01*
X112769718Y-69489524D01*
X112762802Y-69486401D01*
X112760516Y-69485017D01*
X112745835Y-69476643D01*
X112743475Y-69475378D01*
X112737261Y-69471010D01*
X112730182Y-69468250D01*
X112730180Y-69468249D01*
X112677725Y-69447798D01*
X112671656Y-69445247D01*
X112613427Y-69418955D01*
X112605960Y-69417571D01*
X112603405Y-69416770D01*
X112587152Y-69412141D01*
X112584572Y-69411478D01*
X112577491Y-69408718D01*
X112569960Y-69407727D01*
X112569958Y-69407726D01*
X112540339Y-69403827D01*
X112514139Y-69400378D01*
X112507647Y-69399350D01*
X112480670Y-69394350D01*
X112417337Y-69362268D01*
X112381401Y-69301038D01*
X112384273Y-69230100D01*
X112414539Y-69181365D01*
X116975499Y-64620405D01*
X117037811Y-64586379D01*
X117064594Y-64583500D01*
X120461343Y-64583500D01*
X120529464Y-64603502D01*
G37*
%TD.AperFunction*%
%TA.AperFunction,Conductor*%
G36*
X127206493Y-56196005D02*
G01*
X127252986Y-56249661D01*
X127263090Y-56319935D01*
X127233596Y-56384515D01*
X127212434Y-56403938D01*
X127207460Y-56407552D01*
X126977367Y-56623624D01*
X126776168Y-56866831D01*
X126607038Y-57133337D01*
X126605354Y-57136916D01*
X126605350Y-57136923D01*
X126475155Y-57413604D01*
X126472644Y-57418940D01*
X126471418Y-57422712D01*
X126471418Y-57422713D01*
X126444898Y-57504334D01*
X126375105Y-57719134D01*
X126315959Y-58029186D01*
X126296140Y-58344206D01*
X126315959Y-58659226D01*
X126375105Y-58969278D01*
X126472644Y-59269472D01*
X126474331Y-59273058D01*
X126474333Y-59273062D01*
X126605350Y-59551489D01*
X126605354Y-59551496D01*
X126607038Y-59555075D01*
X126776168Y-59821581D01*
X126977367Y-60064788D01*
X127207460Y-60280860D01*
X127462821Y-60466390D01*
X127739421Y-60618453D01*
X127743090Y-60619906D01*
X127743095Y-60619908D01*
X128029228Y-60733196D01*
X128032898Y-60734649D01*
X128338625Y-60813146D01*
X128555110Y-60840494D01*
X128620186Y-60868876D01*
X128659588Y-60927935D01*
X128660805Y-60998921D01*
X128623450Y-61059296D01*
X128559384Y-61089892D01*
X128539318Y-61091500D01*
X128206608Y-61091500D01*
X128148338Y-61098551D01*
X128123566Y-61101549D01*
X128123565Y-61101549D01*
X128115527Y-61102522D01*
X127973253Y-61158852D01*
X127851368Y-61251368D01*
X127758852Y-61373253D01*
X127702522Y-61515527D01*
X127701549Y-61523565D01*
X127701549Y-61523566D01*
X127700613Y-61531299D01*
X127691500Y-61606608D01*
X127691500Y-62593392D01*
X127702522Y-62684473D01*
X127758852Y-62826747D01*
X127851368Y-62948632D01*
X127973253Y-63041148D01*
X128115527Y-63097478D01*
X128123565Y-63098451D01*
X128123566Y-63098451D01*
X128148338Y-63101449D01*
X128206608Y-63108500D01*
X130778000Y-63108500D01*
X130846121Y-63128502D01*
X130892614Y-63182158D01*
X130904000Y-63234500D01*
X130904000Y-65915500D01*
X130883998Y-65983621D01*
X130830342Y-66030114D01*
X130778000Y-66041500D01*
X128206608Y-66041500D01*
X128148338Y-66048551D01*
X128123566Y-66051549D01*
X128123565Y-66051549D01*
X128115527Y-66052522D01*
X127973253Y-66108852D01*
X127851368Y-66201368D01*
X127758852Y-66323253D01*
X127702522Y-66465527D01*
X127691500Y-66556608D01*
X127691500Y-67543392D01*
X127691956Y-67547157D01*
X127699047Y-67605753D01*
X127702522Y-67634473D01*
X127758852Y-67776747D01*
X127851368Y-67898632D01*
X127858203Y-67903820D01*
X127940613Y-67966373D01*
X127982780Y-68023492D01*
X127987372Y-68094339D01*
X127964796Y-68142915D01*
X127955362Y-68155344D01*
X127907646Y-68218208D01*
X127905163Y-68216323D01*
X127865109Y-68255319D01*
X127795540Y-68269480D01*
X127729357Y-68243781D01*
X127705847Y-68220112D01*
X127705003Y-68218999D01*
X127651495Y-68148505D01*
X127531792Y-68057646D01*
X127436337Y-68019853D01*
X127399596Y-68005306D01*
X127399594Y-68005305D01*
X127392066Y-68002325D01*
X127302614Y-67991500D01*
X126497386Y-67991500D01*
X126407934Y-68002325D01*
X126400406Y-68005305D01*
X126400404Y-68005306D01*
X126289886Y-68049063D01*
X126268208Y-68057646D01*
X126267902Y-68056873D01*
X126205617Y-68071296D01*
X126138771Y-68047375D01*
X126095470Y-67991112D01*
X126087742Y-67931201D01*
X126167390Y-67234273D01*
X126203725Y-66916341D01*
X126203816Y-66915197D01*
X126206413Y-66882502D01*
X126206415Y-66882475D01*
X126206501Y-66881388D01*
X126207279Y-66864016D01*
X126207637Y-66828902D01*
X126205701Y-66749500D01*
X126202194Y-66605729D01*
X126202194Y-66605728D01*
X126190401Y-66122218D01*
X126190400Y-66122208D01*
X126190323Y-66119040D01*
X126177510Y-66017397D01*
X126166161Y-65968128D01*
X126133218Y-65871128D01*
X126055046Y-65749490D01*
X126008553Y-65695834D01*
X126002519Y-65690605D01*
X125906088Y-65607047D01*
X125899277Y-65601145D01*
X125767751Y-65541079D01*
X125740689Y-65533133D01*
X125703953Y-65522346D01*
X125703949Y-65522345D01*
X125699630Y-65521077D01*
X125695182Y-65520437D01*
X125695175Y-65520436D01*
X125560959Y-65501139D01*
X125560952Y-65501138D01*
X125556511Y-65500500D01*
X125525501Y-65500500D01*
X125457380Y-65480498D01*
X125410887Y-65426842D01*
X125399501Y-65374500D01*
X125399500Y-64949924D01*
X125399500Y-64946365D01*
X125399101Y-64942841D01*
X125399100Y-64942830D01*
X125394097Y-64898688D01*
X125406301Y-64828749D01*
X125454380Y-64776509D01*
X125519296Y-64758500D01*
X127063358Y-64758499D01*
X127111838Y-64758499D01*
X127156090Y-64753145D01*
X127191628Y-64748845D01*
X127191631Y-64748844D01*
X127199658Y-64747873D01*
X127207175Y-64744897D01*
X127207178Y-64744896D01*
X127275343Y-64717907D01*
X127336837Y-64693560D01*
X127454357Y-64604357D01*
X127543560Y-64486837D01*
X127597873Y-64349658D01*
X127608500Y-64261839D01*
X127608499Y-63638162D01*
X127597873Y-63550342D01*
X127592227Y-63536080D01*
X127546720Y-63421145D01*
X127543560Y-63413163D01*
X127454357Y-63295643D01*
X127336837Y-63206440D01*
X127199658Y-63152127D01*
X127191620Y-63151154D01*
X127191619Y-63151154D01*
X127159775Y-63147301D01*
X127111839Y-63141500D01*
X126250682Y-63141500D01*
X125388162Y-63141501D01*
X125343910Y-63146855D01*
X125308372Y-63151155D01*
X125308369Y-63151156D01*
X125300342Y-63152127D01*
X125292825Y-63155103D01*
X125292822Y-63155104D01*
X125224657Y-63182093D01*
X125163163Y-63206440D01*
X125126196Y-63234500D01*
X125051940Y-63290863D01*
X124985586Y-63316116D01*
X124975760Y-63316500D01*
X116828767Y-63316500D01*
X116817584Y-63315973D01*
X116810091Y-63314298D01*
X116802165Y-63314547D01*
X116802164Y-63314547D01*
X116742014Y-63316438D01*
X116738055Y-63316500D01*
X116710144Y-63316500D01*
X116706210Y-63316997D01*
X116706209Y-63316997D01*
X116706144Y-63317005D01*
X116694307Y-63317938D01*
X116662490Y-63318938D01*
X116658029Y-63319078D01*
X116650110Y-63319327D01*
X116632454Y-63324456D01*
X116630658Y-63324978D01*
X116611306Y-63328986D01*
X116604235Y-63329880D01*
X116591203Y-63331526D01*
X116583834Y-63334443D01*
X116583832Y-63334444D01*
X116550097Y-63347800D01*
X116538869Y-63351645D01*
X116496407Y-63363982D01*
X116489585Y-63368016D01*
X116489579Y-63368019D01*
X116478968Y-63374294D01*
X116461218Y-63382990D01*
X116449756Y-63387528D01*
X116449751Y-63387531D01*
X116442383Y-63390448D01*
X116435968Y-63395109D01*
X116406625Y-63416427D01*
X116396707Y-63422943D01*
X116378019Y-63433995D01*
X116358637Y-63445458D01*
X116344313Y-63459782D01*
X116329281Y-63472621D01*
X116312893Y-63484528D01*
X116284712Y-63518593D01*
X116276722Y-63527373D01*
X116187909Y-63616186D01*
X116125597Y-63650212D01*
X116054782Y-63645147D01*
X115997946Y-63602600D01*
X115973135Y-63536080D01*
X115972828Y-63525182D01*
X115972928Y-63518593D01*
X115980875Y-62994105D01*
X115980541Y-62990629D01*
X115980499Y-62989584D01*
X115997736Y-62920712D01*
X116049471Y-62872092D01*
X116106396Y-62858500D01*
X121638595Y-62858500D01*
X121706716Y-62878502D01*
X121712656Y-62882564D01*
X121780916Y-62932158D01*
X121793248Y-62941118D01*
X121799276Y-62943802D01*
X121799278Y-62943803D01*
X121961681Y-63016109D01*
X121967712Y-63018794D01*
X122048462Y-63035958D01*
X122148056Y-63057128D01*
X122148061Y-63057128D01*
X122154513Y-63058500D01*
X122345487Y-63058500D01*
X122351939Y-63057128D01*
X122351944Y-63057128D01*
X122451538Y-63035958D01*
X122532288Y-63018794D01*
X122538319Y-63016109D01*
X122700722Y-62943803D01*
X122700724Y-62943802D01*
X122706752Y-62941118D01*
X122719085Y-62932158D01*
X122801758Y-62872092D01*
X122861253Y-62828866D01*
X122919116Y-62764603D01*
X122984621Y-62691852D01*
X122984622Y-62691851D01*
X122989040Y-62686944D01*
X123084527Y-62521556D01*
X123143542Y-62339928D01*
X123163504Y-62150000D01*
X123143542Y-61960072D01*
X123084527Y-61778444D01*
X122989040Y-61613056D01*
X122882684Y-61494935D01*
X122865675Y-61476045D01*
X122865674Y-61476044D01*
X122861253Y-61471134D01*
X122726532Y-61373253D01*
X122712094Y-61362763D01*
X122712093Y-61362762D01*
X122706752Y-61358882D01*
X122700724Y-61356198D01*
X122700722Y-61356197D01*
X122538319Y-61283891D01*
X122538318Y-61283891D01*
X122532288Y-61281206D01*
X122424068Y-61258203D01*
X122351944Y-61242872D01*
X122351939Y-61242872D01*
X122345487Y-61241500D01*
X122154513Y-61241500D01*
X122148061Y-61242872D01*
X122148056Y-61242872D01*
X122075932Y-61258203D01*
X121967712Y-61281206D01*
X121961682Y-61283891D01*
X121961681Y-61283891D01*
X121799278Y-61356197D01*
X121799276Y-61356198D01*
X121793248Y-61358882D01*
X121787907Y-61362762D01*
X121787906Y-61362763D01*
X121712656Y-61417436D01*
X121645789Y-61441294D01*
X121638595Y-61441500D01*
X116132323Y-61441500D01*
X116064202Y-61421498D01*
X116017709Y-61367842D01*
X116006337Y-61313591D01*
X116006839Y-61280502D01*
X116043497Y-58861102D01*
X116060364Y-58800011D01*
X116131223Y-58677279D01*
X116131224Y-58677278D01*
X116134527Y-58671556D01*
X116193542Y-58489928D01*
X116213504Y-58300000D01*
X116212814Y-58293435D01*
X116194232Y-58116635D01*
X116194232Y-58116633D01*
X116193542Y-58110072D01*
X116134527Y-57928444D01*
X116039040Y-57763056D01*
X116015793Y-57737237D01*
X115915675Y-57626045D01*
X115915674Y-57626044D01*
X115911253Y-57621134D01*
X115893476Y-57608219D01*
X115873983Y-57590683D01*
X115868239Y-57584316D01*
X115865218Y-57580967D01*
X115754071Y-57488483D01*
X115641113Y-57439602D01*
X115625501Y-57432846D01*
X115625499Y-57432845D01*
X115621371Y-57431059D01*
X115552864Y-57412423D01*
X115417724Y-57395744D01*
X115406989Y-57393945D01*
X115395487Y-57391500D01*
X115204513Y-57391500D01*
X115198056Y-57392872D01*
X115198051Y-57392873D01*
X115178262Y-57397079D01*
X115154587Y-57399807D01*
X114910588Y-57404687D01*
X114693805Y-57409023D01*
X114665093Y-57406295D01*
X114634569Y-57399807D01*
X114601944Y-57392872D01*
X114601940Y-57392872D01*
X114595487Y-57391500D01*
X114404513Y-57391500D01*
X114398061Y-57392872D01*
X114398056Y-57392872D01*
X114295173Y-57414741D01*
X114271495Y-57417469D01*
X113485485Y-57433189D01*
X113168138Y-57439536D01*
X113164839Y-57439602D01*
X113111073Y-57446366D01*
X113062327Y-57452498D01*
X113062320Y-57452499D01*
X113059039Y-57452912D01*
X113055816Y-57453668D01*
X113055814Y-57453668D01*
X113011045Y-57464164D01*
X113011039Y-57464166D01*
X113007822Y-57464920D01*
X112907130Y-57500023D01*
X112786454Y-57579673D01*
X112783094Y-57582657D01*
X112736736Y-57623826D01*
X112736730Y-57623832D01*
X112733369Y-57626817D01*
X112730461Y-57630257D01*
X112730458Y-57630260D01*
X112645841Y-57730353D01*
X112645839Y-57730356D01*
X112640022Y-57737237D01*
X112581564Y-57869484D01*
X112562394Y-57937843D01*
X112543563Y-58081206D01*
X112580444Y-61105502D01*
X112582986Y-61313964D01*
X112563816Y-61382323D01*
X112510731Y-61429467D01*
X112456995Y-61441500D01*
X107778912Y-61441500D01*
X107770342Y-61441208D01*
X107720224Y-61437791D01*
X107720220Y-61437791D01*
X107712648Y-61437275D01*
X107705171Y-61438580D01*
X107705170Y-61438580D01*
X107678692Y-61443201D01*
X107649697Y-61448262D01*
X107643179Y-61449223D01*
X107579758Y-61456898D01*
X107572657Y-61459581D01*
X107570048Y-61460222D01*
X107553738Y-61464685D01*
X107551202Y-61465450D01*
X107543716Y-61466757D01*
X107536759Y-61469811D01*
X107485205Y-61492442D01*
X107479101Y-61494933D01*
X107419344Y-61517513D01*
X107413081Y-61521817D01*
X107410715Y-61523054D01*
X107395903Y-61531299D01*
X107393649Y-61532632D01*
X107386695Y-61535685D01*
X107335998Y-61574587D01*
X107330668Y-61578459D01*
X107284280Y-61610339D01*
X107284275Y-61610344D01*
X107278019Y-61614643D01*
X107272968Y-61620313D01*
X107272966Y-61620314D01*
X107236565Y-61661170D01*
X107231584Y-61666446D01*
X104733467Y-64164563D01*
X104670569Y-64198715D01*
X104517712Y-64231206D01*
X104511682Y-64233891D01*
X104511681Y-64233891D01*
X104349278Y-64306197D01*
X104349276Y-64306198D01*
X104343248Y-64308882D01*
X104188747Y-64421134D01*
X104184326Y-64426044D01*
X104184325Y-64426045D01*
X104131001Y-64485268D01*
X104060960Y-64563056D01*
X103965473Y-64728444D01*
X103906458Y-64910072D01*
X103905768Y-64916633D01*
X103905768Y-64916635D01*
X103898328Y-64987423D01*
X103886496Y-65100000D01*
X103887186Y-65106565D01*
X103903615Y-65262875D01*
X103906458Y-65289928D01*
X103965473Y-65471556D01*
X103968776Y-65477278D01*
X103968777Y-65477279D01*
X103977157Y-65491793D01*
X104060960Y-65636944D01*
X104065378Y-65641851D01*
X104065379Y-65641852D01*
X104113985Y-65695834D01*
X104188747Y-65778866D01*
X104197010Y-65784869D01*
X104198369Y-65785857D01*
X104241721Y-65842080D01*
X104247795Y-65912817D01*
X104214661Y-65975608D01*
X104152840Y-66010517D01*
X104103563Y-66009174D01*
X104103144Y-66011818D01*
X104059476Y-66004901D01*
X104047856Y-66002495D01*
X104012711Y-65993472D01*
X104012710Y-65993472D01*
X104005030Y-65991500D01*
X103984776Y-65991500D01*
X103965065Y-65989949D01*
X103952886Y-65988020D01*
X103945057Y-65986780D01*
X103937165Y-65987526D01*
X103901039Y-65990941D01*
X103889181Y-65991500D01*
X103447423Y-65991500D01*
X103379302Y-65971498D01*
X103332809Y-65917842D01*
X103322705Y-65847568D01*
X103330271Y-65819117D01*
X103343511Y-65785675D01*
X103347873Y-65774658D01*
X103358500Y-65686839D01*
X103358499Y-65063162D01*
X103351747Y-65007361D01*
X103348845Y-64983372D01*
X103348844Y-64983369D01*
X103347873Y-64975342D01*
X103344894Y-64967816D01*
X103313558Y-64888673D01*
X103293560Y-64838163D01*
X103204357Y-64720643D01*
X103086837Y-64631440D01*
X102949658Y-64577127D01*
X102941620Y-64576154D01*
X102941619Y-64576154D01*
X102909775Y-64572301D01*
X102861839Y-64566500D01*
X102000682Y-64566500D01*
X101138162Y-64566501D01*
X101093910Y-64571855D01*
X101058372Y-64576155D01*
X101058369Y-64576156D01*
X101050342Y-64577127D01*
X101042825Y-64580103D01*
X101042822Y-64580104D01*
X100998830Y-64597522D01*
X100913163Y-64631440D01*
X100795643Y-64720643D01*
X100706440Y-64838163D01*
X100652127Y-64975342D01*
X100651154Y-64983380D01*
X100651154Y-64983381D01*
X100648252Y-65007361D01*
X100641500Y-65063161D01*
X100641501Y-65268801D01*
X100641501Y-65444038D01*
X100621499Y-65512158D01*
X100604596Y-65533133D01*
X100307747Y-65829982D01*
X100299461Y-65837522D01*
X100292982Y-65841634D01*
X100287557Y-65847411D01*
X100246357Y-65891285D01*
X100243602Y-65894127D01*
X100223865Y-65913864D01*
X100221385Y-65917061D01*
X100213682Y-65926081D01*
X100183414Y-65958313D01*
X100179595Y-65965259D01*
X100179593Y-65965262D01*
X100173652Y-65976068D01*
X100162801Y-65992587D01*
X100150386Y-66008593D01*
X100147241Y-66015862D01*
X100147238Y-66015866D01*
X100132826Y-66049171D01*
X100127609Y-66059821D01*
X100106305Y-66098574D01*
X100104334Y-66106249D01*
X100104334Y-66106250D01*
X100101267Y-66118196D01*
X100094863Y-66136900D01*
X100086819Y-66155489D01*
X100085580Y-66163312D01*
X100085577Y-66163322D01*
X100079901Y-66199158D01*
X100077495Y-66210778D01*
X100074109Y-66223968D01*
X100066500Y-66253604D01*
X100066500Y-66273858D01*
X100064949Y-66293568D01*
X100061780Y-66313577D01*
X100062526Y-66321469D01*
X100065941Y-66357595D01*
X100066500Y-66369453D01*
X100066500Y-68590500D01*
X100046498Y-68658621D01*
X99992842Y-68705114D01*
X99940500Y-68716500D01*
X97502000Y-68716500D01*
X97433879Y-68696498D01*
X97387386Y-68642842D01*
X97376000Y-68590500D01*
X97376000Y-63409500D01*
X97396002Y-63341379D01*
X97449658Y-63294886D01*
X97502000Y-63283500D01*
X100043392Y-63283500D01*
X100101662Y-63276449D01*
X100126434Y-63273451D01*
X100126435Y-63273451D01*
X100134473Y-63272478D01*
X100276747Y-63216148D01*
X100398632Y-63123632D01*
X100491148Y-63001747D01*
X100547478Y-62859473D01*
X100558500Y-62768392D01*
X100558500Y-61781608D01*
X100547478Y-61690527D01*
X100491148Y-61548253D01*
X100398632Y-61426368D01*
X100276747Y-61333852D01*
X100134473Y-61277522D01*
X100126435Y-61276549D01*
X100126434Y-61276549D01*
X100101662Y-61273551D01*
X100043392Y-61266500D01*
X97502000Y-61266500D01*
X97433879Y-61246498D01*
X97387386Y-61192842D01*
X97376000Y-61140500D01*
X97376000Y-60050478D01*
X97396002Y-59982357D01*
X97449658Y-59935864D01*
X97519932Y-59925760D01*
X97584512Y-59955254D01*
X97599084Y-59970162D01*
X97674834Y-60061727D01*
X97674836Y-60061729D01*
X97677367Y-60064788D01*
X97907460Y-60280860D01*
X98162821Y-60466390D01*
X98439421Y-60618453D01*
X98443090Y-60619906D01*
X98443095Y-60619908D01*
X98729228Y-60733196D01*
X98732898Y-60734649D01*
X99038625Y-60813146D01*
X99351779Y-60852706D01*
X99667421Y-60852706D01*
X99980575Y-60813146D01*
X100286302Y-60734649D01*
X100289972Y-60733196D01*
X100576105Y-60619908D01*
X100576110Y-60619906D01*
X100579779Y-60618453D01*
X100856379Y-60466390D01*
X101111740Y-60280860D01*
X101341833Y-60064788D01*
X101543032Y-59821581D01*
X101712162Y-59555075D01*
X101713846Y-59551496D01*
X101713850Y-59551489D01*
X101844867Y-59273062D01*
X101844869Y-59273058D01*
X101846556Y-59269472D01*
X101944095Y-58969278D01*
X102003241Y-58659226D01*
X102023060Y-58344206D01*
X102003241Y-58029186D01*
X101944095Y-57719134D01*
X101874302Y-57504334D01*
X101847782Y-57422713D01*
X101847782Y-57422712D01*
X101846556Y-57418940D01*
X101844045Y-57413604D01*
X101713850Y-57136923D01*
X101713846Y-57136916D01*
X101712162Y-57133337D01*
X101543032Y-56866831D01*
X101341833Y-56623624D01*
X101111740Y-56407552D01*
X101106767Y-56403939D01*
X101106388Y-56403447D01*
X101105486Y-56402701D01*
X101105655Y-56402497D01*
X101063414Y-56347718D01*
X101057337Y-56276982D01*
X101090468Y-56214190D01*
X101152288Y-56179278D01*
X101180828Y-56176003D01*
X127138372Y-56176003D01*
X127206493Y-56196005D01*
G37*
%TD.AperFunction*%
%TD*%
M02*
